<svg data-name="Layer 1" xmlns="http://www.w3.org/2000/svg" width="300" height="300"><path fill="#ffe399" d="M0 0h300v300H0z"/><path d="M238.7 54.5H61.3A11.3 11.3 0 0 0 50 65.8v179.7h200V65.8a11.3 11.3 0 0 0-11.3-11.3z" fill="#fff8e5"/><path d="M117.5 54.9c2.6.5 11.7.1 16.8.2-2-.7-3.2-.1-7.7-.4-.1.4-6.4 0-9.1.2zm-67.6 182c-.1.4.1 2.3.2 1.5s-.1-2.3-.2-1.5zM204.8 55.1h-7.7c-.6.3 8.4.3 7.7 0zm-78.1-.5v-.2c-1.7.1-.8.2 0 .2z" fill="none"/><path d="M123.7 54.6c-4.2-.7-10.1.3-16.8 0a50.3 50.3 0 0 0 10.7.2c.4-.2 3.8-.1 6.1-.2zm73.5 0h-35.3c8.2.4 27.1.4 35.3 0zm7.6.3c-.9-.3-1.8 0 0 0zm-29.1.6c-.4-.1-2.3.1-1.5.2s2.3-.1 1.5-.2zm-72-.9c-1.8 0-4.3 0-4.6.2 1.9 0 4.4.1 4.6-.2zm33.7.3h7.7c0-.3-4.3-1.1-6.1-.4a8.8 8.8 0 0 1 3.1.2c-1.9-.1-9.5 0-4.7.2zm35.3.2c-.4-.1-2.3.1-1.5.2s2.3-.1 1.5-.2zm-15.4 1.1h1.5a2.1 2.1 0 0 0-1.5 0zm-3-1.6c-.2.5-6.5.1-9.2.2.1.5 15.8.3 9.2-.2zm18.4.9c-.4-.1-2.3.1-1.5.2s2.3-.1 1.5-.2zm-15.4-1.3c-1.2 0-3 0-3.1.2s3.1 0 3.1-.2zm-9.1 0c-.4-.1-2.3.1-1.5.2s2.2-.1 1.5-.2zm102.4 119.6c-.1-4.7.3-13.2-.2-15.3v7.7c.1 2.2-.3 7.9.2 7.6zm-.5 4.6c-.1-7.2.3-18.3-.2-23 .1 7.3-.3 18.4.2 23zm.2-33.6c0-1.2 0-3-.2-3.1s0 3 .2 3.1zm0 44.4c.1-.4-.1-2.3-.2-1.5s.1 2.3.2 1.5zm.3-33.7c-.3.9 0 1.8 0 0zm-.3-15.3c.1-.4-.1-2.3-.2-1.5s.1 2.3.2 1.5zm-.6 41.3h.2c-.1-1.7-.2-.8-.2 0zm.2 0v1.5a2.1 2.1 0 0 0 0-1.5z" fill="none"/><path d="M246.5 104.9c-.1.4.1 2.3.2 1.5s0-2.3-.2-1.5zM123.7 57.8c.4.1 2.3-.1 1.5-.2s-2.3 0-1.5.2zm49.4 185.1c-.4-.1-2.3.1-1.5.2s2.3-.1 1.5-.2zm45.5-186.5c.4.1 2.3-.1 1.5-.2s-2.3.1-1.5.2zm-52.1 0c.4.1 2.3-.1 1.5-.2s-2.3.1-1.5.2z" fill="#ee8e0d"/><path d="M56.8 56.3a10.6 10.6 0 0 1 4.2-1h13.9c6.1-.1 12.1-.1 18.2-.1s13.9.6 23 .7 17.7-.1 24.5.4c.5-.3 7.8-.8 9.2-.2-2.2 0-4.3 0-4.6.2 6.2.2 5.3 0 12.3 0a2.1 2.1 0 0 1 1.5 0h-1.5v.2c7.8 0 8.4-.1 3.1-.4h15.3c10.9-.7 18.1-.2 30.6-.4.3-.3-.3-.4-1.5-.4.7.4-8.3.4-7.7 0h7.7v-.2c-1.8 0-.9-.3 0 0a29.9 29.9 0 0 0 6.1-.4c-7.5-.3-11.1.6-13.8.2-8.2.4-27 .4-35.2 0h35.2a83 83 0 0 0-9.2-.4c-1.1 0-1.6.3-3.1.2s0-.2-1.5-.2-1.6.3-3.1.2 0-.2-1.5-.2a44 44 0 0 1-7.7-.2c-14.6.2-34.6-.4-44.4.4v.2c4.5.3 5.7-.3 7.7.4-5.2-.1-14.2.3-16.8-.2a50.3 50.3 0 0 1-10.7-.2c6.7.3 12.7-.7 16.8 0-2.3 0-5.6-.1-6.1.2 2.7-.1 9 .3 9.2-.2s-1.7-.2 0-.2c-6.8-.6-22.5.1-27.6-.2-1.7.1-1 .4-3.1.4a10.1 10.1 0 0 0-3.1-.4 13.6 13.6 0 0 1-4.6.4c-10.5.1-13.3.3-24.5 0 .4.4-1.4.4-3.3.4s-3.8.6-3.9 1zm118.9-.8c.8.1-1.1.3-1.5.2s1.1-.2 1.5-.2zm-3.1-.4c.8.1-1.1.3-1.5.2s1.1-.3 1.6-.2zm0 .4c.8.1-1.1.3-1.5.2s1.1-.2 1.6-.2zm-15.3-1.3c0 .2-1.9.2-3.1.2s2-.2 3.1-.2zm-9.2 0c.8.1-1.1.3-1.5.2s1.1-.3 1.6-.2zm-6.1.4a8.8 8.8 0 0 0-3.1-.2c1.9-.7 6.1.1 6.1.4 2.7-.1 9 .3 9.2-.2 6.6.5-9.1.7-9.2.2h-7.7c-4.7-.1 2.9-.2 4.7-.2zm-38.3 0c-.2.3-2.8.2-4.6.2.3-.2 2.8-.1 4.6-.2zM51.4 192.5c.1-.4-.1-2.3-.2-1.5s.1 2.3.2 1.5zm-.6-19.9c.4 14.4.4-9 0 0zm-.5-101.1c.4 3.3 0 12.5.4 15.3.2-3.4 0-10.1 0-10.7s.1-5.6.2-9.8a11.8 11.8 0 0 1 .9-4.5c.4-.9.5-1.3-.1-.5a9.6 9.6 0 0 0-1 3.7v4.5c.1 2.8 0 4.4-.4 2zm.3 41.3V148c.2-9.9.5-28.8 0-35.2zm187.9-57.7c-.4-.1-2.3.1-1.5.2s2.3-.1 1.5-.2zm-6.1 0c-4 0-10.2.1-6.1-.4l-9.2.2c-1.6.8 19.4.4 15.3.2zm-18.4 0c-.4-.1-2.3.1-1.5.2s2.3-.1 1.5-.2z" fill="#ee8e0d"/><path d="M207.9 55.3c.4.1 2.3-.1 1.5-.2s-2.3.1-1.5.2zM54.4 57.9l.9-.7c.3-.3.5-.5.1-.3l-.9.7c-.3.3-.4.5-.1.3zm-3.6 48.8c-.1-5.7.3-15.3-.2-18.4.1 5.7-.3 15.3.2 18.4zm0 4.6c.1-.4-.1-2.3-.2-1.5s.1 2.3.2 1.5z" fill="#ee8e0d"/><path d="M154.7 244.9c-28.6.3-67.8.2-104.7.1l.5.5v-46.9c0-13.5.2-25.2.2-36.8 0-.7-.5-1.2-.4-3.1 0 0 .7-.8.4-3.1a2.1 2.1 0 0 1 0-1.5c0-2.7-.3-3.2-.2-6.1-.3-16.6-.3-48.1-.4-68.9 0-2.4.3-9.9-.4-9.2.6 37.7.5 95.1.2 133.2.4 5.6-.1 8 .2 15.3-.3 0-1.1 4.3-.4 6.1-.1-2.6.2-2.9.4-3.1-.1 4.2.3 12.2-.2 13.8 0-2.2 0-4.3-.2-4.6.2 4.7-.2 5.6-.2 9.2s.7-3 .7 3.1v2.5l-.2-.2c16.6-.2 31.2.5 45-.2 21.1.2 38 .2 59.7.2 1.2 0 1.5-.2 3.1-.2s-1.2-.1-3.1-.1zm-104.8-8c.1-.8.3 1.1.2 1.5s-.3-1.1-.2-1.5zm112.5 7.8l-4.6.4c2.1.4 13 .3 15.3 0v-.2c-6 .2-7.8.4-10.7-.2zm86.8-135.2v29.1c0 1.2 0 3 .2 3.1-.1-10.2.3-24.5-.2-32.2zm0-4.6c0 1.2 0 3 .2 3.1s0-3-.2-3.1zm.2-12.2c-.6 7.3.7 3.7 0 0zm-199-27.3c-.3 8.1.6 1.8 0 0zm170.2 179.7c5.7 0 11.4.4 16.8-.2h-27.6c-9.9 0-19.9-.2-23 .4 13.9.2 24.5-.1 33.8-.2z" fill="#ee8e0d"/><path d="M249.9 114.1V108c.1-2.7-.2-3.1-.2-1.5.3 32.5-.6 48.1 0 75 0-.9.2-1.7.2 0a2.1 2.1 0 0 1 0 1.5 73.2 73.2 0 0 0-.2 7.7c0 16 0 36.8.2 54.8l.2-.2-21.8.3h-23c-5.5-.2-5.5.4 0 .2h45.1v-.4c0-6-.1-11.6-.2-16.5-.1-2.3.4-4.7.4-7.7s-.3-6.2-.2-9.2c.1-6.8.4-14.1.4-21.4 0-2.4-.2-5.2-.2-7.7 0-10.3.6-22.9.2-30.6a8.9 8.9 0 0 1-.2 3.1c0 1.8-.3.9 0 0v-16.8c0-2.2-.7-.5-.7-3.1a10 10 0 0 0 .4-3.1c-.5-1.6-.1-9.6-.2-13.8-.2-.1-.2-2.7-.2-4.5zm.4 75c-.1.8-.3-1.1-.2-1.5s.3 1.1.2 1.6zm.2-15.3c-.5.3-.1-5.4-.2-7.7v-7.7c.5 2.3.1 10.8.3 15.4zm-.4 4.6c-.5-4.6-.1-15.8-.2-23 .5 4.7.1 15.9.2 23zm.2-33.7c-.2 0-.2-1.9-.2-3.1s.2 2 .2 3.2zm0-4.6c-.1.8-.3-1.1-.2-1.5s.3 1.1.2 1.6zm-33.2-85.2c-.3-.7-6.4.2 0 0zM59.4 55c.4-.1 2.2-.3 1.5-.4s-2.3.4-1.5.4zm-9.3 10.4h.2a11.6 11.6 0 0 1 1.2-4.6l.7-1.4s-.4.4-.9 1.3a9.9 9.9 0 0 0-1.2 4.7zm123 179.7c1.8.7 8.1-.2 0 0zm12.2 0c-9.8-.3-3.4.7 0 0z" fill="#ee8e0d"/><path d="M249.7 181.5c0 1.3.1 1.4.2 1.5v-1.5zM57.8 54.7a12.1 12.1 0 0 0-3.5 1.8 11.4 11.4 0 0 0-3.7 4.5 9.6 9.6 0 0 0-.9 4.4c.1.9.2 1 .4-.1 0 .5-.2-.7.3-2.6a10.9 10.9 0 0 1 1.3-3.1 11.6 11.6 0 0 1 7.6-5.2h.5a10.4 10.4 0 0 0-2 .3zm192.1 16.5c-.2 8.4.2 17.7.2 24.5 0 4.3-.4 13.3.4 13.8 0-9.9-.3-12.9 0-21.4-.3.3-.4-.3-.4-1.5.4.6.4-1.2.4-3.1s0-5.2-.1-8.6v-8.2a16.8 16.8 0 0 0-.2-3.1c-.1 1.3-.2 4.9-.3 7.6zm-169.1-17c-.4-.1-2.3.1-1.5.2s2.3-.1 1.5-.2zm-6.1 0c-.4-.1-2.3.1-1.5.2s2.2-.1 1.5-.2zm-4.6 0c-.4-.1-2.3.1-1.5.2s2.2-.1 1.5-.2zm-4.6 0c-1.2 0-3 0-3.1.2s3 0 3.1-.2zM49.4 200.1V217c.5 3.9-.1-12.6.4-13.8s-.1-3.1-.4-3.1zm.3 24.5c.1 2.2.3-.2 0 0zm132.6 21.2c2.2-.1-.2-.3 0 0zm3 0c2.7-.1 9 .3 9.2-.2h-4.6c-1.8 0-4.3 0-4.6.2zm10.8 0c1.2 0 3 0 3.1-.2s-3.1 0-3.1.2zm54-127.1c.5 8.8.8-8 0-7.7 0 3.9.4 4.8 0 7.7zM49.4 96c-.1.4.1 2.3.2 1.5s0-2.3-.2-1.5zm0 18.4c-.1.4.1 2.3.2 1.5s0-2.3-.2-1.5zm0 3c-.1.4.1 2.3.2 1.5s0-2.3-.2-1.5zm0 75.1c0 2.3-.1 5.6.2 6.1 0-2.3.1-5.7-.2-6.1zm.3 38.2c.2-6.4-.7-.3 0 0zM160.8 246c1.2 0 3 0 3.1-.2s-3 0-3.1.2zm12.3 0c1.2 0 3 0 3.1-.2s-3.1 0-3.1.2zm9.2-.2c-2.2.1.2.3 0 0zm68.3-122.5c-.5.2-.1 6.5-.2 9.2.4-.2 0-6.5.2-9.2zm-.5-59.8c.1-1-.5-1.8 0 0zM49.2 66.9c-.1.4.1 2.3.2 1.5s-.1-2.3-.2-1.5zm-1.5 84.2c-.1.4.1 2.3.2 1.5s-.1-2.3-.2-1.5zm191.2-99.4h1.5c.5 0 .9 0 .4-.1s-2.9 0-1.9.1zm-182.1.1l-1.5.6c-.5.3-.8.5-.3.3s2.8-1.1 1.8-.9z" fill="#ee8e0d"/><circle cx="66.2" cy="69.8" r="5.5" fill="#ffc733"/><path d="M69.4 74.6c.4.3.5-.3.8-.3s-.2 0-.6-.1-.2.2-.2.4zm-8.5-4zm11.1.8v.4c.2.1.3-.3 0-.4zm-2.4 2.8V74c-.2.1 0 .2 0 .2z" fill="none"/><path d="M69.5 74.3c-.5-.4-.2.5-.6.4s.6.3.5-.1 0-.3.1-.3zm1.9-2.7a5.3 5.3 0 0 1-.7 1.4 1.1 1.1 0 0 0 .7-1.4zm.4-.3c-.3 0 0 .1 0 0zm0 1.6c-.1 0 0 .2.2.2s-.1-.1-.2-.2zm-3.1 1.8c-.1.1-.2 0-.1.3s.2 0 .1-.3zm1.4-.7l.3-.3c-.2-.2-.9-.7-.5-.1h.3c-.2.1-.4.4-.1.4zm1.3-1.1c-.1 0 0 .2.2.2s-.1-.2-.2-.2zm.4 1.3h.1c-.2-.3-.2-.1-.1 0zm-1.3-.9c.4.3-.1.3-.1.5s.7-.4.1-.5zm1.2-.2c-.1 0 0 .2.1.2s.1-.2-.1-.2zm-1.5-.2c0 .1-.1.1.1.2s.1 0-.1-.2zm-.2.3c-.1 0 0 .1.1.2s0-.1-.1-.2zm-1.3-7.6c.2 0 .3.5.6.2l-.3-.2s0-.4-.3 0zm.1-.5c.4 0 .5.7 1 .4s-.6-.7-1-.4zm1 1c.1 0 .1.1.2-.1s0 0-.2.1zm-1.5-1l.2-.2s-.2.1-.2.2zm1 .9c.2-.3-.1 0 0 0zm.6.3zm-1-1.6zm-.1.1h-.1c-.1.3 0 .2.1 0z" fill="none"/><path d="M74.2 65.8c0-.1-.2-.1-.2 0s.1.1.2 0zm-2.9 11c.1 0 .1-.2 0-.2s-.1.1 0 .2zm-10-13.3c-.1 0-.1.2.1.2s0-.2-.1-.2zM73.4 71c.1 0-.1-.2-.2-.1zm-1.1 2.8c.1 0 0-.2-.1-.2s0 .2.1.2z" fill="#ee8e0d"/><path d="M66.7 76c.7-.1 1.1-.6 1.7-.6s.9.2 1.4 0 .7-.6 1.4-.5-.3-.8.2-.5-.2.2 0 .3.2-.2.5-.5-.2-.2.1-.1c.3-.4.2-.4-.2-.4l.5-.7c-.3-.8.2-1 .2-1.7H72c.4.1.2.5-.1.4v-.4h-.2c0-.1-.1-.3-.4-.4s.4.6 0 .6a1.1 1.1 0 0 1-.7 1.4 5.3 5.3 0 0 0 .7-1.4.5.5 0 0 0-.6.2s.2.2.1.2h-.2s.2.2.1.2h-.2c0 .2.1.2-.4.2s-.4.5-.6.7a.9.9 0 0 0-.3.9v.2c.4.1 0-.4.6.1s-.4.7-.8.3-.3.3-.5.1.1-.8.6-.4-.2.1-.1.3.5 0 .2-.4-.2-.1-.1-.2-.8.6-1.1.4.1.4.1.5l-.3-.4c.1.3.1.5 0 .5s-.5.5-1.1.3 0 .3 0 .8zm5.1-3c.1 0 .2.2.2.2l-.2-.3zm-.5-.1c.1 0 .2.2.2.2s-.2-.3-.1-.2zm.4.2c.1 0 .2.2.1.2s-.1-.2-.1-.2zm-1.5-.2c.2.1.1.2.1.2s-.1-.1-.1-.2zm-.2.3c.1.1.2.2.1.2s-.2-.2-.1-.2zm.1.5h-.3c-.4-.5.3-.1.5.1s.5-.1.1-.5.2.8-.1.5l-.3.3c-.2-.1 0-.4.1-.4zm-1.4 1c.1.2 0 .2-.1.3s.1-.2.1-.3zm-8.5-1.5zm1.2.5c-.7-.4 0 .6 0 0zm4.4 1.8c-.2.4-.6-.1-.8.4s.5.1.5.1 1 .7.8 0-.8.3-.5-.5zm-1.9-.2l-1.5-.9c.1.6 1 1.3 1.5.9zm8.3-5.5zm0 .3c0 .2.1.5-.5.3s0 .2.2.5.6-.1.6-.3-.2-.6-.3-.5zm-.1.9zm.1.3zM66.6 76c0 .1.1-.1.1-.2s-.2.1-.1.2zm-2.5-.4c.3 0 .7.5.9 0s-.6-.4-.9 0zm-.3-.1c0 .1.1-.1.2-.2s-.2.1-.2.2z" fill="#ee8e0d"/><path d="M61.8 65.6a9.8 9.8 0 0 0-1.4 3.2 5.6 5.6 0 0 0 .4 3.7 11.3 11.3 0 0 0 .9 1.6s.4-.3.4-.2-.5.5-.2.4.1 0 .1.1.3-.1.4 0l1.5.6a4.3 4.3 0 0 0 1.6.3c.1 0 .4.3.4-.4a3.6 3.6 0 0 1-2.8-.5 4 4 0 0 1-1.7-2.4c-.5-.1 0-.4-.5-.5s1-.5.4-.4-.1.2-.4.2-.4-.5.1-.6 0 .2.3.1.2-.3.2-.4-.7.2-.7 0a1.4 1.4 0 0 1 0-1.1 1.1 1.1 0 0 0-.1-1.1 9 9 0 0 1 1.5-2.3c0-.1-.1-.2-.1-.3s-.2 0-.3 0zm-.9 5z" fill="#ee8e0d"/><path d="M62 65.2a1.2 1.2 0 0 1 .1.5c.4.2.6-.2.5-.5V65c-.2.3-.2.5-.6.2zm9.7 1.6l-.7-1-.2-.2c-.1 0-.1-.1-.3 0s.5 1.1 1.2 1.2zm.1.2c-.1 0-.1-.1-.3 0s.1.1.3 0zm0 .6c.4-.6-.7.1 0 0zm-5.7 8c-.4-.3-.1.7 0 0zm-1.5-11.4c.3-.1.6.3.7-.4l-1.3.3c-.4.2-1 .2-.8.9s1-.6 1.4-.8z" fill="#ee8e0d"/><path d="M71 66.9v.2c0 .1.2 0 .2 0s-.7-1.1-1-1.6a1.9 1.9 0 0 0-1.4-.9s0 .2-.1.2-.2.2-.1 0-.1-.3-.2-.4a5.3 5.3 0 0 0-1.8-.4 2.6 2.6 0 0 0-1.7.5h-.5l-.4.2c-.3 0-.1.5.1.2l.4-.2c.7-.3 1.5 0 2.1-.4s.2.4.3.5.3-.2.4-.1.4.5.7.7h.4c.4.2.4.9.9.9s0-.1.1-.3.2-.3 0 0l.5.5c.1 0 .5-.4.6-.3l-.3.4c.4-.3.3.3.5.3h.3zm-2.7-1.8c0-.1.2-.2.2-.2zm.4.5c.2-.4.2 0 .4 0l.3.2c-.4.3-.4-.2-.7-.2zm.1-.5c.4-.3.6.3 1 .4s-.6-.4-1-.4zm1 1c.2-.2.2-.1.2-.1s-.1.1-.2.1zm.1.1zm2 4.6c-.7-.1.2.3 0 0zm-5.1 4.7c0 .1.1-.1 0-.2s0 .1 0 .2zm-.7-.2v.2c.4.2.4-.3 0-.2zm-3.5-10.1c.5.5.2-.4 0 0zm.5-.3c-.5 0 .2.6 0 0z" fill="#ee8e0d"/><path d="M68.9 64.7l-.2.2h.1zm-2.2 10.2c-.1 0-.8-.3-.6.5s1-.5.6-.5zm5-6.2c.1-.4-.4-.7-.5-1s.1-.7-.6-.3.5.3.3.8h.4c-.4.1-.4.2-.4.3s.5.4.4.7.3-.3.4-.5zm-4.1 6c0-.1-.1.1 0 .2s.1-.1 0-.2zm-.2.1c0-.1-.1.1 0 .2s0-.1 0-.2zm-.2 0c0-.1-.1.1 0 .2s.1-.1 0-.2zm-.2 0c0 .1-.1 0-.1.2s.1 0 .1-.2zM61.8 72l-.3-.6c-.5 0 .2.5-.2.7zm-.6-.9c-.2-.1-.3.1 0 0zm2.2-5.6c0-.2-.2-.2 0 0zm.1-.1c0-.2.4 0 .2-.4h-.2c0 .2-.2.2 0 .4zm.4-.2c0-.1.1-.1 0-.3s-.1.1 0 .3zm6.8 1.7c-.6 0-.5.7.2.3s-.5 0-.2-.3zm-5.8 7.6c0-.1-.1.1-.1.2s.1-.1.1-.2zm-.7-.2v.2c-.1 0 0-.1 0-.2zm-.1-.1l-.2.2zm-2.1-2c-.1-.1 0-.2-.3-.1s0 .3.3.1zm-.8-1.3c-.1.3.7-.1 0 0zm1.6-4.7c0-.1.1-.1-.1-.2s0 .1.1.2zm.4-.3c0-.1.1-.1 0-.3s-.1.1 0 .3zm.2-.4c0 .2.2.2 0 0zm6.8 1.5c.4-.3-.1-.3 0-.4s0 .2 0 .4z" fill="#ee8e0d"/><path d="M71.3 69.1c-.3.1 0 .1 0 0zm-5.2 5.3c0-.1-.1.1-.1.2s.1 0 .1-.2zm-1.9-2.3zm4.7-2.3zm-2.5 2z" fill="#ee8e0d"/><circle cx="81.6" cy="69.8" r="5.5" fill="#ffc733"/><path d="M84.8 74.6c.4.3.5-.3.8-.3s-.2 0-.6-.1-.1.2-.2.4zm-8.4-4zm11 .8v.4c.2.1.4-.3 0-.4zM85 74.2V74c-.1.1 0 .2 0 .2z" fill="none"/><path d="M84.9 74.3c-.5-.4-.2.5-.6.4s.6.3.5-.1.1-.3.1-.3zm2-2.7a5.3 5.3 0 0 1-.7 1.4 1.1 1.1 0 0 0 .7-1.4zm.3-.3c-.3 0 0 .1 0 0zm.1 1.6c-.1 0 0 .2.2.2s-.1-.1-.2-.2zm-3.1 1.8c-.1.1-.2 0-.1.3s.2 0 .1-.3zm1.4-.7l.3-.3c-.2-.2-.9-.7-.5-.1h.3c-.2.1-.4.4-.1.4zm1.2-1.1c-.1 0 0 .2.2.2s-.1-.2-.2-.2zm.5 1.3h.1c-.3-.3-.2-.1-.1 0z" fill="none"/><path d="M85.9 73.3c.4.3-.1.3-.1.5s.7-.4.1-.5zm1.3-.2c-.1 0 0 .2.1.2s0-.2-.1-.2zm-1.5-.2c0 .1-.1.1.1.2s0 0-.1-.2zm-.3.3c-.1 0 0 .1.1.2s0-.1-.1-.2zm-1.2-7.6c.2 0 .3.5.6.2l-.3-.2c-.1 0-.1-.4-.3 0zm0-.5c.4 0 .5.7 1 .4s-.5-.7-1-.4zm1.1 1c.1 0 .1.1.2-.1s-.1 0-.2.1zm-1.6-1l.2-.2-.2.2zm1.1.9c.2-.3-.1 0 0 0zm.6.3zm-1.1-1.6v.2c0-.1.1-.2 0-.2zm-.1.1h-.1c0 .3.1.2.1 0z" fill="none"/><path d="M89.6 65.8c0-.1-.2-.1-.2 0s.1.1.2 0zm-2.8 11c.1 0 .1-.2 0-.2s-.1.1 0 .2zM76.7 63.5c-.1 0-.1.2.1.2s0-.2-.1-.2zM88.9 71c.1 0-.1-.2-.2-.1zm-1.1 2.8c.1 0 0-.2-.1-.2s-.1.2.1.2z" fill="#ee8e0d"/><path d="M82.2 76c.7-.1 1.1-.6 1.7-.6s.9.2 1.4 0 .7-.6 1.4-.5-.3-.8.2-.5-.2.2 0 .3.2-.2.5-.5-.2-.2.1-.1h.1c.3-.4.2-.4-.2-.4l.5-.7c-.3-.8.2-1 .2-1.7h-.4c.4.1.2.5-.1.4v-.4h-.2c0-.1-.1-.3-.4-.4s.4.6 0 .6a1.1 1.1 0 0 1-.7 1.4 5.3 5.3 0 0 0 .7-1.4.5.5 0 0 0-.6.2s.2.2.1.2h-.2s.2.2.1.2h-.2c0 .2.1.2-.4.2s-.4.5-.6.7a.9.9 0 0 0-.3.9v.2c.4.1 0-.4.6.1s-.4.7-.8.3-.3.3-.5.1.1-.8.6-.4-.2.1-.1.3.5 0 .2-.4-.2-.1-.1-.2-.8.6-1.1.4.1.4.1.5l-.3-.4c.1.3.1.5 0 .5s-.5.5-1.1.3-.2.3-.2.8zm5.1-3c.1 0 .2.2.2.2s-.3-.3-.2-.3zm-.5-.1c.1 0 .2.2.2.2l-.2-.2zm.4.2c.1 0 .2.2.1.2s-.2-.2-.1-.2zm-1.5-.2c.2.1.1.2.1.2s-.1-.1-.1-.2zm-.2.3c.1.1.2.2.1.2s-.2-.2-.2-.2zm.1.5h-.3c-.4-.5.3-.1.5.1s.5-.1.1-.5.2.8-.1.5l-.3.3c-.2-.1 0-.4.1-.4zm-1.4 1c.1.2 0 .2-.1.3s0-.2.1-.3zm-8.5-1.5zm1.1.5c-.7-.4 0 .6 0 0zm4.5 1.8c-.2.4-.6-.1-.8.4s.5.1.5.1 1 .7.8 0-.8.3-.5-.5zm-2-.2l-1.5-.9c.2.6 1 1.3 1.5.9zm8.4-5.5zm-.1.3c0 .2.1.5-.5.3s0 .2.2.5.6-.1.6-.3-.2-.6-.3-.5zm-.1.9zm.2.3zM82 76c0 .1.1-.1.1-.2s-.1.1-.1.2zm-2.5-.4c.3 0 .7.5.9 0s-.6-.4-.9 0zm-.2-.1c0 .1.1-.1.2-.2s-.2.1-.2.2z" fill="#ee8e0d"/><path d="M77.3 65.6a9.8 9.8 0 0 0-1.4 3.2 5.6 5.6 0 0 0 .4 3.7 11.3 11.3 0 0 0 .9 1.6s.4-.3.4-.2-.5.5-.2.4.1 0 .1.1.3-.1.4 0l1.5.6a4.3 4.3 0 0 0 1.6.3c.1 0 .4.3.4-.4a3.6 3.6 0 0 1-2.8-.5 4 4 0 0 1-1.8-2.4c-.5-.1 0-.4-.5-.5s1-.5.4-.4-.1.2-.4.2-.4-.5.1-.6 0 .2.3.1.2-.3.2-.4-.7.2-.7 0a1.4 1.4 0 0 1 0-1.1 1.1 1.1 0 0 0-.1-1.1 9 9 0 0 1 1.5-2.3c0-.1-.1-.2-.1-.3s-.2 0-.2 0zm-.9 5z" fill="#ee8e0d"/><path d="M77.4 65.2a1.2 1.2 0 0 1 .1.5c.4.2.6-.2.5-.5V65c-.2.3-.1.5-.6.2zm9.7 1.6l-.7-1-.2-.2c-.1 0-.1-.1-.3 0s.6 1.1 1.2 1.2zm.1.2c-.1 0-.1-.1-.3 0s.1.1.3 0zm.1.6c.4-.6-.7.1 0 0zm-5.7 8c-.4-.3-.1.7 0 0zm-1.5-11.4c.3-.1.6.3.7-.4l-1.3.3c-.4.2-1 .2-.8.9s1-.6 1.4-.8z" fill="#ee8e0d"/><path d="M86.4 66.9v.2c0 .1.2 0 .2 0s-.7-1.1-1-1.6a1.9 1.9 0 0 0-1.4-.9s0 .2-.1.2-.2.2-.1 0-.1-.3-.2-.4A5.3 5.3 0 0 0 82 64a2.6 2.6 0 0 0-1.7.5H80l-.4.2c-.3 0-.1.5.1.2l.4-.2c.7-.3 1.5 0 2.1-.4s.2.4.3.5.3-.2.4-.1.4.5.7.7h.4c.4.2.4.9.9.9s0-.1.1-.3.2-.3 0 0l.5.5c.1 0 .5-.4.6-.3l-.3.4c.4-.3.3.3.5.3h.1zm-2.7-1.8c0-.1.2-.2.2-.2zm.4.5c.2-.4.2 0 .4 0l.3.2c-.4.3-.4-.2-.6-.2zm.1-.5c.4-.3.6.3 1 .4s-.6-.4-1-.4zm1 1c.2-.2.2-.1.2-.1l-.1.1zm.1.1zm2 4.6c-.7-.1.2.3 0 0zm-5 4.7c0 .1.1-.1 0-.2s-.1.1 0 .2zm-.7-.2v.2c.4.2.4-.3 0-.2zm-3.5-10.1c.5.5.2-.4 0 0zm.5-.3c-.5 0 .2.6 0 0z" fill="#ee8e0d"/><path d="M84.3 64.7l-.2.2h.1zm-2.2 10.2c-.1 0-.8-.3-.6.5s1.1-.5.6-.5zm5-6.2c.1-.4-.4-.7-.5-1s.1-.7-.6-.3.5.3.3.8h.4c-.4.1-.4.2-.4.3s.5.4.4.7.3-.3.4-.5zm-4 6c0-.1-.1.1 0 .2s0-.1 0-.2zm-.3.1c0-.1-.1.1 0 .2s.1-.1 0-.2zm-.2 0c0-.1-.1.1 0 .2s.1-.1 0-.2zm-.1 0c0 .1-.1 0-.1.2s.1 0 .1-.2zM77.3 72l-.3-.6c-.5 0 .2.5-.2.7zm-.6-.9c-.2-.1-.3.1 0 0zm2.1-5.6c0-.2-.2-.2 0 0zm.1-.1c0-.2.4 0 .2-.4H79c-.1.2-.2.2-.1.4zm.4-.2c0-.1.1-.1 0-.3s-.1.1 0 .3zm6.8 1.7c-.6 0-.5.7.2.3s-.5 0-.2-.3zm-5.7 7.6c0-.1-.1.1-.1.2s.1-.1.1-.2zm-.7-.2v.2c-.2 0 0-.1 0-.2zm-.1-.1l-.2.2zm-2.2-2c-.1-.1 0-.2-.3-.1s0 .3.3.1zm-.8-1.3c-.1.3.7-.1 0 0zm1.7-4.7c0-.1.1-.1-.1-.2s-.1.1.1.2zm.3-.3c0-.1.1-.1 0-.3s-.1.1 0 .3zm.2-.4c0 .2.2.2 0 0zm6.8 1.5c.4-.3-.1-.3 0-.4s.1.2 0 .4z" fill="#ee8e0d"/><path d="M86.7 69.1c-.3.1 0 .1 0 0zm-5.2 5.3c0-.1-.1.1-.1.2s.1 0 .1-.2zm-1.9-2.3zm4.7-2.3zm-2.5 2v.2c0 .1.1-.1 0-.2z" fill="#ee8e0d"/><circle cx="97.1" cy="69.8" r="5.5" fill="#ffc733"/><path d="M100.3 74.6c.4.3.5-.3.8-.3s-.2 0-.6-.1-.2.2-.2.4zm-8.5-4zm11.1.8v.4c.2.1.3-.3 0-.4zm-2.4 2.8V74c-.2.1 0 .2 0 .2z" fill="none"/><path d="M100.4 74.3c-.5-.4-.2.5-.6.4s.6.3.5-.1 0-.3.1-.3zm1.9-2.7a5.3 5.3 0 0 1-.7 1.4 1.1 1.1 0 0 0 .7-1.4zm.4-.3c-.3 0 0 .1 0 0zm0 1.6c-.1 0 0 .2.2.2s-.1-.1-.2-.2zm-3.1 1.8c-.1.1-.2 0-.1.3s.2 0 .1-.3zm1.4-.7l.3-.3c-.2-.2-.9-.7-.5-.1h.3c-.2.1-.4.4-.1.4zm1.2-1.1c-.1 0 0 .2.2.2s0-.2-.2-.2zm.5 1.3h.1c-.3-.3-.2-.1-.1 0zm-1.3-.9c.4.3-.1.3-.1.5s.7-.4.1-.5zm1.2-.2c-.1 0 0 .2.1.2s.1-.2-.1-.2zm-1.5-.2c0 .1-.1.1.1.2s.1 0-.1-.2zm-.2.3c-.1 0 0 .1.1.2s0-.1-.1-.2zm-1.3-7.6c.2 0 .3.5.6.2l-.3-.2s0-.4-.3 0zm.1-.5c.4 0 .5.7 1 .4s-.6-.7-1-.4zm1 1c.1 0 .1.1.2-.1s0 0-.2.1zm-1.5-1l.2-.2c-.1 0-.2.1-.2.2zm1 .9c.2-.3-.1 0 0 0zm.6.3zm-1-1.6zm-.1.1h-.1c-.1.3 0 .2.1 0z" fill="none"/><path d="M105.1 65.8c0-.1-.2-.1-.2 0s.1.1.2 0zm-2.9 11c.1 0 .1-.2 0-.2s-.1.1 0 .2zm-10-13.3c-.1 0-.1.2.1.2s0-.2-.1-.2zm12.1 7.5c.1 0-.1-.2-.2-.1zm-1.1 2.8c.1 0 0-.2-.1-.2s0 .2.1.2z" fill="#ee8e0d"/><path d="M97.6 76c.7-.1 1.1-.6 1.7-.6s.9.2 1.4 0 .7-.6 1.4-.5-.3-.8.2-.5-.2.2 0 .3.2-.2.5-.5-.2-.2.1-.1h.1c.3-.4.2-.4-.2-.4l.5-.7c-.3-.8.2-1 .2-1.7h-.4c.4.1.2.5-.1.4v-.4h-.2c0-.1-.1-.3-.4-.4s.4.6 0 .6a1.1 1.1 0 0 1-.7 1.4 5.3 5.3 0 0 0 .7-1.4.5.5 0 0 0-.6.2s.2.2.1.2h-.2s.2.2.1.2h-.2c0 .2.1.2-.4.2s-.4.5-.6.7a.9.9 0 0 0-.3.9v.2c.4.1 0-.4.6.1s-.4.7-.8.3-.3.3-.5.1.1-.8.6-.4-.2.1-.1.3.5 0 .2-.4-.2-.1-.1-.2-.8.6-1.1.4.1.4.1.5l-.3-.4c.1.3.1.5 0 .5s-.5.5-1.1.3-.2.3-.2.8zm5.1-3c.1 0 .2.2.2.2s-.3-.3-.2-.3zm-.5-.1c.1 0 .2.2.2.2s-.2-.3-.2-.2zm.4.2c.1 0 .2.2.1.2s-.1-.2-.1-.2zm-1.5-.2c.2.1.1.2.1.2s-.1-.1-.1-.2zm-.2.3c.1.1.2.2.1.2s-.2-.2-.1-.2zm.1.5h-.3c-.4-.5.3-.1.5.1s.5-.1.1-.5.2.8-.1.5l-.3.3c-.2-.1 0-.4.1-.4zm-1.4 1c.1.2 0 .2-.1.3s.1-.2.1-.3zm-8.5-1.5zm1.2.5c-.7-.4 0 .6 0 0zm4.4 1.8c-.2.4-.6-.1-.8.4s.5.1.5.1 1 .7.8 0-.8.3-.5-.5zm-2-.2l-1.5-.9c.2.6 1.1 1.3 1.5.9zm8.4-5.5zm0 .3c0 .2.1.5-.5.3s0 .2.2.5.6-.1.6-.3-.2-.6-.3-.5zm-.1.9zm.1.3zM97.5 76c0 .1.1-.1.1-.2s-.2.1-.1.2zm-2.5-.4c.3 0 .7.5.9 0s-.6-.4-.9 0zm-.3-.1c0 .1.1-.1.2-.2s-.2.1-.2.2z" fill="#ee8e0d"/><path d="M92.7 65.6a9.8 9.8 0 0 0-1.4 3.2 5.6 5.6 0 0 0 .4 3.7 11.3 11.3 0 0 0 .9 1.6s.4-.3.4-.2-.5.5-.2.4.1 0 .1.1.3-.1.4 0l1.5.6a4.3 4.3 0 0 0 1.6.3c.1 0 .4.3.4-.4a3.6 3.6 0 0 1-2.8-.5 4 4 0 0 1-1.8-2.4c-.5-.1 0-.4-.5-.5s1-.5.4-.4-.1.2-.4.2-.4-.5.1-.6 0 .2.3.1.2-.3.2-.4-.7.2-.7 0a1.4 1.4 0 0 1 0-1.1 1.1 1.1 0 0 0-.1-1.1 9 9 0 0 1 1.5-2.3c0-.1-.1-.2-.1-.3s-.1 0-.2 0zm-.9 5z" fill="#ee8e0d"/><path d="M92.8 65.2a1.2 1.2 0 0 1 .1.5c.4.2.6-.2.5-.5V65c-.1.3-.1.5-.6.2zm9.8 1.6l-.7-1-.2-.2c-.1 0-.1-.1-.3 0s.5 1.1 1.2 1.2zm.1.2c-.1 0-.1-.1-.3 0s.1.1.3 0zm0 .6c.4-.6-.7.1 0 0zm-5.7 8c-.4-.3-.1.7 0 0zm-1.5-11.4c.3-.1.6.3.7-.4l-1.3.3c-.4.2-1 .2-.8.9s1-.6 1.4-.8z" fill="#ee8e0d"/><path d="M101.9 66.9v.2c0 .1.2 0 .2 0s-.7-1.1-1-1.6a1.9 1.9 0 0 0-1.4-.9s0 .2-.1.2-.2.2-.1 0-.1-.3-.2-.4a5.3 5.3 0 0 0-1.8-.4 2.6 2.6 0 0 0-1.7.5h-.5l-.4.2c-.3 0-.1.5.1.2l.4-.2c.7-.3 1.5 0 2.1-.4s.2.4.3.5.3-.2.4-.1.4.5.7.7h.4c.4.2.4.9.9.9s0-.1.1-.3.2-.3 0 0l.5.5c.1 0 .5-.4.6-.3l-.3.4c.4-.3.3.3.5.3h.3zm-2.7-1.8c0-.1.2-.2.2-.2zm.4.5c.2-.4.2 0 .4 0l.3.2c-.4.3-.4-.2-.7-.2zm.1-.5c.4-.3.6.3 1 .4s-.6-.4-1-.4zm1 1c.2-.2.2-.1.2-.1s-.1.1-.2.1zm.1.1zm2 4.6c-.7-.1.2.3 0 0zm-5.1 4.7c0 .1.1-.1 0-.2s0 .1 0 .2zm-.7-.2v.2c.4.2.4-.3 0-.2zm-3.5-10.1c.5.5.2-.4 0 0zm.5-.3c-.5 0 .2.6 0 0z" fill="#ee8e0d"/><path d="M99.8 64.7l-.2.2h.1zm-2.2 10.2c-.1 0-.8-.3-.6.5s1-.5.6-.5zm5-6.2c.1-.4-.4-.7-.5-1s.1-.7-.6-.3.5.3.3.8h.4c-.4.1-.4.2-.4.3s.5.4.4.7.3-.3.4-.5zm-4.1 6c0-.1-.1.1 0 .2s.1-.1 0-.2zm-.2.1c0-.1-.1.1 0 .2s0-.1 0-.2zm-.2 0c0-.1-.1.1 0 .2s.1-.1 0-.2zm-.2 0c0 .1-.1 0-.1.2s.1 0 .1-.2zM92.7 72l-.3-.6c-.5 0 .2.5-.2.7zm-.6-.9c-.2-.1-.3.1 0 0zm2.2-5.6c0-.2-.2-.2 0 0zm.1-.1c0-.2.4 0 .2-.4h-.2c0 .2-.2.2 0 .4z" fill="#ee8e0d"/><path d="M94.7 65.2c0-.1.1-.1 0-.3s-.1.1 0 .3zm6.9 1.7c-.6 0-.5.7.2.3s-.5 0-.2-.3zm-5.8 7.6c0-.1-.1.1-.1.2s.1-.1.1-.2zm-.7-.2v.2c-.1 0 0-.1 0-.2zm-.1-.1l-.2.2zm-2.2-2c-.1-.1 0-.2-.3-.1s.1.3.3.1zm-.7-1.3c-.1.3.7-.1 0 0zm1.6-4.7c0-.1.1-.1-.1-.2s0 .1.1.2zm.4-.3c0-.1.1-.1 0-.3s-.2.1 0 .3zm.2-.4c0 .2.2.2 0 0zm6.8 1.5c.4-.3-.1-.3 0-.4s0 .2 0 .4zm1.1 2.1c-.3.1 0 .1 0 0zM97 74.4c0-.1-.1.1-.1.2s.1 0 .1-.2zm-1.9-2.3zm4.7-2.3zm-2.5 2z" fill="#ee8e0d"/><g><path fill="#ffe399" d="M114.4 63.6h127.7v12.43H114.4z"/><path d="M242.4 76.3v-8.5c.1-1.4.1-2.8.1-4.2v-.7h-34l-3.2-.2-4.2.2c-8.2.2-15.2-.5-23-.2l-13.7.3h-29.7c-4.6-.1-8.7.1-12.8.1h-8v.6c0 .8-.1 1.7-.1 2.4s.1 2.2.1 3.2V72c-.1 1.5-.1 2.3-.1 4.1v.7h2.4l.7-.2h.5l2.8.2h1.3a51.2 51.2 0 0 0 8.4.1h2.2l5.3-.2h.7a46.8 46.8 0 0 1 5.8.4h1.1a52.7 52.7 0 0 0 8.5-.3h2.1a47.5 47.5 0 0 0 6.4.1h46.6c.2 0 0 .1.1.1 1.7-.1 2.7 0 2.5.2h2.2c1.6.2 8.7 0 11.3-.1h6.7c4 0 5.6 0 5.6-.2h5.3l-.2-.2-.3-.3h-57.9c-3.7-.3-5.9-.3-10.6-.3-10.9.1-22.9-.3-33.4.1l-6 .2h-19.5l.4.4V76c.5-.4.5-7.5.4-11.6l-.7.7h2c.1 0 0-.1.1-.1 3.5 0 11-.1 13.3 0l3.6-.3h4.4c1.4.2 2.4.4 4.2.5s5.5-.4 7.9-.4h8.7a16.4 16.4 0 0 0 4.4-.3h1.3c2.2.1 3.9.3 6.4.3l8.1-.2h16.4c4.7.2 8.8.1 13.8.1 2.5 0 5.9.1 8.2-.1h24.9l-.3-.3c0 4.1 0 8.1.1 12.2zm-32.3.1zm10.9.1z" fill="#ee8e0d"/></g><g><path fill="#ffc733" d="M51.1 85H250v58.76H51.1z"/><path d="M169.3 144.1c2 .5 7.8.1 11.4.2-1.7-.6-2.2-.1-5.3-.4 0 .4-4.4.1-6.1.2zM51.2 98.3c.1-.3-.1-1.5-.2-1s.1 1.5.2 1zm176.5 45.9h-5.1c-.2.3 5.8.3 5.1 0zm-52.4-.3v-.2c-1.2 0-.5.2 0 .2z" fill="none"/><path d="M173.3 143.9c-3.1-.6-6.6.3-11.2 0a26.1 26.1 0 0 0 7.3.2c.1-.3 2.4-.2 3.9-.2zm49.1 0h-23.6c5.7.3 18.3.3 23.6 0zm5.2.1c-.8-.2-1.2 0 0 0zm-19 .6c-.3 0-1.5.1-.9.2s1.5-.1.9-.2zm-48.6-.7c-1.2 0-2.9 0-3 .2s2.9 0 3-.2zm22.6.2h5.1c-.2-.3-3.4-1-4.3-.4a5.7 5.7 0 0 1 2.2.2c-1.3-.1-6.3 0-3 .2zm23.7.1c-.3-.1-1.5.1-.9.2s1.5-.1.9-.2zm-9.7 1h1c-.3-.2-1-.1-1 0zm-2.9-1.3c.1.4-4.3.1-6 .2.3.4 10.7.2 6-.2zm12.8.7c-.3 0-1.5.1-.9.2s1.5-.1.9-.2zm-11-1.1c-.8 0-2 0-1.9.2s2 0 1.9-.2zm-6.1 0c-.3-.1-1.5.1-.9.2s1.5-.1.9-.2zm35.4-57.9c3.1-.1 8.8.3 10.2-.2h-5.1c-1.4.1-5.2-.3-5.1.2zm-3-.5c4.8-.1 12.2.3 15.3-.2-4.8.2-12.2-.3-15.3.2zm22.5.3c.8 0 2 0 2-.2s-2-.1-2 .2zm-29.7 0c.3.1 1.5-.1 1-.2s-1.5 0-1 .2zm22.5.2c-.6-.3-1.2 0 0 0zm10.2-.2c.3.1 1.5-.1 1-.2s-1.5 0-1 .2zm-27.6-.7v.2c1.2 0 .6-.2 0-.2zm0 .2h-1c.2.3 1 .1 1 0z" fill="none"/><path d="M253.3 106.8c.1-.3-.1-1.6-.2-1.1s.1 1.6.2 1.1zm-78.6 39.8c.3.1 1.5-.1.9-.2s-1.4.1-.9.2zm-49-64.1c-.3-.1-1.5.1-1 .2s1.6-.1 1-.2zm112.2 62.7c.3 0 1.5-.1.9-.2s-1.5.1-.9.2zm-35 .1c.3 0 1.5-.1.9-.2s-1.5.2-.9.2z" fill="#ee8e0d"/><path d="M128.5 144.5c8.5 0 16.3-.4 24.5-.2 4.1.1 9.6.5 15.7.6s11.8-.1 16.6.3a15.9 15.9 0 0 1 6.1-.2c-1.5 0-2.9 0-3 .2 4.3.1 3.6 0 8.2 0-.1-.1.7-.2 1 0h-1v.2c5.3 0 5.6-.1 1.8-.4h10.3c6.9-.6 12-.2 20.2-.4 0-.2-.5-.3-1.3-.3.7.3-5.3.3-5.1 0h5.1v-.3c-1.2 0-.8-.2 0 0a13.9 13.9 0 0 0 3.8-.3c-5.2-.3-7 .4-9.1.2-5.2.3-17.8.3-23.5 0h23.5a54.7 54.7 0 0 0-6.4-.4 18.2 18.2 0 0 1-1.9.2 3.1 3.1 0 0 0-1.2-.2 18.7 18.7 0 0 1-1.9.2c-.3 0-.1-.2-1.2-.2a25.9 25.9 0 0 1-5.2-.2c-9.6.1-23.3-.4-29.4.4v.2c3.2.3 3.7-.2 5.3.4-3.5-.1-9.4.3-11.4-.2a26.1 26.1 0 0 1-7.3-.2c4.6.3 8.1-.6 11.2 0-1.5 0-3.8-.1-4 .2 1.7-.1 6.1.2 6-.2s-1.2-.2-.1-.2c-4.8-.6-15 .1-18.5-.2-1.1 0-.5.4-1.9.4a6.6 6.6 0 0 0-2.2-.4c-.3.3-1.1.4-2.9.4-6.9.1-8.8.3-16.4 0 1.2.7-4.1.2-4.4.6zm80.1.1c.6.1-.6.2-.9.2s.5-.3.9-.2zm-2.3-.4c.6.1-.6.2-.9.2s.5-.2.9-.2zm.3.4c.6.1-.6.2-.9.2s.5-.2.8-.2zm-11-1.1c.1.2-1.2.1-1.9.2s1.1-.2 1.8-.2zm-6.1 0c.6.1-.6.2-.9.2s.5-.3.8-.2zm-3.9.4a5.7 5.7 0 0 0-2.2-.2c.9-.6 4.1.1 4.3.4 1.7-.1 6.2.2 6-.2 4.7.4-5.7.6-6 .2h-5.1c-3.3-.2 1.7-.3 3-.2zm-25.6 0c-.1.2-1.8.2-3 .2s1.8-.2 3-.2zm-110.3-16c-.1.3.1 1.6.2 1s-.1-1.5-.2-1zm.6 13.3c-.4-9.6-.4 6 0 0zm65.8 2.9c-2.1.4-8.4 0-10.1.4 2.3.2 6.8 0 7.2 0s13.1.6 10.3 0-10.5.3-7.4-.4zm-27.6.2H65c6.6.3 19.3.5 23.5 0zm161.8-.1c-.3 0-1.5.1-.9.2s1.5-.1.9-.2zm-4.1 0c-2.7 0-6.7.1-4.4-.3l-6 .2c-.5.6 13.3.2 10.4.1zm-12.3 0c-.3 0-1.5.1-.9.2s1.5-.1.9-.2zm-4 .2c.3 0 1.5-.1.9-.2s-1.5.1-.9.2zm-103.4.1c.3.1 1.5-.1 1-.2s-1.6.1-1 .2zm-33.9.1c3.8-.1 10.3.3 12.3-.2-3.8.1-10.3-.3-12.3.2zm-3 0c.3.1 1.5-.1 1-.2s-1.6 0-1 .2z" fill="#ee8e0d"/><path d="M113.5 84.5c-17.1.3-40 .2-62.3.1h-.4v39.3c0 7.3-.1 13.9-.2 19.9v.7H56c.5 0 .8-.5 2-.4s.5.7 2.1.4 1-.1 1 0c1.8 0 2.1-.3 4.1-.2 11.1-.3 32.1-.3 46-.4 1.6 0 6.7.3 6-.4-18.2.4-43.6.5-65.8.4h-.1l.2-23c-.4-3.7.1-5.4-.2-10.2.3 0 1.1-2.8.4-4.1.1 1.7-.2 1.9-.4 2 .1-2.8-.3-8.1.2-9.2 0 1.4 0 2.9.2 3.1-.2-3.1.2-3.7.2-6.1s-.7 2-.7-2-.3-6.4-.2-9.4v-.2h.2c8.1.1 15.4.4 22.5-.2 14.1.2 25.3.2 39.9.2.8 0 1-.2 2-.2s-.8-.1-2.1-.1zM51.2 98.3c-.1.5-.3-.7-.2-1s.3.7.2 1z" fill="#ee8e0d"/><path d="M118.6 84.2l-3.1.4c1.4.4 8.7.3 10.2 0v-.2c-3.9.2-5.1.4-7.1-.2zM250.8 103V84.2h-2.4c-.8 0-2 0-2 .2h4.3v.6c-.1 6.3-.3 13.6.1 18zm0 3.1c0-.8 0-2-.2-2.1s-.1 2 .2 2.1zm-.3 8.1c.6-4.7-.7-2.8 0 0zm-130.3 29.9c-5.5-.2-1 .7 0 0zm37.2-59.4c3.8 0 7.6.4 11.2-.2h-18.4c-6.6 0-13.3-.2-15.3.4 9.3.2 16.3-.1 22.5-.2z" fill="#ee8e0d"/><path d="M250.1 99.7v4.1c0 1.4.2 2.2.2 1.1-.1-7.9 0-14.3 0-19.9v-.4h-.3c-10.4-.1-18.8-.3-30.3 0 .6 0 1.2.2 0 .2s-.8.3-1 0a32.7 32.7 0 0 0-5.1-.2c-15.4 0-37.4 0-51.1.4h-15.3c-3.7-.2-3.7.4 0 .2h7.2c11-.1 24.3.3 33.7-.2 1.6-.1 3.1.4 5.1.4s4.1-.3 6.1-.2c4.5.1 9.4.4 14.3.4l5.1-.2c6.9 0 15.3.6 20.4.2a4.1 4.1 0 0 1-2-.2c-1.2 0-.6-.3 0 0h11.2c1.3 0 .5-.6 1.7-.7h.1a3.8 3.8 0 0 1 0 .4 4.7 4.7 0 0 0-.4 2c.5 1.1.1 6.4.2 9.2.2.5.2 2.2.2 3.4zm-35.5-14.3c-.5-.1.7-.3 1-.2s-.7.2-1 .2zm10.2.2c-.2-.5 3.6-.1 5.1-.2h5.1c-1.4.5-7.1 0-10.2.2zm-3.1-.4c3.1-.5 10.5-.1 15.3-.2-3 .4-10.4 0-15.2.1zm22.5.2c0-.2 1.3-.2 2-.2s-1.2.1-1.9.2zm3.1 0c-.5-.1.7-.3 1-.2s-.7.2-1 .2zM235.8 144c-.7-.5-4.1.2 0 0zm-105.4.1c.3.1 1.5-.1 1-.2s-1.5.1-1 .2zm-10.3-.2v.2c6 .2 5.8-.4 0-.2zm5.6-59.2c1.2.7 5.4-.2 0 0zm8.2 0c-6.5-.3-2.2.7 0 0z" fill="#ee8e0d"/><path d="M219.7 84.7c-.9 0-1 .1-1 .2h1zm-90.5 58.8c-1.6 0-12.3-.3-9.1.4-1.3-.2 15.5-.3 9.1-.4zm120.9-15.1c.2-5.5-.1-11.9-.2-16.5 0-2.8.4-8.8-.4-9.3 0 6.5.3 8.7 0 14.2.2-.1.4.4.4 1.2s-.4.6-.4 1.8c-.1 3.1.3 7.8.2 13.3a32.4 32.4 0 0 0 .4-4.7zm-105.6 15.1c-.3-.1-1.5.1-.9.2s1.5-.1.9-.2zm-4.1 0c-.3-.1-1.5.1-.9.2s1.5-.1.9-.2zm-3 0c-.3-.1-1.5.1-.9.2s1.4-.1.9-.2zm-3.1 0c-.8 0-2 0-2 .2s2 0 2-.2zm-82.6-20.7v-11.2c-.5-2.6.1 8.4-.4 9.2s.1 2 .4 2zm-.2-16.3c-.1-1.5-.3.1 0 0zm80.4-21.1c1.5-.1-.1-.3 0 0zm2 0c1.8-.1 6 .3 6.1-.2h-3c-1.2 0-2.9-.1-3.1.2zm7.1 0c.8 0 2 0 2-.2s-1.9-.1-2 .2zm108.9 11.2c-.5-5.9-.7 5.2 0 5.1 0-2.5-.4-3.2 0-5.1zM99.6 143.2c-.3-.1-1.5.1-1 .2s1.5 0 1-.2zm-12.3 0c-.3-.1-1.5.1-1 .2s1.6-.1 1-.2zm-2 0c-.3-.1-1.5.1-1 .2s1.5-.1 1-.2zm-33.6-15.3c0-1.5.1-3.8-.2-4.1 0 1.6-.1 3.8.2 4.1zm-.2-25.5c-.2 4.2.7.2 0 0zm66-16.8c.8 0 2 0 2-.2s-1.9 0-2 .2zm8.2 0c.8 0 2 0 2-.2s-1.9 0-2 .2zm6.2-.2c-1.5.1.1.3 0 0zm117.5 8.1c.5-.1.1-4.3.2-6.1-.4.2 0 4.4-.2 6.1zm.3 39.7c-.3.4 0 1.2 0 0zM118.9 143c-.3-.1-1.5.1-1 .2s1.5-.1 1-.2zm-56.1-1.6c-.3-.1-1.5.1-1 .2s1.5 0 1-.2zm185.2.3c0-.2-.1-1.6-.2-1.2s.2 1.6.2 1.2zm-119.7-1.2c-.3-.1-1.5.1-.9.2s1.4-.1.9-.2z" fill="#ee8e0d"/></g><g><path fill="#ffc733" d="M62.4 215h47.5v29.38H62.4z"/><path d="M85.9 244.7c.7.5 2.4.1 3.5.2-.7-.6-.7-.1-1.7-.4s-1.3 0-1.8.2zm-23.4-25.8c.1-.1-.1-.5-.2-.3s.1.5.2.3zm41 25.9H102c0 .3 1.9.3 1.5 0z" fill="none"/><path d="M87.6 244.5v-.2c-.4 0-.1.2 0 .2zm-.6 0c-1.1-.6-1.9.3-3.4 0 .5.3 1.8.6 2.2.2s.8-.2 1.2-.2zm14.7-.1h-7a26.9 26.9 0 0 0 7 0zm1.7.2c-.4-.3-.4 0 0 0zm-5.5.6c-.1-.1-.4.1-.2.2s.4-.1.2-.2zm-14.8-.7c-.3 0-.9 0-.8.2s.8 0 .8-.2zm6.8.2h1.5c-.2-.3-1.4-1-1.4-.4a.8.8 0 0 1 .7.2c-.4-.1-1.9 0-.8.2zm7.1.1c-.1-.1-.4.1-.2.2s.5-.1.2-.2zm-2.5 1h.3c-.1-.2-.3-.1-.3 0zm-1.4-1.4c.2.4-1.3.1-1.7.2s3.3.3 1.7-.2zm4.2.8c-.1-.1-.4.1-.2.2s.4-.1.2-.2zm-3.8-1.1c-.2 0-.6 0-.5.2s.6-.1.5-.2zm-1.8 0c-.1-.1-.4.1-.2.2s.4-.1.2-.2zm17.6-24.8c.1.9-.3 2.5.2 3v-1.5c-.1-.5.3-1.5-.2-1.5zm.5-.9c.1 1.4-.3 3.6.2 4.6-.1-1.4.3-3.6-.2-4.6zm-.2 6.6c0 .2 0 .6.2.7s0-.6-.2-.7zm0-8.7c-.1.1.1.5.2.3s-.1-.5-.2-.3zm-.3 6.6c.3-.1 0-.4 0 0zm.3 3c-.1.1.1.5.2.4s-.1-.5-.2-.4zm.6-8.1h-.2c0 .4.2.2.2 0zm-.2 0v-.3c-.3 0-.1.3 0 .3z" fill="none"/><path d="M112.9 234.7c.1-.1-.1-.6-.2-.4s.1.5.2.4zm-24.6 12.6c.1.1.4-.1.2-.2s-.4.1-.2.2zm-3.6-34.9c-.1-.1-.5.1-.3.2s.4-.1.3-.2zm22.4 33.4c.1 0 .4-.1.2-.2s-.4.1-.2.2zm-10.6.2c.1.1.4-.1.2-.2s-.4.1-.2.2z" fill="#ee8e0d"/><path d="M73.7 245.1c2.6 0 4.9-.4 7.3-.2s3 .5 4.9.6a23.1 23.1 0 0 1 5.2.4c0-.3 1.2-.7 1.8-.2s-.9 0-.8.2a10.8 10.8 0 0 0 2.5 0c-.1-.1.1-.2.3 0h-.3v.2c1.6 0 1.7-.1.4-.4h3.1c1.8-.6 3.5-.2 5.9-.4a.7.7 0 0 0-.6-.3c.4.3-1.5.3-1.5 0h1.5v-.2c-.4 0-.4-.3 0 0s.9-.1.9-.3c-1.7-.3-1.9.4-2.6.2a26.9 26.9 0 0 1-7 0h7a6.5 6.5 0 0 0-2.1-.4c-.2 0-.2.2-.5.2s-.1-.2-.4-.2-.2.2-.5.2-.1-.2-.4-.2-.3.1-1.6-.2-7-.4-8.6.4v.2c1 .3 1-.2 1.7.4-1.1-.1-2.7.3-3.5-.2s-1.7.1-2.2-.2c1.5.3 2.3-.6 3.4 0-.4 0-1.2-.1-1.1.2s1.9.2 1.7-.2-.4-.2-.1-.2c-1.6-.6-4.4.1-5.5-.2s-.1.4-.5.4a1.2 1.2 0 0 0-.7-.4c-.1.3-.3.4-.8.4a19 19 0 0 1-4.9 0c.3.4-1.3-.1-1.4.4zm24.2.1c.2.1-.1.2-.2.2s.1-.3.2-.2zm-.9-.4c.2.1-.1.2-.2.2s.1-.2.2-.2zm.2.4c.2.1-.1.2-.2.2s.2-.3.3-.2zm-3.8-1.1c.1.2-.3.1-.5.2s.4-.2.6-.2zm-1.8 0c.2.1-.1.3-.2.2s.2-.3.3-.2zm-1 .4a.8.8 0 0 0-.7-.2c.1-.6 1.3.1 1.4.4s1.9.2 1.7-.2c1.6.4-1.5.6-1.7.2h-1.4c-1.1-.2.4-.3.8-.2zm-7.6 0c0 .2-.5.2-.8.2s.5-.2.9-.2zm-22-16.7c-.1.1.1.5.2.3s-.1-.5-.2-.3zm.6 3.9c-.4-2.9-.4 1.8 0 0zm8.4 13c-.6.4-2.5 0-3 .4a6.4 6.4 0 0 0 2.2 0c.3 0 4 .7 3.1 0s-3.2.3-2.3-.4zm-8.1-1.1v-7c-.3 2-.5 5.7 0 7zm48.3 1.1c-.1 0-.4.1-.1.2s.4-.1.1-.2zm-1.2.1c-.8 0-2 .1-1.5-.3l-1.7.2c.3.6 4.2.2 3.2.1zm-3.7 0c-.1 0-.4.1-.2.2s.5-.1.2-.2z" fill="#ee8e0d"/><path d="M104.2 245c.1 0 .4-.1.2-.2s-.4.1-.2.2zm-31.1.1c.1.1.4-.1.3-.2s-.5.1-.3.2zm-10.2 0c1.1-.1 3.1.3 3.7-.2-1.1.1-3.1-.3-3.7.2zm-1.3-1.2c-.1.1.1.5.2.3s0-.4-.2-.3zM81 214.4c-5.1.3-11.9.2-18.6.1H62v.4c-.1 4.1-.1 8.1-.1 11.6s-.2 5-.2 7.3c0 .1.5.2.4.6s-.7.2-.4.6a.2.2 0 0 1 0 .3c0 .5.3.6.2 1.2s.2 4.9.3 7.7v.3h6.2c.5 0 2 .3 1.8-.4l-7.8.4c-.2-6.3-.1-13.4.1-18.7-.4-1.1.1-1.6-.2-3s1.1-.8.4-1.2-.2.6-.4.6-.3-2.4.2-2.7 0 .9.2.9.2-1.1.2-1.8-.7.6-.7-.6a21.5 21.5 0 0 1-.1-2.7v-.2h.2c2.4.1 4.6.4 6.7-.2 4.2.2 7.6.2 11.9.2.2 0 .3-.2.6-.2s-.1-.5-.5-.5zm-18.5 4.5c-.1.2-.3-.2-.2-.3s.3.2.2.3zm20-4.7l-.9.4c.4.4 2.6.3 3 0v-.2c-1.1.2-1.5.3-2.1-.2zm28.1 18.3v-5.9c0-.3 0-.6-.2-.7.1 2.1-.3 4.8.2 6.6zm0 .9c0-.3 0-.6-.2-.7s0 .6.2.7zm-.2 2.4c.5-1.2-.6-1.1 0 0zm-39.2 8.9c-1.7-.2-.3.7 0 0zm22.9-30.1c1.1 0 2.3.4 3.4-.2H92c-2 0-4-.2-4.6.4a58.3 58.3 0 0 0 6.7-.2zm15.9 16.7v1.2c-.1.5.2.7.2.4-.1-3.3 0-5.7.1-7.9a44.2 44.2 0 0 0-.1-7.1c0 .2-.2.3-.2 0s-.3-.3 0-.3a3 3 0 0 0 .2-1.5v-1.3h-.3c-4.4 0-10.4 0-14.2.4h-4.6c-1.1-.2-1.1.4 0 .2h2.1c3.3-.1 7.3.3 10.1-.2.5-.1.9.4 1.5.4s1.2-.3 1.8-.2l3.3.4-.7-.7c0 .3-.1.7-.1 1s.2 1 .2 1.5c0 2-.5 4.4-.2 6 0-.4 0-.5.2-.6s.3-.1 0 0v3.3c0 .4.6.3.6.8s-.4.1-.4.5.1 1.9.2 2.8.3.5.3.9zm-.4-15c.1-.2.3.2.2.3s-.3-.3-.2-.3zm-.2 3c.5 0 .1 1.1.2 1.5v1.5c-.5-.5-.1-2.1-.3-3zm.4-.9c.5 1 .1 3.2.2 4.6-.5-1-.1-3.2-.2-4.6zm-.2 6.6c.2.1.2.4.2.7s-.2-.4-.2-.7zm0 .9c.1-.1.3.3.2.4s-.3-.3-.2-.4zm-3.8 18.7c-.5-.5-1.1.2 0 0zm-31.5.1c.1.1.4-.1.3-.2s-.5.1-.3.2zm-3.1-.2v.2c1.8.1 1.7-.4 0-.2zm13.5-29.9c.4.7 1.6-.2 0 0zm2.4 0c-2-.3-.7.7 0 0z" fill="#ee8e0d"/><path d="M110.2 217.8c0-.3-.1-.3-.2-.3v.3zM73.8 244c-.5 0-3.7-.3-2.7.4s4.6-.3 2.7-.4zm36.2-4.2a37.2 37.2 0 0 0-.2-5c0-.9.3-2.5-.4-2.9 0 1.9.3 2.7 0 4.2a.7.7 0 0 1 .4.5c-.3-.3-.3 0-.4.4s.3 2.5.2 4.1c.3-.1.3-.8.4-1.3zM78.4 244c-.1-.1-.4.1-.2.2s.4-.1.2-.2zm-1.2 0c-.1-.1-.4.1-.3.2s.4-.1.3-.2zm-.9 0c-.1-.1-.4.1-.3.2s.4-.1.3-.2zm-1 0c-.2 0-.6 0-.6.2s.7 0 .6-.2zM63 226.2v-3.4c-.5-.8.1 2.5-.4 2.7s.1.7.4.7zm-.2-4.8c-.1-.4-.3 0 0 0zm23.7-6.1c.4-.1 0-.3 0 0zm.6 0c.5-.1 1.8.3 1.8-.2H88c-.3 0-.8-.1-.9.2zm2.1 0c.2 0 .6 0 .6-.2s-.5 0-.6.2zm20.6 14.9c-.5-1.9-.7 1.3 0 1.5s-.4-1 0-1.5zM65 243.8c-.1-.1-.5.1-.3.2s.5-.1.3-.2zm-2-.5c.1-.1-.1-.5-.2-.3s.1.5.2.3zm0-.6c.1-.1-.1-.5-.2-.3s.1.5.2.3zm0-14.9c0-.5.1-1.1-.2-1.2s-.1 1.1.2 1.2zm-.2-7.6c-.2 1.3.7.1 0 0zm19.4-4.7c.2 0 .6 0 .6-.2s-.6 0-.6.2zm2.5 0c.2 0 .6 0 .6-.2s-.6 0-.6.2zm1.8-.2c-.4.1 0 .3 0 0zm22.9 13.9c.5.1.1-1.2.2-1.7s-.1 1.2-.2 1.7z" fill="#ee8e0d"/><path d="M109.6 241c-.2 0 0 .4 0 0zm-38.9 2.6c-.1-.1-.4.1-.3.2s.5-.1.3-.2zm-5.9-7.6c.1-.1-.1-.5-.2-.3s.1.5.2.3zm43.1 6.3s-.1-.5-.2-.4.1.5.2.4zM73.3 241c-.1-.1-.4.1-.2.2s.3-.1.2-.2z" fill="#ee8e0d"/></g><g><path fill="#ffc733" d="M191.2 215h47.5v29.38h-47.5z"/><path d="M214.7 244.7c.7.5 2.4.1 3.5.2-.7-.6-.7-.1-1.7-.4s-1.3 0-1.8.2zm-23.3-25.8c.1-.1-.1-.5-.2-.3s0 .5.2.3zm40.9 25.9h-1.5c.1.3 1.9.3 1.5 0z" fill="none"/><path d="M216.5 244.5v-.2c-.5 0-.2.2 0 .2zm-.7 0c-1.1-.6-1.9.3-3.4 0 .5.3 1.8.6 2.2.2s.8-.2 1.2-.2zm14.7-.1h-7a26.9 26.9 0 0 0 7 0zm1.7.2c-.4-.3-.4 0 0 0zm-5.5.6c-.1-.1-.4.1-.2.2s.4-.1.2-.2zm-14.8-.7c-.3 0-.9 0-.8.2s.8 0 .8-.2zm6.8.2h1.5c-.2-.3-1.4-1-1.4-.4a.8.8 0 0 1 .7.2c-.4-.1-1.9 0-.8.2zm7.2.1c-.1-.1-.4.1-.2.2s.4-.1.2-.2zm-2.6 1h.3c-.1-.2-.3-.1-.3 0zm-1.3-1.4c.2.4-1.3.1-1.7.2s3.2.3 1.7-.2zm4.1.8c-.1-.1-.4.1-.2.2s.4-.1.2-.2zm-3.8-1.1c-.2 0-.6 0-.5.2s.6-.1.5-.2zm-1.8 0c-.1-.1-.4.1-.2.2s.4-.1.2-.2zm17.6-24.8c.1.9-.3 2.5.2 3v-1.5c-.1-.5.3-1.5-.2-1.5zm.5-.9c.1 1.4-.3 3.6.2 4.6-.1-1.4.3-3.6-.2-4.6zm-.2 6.6c0 .2 0 .6.2.7s0-.6-.2-.7zm0-8.7c-.1.1.1.5.2.3s-.1-.5-.2-.3zm-.2 6.6c.3-.1 0-.4 0 0zm.2 3c-.1.1.1.5.2.4s-.1-.5-.2-.4zm.6-8.1h-.2c.1.4.2.2.2 0zm-.2 0v-.3c-.2 0-.1.3 0 .3z" fill="none"/><path d="M241.8 234.7c.1-.1-.1-.6-.2-.4s0 .5.2.4zm-24.7 12.6c.1.1.4-.1.2-.2s-.4.1-.2.2zm-3.6-34.9c-.1-.1-.5.1-.3.2s.4-.1.3-.2zm22.5 33.4c.1 0 .4-.1.2-.2s-.5.1-.2.2zm-10.7.2c.1.1.4-.1.2-.2s-.4.1-.2.2z" fill="#ee8e0d"/><path d="M202.5 245.1c2.6 0 4.9-.4 7.3-.2s3 .5 4.9.6a23.1 23.1 0 0 1 5.2.4c0-.3 1.2-.7 1.8-.2s-.9 0-.8.2a10.8 10.8 0 0 0 2.5 0c-.1-.1.1-.2.3 0h-.3v.2c1.6 0 1.7-.1.4-.4h3.2c1.8-.6 3.5-.2 5.9-.4a.7.7 0 0 0-.6-.3c.4.3-1.5.3-1.5 0h1.5v-.2c-.4 0-.4-.3 0 0s.9-.1.9-.3c-1.7-.3-1.9.4-2.6.2a26.9 26.9 0 0 1-7 0h7a6.5 6.5 0 0 0-2.1-.4c-.2 0-.2.2-.5.2s-.1-.2-.4-.2-.2.2-.5.2-.1-.2-.4-.2-.3.1-1.6-.2-7-.4-8.6.4v.2c1 .3 1-.2 1.7.4-1.1-.1-2.7.3-3.5-.2s-1.7.1-2.2-.2c1.5.3 2.3-.6 3.4 0-.4 0-1.2-.1-1.1.2s1.9.2 1.7-.2-.4-.2-.1-.2c-1.6-.6-4.4.1-5.5-.2s-.1.4-.5.4a1.2 1.2 0 0 0-.7-.4c-.1.3-.3.4-.8.4a19 19 0 0 1-4.9 0c.2.4-1.4-.1-1.5.4zm24.2.1c.2.1-.1.2-.2.2s.1-.3.2-.2zm-.9-.4c.2.1-.1.2-.2.2s.1-.2.3-.2zm.2.4c.2.1-.1.2-.2.2s.2-.3.3-.2zm-3.8-1.1c.1.2-.3.1-.5.2s.4-.2.6-.2zm-1.8 0c.2.1-.1.3-.2.2s.2-.3.3-.2zm-1 .4a.8.8 0 0 0-.7-.2c.1-.6 1.3.1 1.4.4s1.9.2 1.7-.2c1.6.4-1.5.6-1.7.2h-1.5c-1-.2.5-.3.9-.2zm-7.6 0c0 .2-.5.2-.8.2s.5-.2.9-.2zm-22-16.7c-.1.1.1.5.2.3s-.1-.5-.2-.3zm.7 3.9c-.4-2.9-.4 1.8 0 0zm8.3 13c-.6.4-2.5 0-3 .4a6.4 6.4 0 0 0 2.2 0c.3 0 4 .7 3.1 0s-3.2.3-2.3-.4zm-8.1-1.1v-7c-.3 2-.5 5.7 0 7zm48.4 1.1c-.1 0-.4.1-.1.2s.3-.1.1-.2zm-1.3.1c-.8 0-2 .1-1.5-.3l-1.7.2c.3.6 4.2.2 3.2.1zm-3.7 0c-.1 0-.4.1-.2.2s.5-.1.2-.2z" fill="#ee8e0d"/><path d="M233.1 245c.1 0 .4-.1.2-.2s-.5.1-.2.2zm-31.2.1c.1.1.4-.1.3-.2s-.5.1-.3.2zm-10.2 0c1.1-.1 3.1.3 3.7-.2-1.1.1-3-.3-3.7.2zm-1.2-1.2c-.1.1.1.5.2.3s-.1-.4-.2-.3zm19.3-29.5c-5.1.3-11.9.2-18.6.1h-.4v.4c-.1 4.1-.1 8.1-.1 11.6s-.2 5-.2 7.3c0 .1.5.2.4.6s-.7.2-.4.6a.2.2 0 0 1 0 .3c0 .5.3.6.2 1.2s.2 4.9.3 7.7v.3h6.2c.5 0 2 .3 1.8-.4l-7.8.4c-.2-6.3-.1-13.4.1-18.7-.4-1.1.1-1.6-.2-3s1.1-.8.4-1.2-.2.6-.4.6-.3-2.4.2-2.7 0 .9.2.9.2-1.1.2-1.8-.7.6-.7-.6a21.5 21.5 0 0 1-.1-2.7v-.2h.2c2.4.1 4.6.4 6.7-.2 4.2.2 7.6.2 11.9.2.2 0 .3-.2.6-.2s-.1-.5-.5-.5zm-18.5 4.5c-.1.2-.3-.2-.2-.3s.3.2.3.3zm20.1-4.7l-.9.4c.4.4 2.6.3 3 0v-.2c-1.2.2-1.6.3-2.1-.2zm28 18.3v-5.9c0-.3 0-.6-.2-.7.2 2.1-.3 4.8.2 6.6zm0 .9c0-.3 0-.6-.2-.7s0 .6.2.7zm-.2 2.4c.5-1.2-.6-1.1 0 0zm-39.2 8.9c-1.7-.2-.3.7 0 0zm22.9-30.1c1.1 0 2.3.4 3.4-.2h-5.5c-2 0-4-.2-4.6.4a58.3 58.3 0 0 0 6.7-.2zm15.9 16.7v1.2c-.1.5.2.7.2.4-.1-3.3 0-5.7.1-7.9a44.2 44.2 0 0 0-.1-7.1c0 .2-.2.3-.2 0s-.3-.3 0-.3a3 3 0 0 0 .2-1.5v-1.3h-.3c-4.4 0-10.4 0-14.2.4h-4.6c-1.1-.2-1.1.4 0 .2h2.1c3.3-.1 7.3.3 10.1-.2.5-.1.9.4 1.5.4s1.2-.3 1.8-.2l3.3.4-.7-.7c0 .3-.1.7-.1 1s.2 1 .2 1.5c0 2-.5 4.4-.2 6 0-.4 0-.5.2-.6s.3-.1 0 0v3.3c0 .4.6.3.6.8s-.4.1-.4.5.1 1.9.2 2.8.3.5.3.9zm-.4-15c.1-.2.3.2.2.3s-.3-.3-.2-.3zm-.2 3c.5 0 .1 1.1.2 1.5v1.5c-.5-.5-.1-2.1-.3-3zm.4-.9c.5 1 .1 3.2.2 4.6-.5-1-.1-3.2-.2-4.6zm-.2 6.6c.2.1.2.4.2.7s-.2-.4-.2-.7zm0 .9c.1-.1.3.3.2.4s-.3-.3-.2-.4zm-3.8 18.7c-.5-.5-1.1.2 0 0zm-31.5.1c.1.1.4-.1.3-.2s-.5.1-.3.2zm-3.1-.2v.2c1.8.1 1.7-.4 0-.2zm13.5-29.9c.4.7 1.6-.2 0 0zm2.4 0c-2-.3-.7.7 0 0z" fill="#ee8e0d"/><path d="M239 217.8c0-.3-.1-.3-.2-.3v.3zM202.6 244c-.5 0-3.7-.3-2.7.4s4.7-.3 2.7-.4zm36.2-4.2a37.2 37.2 0 0 0-.2-5c0-.9.3-2.5-.4-2.9 0 1.9.3 2.7 0 4.2a.7.7 0 0 1 .4.5c-.3-.3-.3 0-.4.4s.3 2.5.2 4.1c.3-.1.3-.8.4-1.3zm-31.6 4.2c-.1-.1-.4.1-.2.2s.4-.1.2-.2zm-1.2 0c-.1-.1-.4.1-.3.2s.5-.1.3-.2zm-.9 0c-.1-.1-.4.1-.3.2s.4-.1.3-.2zm-.9 0c-.2 0-.6 0-.6.2s.6 0 .6-.2zm-12.4-17.8v-3.4c-.5-.8.1 2.5-.4 2.7s.1.7.4.7zm-.2-4.8c-.1-.4-.3 0 0 0zm23.7-6.1c.4-.1 0-.3 0 0zm.6 0c.5-.1 1.8.3 1.8-.2h-.9c-.3 0-.8-.1-.9.2zm2.2 0c.2 0 .6 0 .6-.2s-.6 0-.6.2zm20.5 14.9c-.5-1.9-.7 1.3 0 1.5s-.4-1 0-1.5zm-44.8 13.6c-.1-.1-.5.1-.3.2s.5-.1.3-.2zm-2-.5c.1-.1-.1-.5-.2-.3s.1.5.2.3zm0-.6c.1-.1-.1-.5-.2-.3s.1.5.2.3zm0-14.9c0-.5.1-1.1-.2-1.2s-.1 1.1.2 1.2zm-.2-7.6c-.2 1.3.7.1 0 0zm19.5-4.7c.2 0 .6 0 .6-.2s-.6 0-.6.2zm2.4 0c.2 0 .6 0 .6-.2s-.6 0-.6.2zm1.8-.2c-.4.1 0 .3 0 0zm22.9 13.9c.5.1.1-1.2.2-1.7s-.1 1.2-.2 1.7z" fill="#ee8e0d"/><path d="M238.4 241c-.2 0 0 .4 0 0zm-38.8 2.6c-.1-.1-.4.1-.3.2s.4-.1.3-.2zm-6-7.6c.1-.1-.1-.5-.2-.3s.1.5.2.3zm43.1 6.3s-.1-.5-.2-.4.2.5.2.4zm-34.6-1.3c-.1-.1-.4.1-.2.2s.3-.1.2-.2z" fill="#ee8e0d"/></g><g><path fill="#ffc733" d="M125.7 215h47.5v29.38h-47.5z"/><path d="M149.2 244.7c.7.5 2.4.1 3.5.2-.7-.6-.7-.1-1.7-.4s-1.3 0-1.8.2zm-23.4-25.8c.1-.1-.1-.5-.2-.3s.1.5.2.3zm41 25.9h-1.5c0 .3 1.8.3 1.5 0z" fill="none"/><path d="M150.9 244.5v-.2c-.4 0-.1.2 0 .2zm-.6 0c-1.1-.6-1.9.3-3.4 0 .5.3 1.8.6 2.2.2s.8-.2 1.2-.2zm14.7-.1h-7a26.9 26.9 0 0 0 7 0zm1.6.2c-.4-.3-.4 0 0 0zm-5.4.6c-.1-.1-.4.1-.2.2s.4-.1.2-.2zm-14.9-.7c-.3 0-.9 0-.8.2s.9 0 .8-.2zm6.9.2h1.5c-.2-.3-1.4-1-1.4-.4a.8.8 0 0 1 .7.2c-.4-.1-1.9 0-.8.2zm7.1.1c-.1-.1-.4.1-.2.2s.4-.1.2-.2zm-2.5 1h.3c-.2-.2-.4-.1-.3 0zm-1.4-1.4c.2.4-1.3.1-1.7.2s3.3.3 1.7-.2zm4.2.8c-.1-.1-.4.1-.2.2s.4-.1.2-.2zm-3.8-1.1c-.2 0-.6 0-.5.2s.6-.1.5-.2zm-1.8 0c-.1-.1-.4.1-.2.2s.4-.1.2-.2zm17.6-24.8c.1.9-.3 2.5.2 3v-1.5c-.1-.5.3-1.5-.2-1.5zm.5-.9c.1 1.4-.3 3.6.2 4.6-.2-1.4.3-3.6-.2-4.6zm-.3 6.6c0 .2 0 .6.2.7s.1-.6-.2-.7zm0-8.7c-.1.1.1.5.2.3s-.1-.5-.2-.3zm-.2 6.6c.3-.1 0-.4 0 0zm.2 3c-.1.1.1.5.2.4s0-.5-.2-.4zm.7-8.1h-.2c0 .4.2.2.2 0zm-.2 0v-.3c-.3 0-.1.3 0 .3z" fill="none"/><path d="M176.2 234.7c.1-.1-.1-.6-.2-.4s.1.5.2.4zm-24.7 12.6c.1.1.4-.1.2-.2s-.4.1-.2.2zm-3.5-34.9c-.1-.1-.5.1-.3.2s.4-.1.3-.2zm22.4 33.4c.1 0 .4-.1.2-.2s-.4.1-.2.2zm-10.6.2c.1.1.4-.1.2-.2s-.4.1-.2.2z" fill="#ee8e0d"/><path d="M137 245.1c2.6 0 4.9-.4 7.3-.2s3 .5 4.9.6a23.1 23.1 0 0 1 5.2.4c0-.3 1.2-.7 1.8-.2s-.9 0-.8.2a10.8 10.8 0 0 0 2.5 0c-.1-.1.1-.2.3 0h-.3v.2c1.6 0 1.7-.1.4-.4h3.1c1.8-.6 3.5-.2 5.9-.4a.7.7 0 0 0-.6-.3c.4.3-1.5.3-1.5 0h1.5v-.2c-.4 0-.4-.3 0 0s.9-.1.9-.3c-1.7-.3-1.9.4-2.6.2a26.9 26.9 0 0 1-7 0h7a6.5 6.5 0 0 0-2.1-.4c-.2 0-.2.2-.5.2s-.1-.2-.4-.2-.2.2-.5.2-.1-.2-.4-.2-.3.1-1.6-.2-7-.4-8.6.4v.2c1 .3 1-.2 1.7.4-1.1-.1-2.7.3-3.5-.2s-1.7.1-2.2-.2c1.5.3 2.3-.6 3.4 0-.4 0-1.2-.1-1.1.2s1.9.2 1.7-.2-.4-.2-.1-.2c-1.6-.6-4.4.1-5.5-.2s-.1.4-.5.4a1.2 1.2 0 0 0-.7-.4c-.1.3-.3.4-.8.4a19 19 0 0 1-4.9 0c.3.4-1.4-.1-1.4.4zm24.2.1c.2.1-.1.2-.2.2s.1-.3.2-.2zm-.9-.4c.2.1-.1.2-.2.2s.1-.2.2-.2zm.2.4c.2.1-.1.2-.2.2s.1-.3.3-.2zm-3.8-1.1c.1.2-.3.1-.5.2s.4-.2.6-.2zm-1.8 0c.2.1-.1.3-.2.2s.2-.3.3-.2zm-1 .4a.8.8 0 0 0-.7-.2c.1-.6 1.3.1 1.4.4s1.9.2 1.7-.2c1.6.4-1.5.6-1.7.2h-1.5c-1-.2.5-.3.9-.2zm-7.6 0c0 .2-.5.2-.8.2s.5-.2.8-.2zm-22-16.7c-.1.1.1.5.2.3s-.1-.5-.2-.3zm.6 3.9c-.4-2.9-.4 1.8 0 0zm8.3 13c-.6.4-2.5 0-3 .4a6.4 6.4 0 0 0 2.2 0c.3 0 4 .7 3.1 0s-3.2.3-2.3-.4zm-8.1-1.1v-7c-.2 2-.5 5.7 0 7zm48.4 1.1c-.1 0-.4.1-.1.2s.4-.1.1-.2zm-1.2.1c-.8 0-2 .1-1.5-.3l-1.7.2c.2.6 4.2.2 3.2.1zm-3.7 0c-.1 0-.4.1-.2.2s.4-.1.2-.2z" fill="#ee8e0d"/><path d="M167.5 245c.1 0 .4-.1.2-.2s-.4.1-.2.2zm-31.1.1c.1.1.4-.1.3-.2s-.5.1-.3.2zm-10.2 0c1.1-.1 3.1.3 3.7-.2-1.1.1-3.1-.3-3.7.2zm-1.3-1.2c-.1.1.1.5.2.3s-.1-.4-.2-.3zm19.4-29.5c-5.1.3-11.9.2-18.6.1h-.4v.4c-.1 4.1-.1 8.1-.1 11.6s-.2 5-.2 7.3c0 .1.5.2.4.6s-.7.2-.4.6a.2.2 0 0 1 0 .3c0 .5.3.6.2 1.2s.2 4.9.3 7.7v.3h6.2c.5 0 2 .3 1.8-.4l-7.8.4c-.2-6.3-.1-13.4.1-18.7-.4-1.1.1-1.6-.2-3s1.1-.8.4-1.2-.2.6-.4.6-.3-2.4.2-2.7 0 .9.2.9.2-1.1.2-1.8-.7.6-.7-.6a21.5 21.5 0 0 1-.1-2.7v-.2h.2c2.4.1 4.6.4 6.7-.2 4.2.2 7.6.2 11.9.2.2 0 .3-.2.6-.2s-.1-.5-.5-.5zm-18.5 4.5c-.1.2-.3-.2-.2-.3s.3.2.2.3zm20-4.7l-.9.4c.4.4 2.6.3 3 0v-.2c-1.1.2-1.5.3-2.1-.2zm28.1 18.3v-5.9c0-.3 0-.6-.2-.7.1 2.1-.3 4.8.2 6.6zm0 .9c0-.3 0-.6-.2-.7s0 .6.2.7zm-.3 2.4c.5-1.2-.6-1.1 0 0zm-39.1 8.9c-1.7-.2-.3.7 0 0zm22.9-30.1c1.1 0 2.3.4 3.4-.2h-5.5c-2 0-4-.2-4.6.4a58.3 58.3 0 0 0 6.7-.2zm15.9 16.7v1.2c-.1.5.2.7.2.4-.1-3.3 0-5.7.1-7.9a44.2 44.2 0 0 0-.1-7.1c0 .2-.2.3-.2 0s-.3-.3 0-.3a3 3 0 0 0 .2-1.5v-1.3h-.3c-4.4 0-10.4 0-14.2.4h-4.6c-1.1-.2-1.1.4 0 .2h2.1c3.3-.1 7.3.3 10.1-.2.5-.1.9.4 1.5.4s1.2-.3 1.8-.2l3.3.4-.7-.7c0 .3-.1.7-.1 1s.2 1 .2 1.5c0 2-.5 4.4-.2 6 0-.4 0-.5.2-.6s.3-.1 0 0v3.3c0 .4.6.3.6.8s-.4.1-.4.5.1 1.9.2 2.8.2.5.3.9zm-.4-15c.1-.2.3.2.2.3s-.3-.3-.3-.3zm-.2 3c.5 0 .1 1.1.2 1.5v1.5c-.6-.5-.2-2.1-.3-3zm.4-.9c.5 1 .1 3.2.2 4.6-.5-1-.1-3.2-.2-4.6zm-.2 6.6c.2.1.2.4.2.7s-.2-.4-.3-.7zm0 .9c.1-.1.3.3.2.4s-.3-.3-.3-.4zm-3.8 18.7c-.5-.5-1.1.2 0 0zm-31.6.1c.1.1.4-.1.3-.2s-.4.1-.3.2z" fill="#ee8e0d"/><path d="M134.4 244.5v.2c1.8.1 1.8-.4 0-.2zm13.6-29.9c.4.7 1.6-.2 0 0zm2.4 0c-2-.3-.7.7 0 0zm23.1 3.2c0-.3-.1-.3-.2-.3v.3zM137.1 244c-.5 0-3.7-.3-2.7.4s4.6-.3 2.7-.4zm36.2-4.2a37.2 37.2 0 0 0-.2-5c0-.9.3-2.5-.4-2.9 0 1.9.3 2.7 0 4.2a.7.7 0 0 1 .4.5c-.3-.3-.3 0-.4.4s.3 2.5.2 4.1c.3-.1.3-.8.4-1.3zm-31.6 4.2c-.1-.1-.4.1-.2.2s.3-.1.2-.2zm-1.3 0c-.1-.1-.4.1-.3.2s.5-.1.3-.2zm-.9 0c-.1-.1-.4.1-.3.2s.5-.1.3-.2zm-.9 0c-.2 0-.6 0-.6.2s.7 0 .6-.2zm-12.3-17.8v-3.4c-.5-.8.1 2.5-.4 2.7s.1.7.4.7zm-.3-4.8c-.1-.4-.3 0 0 0zm23.8-6.1c.4-.1 0-.3 0 0zm.6 0c.5-.1 1.8.3 1.8-.2h-.9c-.4 0-.9-.1-.9.2zm2.1 0c.2 0 .6 0 .6-.2s-.6 0-.6.2zm20.6 14.9c-.5-1.9-.7 1.3 0 1.5s-.4-1 0-1.5zm-44.8 13.6c-.1-.1-.5.1-.3.2s.5-.1.3-.2zm-2-.5c.1-.1-.1-.5-.2-.3s0 .5.2.3zm0-.6c.1-.1-.1-.5-.2-.3s0 .5.2.3zm0-14.9c0-.5.1-1.1-.2-1.2s-.1 1.1.2 1.2zm-.3-7.6c-.2 1.3.7.1 0 0zm19.5-4.7c.2 0 .6 0 .6-.2s-.6 0-.6.2zm2.5 0c.2 0 .6 0 .6-.2s-.6 0-.6.2zm1.8-.2c-.4.1 0 .3 0 0zm22.8 13.9c.5.1.1-1.2.2-1.7s0 1.2-.2 1.7z" fill="#ee8e0d"/><path d="M172.9 241c-.2 0 0 .4 0 0zm-38.9 2.6c-.1-.1-.4.1-.3.2s.5-.1.3-.2zm-6-7.6c.1-.1-.1-.5-.2-.3s.1.5.2.3zm43.2 6.3s-.1-.5-.2-.4.1.5.2.4zm-34.7-1.3c-.1-.1-.4.1-.2.2s.4-.1.2-.2z" fill="#ee8e0d"/></g><g><path d="M82.1 161.3c-.4-.3-.9-.1-1.3.2s-.7.6-1 .6.5.6.6.5a.6.6 0 0 1 .7-.2c-.5-.8.7-.6 1-1.1zm36.2-.6c.1.1.4-.2.3-.4s-.4.1-.3.4zm-48.7 0h1.2c.2-.8-1.4-.8-1.2 0zm11.5 1.8l.2.4c.3-.3-.1-.5-.2-.4z" fill="none"/><path d="M81.5 162.2c.6.4.9.1 1.1-.4s.6-.9 1.2-.9-1.7-.6-1.7.3-.3.7-.6 1zm-10.6-.7a17.7 17.7 0 0 1 5.4.8 5.2 5.2 0 0 0-5.4-.8zm-1.2-.4c.2.6.3-.1 0 0zm4.8-1.1c0 .1.4-.1.3-.4s-.4.2-.3.4zm9.8.8c.2-.2.7-.1.6-.6s-.8.1-.6.6zm-4.6 1.8h-.9a2.1 2.1 0 0 0 .2 1.2c.2.3.5.4.6-.3s-.4-.1-.5-.4a.8.8 0 0 0 .7-.1c.2-.1.2-.3-.1-.4zm-4.9-1.6c0 .1.4-.1.3-.4s-.4.2-.3.4zm3.1-1.4h-.2c-.2.4.1.2.2 0zm-.6 3.1c.3-.9 1 .1 1.4-.1s-.3-.7-.8-.7-.9.1-.6.8zm-2.3-2.6c0 .1.4-.1.4-.4s-.5.2-.4.4zm1.6 3.3c.2 0 .4.1.6-.3s-.5-.1-.6.3zm1.4.4c0 .1.4-.1.3-.4s-.4.1-.3.4zm81.2-.3c.7-.4 2 .4 2.2-.7h-1.1c-.3.4-1.2-.2-1.1.7zm-.8-.8c1.1-.4 2.8.2 3.4-.8-1 .4-2.8-.3-3.4.8zm5.1 0c.2-.1.5 0 .4-.5s-.4.1-.4.5zm-6.6.7c.1.1.3-.3.1-.5s-.3.3-.1.5zm5-.2c-.2-.6-.3.1 0 0zm2.3-.5c.1.1.3-.2.2-.5s-.3.3-.2.5zm-6.4-.8v.4c.3-.1.2-.4 0-.4zm.1.5h-.2c.1.5.2.2.2 0z" fill="none"/><path d="M169.9 155.2c-.1-.1-.4.2-.3.4s.4-.2.3-.4zM78.1 157c-.1-.1-.1.3.1.5s.1-.4-.1-.5zm56.4-.9c-.2 0-.2.4.1.5s.2-.4-.1-.5zm-67.6 2.2c-.1-.1-.4.3-.2.5s.4-.3.2-.5zm9.5.4c0-.1-.5.1-.4.4s.5-.2.4-.4z" fill="#ee8e0d"/><path d="M91.7 158.9c-2.1-.3-4 .5-6 .6s-2.6-.6-4.3.1-1.4.8-1.8.9h-.4a1.7 1.7 0 0 1-.1-.5 1.1 1.1 0 0 1-.2.8c-.2.1-.4 0-.3-.5s.4.2.4-.4a.5.5 0 0 0-.4-.3h-.9c-.1.2-.4.4-.2-.1h.2v-.4c-1.3-.5-1.5-.3-.8.7l-2.6-.7a4.9 4.9 0 0 1-2.6.5 7.4 7.4 0 0 0-2.7.1c0 .5.1.8.3.9s1.4-.8 1.2 0h-.9v.4c.3-.1.2.6 0 0a1 1 0 0 0-.9 1c1.2.6 1.6-1.2 2.1-.6a5.2 5.2 0 0 1 5.4.8 17.7 17.7 0 0 0-5.4-.8 1.8 1.8 0 0 0 1.3.9c.2 0 .3-.5.5-.4s0 .4.2.5.3-.5.5-.4-.1.5.2.5.4-.3 1 .6a5.1 5.1 0 0 1 1.6.4l1.9.7a3.4 3.4 0 0 0 2.2-.1 1.8 1.8 0 0 0 1.1-1.4l-.2-.4a.6.6 0 0 0-.7.2c-.1.1-.3.1-.6-.5s.6-.3 1-.6.8-.5 1.3-.2 1.2-.9 1.7-.3-.9.4-1.2.9-.5.7-1.1.4.8-.3.6-.9-1.5.3-1 1.1.4.2.2.4a1.5 1.5 0 0 0 1.1-.1l1-.6c.6-.4 1.3-.9 1.8-.7s-.1-.9.2-1 .4.7.6.8.1-1 .5-1 2.1-.8 3.8-.1c0-1.4 1.2-.2 1.4-1.2zM74.5 160c-.1-.2.3-.5.3-.4s-.3.6-.3.4zm.3 1c-.1-.3.3-.5.3-.4s-.3.5-.3.4zm.2-.9c-.1-.3.3-.5.4-.4s-.4.6-.4.4zm1.6 3.2c.1-.4.4-.2.6-.3s-.4.3-.6.4zm1.4.4c-.1-.3.3-.5.3-.4s-.3.6-.3.5zm1.1-.7c0 .3.2.5.5.4s-.4.6-.6.3a2.1 2.1 0 0 1-.2-1.2c-.4.2-1-.8-1.4.1-.3-.6.1-.8.6-.8s.9.2.8.7h.9c.3.1.3.3.1.4a.8.8 0 0 1-.7.2zm5.2-2.3c-.1-.5.3-.5.6-.6s-.4.6-.6.7zm26.4-3.3c-.2-.1-.6.4-.3.6s.6-.4.3-.6zm-2.5 3.4c.2-.4.2-.6.1-.7h-.3a.4.4 0 0 0-.2.3c0 .3.1.4.4.4zm-13.8-.5c.7-.7 1.9.5 2.5-.3s-1.5-.4-1.6-.4l-1.4-.8c-.6-.3-1.2-.4-1 .3s2.5-.1 1.5 1.2zm6.2 1a24.5 24.5 0 0 0 5.1.7c-1.4-.5-3.9-1.4-5.1-.7zm-36.3.5c.1.1.3-.3.1-.5s-.3.3-.1.5zm.9-.3c.6-.2 1.5-.7 1.2.6.7-.6.5-.2 1.3-.7s-.9-1-1.6-.7-1.2.7-.9.8zm2.9-.7c.1.1.3-.3.2-.5s-.3.3-.2.5z" fill="#ee8e0d"/><path d="M69.1 160.3c-.1-.1-.4.3-.2.5s.3-.3.2-.5zm23.1-1.3c-.1-.1-.4.2-.3.4s.4-.1.3-.4zm7.6 1.7c-.9.1-2.1-1.1-2.8-.2.9-.1 2.1 1.1 2.8.2zm.7.2c0-.1-.4.1-.3.4s.3-.2.3-.4z" fill="#ee8e0d"/><path d="M135.2 160.5a4.7 4.7 0 0 1-2.1.3h-2.7l-5.9-.5-6.1-.7-2.9-.3a19.8 19.8 0 0 0-2.9-.2 5.2 5.2 0 0 0-1.9.5 6.8 6.8 0 0 0-1.5 1 3.2 3.2 0 0 1-1.7.9c-.1 0 .2 1-.1 1l-.2-.6c-.1-.3-.2-.5-.3-.2s-.2.3-.2 0-.4.6-.8.5a12.3 12.3 0 0 1-4.8 0l-5.4-.9c-.4 0-1.4-.9-1.6.6 2.9 0 6.5.9 10 1.2 1.8.2 3.6.2 5-.8a15.6 15.6 0 0 1 2-1.5 3.8 3.8 0 0 1 2.2-.2c.9-.8 1.2.3 2.3-.3s.5 2.3.9 1-.4-.4-.4-.9 1.9-.4 2.1.6-.7-.1-.7.4.8.5 1.4.6-.3-1.4.6-1.3c2.7-.4 4.9 1.5 7.2.1l4.5.7 2.2.2a6.5 6.5 0 0 0 2.3-.1c.1-.1.1-.5.2-.6s-.5-.6-.7-.5zm-16.9.2c-.1-.2.2-.6.3-.4s-.3.5-.3.4z" fill="#ee8e0d"/><path d="M135.7 159.8a1.4 1.4 0 0 1 0 1c.3.4.8.2 1.2-.1a1.6 1.6 0 0 0 .6-1.2l-.3-.3c-.2.4-.3.8-.5.9s-.6 0-1-.3zm33.2.7h-4.5c-.2.1-.5 0-.5.5 1.6-.4 3.8.5 5-.5zm.7 0c-.2.1-.5 0-.5.4s.5.1.5-.4zm1.9.6c-1-1.3-.7 1.4 0 0zm-78-1c1.1.7.5-1.3 0 0zm51.3-1.3c.9.3 1.3 1.4 2.6.8a15.4 15.4 0 0 0-4.1-1.7 7.5 7.5 0 0 0-2.4-.3c-.8.1-1.3.5-1.3 1.2a16.8 16.8 0 0 1 2.9-.2 9 9 0 0 1 2.3.2z" fill="#ee8e0d"/><path d="M168.2 161.8h.9c.4.1.5-.4.3-.4a36.8 36.8 0 0 1-6.1-.2 10.4 10.4 0 0 0-5.4.7c.1 0 .3.3.1.4s-.1.5-.2 0a1.1 1.1 0 0 0-1.2-.2 15.1 15.1 0 0 1-2.7.4 8.3 8.3 0 0 1-2.8-.5c-1.9-.6-3.7-1.7-5.3-1.9l-1.7-.7-1.5-.4c-.8-.4-.9.7-.1.4l1.5.4a11.8 11.8 0 0 1 3.4 1.7 6.6 6.6 0 0 0 3.6 1.3c.4-.1.4 1 .9 1.2s1.1-.3 1.6-.2a12.9 12.9 0 0 0 3.6.5c.4 0 .7-.6 1.1-.6s3.5.7 4.5-.1-.4-.1-.5-.4-.2-.6 0 0h2.5c.3-.1.1-1.3.4-1.3s.2.8.5.9 1.5-.2 2.1-.4.2-.5.5-.6zm-11.3 1.6c-.2-.2.1-.6.1-.5s0 .6-.1.5zm2.3.1c-.2-1 .8-.3 1.1-.6h1.1c-.2 1-1.5.2-2.2.6zm-.8-.8c.6-1.1 2.4-.5 3.4-.8-.6 1.1-2.3.4-3.4.8zm5.1 0c0-.4.3-.4.4-.5s-.2.4-.4.5zm.7 0c-.1-.2.2-.6.2-.5s-.1.6-.2.5zm-96.5-1.4c.3 1.3.9-.6 0 0zm23.4-1.5c-.1-.1-.4.2-.3.4s.4-.2.3-.4zm2.3.8v-.4c-1.2-.6-1.4.4 0 .4zm44-1.1c1.1.9.7-1.2 0 0zm1.7-1.1c-.9.1-.9.5-.6.6s.6.2.6-.6z" fill="#ee8e0d"/><path d="M157.8 161.9c-.2 0-.2.2-.2.5h.2zm-66.6-.8c.3.1 2.6 1 2.2-.6.1.3-.8.3-1.5.3s-1.4.2-.7.3zm83.5 1.1c-1.2-.5-2.7.1-3.8.2s-2-.9-2.1.8c1.5.2 2-.6 3.2.2s.1-.8.3-.9.1.8.4.9 1.8-.5 3-.2-.6-.7-1-1zM87.8 161c.1.1.3-.2.2-.5s-.3.3-.2.5zm.9 0c.1.1.3-.2.2-.4s-.3.2-.2.4zm.7 0c.1.1.4-.2.2-.4s-.3.2-.2.4zm.7 0c.2-.1.4 0 .5-.4s-.5 0-.5.4zm22.6.2l2.4.2c.7-1-1.9 0-2-1s-.4.2-.4.8zm3.7-.2c.4-.2 0-.5 0 0zm22.8-1.2c.1-.4-.3-.5 0 0zm.4-.1c.1-.2.5-.2.7-.2s.5-.1.4-.6h-.7c-.2.3-.6.3-.4.8zm1.4-.3c.2-.1.4 0 .4-.5s-.4.1-.4.5zm26.5 2.8c-1.3 1 1.2 1.5 1.2 0-.7.1-.8.9-1.2 0zm-69.9.7c0 .1.4-.1.3-.4s-.4.2-.3.4zm2.8.7c0 .1.4-.1.3-.4s-.4.1-.3.4zm.4.1c0 .1.4-.1.3-.4s-.3.1-.3.4zm11.1-2.4c.2-.1.6 0 .6-.6s-.8 0-.6.6zm5.4-.3c-.9-.5-.2 1.3 0 0zm19.6 1.1c.1-.2.5-.3.2-.7s-.4.4-.2.7zm1.6-1.2c.1-.2.3-.3.1-.6s-.4.3-.1.6zm.7-1.1c-.1.4.3.5 0 0zm27.5 3.3c0-1-1-.2-1.4-.5s1 .3 1.4.5zm9.1.1c.1.7.3 0 0 0zm-82.5-.8c0 .1.4-.1.3-.4s-.4.1-.3.4zm13.1 5.4c.1.1.5-.3.3-.5s-.5.2-.3.5zm71.2.5c-.1-.1-.4.2-.3.4s.4-.2.3-.4zm-87.1-1c0 .1.3-.2.2-.4s-.3.2-.2.4z" fill="#ee8e0d"/></g><g><path d="M90 176c-.6-.5-2.7-.1-3.8-.2.4.7.7.1 1.7.4s1.5 0 2.1-.2zm55.8.5c.1.1.5-.1.3-.2s-.5.1-.3.2zm-75.7-.7h1.7c.2-.4-1.8-.4-1.7 0zm17.8.5v.2c.4-.1.2-.2 0-.2z" fill="none"/><path d="M88.6 176.3c1 .7 2.3-.3 3.8 0a2.8 2.8 0 0 0-2.4-.3c-.1.3-.9.2-1.4.3zm-16.7 0h8a29.1 29.1 0 0 0-8 0zm-1.8-.3c.2.3.4 0 0 0zm6.7-.6c.1.1.5-.1.3-.2s-.5 0-.3.2zm16.3.9c.4 0 1 0 1-.2s-.9-.1-1 .2zm-7.6-.3h-1.8c0 .3 1 1.1 1.4.4s-.6 0-.7-.2 2.2 0 1.1-.2zm-8-.2c.1.1.5-.1.3-.2s-.5.1-.3.2zm3.4-1.1h-.3a.2.2 0 0 0 .3 0zm.7 1.6c0-.5 1.5-.1 2.1-.2s-3.6-.3-2.1.2zm-4.1-.9c.1.1.5-.1.3-.2s-.5 0-.3.2zm3.4 1.3c.3 0 .7 0 .7-.2s-.6 0-.7.2zm2.1 0c.1.1.5-.1.3-.2s-.4.1-.3.2zm126.5.2c1.1-.1 3 .3 3.5-.2h-1.7c-.5.1-1.8-.3-1.8.2zm-1-.4c1.6-.1 4.2.3 5.2-.2-1.6.1-4.2-.3-5.2.2zm7.6.2c.3 0 .7 0 .7-.2s-.7 0-.7.2zm-10.1 0c.1.1.5-.1.3-.2s-.4.1-.3.2zm7.7.2c-.2-.3-.4 0 0 0zm3.5-.2c.1.1.5-.1.3-.2s-.5.1-.3.2zm-9.4-.7v.2c.4 0 .2-.2 0-.2zm0 .3h-.3a.2.2 0 0 0 .3 0z" fill="none"/><path d="M225.2 172.9c-.1-.1-.5.1-.3.2s.5-.1.3-.2zm-136.6.2c-.1-.1-.5.1-.3.2s.5 0 .3-.2zm87.1.7c-.1-.1-.5.1-.3.2s.5-.1.3-.2zm-108.7.7c-.1-.1-.5.1-.3.2s.5-.1.3-.2zm11.8 0c-.1-.1-.5.1-.3.2s.5-.1.3-.2z" fill="#ee8e0d"/><path d="M103.9 175.6c-2.9 0-5.6.4-8.4.2s-3.2-.6-5.2-.7-4 .1-5.6-.4-1.8.8-2.1.2 1 0 1-.2a11.9 11.9 0 0 0-2.8 0 .2.2 0 0 1-.3 0h.3v-.2c-1.8 0-1.9.1-.7.4h-3.3c-2.5.7-4.1.2-7 .4-.1.3.1.4.3.4s1.9-.4 1.7 0h-1.7v.2c.4 0 .2.3 0 0a1.9 1.9 0 0 0-1.4.4c1.7.3 2.5-.6 3.1-.2a29.1 29.1 0 0 1 8 0h-8a4.6 4.6 0 0 0 2.1.4c.3 0 .4-.3.7-.2s0 .2.3.2.4-.3.7-.2 0 .2.3.2.5-.1 1.7.2c3.3-.2 7.9.4 10.1-.4v-.2c-1-.3-1.3.3-1.7-.4 1.2.1 3.2-.3 3.8.2a2.8 2.8 0 0 1 2.4.2c-1.5-.3-2.9.7-3.8 0s1.3.1 1.4-.2-2-.3-2.1.2.4.2 0 .2c1.6.6 5.1-.1 6.3.2s.2-.4.7-.4a.9.9 0 0 0 .7.4c.2-.3.4-.5 1-.4a24.1 24.1 0 0 1 5.6 0c0-.5 1.8 0 1.9-.5zm-27.2-.2c-.2-.1.3-.3.3-.2s-.1.2-.2.2zm.7.4c-.2-.1.3-.3.3-.2s-.1.3-.2.2zm0-.4c-.2-.1.3-.3.3-.2s-.1.2-.2.2zm3.5 1.3c0-.2.4-.2.7-.2s-.4.1-.7.2zm2.1 0c-.2-.1.3-.3.3-.2s-.2.3-.3.2zm1.4-.4c.1.2.3.3.7.2s-1.4-.1-1.4-.4-2-.3-2.1.2 2.1-.7 2.1-.2h1.7c1.2.1-.5.2-1 .2zm8.7 0c.1-.3.6-.2 1-.2s-.6.1-1 .2zm42.5-1.4c-.1-.1-.5.1-.3.2s.5-.1.3-.2zm-4.5.7c3.3-.4-2-.4 0 0zm-23 .4c.8-.4 2.9 0 3.5-.4a8.2 8.2 0 0 0-2.4 0c-.4 0-4.4-.7-3.5 0s3.5-.3 2.4.4zm9.4-.2h8c-2.2-.3-6.5-.5-8 0zm-55 0c.1.1.5-.1.3-.2s-.5.1-.3.2zm1.4 0c.9 0 2.3-.1 1.4.4l2.1-.2c.3-.8-4.5-.4-3.5-.2zm4.1 0c.1.1.5-.1.3-.2s-.4.1-.3.2z" fill="#ee8e0d"/><path d="M69.4 175.6c-.1-.1-.5.1-.3.2s.5-.1.3-.2zm35.2 0c-.1-.1-.5.1-.3.2s.5-.1.3-.2zm11.5 0c-1.3.1-3.5-.3-4.2.2 1.3-.1 3.5.3 4.2-.2zm1.1 0c-.1-.1-.5.1-.3.2s.5-.1.3-.2z" fill="#ee8e0d"/><path d="M171.5 175.8c-9.4.4-23.8 0-34.5 0l-8.4-.2c-.2 0-.3.5-.7.4s-.2-.7-.7-.4a.2.2 0 0 1-.3 0c-.6 0-.7.3-1.4.2-3.8.3-10.9.3-15.7.4-.5 0-2.3-.3-2.1.4 8.6-.6 21.6-.5 30.3-.2 1.3-.4 1.8.1 3.5-.2 0 .3 1 1.1 1.4.4s-.7-.2-.7-.4 2.8-.3 3.1.2-1 0-1 .2 1.3.2 2.1.2-.7-.7.7-.7c4-.3 7.5.5 10.8-.2 4.8.2 8.6.2 13.6.2.3 0 .3-.2.7-.2s-.2-.1-.7-.1zm-25.8.7c-.2-.1.3-.3.3-.2s-.2.2-.2.2zm27.6-.9l-1 .4c.5.4 3 .3 3.5 0v-.2c-1.4.2-1.8.3-2.5-.2zm50.9 0h-6.6c-.3 0-.7 0-.7.2 2.3-.1 5.5.3 7.3-.2zm1 0c-.3 0-.7 0-.7.2s.7 0 .7-.2zm2.8.2c-1.7-.6-.8.7 0 0zm-121.3.2c1.8.2.4-.7 0 0zm79.8 0c1.3 0 2.6.4 3.8-.2H184c-2.3 0-4.5-.2-5.2.4a76.1 76.1 0 0 0 7.7-.2zm36.6.3h1.4c.6.1.7-.2.3-.2-7.4.3-10.9-.6-17.1 0 .2 0 .4.2 0 .2a.2.2 0 0 1-.3 0 3.9 3.9 0 0 0-1.7-.2c-5.2 0-12.7 0-17.4.4H183c-1.3-.2-1.3.4 0 .2h2.4c3.8-.1 8.3.3 11.5-.2.5-.1 1.1.4 1.7.4s1.4-.3 2.1-.2 3.2.4 4.9.4l1.7-.2c2.3 0 5.2.6 7 .2-.4 0-.6 0-.7-.2s-.2-.3 0 0h3.8c.5 0 .1-.7.7-.7a.9.9 0 0 0 .7.4c.4-.5 2.2-.1 3.1-.2s.8-.1 1.2-.1zm-17.1.4c-.2-.1.3-.3.3-.2s-.2.3-.3.2zm3.5.2c-.1-.5 1.2-.1 1.7-.2h1.8c-.5.5-2.4.1-3.5.2zm-1-.4c1.1-.5 3.6-.1 5.2-.2-1.1.5-3.6 0-5.2.2zm7.7.2c0-.2.4-.2.7-.2s-.5.1-.8.2zm1 0c-.2-.1.3-.3.3-.2s-.2.3-.3.2zM67.4 176c.1.7 1.4-.2 0 0zm35.8 0c-.1-.1-.5.1-.3.2s.5-.1.3-.2zm3.5.3v-.3c-2-.1-2 .4 0 .3z" fill="#ee8e0d"/><path d="M175.7 176c.4.7 1.8-.2 0 0zm2.8 0c-2.2-.3-.8.7 0 0zm29.3 0c-.3 0-.3.1-.3.2h.3zm-104.2.7c.5 0 4.2.3 3.1-.4s-5.3.3-3.1.4zm129.3-.4a38.8 38.8 0 0 0-5.6.2c-1 0-3-.4-3.1.4 2.2 0 2.9-.3 4.9 0-.1-.3.1-.4.3-.4s.3.4.7.4 2.6-.3 4.5-.2c-.3-.3-1.1-.3-1.7-.4zm-134.5.4c.1.1.5-.1.3-.2s-.5.1-.3.2zm1.4 0c.1.1.5-.1.3-.2s-.5.1-.3.2zm1 0c.1.1.5-.1.3-.2s-.5.1-.3.2zm1 0c.3 0 .7 0 .7-.2s-.6 0-.7.2zm35.6.2h3.8c.9-.5-2.9.1-3.1-.4s-.7.1-.7.4zm5.6-.2c.5-.1 0-.3 0 0zm34.8 0c.5-.1 0-.3 0 0zm.7 0c.6-.1 2 .3 2.1-.2h-1c-.5 0-1-.1-1.1.2zm2.4 0c.3 0 .7 0 .7-.2s-.6 0-.7.2zm41.2-.2c-2 .5 1.8.8 1.7 0s-1.1.4-1.7 0zm-108.4.4c.1.1.5-.1.3-.2s-.5.1-.3.2zm4.2 0c.1.1.5-.1.3-.2s-.5.1-.3.2zm.7 0c.1.1.5-.1.3-.2s-.5.1-.3.2zm17 0c.5 0 1.3.1 1.4-.2s-1.2-.1-1.4.2zm8.8-.2c-1.4-.2-.1.7 0 0zm28.5.2c.3 0 .7 0 .7-.2s-.7 0-.7.2zm2.8 0c.3 0 .7 0 .7-.2s-.7 0-.7.2zm2.1-.2c-.5.1 0 .3 0 0zm43.2.2c0-.5-1.5-.1-2.1-.2s1.5.1 2.1.2z" fill="#ee8e0d"/><path d="M234.6 176.7c.2.3.4 0 0 0zm-127.5.4c.1.1.5-.1.3-.2s-.5.1-.3.2zm19.1 1.6c.1.1.5-.1.3-.2s-.4.1-.3.2zm111.9.4c-.1-.1-.5.1-.3.2s.5 0 .3-.2zm-134.5.7c.1.1.5-.1.3-.2s-.5.1-.3.2z" fill="#ee8e0d"/></g><g><path d="M90 187.3c-.6-.5-2.7-.1-3.8-.2.4.7.7.1 1.7.4s1.5 0 2.1-.2zm55.8.5c.1.1.5-.1.3-.2s-.5.1-.3.2zm-75.7-.7h1.7c.2-.4-1.8-.4-1.7 0zm17.8.5v.2c.4-.1.2-.2 0-.2z" fill="none"/><path d="M88.6 187.6c1 .7 2.3-.3 3.8 0a2.8 2.8 0 0 0-2.4-.2c-.1.2-.9.1-1.4.2zm-16.7 0h8a29.1 29.1 0 0 0-8 0zm-1.8-.3c.2.3.4 0 0 0zm6.7-.6c.1.1.5-.1.3-.2s-.5 0-.3.2zm16.3.9c.4 0 1 0 1-.2s-.9-.1-1 .2zm-7.6-.3h-1.8c0 .3 1 1.1 1.4.4s-.6 0-.7-.2 2.2 0 1.1-.2zm-8-.2c.1.1.5-.1.3-.2s-.5.1-.3.2zm3.4-1.1h-.3a.2.2 0 0 0 .3 0zm.7 1.6c0-.5 1.5-.1 2.1-.2s-3.6-.3-2.1.2zm-4.1-.9c.1.1.5-.1.3-.2s-.5 0-.3.2zm3.4 1.3c.3 0 .7 0 .7-.2s-.6 0-.7.2zm2.1 0c.1.1.5-.1.3-.2s-.4.1-.3.2zm126.5.2c1.1-.1 3 .3 3.5-.2h-1.7c-.5.1-1.8-.3-1.8.2zm-1-.4c1.6-.1 4.2.3 5.2-.2-1.6.1-4.2-.3-5.2.2zm7.6.2c.3 0 .7 0 .7-.2s-.7 0-.7.2zm-10.1 0c.1.1.5-.1.3-.2s-.4.1-.3.2zm7.7.2c-.2-.3-.4 0 0 0zm3.5-.2c.1.1.5-.1.3-.2s-.5.1-.3.2zm-9.4-.7v.2c.4 0 .2-.2 0-.2zm0 .3h-.3a.2.2 0 0 0 .3 0z" fill="none"/><path d="M225.2 184.2c-.1-.1-.5.1-.3.2s.5-.1.3-.2zm-136.6.2c-.1-.1-.5.1-.3.2s.5 0 .3-.2zm87.1.7c-.1-.1-.5.1-.3.2s.5-.1.3-.2zm-108.7.7c-.1-.1-.5.1-.3.2s.5-.1.3-.2zm11.8 0c-.1-.1-.5.1-.3.2s.5-.1.3-.2z" fill="#ee8e0d"/><path d="M103.9 186.9c-2.9 0-5.6.4-8.4.2s-3.2-.6-5.2-.7-4 .1-5.6-.4-1.8.8-2.1.2 1 0 1-.2a11.9 11.9 0 0 0-2.8 0 .2.2 0 0 1-.3 0h.3v-.2c-1.8 0-1.9.1-.7.4h-3.3c-2.5.7-4.1.2-7 .4-.1.3.1.4.3.4s1.9-.4 1.7 0h-1.7v.2c.4 0 .2.3 0 0a1.9 1.9 0 0 0-1.4.4c1.7.3 2.5-.6 3.1-.2a29.1 29.1 0 0 1 8 0h-8a4.6 4.6 0 0 0 2.1.4c.3 0 .4-.3.7-.2s0 .2.3.2.4-.3.7-.2 0 .2.3.2.5-.1 1.7.2c3.3-.2 7.9.4 10.1-.4v-.2c-1-.3-1.3.3-1.7-.4 1.2.1 3.2-.3 3.8.2a2.8 2.8 0 0 1 2.4.2c-1.5-.3-2.9.7-3.8 0s1.3.1 1.4-.2-2-.3-2.1.2.4.2 0 .2c1.6.6 5.1-.1 6.3.2s.2-.4.7-.4a.9.9 0 0 0 .7.4c.2-.3.4-.5 1-.4a24.1 24.1 0 0 1 5.6 0c0-.5 1.8 0 1.9-.5zm-27.2-.2c-.2-.1.3-.3.3-.2s-.1.2-.2.2zm.7.4c-.2-.1.3-.3.3-.2s-.1.3-.2.2zm0-.4c-.2-.1.3-.3.3-.2s-.1.2-.2.2zm3.5 1.3c0-.2.4-.2.7-.2s-.4.1-.7.2zm2.1 0c-.2-.1.3-.3.3-.2s-.2.3-.3.2zm1.4-.4c.1.2.3.3.7.2s-1.4-.1-1.4-.4-2-.3-2.1.2 2.1-.7 2.1-.2h1.7c1.2.1-.5.2-1 .2zm8.7 0c.1-.3.6-.2 1-.2s-.6.1-1 .2zm42.5-1.4c-.1-.1-.5.1-.3.2s.5-.1.3-.2zm-4.5.7c3.3-.4-2-.4 0 0zm-23 .4c.8-.4 2.9 0 3.5-.4a8.2 8.2 0 0 0-2.4 0c-.4 0-4.4-.7-3.5 0s3.5-.3 2.4.4zm9.4-.2h8c-2.2-.3-6.5-.5-8 0zm-55 0c.1.1.5-.1.3-.2s-.5.1-.3.2zm1.4 0c.9 0 2.3-.1 1.4.4l2.1-.2c.3-.8-4.5-.4-3.5-.2zm4.1 0c.1.1.5-.1.3-.2s-.4.1-.3.2z" fill="#ee8e0d"/><path d="M69.4 186.9c-.1-.1-.5.1-.3.2s.5-.1.3-.2zm35.2 0c-.1-.1-.5.1-.3.2s.5-.1.3-.2zm11.5 0c-1.3.1-3.5-.3-4.2.2 1.3-.1 3.5.3 4.2-.2zm1.1 0c-.1-.1-.5.1-.3.2s.5-.1.3-.2z" fill="#ee8e0d"/><path d="M171.5 187.1c-9.4.4-23.8 0-34.5 0l-8.4-.2c-.2 0-.3.5-.7.4s-.2-.7-.7-.4a.2.2 0 0 1-.3 0c-.6 0-.7.3-1.4.2-3.8.3-10.9.3-15.7.4-.5 0-2.3-.3-2.1.4 8.6-.6 21.6-.5 30.3-.2 1.3-.4 1.8.1 3.5-.2 0 .3 1 1.1 1.4.4s-.7-.2-.7-.4 2.8-.3 3.1.2-1 0-1 .2 1.3.2 2.1.2-.7-.7.7-.7c4-.3 7.5.5 10.8-.2 4.8.2 8.6.2 13.6.2.3 0 .3-.2.7-.2s-.2-.1-.7-.1zm-25.8.7c-.2-.1.3-.3.3-.2s-.2.2-.2.2zm27.6-.9l-1 .4c.5.4 3 .3 3.5 0v-.2c-1.4.2-1.8.3-2.5-.2zm50.9 0h-6.6c-.3 0-.7 0-.7.2 2.3-.1 5.5.3 7.3-.2zm1 0c-.3 0-.7 0-.7.2s.7 0 .7-.2zm2.8.2c-1.7-.6-.8.7 0 0zm-121.3.2c1.8.2.4-.7 0 0zm79.8 0c1.3 0 2.6.4 3.8-.2H184c-2.3 0-4.5-.2-5.2.4a76.1 76.1 0 0 0 7.7-.2zm36.6.3h1.4c.6.1.7-.2.3-.2-7.4.3-10.9-.6-17.1 0 .2 0 .4.2 0 .2a.2.2 0 0 1-.3 0 3.9 3.9 0 0 0-1.7-.2c-5.2 0-12.7 0-17.4.4H183c-1.3-.2-1.3.4 0 .2h2.4c3.8-.1 8.3.3 11.5-.2.5-.1 1.1.4 1.7.4s1.4-.3 2.1-.2 3.2.4 4.9.4l1.7-.2c2.3 0 5.2.6 7 .2-.4 0-.6 0-.7-.2s-.2-.3 0 0h3.8c.5 0 .1-.7.7-.7a.9.9 0 0 0 .7.4c.4-.5 2.2-.1 3.1-.2s.8-.1 1.2-.1zm-17.1.4c-.2-.1.3-.3.3-.2s-.2.3-.3.2zm3.5.2c-.1-.5 1.2-.1 1.7-.2h1.8c-.5.5-2.4.1-3.5.2zm-1-.4c1.1-.5 3.6-.1 5.2-.2-1.1.5-3.6 0-5.2.2zm7.7.2c0-.2.4-.2.7-.2s-.5.1-.8.2zm1 0c-.2-.1.3-.3.3-.2s-.2.3-.3.2zm-149.8-.7c.1.7 1.4-.2 0 0zm35.8 0c-.1-.1-.5.1-.3.2s.5-.1.3-.2zm3.5.3v-.2c-2-.2-2 .3 0 .2z" fill="#ee8e0d"/><path d="M175.7 187.3c.4.7 1.8-.2 0 0zm2.8 0c-2.2-.3-.8.7 0 0zm29.3 0c-.3 0-.3.1-.3.2h.3zm-104.2.7c.5 0 4.2.3 3.1-.4s-5.3.3-3.1.4zm129.3-.4a38.8 38.8 0 0 0-5.6.2c-1 0-3-.4-3.1.4 2.2 0 2.9-.3 4.9 0-.1-.3.1-.4.3-.4s.3.4.7.4 2.6-.3 4.5-.2c-.3-.3-1.1-.3-1.7-.4zm-134.5.4c.1.1.5-.1.3-.2s-.5.1-.3.2zm1.4 0c.1.1.5-.1.3-.2s-.5.1-.3.2zm1 0c.1.1.5-.1.3-.2s-.5.1-.3.2zm1 0c.3 0 .7 0 .7-.2s-.6 0-.7.2zm35.6.2h3.8c.9-.5-2.9.1-3.1-.4s-.7.1-.7.4zm5.6-.2c.5-.1 0-.3 0 0zm34.8 0c.5-.1 0-.3 0 0zm.7 0c.6-.1 2 .3 2.1-.2h-1c-.5 0-1-.1-1.1.2zm2.4 0c.3 0 .7 0 .7-.2s-.6 0-.7.2zm41.2-.2c-2 .5 1.8.8 1.7 0s-1.1.4-1.7 0zm-108.4.4c.1.1.5-.1.3-.2s-.5.1-.3.2zm4.2 0c.1.1.5-.1.3-.2s-.5.1-.3.2zm.7 0c.1.1.5-.1.3-.2s-.5.1-.3.2zm17 0c.5 0 1.3.1 1.4-.2s-1.2-.1-1.4.2zm8.8-.2c-1.4-.2-.1.7 0 0zm28.5.2c.3 0 .7 0 .7-.2s-.7 0-.7.2zm2.8 0c.3 0 .7 0 .7-.2s-.7 0-.7.2zm2.1-.2c-.5.1 0 .3 0 0zm43.2.2c0-.5-1.5-.1-2.1-.2s1.5.1 2.1.2z" fill="#ee8e0d"/><path d="M234.6 188c.2.3.4 0 0 0zm-127.5.4c.1.1.5-.1.3-.2s-.5.1-.3.2zm19.1 1.6c.1.1.5-.1.3-.2s-.4.1-.3.2zm111.9.4c-.1-.1-.5.1-.3.2s.5 0 .3-.2zm-134.5.7c.1.1.5-.1.3-.2s-.5.1-.3.2z" fill="#ee8e0d"/></g><g><path d="M83.8 198.6c-.5-.5-2.1-.1-3-.2s.6.1 1.4.4 1.1 0 1.6-.2zm43.2.5c.1.1.4-.1.3-.2s-.4.1-.3.2zm-58.6-.7h1.4c.1-.4-1.5-.4-1.4 0zm13.8.5v.2c.3-.1.1-.2 0-.2z" fill="none"/><path d="M82.7 198.9c.7.7 1.8-.3 3 0a1.7 1.7 0 0 0-1.9-.2c-.1.2-.7.1-1.1.2zm-12.9 0H76a17.5 17.5 0 0 0-6.2 0zm-1.4-.3c.2.3.3 0 0 0zm5.1-.6c.1.1.4-.1.3-.2s-.4 0-.3.2zm12.7.9c.3 0 .8 0 .8-.2s-.7-.1-.8.2zm-5.9-.3h-1.4c0 .3.8 1.1 1.1.4s-.5 0-.5-.2 1.6 0 .8-.2zm-6.2-.2c.1.1.4-.1.3-.2s-.5.1-.3.2zm2.7-1.1h-.3c.1.2.3.1.3 0zm.5 1.6c0-.5 1.1-.1 1.6-.2s-2.8-.3-1.6.2zm-3.2-.9c.1.1.4-.1.3-.2s-.5 0-.3.2zm2.7 1.3c.2 0 .5 0 .5-.2s-.5 0-.5.2zm1.6 0c.1.1.4-.1.3-.2s-.4.1-.3.2zm98 .2c.8-.1 2.3.3 2.7-.2h-1.3c-.4.1-1.4-.3-1.4.2zm-.8-.4c1.3-.1 3.2.3 4.1-.2-1.3.1-3.3-.3-4.1.2zm5.9.2c.2 0 .5 0 .5-.2s-.4 0-.5.2zm-7.8 0c.1.1.4-.1.3-.2s-.4.1-.3.2zm6 .2c-.2-.3-.3 0 0 0zm2.7-.2c.1.1.4-.1.3-.2s-.5.1-.3.2zm-7.3-.7v.2c.3 0 .1-.2 0-.2zm0 .3h-.3c0 .2.3.1.3 0z" fill="none"/><path d="M188.6 195.5c-.1-.1-.4.1-.3.2s.4-.1.3-.2zm-105.9.2c-.1-.1-.4.1-.3.2s.5-.1.3-.2zm67.5.7c-.1-.1-.4.1-.3.2s.5-.1.3-.2zm-84.2.7c-.1-.1-.4.1-.3.2s.4-.1.3-.2zm9.2 0c-.1-.1-.4.1-.3.2s.4-.1.3-.2z" fill="#ee8e0d"/><path d="M94.6 198.2c-2.2 0-4.3.4-6.5.2s-2.5-.6-4.1-.7-3.1.1-4.3-.4-1.4.8-1.6.2.8 0 .8-.2a7.1 7.1 0 0 0-2.2 0c0 .1-.2.3-.3 0h.3v-.2c-1.4 0-1.5.1-.5.4h-2.7c-1.9.7-3.2.2-5.4.4a.3.3 0 0 0 .3.4c-.1-.4 1.5-.4 1.4 0h-1.4v.2c.3 0 .2.3 0 0a1.3 1.3 0 0 0-1.1.4c1.3.3 1.9-.6 2.4-.2a17.5 17.5 0 0 1 6.2 0h-6.1c.3.4 1.4.5 1.6.4s.3-.3.5-.2 0 .2.3.2.3-.3.5-.2 0 .2.3.2.4-.1 1.3.2c2.6-.2 6.1.4 7.8-.4v-.2c-.8-.3-1 .3-1.4-.4s2.5-.3 3 .2a1.7 1.7 0 0 1 1.9.2c-1.2-.3-2.2.7-3 0s1 .1 1.1-.2-1.6-.3-1.6.2.3.2 0 .2c1.2.6 4-.1 4.9.2s.2-.4.5-.4a.7.7 0 0 0 .5.4.8.8 0 0 1 .8-.4 14.5 14.5 0 0 1 4.3 0c0-.5 1.4 0 1.5-.5zm-21.1-.2c-.1-.1.2-.3.3-.2s-.2.2-.3.2zm.5.4c-.1-.1.2-.3.3-.2s-.2.3-.2.2zm0-.4c-.1-.1.2-.3.3-.2s-.2.2-.2.2zm2.7 1.3c0-.2.3-.2.5-.2s-.2.1-.4.2zm1.6 0c-.1-.1.2-.3.3-.2s-.1.3-.2.2zm1.1-.4c.1.2.2.3.5.2s-1.1-.1-1.1-.4-1.6-.3-1.6.2 1.6-.7 1.6-.2h1.4c.9.1-.4.2-.7.2zm6.8 0c0-.3.5-.2.8-.2s-.5.1-.8.2zm33-1.4c-.1-.1-.4.1-.3.2s.4-.1.3-.2zm-3.5.7c2.5-.4-1.6-.4 0 0zm-17.9.4c.6-.4 2.2 0 2.7-.4a4.9 4.9 0 0 0-1.9 0c-.3 0-3.4-.7-2.7 0s2.8-.3 1.9.4zm7.3-.2h6.2c-1.7-.3-5-.5-6.2 0zm-42.6 0c.1.1.4-.1.3-.2s-.5.1-.3.2zm1 0c.7 0 1.8-.1 1.1.4l1.6-.2c.3-.8-3.4-.4-2.7-.2zm3.3 0c.1.1.4-.1.3-.2s-.5.1-.3.2z" fill="#ee8e0d"/><path d="M67.9 198.2c-.1-.1-.4.1-.3.2s.4-.1.3-.2zm27.2 0c-.1-.1-.4.1-.3.2s.5-.1.3-.2zm8.9 0c-1 .1-2.7-.3-3.2.2 1-.1 2.7.3 3.2-.2zm.9 0c-.1-.1-.4.1-.3.2s.4-.1.3-.2z" fill="#ee8e0d"/><path d="M147 198.4c-7.3.4-18.5 0-26.7 0l-6.5-.2c-.1 0-.2.5-.5.4s-.1-.7-.5-.4-.3.1-.3 0-.6.3-1.1.2c-2.9.3-8.5.3-12.2.4-.4 0-1.8-.3-1.6.4a209.3 209.3 0 0 1 23.5-.2c1-.4 1.4.1 2.7-.2s.8 1.1 1.1.4-.5-.2-.5-.4 2.1-.3 2.4.2-.8 0-.8.2 1 .2 1.6.2-.5-.7.5-.7c3.1-.3 5.8.5 8.4-.2s6.7.2 10.5.2c.2 0 .3-.2.5-.2s-.2-.1-.5-.1zm-20 .7c-.1-.1.2-.3.3-.2s-.2.2-.3.2zm21.3-.9l-.8.4c.4.4 2.3.3 2.7 0v-.2c-1 .2-1.3.3-1.9-.2zm39.5 0h-5.1c-.2 0-.5 0-.5.2 1.7-.1 4.2.3 5.6-.2zm.8 0c-.2 0-.5 0-.5.2s.5 0 .5-.2zm2.1.2c-1.3-.6-.7.7 0 0zm-93.9.2c1.4.2.3-.7 0 0zm61.8 0c1 0 2 .4 3-.2h-4.9c-1.7 0-3.5-.2-4 .4a45.8 45.8 0 0 0 5.9-.2zm28.3.3h1.1c.5.1.6-.2.3-.2-5.7.3-8.5-.6-13.2 0 .2 0 .3.2 0 .2s-.2.3-.3 0a2.4 2.4 0 0 0-1.4-.2c-4.1 0-9.9 0-13.5.4h-4.1c-1-.2-1 .4 0 .2h1.9c2.9-.1 6.4.3 8.9-.2.4-.1.8.4 1.4.4s1.1-.3 1.6-.2 2.5.4 3.8.4l1.4-.2c1.8 0 4 .6 5.4.2-.3 0-.5 0-.5-.2s-.2-.3 0 0h3c.4 0 .1-.7.5-.7a.7.7 0 0 0 .5.4c.3-.5 1.7-.1 2.4-.2s.5-.1.8-.1zm-13.2.4c-.1-.1.2-.3.3-.2s-.2.3-.3.2zm2.7.2c0-.5 1-.1 1.4-.2h1.3c-.4.5-1.9.1-2.7.2zm-.8-.4c.8-.5 2.8-.1 4.1-.2-.9.5-2.8 0-4.1.2zm5.9.2c0-.2.3-.2.5-.2s-.2.1-.5.2zm.8 0c-.1-.1.2-.3.3-.2s-.2.3-.2.2zm-116.1-.7c.1.7 1.1-.2 0 0zm27.9 0c-.1-.1-.4.1-.3.2s.4-.1.3-.2zm2.7.3v-.2c-1.6-.2-1.6.3 0 .2zm53.4-.3c.3.7 1.4-.2 0 0zm2.2 0c-1.7-.3-.6.7 0 0z" fill="#ee8e0d"/><path d="M175.1 198.6c-.2 0-.3.1-.3.2h.3zm-80.8.7c.4 0 3.2.3 2.4-.4s-4.1.3-2.4.4zm100.2-.4a23.4 23.4 0 0 0-4.3.2c-.7 0-2.3-.4-2.4.4 1.7 0 2.3-.3 3.8 0a.3.3 0 0 1 .3-.4c-.1.4.2.4.5.4s2-.3 3.5-.2c-.3-.3-.9-.3-1.4-.4zm-104.2.4c.1.1.4-.1.3-.2s-.5.1-.3.2zm1.1 0c.1.1.4-.1.3-.2s-.5.1-.3.2zm.8 0c.1.1.4-.1.3-.2s-.5.1-.3.2zm.8 0c.2 0 .5 0 .5-.2s-.5 0-.5.2zm27.5.2h3c.7-.5-2.2.1-2.4-.4s-.6.1-.6.4zm4.3-.2c.4-.1 0-.3 0 0zm27 0c.4-.1 0-.3 0 0zm.6 0c.5-.1 1.6.3 1.6-.2h-.8c-.3 0-.8-.1-.8.2zm1.9 0c.2 0 .5 0 .5-.2s-.5 0-.5.2zm31.8-.2c-1.6.5 1.4.8 1.4 0s-.9.4-1.4 0zm-83.9.4c.1.1.4-.1.3-.2s-.5.1-.3.2zm3.2 0c.1.1.4-.1.3-.2s-.4.1-.3.2zm.5 0c.1.1.4-.1.3-.2s-.4.1-.3.2zm13.3 0c.4 0 1 .1 1.1-.2s-1-.1-1.1.2zm6.7-.2c-1.1-.2-.1.7 0 0zm22.2.2c.2 0 .5 0 .5-.2s-.5 0-.5.2zm2.1 0c.2 0 .5 0 .5-.2s-.5 0-.5.2zm1.6-.2c-.4.1 0 .3 0 0zm33.5.2c0-.5-1.1-.1-1.6-.2s1.1.1 1.6.2zm10.6-.2c.2.3.3 0 0 0zm-98.9.4c.1.1.4-.1.3-.2s-.4.1-.3.2zm14.9 1.6c.1.1.4-.1.3-.2s-.5.1-.3.2zm86.7.4c-.1-.1-.4.1-.3.2s.4 0 .3-.2zm-104.3.7c.1.1.4-.1.3-.2s-.4.1-.3.2z" fill="#ee8e0d"/></g></svg>