<svg data-name="Layer 1" xmlns="http://www.w3.org/2000/svg" width="300" height="300"><path fill="#cdc5e1" d="M0 0h300v300H0z"/><path fill="#f2f0f7" d="M51.1 61.6h196.3v193.16H51.1z"/><path d="M125.3 255.1c2.8.5 11.8.1 17.1.2-2.2-.7-3.2-.1-7.9-.4 0 .4-6.5.1-9.2.2zm-74-173.4c.1-.4-.1-2.3-.2-1.5s0 2.3.2 1.5zm162.3 173.5h-7.7c-.5.3 8.6.3 7.7 0z" fill="none"/><path d="M134.5 254.9v-.2c-1.8 0-.8.2 0 .2zm-3.1 0c-4.4-.6-10.1.3-17 0a54 54 0 0 0 10.9.2c.4-.3 3.8-.2 6.1-.2zm74.2 0h-35.5c8.4.3 27.5.3 35.5 0zm7.9.1c-1.1-.3-1.9 0 0 0zm-29.1.6c-.5-.1-2.3.1-1.4.2s2.3-.1 1.4-.2zm-73.1-.7c-1.8 0-4.4 0-4.6.2 1.9 0 4.5 0 4.6-.2zm34.1.2h7.7c-.1-.3-4.7-1-6.4-.4a10.8 10.8 0 0 1 3.2.2c-1.8-.1-9.5 0-4.5.2zm35.7.2c-.5-.1-2.3.1-1.4.2s2.3-.1 1.4-.2zm-15 1h1.6a2.3 2.3 0 0 0-1.6 0zm-3.8-1.4c0 .4-6.5.1-9.2.2.3.4 16.2.2 9.2-.2zm19 .7c-.5-.1-2.3.1-1.4.2s2.3-.1 1.4-.2zm-16.1-1.1c-1.2 0-3 0-3 .2s3.1 0 3-.2zm-9.2 0c-.5-.1-2.3.1-1.5.2s2.3-.1 1.5-.2zm90.9-126.7c.1 4.7-.3 13.2.2 15.5v-7.7c-.1-2.3.3-8-.2-7.8zm.4-4.6c.1 7.3-.3 18.4.2 23.2-.1-7.2.3-18.3-.2-23.2zm-.2 33.9a14.1 14.1 0 0 0 .2 3.2 14 14 0 0 0-.2-3.2zm0-44.7c-.1.4.1 2.4.2 1.6s-.1-2.4-.2-1.6zm-.2 33.9c.3-.8 0-1.9 0 0zm.2 15.5c-.1.4.1 2.4.2 1.6s-.1-2.4-.2-1.6zm.7-41.5h-.2c0 1.7.2.8.2 0zm-.2-.1v-1.5a2.2 2.2 0 0 0 0 1.5z" fill="none"/><path d="M250.4 199.3c.1-.4-.1-2.4-.2-1.7s.1 2.4.2 1.7zm-118 58.5c.5.1 2.3-.1 1.5-.2s-2.3.1-1.5.2zM163.9 59c-.4-.1-2.3.1-1.5.2s2.3 0 1.5-.2zm64.5 197.2c.5 0 2.3-.1 1.4-.2s-2.3.1-1.4.2zm-52.8.2c.5.1 2.3-.1 1.4-.2s-2.3.1-1.4.2z" fill="#4e426c"/><path d="M63.5 255.5c12.8 0 24.8-.4 37.1-.2 6.2.1 14.2.5 23.4.6s17.9-.1 25 .4c.4-.3 7.6-.7 9.2-.2-2.2 0-4.4 0-4.6.2 6.4.2 5.4 0 12.4 0a2.3 2.3 0 0 1 1.6 0H166v.2c7.9 0 8.6-.1 2.9-.4h15.5c10.7-.6 18.2-.2 30.8-.5.1-.2-.6-.3-1.8-.3.9.3-8.2.3-7.7 0h7.7v-.3c-1.9 0-1.1-.3 0 0a33.6 33.6 0 0 0 5.9-.4c-7.8-.3-10.8.4-13.8.2-8.1.3-27.1.3-35.5 0h35.5c-2.1-.3-8.4-.4-9.5-.4s-1.5.2-3 .2a5.5 5.5 0 0 0-1.7-.2c-1.2 0-1.5.2-3 .2a4.7 4.7 0 0 0-1.7-.2 53.8 53.8 0 0 1-7.8-.2c-14.6.2-35-.4-44.6.4v.2c4.6.3 5.6-.2 7.9.4-5.3-.1-14.3.3-17.1-.2a54 54 0 0 1-10.9-.2c6.9.3 12.6-.6 17 0-2.3 0-5.7-.1-6.1.2 2.7-.1 9.2.3 9.2-.2s-1.8-.2-.1-.2c-7.1-.6-22.6.1-27.8-.2-1.7.1-1 .4-3 .4a11.4 11.4 0 0 0-3.2-.4 13.2 13.2 0 0 1-4.6.4c-10.5.1-13.4.3-24.7 0 1.2.8-6.7.2-7.3.7zm121 .1c.9.1-1 .2-1.4.2s.9-.2 1.3-.2zm-3.3-.4c.9.1-1 .2-1.4.2s.9-.2 1.3-.1zm.2.4c.9.1-1 .2-1.4.2s.9-.2 1.3-.2zm-16.1-1.2c.1.2-1.8.2-3 .2s1.8-.1 2.9-.1zm-9.3 0c.8.1-1 .3-1.5.2s1-.2 1.5-.1zm-6 .4a10.8 10.8 0 0 0-3.2-.2c1.6-.6 6.2.1 6.4.4 2.7-.1 9.2.2 9.2-.2 6.9.4-8.9.7-9.2.2h-7.7c-5.1-.1 2.6-.2 4.5-.1zm-38.6 0c-.2.3-2.8.2-4.6.2.2-.2 2.7-.1 4.5-.1zM49.7 126.5c-.1.4.1 2.3.2 1.5s-.1-2.3-.2-1.5zm.7 20.1c-.4-14.6-.4 9 0 0zm.4 101.9c-.4-3.4 0-12.6-.4-15.4-.2 3.4 0 10.2 0 10.8s-.2 6.6-.3 10.9v1h1.1c3.7.1 6.4.1 4.6-.3h-5.4v-.8c-.1-4.6-.1-9.8.4-6.2zm-.2-41.7v-35.5c-.3 10.1-.5 29.1 0 35.5zm197.1 48.4c-.5 0-2.3.1-1.4.2s2.2-.2 1.4-.2zm-6.2 0c-4.1 0-10.2.1-6.5-.3l-9.1.2c-1.1.6 19.9.2 15.6.1zm-18.6 0c-.5 0-2.3.1-1.4.2s2.3-.1 1.4-.2zm-6.1.2c.5 0 2.3-.1 1.4-.2s-2.2.1-1.4.2zm-156.4.1c.4.1 2.3-.1 1.5-.2s-2.3.1-1.5.2zm-10-42.5c.1 5.7-.3 15.4.2 18.5-.2-5.7.3-15.4-.2-18.5zm0-4.6c-.1.4.1 2.3.2 1.5s-.1-2.3-.2-1.5z" fill="#4e426c"/><path d="M145.4 61.1c-25.9.3-60.5.2-94.2.1h-.4v59.1c0 13.7-.2 25.4-.2 37.1 0 .7.5 1.2.4 3.1 0 0-.7.8-.4 3.1a2.1 2.1 0 0 1 0 1.5c0 2.8.3 3.3.2 6.2.3 16.7.3 48.5.4 69.5 0 2.4-.3 10 .4 9.3-.6-38-.5-96-.2-134.4-.4-5.7.1-8.1-.2-15.4.3 0 1.1-4.3.4-6.2.1 2.6-.2 2.9-.4 3.1.1-4.2-.3-12.3.2-13.9 0 2.2 0 4.4.2 4.6-.2-4.7.2-5.6.2-9.3s-.7 3-.7-3.1-.1-9.4-.1-13.9v-.2h.2c12.2.1 23.3.4 34-.2 21.3.2 38.3.2 60.2.2 1.2 0 1.5-.2 3.1-.2s-1.2-.2-3.1-.1zM51.3 81.7c-.1.8-.3-1.1-.2-1.5s.2 1.1.2 1.5zm101.8-20.9l-4.6.4c2.1.4 13.1.3 15.4 0V61c-6 .2-7.8.4-10.8-.2zm95 132.4v-29.4a14.3 14.3 0 0 0-.2-3.2c.2 10.4-.2 24.6.2 32.6zm0 4.6a15.9 15.9 0 0 0-.2-3.2 15.9 15.9 0 0 0 .2 3.2zm-.2 12.3c.5-7-.6-4.2 0 0zM50.8 254.7c.2-8.2-.7-1.8 0 0zm161-193.4c5.8 0 11.5.4 17-.2H201c-10 0-20.1-.2-23.2.4 14 .2 24.7-.2 34-.2zm35.7 126.9v6.2c-.1 2.7.2 3.3.2 1.7-.1-16.5 0-28.5.1-40s.2-22.2-.1-35.8c0 .9-.2 1.7-.2-.1a2.2 2.2 0 0 1 0-1.5 75.1 75.1 0 0 0 .2-7.7V61.4h-.2l-27.9.3h-23.3c-5.6-.2-5.6.4 0 .2h10.8c12.8-.1 27.7.1 40.3 0l-.3-.3c0 3.8.1 7.4.2 10.7s-.4 4.7-.4 7.7.3 6.2.2 9.3c-.1 6.8-.4 14.1-.4 21.5 0 2.4.2 5.3.2 7.8 0 10.4-.5 22.9-.2 30.7a8.6 8.6 0 0 1 .2-3c0-1.9.3-.8 0 0v17c0 2.2.6.8.6 3.4a9.1 9.1 0 0 0-.4 2.9c.5 1.9.1 9.7.2 14 .3.2.2 2.8.2 4.6zm-.4-75.8c.1-.8.3 1.2.2 1.6s-.2-1.2-.2-1.6zm-.2 15.4c.5-.1.1 5.5.2 7.8v7.7c-.4-2.3-.1-10.8-.2-15.5zm.4-4.5c.5 4.8.1 16 .2 23.2-.4-4.9 0-16-.2-23.3zm-.2 33.9a14 14 0 0 1 .2 3.2 14.1 14.1 0 0 1-.2-3.3zm0 4.6c.1-.8.3 1.2.2 1.6s-.2-1.2-.2-1.6zM225.8 255c-.7-.5-6.3.2 0 0zm-159.3.1c.4.1 2.3-.1 1.5-.2s-2.3.1-1.5.2zm-15.5-.4h-.2v.3h.3c8.7.2 8.7-.4 0-.2H51zM163.9 61.3c1.8.7 8.2-.2 0 0zm12.4 0c-9.9-.3-3.4.7 0 0z" fill="#4e426c"/><path d="M247.8 120.3c0-1.3-.1-1.5-.2-1.6v1.5zM65 254.4c-1.7 0-10.9-.2-13.8 0l.3.3c-.1-1.1-.2-1.3-.4-.1s0-.1.1.1h.1c1.9-.1 22.5-.2 13.7-.3zm182.5-22.9c.2-8.4-.1-17.9-.2-24.9 0-4.3.3-13.2-.4-14.1 0 9.9.3 13.2 0 21.6.2-.1.3.6.4 1.8-.3-.8-.3 1-.4 2.8-.1 4.7.3 11.8.2 20.2.3-1.1.3-4.8.4-7.4zM88.1 254.4c-.4-.1-2.3.1-1.5.2s2.3 0 1.5-.2zm-6.2 0c-.4-.1-2.3.1-1.5.2s2.3 0 1.5-.2zm-4.6 0c-.4-.1-2.3.1-1.5.2s2.3 0 1.5-.2zm-4.6 0c-1.2 0-3.1 0-3.1.2s3 .1 3.1-.2zm-21-135.6v-17c-.5-3.9.1 12.7-.4 13.9s.1 3 .4 3.1zM51.5 94c-.1-2.2-.3.2 0 0zm121.7-32.1c2.2-.1-.2-.3 0 0zm3.1 0c2.7-.1 9.1.3 9.3-.2H181c-1.9.1-4.5 0-4.7.2zm10.8 0c1.2 0 3.1 0 3.1-.2s-3.1 0-3.1.2zm60.3 121.6c-.5-9.1-.6 7.7 0 7.7-.1-3.9-.4-5 0-7.7zM51.7 223.8c.1-.4-.1-2.3-.2-1.5s.1 2.3.2 1.5zm0-18.5c.1-.4-.1-2.3-.2-1.5s.1 2.3.2 1.5zm0-3.1c.1-.4-.1-2.3-.2-1.5s.1 2.3.2 1.5zm0-75.7c0-2.3.1-5.7-.2-6.2 0 2.3-.1 5.7.2 6.2zm-.2-38.6c-.2 6.4.7.3 0 0zm100.1-25.7c1.2 0 3 0 3.1-.2s-3.1-.1-3.1.2zm12.3 0c1.2 0 3.1 0 3.1-.2s-3-.1-3.1.2zm9.3-.3c-2.2.1.2.3 0 0zM247 178.6c.4 0 .1-6.5.2-9.2-.5.1-.1 6.6-.2 9.2zm.2 60.3c-.2.7 0 1.9 0 0z" fill="#4e426c"/><path d="M51.9 253.2c.1-.4-.1-2.3-.2-1.5s.1 2.3.2 1.5zm1.6-85c.1-.4-.1-2.3-.2-1.5s.1 2.3.2 1.5zm192 84.4c0-.4-.1-2.4-.2-1.7s.1 2.4.2 1.7zm-180.7-1.3c-.4-.1-2.3.1-1.5.2s2.3-.1 1.5-.2z" fill="#4e426c"/><path fill="#f2f0f7" d="M71.6 120.7h156.3v111.65H71.6z"/><path d="M143.9 232.7c2 .5 8.2.1 11.8.2-1.7-.6-2.2-.1-5.5-.4.1.4-4.4 0-6.3.2zm-72.2-98.2c.1-.3-.1-1.6-.2-1.1s.1 1.7.2 1.1zm133 98.3h-5.3c-.2.3 6 .3 5.3 0z" fill="none"/><path d="M150.2 232.5v-.2c-1.2 0-.6.2 0 .2zm-2.1 0c-3.1-.6-6.9.3-11.7 0a26.6 26.6 0 0 0 7.5.2c.3-.3 2.6-.2 4.2-.2zm51-.1h-24.4c5.9.4 19 .3 24.4 0zm5.5.2c-.9-.3-1.3 0 0 0zm-19.9.6c-.3-.1-1.6.1-1 .2s1.7-.1 1-.2zm-50.4-.7c-1.2 0-3 0-3.1.2s3 0 3.1-.2zm23.5.2h5.3c-.2-.3-3.4-1-4.4-.4a5.6 5.6 0 0 1 2.2.2c-1.4-.1-6.6 0-3.1.2zm24.6.1c-.3-.1-1.6.1-.9.2s1.5-.1.9-.2zm-10.1 1h1.1c-.4-.2-1.2-.1-1.1 0zm-2.9-1.4c.1.4-4.5.1-6.3.2.3.5 11.1.3 6.3-.2zm13.2.8c-.3-.1-1.6.1-.9.2s1.5-.1.9-.2zm-11.3-1.1c-.8 0-2.1 0-2 .2s2.1-.1 2-.2zm-6.4 0c-.3-.1-1.6.1-1 .2s1.6-.1 1-.2zm62.5-87.1c.1 3.2-.3 9.1.2 10.6v-5.3c-.1-1.6.2-5.4-.2-5.3zm.4-3.1c.1 5-.3 12.6.2 16-.1-5.1.3-12.7-.2-16zm-.2 23.3c0 .8 0 2.1.2 2.2s0-2.1-.2-2.2zm0-30.8c-.1.3.1 1.6.2 1.1s-.1-1.6-.2-1.1zm-.2 23.3c.3-.6 0-1.3 0 0zm.2 10.6c-.1.3.1 1.6.2 1.1s-.1-1.6-.2-1.1zm.6-28.5h-.2c.1 1.2.2.6.2 0zm-.2 0v-1.1c-.2.2-.1 1 0 1.1z" fill="none"/><path d="M230.9 194.6c.1-.3-.1-1.7-.2-1.2s.1 1.7.2 1.2zm-81.6 40.7c.3.1 1.6-.1 1-.2s-1.6.1-1 .2zm-.1-117.2c-.3-.1-1.6.1-1.1.2s1.6-.1 1.1-.2zm66 115.7c.3 0 1.6-.1.9-.2s-1.5.1-.9.2zm-36.4.2c.3.1 1.6-.1 1-.2s-1.6.1-1 .2z" fill="#4e426c"/><path d="M101.4 233.1c8.8 0 17.1-.4 25.5-.2 4.3.1 9.9.5 16.2.6s12.3-.1 17.3.4c.2-.3 5.1-.7 6.3-.2-1.5 0-3 0-3.1.2 4.5.1 3.7 0 8.6 0-.1-.1.7-.2 1.1 0h-1.1v.2c5.5 0 5.9-.1 1.9-.4H185c7.2-.6 12.5-.2 21.1-.4 0-.2-.5-.3-1.3-.3.7.3-5.6.3-5.3 0h5.3v-.2c-1.3 0-.9-.3 0 0a15 15 0 0 0 4-.3c-5.4-.3-7.3.4-9.4.2-5.5.3-18.6.3-24.5 0h24.5a57 57 0 0 0-6.6-.4 19.5 19.5 0 0 1-2 .2 3.1 3.1 0 0 0-1.2-.2 20 20 0 0 1-2 .2c-.3 0-.1-.2-1.2-.2a26.7 26.7 0 0 1-5.4-.2c-10 .2-24.1-.4-30.6.4v.2c3.3.3 3.8-.2 5.5.4-3.6-.1-9.8.3-11.8-.2a26.6 26.6 0 0 1-7.5-.2c4.8.3 8.6-.6 11.7 0-1.6 0-4-.1-4.2.2 1.8-.1 6.4.2 6.3-.2s-1.3-.2-.1-.2c-5-.6-15.6.1-19.2-.2-1.1.1-.6.4-2 .4a6.3 6.3 0 0 0-2.2-.4c-.4.3-1.2.4-3.1.4-7.2.1-9.2.3-17 0 .5.5-5-.1-5.4.4zm83.3.1c.6.1-.6.2-1 .2s.7-.3 1-.2zm-2.4-.4c.6.1-.6.2-.9.2s.6-.2 1-.2zm.2.4c.6.1-.6.2-.9.2s.7-.3 1-.2zm-11.3-1.1c.1.2-1.2.2-2 .2s1.3-.2 2.1-.2zm-6.4 0c.6.1-.6.3-1 .2s.8-.3 1.1-.2zm-4.1.4a5.6 5.6 0 0 0-2.2-.2c1-.6 4.3.1 4.4.4 1.8-.1 6.4.2 6.3-.2 4.9.4-6 .6-6.3.2h-5.3c-3.3-.2 1.9-.3 3.3-.2zm-26.6 0c-.1.2-1.9.2-3.1.2s2-.2 3.3-.2zm-64-67.2c-.1.3.1 1.6.2 1.1s0-1.6-.2-1.1zm.7 13.9c-.4-10-.4 6.2 0 0zm17.8 53.5c-2.3.4-8.7 0-10.6.4 2.4.2 7.1 0 7.5 0s13.5.7 10.7 0-11 .3-7.6-.4zM71 220.6v-24.4c-.3 6.9-.5 20 0 24.4zm157.2 12.1c-.3 0-1.5.1-.9.2s1.5-.1.9-.2zm-4.3.1c-2.8 0-7 .1-4.6-.3l-6.2.2c-.5.6 13.8.2 10.8.1zm-12.8 0c-.3 0-1.5.1-.9.2s1.6-.1.9-.2z" fill="#4e426c"/><path d="M207 233c.3 0 1.6-.1.9-.2s-1.5.1-.9.2zm-107.7.1c.3.1 1.6-.1 1-.2s-1.6.1-1 .2zm-28.5-8.2c.1 2.1 0 5 0 7.5v.8h.8a28.5 28.5 0 0 0 5.3-.3H71v-.5a43.9 43.9 0 0 0-.2-7.5zm0-3.2c-.1.3.1 1.6.2 1.1s-.1-1.7-.2-1.1z" fill="#4e426c"/><path d="M136.4 120.1c-17.8.3-41.6.2-64.8.1h-.4V161c0 9.4-.2 17.5-.2 25.5 0 .5.5.9.4 2.1s-.7.5-.4 2.1.1 1.1 0 1.1c0 1.9.3 2.2.2 4.3.2 8.8.3 23.8.3 36.2v.2h11.7c1.7 0 6.9.3 6.3-.4l-18 .3h.1c-.3-24.1-.2-53.5.1-74.5-.4-3.9.1-5.6-.2-10.6.3 0 1.1-3 .4-4.3.1 1.8-.2 2-.4 2.1.1-2.9-.3-8.4.2-9.6 0 1.5 0 3 .2 3.2-.2-3.2.2-3.9.2-6.4s-.7 2.1-.7-2.1-.1-6.5-.1-9.6v-.2h.2c8.4.1 16.1.4 23.4-.2 14.6.2 26.4.2 41.5.2.9 0 1.1-.2 2.1-.2s-.7-.1-2.1-.1zm-64.7 14.4c-.1.5-.3-.8-.2-1.1s.3.8.2 1.1zm70-14.6l-3.2.4c1.5.4 9 .3 10.6 0v-.2c-4 .2-5.3.4-7.4-.2zm86.9 70.2v-20.3c0-.8 0-2.1-.2-2.2.2 7.1-.2 16.9.2 22.5zm0 3.2a7.7 7.7 0 0 0-.2-2.2 7.8 7.8 0 0 0 .2 2.2zm-.2 8.4c.5-4.8-.6-3 0 0zm-135.6 31c-5.7-.2-1.2.7 0 0zm89.3-112.3c4 0 7.9.4 11.7-.2h-19.1c-6.9 0-13.8-.2-15.9.4 9.6.1 16.9-.2 23.3-.2z" fill="#4e426c"/><path d="M228 186.6v4.2c-.1 1.9.2 2.3.2 1.2-.1-11.3 0-19.6.1-27.5s.2-15.3-.1-24.7c0 .6-.2 1.2-.2 0s-.3-.9 0-1.1a35.2 35.2 0 0 0 .2-5.3v-13h-.3c-13.9 0-29.7.1-40.5.4h-15.9c-3.8-.2-3.8.4 0 .2h7.4c11.5-.1 25.3.3 35.1-.2 1.6-.1 3.3.4 5.3.4s4.3-.3 6.4-.2h2.2l-.4-.4c-.1 4-.4 8.3-.4 12.6 0 1.6.2 3.6.2 5.3 0 7.1-.5 15.7-.2 21.1 0-1.2 0-1.9.2-2.1s.3-.6 0 0v11.6c0 1.5.6.6.6 2.4a4.2 4.2 0 0 0-.4 2c.5 1.3.1 6.7.2 9.6a13.1 13.1 0 0 1 .3 3.5zm-.4-52.2c.1-.5.3.8.2 1.1s-.3-.8-.2-1.1zm-.2 10.6c.5-.1.1 3.8.2 5.3v5.3c-.5-1.6-.1-7.4-.2-10.6zm.4-3.1c.5 3.3.1 11 .2 16-.5-3.4-.1-11-.2-16zm-.2 23.3c.2.1.2 1.4.2 2.2s-.2-1.4-.2-2.2zm0 3.2c.1-.5.3.9.2 1.1s-.3-.9-.2-1.2zm-14.5 64.2c-.7-.5-4.3.2 0 0zm-109.6.1c.3.1 1.6-.1 1-.2s-1.6.1-1 .2zm-10.7-.2v.2c6.1.1 6.1-.4 0-.2zm56.4-112.1c1.3.7 5.6-.2 0 0zm8.5 0c-6.8-.3-2.3.7 0 0z" fill="#4e426c"/><path d="M228.2 139.8c0-.9-.1-1-.2-1.1v1.1zM102.3 232c-1.6 0-12.7-.3-9.5.4-1.4-.2 16.1-.3 9.5-.4zM228 216.3c.2-5.7-.1-12.4-.2-17.1 0-3 .3-9-.4-9.8 0 6.8.3 9.1 0 14.8.2 0 .3.5.4 1.3s-.3.6-.4 1.9c-.1 3.2.3 8.2.2 13.9a36.2 36.2 0 0 0 .4-5zM118.2 232c-.3-.1-1.6.1-1 .2s1.6-.1 1-.2zm-4.2 0c-.3-.1-1.6.1-1 .2s1.6-.1 1-.2zm-3.2 0c-.3-.1-1.6.1-1 .2s1.6-.1 1-.2zm-3.2 0c-.8 0-2.1 0-2.1.2s2.1 0 2.1-.2zm-35.4-72v-11.7c-.5-2.7.1 8.7-.4 9.6s.1 2.1.4 2.1zm-.3-17c-.1-1.5-.3.1 0 0zm83.7-22c1.5-.1-.1-.3 0 0zm2.1 0c1.9-.1 6.2.3 6.4-.2h-3.2c-1.3 0-3 0-3.2.2zm7.4 0c.8 0 2.1 0 2.1-.2s-2 0-2.1.2zm62.7 62.3c-.5-6.3-.7 5.2 0 5.3 0-2.7-.4-3.5 0-5.3zm-155.6 49c.1-.3-.1-1.6-.2-1.1a3.3 3.3 0 0 0 .1 1.1l-.4-.4c.1 0 .1-.1 0-.1l.5.5zm0-12.8c.1-.3-.1-1.6-.2-1.1s0 1.7.2 1.1zm0-2.1c.1-.3-.1-1.6-.2-1.1s0 1.7.2 1.1zm0-52.1c0-1.6.1-3.9-.2-4.2 0 1.6-.2 3.9.2 4.2zm-.3-26.5c-.2 4.4.7.2 0 0zm68.8-17.5c.8 0 2.1 0 2.1-.2s-2.1-.1-2.1.2zm8.5 0c.8 0 2.1 0 2.1-.2s-2.1-.1-2.1.2zm6.4-.3c-1.5.1.1.3 0 0zm71.8 58.9c.4.1.1-4.5.2-6.3-.5 0-.1 4.5-.2 6.3zm.3 41.5c-.2.4 0 1.3 0 0zm-136 10.2c-.3-.1-1.6.1-1 .2s1.5-.1 1-.2zM73.9 194c.1-.3-.1-1.6-.2-1.1s.1 1.7.2 1.1zm152 36.2c0-.2-.1-1.7-.2-1.2s.2 1.7.2 1.2zm-124-1.3c-.3-.1-1.6.1-1 .2s1.5-.1 1-.2z" fill="#4e426c"/><path d="M93.7 138.4c.5-.4.1-1.7.2-2.5s-.1.5-.4 1.1.1 1 .2 1.4zm-.4 35.8c-.1.1.1.3.2.2s-.1-.3-.2-.2zm.6-48.6v1.1c.4.2.4-1.2 0-1.1zm-.4 11.4h-.2c0 .3.2.2.2 0z" fill="none"/><path d="M93.5 137.5c-.7.6.3 1.5 0 2.5s.6-1.2.2-1.6-.2-.6-.2-.9zm0-10.7v5.1a12.1 12.1 0 0 0 0-5.1zm.2-1.2c-.3.1 0 .3 0 0zm.7 4.3c-.1.1.1.3.2.2s-.1-.3-.2-.2zm-.9 10.5c0 .3 0 .6.2.7s0-.7-.2-.7zm.2-4.9v-1.1c-.3 0-1.1.6-.4.9s0-.4.2-.4 0 1.3.2.6zm.2-5.2c-.1.1.1.3.2.2s-.1-.3-.2-.2zm1.1 2.3v-.2c-.2 0-.1.2 0 .2zm-1.5.4c.5 0 .1.9.2 1.3s.3-2.2-.2-1.3zm.9-2.7c-.1.1.1.3.2.2s-.1-.3-.2-.2zm-1.4 2.3c0 .2 0 .4.2.4s0-.4-.2-.4zm0 1.3c-.1.1.1.3.2.2s-.1-.3-.2-.2zm-.2 81.2c.1.7-.3 1.9.2 2.2v-1.1c-.1-.3.3-1.1-.2-1.1zm.5-.7c.1 1-.3 2.7.2 3.4-.2-1.1.3-2.7-.2-3.4zm-.3 4.9c0 .2 0 .4.2.4s0-.3-.2-.4zm0-6.4c-.1.1.1.3.2.2s-.1-.4-.2-.2zm-.2 4.9c.3-.1 0-.3 0 0zm.2 2.2c-.1.1.1.3.2.2s-.1-.3-.2-.2zm.7-6h-.2c0 .2.2.1.2 0zm-.2 0v-.2c-.3 0-.1.2 0 .2z" fill="none"/><path d="M96.8 225.2c.1-.1-.1-.3-.2-.2s.1.3.2.2zm-.2-87.7c.1-.1-.1-.3-.2-.2s.1.3.2.2zm-.7 55.9c.1-.1-.1-.3-.2-.2s.1.3.2.2zm-.6-69.8c.1-.1-.1-.3-.2-.2s0 .3.2.2zm0 7.6c.1-.1-.1-.3-.2-.2s0 .3.2.2z" fill="#4e426c"/><path d="M94.1 147.3c0-1.9-.4-3.6-.2-5.4s.6-2 .7-3.4-.1-2.6.4-3.6-.8-1.1-.2-1.3 0 .6.2.7a4.9 4.9 0 0 0 0-1.8c-.1 0-.3-.2 0-.2v.2h.2c0-1.1-.1-1.2-.4-.4v-2.2c-.7-1.6-.2-2.6-.4-4.5-.3 0-.4 0-.4.2s.4 1.2 0 1.1v-1.1h-.2c0 .3-.3.1 0 0a1 1 0 0 0-.4-.9c-.3 1.1.6 1.6.2 2a12.1 12.1 0 0 1 0 5.1v-5.1c-.4.3-.5 1.2-.4 1.3s.3.2.2.4-.2 0-.2.2.3.2.2.4-.2 0-.2.2.1.3-.2 1.1-.4 5.1.4 6.5h.2c.3-.7-.3-.8.4-1.1s.3 2.1-.2 2.5.1 1.3-.2 1.6-.7-1.8 0-2.5-.1.8.2.9.3-1.3-.2-1.3-.2.3-.2 0 .1 3.3-.2 4 .4.2.4.4-.4.2-.4.4a.6.6 0 0 1 .4.7 10 10 0 0 1 0 3.6c.6.1 0 1.2.5 1.3zm.2-17.4c.1-.1.3.2.2.2s-.2-.1-.1-.2zm-.4.4c.1-.1.3.2.2.2s-.2-.1-.2-.2zm.4 0c.1-.1.3.2.2.2s-.2-.1-.1-.2zm-1.3 2.3c.2 0 .2.3.2.4s-.1-.3-.2-.4zm0 1.3c.1-.1.3.2.2.2s-.2-.1-.2-.2zm.4.9c-.2 0-.3.2-.2.4s.1-.9.4-.9.3-1.3-.2-1.3.7 1.3.2 1.3v1.1c-.1.8-.2-.3-.1-.6zm0 5.6c.3 0 .2.4.2.7s-.1-.4-.1-.7zm1.4 27.3c.1-.1-.1-.3-.2-.2s.1.3.2.2zm-.7-2.9c.4 2.1.4-1.3 0 0zm-.4-14.8c.4.5 0 1.8.4 2.2a3.4 3.4 0 0 0 0-1.6c0-.2.7-2.8 0-2.2s.3 2.3-.4 1.6zm.2 6.1v5.1c.3-1.5.5-4.2 0-5.1zm0-35.4c-.1.1.1.3.2.2s-.1-.3-.2-.2zm0 .9c0 .6.1 1.5-.4.9s0 .5.2 1.3.4-2.8.2-2.2zm0 2.7c-.1.1.1.3.2.2s-.1-.3-.2-.2z" fill="#4e426c"/><path d="M94.1 125.2c.1-.1-.1-.3-.2-.2s.1.3.2.2zm0 22.6c.1-.1-.1-.3-.2-.2s.1.3.2.2zm0 7.4c-.1-.8.3-2.2-.2-2.7s-.3 2.2.2 2.7zm0 .6c.1-.1-.1-.3-.2-.2s.1.4.2.2z" fill="#4e426c"/><path d="M93.9 190.7c-.4-6 0-15.3 0-22.1 0-2 .2-3.7.2-5.4 0-.1-.5-.2-.4-.4s.7-.1.4-.4-.1-.2 0-.2-.3-.5-.2-.9c-.3-2.4-.3-7-.4-10.1 0-.4.3-1.4-.4-1.3a143.7 143.7 0 0 1 .2 19.5c.4.8-.1 1.2.2 2.2s-1.1.6-.4.9.2-.4.4-.4.3 1.8-.2 2 0-.6-.2-.7-.2.8-.2 1.3.7-.4.7.4c.3 2.6-.5 4.8.2 6.9s-.2 5.5-.2 8.7c0 .2.2.2.2.4s.1-.1.1-.4zm-.7-16.5c.1-.1.3.2.2.2s-.2-.2-.1-.2zm.9 17.6a1.6 1.6 0 0 1-.4-.7c-.4.3-.3 1.9 0 2.2h.2c-.2-.8-.3-1 .2-1.5zm0 32.7v-4.2c0-.2 0-.4-.2-.4s-.3 3.5.2 4.6zm0 .7c0-.2 0-.4-.2-.4s0 .4.2.4zm-.2 1.8c.6-1.1-.7-.5 0 0zm-.2-77.9c-.2 1.2.7.3 0 0zm0 51.2c0 .8-.4 1.7.2 2.5v-4c0-1.3.2-2.9-.4-3.4a31.5 31.5 0 0 0 .2 4.9z" fill="#4e426c"/><path d="M93.5 223.8v.9c-.1.4.2.5.2.2-.3-4.7.6-7 0-11 0 .1-.2.3-.2 0s-.3-.2 0-.2a1.7 1.7 0 0 0 .2-1.1 96.1 96.1 0 0 0-.4-11.2V198c.2-.8-.4-.8-.2 0v1.6c.1 2.4-.3 5.3.2 7.4.1.3-.4.7-.4 1.1s.3.9.2 1.3-.4 2.1-.4 3.1.2.8.2 1.1-.6 3.3-.2 4.5 0-.4.2-.4.3-.1 0 0v2.5c0 .3.7.1.7.4s-.4.2-.4.4.1 1.4.2 2 0 .6.1.8zm-.4-11c.1-.1.3.2.2.2s-.3-.1-.3-.1zm-.2 2.2c.5 0 .1.8.2 1.1v1.1c-.6-.2-.2-1.4-.3-2.1zm.4-.7c.5.7.1 2.3.2 3.4-.5-.6-.1-2.2-.2-3.3zm-.2 4.9c.2 0 .2.3.2.4s-.2-.1-.3-.3zm0 .7c.1-.1.3.2.2.2s-.3 0-.3-.1zm.6-96c-.7 0 .2.9 0 0zm0 23c.1-.1-.1-.3-.2-.2s.1.3.2.2zm-.2 2.2h.2c.2-1.3-.4-1.3-.2 0zm.2 44.3c-.7.3.2 1.2 0 0zm0 1.8c.3-1.4-.7-.5 0 0z" fill="#4e426c"/><path d="M93.7 214c0-.2-.1-.2-.2-.2v.2zm-.7-66.9c0 .3-.3 2.7.4 2s-.3-3.4-.4-2zm.5 83a16.1 16.1 0 0 0-.2-3.6c0-.6.4-1.9-.4-2 0 1.4.3 1.9 0 3.1s.4 0 .4.2-.4.2-.4.4.3 1.7.2 2.9.3-.6.4-1zm-.5-86.3c-.1.1.1.3.2.2s-.1-.4-.2-.2zm0 .9c-.1.1.1.3.2.2s-.1-.4-.2-.2zm0 .6c-.1.1.1.3.2.2s-.1-.3-.2-.2zm0 .7c0 .2 0 .4.2.4s0-.4-.2-.4zm-.2 22.8v2.5c.5.6-.1-1.8.4-2s-.1-.5-.4-.5zm.2 3.6c.1.3.3 0 0 0zm0 22.3c.1.3.3 0 0 0zm0 .5c.1.4-.3 1.3.2 1.3v-.7c0-.2.1-.6-.2-.6zm0 1.6c0 .2 0 .4.2.4s0-.4-.2-.4zm.3 26.4c-.5-1.3-.8 1.2 0 1.1s-.5-.7 0-1.1zm-.5-69.6c-.1.1.1.3.2.2s-.1-.3-.2-.2zm0 2.7c-.1.1.1.3.2.2s-.1-.3-.2-.2zm0 .4c-.1.1.1.3.2.2s-.1-.3-.2-.2zm0 11c0 .3-.1.8.2.9s.1-.8-.2-.9zm.2 5.6c.2-.9-.7 0 0 0zm-.2 18.3c0 .2 0 .4.2.4s0-.4-.2-.4zm0 1.8c0 .2 0 .4.2.4s0-.4-.2-.4zm.2 1.3c-.1-.3-.3 0 0 0zm-.2 27.8c.5 0 .1-.9.2-1.3s-.1.9-.2 1.3zm.2 8.7c-.3.1 0 .3 0 0zm-.4-81.9c-.1.1.1.3.2.2s-.1-.3-.2-.2zM91 161.6c-.1.1.1.3.2.2s-.1-.3-.2-.2zm-.4 71.8c.1-.1-.1-.3-.2-.2s.1.4.2.2zm-.7-86.3c-.1.1.1.3.2.2s-.1-.3-.2-.2z" fill="#4e426c"/><path d="M116 138.4c.5-.4.1-1.7.2-2.5s-.1.5-.4 1.1.1 1 .2 1.4zm-.4 35.8c-.1.1.1.3.2.2s-.1-.3-.2-.2zm.7-48.6v1.1c.3.2.3-1.2 0-1.1zm-.5 11.4h-.2c0 .3.2.2.2 0z" fill="none"/><path d="M115.8 137.5c-.7.6.3 1.5 0 2.5s.6-1.2.2-1.6-.2-.6-.2-.9zm0-10.7v5.1a12.1 12.1 0 0 0 0-5.1zm.2-1.2c-.3.1 0 .3 0 0zm.7 4.3c-.1.1.1.3.2.2s-.1-.3-.2-.2zm-.9 10.5c0 .3 0 .6.2.7s.1-.7-.2-.7zm.2-4.9v-1.1c-.3 0-1.1.6-.4.9s0-.4.2-.4 0 1.3.2.6zm.3-5.2c-.1.1.1.3.2.2s-.1-.3-.2-.2zm1.1 2.3v-.2c-.3 0-.2.2 0 .2zm-1.6.4c.5 0 .1.9.2 1.3s.3-2.2-.2-1.3zm.9-2.7c-.1.1.1.3.2.2s-.1-.3-.2-.2zm-1.3 2.3c0 .2 0 .4.2.4s0-.4-.2-.4zm0 1.3c-.1.1.1.3.2.2s-.1-.3-.2-.2zm-.3 81.2c.1.7-.3 1.9.2 2.2v-1.1c-.1-.3.3-1.1-.2-1.1zm.5-.7c.1 1-.3 2.7.2 3.4-.1-1.1.3-2.7-.2-3.4zm-.2 4.9c0 .2 0 .4.2.4s0-.3-.2-.4zm0-6.4c-.1.1.1.3.2.2s-.1-.4-.2-.2zm-.3 4.9c.3-.1 0-.3 0 0zm.3 2.2c-.1.1.1.3.2.2s-.1-.3-.2-.2zm.6-6h-.2c.1.2.2.1.2 0zm-.2 0v-.2c-.2 0-.1.2 0 .2z" fill="none"/><path d="M119.2 225.2c.1-.1-.1-.3-.2-.2s0 .3.2.2zm-.3-87.7c.1-.1-.1-.3-.2-.2s.1.3.2.2zm-.6 55.9c.1-.1-.1-.3-.2-.2s0 .3.2.2zm-.7-69.8c.1-.1-.1-.3-.2-.2s.1.3.2.2zm0 7.6c.1-.1-.1-.3-.2-.2s.1.3.2.2z" fill="#4e426c"/><path d="M116.5 147.3c0-1.9-.4-3.6-.2-5.4s.6-2 .7-3.4-.1-2.6.4-3.6-.8-1.1-.2-1.3 0 .6.2.7a4.9 4.9 0 0 0 0-1.8c-.1 0-.3-.2 0-.2v.2h.2c0-1.1-.1-1.2-.4-.4v-2.2c-.7-1.6-.2-2.6-.4-4.5-.3 0-.4 0-.4.2s.4 1.2 0 1.1v-1.1h-.4c0 .3-.3.1 0 0a1 1 0 0 0-.4-.9c-.3 1.1.6 1.6.2 2a12.1 12.1 0 0 1 0 5.1v-5.1c-.4.3-.5 1.2-.4 1.3s.3.2.2.4-.2 0-.2.2.3.2.2.4-.2 0-.2.2.1.3-.2 1.1-.4 5.1.4 6.5h.2c.3-.7-.3-.8.4-1.1s.3 2.1-.2 2.5.1 1.3-.2 1.6-.7-1.8 0-2.5-.1.8.2.9.3-1.3-.2-1.3-.2.3-.2 0 .1 3.3-.2 4 .4.2.4.4-.4.2-.4.4a.6.6 0 0 1 .4.7 10 10 0 0 1 0 3.6c.7.1.2 1.2.7 1.3zm.2-17.4c.1-.1.3.2.2.2s-.3-.1-.2-.2zm-.4.4c.1-.1.3.2.2.2s-.3-.1-.2-.2zm.4 0c.1-.1.3.2.2.2s-.3-.1-.2-.2zm-1.3 2.2c.2 0 .2.3.2.4s-.2-.2-.2-.3zm0 1.3c.1-.1.3.2.2.2s-.3 0-.2-.1zm.4.9c-.2 0-.3.2-.2.4s.1-.9.4-.9.3-1.3-.2-1.3.7 1.3.2 1.3v1.1c-.2.9-.3-.2-.2-.5zm0 5.6c.3 0 .2.4.2.7s-.2-.3-.2-.6zm1.3 27.4c.1-.1-.1-.3-.2-.2s.1.3.2.2zm-.6-2.9c.4 2.1.4-1.3 0 0zM116 150c.4.5 0 1.8.4 2.2a3.4 3.4 0 0 0 0-1.6c0-.2.7-2.8 0-2.2s.4 2.3-.4 1.6zm.3 6.1v5.1c.2-1.5.5-4.2 0-5.1zm0-35.4c-.1.1.1.3.2.2s-.1-.3-.2-.2zm0 .9c0 .6.1 1.5-.4.9s0 .5.2 1.3.4-2.8.2-2.2zm0 2.7c-.1.1.1.3.2.2s-.1-.3-.2-.2z" fill="#4e426c"/><path d="M116.5 125.2c.1-.1-.1-.3-.2-.2s.1.3.2.2zm0 22.6c.1-.1-.1-.3-.2-.2s.1.3.2.2zm0 7.4c-.1-.8.3-2.2-.2-2.7s-.3 2.2.2 2.7zm0 .6c.1-.1-.1-.3-.2-.2s.1.4.2.2z" fill="#4e426c"/><path d="M116.3 190.7c-.4-6 0-15.3 0-22.1 0-2 .2-3.7.2-5.4 0-.1-.5-.2-.4-.4s.7-.1.4-.4-.1-.2 0-.2-.3-.5-.2-.9c-.3-2.4-.3-7-.4-10.1 0-.4.3-1.4-.4-1.3a143.7 143.7 0 0 1 .2 19.5c.4.8-.1 1.2.2 2.2s-1.1.6-.4.9.2-.4.4-.4.3 1.8-.2 2 0-.6-.2-.7-.2.8-.2 1.3.7-.4.7.4c.3 2.6-.5 4.8.2 6.9s-.2 5.5-.2 8.7c0 .2.2.2.2.4s.1-.1.1-.4zm-.7-16.5c.1-.1.3.2.2.2s-.3-.2-.2-.2zm.9 17.6a1.6 1.6 0 0 1-.4-.7c-.4.3-.3 1.9 0 2.2h.2c-.2-.8-.4-1 .2-1.5zm0 32.7v-4.2c0-.2 0-.4-.2-.4s-.3 3.5.2 4.6zm0 .7c0-.2 0-.4-.2-.4s0 .4.2.4zm-.2 1.8c.6-1.1-.7-.5 0 0zm-.3-77.9c-.2 1.2.7.3 0 0zm0 51.2c0 .8-.4 1.7.2 2.5v-4c0-1.3.2-2.9-.4-3.4a31.5 31.5 0 0 0 .2 4.9z" fill="#4e426c"/><path d="M115.8 223.8v.9c-.1.4.2.5.2.2-.3-4.7.6-7 0-11 0 .1-.2.3-.2 0s-.3-.2 0-.2a1.7 1.7 0 0 0 .2-1.1 96.1 96.1 0 0 0-.4-11.2V198c.2-.8-.4-.8-.2 0v1.6c.1 2.4-.3 5.3.2 7.4.1.3-.4.7-.4 1.1s.3.9.2 1.3-.4 2.1-.4 3.1.2.8.2 1.1-.6 3.3-.2 4.5 0-.4.2-.4.3-.1 0 0v2.5c0 .3.7.1.7.4s-.4.2-.4.4.1 1.4.2 2 .1.6.1.8zm-.4-11c.1-.1.3.2.2.2s-.3-.1-.2-.1zm-.2 2.2c.5 0 .1.8.2 1.1v1.1c-.5-.2-.1-1.4-.3-2.1zm.4-.7c.5.7.1 2.3.2 3.4-.5-.6-.1-2.2-.2-3.3zm-.2 4.9c.2 0 .2.3.2.4s-.2-.1-.2-.3zm0 .7c.1-.1.3.2.2.2s-.3 0-.2-.1zm.6-96c-.7 0 .2.9 0 0zm0 23c.1-.1-.1-.3-.2-.2s.1.3.2.2zm-.2 2.2h.2c.2-1.3-.3-1.3-.2 0zm.2 44.3c-.7.3.2 1.2 0 0zm0 1.8c.3-1.4-.7-.5 0 0z" fill="#4e426c"/><path d="M116 214c0-.2-.1-.2-.2-.2v.2zm-.6-66.9c0 .3-.3 2.7.4 2s-.3-3.4-.4-2zm.4 83a16.1 16.1 0 0 0-.2-3.6c0-.6.4-1.9-.4-2 0 1.4.3 1.9 0 3.1s.4 0 .4.2-.4.2-.4.4.3 1.7.2 2.9.3-.6.4-1zm-.4-86.3c-.1.1.1.3.2.2s-.1-.4-.2-.2zm0 .9c-.1.1.1.3.2.2s-.1-.4-.2-.2zm0 .6c-.1.1.1.3.2.2s-.1-.3-.2-.2zm0 .7c0 .2 0 .4.2.4s0-.4-.2-.4zm-.3 22.8v2.5c.5.6-.1-1.8.4-2s-.1-.5-.4-.5zm.3 3.6c.1.3.3 0 0 0zm0 22.3c.1.3.3 0 0 0zm0 .5c.1.4-.3 1.3.2 1.3v-.7c0-.2 0-.6-.2-.6zm0 1.6c0 .2 0 .4.2.4s0-.4-.2-.4zm.2 26.4c-.5-1.3-.8 1.2 0 1.1s-.4-.7 0-1.1zm-.5-69.6c-.1.1.1.3.2.2s0-.3-.2-.2zm0 2.7c-.1.1.1.3.2.2s0-.3-.2-.2zm0 .4c-.1.1.1.3.2.2s0-.3-.2-.2zm0 11c0 .3-.1.8.2.9s.1-.8-.2-.9zm.3 5.6c.2-.9-.7 0 0 0zm-.3 18.3c0 .2 0 .4.2.4s.1-.4-.2-.4zm0 1.8c0 .2 0 .4.2.4s.1-.4-.2-.4zm.3 1.3c-.1-.3-.3 0 0 0zm-.3 27.8c.5 0 .1-.9.2-1.3s0 .9-.2 1.3zm.3 8.7c-.3.1 0 .3 0 0zm-.5-81.9c-.1.1.1.3.2.2s-.1-.3-.2-.2zm-1.5 12.3c-.1.1.1.3.2.2s-.1-.3-.2-.2zm-.5 71.8c.1-.1-.1-.3-.2-.2s.1.4.2.2zm-.7-86.3c-.1.1.1.3.2.2s0-.3-.2-.2z" fill="#4e426c"/><path d="M138.4 138.4c.5-.4.1-1.7.2-2.5s-.1.5-.4 1.1 0 1 .2 1.4zm-.5 35.8c-.1.1.1.3.2.2s-.1-.3-.2-.2zm.7-48.6v1.1c.3.2.3-1.2 0-1.1zm-.5 11.4h-.2c.1.3.2.2.2 0z" fill="none"/><path d="M138.1 137.5c-.7.6.3 1.5 0 2.5s.6-1.2.2-1.6-.1-.6-.2-.9zm0-10.7v5.1a12.1 12.1 0 0 0 0-5.1zm.3-1.2c-.3.1 0 .3 0 0zm.6 4.3c-.1.1.1.3.2.2s-.1-.3-.2-.2zm-.9 10.5c0 .3 0 .6.2.7s.1-.7-.2-.7zm.3-4.9v-1.1c-.3 0-1.1.6-.4.9s0-.4.2-.4 0 1.3.2.6zm.2-5.2c-.1.1.1.3.2.2s-.1-.3-.2-.2zm1.1 2.3v-.2c-.3 0-.1.2 0 .2zm-1.6.4c.5 0 .1.9.2 1.3s.3-2.2-.2-1.3zm.9-2.7c-.1.1.1.3.2.2s-.1-.3-.2-.2zm-1.3 2.3c0 .2 0 .4.2.4s0-.4-.2-.4zm0 1.3c-.1.1.1.3.2.2s-.1-.3-.2-.2zm-.2 81.2c.1.7-.3 1.9.2 2.2v-1.1c-.1-.3.3-1.1-.2-1.1zm.4-.7c.1 1-.3 2.7.2 3.4-.1-1.1.3-2.7-.2-3.4zm-.2 4.9c0 .2 0 .4.2.4s0-.3-.2-.4zm0-6.4c-.1.1.1.3.2.2s-.1-.4-.2-.2zm-.2 4.9c.3-.1 0-.3 0 0zm.2 2.2c-.1.1.1.3.2.2s-.1-.3-.2-.2zm.7-6h-.2c0 .2.2.1.2 0zm-.3 0v-.2c-.2 0-.1.2 0 .2z" fill="none"/><path d="M141.5 225.2c.1-.1-.1-.3-.2-.2s.1.3.2.2zm-.2-87.7c.1-.1-.1-.3-.2-.2s0 .3.2.2zm-.7 55.9c.1-.1-.1-.3-.2-.2s.1.3.2.2zm-.7-69.8c.1-.1-.1-.3-.2-.2s.1.3.2.2zm0 7.6c.1-.1-.1-.3-.2-.2s.1.3.2.2z" fill="#4e426c"/><path d="M138.8 147.3c0-1.9-.4-3.6-.2-5.4s.6-2 .7-3.4-.1-2.6.4-3.6-.8-1.1-.2-1.3 0 .6.2.7a4.9 4.9 0 0 0 0-1.8c-.1 0-.3-.2 0-.2v.2h.2c0-1.1-.1-1.2-.4-.4v-2.2c-.7-1.6-.2-2.6-.4-4.5-.3 0-.4 0-.4.2s.4 1.2 0 1.1v-1.1h-.2c0 .3-.3.1 0 0a1 1 0 0 0-.4-.9c-.3 1.1.6 1.6.2 2a12.1 12.1 0 0 1 0 5.1v-5.1c-.4.3-.5 1.2-.4 1.3s.3.2.2.4-.2 0-.2.2.3.2.2.4-.2 0-.2.2.1.3-.2 1.1-.4 5.1.4 6.5h.2c.3-.7-.3-.8.4-1.1s.3 2.1-.2 2.5.1 1.3-.2 1.6-.7-1.8 0-2.5-.1.8.2.9.3-1.3-.2-1.3-.2.3-.2 0 .1 3.3-.2 4 .4.2.4.4-.4.2-.4.4a.6.6 0 0 1 .4.7 10 10 0 0 1 0 3.6c.5.1 0 1.2.5 1.3zm.2-17.4c.1-.1.3.2.2.2s-.2-.1-.2-.2zm-.4.4c.1-.1.3.2.2.2s-.3-.1-.2-.2zm.4 0c.1-.1.3.2.2.2s-.2-.1-.2-.2zm-1.3 2.2c.2 0 .2.3.2.4s-.2-.2-.2-.3zm0 1.3c.1-.1.3.2.2.2s-.3 0-.2-.1zm.4.9c-.2 0-.3.2-.2.4s.1-.9.4-.9.3-1.3-.2-1.3.7 1.3.2 1.3v1.1c-.1.9-.2-.2-.2-.5zm0 5.6c.3 0 .2.4.2.7s-.1-.3-.2-.6zm1.4 27.4c.1-.1-.1-.3-.2-.2s.1.3.2.2zm-.7-2.9c.4 2.1.4-1.3 0 0zm-.4-14.8c.4.5 0 1.8.4 2.2a3.4 3.4 0 0 0 0-1.6c0-.2.7-2.8 0-2.2s.3 2.3-.4 1.6zm.2 6.1v5.1c.3-1.5.5-4.2 0-5.1zm0-35.4c-.1.1.1.3.2.2s-.1-.3-.2-.2zm0 .9c0 .6.1 1.5-.4.9s0 .5.2 1.3.4-2.8.2-2.2zm0 2.7c-.1.1.1.3.2.2s-.1-.3-.2-.2z" fill="#4e426c"/><path d="M138.8 125.2c.1-.1-.1-.3-.2-.2s.1.3.2.2zm0 22.6c.1-.1-.1-.3-.2-.2s.1.3.2.2zm0 7.4c-.1-.8.3-2.2-.2-2.7s-.3 2.2.2 2.7zm0 .6c.1-.1-.1-.3-.2-.2s.1.4.2.2z" fill="#4e426c"/><path d="M138.6 190.7c-.4-6 0-15.3 0-22.1 0-2 .2-3.7.2-5.4 0-.1-.5-.2-.4-.4s.7-.1.4-.4-.1-.2 0-.2-.3-.5-.2-.9c-.3-2.4-.3-7-.4-10.1 0-.4.3-1.4-.4-1.3a143.7 143.7 0 0 1 .2 19.5c.4.8-.1 1.2.2 2.2s-1.1.6-.4.9.2-.4.4-.4.3 1.8-.2 2 0-.6-.2-.7-.2.8-.2 1.3.7-.4.7.4c.3 2.6-.5 4.8.2 6.9s-.2 5.5-.2 8.7c0 .2.2.2.2.4s.1-.1.1-.4zm-.7-16.5c.1-.1.3.2.2.2s-.2-.2-.2-.2zm.9 17.6a1.6 1.6 0 0 1-.4-.7c-.4.3-.3 1.9 0 2.2h.2c-.2-.8-.3-1 .2-1.5zm0 32.7v-4.2c0-.2 0-.4-.2-.4s-.3 3.5.2 4.6zm0 .7c0-.2 0-.4-.2-.4s0 .4.2.4zm-.2 1.8c.6-1.1-.7-.5 0 0zm-.2-77.9c-.2 1.2.7.3 0 0zm0 51.2c0 .8-.4 1.7.2 2.5v-4c0-1.3.2-2.9-.4-3.4a31.5 31.5 0 0 0 .2 4.9zm-.3 23.5v.9c-.1.4.2.5.2.2-.3-4.7.6-7 0-11 0 .1-.2.3-.2 0s-.3-.2 0-.2a1.7 1.7 0 0 0 .2-1.1 96.1 96.1 0 0 0-.4-11.2V198c.2-.8-.4-.8-.2 0v1.6c.1 2.4-.3 5.3.2 7.4.1.3-.4.7-.4 1.1s.3.9.2 1.3-.4 2.1-.4 3.1.2.8.2 1.1-.6 3.3-.2 4.5 0-.4.2-.4.3-.1 0 0v2.5c0 .3.7.1.7.4s-.4.2-.4.4.1 1.4.2 2 .1.6.1.8zm-.4-11c.1-.1.3.2.2.2s-.3-.1-.2-.1zm-.2 2.2c.5 0 .1.8.2 1.1v1.1c-.5-.2-.1-1.4-.2-2.1zm.4-.7c.5.7.1 2.3.2 3.4-.5-.6 0-2.2-.2-3.3zm-.2 4.9c.2 0 .2.3.2.4s-.2-.1-.2-.3zm0 .7c.1-.1.3.2.2.2s-.3 0-.2-.1zm.7-96c-.7 0 .2.9 0 0zm0 23c.1-.1-.1-.3-.2-.2s0 .3.2.2zm-.3 2.2h.2c.2-1.3-.3-1.3-.2 0zm.3 44.3c-.7.3.2 1.2 0 0zm0 1.8c.3-1.4-.7-.5 0 0z" fill="#4e426c"/><path d="M138.4 214c0-.2-.1-.2-.2-.2v.2zm-.7-66.9c0 .3-.3 2.7.4 2s-.3-3.4-.4-2zm.4 83a16.1 16.1 0 0 0-.2-3.6c0-.6.4-1.9-.4-2 0 1.4.3 1.9 0 3.1s.4 0 .4.2-.4.2-.4.4.3 1.7.2 2.9.3-.6.4-1zm-.4-86.3c-.1.1.1.3.2.2s-.1-.4-.2-.2zm0 .9c-.1.1.1.3.2.2s-.1-.4-.2-.2zm0 .6c-.1.1.1.3.2.2s-.1-.3-.2-.2zm0 .7c0 .2 0 .4.2.4s0-.4-.2-.4zm-.2 22.8v2.5c.5.6-.1-1.8.4-2s-.1-.5-.4-.5zm.2 3.6c.1.3.3 0 0 0zm0 22.3c.1.3.3 0 0 0zm0 .5c.1.4-.3 1.3.2 1.3v-.7c0-.2.1-.6-.2-.6zm0 1.6c0 .2 0 .4.2.4s0-.4-.2-.4zm.2 26.4c-.5-1.3-.8 1.2 0 1.1s-.4-.7 0-1.1zm-.4-69.6c-.1.1.1.3.2.2s-.1-.3-.2-.2zm0 2.7c-.1.1.1.3.2.2s-.1-.3-.2-.2zm0 .4c-.1.1.1.3.2.2s-.1-.3-.2-.2zm0 11c0 .3-.1.8.2.9s.1-.8-.2-.9zm.2 5.6c.2-.9-.7 0 0 0zm-.2 18.3c0 .2 0 .4.2.4s0-.4-.2-.4zm0 1.8c0 .2 0 .4.2.4s0-.4-.2-.4zm.2 1.3c-.1-.3-.3 0 0 0zm-.2 27.8c.5 0 .1-.9.2-1.3s-.1.9-.2 1.3zm.2 8.7c-.3.1 0 .3 0 0zm-.5-81.9c-.1.1.1.3.2.2s0-.3-.2-.2zm-1.5 12.3c-.1.1.1.3.2.2s-.1-.3-.2-.2zm-.5 71.8c.1-.1-.1-.3-.2-.2s.1.4.2.2zm-.6-86.3c-.1.1.1.3.2.2s-.1-.3-.2-.2z" fill="#4e426c"/><path d="M160.7 138.4c.5-.4.1-1.7.2-2.5s-.1.5-.4 1.1.1 1 .2 1.4zm-.5 35.8c-.1.1.1.3.2.2s0-.3-.2-.2zm.7-48.6v1.1c.4.2.4-1.2 0-1.1zm-.4 11.4h-.2c0 .3.2.2.2 0z" fill="none"/><path d="M160.5 137.5c-.7.6.3 1.5 0 2.5s.6-1.2.2-1.6-.2-.6-.2-.9zm0-10.7v5.1a12.1 12.1 0 0 0 0-5.1zm.2-1.2c-.3.1 0 .3 0 0zm.7 4.3c-.1.1.1.3.2.2s-.1-.3-.2-.2zm-.9 10.5c0 .3 0 .6.2.7s0-.7-.2-.7zm.2-4.9v-1.1c-.3 0-1.1.6-.4.9s0-.4.2-.4 0 1.3.2.6zm.2-5.2c-.1.1.1.3.2.2s-.1-.3-.2-.2zm1.1 2.3v-.2c-.2 0-.1.2 0 .2zm-1.5.4c.5 0 .1.9.2 1.3s.3-2.2-.2-1.3zm.9-2.7c-.1.1.1.3.2.2s-.1-.3-.2-.2zm-1.4 2.3c0 .2 0 .4.2.4s0-.4-.2-.4zm0 1.3c-.1.1.1.3.2.2s-.1-.3-.2-.2zm-.2 81.2c.1.7-.3 1.9.2 2.2v-1.1c-.1-.3.3-1.1-.2-1.1zm.4-.7c.1 1-.3 2.7.2 3.4-.1-1.1.4-2.7-.2-3.4zm-.2 4.9c0 .2 0 .4.2.4s0-.3-.2-.4zm0-6.4c-.1.1.1.3.2.2s-.1-.4-.2-.2zm-.2 4.9c.3-.1 0-.3 0 0zm.2 2.2c-.1.1.1.3.2.2s-.1-.3-.2-.2zm.7-6h-.2c0 .2.2.1.2 0zm-.2 0v-.2c-.3 0-.2.2 0 .2z" fill="none"/><path d="M163.8 225.2c.1-.1-.1-.3-.2-.2s.1.3.2.2zm-.2-87.7c.1-.1-.1-.3-.2-.2s.1.3.2.2zm-.7 55.9c.1-.1-.1-.3-.2-.2s.1.3.2.2zm-.6-69.8c.1-.1-.1-.3-.2-.2s0 .3.2.2zm0 7.6c.1-.1-.1-.3-.2-.2s0 .3.2.2z" fill="#4e426c"/><path d="M161.1 147.3c0-1.9-.4-3.6-.2-5.4s.6-2 .7-3.4-.1-2.6.4-3.6-.8-1.1-.2-1.3 0 .6.2.7a4.9 4.9 0 0 0 0-1.8c-.1 0-.3-.2 0-.2v.2h.2c0-1.1-.1-1.2-.4-.4v-2.2c-.7-1.6-.2-2.6-.4-4.5-.3 0-.4 0-.4.2s.4 1.2 0 1.1v-1.1h-.2c0 .3-.3.1 0 0a1 1 0 0 0-.4-.9c-.3 1.1.6 1.6.2 2a12.1 12.1 0 0 1 0 5.1v-5.1c-.4.3-.5 1.2-.4 1.3s.3.2.2.4-.2 0-.2.2.3.2.2.4-.2 0-.2.2.1.3-.2 1.1-.4 5.1.4 6.5h.2c.3-.7-.3-.8.4-1.1s.3 2.1-.2 2.5.1 1.3-.2 1.6-.7-1.8 0-2.5-.1.8.2.9.3-1.3-.2-1.3-.2.3-.2 0 .1 3.3-.2 4 .4.2.4.4-.4.2-.4.4a.6.6 0 0 1 .4.7 10 10 0 0 1 0 3.6c.6.1 0 1.2.5 1.3zm.2-17.4c.1-.1.3.2.2.2s-.2-.1-.1-.2zm-.4.4c.1-.1.3.2.2.2s-.2-.1-.2-.2zm.4 0c.1-.1.3.2.2.2s-.2-.1-.1-.2zm-1.3 2.2c.2 0 .2.3.2.4s-.1-.2-.2-.3zm0 1.3c.1-.1.3.2.2.2s-.2 0-.2-.1zm.4.9c-.2 0-.3.2-.2.4s.1-.9.4-.9.3-1.3-.2-1.3.7 1.3.2 1.3v1.1c-.1.9-.2-.2-.1-.5zm0 5.6c.3 0 .2.4.2.7s-.1-.3-.1-.6zm1.4 27.4c.1-.1-.1-.3-.2-.2s.1.3.2.2zm-.7-2.9c.4 2.1.4-1.3 0 0zm-.4-14.8c.4.5 0 1.8.4 2.2a3.4 3.4 0 0 0 0-1.6c0-.2.7-2.8 0-2.2s.3 2.3-.4 1.6zm.2 6.1v5.1c.3-1.5.5-4.2 0-5.1zm0-35.4c-.1.1.1.3.2.2s-.1-.3-.2-.2zm0 .9c0 .6.1 1.5-.4.9s0 .5.2 1.3.4-2.8.2-2.2zm0 2.7c-.1.1.1.3.2.2s-.1-.3-.2-.2z" fill="#4e426c"/><path d="M161.1 125.2c.1-.1-.1-.3-.2-.2s.1.3.2.2zm0 22.6c.1-.1-.1-.3-.2-.2s.1.3.2.2zm0 7.4c-.1-.8.3-2.2-.2-2.7s-.3 2.2.2 2.7zm0 .6c.1-.1-.1-.3-.2-.2s.1.4.2.2z" fill="#4e426c"/><path d="M160.9 190.7c-.4-6 0-15.3 0-22.1 0-2 .2-3.7.2-5.4 0-.1-.5-.2-.4-.4s.7-.1.4-.4-.1-.2 0-.2-.3-.5-.2-.9c-.3-2.4-.3-7-.4-10.1 0-.4.3-1.4-.4-1.3a143.7 143.7 0 0 1 .2 19.5c.4.8-.1 1.2.2 2.2s-1.1.6-.4.9.2-.4.4-.4.3 1.8-.2 2 0-.6-.2-.7-.2.8-.2 1.3.7-.4.7.4c.3 2.6-.5 4.8.2 6.9s-.2 5.5-.2 8.7c0 .2.2.2.2.4s.1-.1.1-.4zm-.7-16.5c.1-.1.3.2.2.2s-.2-.2-.2-.2zm.9 17.6a1.6 1.6 0 0 1-.4-.7c-.4.3-.3 1.9 0 2.2h.2c-.2-.8-.3-1 .2-1.5zm0 32.7v-4.2c0-.2 0-.4-.2-.4s-.3 3.5.2 4.6zm0 .7c0-.2 0-.4-.2-.4s0 .4.2.4zm-.2 1.8c.6-1.1-.7-.5 0 0zm-.2-77.9c-.2 1.2.7.3 0 0zm0 51.2c0 .8-.4 1.7.2 2.5v-4c0-1.3.2-2.9-.4-3.4a31.5 31.5 0 0 0 .2 4.9z" fill="#4e426c"/><path d="M160.5 223.8v.9c-.1.4.2.5.2.2-.3-4.7.6-7 0-11 0 .1-.2.3-.2 0s-.3-.2 0-.2a1.7 1.7 0 0 0 .2-1.1 96.1 96.1 0 0 0-.4-11.2V198c.2-.8-.4-.8-.2 0v1.6c.1 2.4-.3 5.3.2 7.4.1.3-.4.7-.4 1.1s.3.9.2 1.3-.4 2.1-.4 3.1.2.8.2 1.1-.6 3.3-.2 4.5 0-.4.2-.4.3-.1 0 0v2.5c0 .3.7.1.7.4s-.4.2-.4.4.1 1.4.2 2 0 .6.1.8zm-.4-11c.1-.1.3.2.2.2s-.3-.1-.3-.1zm-.2 2.2c.5 0 .1.8.2 1.1v1.1c-.6-.2-.2-1.4-.3-2.1zm.4-.7c.5.7.1 2.3.2 3.4-.5-.6-.1-2.2-.3-3.3zm-.2 4.9c.2 0 .2.3.2.4s-.2-.1-.3-.3zm0 .7c.1-.1.3.2.2.2s-.3 0-.3-.1zm.6-96c-.7 0 .2.9 0 0zm0 23c.1-.1-.1-.3-.2-.2s.1.3.2.2zm-.2 2.2h.2c.1-1.3-.4-1.3-.2 0zm.2 44.3c-.7.3.2 1.2 0 0zm0 1.8c.3-1.4-.7-.5 0 0z" fill="#4e426c"/><path d="M160.7 214c0-.2-.1-.2-.2-.2v.2zm-.7-66.9c0 .3-.3 2.7.4 2s-.3-3.4-.4-2zm.5 83a16.1 16.1 0 0 0-.2-3.6c0-.6.4-1.9-.4-2 0 1.4.3 1.9 0 3.1s.4 0 .4.2-.4.2-.4.4.3 1.7.2 2.9.2-.6.4-1zm-.5-86.3c-.1.1.1.3.2.2s-.1-.4-.2-.2zm0 .9c-.1.1.1.3.2.2s-.1-.4-.2-.2zm0 .6c-.1.1.1.3.2.2s-.1-.3-.2-.2zm0 .7c0 .2 0 .4.2.4s0-.4-.2-.4zm-.2 22.8v2.5c.5.6-.1-1.8.4-2s-.1-.5-.4-.5zm.2 3.6c.1.3.3 0 0 0zm0 22.3c.1.3.3 0 0 0zm0 .5c.1.4-.3 1.3.2 1.3v-.7c0-.2.1-.6-.2-.6zm0 1.6c0 .2 0 .4.2.4s0-.4-.2-.4zm.2 26.4c-.5-1.3-.8 1.2 0 1.1s-.4-.7 0-1.1zm-.4-69.6c-.1.1.1.3.2.2s-.1-.3-.2-.2zm0 2.7c-.1.1.1.3.2.2s-.1-.3-.2-.2zm0 .4c-.1.1.1.3.2.2s-.1-.3-.2-.2zm0 11c0 .3-.1.8.2.9s.1-.8-.2-.9zm.2 5.6c.2-.9-.7 0 0 0zm-.2 18.3c0 .2 0 .4.2.4s0-.4-.2-.4zm0 1.8c0 .2 0 .4.2.4s0-.4-.2-.4zm.2 1.3c-.1-.3-.3 0 0 0zm-.2 27.8c.5 0 .1-.9.2-1.3s-.1.9-.2 1.3zm.2 8.7c-.3.1 0 .3 0 0zm-.4-81.9c-.1.1.1.3.2.2s-.1-.3-.2-.2zm-1.6 12.3c-.1.1.1.3.2.2s-.1-.3-.2-.2zm-.4 71.8c.1-.1-.1-.3-.2-.2s.1.4.2.2zm-.7-86.3c-.1.1.1.3.2.2s-.1-.3-.2-.2z" fill="#4e426c"/><path d="M183 138.4c.5-.4.1-1.7.2-2.5s-.1.5-.4 1.1.1 1 .2 1.4zm-.4 35.8c-.1.1.1.3.2.2s-.1-.3-.2-.2zm.6-48.6v1.1c.4.2.4-1.2 0-1.1z" fill="none"/><path d="M182.8 137h-.2c0 .3.2.2.2 0zm0 .5c-.7.6.3 1.5 0 2.5s.6-1.2.2-1.6-.2-.6-.2-.9zm0-10.7v5.1a12.1 12.1 0 0 0 0-5.1zm.2-1.2c-.3.1 0 .3 0 0zm.7 4.3c-.1.1.1.3.2.2s-.1-.3-.2-.2zm-.9 10.5c0 .3 0 .6.2.7s.1-.7-.2-.7zm.2-4.9v-1.1c-.3 0-1.1.6-.4.9s0-.4.2-.4 0 1.3.2.6zm.2-5.2c-.1.1.1.3.2.2s0-.3-.2-.2zm1.2 2.3v-.2c-.3 0-.2.2 0 .2zm-1.6.4c.5 0 .1.9.2 1.3s.3-2.2-.2-1.3zm.9-2.7c-.1.1.1.3.2.2s-.1-.3-.2-.2zm-1.3 2.3c0 .2 0 .4.2.4s0-.4-.2-.4zm0 1.3c-.1.1.1.3.2.2s-.1-.3-.2-.2zm-.3 81.2c.1.7-.3 1.9.2 2.2v-1.1c-.1-.3.3-1.1-.2-1.1zm.5-.7c.1 1-.3 2.7.2 3.4-.1-1.1.3-2.7-.2-3.4zm-.2 4.9c0 .2 0 .4.2.4s0-.3-.2-.4zm0-6.4c-.1.1.1.3.2.2s-.1-.4-.2-.2zm-.3 4.9c.3-.1 0-.3 0 0zm.3 2.2c-.1.1.1.3.2.2s-.1-.3-.2-.2zm.6-6h-.2c0 .2.2.1.2 0zm-.2 0v-.2c-.3 0-.1.2 0 .2z" fill="none"/><path d="M186.1 225.2c.1-.1-.1-.3-.2-.2s.1.3.2.2zm-.2-87.7c.1-.1-.1-.3-.2-.2s.1.3.2.2zm-.6 55.9c.1-.1-.1-.3-.2-.2s0 .3.2.2zm-.7-69.8c.1-.1-.1-.3-.2-.2s.1.3.2.2zm0 7.6c.1-.1-.1-.3-.2-.2s.1.3.2.2z" fill="#4e426c"/><path d="M183.5 147.3c0-1.9-.4-3.6-.2-5.4s.6-2 .7-3.4-.1-2.6.4-3.6-.8-1.1-.2-1.3 0 .6.2.7a4.9 4.9 0 0 0 0-1.8c-.1 0-.3-.2 0-.2v.2h.2c0-1.1-.1-1.2-.4-.4v-2.2c-.7-1.6-.2-2.6-.4-4.5-.3 0-.4 0-.4.2s.4 1.2 0 1.1v-1.1h-.4c0 .3-.3.1 0 0a1 1 0 0 0-.4-.9c-.3 1.1.6 1.6.2 2a12.1 12.1 0 0 1 0 5.1v-5.1c-.4.3-.5 1.2-.4 1.3s.3.2.2.4-.2 0-.2.2.3.2.2.4-.2 0-.2.2.1.3-.2 1.1-.4 5.1.4 6.5h.2c.3-.7-.3-.8.4-1.1s.3 2.1-.2 2.5.1 1.3-.2 1.6-.7-1.8 0-2.5-.1.8.2.9.3-1.3-.2-1.3-.2.3-.2 0 .1 3.3-.2 4 .4.2.4.4-.4.2-.4.4a.6.6 0 0 1 .4.7 10 10 0 0 1 0 3.6c.7.1.2 1.2.7 1.3zm.2-17.4c.1-.1.3.2.2.2s-.3-.1-.2-.2zm-.4.4c.1-.1.3.2.2.2s-.3-.1-.3-.2zm.4 0c.1-.1.3.2.2.2s-.3-.1-.2-.2zm-1.3 2.2c.2 0 .2.3.2.4s-.2-.2-.2-.3zm0 1.3c.1-.1.3.2.2.2s-.3 0-.2-.1zm.4.9c-.2 0-.3.2-.2.4s.1-.9.4-.9.3-1.3-.2-1.3.7 1.3.2 1.3v1.1c-.2.9-.3-.2-.2-.5zm0 5.6c.3 0 .2.4.2.7s-.2-.3-.2-.6zm1.3 27.4c.1-.1-.1-.3-.2-.2s.1.3.2.2zm-.6-2.9c.4 2.1.4-1.3 0 0zM183 150c.4.5 0 1.8.4 2.2a3.4 3.4 0 0 0 0-1.6c0-.2.7-2.8 0-2.2s.4 2.3-.4 1.6zm.2 6.1v5.1c.3-1.5.6-4.2 0-5.1zm0-35.4c-.1.1.1.3.2.2s0-.3-.2-.2zm0 .9c0 .6.1 1.5-.4.9s0 .5.2 1.3.5-2.8.2-2.2zm0 2.7c-.1.1.1.3.2.2s0-.3-.2-.2z" fill="#4e426c"/><path d="M183.5 125.2c.1-.1-.1-.3-.2-.2s.1.3.2.2zm0 22.6c.1-.1-.1-.3-.2-.2s.1.3.2.2zm0 7.4c-.1-.8.3-2.2-.2-2.7s-.3 2.2.2 2.7zm0 .6c.1-.1-.1-.3-.2-.2s.1.4.2.2zm-.3 34.9c-.4-6 0-15.3 0-22.1 0-2 .2-3.7.2-5.4 0-.1-.5-.2-.4-.4s.7-.1.4-.4-.1-.2 0-.2-.3-.5-.2-.9c-.3-2.4-.3-7-.4-10.1 0-.4.3-1.4-.4-1.3a143.7 143.7 0 0 1 .2 19.5c.4.8-.1 1.2.2 2.2s-1.1.6-.4.9.2-.4.4-.4.3 1.8-.2 2 0-.6-.2-.7-.2.8-.2 1.3.7-.4.7.4c.3 2.6-.5 4.8.2 6.9s-.2 5.5-.2 8.7c0 .2.2.2.2.4s.2-.1.1-.4zm-.7-16.5c.1-.1.3.2.2.2s-.2-.2-.1-.2zm1 17.6a1.6 1.6 0 0 1-.4-.7c-.4.3-.3 1.9 0 2.2h.2c-.2-.8-.4-1 .2-1.5zm0 32.7v-4.2c0-.2 0-.4-.2-.4s-.3 3.5.2 4.6zm0 .7c0-.2 0-.4-.2-.4s0 .4.2.4zm-.3 1.8c.6-1.1-.7-.5 0 0zm-.2-77.9c-.2 1.2.7.3 0 0zm0 51.2c0 .8-.4 1.7.2 2.5v-4c0-1.3.2-2.9-.4-3.4a31.5 31.5 0 0 0 .2 4.9z" fill="#4e426c"/><path d="M182.8 223.8v.9c-.1.4.2.5.2.2-.3-4.7.6-7 0-11 0 .1-.2.3-.2 0s-.3-.2 0-.2a1.7 1.7 0 0 0 .2-1.1 96.1 96.1 0 0 0-.4-11.2V198c.2-.8-.4-.8-.2 0v1.6c.1 2.4-.3 5.3.2 7.4.1.3-.4.7-.4 1.1s.3.9.2 1.3-.4 2.1-.4 3.1.2.8.2 1.1-.6 3.3-.2 4.5 0-.4.2-.4.3-.1 0 0v2.5c0 .3.7.1.7.4s-.4.2-.4.4.1 1.4.2 2 .1.6.1.8zm-.4-11c.1-.1.3.2.2.2s-.3-.1-.2-.1zm-.2 2.2c.5 0 .1.8.2 1.1v1.1c-.6-.2-.1-1.4-.3-2.1zm.4-.7c.5.7.1 2.3.2 3.4-.5-.6-.1-2.2-.2-3.3zm-.2 4.9c.2 0 .2.3.2.4s-.2-.1-.2-.3zm0 .7c.1-.1.3.2.2.2s-.3 0-.2-.1zm.6-96c-.7 0 .2.9 0 0zm0 23c.1-.1-.1-.3-.2-.2s.1.3.2.2zm-.2 2.2h.2c.2-1.3-.4-1.3-.2 0zm.2 44.3c-.7.3.2 1.2 0 0zm0 1.8c.3-1.4-.7-.5 0 0z" fill="#4e426c"/><path d="M183 214c0-.2-.1-.2-.2-.2v.2zm-.6-66.9c0 .3-.3 2.7.4 2s-.3-3.4-.4-2zm.4 83a16.1 16.1 0 0 0-.2-3.6c0-.6.4-1.9-.4-2 0 1.4.3 1.9 0 3.1s.4 0 .4.2-.4.2-.4.4.3 1.7.2 2.9.3-.6.4-1zm-.4-86.3c-.1.1.1.3.2.2s-.1-.4-.2-.2zm0 .9c-.1.1.1.3.2.2s-.1-.4-.2-.2zm0 .6c-.1.1.1.3.2.2s-.1-.3-.2-.2zm0 .7c0 .2 0 .4.2.4s0-.4-.2-.4zm-.3 22.8v2.5c.5.6-.1-1.8.4-2s-.1-.5-.4-.5zm.3 3.6c.1.3.3 0 0 0zm0 22.3c.1.3.3 0 0 0zm0 .5c.1.4-.3 1.3.2 1.3v-.7c-.1-.2 0-.6-.2-.6zm0 1.6c0 .2 0 .4.2.4s0-.4-.2-.4zm.2 26.4c-.5-1.3-.8 1.2 0 1.1s-.4-.7 0-1.1zm-.5-69.6c-.1.1.1.3.2.2s-.1-.3-.2-.2zm0 2.7c-.1.1.1.3.2.2s-.1-.3-.2-.2zm0 .4c-.1.1.1.3.2.2s-.1-.3-.2-.2zm0 11c0 .3-.1.8.2.9s.1-.8-.2-.9zm.3 5.6c.2-.9-.7 0 0 0zm-.3 18.3c0 .2 0 .4.2.4s0-.4-.2-.4zm0 1.8c0 .2 0 .4.2.4s0-.4-.2-.4zm.3 1.3c-.1-.3-.3 0 0 0zm-.3 27.8c.5 0 .1-.9.2-1.3s0 .9-.2 1.3zm.3 8.7c-.3.1 0 .3 0 0zm-.5-81.9c-.1.1.1.3.2.2s-.1-.3-.2-.2zm-1.5 12.3c-.1.1.1.3.2.2s-.1-.3-.2-.2zm-.5 71.8c.1-.1-.1-.3-.2-.2s.1.4.2.2zm-.7-86.3c-.1.1.1.3.2.2s0-.3-.2-.2z" fill="#4e426c"/><g><path d="M205.4 138.4c.5-.4.1-1.7.2-2.5s-.1.5-.4 1.1 0 1 .2 1.4zm-.5 35.8c-.1.1.1.3.2.2s-.1-.3-.2-.2zm.7-48.6v1.1c.3.2.3-1.2 0-1.1zm-.5 11.4h-.2c.1.3.2.2.2 0z" fill="none"/><path d="M205.1 137.5c-.7.6.3 1.5 0 2.5s.6-1.2.2-1.6-.1-.6-.2-.9zm0-10.7v5.1a12.1 12.1 0 0 0 0-5.1zm.3-1.2c-.3.1 0 .3 0 0zm.6 4.3c-.1.1.1.3.2.2s-.1-.3-.2-.2zm-.9 10.5c0 .3 0 .6.2.7s.1-.7-.2-.7zm.3-4.9v-1.1c-.3 0-1.1.6-.4.9s0-.4.2-.4 0 1.3.2.6zm.2-5.2c-.1.1.1.3.2.2s-.1-.3-.2-.2zm1.1 2.3v-.2c-.3 0-.1.2 0 .2zm-1.6.4c.5 0 .1.9.2 1.3s.3-2.2-.2-1.3zm.9-2.7c-.1.1.1.3.2.2s-.1-.3-.2-.2zm-1.3 2.3c0 .2 0 .4.2.4s0-.4-.2-.4zm0 1.3c-.1.1.1.3.2.2s-.1-.3-.2-.2zm-.2 81.2c.1.7-.3 1.9.2 2.2v-1.1c-.1-.3.2-1.1-.2-1.1zm.4-.7c.1 1-.3 2.7.2 3.4-.1-1.1.3-2.7-.2-3.4zm-.2 4.9c0 .2 0 .4.2.4s0-.3-.2-.4zm0-6.4c-.1.1.1.3.2.2s-.1-.4-.2-.2zm-.2 4.9c.3-.1 0-.3 0 0zm.2 2.2c-.1.1.1.3.2.2s-.1-.3-.2-.2zm.7-6h-.2c0 .2.2.1.2 0zm-.3 0v-.2c-.2 0-.1.2 0 .2z" fill="none"/><path d="M208.5 225.2c.1-.1-.1-.3-.2-.2s.1.3.2.2zm-.2-87.7c.1-.1-.1-.3-.2-.2s0 .3.2.2zm-.7 55.9c.1-.1-.1-.3-.2-.2s.1.3.2.2zm-.7-69.8c.1-.1-.1-.3-.2-.2s.1.3.2.2zm0 7.6c.1-.1-.1-.3-.2-.2s.1.3.2.2z" fill="#4e426c"/><path d="M205.8 147.3c0-1.9-.4-3.6-.2-5.4s.6-2 .7-3.4-.1-2.6.4-3.6-.8-1.1-.2-1.3 0 .6.2.7a4.9 4.9 0 0 0 0-1.8c-.1 0-.3-.2 0-.2v.2h.2c0-1.1-.1-1.2-.4-.4v-2.2c-.7-1.6-.2-2.6-.4-4.5-.3 0-.4 0-.4.2s.4 1.2 0 1.1v-1.1h-.2c0 .3-.3.1 0 0a1 1 0 0 0-.4-.9c-.3 1.1.6 1.6.2 2a12.1 12.1 0 0 1 0 5.1v-5.1c-.4.3-.5 1.2-.4 1.3s.3.2.2.4-.2 0-.2.2.3.2.2.4-.2 0-.2.2.1.3-.2 1.1-.4 5.1.4 6.5h.2c.3-.7-.3-.8.4-1.1s.3 2.1-.2 2.5.1 1.3-.2 1.6-.7-1.8 0-2.5-.1.8.2.9.3-1.3-.2-1.3-.2.3-.2 0 .1 3.3-.2 4 .4.2.4.4-.4.2-.4.4a.6.6 0 0 1 .4.7 10 10 0 0 1 0 3.6c.5.1 0 1.2.5 1.3zm.2-17.4c.1-.1.3.2.2.2s-.2-.1-.2-.2zm-.4.4c.1-.1.3.2.2.2s-.3-.1-.2-.2zm.4 0c.1-.1.3.2.2.2s-.2-.1-.2-.2zm-1.3 2.2c.2 0 .2.3.2.4s-.2-.2-.2-.3zm0 1.3c.1-.1.3.2.2.2s-.3 0-.2-.1zm.4.9c-.2 0-.3.2-.2.4s.1-.9.4-.9.3-1.3-.2-1.3.7 1.3.2 1.3v1.1c-.1.9-.2-.2-.2-.5zm0 5.6c.3 0 .2.4.2.7s-.1-.3-.2-.6zm1.4 27.4c.1-.1-.1-.3-.2-.2s.1.3.2.2zm-.7-2.9c.4 2.1.4-1.3 0 0zm-.4-14.8c.4.5 0 1.8.4 2.2a3.4 3.4 0 0 0 0-1.6c0-.2.7-2.8 0-2.2s.3 2.3-.4 1.6zm.2 6.1v5.1c.3-1.5.5-4.2 0-5.1zm0-35.4c-.1.1.1.3.2.2s-.1-.3-.2-.2zm0 .9c0 .6.1 1.5-.4.9s0 .5.2 1.3.4-2.8.2-2.2zm0 2.7c-.1.1.1.3.2.2s-.1-.3-.2-.2z" fill="#4e426c"/><path d="M205.8 125.2c.1-.1-.1-.3-.2-.2s.1.3.2.2zm0 22.6c.1-.1-.1-.3-.2-.2s.1.3.2.2zm0 7.4c-.1-.8.3-2.2-.2-2.7s-.3 2.2.2 2.7zm0 .6c.1-.1-.1-.3-.2-.2s.1.4.2.2z" fill="#4e426c"/><path d="M205.6 190.7c-.4-6 0-15.3 0-22.1 0-2 .2-3.7.2-5.4 0-.1-.5-.2-.4-.4s.7-.1.4-.4-.1-.2 0-.2-.3-.5-.2-.9c-.3-2.4-.3-7-.4-10.1 0-.4.3-1.4-.4-1.3a143.7 143.7 0 0 1 .2 19.5c.4.8-.1 1.2.2 2.2s-1.1.6-.4.9.2-.4.4-.4.3 1.8-.2 2 0-.6-.2-.7-.2.8-.2 1.3.7-.4.7.4c.3 2.6-.5 4.8.2 6.9s-.2 5.5-.2 8.7c0 .2.2.2.2.4s.1-.1.1-.4zm-.7-16.5c.1-.1.3.2.2.2s-.3-.2-.2-.2zm.9 17.6a1.6 1.6 0 0 1-.4-.7c-.4.3-.3 1.9 0 2.2h.2c-.2-.8-.4-1 .2-1.5zm0 32.7v-4.2c0-.2 0-.4-.2-.4s-.3 3.5.2 4.6zm0 .7c0-.2 0-.4-.2-.4s0 .4.2.4zm-.2 1.8c.6-1.1-.7-.5 0 0zm-.2-77.9c-.2 1.2.7.3 0 0zm0 51.2c0 .8-.4 1.7.2 2.5v-4c0-1.3.2-2.9-.4-3.4a31.5 31.5 0 0 0 .2 4.9zm-.3 23.5v.9c-.1.4.2.5.2.2-.3-4.7.6-7 0-11 0 .1-.2.3-.2 0s-.3-.2 0-.2a1.7 1.7 0 0 0 .2-1.1 96.1 96.1 0 0 0-.4-11.2V198c.2-.8-.4-.8-.2 0v1.6c.1 2.4-.3 5.3.2 7.4.1.3-.4.7-.4 1.1s.3.9.2 1.3-.4 2.1-.4 3.1.2.8.2 1.1-.6 3.3-.2 4.5 0-.4.2-.4.3-.1 0 0v2.5c0 .3.7.1.7.4s-.4.2-.4.4.1 1.4.2 2 .1.6.1.8zm-.4-11c.1-.1.3.2.2.2s-.3-.1-.2-.1zm-.2 2.2c.5 0 .1.8.2 1.1v1.1c-.5-.2-.1-1.4-.2-2.1zm.4-.7c.5.7.1 2.3.2 3.4-.5-.6 0-2.2-.2-3.3zm-.2 4.9c.2 0 .2.3.2.4s-.2-.1-.2-.3zm0 .7c.1-.1.3.2.2.2s-.3 0-.2-.1zm.7-96c-.7 0 .2.9 0 0zm0 23c.1-.1-.1-.3-.2-.2s0 .3.2.2zm-.3 2.2h.2c.2-1.3-.3-1.3-.2 0zm.3 44.3c-.7.3.2 1.2 0 0zm0 1.8c.3-1.4-.7-.5 0 0z" fill="#4e426c"/><path d="M205.4 214c0-.2-.1-.2-.2-.2v.2zm-.7-66.9c0 .3-.3 2.7.4 2s-.3-3.4-.4-2zm.4 83a16.1 16.1 0 0 0-.2-3.6c0-.6.4-1.9-.4-2 0 1.4.3 1.9 0 3.1s.4 0 .4.2-.4.2-.4.4.3 1.7.2 2.9.3-.6.4-1zm-.4-86.3c-.1.1.1.3.2.2s-.1-.4-.2-.2zm0 .9c-.1.1.1.3.2.2s-.1-.4-.2-.2zm0 .6c-.1.1.1.3.2.2s-.1-.3-.2-.2zm0 .7c0 .2 0 .4.2.4s0-.4-.2-.4zm-.2 22.8v2.5c.5.6-.1-1.8.4-2s-.1-.5-.4-.5zm.2 3.6c.1.3.3 0 0 0zm0 22.3c.1.3.3 0 0 0zm0 .5c.1.4-.3 1.3.2 1.3v-.7c0-.2 0-.6-.2-.6zm0 1.6c0 .2 0 .4.2.4s0-.4-.2-.4zm.2 26.4c-.5-1.3-.8 1.2 0 1.1s-.4-.7 0-1.1zm-.4-69.6c-.1.1.1.3.2.2s-.1-.3-.2-.2zm0 2.7c-.1.1.1.3.2.2s-.1-.3-.2-.2zm0 .4c-.1.1.1.3.2.2s-.1-.3-.2-.2zm0 11c0 .3-.1.8.2.9s.1-.8-.2-.9zm.2 5.6c.2-.9-.7 0 0 0zm-.2 18.3c0 .2 0 .4.2.4s0-.4-.2-.4zm0 1.8c0 .2 0 .4.2.4s0-.4-.2-.4zm.2 1.3c-.1-.3-.3 0 0 0zm-.2 27.8c.5 0 .1-.9.2-1.3s-.1.9-.2 1.3zm.2 8.7c-.3.1 0 .3 0 0zm-.5-81.9c-.1.1.1.3.2.2s0-.3-.2-.2zm-1.5 12.3c-.1.1.1.3.2.2s-.1-.3-.2-.2zm-.5 71.8c.1-.1-.1-.3-.2-.2s.1.4.2.2zm-.6-86.3c-.1.1.1.3.2.2s-.1-.3-.2-.2z" fill="#4e426c"/></g><g><path d="M203 143.6c.5.5 2.4.1 3.4.2s-.6-.1-1.5-.4-1.4.1-1.9.2zm-49.4-.5c-.1-.1-.5.1-.3.2s.5 0 .3-.2zm66.9.7H219c-.1.4 1.7.4 1.5 0zm-15.7-.4v-.2c-.3 0-.2.2 0 .2z" fill="none"/><path d="M204.2 143.4c-.8-.7-2 .3-3.4 0a2.2 2.2 0 0 0 2.2.2c.1-.3.7-.2 1.2-.2zm14.8 0h-7.1a22.8 22.8 0 0 0 7.1 0zm1.5.2c-.2-.3-.4 0 0 0zm-5.8.7c-.1-.1-.5.1-.3.2s.4-.1.3-.2zm-14.5-.9c-.4 0-.9 0-.9.2s.8 0 .9-.2zm6.8.2h1.5c0-.3-.9-1.1-1.2-.4s.5 0 .6.2-1.9 0-.9.2zm7.1.2c-.1-.1-.5.1-.3.2s.4-.1.3-.2zm-3.1 1.1h.3a.2.2 0 0 0-.3 0zm-.6-1.5c0 .5-1.3.1-1.8.2s3.1.3 1.8-.2zm3.7.9c-.1-.1-.5.1-.3.2s.4-.1.3-.2zm-3.1-1.4c-.2 0-.6 0-.6.2s.6 0 .6-.2zm-1.9 0c-.1-.1-.5.1-.3.2s.5-.1.3-.2zm-111.9-.2c-.9.1-2.7-.3-3.1.2h1.5c.5-.1 1.7.3 1.6-.2zm1 .4c-1.4.1-3.7-.3-4.6.2 1.4-.1 3.6.4 4.6-.2zm-6.8-.2c-.2 0-.6 0-.6.2s.6 0 .6-.2zm8.9 0c-.1-.1-.5.1-.3.2s.5-.1.3-.2zm-6.8-.2c.2.3.4 0 0 0zm-3 .2c-.1-.1-.5.1-.3.2s.4-.1.3-.2zm8.3.7v-.2c-.4 0-.2.2 0 .2zm0-.2h.3a.2.2 0 0 0-.3 0z" fill="none"/><path d="M83.4 146.7c.1.1.5-.1.3-.2s-.5.1-.3.2zm120.8-.2c.1.1.5-.1.3-.2s-.5.1-.3.2zm-77.1-.7c.1.1.5-.1.3-.2s-.4.1-.3.2zm96.2-.7c.1.1.5-.1.3-.2s-.5.1-.3.2zm-10.5 0c.1.1.5-.1.3-.2s-.4.1-.3.2z" fill="#4e426c"/><path d="M190.6 144c2.6 0 5-.4 7.4-.2s2.8.6 4.6.7 3.6-.1 4.9.4 1.6-.8 1.8-.2-.9 0-.9.2a9.3 9.3 0 0 0 2.5 0 .2.2 0 0 1 .3 0h-.2v.2c1.6 0 1.7-.1.6-.4h3.1c2.2-.7 3.6-.2 6.2-.4a.3.3 0 0 0-.3-.4c.1.4-1.7.4-1.5 0h1.5v-.2c-.4 0-.2-.3 0 0a1.6 1.6 0 0 0 1.2-.4c-1.5-.3-2.2.6-2.8.2a22.8 22.8 0 0 1-7.1 0h7.1a3.7 3.7 0 0 0-1.8-.4c-.2 0-.3.3-.6.2s0-.2-.3-.2-.3.3-.6.2 0-.2-.3-.2-.4.1-1.5-.2c-2.9.2-7-.4-8.9.4v.2c.9.3 1.1-.3 1.5.4s-2.9.3-3.4-.2a2.2 2.2 0 0 1-2.2-.2c1.4.3 2.5-.7 3.4 0s-1.1-.1-1.2.2 1.8.3 1.8-.2-.4-.2 0-.2c-1.4-.6-4.5.1-5.5-.2s-.2.4-.6.4a.8.8 0 0 0-.6-.4.9.9 0 0 1-.9.4 18.8 18.8 0 0 1-4.9 0c-.1.6-1.6 0-1.8.5zm24 .2c.2.1-.2.3-.3.2s.3-.2.4-.1zm-.6-.4c.2.1-.2.3-.3.2s.3-.3.4-.2zm0 .4c.2.1-.2.3-.3.2s.3-.2.4-.1zm-3.1-1.3c0 .2-.4.2-.6.2s.4-.1.7-.2zm-1.8 0c.2.1-.2.3-.3.2s.2-.2.3-.2zm-1.2.4c-.1-.2-.3-.3-.6-.2s1.2.1 1.2.4 1.8.3 1.8-.2-1.8.7-1.8.2H207c-1-.1.5-.2.9-.1zm-7.7 0c0 .3-.6.2-.9.2s.5-.1.9-.1zm-37.6 1.4c.1.1.5-.1.3-.2s-.5.1-.3.2zm4-.7c-2.9.4 1.8.4 0 0zm20.3-.4c-.7.4-2.5 0-3.1.4a6.4 6.4 0 0 0 2.2 0c.3 0 3.9.7 3.1 0s-3.2.3-2.2-.4zm-8.3.2h-7.1c2 .3 5.8.5 7.1 0zm48.7 0c-.1-.1-.5.1-.3.2s.5-.1.3-.2zm-1.2 0c-.8 0-2 .1-1.2-.4l-1.8.2c-.4.9 3.8.4 3 .2zm-3.7 0c-.1-.1-.5.1-.3.2s.4-.1.3-.2z" fill="#4e426c"/><path d="M221.1 144c.1.1.5-.1.3-.2s-.4.1-.3.2zm-31.1 0c.1.1.5-.1.3-.2s-.4.1-.3.2zm-10.2 0c1.1-.1 3.1.3 3.7-.2-1.1.2-3-.3-3.7.2zm-.9 0c.1.1.5-.1.3-.2s-.4.1-.3.2z" fill="#4e426c"/><path d="M130.8 143.8c8.3-.4 21.1 0 30.5 0l7.4.2c.1 0 .2-.5.6-.4s.2.7.6.4a.2.2 0 0 1 .3 0c.6 0 .6-.3 1.2-.2 3.3-.3 9.7-.3 13.9-.4.5 0 2 .3 1.8-.4-7.6.6-19.1.5-26.8.2-1.1.4-1.6-.1-3.1.2s-.9-1.1-1.2-.4.6.2.6.4-2.4.3-2.8-.2.9 0 .9-.2-1.1-.2-1.8-.2.6.7-.6.7c-3.6.3-6.6-.5-9.6.2s-7.6-.2-12-.2c-.2 0-.3.2-.6.2s.3.1.7.1zm22.8-.7c.2.1-.2.3-.3.2s.3-.2.3-.2zm-24.3.9l.9-.4c-.4-.4-2.6-.3-3.1 0v.2c1.2-.2 1.6-.3 2.2.2zm-45 0h5.9c.2 0 .6 0 .6-.2-2.1.2-5-.3-6.5.2zm-.9 0c.2 0 .6 0 .6-.2s-.6 0-.6.2zm-2.5-.2c1.5.6.7-.7 0 0zm107.3-.2c-1.6-.2-.4.7 0 0zm-70.6 0c-1.2 0-2.3-.4-3.4.2h5.5c2 0 4 .2 4.6-.4a59.6 59.6 0 0 0-6.7.2z" fill="#4e426c"/><path d="M85.2 143.4H84c-.6-.1-.6.2-.3.2 6.5-.3 9.7.6 15.1 0-.2 0-.4-.2 0-.2a.2.2 0 0 1 .3 0 3.1 3.1 0 0 0 1.5.2c4.6 0 11.3 0 15.4-.4h4.6c1.1.2 1.1-.4 0-.2h-2.2c-3.3.1-7.3-.3-10.2.2-.5.1-.9-.4-1.5-.4s-1.2.3-1.8.2-2.8-.4-4.3-.4l-1.5.2c-2.1 0-4.6-.6-6.2-.2.4 0 .5 0 .6.2s.2.3 0 0h-3.4c-.4 0-.1.7-.6.7a.8.8 0 0 0-.6-.4c-.3.5-1.9.1-2.8.2s-.5 0-.9.1zm15.1-.4c.2.1-.2.3-.3.2s.2-.3.3-.3zm-3.1-.2c.1.5-1.1.1-1.5.2h-1.5c.4-.6 2.1-.2 3-.3zm.9.4c-.9.5-3.2.1-4.6.2 1-.5 3.2-.1 4.7-.3zm-6.8-.2c0 .2-.4.2-.6.2s.4-.2.7-.3zm-.9 0c.2.1-.2.3-.3.2s.3-.3.4-.3zm132.6.6c-.1-.7-1.3.2 0 0zm-31.8 0c.1.1.5-.1.3-.2s-.4.1-.3.2zm-3-.2v.2c1.7.1 1.7-.4 0-.2zm-61.1.2c-.4-.7-1.6.2 0 0zm-2.4 0c2 .3.7-.7 0 0z" fill="#4e426c"/><path d="M98.8 143.6c.3 0 .3-.1.3-.2h-.3zm92.1-.7c-.5 0-3.7-.3-2.8.4s4.8-.3 2.8-.4zm-114.3.5a30.4 30.4 0 0 0 4.9-.2c.9 0 2.7.4 2.8-.4-2 0-2.6.3-4.3 0a.3.3 0 0 1-.3.4c.1-.4-.2-.4-.6-.4s-2.3.3-4 .2c.2.3.9.2 1.5.4zm119-.5c-.1-.1-.5.1-.3.2s.4-.1.3-.2zm-1.3 0c-.1-.1-.5.1-.3.2s.5-.1.3-.2zm-.9 0c-.1-.1-.5.1-.3.2s.5-.1.3-.2zm-.9 0c-.2 0-.6 0-.6.2s.6 0 .6-.2zm-31.5-.2h-3.4c-.8.5 2.5-.1 2.8.4s.6-.1.6-.4zm-4.9.2c-.4.1 0 .3 0 0zm-30.8 0c-.4.1 0 .3 0 0zm-.6 0c-.5.1-1.8-.3-1.8.2h.9c.3 0 .8.1.9-.2zm-2.2 0c-.2 0-.6 0-.6.2s.6 0 .6-.2zm-36.4.2c1.8-.5-1.6-.8-1.5 0s1-.4 1.5 0zm95.9-.4c-.1-.1-.5.1-.3.2s.5-.1.3-.2zm-3.7 0c-.1-.1-.5.1-.3.2s.5-.1.3-.2zm-.6 0c-.1-.1-.5.1-.3.2s.4-.1.3-.2zm-15.1 0c-.5 0-1.1-.1-1.2.2s1.1.1 1.2-.2zm-7.7.2c1.3.2.1-.7 0 0zm-25.3-.2c-.2 0-.6 0-.6.2s.6 0 .6-.2zm-2.5 0c-.2 0-.6 0-.6.2s.6 0 .6-.2zm-1.8.2c.4-.1 0-.3 0 0zm-38.2-.2c0 .5 1.3.1 1.8.2s-1.3-.1-1.8-.2zm-12.1.2c-.2-.3-.4 0 0 0zm112.9-.4c-.1-.1-.5.1-.3.2s.4-.1.3-.2zm-17-1.6c-.1-.1-.5.1-.3.2s.5-.1.3-.2zm-98.9-.4c.1.1.5-.1.3-.2s-.5.1-.3.2zm118.9-.7c-.1-.1-.5.1-.3.2s.5-.1.3-.2z" fill="#4e426c"/></g><g><path d="M203 165.9c.5.5 2.4.1 3.4.2s-.6-.1-1.5-.4-1.4.1-1.9.2zm-49.4-.4c-.1-.1-.5.1-.3.2s.5-.1.3-.2zm66.9.6H219c-.1.4 1.7.4 1.5 0zm-15.7-.4v-.2c-.3 0-.2.2 0 .2z" fill="none"/><path d="M204.2 165.7c-.8-.7-2 .3-3.4 0a2.2 2.2 0 0 0 2.2.2c.1-.3.7-.2 1.2-.2zm14.8 0h-7.1a22.8 22.8 0 0 0 7.1 0zm1.5.2c-.2-.3-.4 0 0 0zm-5.8.7c-.1-.1-.5.1-.3.2s.4-.1.3-.2zm-14.5-.9c-.4 0-.9 0-.9.2s.8.1.9-.2zm6.8.2h1.5c0-.3-.9-1.1-1.2-.4s.5 0 .6.2-1.9 0-.9.2zm7.1.2c-.1-.1-.5.1-.3.2s.4 0 .3-.2zm-3.1 1.2h.3a.2.2 0 0 0-.3 0zm-.6-1.6c0 .5-1.3.1-1.8.2s3.1.3 1.8-.2zm3.7.9c-.1-.1-.5.1-.3.2s.4-.1.3-.2zm-3.1-1.4c-.2 0-.6 0-.6.2s.6.1.6-.2zm-1.9 0c-.1-.1-.5.1-.3.2s.5 0 .3-.2zM97.2 165c-.9.1-2.7-.3-3.1.2h1.5c.5-.1 1.7.3 1.6-.2zm1 .5c-1.4.1-3.7-.3-4.6.2 1.4-.1 3.6.3 4.6-.2zm-6.8-.3c-.2 0-.6 0-.6.2s.6.1.6-.2zm8.9 0c-.1-.1-.5.1-.3.2s.5 0 .3-.2zm-6.8-.2c.2.3.4 0 0 0zm-3 .2c-.1-.1-.5.1-.3.2s.4 0 .3-.2zm8.3.7v-.2c-.4 0-.2.2 0 .2zm0-.2h.3a.2.2 0 0 0-.3 0z" fill="none"/><path d="M83.4 169c.1.1.5-.1.3-.2s-.5.1-.3.2zm120.8-.2c.1.1.5-.1.3-.2s-.5.1-.3.2zm-77.1-.7c.1.1.5-.1.3-.2s-.4.1-.3.2zm96.2-.6c.1.1.5-.1.3-.2s-.5.1-.3.2zm-10.5 0c.1.1.5-.1.3-.2s-.4.1-.3.2z" fill="#4e426c"/><path d="M190.6 166.4c2.6 0 5-.4 7.4-.2s2.8.6 4.6.7 3.6-.1 4.9.4 1.6-.8 1.8-.2-.9 0-.9.2a9.3 9.3 0 0 0 2.5 0 .2.2 0 0 1 .3 0h-.2v.2c1.6 0 1.7-.1.6-.4h3.1c2.2-.7 3.6-.2 6.2-.4a.3.3 0 0 0-.3-.4c.1.4-1.7.4-1.5 0h1.5v-.2c-.4 0-.2-.3 0 0a1.6 1.6 0 0 0 1.2-.4c-1.5-.3-2.2.6-2.8.2a22.8 22.8 0 0 1-7.1 0h7.1a3.7 3.7 0 0 0-1.8-.4c-.2 0-.3.3-.6.2s0-.2-.3-.2-.3.3-.6.2 0-.2-.3-.2-.4.1-1.5-.2c-2.9.2-7-.4-8.9.4v.2c.9.3 1.1-.3 1.5.4s-2.9.3-3.4-.2a2.2 2.2 0 0 1-2.2-.2c1.4.3 2.5-.7 3.4 0s-1.1-.1-1.2.2 1.8.3 1.8-.2-.4-.2 0-.2c-1.4-.6-4.5.1-5.5-.2s-.2.4-.6.4a.8.8 0 0 0-.6-.4.9.9 0 0 1-.9.4 18.8 18.8 0 0 1-4.9 0c-.1.5-1.6 0-1.8.5zm24 .2c.2.1-.2.3-.3.2s.3-.3.4-.2zm-.6-.4c.2.1-.2.3-.3.2s.3-.3.4-.3zm0 .4c.2.1-.2.3-.3.2s.3-.3.4-.2zm-3.1-1.3c0 .2-.4.2-.6.2s.4-.2.7-.3zm-1.8 0c.2.1-.2.3-.3.2s.2-.3.3-.3zm-1.2.4c-.1-.2-.3-.3-.6-.2s1.2.1 1.2.4 1.8.3 1.8-.2-1.8.7-1.8.2H207c-1-.2.5-.3.9-.2zm-7.7 0c0 .3-.6.2-.9.2s.5-.2.9-.2zm-37.6 1.3c.1.1.5-.1.3-.2s-.5.1-.3.2zm4-.6c-2.9.4 1.8.4 0 0zm20.3-.5c-.7.4-2.5 0-3.1.4a6.4 6.4 0 0 0 2.2 0c.3 0 3.9.7 3.1 0s-3.2.4-2.2-.4zm-8.3.2h-7.1c2 .3 5.8.6 7.1 0zm48.7 0c-.1-.1-.5.1-.3.2s.5 0 .3-.2zm-1.2 0c-.8 0-2 .1-1.2-.4l-1.8.2c-.4.9 3.8.4 3 .2zm-3.7 0c-.1-.1-.5.1-.3.2s.4 0 .3-.2z" fill="#4e426c"/><path d="M221.1 166.4c.1.1.5-.1.3-.2s-.4 0-.3.2zm-31.1 0c.1.1.5-.1.3-.2s-.4 0-.3.2zm-10.2 0c1.1-.1 3.1.3 3.7-.2-1.1.1-3-.3-3.7.2zm-.9 0c.1.1.5-.1.3-.2s-.4 0-.3.2zm-48.1-.3c8.3-.4 21.1 0 30.5 0l7.4.2c.1 0 .2-.5.6-.4s.2.7.6.4a.2.2 0 0 1 .3 0c.6 0 .6-.3 1.2-.2 3.3-.3 9.7-.3 13.9-.4.5 0 2 .3 1.8-.4-7.6.6-19.1.5-26.8.2-1.1.4-1.6-.1-3.1.2s-.9-1.1-1.2-.4.6.2.6.4-2.4.3-2.8-.2.9 0 .9-.2-1.1-.2-1.8-.2.6.7-.6.7c-3.6.3-6.6-.5-9.6.2s-7.6-.2-12-.2c-.2 0-.3.2-.6.2s.3.2.7.1zm22.8-.7c.2.1-.2.3-.3.2s.3-.2.3-.1z" fill="#4e426c"/><path d="M129.3 166.4l.9-.4c-.4-.4-2.6-.3-3.1 0v.2c1.2-.2 1.6-.4 2.2.2zm-45 0h5.9c.2 0 .6 0 .6-.2-2.1.1-5-.4-6.5.2zm-.9 0c.2 0 .6 0 .6-.2s-.6-.1-.6.2zm-2.5-.3c1.5.6.7-.7 0 0zm107.3-.2c-1.6-.2-.4.7 0 0zm-70.6 0c-1.2 0-2.3-.4-3.4.2h5.5c2 0 4 .2 4.6-.4a59.6 59.6 0 0 0-6.7.2z" fill="#4e426c"/><path d="M85.2 165.7H84c-.6-.1-.6.2-.3.2 6.5-.3 9.7.6 15.1 0-.2 0-.4-.2 0-.2a.2.2 0 0 1 .3 0 3.1 3.1 0 0 0 1.5.2c4.6 0 11.3 0 15.4-.4h4.6c1.1.2 1.1-.4 0-.2h-2.2c-3.3.1-7.3-.3-10.2.2-.5.1-.9-.4-1.5-.4s-1.2.3-1.8.2-2.8-.4-4.3-.4l-1.5.2c-2.1 0-4.6-.6-6.2-.2.4 0 .5 0 .6.2s.2.3 0 0h-3.4c-.4 0-.1.7-.6.7a.8.8 0 0 0-.6-.4c-.3.5-1.9.1-2.8.2s-.5.1-.9.1zm15.1-.4c.2.1-.2.3-.3.2s.2-.3.3-.3zm-3.1-.2c.1.5-1.1.1-1.5.2h-1.5c.4-.6 2.1-.1 3-.3zm.9.4c-.9.5-3.2.1-4.6.2 1-.5 3.2-.1 4.7-.2zm-6.8-.2c0 .2-.4.2-.6.2s.4-.2.7-.3zm-.9 0c.2.1-.2.3-.3.2s.3-.3.4-.3zm132.6.6c-.1-.7-1.3.2 0 0zm-31.8 0c.1.1.5-.1.3-.2s-.4.1-.3.2zm-3-.2v.2c1.7.2 1.7-.4 0-.2zm-61.1.2c-.4-.7-1.6.2 0 0zm-2.4 0c2 .3.7-.7 0 0z" fill="#4e426c"/><path d="M98.8 165.9c.3 0 .3-.1.3-.2h-.3zm92.1-.7c-.5 0-3.7-.3-2.8.4s4.8-.2 2.8-.4zm-114.3.5a30.4 30.4 0 0 0 4.9-.2c.9 0 2.7.4 2.8-.4-2 0-2.6.3-4.3 0a.3.3 0 0 1-.3.4c.1-.4-.2-.4-.6-.4s-2.3.3-4 .2c.2.3.9.3 1.5.4zm119-.5c-.1-.1-.5.1-.3.2s.4 0 .3-.2zm-1.3 0c-.1-.1-.5.1-.3.2s.5 0 .3-.2zm-.9 0c-.1-.1-.5.1-.3.2s.5 0 .3-.2zm-.9 0c-.2 0-.6 0-.6.2s.6.1.6-.2zM161 165h-3.4c-.8.5 2.5-.1 2.8.4s.6-.1.6-.4zm-4.9.2c-.4.1 0 .3 0 0zm-30.8 0c-.4.1 0 .3 0 0zm-.6 0c-.5.1-1.8-.3-1.8.2h.9c.3 0 .8.1.9-.2zm-2.2 0c-.2 0-.6 0-.6.2s.6.1.6-.2zm-36.4.3c1.8-.5-1.6-.8-1.5 0s1-.4 1.5 0zm95.9-.5c-.1-.1-.5.1-.3.2s.5-.1.3-.2zm-3.7 0c-.1-.1-.5.1-.3.2s.5-.1.3-.2zm-.6 0c-.1-.1-.5.1-.3.2s.4-.1.3-.2zm-15.1 0c-.5 0-1.1-.1-1.2.2s1.1.1 1.2-.2zm-7.7.2c1.3.2.1-.7 0 0zm-25.3-.2c-.2 0-.6 0-.6.2s.6 0 .6-.2zm-2.5 0c-.2 0-.6 0-.6.2s.6 0 .6-.2zm-1.8.2c.4-.1 0-.3 0 0zm-38.2-.2c0 .5 1.3.1 1.8.2s-1.3 0-1.8-.2zm-12.1.2c-.2-.3-.4 0 0 0zm112.9-.4c-.1-.1-.5.1-.3.2s.4-.1.3-.2zm-17-1.6c-.1-.1-.5.1-.3.2s.5 0 .3-.2zm-98.9-.4c.1.1.5-.1.3-.2s-.5.1-.3.2zm118.9-.7c-.1-.1-.5.1-.3.2s.5-.1.3-.2z" fill="#4e426c"/></g><g><path d="M203 188.2c.5.5 2.4.1 3.4.2s-.6-.1-1.5-.4-1.4.1-1.9.2zm-49.4-.4c-.1-.1-.5.1-.3.2s.5-.1.3-.2zm66.9.7H219c-.1.3 1.7.3 1.5 0zm-15.7-.5v-.2c-.3 0-.2.2 0 .2z" fill="none"/><path d="M204.2 188c-.8-.7-2 .3-3.4 0a2.2 2.2 0 0 0 2.2.2c.1-.3.7-.1 1.2-.2zm14.8 0h-7.1a22.8 22.8 0 0 0 7.1 0zm1.5.2c-.2-.3-.4 0 0 0zm-5.8.7c-.1-.1-.5.1-.3.2s.4-.1.3-.2zm-14.5-.9c-.4 0-.9 0-.9.2s.8.1.9-.2zm6.8.2h1.5c0-.3-.9-1.1-1.2-.4s.5 0 .6.2-1.9.1-.9.2zm7.1.3c-.1-.1-.5.1-.3.2s.4-.1.3-.2zm-3.1 1.1h.3a.2.2 0 0 0-.3 0zm-.6-1.6c0 .5-1.3.1-1.8.2s3.1.3 1.8-.2zm3.7.9c-.1-.1-.5.1-.3.2s.4-.1.3-.2zm-3.1-1.3c-.2 0-.6 0-.6.2s.6 0 .6-.2zm-1.9 0c-.1-.1-.5.1-.3.2s.5-.1.3-.2zm-111.9-.2c-.9.1-2.7-.3-3.1.2h1.5c.5-.1 1.7.2 1.6-.2zm1 .4c-1.4.1-3.7-.3-4.6.2 1.4-.1 3.6.3 4.6-.2zm-6.8-.2c-.2 0-.6 0-.6.2s.6 0 .6-.2zm8.9 0c-.1-.1-.5.1-.3.2s.5-.1.3-.2zm-6.8-.2c.2.3.4 0 0 0zm-3 .2c-.1-.1-.5.1-.3.2s.4-.1.3-.2zm8.3.6v-.2c-.4.1-.2.2 0 .2zm0-.2h.3a.2.2 0 0 0-.3 0z" fill="none"/><path d="M83.4 191.4c.1.1.5-.1.3-.2s-.5.1-.3.2zm120.8-.3c.1.1.5-.1.3-.2s-.5.1-.3.2zm-77.1-.6c.1.1.5-.1.3-.2s-.4.1-.3.2zm96.2-.7c.1.1.5-.1.3-.2s-.5.1-.3.2zm-10.5 0c.1.1.5-.1.3-.2s-.4.1-.3.2z" fill="#4e426c"/><path d="M190.6 188.7c2.6 0 5-.4 7.4-.2s2.8.6 4.6.7 3.6-.1 4.9.4 1.6-.8 1.8-.2-.9 0-.9.2a9.3 9.3 0 0 0 2.5 0 .2.2 0 0 1 .3 0h-.2v.2c1.6 0 1.7-.1.6-.4h3.1c2.2-.7 3.6-.2 6.2-.4a.3.3 0 0 0-.3-.4c.1.4-1.7.4-1.5 0h1.5v-.2c-.4 0-.2-.3 0 0a1.6 1.6 0 0 0 1.2-.4c-1.5-.3-2.2.6-2.8.2a22.8 22.8 0 0 1-7.1 0h7.1a3.7 3.7 0 0 0-1.8-.4c-.2 0-.3.3-.6.2s0-.2-.3-.2-.3.3-.6.2 0-.2-.3-.2-.4.1-1.5-.2c-2.9.2-7-.4-8.9.4v.2c.9.3 1.1-.3 1.5.4s-2.9.3-3.4-.2a2.2 2.2 0 0 1-2.2-.2c1.4.3 2.5-.7 3.4 0s-1.1-.1-1.2.2 1.8.3 1.8-.2-.4-.2 0-.2c-1.4-.6-4.5.1-5.5-.2s-.2.4-.6.4a.8.8 0 0 0-.6-.4.9.9 0 0 1-.9.4 18.8 18.8 0 0 1-4.9 0c-.1.5-1.6 0-1.8.5zm24 .2c.2.1-.2.3-.3.2s.3-.2.4-.2zm-.6-.4c.2.1-.2.3-.3.2s.3-.3.4-.2zm0 .4c.2.1-.2.3-.3.2s.3-.2.4-.2zm-3.1-1.3c0 .2-.4.2-.6.2s.4-.2.7-.2zm-1.8 0c.2.1-.2.3-.3.2s.2-.3.3-.2zm-1.2.4c-.1-.2-.3-.3-.6-.2s1.2.1 1.2.4 1.8.3 1.8-.2-1.8.7-1.8.2H207c-1-.1.5-.2.9-.2zm-7.7 0c0 .3-.6.2-.9.2s.5-.1.9-.2zm-37.6 1.4c.1.1.5-.1.3-.2s-.5 0-.3.2zm4-.7c-2.9.4 1.8.4 0 0zm20.3-.5c-.7.4-2.5 0-3.1.4a6.4 6.4 0 0 0 2.2 0c.3 0 3.9.7 3.1 0s-3.2.4-2.2-.4zm-8.3.3h-7.1c2 .3 5.8.5 7.1 0zm48.7 0c-.1-.1-.5.1-.3.2s.5-.1.3-.2zm-1.2 0c-.8 0-2 .1-1.2-.4l-1.8.2c-.4.8 3.8.4 3 .2zm-3.7 0c-.1-.1-.5.1-.3.2s.4-.1.3-.2z" fill="#4e426c"/><path d="M221.1 188.7c.1.1.5-.1.3-.2s-.4.1-.3.2zm-31.1 0c.1.1.5-.1.3-.2s-.4.1-.3.2zm-10.2 0c1.1-.1 3.1.3 3.7-.2-1.1.1-3-.3-3.7.2zm-.9 0c.1.1.5-.1.3-.2s-.4.1-.3.2z" fill="#4e426c"/><path d="M130.8 188.5c8.3-.4 21.1 0 30.5 0l7.4.2c.1 0 .2-.5.6-.4s.2.7.6.4a.2.2 0 0 1 .3 0c.6 0 .6-.3 1.2-.2 3.3-.3 9.7-.3 13.9-.4.5 0 2 .3 1.8-.4-7.6.6-19.1.5-26.8.2-1.1.4-1.6-.1-3.1.2s-.9-1.1-1.2-.4.6.2.6.4-2.4.3-2.8-.2.9 0 .9-.2-1.1-.2-1.8-.2.6.7-.6.7c-3.6.3-6.6-.5-9.6.2s-7.6-.2-12-.2c-.2 0-.3.2-.6.2s.3.1.7.1zm22.8-.7c.2.1-.2.3-.3.2s.3-.3.3-.2zm-24.3.9l.9-.4c-.4-.4-2.6-.3-3.1 0v.2c1.2-.2 1.6-.4 2.2.2zm-45 0h5.9c.2 0 .6 0 .6-.2-2.1.1-5-.3-6.5.2zm-.9 0c.2 0 .6 0 .6-.2s-.6 0-.6.2zm-2.5-.2c1.5.6.7-.7 0 0zm107.3-.3c-1.6-.2-.4.7 0 0zm-70.6 0c-1.2 0-2.3-.4-3.4.2h5.5c2 0 4 .2 4.6-.4a59.6 59.6 0 0 0-6.7.2z" fill="#4e426c"/><path d="M85.2 188H84c-.6-.1-.6.2-.3.2 6.5-.3 9.7.6 15.1 0-.2 0-.4-.2 0-.2a.2.2 0 0 1 .3 0 3.1 3.1 0 0 0 1.5.2c4.6 0 11.3 0 15.4-.4h4.6c1.1.2 1.1-.4 0-.2h-2.2c-3.3.1-7.3-.3-10.2.2-.5.1-.9-.4-1.5-.4s-1.2.3-1.8.2-2.8-.4-4.3-.4l-1.5.2c-2.1 0-4.6-.6-6.2-.2.4 0 .5 0 .6.2s.2.3 0 0h-3.4c-.4 0-.1.7-.6.7a.8.8 0 0 0-.6-.4c-.3.5-1.9.1-2.8.2s-.5.1-.9.1zm15.1-.4c.2.1-.2.3-.3.2s.2-.3.3-.2zm-3.1-.2c.1.5-1.1.1-1.5.2h-1.5c.4-.5 2.1-.1 3-.2zm.9.4c-.9.5-3.2.1-4.6.2 1-.5 3.2-.1 4.7-.2zm-6.8-.2c0 .2-.4.2-.6.2s.4-.2.7-.2zm-.9 0c.2.1-.2.3-.3.2s.3-.3.4-.2zm132.6.6c-.1-.7-1.3.2 0 0zm-31.8 0c.1.1.5-.1.3-.2s-.4.1-.3.2zm-3-.2v.2c1.7.2 1.7-.3 0-.2zm-61.1.2c-.4-.7-1.6.2 0 0zm-2.4 0c2 .3.7-.7 0 0z" fill="#4e426c"/><path d="M98.8 188.2c.3 0 .3-.1.3-.2h-.3zm92.1-.6c-.5 0-3.7-.3-2.8.4s4.8-.3 2.8-.4zm-114.3.4a30.4 30.4 0 0 0 4.9-.2c.9 0 2.7.4 2.8-.4-2 0-2.6.3-4.3 0a.3.3 0 0 1-.3.4c.1-.4-.2-.4-.6-.4s-2.3.3-4 .2c.2.3.9.3 1.5.4zm119-.4c-.1-.1-.5.1-.3.2s.4-.1.3-.2zm-1.3 0c-.1-.1-.5.1-.3.2s.5-.1.3-.2zm-.9 0c-.1-.1-.5.1-.3.2s.5-.1.3-.2zm-.9 0c-.2 0-.6 0-.6.2s.6 0 .6-.2zm-31.5-.2h-3.4c-.8.5 2.5-.1 2.8.4s.6-.1.6-.4zm-4.9.2c-.4.1 0 .3 0 0zm-30.8 0c-.4.1 0 .3 0 0zm-.6 0c-.5.1-1.8-.3-1.8.2h.9c.3 0 .8 0 .9-.2zm-2.2 0c-.2 0-.6 0-.6.2s.6 0 .6-.2zm-36.4.2c1.8-.5-1.6-.8-1.5 0s1-.4 1.5 0zm95.9-.4c-.1-.1-.5.1-.3.2s.5-.1.3-.2zm-3.7 0c-.1-.1-.5.1-.3.2s.5-.1.3-.2zm-.6 0c-.1-.1-.5.1-.3.2s.4-.1.3-.2zm-15.1 0c-.5 0-1.1-.1-1.2.2s1.1.1 1.2-.2zm-7.7.2c1.3.2.1-.7 0 0zm-25.3-.2c-.2 0-.6 0-.6.2s.6 0 .6-.2zm-2.5 0c-.2 0-.6 0-.6.2s.6 0 .6-.2zm-1.8.2c.4-.1 0-.3 0 0zm-38.2-.2c0 .5 1.3.1 1.8.2s-1.3-.1-1.8-.2zm-12.1.2c-.2-.3-.4 0 0 0zm112.9-.5c-.1-.1-.5.1-.3.2s.4 0 .3-.2zm-17-1.5c-.1-.1-.5.1-.3.2s.5-.1.3-.2zm-98.9-.5c.1.1.5-.1.3-.2s-.5.1-.3.2zm118.9-.6c-.1-.1-.5.1-.3.2s.5-.1.3-.2z" fill="#4e426c"/></g><g><path d="M203 210.6c.5.5 2.4.1 3.4.2s-.6-.1-1.5-.4-1.4.1-1.9.2zm-49.4-.5c-.1-.1-.5.1-.3.2s.5-.1.3-.2zm66.9.7H219c-.1.4 1.7.4 1.5 0zm-15.7-.4v-.2c-.3 0-.2.2 0 .2z" fill="none"/><path d="M204.2 210.4c-.8-.7-2 .3-3.4 0a2.2 2.2 0 0 0 2.2.2c.1-.3.7-.2 1.2-.2zm14.8 0h-7.1a22.8 22.8 0 0 0 7.1 0zm1.5.2c-.2-.3-.4 0 0 0zm-5.8.6c-.1-.1-.5.1-.3.2s.4 0 .3-.2zm-14.5-.8c-.4 0-.9 0-.9.2s.8 0 .9-.2zm6.8.2h1.5c0-.3-.9-1.1-1.2-.4s.5 0 .6.2-1.9 0-.9.2zm7.1.2c-.1-.1-.5.1-.3.2s.4-.1.3-.2zm-3.1 1.1h.3a.2.2 0 0 0-.3 0zm-.6-1.5c0 .5-1.3.1-1.8.2s3.1.2 1.8-.2zm3.7.8c-.1-.1-.5.1-.3.2s.4 0 .3-.2zm-3.1-1.3c-.2 0-.6 0-.6.2s.6 0 .6-.2zm-1.9 0c-.1-.1-.5.1-.3.2s.5-.1.3-.2zm-111.9-.2c-.9.1-2.7-.3-3.1.2h1.5c.5-.1 1.7.3 1.6-.2zm1 .4c-1.4.1-3.7-.3-4.6.2 1.4-.1 3.6.3 4.6-.2zm-6.8-.2c-.2 0-.6 0-.6.2s.6 0 .6-.2zm8.9 0c-.1-.1-.5.1-.3.2s.5-.1.3-.2zm-6.8-.2c.2.3.4 0 0 0zm-3 .2c-.1-.1-.5.1-.3.2s.4-.1.3-.2zm8.3.7v-.2c-.4 0-.2.2 0 .2zm0-.2h.3a.2.2 0 0 0-.3 0z" fill="none"/><path d="M83.4 213.7c.1.1.5-.1.3-.2s-.5.1-.3.2zm120.8-.2c.1.1.5-.1.3-.2s-.5.1-.3.2zm-77.1-.7c.1.1.5-.1.3-.2s-.4.1-.3.2zm96.2-.7c.1.1.5-.1.3-.2s-.5.1-.3.2zm-10.5 0c.1.1.5-.1.3-.2s-.4.1-.3.2z" fill="#4e426c"/><path d="M190.6 211c2.6 0 5-.4 7.4-.2s2.8.6 4.6.7 3.6-.1 4.9.4 1.6-.8 1.8-.2-.9 0-.9.2a9.3 9.3 0 0 0 2.5 0 .2.2 0 0 1 .3 0h-.2v.2c1.6 0 1.7-.1.6-.4h3.1c2.2-.7 3.6-.2 6.2-.4a.3.3 0 0 0-.3-.4c.1.4-1.7.4-1.5 0h1.5v-.2c-.4 0-.2-.3 0 0a1.6 1.6 0 0 0 1.2-.4c-1.5-.3-2.2.6-2.8.2a22.8 22.8 0 0 1-7.1 0h7.1a3.7 3.7 0 0 0-1.8-.4c-.2 0-.3.3-.6.2s0-.2-.3-.2-.3.3-.6.2 0-.2-.3-.2-.4.1-1.5-.2c-2.9.2-7-.4-8.9.4v.2c.9.3 1.1-.3 1.5.4s-2.9.3-3.4-.2a2.2 2.2 0 0 1-2.2-.2c1.4.3 2.5-.7 3.4 0s-1.1-.1-1.2.2 1.8.3 1.8-.2-.4-.2 0-.2c-1.4-.6-4.5.1-5.5-.2s-.2.4-.6.4a.8.8 0 0 0-.6-.4.9.9 0 0 1-.9.4 18.8 18.8 0 0 1-4.9 0c-.1.6-1.6 0-1.8.5zm24 .2c.2.1-.2.3-.3.2s.3-.2.4-.2zm-.6-.4c.2.1-.2.3-.3.2s.3-.3.4-.2zm0 .4c.2.1-.2.3-.3.2s.3-.2.4-.2zm-3.1-1.3c0 .2-.4.2-.6.2s.4-.1.7-.2zm-1.8 0c.2.1-.2.3-.3.2s.2-.2.3-.2zm-1.2.4c-.1-.2-.3-.3-.6-.2s1.2.1 1.2.4 1.8.3 1.8-.2-1.8.7-1.8.2H207c-1-.1.5-.2.9-.1zm-7.7 0c0 .3-.6.2-.9.2s.5-.1.9-.1zm-37.6 1.4c.1.1.5-.1.3-.2s-.5.1-.3.2zm4-.7c-2.9.4 1.8.4 0 0zm20.3-.4c-.7.4-2.5 0-3.1.4a6.4 6.4 0 0 0 2.2 0c.3 0 3.9.7 3.1 0s-3.2.3-2.2-.4zm-8.3.2h-7.1c2 .3 5.8.5 7.1 0zm48.7 0c-.1-.1-.5.1-.3.2s.5-.1.3-.2zm-1.2 0c-.8 0-2 .1-1.2-.4l-1.8.2c-.4.8 3.8.4 3 .2zm-3.7 0c-.1-.1-.5.1-.3.2s.4-.1.3-.2z" fill="#4e426c"/><path d="M221.1 211c.1.1.5-.1.3-.2s-.4.1-.3.2zm-31.1 0c.1.1.5-.1.3-.2s-.4.1-.3.2zm-10.2 0c1.1-.1 3.1.3 3.7-.2-1.1.1-3-.3-3.7.2zm-.9 0c.1.1.5-.1.3-.2s-.4.1-.3.2z" fill="#4e426c"/><path d="M130.8 210.8c8.3-.4 21.1 0 30.5 0l7.4.2c.1 0 .2-.5.6-.4s.2.7.6.4a.2.2 0 0 1 .3 0c.6 0 .6-.3 1.2-.2 3.3-.3 9.7-.3 13.9-.4.5 0 2 .3 1.8-.4-7.6.6-19.1.5-26.8.2-1.1.4-1.6-.1-3.1.2s-.9-1.1-1.2-.4.6.2.6.4-2.4.3-2.8-.2.9 0 .9-.2-1.1-.2-1.8-.2.6.7-.6.7c-3.6.3-6.6-.5-9.6.2s-7.6-.2-12-.2c-.2 0-.3.2-.6.2s.3.1.7.1zm22.8-.7c.2.1-.2.3-.3.2s.3-.2.3-.2zm-24.3.9l.9-.4c-.4-.4-2.6-.3-3.1 0v.2c1.2-.2 1.6-.3 2.2.2zm-45 0h5.9c.2 0 .6 0 .6-.2-2.1.1-5-.3-6.5.2zm-.9 0c.2 0 .6 0 .6-.2s-.6 0-.6.2zm-2.5-.2c1.5.6.7-.7 0 0zm107.3-.2c-1.6-.2-.4.7 0 0zm-70.6 0c-1.2 0-2.3-.4-3.4.2h5.5c2 0 4 .2 4.6-.4a59.6 59.6 0 0 0-6.7.2z" fill="#4e426c"/><path d="M85.2 210.4H84c-.6-.1-.6.2-.3.2 6.5-.3 9.7.6 15.1 0-.2 0-.4-.2 0-.2a.2.2 0 0 1 .3 0 3.1 3.1 0 0 0 1.5.2c4.6 0 11.3 0 15.4-.4h4.6c1.1.2 1.1-.4 0-.2h-2.2c-3.3.1-7.3-.3-10.2.2-.5.1-.9-.4-1.5-.4s-1.2.3-1.8.2-2.8-.4-4.3-.4l-1.5.2c-2.1 0-4.6-.6-6.2-.2.4 0 .5 0 .6.2s.2.3 0 0h-3.4c-.4 0-.1.7-.6.7a.8.8 0 0 0-.6-.4c-.3.5-1.9.1-2.8.2s-.5 0-.9.1zm15.1-.4c.2.1-.2.3-.3.2s.2-.3.3-.3zm-3.1-.2c.1.5-1.1.1-1.5.2h-1.5c.4-.6 2.1-.2 3-.3zm.9.4c-.9.5-3.2.1-4.6.2 1-.6 3.2-.1 4.7-.3zm-6.8-.2c0 .2-.4.2-.6.2s.4-.2.7-.3zm-.9 0c.2.1-.2.3-.3.2s.3-.3.4-.3zm132.6.6c-.1-.7-1.3.2 0 0zm-31.8 0c.1.1.5-.1.3-.2s-.4.1-.3.2zm-3-.2v.2c1.7.1 1.7-.4 0-.2zm-61.1.2c-.4-.7-1.6.2 0 0zm-2.4 0c2 .3.7-.7 0 0z" fill="#4e426c"/><path d="M98.8 210.6c.3 0 .3-.1.3-.2h-.3zm92.1-.7c-.5 0-3.7-.3-2.8.4s4.8-.3 2.8-.4zm-114.3.5a30.4 30.4 0 0 0 4.9-.2c.9 0 2.7.4 2.8-.4-2 0-2.6.3-4.3 0a.3.3 0 0 1-.3.4c.1-.4-.2-.4-.6-.4s-2.3.3-4 .2c.2.2.9.2 1.5.4zm119-.5c-.1-.1-.5.1-.3.2s.4-.1.3-.2zm-1.3 0c-.1-.1-.5.1-.3.2s.5-.1.3-.2zm-.9 0c-.1-.1-.5.1-.3.2s.5-.1.3-.2zm-.9 0c-.2 0-.6 0-.6.2s.6 0 .6-.2zm-31.5-.2h-3.4c-.8.5 2.5-.1 2.8.4s.6-.1.6-.4zm-4.9.2c-.4.1 0 .3 0 0zm-30.8 0c-.4.1 0 .3 0 0zm-.6 0c-.5.1-1.8-.3-1.8.2h.9c.3 0 .8.1.9-.2zm-2.2 0c-.2 0-.6 0-.6.2s.6 0 .6-.2zm-36.4.2c1.8-.5-1.6-.8-1.5 0s1-.4 1.5 0zm95.9-.4c-.1-.1-.5.1-.3.2s.5-.1.3-.2zm-3.7 0c-.1-.1-.5.1-.3.2s.5-.1.3-.2zm-.6 0c-.1-.1-.5.1-.3.2s.4-.1.3-.2zm-15.1 0c-.5 0-1.1-.1-1.2.2s1.1.1 1.2-.2zm-7.7.2c1.3.2.1-.7 0 0zm-25.3-.2c-.2 0-.6 0-.6.2s.6 0 .6-.2zm-2.5 0c-.2 0-.6 0-.6.2s.6 0 .6-.2zm-1.8.2c.4-.1 0-.3 0 0zm-38.2-.2c0 .5 1.3.1 1.8.2s-1.3-.1-1.8-.2zm-12.1.2c-.2-.3-.4 0 0 0zm112.9-.4c-.1-.1-.5.1-.3.2s.4-.1.3-.2zm-17-1.6c-.1-.1-.5.1-.3.2s.5-.1.3-.2zm-98.9-.4c.1.1.5-.1.3-.2s-.5 0-.3.2zm118.9-.7c-.1-.1-.5.1-.3.2s.5-.1.3-.2z" fill="#4e426c"/></g><g><path fill="#9b8bc3" d="M51.1 61.6h196.3v32.29H51.1z"/><path d="M175.9 94.2c1.8.4 7 .1 10.1.2-1.5-.6-1.9-.1-4.8-.4.1.4-3.8.1-5.3.2zM51.3 73.4c.1-.3-.1-1.4-.2-.9s0 1.4.2.9zm176.5 20.9h-4.5c-.3.3 5.1.3 4.5 0zm-46.6-.3v-.2c-1.1 0-.5.2 0 .2z" fill="none"/><path d="M179.4 94c-2.8-.6-5.8.3-10 0a21.1 21.1 0 0 0 6.5.2c.1-.3 2.2-.2 3.5-.2zm43.5 0h-20.8c5 .3 16.2.3 20.8 0zm4.7.2c-.8-.2-1.1 0 0 0zm-16.8.5c-.3 0-1.3.1-.8.2s1.3-.1.8-.2zm-43.2-.7c-1.1 0-2.6 0-2.6.2s2.6 0 2.6-.2zm20.1.2h4.5c-.2-.3-3.1-.9-3.9-.4a4.7 4.7 0 0 1 1.9.2c-1.1-.1-5.5 0-2.5.2zm21 .1c-.3-.1-1.3.1-.8.2s1.3-.1.8-.2zm-8.5 1h.9c-.3-.2-.9-.1-.9 0zm-2.7-1.3c.2.4-3.8.1-5.3.2.3.4 9.5.2 5.3-.2zm11.4.7c-.3 0-1.3.1-.8.2s1.4-.1.8-.2zm-9.8-1.1c-.7 0-1.8 0-1.7.2s1.8 0 1.7-.2zm-5.4 0c-.3-.1-1.3.1-.8.2s1.3-.1.8-.2zm11.6-31.4c2.8-.1 7.8.3 9.1-.2h-4.5c-1.4.1-4.8-.3-4.6.2zm-2.7-.5c4.2-.1 10.9.3 13.6-.2-4.3.1-10.9-.3-13.6.2zm19.9.2c.7 0 1.8 0 1.8-.2s-1.8 0-1.8.2zm-26.3 0c.3.1 1.4-.1.9-.2s-1.4.1-.9.2zm20 .3c-.6-.3-1.1 0 0 0zm9-.3c.3.1 1.4-.1.9-.2s-1.3.1-.9.2zm-24.5-.6v.2c1.1 0 .5-.2 0-.2zm0 .2h-.9c.2.2.9.1.9 0z" fill="none"/><path d="M246.1 58.2c-.2-.1-1.4.1-.9.2s1.3-.1.9-.2zm-65.2 38.5c.3.1 1.3-.1.8-.2s-1.3.1-.8.2zM117.3 59c-.3-.1-1.4.1-.9.2s1.4 0 .9-.2zm119.5 36.3c.3 0 1.3-.1.8-.2s-1.3.1-.8.2zm-31 .1c.3 0 1.3-.1.8-.2s-1.3.1-.8.2z" fill="#4e426c"/><path d="M139.7 94.6c7.5 0 14.5-.4 21.7-.2 3.7.1 8.5.5 14 .6s10.5-.1 14.8.3a12.6 12.6 0 0 1 5.4-.2c-1.3 0-2.6 0-2.6.2 3.8.1 3.2 0 7.3 0-.1-.1.6-.2.9 0h-.9v.2c4.7 0 5-.1 1.6-.4h9.1c6.1-.6 10.6-.2 17.9-.4 0-.2-.5-.3-1.2-.3s-4.7.3-4.5 0h4.5v-.2c-1.1 0-.8-.2 0 0a10.7 10.7 0 0 0 3.3-.3c-4.7-.3-6.2.4-8 .2-4.6.3-15.8.3-20.9 0H223a44.2 44.2 0 0 0-5.7-.3 14.1 14.1 0 0 1-1.7.2c-.3 0-.2-.2-1-.2a14.5 14.5 0 0 1-1.7.2c-.3 0-.1-.2-1-.2a20.9 20.9 0 0 1-4.7-.2c-8.5.1-20.7-.4-26 .4 2.8.3 3.2-.2 4.8.4-3.1-.1-8.3.3-10.1-.2a21.1 21.1 0 0 1-6.5-.2c4.1.3 7.2-.6 10 0-1.3 0-3.4-.1-3.5.2 1.5-.1 5.5.2 5.3-.2s-1.1-.2-.1-.2c-4.3-.5-13.3.1-16.4-.2-1 0-.4.4-1.6.4a5.6 5.6 0 0 0-2-.4c-.3.2-1 .4-2.5.4-6.1.1-7.8.3-14.5 0 .6.7-4.2.2-4.4.6zm71.1.1c.5.1-.5.2-.8.2s.5-.2.8-.2zm-2.1-.4c.5.1-.5.2-.8.2s.5-.2.8-.2zm.3.4c.5.1-.5.2-.8.2s.5-.2.7-.2zm-9.8-1.1c.1.2-1 .1-1.7.2s.9-.1 1.6-.2zm-5.4 0c.5.1-.5.2-.8.2s.4-.2.7-.2zm-3.4.4a4.7 4.7 0 0 0-1.9-.2c.7-.6 3.7.1 3.9.4s5.5.2 5.3-.2c4.2.4-5 .6-5.3.2h-4.5c-3.2-.2 1.2-.3 2.4-.2zm-22.7 0c0 .2-1.6.2-2.6.2s1.4-.2 2.5-.2zM57 95.3c.3.1 1.4-.1.9-.2s-1.4.1-.9.2zm11.8-.6c-8.6.4 5.3.4 0 0zm59.9-.5c-1.9.4-7.4 0-9 .4a57.5 57.5 0 0 0 6.4 0c1 0 11.6.6 9.1 0s-9.2.3-6.5-.4zm-24.5.2H83.3c5.9.3 17.2.5 20.9 0zm143.5-.1c-.3 0-1.3.1-.8.2s1.4-.1.8-.2zm-3.6 0c-2.4 0-5.9.1-3.9-.3l-5.3.2c-.4.6 11.8.2 9.2.1zm-10.9 0c-.3 0-1.3.1-.8.2s1.3-.1.8-.2z" fill="#4e426c"/><path d="M229.7 94.5c.3 0 1.3-.1.8-.2s-1.3.1-.8.2zm-91.8.1c.3.1 1.3-.1.8-.2s-1.3.1-.8.2zm-30 .1c3.3-.1 9.1.3 10.9-.2-3.4.1-9.2-.3-10.9.2zm-2.7 0c.3.1 1.4-.1.9-.2s-1.4 0-.9.2z" fill="#4e426c"/><path d="M106.5 61.1c-15.2.3-35.5.2-55.3.1h-.4v33.3h2.7l21.8.2c.4 0 .7-.5 1.8-.4a1.8 1.8 0 0 0 1.9.4c.1-.3.9-.1.9 0 1.6 0 1.9-.3 3.6-.2 9.8-.3 28.5-.3 40.8-.4 1.4 0 6 .3 5.3-.4-22 .5-55.7.5-78.2.2h.1v-.6c-.4-3.3.1-4.8-.2-9.1.3 0 1.1-2.5.4-3.6.1 1.5-.2 1.7-.4 1.8.1-2.5-.3-7.2.2-8.2 0 1.3 0 2.6.2 2.7-.2-2.8.2-3.3.2-5.4s-.7 1.8-.7-1.8-.1-5.5-.1-8.2v-.2h.2c7.2.1 13.7.4 19.9-.2 12.5.2 22.5.2 35.4.2a17.6 17.6 0 0 1 1.8-.2c-.1-.4-.8-.1-1.9 0zM51.3 73.4c-.1.5-.3-.7-.2-.9s.2.6.2.9z" fill="#4e426c"/><path d="M111 60.8l-2.7.4c1.3.4 7.7.3 9.1 0V61c-3.6.2-4.7.4-6.4-.2zm132.4 0h-17.3c-.7 0-1.8 0-1.8.2 6.1-.1 14.5.3 19.1-.2zm2.7 0c-.7 0-1.8 0-1.8.2s1.8 0 1.8-.2zm1.9 6.8c.6-4.3-.7-2.3 0 0zM132.3 94.2c-4.9-.2-.9.6 0 0zm13.1-32.9c3.4 0 6.7.4 10-.2h-16.3c-5.9 0-11.8-.2-13.6.4 8.2.2 14.5-.2 19.9-.2z" fill="#4e426c"/><path d="M240.6 61.5h3.6c1.6.1 1.9-.2.9-.2-19.2.3-28.5-.6-44.4 0 .5 0 1 .2 0 .2s-.7.3-.9 0a25.7 25.7 0 0 0-4.5-.2c-13.6 0-33.1 0-45.3.4h-13.6c-3.3-.2-3.3.4 0 .2h6.3c9.8-.1 21.6.3 29.9-.2 1.4-.1 2.8.4 4.5.4s3.7-.3 5.4-.2c4 .1 8.3.4 12.7.4l4.5-.2c6.1 0 13.5.6 18.1.2a3.2 3.2 0 0 1-1.8-.2c-1.1 0-.6-.3 0 0h10c1.3 0 .3-.7 1.8-.7a3.8 3.8 0 0 0 1.8.4c1-.5 5.7-.1 8.2-.2.3-.1 1.8-.1 2.8-.1zm-44.4.4c-.5-.1.7-.3.9-.2s-.6.3-.9.2zm9.1.2c-.2-.5 3.2-.1 4.5-.2h4.5c-1.2.5-6.3.1-9 .3zm-2.7-.4c2.7-.5 9.4-.1 13.6-.2-2.8.5-9.4.1-13.6.2zm19.9.2c0-.2 1.1-.2 1.8-.2s-1.1.2-1.8.2zm2.7 0c-.5-.1.7-.3.9-.2s-.6.3-.9.2zm9.7 32.2c-.6-.5-3.6.2 0 0zm-93.5.1c.3.1 1.3-.1.8-.2s-1.3.1-.8.2zm-9.2-.2v.2c5.3.2 5.1-.3 0-.2zm-14.9-32.7c1.1.7 4.8-.2 0 0zm7.3 0c-5.8-.3-2 .7 0 0z" fill="#4e426c"/><path d="M200.7 61.3c-.8 0-.9.1-.9.2h.9zm-60.5 32.3c-1.4 0-10.9-.3-8 .4-1.2-.2 13.7-.3 8-.4zm107.4-13.4c.2-4.9-.1-10.6-.2-14.6 0-1.1 0-2.6.1-4.1-2 0-3.9 0-4.1.5h4.1l-.5-.5a77.4 77.4 0 0 1 0 8.5c.3-.1.4.3.4 1s-.4.6-.4 1.7c-.1 2.7.3 6.9.3 11.8a24.4 24.4 0 0 0 .3-4.3zm-93.8 13.4c-.3-.1-1.3.1-.8.2s1.3-.1.8-.2zm-3.6 0c-.3-.1-1.3.1-.8.2s1.3-.1.8-.2zm-2.7 0c-.3-.1-1.3.1-.8.2s1.3-.1.8-.2zm-2.7 0c-.7 0-1.8 0-1.7.2s1.7 0 1.7-.2zm-92.4-.3h-1.3l.6.6v-8.7c-.5-2.3.1 7.5-.4 8.2a1.1 1.1 0 0 1 .2.6l-.3-.3c.5-.1 1.2-.2 1.2-.4zm-.9-12.7c-.1-1.3-.3.1 0 0zm71.3-18.7c1.3-.1-.1-.3 0 0zm1.8 0c1.6-.1 5.3.3 5.4-.2h-2.7c-1.1.1-2.6 0-2.7.2zm6.3 0c.7 0 1.8 0 1.8-.2s-1.7 0-1.8.2zm107-.2c-5.2.5 4.7.8 4.5 0-2.2 0-2.8.4-4.5 0zm-124 31.7c-.3-.1-1.3.1-.9.2s1.4-.1.9-.2zm-10.8 0c-.3-.1-1.4.1-.9.2s1.4-.1.9-.2zm-1.8 0c-.3-.1-1.3.1-.9.2s1.3-.1.9-.2zm-44.4-.1c-1.4 0-3.3-.1-3.6.2 1.4 0 3.3.1 3.6-.2zM51.5 77c-.2 3.8.7.2 0 0zm58.6-14.8c.7 0 1.8 0 1.8-.2s-1.8-.1-1.8.2zm7.2 0c.7 0 1.8 0 1.8-.2s-1.7-.1-1.8.2zm5.5-.3c-1.3.1.1.3 0 0zm112.4.3c-.1-.5-3.8-.1-5.4-.2.1.4 3.8 0 5.4.2zm12 22.3c-.3.4 0 1.1 0 0zM131 93.2c-.3-.1-1.3.1-.8.2s1.3-.1.8-.2zm-49.9-1.6c-.3-.1-1.4.1-.9.2s1.4-.1.9-.2zm164.4.2c0-.2-.1-1.4-.2-1s.1 1.4.2 1zm-106.4-1.1c-.3-.1-1.3.1-.8.2s1.3-.1.8-.2z" fill="#4e426c"/></g><g><path fill="#9b8bc3" d="M126.9 168.5l2.7 5.4 6 .9-4.4 4.3 1 5.9-5.3-2.8-5.4 2.8 1-5.9-4.3-4.3 6-.9 2.7-5.4z"/><path d="M126.9 168l-.8 1.3-.2.2a5.7 5.7 0 0 0-1 1.9l-.4.9-.7 1.3.3-.2-3.8.6h-.7l-.9.3h-1.5l.7.6c1.1 1.1 1.7 2.3 3 3.2l1.4 1.1v-.2c0 .4-.1.8-.1 1.3l-.2 1.1-.6 3.6v.9l.8-.4.7-.4.8-.3a16.3 16.3 0 0 0 2.4-1.4l.6-.3.4-.2.5-.2h-.5l.4.3.7.2.5.3a3.4 3.4 0 0 0 1.1.7h.3l.4.5h.3a2.5 2.5 0 0 0 1.6.9l1 .7v-1.8a5.4 5.4 0 0 0-.4-1.1v-.2a2.4 2.4 0 0 1 .1-1.3v-.2a2.6 2.6 0 0 0-.6-1.8v-.4a2.3 2.3 0 0 0 .1-.6l-.2.6.6-.6.5-.5 2.5-2.6.2-.2.4-.3.9-.7-1.2-.3h-.8a9.7 9.7 0 0 0-2.2-.2h-.6v-.1h-1.2v-.1s-.6-.1-.5-.3h-.7l.6.4a7.1 7.1 0 0 0-1.3-2.1l-.7-1.5c-.5-.8-.7-1.1-.8-.9l-.6-1v.8l.7 1.5a8.8 8.8 0 0 0 .7 1.9l.3.6.5 1.1v.2h.3l1.4.2 1.5.2h.2l2.6.3h.3l-.2-.6-.2.2h-.6a4.8 4.8 0 0 0-1.9 1.4l-2.4 2.3-.3.3v.4a18.8 18.8 0 0 0 .9 3.8l.4 1.3v.8l.5-.4-2.6-1.4-.5-.3c.1-.5-1.2-1.2-2.1-1.5l-.4-.2-.3.2-.4.3a14.4 14.4 0 0 1-2.6 1.3l-.6.6-.8.4h-1.1l1.1.8a2.8 2.8 0 0 1 0-1.7l.2-1h.1a5.1 5.1 0 0 0 .2-.9c.1-.4.1-.8-.1-1v-.3a6.7 6.7 0 0 0 .5-1.3v-.3l-.2-.3-1.4-1.1-.6-.5-2-1.9-.4-.6-.2.7 2.3-.3a6.5 6.5 0 0 0 1.7-.4l2-.3h.2v-.2c.9-1.7 1.6-3.4 2.4-5.3zm3.7 5.6zm-1.2-1.3z" fill="#4e426c"/></g><g><path d="M93.7 49c.5-.1.1-.4.2-.6s-.1.1-.4.3.1.2.2.3zm-.4 8.5zm.6-11.6v.3c.4 0 .4-.3 0-.3zm-.4 2.8z" fill="none"/><path d="M93.5 48.8c-.7.1.3.4 0 .6s.6-.3.2-.4-.2-.2-.2-.2zm0-2.6v1.2a.8.8 0 0 0 0-1.2zm.2-.3c-.3 0 0 .1 0 0zm.7 1.1zm-.9 2.5c0 .1 0 .2.2.2s0-.2-.2-.2zm.2-1.2V48c-.3 0-1.1.1-.4.2h.2c-.1 0 0 .3.2.1zm.2-1.2zm1.1.5c-.2 0-.1 0 0 0zm-1.5.1c.5 0 .1.2.2.3s.3-.5-.2-.3zm.9-.6zm-1.4.5s0 .1.2.1 0-.1-.2-.1zm0 .3zm-.2 19.3c.1.2-.3.5.2.5v-.3c-.1 0 .3-.2-.2-.2zm.5-.2c.1.2-.3.6.2.8s.3-.6-.2-.8zm-.3 1.2s0 .1.2.1 0-.1-.2-.1zm0-1.5zm-.2 1.1c.3 0 0-.1 0 0zm.2.6zm.7-1.5zm-.2 0c-.3 0-.1 0 0 0z" fill="none"/><path d="M96.8 69.6zm-.2-20.8zM95.9 62zm-.6-16.5zm0 1.8zm-1.2 3.8c0-.4-.4-.9-.2-1.3s.6-.5.7-.8-.1-.6.4-.9-.8-.3-.2-.3 0 .2.2.2 0-.2 0-.4-.3 0 0-.1h.2c0-.3-.1-.3-.4-.1V47c-.7-.4-.2-.6-.4-1.1H94c.4 0 .4.3 0 .3v-.3h-.2c0-.1-.1-.2-.4-.2s.6.4.2.5a.8.8 0 0 1 0 1.2v-1.2c-.4.1-.5.3-.4.3.1.2.1.1-.2.3s-.4 1.2.4 1.5h.2c.3-.2-.3-.2.4-.3s.3.5-.2.6.1.3-.2.4-.7-.4 0-.6-.1.2.2.2.3-.3-.2-.3h-.2c-.6.2.1.8-.2 1l.4.2c.1.4.3.5 0 .9s0 .7.5.7zm.2-4.1zm-.4.1zm.4 0zm-1.3.5c.2 0 .2.1.2.1s-.1-.1-.2-.1zm0 .3zm.4.2h-.2c-.7-.1.1-.2.4-.2s.3-.3-.2-.3.7.3.2.3v.3c-.1.3-.2 0-.1-.1zm0 1.3c.3 0 .2.1.2.2s-.1-.1-.1-.1zm1.4 6.5zm-.7-.7c.4.5.4-.3 0 0zm-.4-3.5c.4.1 0 .4.4.5s0-.4 0-.4.7-.7 0-.5.3.6-.4.4zm.2 1.5v1.2c.3-.4.5-1 0-1.2zm0-8.4zm0 .2c0 .1.1.4-.4.2l.2.3c.9.1.4-.7.2-.5zm0 .6zm.2.2zm0 5.4zm0 1.8c-.1-.2.3-.5-.2-.6s-.3.5.2.6zm0 .1z" fill="#4e426c"/><path d="M93.9 61.4c-.4-1.4 0-3.6 0-5.3a6.9 6.9 0 0 1 .2-1.3h-.4s.7 0 .4-.1-.1-.1 0-.1-.3-.1-.2-.2a12.3 12.3 0 0 1-.4-2.4c0-.1.3-.3-.4-.3a8.3 8.3 0 0 1 .2 4.6c.4.2-.1.3.2.5s-1.1.1-.4.2.2-.1.4-.1.3.4-.2.5 0-.2-.2-.2-.2.2-.2.3.7-.1.7.1-.5 1.1.2 1.6a8.1 8.1 0 0 0-.2 2.1h.2c.5.2.1.2.1.1zm-.7-3.9zm.9 4.2l-.4-.2c-.4.1-.3.5 0 .5h.2c-.2-.2-.3-.2.2-.3zm0 7.7v-1s0-.1-.2-.1-.3.9.2 1.1zm0 .2s0-.1-.2-.1 0 .1.2.1zm-.2.4c.6-.3-.7-.1 0 0zm-.2-18.5c-.2.3.7.1 0 0zm0 12.2c0 .2-.4.4.2.6s0-.6 0-1 .2-.7-.4-.8.1.9.2 1.2z" fill="#4e426c"/><path d="M93.5 69.3v.2c-.1.1.2.1.2.1s.6-1.7 0-2.6h-.2c-.1 0-.3 0 0-.1s.2-.2.2-.3a5.7 5.7 0 0 0-.4-2.7v-.8c.2-.2-.4-.2-.2 0v.4c.1.6-.3 1.3.2 1.8s-.4.2-.4.3.3.2.2.3-.4.5-.4.7.2.2.2.3-.6.8-.2 1.1h.2v.6h.1c.5.1.1.3.2.5s.2.1.3.2zm-.5-2.6zm-.2.5c.5 0 .1.2.2.3v.3c-.5-.1-.1-.4-.2-.6zm.4-.2c.5.2.1.5.2.8s0-.5-.1-.8zm-.2 1.2c.2 0 .2.1.2.1s-.1 0-.2-.1zm0 .2zm.7-22.9c-.7 0 .2.2 0 0zm0 5.5zm-.2.5h.2c.2-.3-.4-.3-.2 0zm.2 10.5c-.7.1.2.3 0 0zm0 .5c.3-.3-.7-.1 0 0zm0 4.4zM93 51c0 .1-.3.6.4.5s-.3-.8-.4-.5zm.5 19.8c.2-.3-.2-.6-.2-.9s.4-.5-.4-.5.3.4 0 .7h.4c-.4 0-.4 0-.4.1s.3.4.2.7.3 0 .4-.1zM93 50.3zm0 .2zm0 .1z" fill="#4e426c"/><path d="M93 50.8s0 .1.2.1 0-.1-.2-.1zm-.2 5.4v.6c.5.1-.1-.4.4-.5zm.2 6.3c.1.1-.3.3.2.3v-.2s.1-.1-.2-.1zm0 .3s0 .1.2.1 0-.1-.2-.1zm.3 6.3c-.5-.3-.8.3 0 .3s-.5-.2 0-.3zm-.5-16.5zm0 .6zm0 .1zm0 2.6c0 .1-.1.2.2.2s.1-.1-.2-.2zm.2 1.4c.2-.2-.7 0 0 0zm-.2 4.3s0 .1.2.1 0-.1-.2-.1zm0 .4s0 .1.2.1 0-.1-.2-.1z" fill="#4e426c"/><path d="M92.8 69c.5 0 .1-.2.2-.3s-.1.2-.2.3zm.2 2c-.3 0 0 .1 0 0zm-.4-19.4zM91 54.5zm-.4 17.1zM89.9 51z" fill="#4e426c"/></g><g><path d="M71.9 49c.5-.1.1-.4.2-.6s-.1.1-.4.3.1.2.2.3zm-.4 8.5zm.7-11.6v.3c.3 0 .3-.3 0-.3zm-.5 2.8z" fill="none"/><path d="M71.7 48.8c-.7.1.3.4 0 .6s.6-.3.2-.4-.2-.2-.2-.2zm0-2.6v1.2a.8.8 0 0 0 0-1.2zm.2-.3c-.3 0 0 .1 0 0zm.7 1.1zm-.9 2.5c0 .1 0 .2.2.2s.1-.2-.2-.2zm.2-1.2V48c-.3 0-1.1.1-.4.2h.2c-.1 0 0 .3.2.1zm.3-1.2zm1.1.5c-.3 0-.2 0 0 0zm-1.6.1c.5 0 .1.2.2.3s.3-.5-.2-.3zm.9-.6zm-1.3.5s0 .1.2.1 0-.1-.2-.1zm0 .3zM71 67.2c.1.2-.3.5.2.5v-.3c-.1 0 .3-.2-.2-.2zm.5-.2c.1.2-.3.6.2.8s.3-.6-.2-.8zm-.2 1.2s0 .1.2.1 0-.1-.2-.1zm0-1.5zm-.3 1.1c.3 0 0-.1 0 0zm.3.6zm.6-1.5zm-.2 0c-.2 0-.1 0 0 0z" fill="none"/><path d="M75 69.6zm-.2-20.8zM74.2 62zm-.7-16.5zm0 1.8zm-1.1 3.8c0-.4-.4-.9-.2-1.3s.6-.5.7-.8-.1-.6.4-.9-.8-.3-.2-.3 0 .2.2.2 0-.2 0-.4-.3 0 0-.1h.2c0-.3-.1-.3-.4-.1V47c-.7-.4-.2-.6-.4-1.1h-.4c.4 0 .4.3 0 .3v-.3h-.2c0-.1-.1-.2-.4-.2s.6.4.2.5a.8.8 0 0 1 0 1.2v-1.2c-.4.1-.5.3-.4.3.1.2.1.1-.2.3s-.4 1.2.4 1.5h.2c.3-.2-.3-.2.4-.3s.3.5-.2.6.1.3-.2.4-.7-.4 0-.6-.1.2.2.2.3-.3-.2-.3h-.2c-.6.2.1.8-.2 1l.4.2c.1.4.3.5 0 .9s0 .7.5.7zm.2-4.1zm-.4.1zm.4 0zm-1.3.5c.2 0 .2.1.2.1l-.2-.1zm0 .3zm.4.2h-.2c-.7-.1.1-.2.4-.2s.3-.3-.2-.3.7.3.2.3v.3c-.2.3-.3 0-.2-.1zm0 1.3c.3 0 .2.1.2.2s-.2-.1-.2-.1zm1.3 6.5zm-.6-.7c.4.5.4-.3 0 0zm-.5-3.5c.4.1 0 .4.4.5s0-.4 0-.4.7-.7 0-.5.4.6-.4.4zm.3 1.5v1.2c.2-.4.5-1 0-1.2zm0-8.4zm0 .2c0 .1.1.4-.4.2l.2.3c.8.1.4-.7.2-.5zm0 .6zm.2.2zm0 5.4zm0 1.8c-.1-.2.3-.5-.2-.6s-.3.5.2.6zm0 .1z" fill="#4e426c"/><path d="M72.2 61.4c-.4-1.4 0-3.6 0-5.3a6.9 6.9 0 0 1 .2-1.3H72s.7 0 .4-.1-.1-.1 0-.1-.3-.1-.2-.2a12.3 12.3 0 0 1-.4-2.4c0-.1.3-.3-.4-.3a8.3 8.3 0 0 1 .2 4.6c.4.2-.1.3.2.5s-1.1.1-.4.2.2-.1.4-.1.3.4-.2.5 0-.2-.2-.2-.2.2-.2.3.7-.1.7.1-.5 1.1.2 1.6a8.1 8.1 0 0 0-.2 2.1h.2c.4.2.1.2.1.1zm-.7-3.9zm.9 4.2l-.4-.2c-.4.1-.3.5 0 .5h.2c-.2-.2-.4-.2.2-.3zm0 7.7v-1s0-.1-.2-.1-.3.9.2 1.1zm0 .2s0-.1-.2-.1 0 .1.2.1zm-.2.4c.6-.3-.7-.1 0 0zm-.3-18.5c-.2.3.7.1 0 0zm0 12.2c0 .2-.4.4.2.6s0-.6 0-1 .2-.7-.4-.8.2.9.2 1.2z" fill="#4e426c"/><path d="M71.7 69.3v.2c-.1.1.2.1.2.1s.6-1.7 0-2.6h-.2c-.1 0-.3 0 0-.1s.2-.2.2-.3a5.7 5.7 0 0 0-.4-2.7v-.8c.2-.2-.4-.2-.2 0v.4c.1.6-.3 1.3.2 1.8s-.4.2-.4.3.3.2.2.3-.4.5-.4.7.2.2.2.3-.6.8-.2 1.1h.1v.6h.2c.5.1.1.3.2.5s.3.1.3.2zm-.4-2.6zm-.2.5c.5 0 .1.2.2.3v.3c-.5-.1-.1-.4-.3-.6zm.4-.2c.5.2.1.5.2.8s-.1-.5-.2-.8zm-.2 1.2c.2 0 .2.1.2.1s-.2 0-.2-.1zm0 .2zm.6-22.9c-.7 0 .2.2 0 0zm0 5.5zm-.2.5h.2c.2-.3-.4-.3-.2 0zm.2 10.5c-.7.1.2.3 0 0zm0 .5c.3-.3-.7-.1 0 0zm0 4.4z" fill="#4e426c"/><path d="M71.3 51c0 .1-.3.6.4.5s-.3-.8-.4-.5zm.4 19.8c.2-.3-.2-.6-.2-.9s.4-.5-.4-.5.3.4 0 .7h.4c-.4 0-.4 0-.4.1s.3.4.2.7.3 0 .4-.1zm-.4-20.5zm0 .2zm0 .1z" fill="#4e426c"/><path d="M71.3 50.8s0 .1.2.1 0-.1-.2-.1zm-.3 5.4v.6c.5.1-.1-.4.4-.5zm.3 6.3c.1.1-.3.3.2.3v-.2c-.1 0 0-.1-.2-.1zm0 .3s0 .1.2.1 0-.1-.2-.1zm.2 6.3c-.5-.3-.8.3 0 .3s-.4-.2 0-.3zM71 52.6zm0 .6zm0 .1zm0 2.6c0 .1-.1.2.2.2s.1-.1-.2-.2zm.3 1.4c.2-.2-.7 0 0 0zm-.3 4.3s0 .1.2.1.1-.1-.2-.1zm0 .4s0 .1.2.1.1-.1-.2-.1z" fill="#4e426c"/><path d="M71 69c.5 0 .1-.2.2-.3s0 .2-.2.3zm.3 2c-.3 0 0 .1 0 0zm-.5-19.4zm-1.5 2.9zm-.5 17.1zM68.1 51z" fill="#4e426c"/></g><g><path d="M116 49c.5-.1.1-.4.2-.6s-.1.1-.4.3.1.2.2.3zm-.4 8.5zm.7-11.6v.3c.3 0 .3-.3 0-.3zm-.5 2.8z" fill="none"/><path d="M115.8 48.8c-.7.1.3.4 0 .6s.6-.3.2-.4-.2-.2-.2-.2zm0-2.6v1.2a.8.8 0 0 0 0-1.2zm.2-.3c-.3 0 0 .1 0 0zm.7 1.1zm-.9 2.5c0 .1 0 .2.2.2s.1-.2-.2-.2zm.2-1.2V48c-.3 0-1.1.1-.4.2h.2c-.1 0 0 .3.2.1zm.3-1.2zm1.1.5c-.3 0-.2 0 0 0zm-1.6.1c.5 0 .1.2.2.3s.3-.5-.2-.3zm.9-.6zm-1.3.5s0 .1.2.1 0-.1-.2-.1zm0 .3zm-.3 19.3c.1.2-.3.5.2.5v-.3c-.1 0 .3-.2-.2-.2zm.5-.2c.1.2-.3.6.2.8s.3-.6-.2-.8zm-.2 1.2s0 .1.2.1 0-.1-.2-.1zm0-1.5zm-.3 1.1c.3 0 0-.1 0 0zm.3.6zm.6-1.5zm-.2 0c-.2 0-.1 0 0 0z" fill="none"/><path d="M119.2 69.6zm-.3-20.8zm-.6 13.2zm-.7-16.5zm0 1.8zm-1.1 3.8c0-.4-.4-.9-.2-1.3s.6-.5.7-.8-.1-.6.4-.9-.8-.3-.2-.3 0 .2.2.2 0-.2 0-.4-.3 0 0-.1h.2c0-.3-.1-.3-.4-.1V47c-.7-.4-.2-.6-.4-1.1h-.4c.4 0 .4.3 0 .3v-.3h-.4c0-.1-.1-.2-.4-.2s.6.4.2.5a.8.8 0 0 1 0 1.2v-1.2c-.4.1-.5.3-.4.3.1.2.1.1-.2.3s-.4 1.2.4 1.5h.2c.3-.2-.3-.2.4-.3s.3.5-.2.6.1.3-.2.4-.7-.4 0-.6-.1.2.2.2.3-.3-.2-.3h-.2c-.6.2.1.8-.2 1l.4.2c.1.4.3.5 0 .9s.2.7.7.7zm.2-4.1zm-.4.1zm.4 0zm-1.3.5c.2 0 .2.1.2.1l-.2-.1zm0 .3zm.4.2h-.2c-.7-.1.1-.2.4-.2s.3-.3-.2-.3.7.3.2.3v.3c-.2.3-.3 0-.2-.1zm0 1.3c.3 0 .2.1.2.2s-.2-.1-.2-.1zm1.3 6.5zm-.6-.7c.4.5.4-.3 0 0zm-.5-3.5c.4.1 0 .4.4.5s0-.4 0-.4.7-.7 0-.5.4.6-.4.4zm.3 1.5v1.2c.2-.4.5-1 0-1.2zm0-8.4zm0 .2c0 .1.1.4-.4.2l.2.3c.8.1.4-.7.2-.5zm0 .6zm.2.2zm0 5.4zm0 1.8c-.1-.2.3-.5-.2-.6s-.3.5.2.6zm0 .1z" fill="#4e426c"/><path d="M116.3 61.4c-.4-1.4 0-3.6 0-5.3a6.9 6.9 0 0 1 .2-1.3h-.5s.7 0 .4-.1-.1-.1 0-.1-.3-.1-.2-.2a12.3 12.3 0 0 1-.4-2.4c0-.1.3-.3-.4-.3a8.3 8.3 0 0 1 .2 4.6c.4.2-.1.3.2.5s-1.1.1-.4.2.2-.1.4-.1.3.4-.2.5 0-.2-.2-.2-.2.2-.2.3.7-.1.7.1-.5 1.1.2 1.6a8.1 8.1 0 0 0-.2 2.1h.2c.5.2.2.2.2.1zm-.7-3.9zm.9 4.2l-.4-.2c-.4.1-.3.5 0 .5h.2c-.2-.2-.4-.2.2-.3zm0 7.7v-1s0-.1-.2-.1-.3.9.2 1.1zm0 .2s0-.1-.2-.1 0 .1.2.1zm-.2.4c.6-.3-.7-.1 0 0zm-.3-18.5c-.2.3.7.1 0 0zm0 12.2c0 .2-.4.4.2.6s0-.6 0-1 .2-.7-.4-.8.2.9.2 1.2z" fill="#4e426c"/><path d="M115.8 69.3v.2c-.1.1.2.1.2.1s.6-1.7 0-2.6h-.2c-.1 0-.3 0 0-.1s.2-.2.2-.3a5.7 5.7 0 0 0-.4-2.7v-.8c.2-.2-.4-.2-.2 0v.4c.1.6-.3 1.3.2 1.8s-.4.2-.4.3.3.2.2.3-.4.5-.4.7.2.2.2.3-.6.8-.2 1.1h.2v.6h.2c.5.1.1.3.2.5s.2.1.2.2zm-.4-2.6zm-.2.5c.5 0 .1.2.2.3v.3c-.5-.1-.1-.4-.3-.6zm.4-.2c.5.2.1.5.2.8s-.1-.5-.2-.8zm-.2 1.2c.2 0 .2.1.2.1s-.2 0-.2-.1zm0 .2zm.6-22.9c-.7 0 .2.2 0 0zm0 5.5zm-.2.5h.2c.2-.3-.3-.3-.2 0zM116 62c-.7.1.2.3 0 0zm0 .5c.3-.3-.7-.1 0 0zm0 4.4z" fill="#4e426c"/><path d="M115.4 51c0 .1-.3.6.4.5s-.3-.8-.4-.5zm.4 19.8c.2-.3-.2-.6-.2-.9s.4-.5-.4-.5.3.4 0 .7h.4c-.4 0-.4 0-.4.1s.3.4.2.7.3 0 .4-.1zm-.4-20.5zm0 .2zm0 .1z" fill="#4e426c"/><path d="M115.4 50.8s0 .1.2.1 0-.1-.2-.1zm-.3 5.4v.6c.5.1-.1-.4.4-.5zm.3 6.3c.1.1-.3.3.2.3v-.2s0-.1-.2-.1zm0 .3s0 .1.2.1 0-.1-.2-.1zm.2 6.3c-.5-.3-.8.3 0 .3s-.4-.2 0-.3zm-.5-16.5zm0 .6zm0 .1zm0 2.6c0 .1-.1.2.2.2s.1-.1-.2-.2zm.3 1.4c.2-.2-.7 0 0 0zm-.3 4.3s0 .1.2.1.1-.1-.2-.1zm0 .4s0 .1.2.1.1-.1-.2-.1z" fill="#4e426c"/><path d="M115.1 69c.5 0 .1-.2.2-.3s0 .2-.2.3zm.3 2c-.3 0 0 .1 0 0zm-.5-19.4zm-1.5 2.9zm-.5 17.1zm-.7-20.6z" fill="#4e426c"/></g><g><path d="M138.4 49c.5-.1.1-.4.2-.6s-.1.1-.4.3 0 .2.2.3zm-.5 8.5zm.7-11.6v.3c.3 0 .3-.3 0-.3zm-.5 2.8z" fill="none"/><path d="M138.1 48.8c-.7.1.3.4 0 .6s.6-.3.2-.4-.1-.2-.2-.2zm0-2.6v1.2a.8.8 0 0 0 0-1.2zm.3-.3c-.3 0 0 .1 0 0zm.6 1.1zm-.9 2.5c0 .1 0 .2.2.2s.1-.2-.2-.2zm.3-1.2V48c-.3 0-1.1.1-.4.2h.2c-.1 0 0 .3.2.1zm.2-1.2zm1.1.5c-.3 0-.1 0 0 0zm-1.6.1c.5 0 .1.2.2.3s.3-.5-.2-.3zm.9-.6zm-1.3.5s0 .1.2.1 0-.1-.2-.1zm0 .3zm-.2 19.3c.1.2-.3.5.2.5v-.3c-.1 0 .3-.2-.2-.2zm.4-.2c.1.2-.3.6.2.8s.3-.6-.2-.8zm-.2 1.2s0 .1.2.1 0-.1-.2-.1zm0-1.5zm-.2 1.1c.3 0 0-.1 0 0zm.2.6zm.7-1.5zm-.3 0c-.2 0-.1 0 0 0z" fill="none"/><path d="M141.5 69.6zm-.2-20.8zm-.7 13.2zm-.7-16.5zm0 1.8zm-1.1 3.8c0-.4-.4-.9-.2-1.3s.6-.5.7-.8-.1-.6.4-.9-.8-.3-.2-.3 0 .2.2.2 0-.2 0-.4-.3 0 0-.1h.2c0-.3-.1-.3-.4-.1V47c-.7-.4-.2-.6-.4-1.1h-.4c.4 0 .4.3 0 .3v-.3h-.2c0-.1-.1-.2-.4-.2s.6.4.2.5a.8.8 0 0 1 0 1.2v-1.2c-.4.1-.5.3-.4.3.1.2.1.1-.2.3s-.4 1.2.4 1.5h.2c.3-.2-.3-.2.4-.3s.3.5-.2.6.1.3-.2.4-.7-.4 0-.6-.1.2.2.2.3-.3-.2-.3h-.2c-.6.2.1.8-.2 1l.4.2c.1.4.3.5 0 .9s0 .7.5.7zm.2-4.1zm-.4.1zm.4 0zm-1.3.5c.2 0 .2.1.2.1l-.2-.1zm0 .3zm.4.2h-.2c-.7-.1.1-.2.4-.2s.3-.3-.2-.3.7.3.2.3v.3c-.1.3-.2 0-.2-.1zm0 1.3c.3 0 .2.1.2.2s-.1-.1-.2-.1zm1.4 6.5zm-.7-.7c.4.5.4-.3 0 0zm-.4-3.5c.4.1 0 .4.4.5s0-.4 0-.4.7-.7 0-.5.3.6-.4.4zm.2 1.5v1.2c.3-.4.5-1 0-1.2zm0-8.4zm0 .2c0 .1.1.4-.4.2l.2.3c.8.1.4-.7.2-.5zm0 .6zm.2.2zm0 5.4zm0 1.8c-.1-.2.3-.5-.2-.6s-.3.5.2.6zm0 .1z" fill="#4e426c"/><path d="M138.6 61.4c-.4-1.4 0-3.6 0-5.3a6.9 6.9 0 0 1 .2-1.3h-.4s.7 0 .4-.1-.1-.1 0-.1-.3-.1-.2-.2a12.3 12.3 0 0 1-.4-2.4c0-.1.3-.3-.4-.3a8.3 8.3 0 0 1 .2 4.6c.4.2-.1.3.2.5s-1.1.1-.4.2.2-.1.4-.1.3.4-.2.5 0-.2-.2-.2-.2.2-.2.3.7-.1.7.1-.5 1.1.2 1.6a8.1 8.1 0 0 0-.2 2.1h.2c.5.2.1.2.1.1zm-.7-3.9zm.9 4.2l-.4-.2c-.4.1-.3.5 0 .5h.2c-.2-.2-.3-.2.2-.3zm0 7.7v-1s0-.1-.2-.1-.3.9.2 1.1zm0 .2s0-.1-.2-.1 0 .1.2.1zm-.2.4c.6-.3-.7-.1 0 0zm-.2-18.5c-.2.3.7.1 0 0zm0 12.2c0 .2-.4.4.2.6s0-.6 0-1 .2-.7-.4-.8.1.9.2 1.2z" fill="#4e426c"/><path d="M138.1 69.3v.2c-.1.1.2.1.2.1s.6-1.7 0-2.6h-.2c-.1 0-.3 0 0-.1s.2-.2.2-.3a5.7 5.7 0 0 0-.4-2.7v-.8c.2-.2-.4-.2-.2 0v.4c.1.6-.3 1.3.2 1.8s-.4.2-.4.3.3.2.2.3-.4.5-.4.7.2.2.2.3-.6.8-.2 1.1h.2v.6h.2c.5.1.1.3.2.5s.2.1.2.2zm-.4-2.6zm-.2.5c.5 0 .1.2.2.3v.3c-.5-.1-.1-.4-.2-.6zm.4-.2c.5.2.1.5.2.8s0-.5-.2-.8zm-.2 1.2c.2 0 .2.1.2.1s-.2 0-.2-.1zm0 .2zm.7-22.9c-.7 0 .2.2 0 0zm0 5.5zm-.3.5h.2c.2-.3-.3-.3-.2 0zm.3 10.5c-.7.1.2.3 0 0zm0 .5c.3-.3-.7-.1 0 0zm0 4.4zm-.7-15.9c0 .1-.3.6.4.5s-.3-.8-.4-.5zm.4 19.8c.2-.3-.2-.6-.2-.9s.4-.5-.4-.5.3.4 0 .7h.4c-.4 0-.4 0-.4.1s.3.4.2.7.3 0 .4-.1zm-.4-20.5zm0 .2zm0 .1z" fill="#4e426c"/><path d="M137.7 50.8s0 .1.2.1 0-.1-.2-.1zm-.2 5.4v.6c.5.1-.1-.4.4-.5zm.2 6.3c.1.1-.3.3.2.3v-.2s.1-.1-.2-.1zm0 .3s0 .1.2.1 0-.1-.2-.1zm.2 6.3c-.5-.3-.8.3 0 .3s-.4-.2 0-.3zm-.4-16.5zm0 .6zm0 .1zm0 2.6c0 .1-.1.2.2.2s.1-.1-.2-.2zm.2 1.4c.2-.2-.7 0 0 0zm-.2 4.3s0 .1.2.1 0-.1-.2-.1zm0 .4s0 .1.2.1 0-.1-.2-.1z" fill="#4e426c"/><path d="M137.5 69c.5 0 .1-.2.2-.3s-.1.2-.2.3zm.2 2c-.3 0 0 .1 0 0zm-.5-19.4zm-1.5 2.9zm-.5 17.1zm-.6-20.6z" fill="#4e426c"/></g><g><path d="M160.7 49c.5-.1.1-.4.2-.6s-.1.1-.4.3.1.2.2.3zm-.5 8.5zm.7-11.6v.3c.4 0 .4-.3 0-.3zm-.4 2.8z" fill="none"/><path d="M160.5 48.8c-.7.1.3.4 0 .6s.6-.3.2-.4-.2-.2-.2-.2zm0-2.6v1.2a.8.8 0 0 0 0-1.2zm.2-.3c-.3 0 0 .1 0 0zm.7 1.1zm-.9 2.5c0 .1 0 .2.2.2s0-.2-.2-.2zm.2-1.2V48c-.3 0-1.1.1-.4.2h.2c-.1 0 0 .3.2.1zm.2-1.2zm1.1.5c-.2 0-.1 0 0 0zm-1.5.1c.5 0 .1.2.2.3s.3-.5-.2-.3zm.9-.6zm-1.4.5s0 .1.2.1 0-.1-.2-.1zm0 .3zm-.2 19.3c.1.2-.3.5.2.5v-.3c-.1 0 .3-.2-.2-.2zm.4-.2c.1.2-.3.6.2.8s.4-.6-.2-.8zm-.2 1.2s0 .1.2.1 0-.1-.2-.1zm0-1.5zm-.2 1.1c.3 0 0-.1 0 0zm.2.6zm.7-1.5zm-.2 0c-.3 0-.2 0 0 0z" fill="none"/><path d="M163.8 69.6zm-.2-20.8zm-.7 13.2zm-.6-16.5zm0 1.8zm-1.2 3.8c0-.4-.4-.9-.2-1.3s.6-.5.7-.8-.1-.6.4-.9-.8-.3-.2-.3 0 .2.2.2 0-.2 0-.4-.3 0 0-.1h.2c0-.3-.1-.3-.4-.1V47c-.7-.4-.2-.6-.4-1.1h-.4c.4 0 .4.3 0 .3v-.3h-.2c0-.1-.1-.2-.4-.2s.6.4.2.5a.8.8 0 0 1 0 1.2v-1.2c-.4.1-.5.3-.4.3.1.2.1.1-.2.3s-.4 1.2.4 1.5h.2c.3-.2-.3-.2.4-.3s.3.5-.2.6.1.3-.2.4-.7-.4 0-.6-.1.2.2.2.3-.3-.2-.3h-.2c-.6.2.1.8-.2 1l.4.2c.1.4.3.5 0 .9s0 .7.5.7zm.2-4.1zm-.4.1zm.4 0zm-1.3.5c.2 0 .2.1.2.1s-.1-.1-.2-.1zm0 .3zm.4.2h-.2c-.7-.1.1-.2.4-.2s.3-.3-.2-.3.7.3.2.3v.3c-.1.3-.2 0-.1-.1zm0 1.3c.3 0 .2.1.2.2s-.1-.1-.1-.1zm1.4 6.5zm-.7-.7c.4.5.4-.3 0 0zm-.4-3.5c.4.1 0 .4.4.5s0-.4 0-.4.7-.7 0-.5.3.6-.4.4zm.2 1.5v1.2c.3-.4.5-1 0-1.2zm0-8.4zm0 .2c0 .1.1.4-.4.2l.2.3c.9.1.4-.7.2-.5zm0 .6zm.2.2zm0 5.4zm0 1.8c-.1-.2.3-.5-.2-.6s-.3.5.2.6zm0 .1z" fill="#4e426c"/><path d="M160.9 61.4c-.4-1.4 0-3.6 0-5.3a6.9 6.9 0 0 1 .2-1.3h-.4s.7 0 .4-.1-.1-.1 0-.1-.3-.1-.2-.2a12.3 12.3 0 0 1-.4-2.4c0-.1.3-.3-.4-.3a8.3 8.3 0 0 1 .2 4.6c.4.2-.1.3.2.5s-1.1.1-.4.2.2-.1.4-.1.3.4-.2.5 0-.2-.2-.2-.2.2-.2.3.7-.1.7.1-.5 1.1.2 1.6a8.1 8.1 0 0 0-.2 2.1h.2c.5.2.1.2.1.1zm-.7-3.9zm.9 4.2l-.4-.2c-.4.1-.3.5 0 .5h.2c-.2-.2-.3-.2.2-.3zm0 7.7v-1s0-.1-.2-.1-.3.9.2 1.1zm0 .2s0-.1-.2-.1 0 .1.2.1zm-.2.4c.6-.3-.7-.1 0 0zm-.2-18.5c-.2.3.7.1 0 0zm0 12.2c0 .2-.4.4.2.6s0-.6 0-1 .2-.7-.4-.8.1.9.2 1.2z" fill="#4e426c"/><path d="M160.5 69.3v.2c-.1.1.2.1.2.1s.6-1.7 0-2.6h-.2c-.1 0-.3 0 0-.1s.2-.2.2-.3a5.7 5.7 0 0 0-.4-2.7v-.8c.2-.2-.4-.2-.2 0v.4c.1.6-.3 1.3.2 1.8s-.4.2-.4.3.3.2.2.3-.4.5-.4.7.2.2.2.3-.6.8-.2 1.1h.2v.6h.2c.5.1.1.3.2.5s.1.1.2.2zm-.4-2.6zm-.2.5c.5 0 .1.2.2.3v.3c-.6-.1-.2-.4-.3-.6zm.4-.2c.5.2.1.5.2.8s-.1-.5-.3-.8zm-.2 1.2c.2 0 .2.1.2.1s-.2 0-.3-.1zm0 .2zm.6-22.9c-.7 0 .2.2 0 0zm0 5.5zm-.2.5h.2c.1-.3-.4-.3-.2 0zm.2 10.5c-.7.1.2.3 0 0zm0 .5c.3-.3-.7-.1 0 0zm0 4.4zM160 51c0 .1-.3.6.4.5s-.3-.8-.4-.5zm.5 19.8c.2-.3-.2-.6-.2-.9s.4-.5-.4-.5.3.4 0 .7h.4c-.4 0-.4 0-.4.1s.3.4.2.7.2 0 .4-.1zm-.5-20.5zm0 .2zm0 .1z" fill="#4e426c"/><path d="M160 50.8s0 .1.2.1 0-.1-.2-.1zm-.2 5.4v.6c.5.1-.1-.4.4-.5zm.2 6.3c.1.1-.3.3.2.3v-.2s.1-.1-.2-.1zm0 .3s0 .1.2.1 0-.1-.2-.1zm.2 6.3c-.5-.3-.8.3 0 .3s-.4-.2 0-.3zm-.4-16.5zm0 .6zm0 .1zm0 2.6c0 .1-.1.2.2.2s.1-.1-.2-.2zm.2 1.4c.2-.2-.7 0 0 0zm-.2 4.3s0 .1.2.1 0-.1-.2-.1zm0 .4s0 .1.2.1 0-.1-.2-.1z" fill="#4e426c"/><path d="M159.8 69c.5 0 .1-.2.2-.3s-.1.2-.2.3zm.2 2c-.3 0 0 .1 0 0zm-.4-19.4zm-1.6 2.9zm-.4 17.1zm-.7-20.6z" fill="#4e426c"/></g><g><path d="M183 49c.5-.1.1-.4.2-.6s-.1.1-.4.3.1.2.2.3zm-.4 8.5zm.6-11.6v.3c.4 0 .4-.3 0-.3zm-.4 2.8z" fill="none"/><path d="M182.8 48.8c-.7.1.3.4 0 .6s.6-.3.2-.4-.2-.2-.2-.2zm0-2.6v1.2a.8.8 0 0 0 0-1.2zm.2-.3c-.3 0 0 .1 0 0zm.7 1.1zm-.9 2.5c0 .1 0 .2.2.2s.1-.2-.2-.2zm.2-1.2V48c-.3 0-1.1.1-.4.2h.2c-.1 0 0 .3.2.1zm.2-1.2zm1.2.5c-.3 0-.2 0 0 0zm-1.6.1c.5 0 .1.2.2.3s.3-.5-.2-.3zm.9-.6zm-1.3.5s0 .1.2.1 0-.1-.2-.1zm0 .3zm-.3 19.3c.1.2-.3.5.2.5v-.3c-.1 0 .3-.2-.2-.2zm.5-.2c.1.2-.3.6.2.8s.3-.6-.2-.8zm-.2 1.2s0 .1.2.1 0-.1-.2-.1zm0-1.5zm-.3 1.1c.3 0 0-.1 0 0zm.3.6zm.6-1.5zm-.2 0c-.3 0-.1 0 0 0z" fill="none"/><path d="M186.1 69.6zm-.2-20.8zm-.6 13.2zm-.7-16.5zm0 1.8zm-1.1 3.8c0-.4-.4-.9-.2-1.3s.6-.5.7-.8-.1-.6.4-.9-.8-.3-.2-.3 0 .2.2.2 0-.2 0-.4-.3 0 0-.1h.2c0-.3-.1-.3-.4-.1V47c-.7-.4-.2-.6-.4-1.1h-.4c.4 0 .4.3 0 .3v-.3h-.4c0-.1-.1-.2-.4-.2s.6.4.2.5a.8.8 0 0 1 0 1.2v-1.2c-.4.1-.5.3-.4.3.1.2.1.1-.2.3s-.4 1.2.4 1.5h.2c.3-.2-.3-.2.4-.3s.3.5-.2.6.1.3-.2.4-.7-.4 0-.6-.1.2.2.2.3-.3-.2-.3h-.2c-.6.2.1.8-.2 1l.4.2c.1.4.3.5 0 .9s.2.7.7.7zm.2-4.1zm-.4.1zm.4 0zm-1.3.5c.2 0 .2.1.2.1l-.2-.1zm0 .3zm.4.2h-.2c-.7-.1.1-.2.4-.2s.3-.3-.2-.3.7.3.2.3v.3c-.2.3-.3 0-.2-.1zm0 1.3c.3 0 .2.1.2.2s-.2-.1-.2-.1zm1.3 6.5zm-.6-.7c.4.5.4-.3 0 0zm-.5-3.5c.4.1 0 .4.4.5s0-.4 0-.4.7-.7 0-.5.4.6-.4.4zm.2 1.5v1.2c.3-.4.6-1 0-1.2zm0-8.4zm0 .2c0 .1.1.4-.4.2l.2.3c.9.1.5-.7.2-.5zm0 .6zm.3.2zm0 5.4zm0 1.8c-.1-.2.3-.5-.2-.6s-.3.5.2.6zm0 .1z" fill="#4e426c"/><path d="M183.2 61.4c-.4-1.4 0-3.6 0-5.3a6.9 6.9 0 0 1 .2-1.3h-.4s.7 0 .4-.1-.1-.1 0-.1-.3-.1-.2-.2a12.3 12.3 0 0 1-.4-2.4c0-.1.3-.3-.4-.3a8.3 8.3 0 0 1 .2 4.6c.4.2-.1.3.2.5s-1.1.1-.4.2.2-.1.4-.1.3.4-.2.5 0-.2-.2-.2-.2.2-.2.3.7-.1.7.1-.5 1.1.2 1.6a8.1 8.1 0 0 0-.2 2.1h.2c.5.2.2.2.1.1zm-.7-3.9zm1 4.2l-.4-.2c-.4.1-.3.5 0 .5h.2c-.2-.2-.4-.2.2-.3zm0 7.7v-1s0-.1-.2-.1-.3.9.2 1.1zm0 .2s0-.1-.2-.1 0 .1.2.1zm-.3.4c.6-.3-.7-.1 0 0zm-.2-18.5c-.2.3.7.1 0 0zm0 12.2c0 .2-.4.4.2.6s0-.6 0-1 .2-.7-.4-.8.2.9.2 1.2z" fill="#4e426c"/><path d="M182.8 69.3v.2c-.1.1.2.1.2.1s.6-1.7 0-2.6h-.2c-.1 0-.3 0 0-.1s.2-.2.2-.3a5.7 5.7 0 0 0-.4-2.7v-.8c.2-.2-.4-.2-.2 0v.4c.1.6-.3 1.3.2 1.8s-.4.2-.4.3.3.2.2.3-.4.5-.4.7.2.2.2.3-.6.8-.2 1.1h.2v.6h.2c.5.1.1.3.2.5s.2.1.2.2zm-.4-2.6zm-.2.5c.5 0 .1.2.2.3v.3c-.6-.1-.1-.4-.3-.6zm.4-.2c.5.2.1.5.2.8s-.1-.5-.2-.8zm-.2 1.2c.2 0 .2.1.2.1s-.2 0-.2-.1zm0 .2zm.6-22.9c-.7 0 .2.2 0 0zm0 5.5zm-.2.5h.2c.2-.3-.4-.3-.2 0zM183 62c-.7.1.2.3 0 0zm0 .5c.3-.3-.7-.1 0 0zm0 4.4z" fill="#4e426c"/><path d="M182.4 51c0 .1-.3.6.4.5s-.3-.8-.4-.5zm.4 19.8c.2-.3-.2-.6-.2-.9s.4-.5-.4-.5.3.4 0 .7h.4c-.4 0-.4 0-.4.1s.3.4.2.7.3 0 .4-.1zm-.4-20.5zm0 .2zm0 .1z" fill="#4e426c"/><path d="M182.4 50.8s0 .1.2.1 0-.1-.2-.1zm-.3 5.4v.6c.5.1-.1-.4.4-.5zm.3 6.3c.1.1-.3.3.2.3v-.2c-.1 0 0-.1-.2-.1zm0 .3s0 .1.2.1 0-.1-.2-.1zm.2 6.3c-.5-.3-.8.3 0 .3s-.4-.2 0-.3zm-.5-16.5zm0 .6zm0 .1zm0 2.6c0 .1-.1.2.2.2s.1-.1-.2-.2zm.3 1.4c.2-.2-.7 0 0 0zm-.3 4.3s0 .1.2.1 0-.1-.2-.1zm0 .4s0 .1.2.1 0-.1-.2-.1z" fill="#4e426c"/><path d="M182.1 69c.5 0 .1-.2.2-.3s0 .2-.2.3zm.3 2c-.3 0 0 .1 0 0zm-.5-19.4zm-1.5 2.9zm-.5 17.1zm-.7-20.6z" fill="#4e426c"/></g><g><path d="M205.4 49c.5-.1.1-.4.2-.6s-.1.1-.4.3 0 .2.2.3zm-.5 8.5zm.7-11.6v.3c.3 0 .3-.3 0-.3zm-.5 2.8z" fill="none"/><path d="M205.1 48.8c-.7.1.3.4 0 .6s.6-.3.2-.4-.1-.2-.2-.2zm0-2.6v1.2a.8.8 0 0 0 0-1.2zm.3-.3c-.3 0 0 .1 0 0zm.6 1.1zm-.9 2.5c0 .1 0 .2.2.2s.1-.2-.2-.2zm.3-1.2V48c-.3 0-1.1.1-.4.2h.2c-.1 0 0 .3.2.1zm.2-1.2zm1.1.5c-.3 0-.1 0 0 0zm-1.6.1c.5 0 .1.2.2.3s.3-.5-.2-.3zm.9-.6zm-1.3.5s0 .1.2.1 0-.1-.2-.1zm0 .3zm-.2 19.3c.1.2-.3.5.2.5v-.3c-.1 0 .2-.2-.2-.2zm.4-.2c.1.2-.3.6.2.8s.3-.6-.2-.8zm-.2 1.2s0 .1.2.1 0-.1-.2-.1zm0-1.5zm-.2 1.1c.3 0 0-.1 0 0zm.2.6zm.7-1.5zm-.3 0c-.2 0-.1 0 0 0z" fill="none"/><path d="M208.5 69.6zm-.2-20.8zm-.7 13.2zm-.7-16.5zm0 1.8zm-1.1 3.8c0-.4-.4-.9-.2-1.3s.6-.5.7-.8-.1-.6.4-.9-.8-.3-.2-.3 0 .2.2.2 0-.2 0-.4-.3 0 0-.1h.2c0-.3-.1-.3-.4-.1V47c-.7-.4-.2-.6-.4-1.1h-.4c.4 0 .4.3 0 .3v-.3h-.2c0-.1-.1-.2-.4-.2s.6.4.2.5a.8.8 0 0 1 0 1.2v-1.2c-.4.1-.5.3-.4.3.1.2.1.1-.2.3s-.4 1.2.4 1.5h.2c.3-.2-.3-.2.4-.3s.3.5-.2.6.1.3-.2.4-.7-.4 0-.6-.1.2.2.2.3-.3-.2-.3h-.2c-.6.2.1.8-.2 1l.4.2c.1.4.3.5 0 .9s0 .7.5.7zm.2-4.1zm-.4.1zm.4 0zm-1.3.5c.2 0 .2.1.2.1l-.2-.1zm0 .3zm.4.2h-.2c-.7-.1.1-.2.4-.2s.3-.3-.2-.3.7.3.2.3v.3c-.1.3-.2 0-.2-.1zm0 1.3c.3 0 .2.1.2.2s-.1-.1-.2-.1zm1.4 6.5zm-.7-.7c.4.5.4-.3 0 0zm-.4-3.5c.4.1 0 .4.4.5s0-.4 0-.4.7-.7 0-.5.3.6-.4.4zm.2 1.5v1.2c.3-.4.5-1 0-1.2zm0-8.4zm0 .2c0 .1.1.4-.4.2l.2.3c.8.1.4-.7.2-.5zm0 .6zm.2.2zm0 5.4zm0 1.8c-.1-.2.3-.5-.2-.6s-.3.5.2.6zm0 .1z" fill="#4e426c"/><path d="M205.6 61.4c-.4-1.4 0-3.6 0-5.3a6.9 6.9 0 0 1 .2-1.3h-.4s.7 0 .4-.1-.1-.1 0-.1-.3-.1-.2-.2a12.3 12.3 0 0 1-.4-2.4c0-.1.3-.3-.4-.3a8.3 8.3 0 0 1 .2 4.6c.4.2-.1.3.2.5s-1.1.1-.4.2.2-.1.4-.1.3.4-.2.5 0-.2-.2-.2-.2.2-.2.3.7-.1.7.1-.5 1.1.2 1.6a8.1 8.1 0 0 0-.2 2.1h.2c.4.2.1.2.1.1zm-.7-3.9zm.9 4.2l-.4-.2c-.4.1-.3.5 0 .5h.2c-.2-.2-.4-.2.2-.3zm0 7.7v-1s0-.1-.2-.1-.3.9.2 1.1zm0 .2s0-.1-.2-.1 0 .1.2.1zm-.2.4c.6-.3-.7-.1 0 0zm-.2-18.5c-.2.3.7.1 0 0zm0 12.2c0 .2-.4.4.2.6s0-.6 0-1 .2-.7-.4-.8.1.9.2 1.2z" fill="#4e426c"/><path d="M205.1 69.3v.2c-.1.1.2.1.2.1s.6-1.7 0-2.6h-.2c-.1 0-.3 0 0-.1s.2-.2.2-.3a5.7 5.7 0 0 0-.4-2.7v-.8c.2-.2-.4-.2-.2 0v.4c.1.6-.3 1.3.2 1.8s-.4.2-.4.3.3.2.2.3-.4.5-.4.7.2.2.2.3-.6.8-.2 1.1h.2v.6h.2c.5.1.1.3.2.5s.2.1.2.2zm-.4-2.6zm-.2.5c.5 0 .1.2.2.3v.3c-.5-.1-.1-.4-.2-.6zm.4-.2c.5.2.1.5.2.8s0-.5-.2-.8zm-.2 1.2c.2 0 .2.1.2.1s-.2 0-.2-.1zm0 .2zm.7-22.9c-.7 0 .2.2 0 0zm0 5.5zm-.3.5h.2c.2-.3-.3-.3-.2 0zm.3 10.5c-.7.1.2.3 0 0zm0 .5c.3-.3-.7-.1 0 0zm0 4.4zm-.7-15.9c0 .1-.3.6.4.5s-.3-.8-.4-.5zm.4 19.8c.2-.3-.2-.6-.2-.9s.4-.5-.4-.5.3.4 0 .7h.4c-.4 0-.4 0-.4.1s.3.4.2.7.3 0 .4-.1zm-.4-20.5zm0 .2zm0 .1z" fill="#4e426c"/><path d="M204.7 50.8s0 .1.2.1 0-.1-.2-.1zm-.2 5.4v.6c.5.1-.1-.4.4-.5zm.2 6.3c.1.1-.3.3.2.3v-.2s0-.1-.2-.1zm0 .3s0 .1.2.1 0-.1-.2-.1zm.2 6.3c-.5-.3-.8.3 0 .3s-.4-.2 0-.3zm-.4-16.5zm0 .6zm0 .1zm0 2.6c0 .1-.1.2.2.2s.1-.1-.2-.2zm.2 1.4c.2-.2-.7 0 0 0zm-.2 4.3s0 .1.2.1 0-.1-.2-.1zm0 .4s0 .1.2.1 0-.1-.2-.1z" fill="#4e426c"/><path d="M204.5 69c.5 0 .1-.2.2-.3s-.1.2-.2.3zm.2 2c-.3 0 0 .1 0 0zm-.5-19.4zm-1.5 2.9zm-.5 17.1zm-.6-20.6z" fill="#4e426c"/></g><g><path d="M228.2 49c.5-.1.1-.4.2-.6s-.1.1-.4.3.1.2.2.3zm-.4 8.5zm.7-11.6v.3c.3 0 .3-.3 0-.3zm-.5 2.8z" fill="none"/><path d="M228 48.8c-.7.1.3.4 0 .6s.6-.3.2-.4-.1-.2-.2-.2zm0-2.6v1.2a.8.8 0 0 0 0-1.2zm.2-.3c-.3 0 0 .1 0 0zm.7 1.1zm-.9 2.5c0 .1 0 .2.2.2s.1-.2-.2-.2zm.2-1.2V48c-.3 0-1.1.1-.4.2h.2s.1.3.2.1zm.3-1.2zm1.1.5c-.3 0-.1 0 0 0zm-1.6.1c.5 0 .1.2.2.3s.3-.5-.2-.3zm.9-.6zm-1.3.5s0 .1.2.1 0-.1-.2-.1zm0 .3zm-.2 19.3c.1.2-.3.5.2.5v-.3c-.1 0 .2-.2-.2-.2zm.4-.2c.1.2-.3.6.2.8s.3-.6-.2-.8zm-.2 1.2s0 .1.2.1 0-.1-.2-.1zm0-1.5zm-.2 1.1c.3 0 0-.1 0 0zm.2.6zm.6-1.5zm-.2 0c-.2 0-.1 0 0 0z" fill="none"/><path d="M231.4 69.6zm-.3-20.8zm-.6 13.2zm-.7-16.5zm0 1.8zm-1.1 3.8c0-.4-.4-.9-.2-1.3s.6-.5.7-.8-.1-.6.4-.9-.8-.3-.2-.3 0 .2.2.2 0-.2 0-.4-.3 0 0-.1h.2c0-.3-.1-.3-.4-.1V47c-.7-.4-.2-.6-.4-1.1h-.4c.4 0 .4.3 0 .3v-.3h-.2c0-.1-.1-.2-.4-.2s.6.4.2.5a.8.8 0 0 1 0 1.2v-1.2c-.4.1-.5.3-.4.3.1.2.1.1-.2.3s-.4 1.2.4 1.5h.2c.3-.2-.3-.2.4-.3s.3.5-.2.6.1.3-.2.4-.7-.4 0-.6-.1.2.2.2.3-.3-.2-.3h-.2c-.6.2.1.8-.2 1l.4.2c.1.4.3.5 0 .9s0 .7.5.7zm.2-4.1zm-.4.1zm.4 0zm-1.3.5c.2 0 .2.1.2.1l-.2-.1zm0 .3zm.4.2h-.2c-.7-.1.1-.2.4-.2s.3-.3-.2-.3.7.3.2.3v.3c-.1.3-.2 0-.2-.1zm0 1.3c.3 0 .2.1.2.2s-.1-.1-.2-.1zm1.4 6.5zm-.7-.7c.4.5.4-.3 0 0zm-.5-3.5c.4.1 0 .4.4.5s0-.4 0-.4.7-.7 0-.5.4.6-.4.4zm.3 1.5v1.2c.3-.4.5-1 0-1.2zm0-8.4zm0 .2c0 .1.1.4-.4.2l.2.3c.8.1.4-.7.2-.5zm0 .6zm.2.2zm0 5.4zm0 1.8c-.1-.2.3-.5-.2-.6s-.3.5.2.6zm0 .1z" fill="#4e426c"/><path d="M228.5 61.4c-.4-1.4 0-3.6 0-5.3a6.9 6.9 0 0 1 .2-1.3h-.4s.7 0 .4-.1-.1-.1 0-.1-.3-.1-.2-.2a12.3 12.3 0 0 1-.5-2.4c0-.1.3-.3-.4-.3a8.3 8.3 0 0 1 .2 4.6c.4.2-.1.3.2.5s-1.1.1-.4.2.2-.1.4-.1.3.4-.2.5 0-.2-.2-.2-.2.2-.2.3.7-.1.7.1-.5 1.1.2 1.6a8.1 8.1 0 0 0-.2 2.1h.2c.5.2.2.2.2.1zm-.7-3.9zm.9 4.2l-.4-.2c-.4.1-.3.5 0 .5h.2c-.2-.2-.4-.2.2-.3zm0 7.7v-1s0-.1-.2-.1-.3.9.2 1.1zm0 .2s0-.1-.2-.1 0 .1.2.1zm-.2.4c.6-.3-.7-.1 0 0zm-.3-18.5c-.2.3.7.1 0 0zm0 12.2c0 .2-.4.4.2.6s0-.6 0-1 .2-.7-.4-.8.2.9.2 1.2z" fill="#4e426c"/><path d="M228 69.3v.2c-.1.1.2.1.2.1s.6-1.7 0-2.6h-.2c-.1 0-.3 0 0-.1s.2-.2.2-.3a5.7 5.7 0 0 0-.4-2.7v-.8c.2-.2-.4-.2-.2 0v.4c.1.6-.3 1.3.2 1.8s-.4.2-.4.3.3.2.2.3-.4.5-.4.7.2.2.2.3-.6.8-.2 1.1h.2v.6h.2c.5.1.1.3.2.5s.2.1.2.2zm-.4-2.6zm-.2.5c.5 0 .1.2.2.3v.3c-.5-.1-.1-.4-.2-.6zm.4-.2c.5.2.1.5.2.8s-.1-.5-.2-.8zm-.2 1.2c.2 0 .2.1.2.1s-.2 0-.2-.1zm0 .2zm.6-22.9c-.7 0 .2.2 0 0zm0 5.5zm-.2.5h.2c.2-.3-.3-.3-.2 0zm.2 10.5c-.7.1.2.3 0 0zm0 .5c.3-.3-.7-.1 0 0zm0 4.4zm-.6-15.9c0 .1-.3.6.4.5s-.3-.8-.4-.5zm.4 19.8c.2-.3-.2-.6-.2-.9s.4-.5-.4-.5.3.4 0 .7h.4c-.4 0-.4 0-.4.1s.3.4.2.7.3 0 .4-.1zm-.4-20.5zm0 .2zm0 .1z" fill="#4e426c"/><path d="M227.6 50.8s0 .1.2.1 0-.1-.2-.1zm-.2 5.4v.6c.5.1-.1-.4.4-.5zm.2 6.3c.1.1-.3.3.2.3v-.2s0-.1-.2-.1zm0 .3s0 .1.2.1 0-.1-.2-.1zm.2 6.3c-.5-.3-.8.3 0 .3s-.4-.2 0-.3zm-.4-16.5zm0 .6zm0 .1zm0 2.6c0 .1-.1.2.2.2s.1-.1-.2-.2zm.2 1.4c.2-.2-.7 0 0 0zm-.2 4.3s0 .1.2.1 0-.1-.2-.1zm0 .4s0 .1.2.1 0-.1-.2-.1z" fill="#4e426c"/><path d="M227.4 69c.5 0 .1-.2.2-.3s-.1.2-.2.3zm.2 2c-.3 0 0 .1 0 0zm-.5-19.4zm-1.5 2.9zm-.5 17.1zm-.6-20.6z" fill="#4e426c"/></g></svg>