<svg data-name="Layer 1" xmlns="http://www.w3.org/2000/svg" width="300" height="300"><path fill="#cdc5e1" d="M0 0h300v300H0z"/><path fill="#9b8bc3" d="M50.2 43.2H250v106.73H50.2z"/><path d="M153.9 150.3c2.3.5 9.3.1 13.5.2-1.9-.6-2.6-.1-6.3-.4.1.4-5.1.1-7.2.2zM50.3 59.1c.1-.3-.1-1.8-.2-1.2s.1 1.8.2 1.2zm173.1 91.3h-6.1c-.3.3 6.9.3 6.1 0zm-62.3-.3v-.2c-1.4 0-.6.2 0 .2z" fill="none"/><path d="M158.7 150.1c-3.6-.6-7.9.3-13.4 0a35.4 35.4 0 0 0 8.6.2c.3-.3 3-.2 4.8-.2zm58.4 0h-28c6.7.3 21.7.3 28 0zm6.2.1c-1-.3-1.5 0 0 0zm-22.7.6c-.4-.1-1.8.1-1.1.2s1.8-.1 1.1-.2zm-57.7-.7c-1.4 0-3.5 0-3.6.2 1.4 0 3.5 0 3.6-.2zm26.9.2h6.1c-.2-.3-3.9-1-5.1-.4a7.4 7.4 0 0 1 2.5.2c-1.5-.1-7.5 0-3.5.2zm28.1.1c-.4-.1-1.8.1-1.1.2s1.8-.1 1.1-.2zm-11.6 1h1.2c-.4-.2-1.3-.1-1.2 0z" fill="none"/><path d="M183 150.1c.1.4-5.1.1-7.2.2.3.4 12.8.2 7.2-.2zm15.1.7c-.4-.1-1.8.1-1.1.2s1.8-.1 1.1-.2zm-12.9-1.1c-.9 0-2.4 0-2.3.2s2.4 0 2.3-.2zm-7.3 0c-.4-.1-1.8.1-1.1.2s1.8-.1 1.1-.2zm71.5-99.6c.1 3.7-.3 10.4.2 12.1v-6c-.1-1.8.3-6.3-.2-6.1zm.5-3.6c.1 5.7-.3 14.5.2 18.3-.1-5.8.3-14.6-.2-18.3zm-.2 26.7c0 1 0 2.4.2 2.5s0-2.5-.2-2.5zm-5-29.6c.3.1 1.8-.1 1.2-.2s-1.8.1-1.2.2zm4.7 21c.3-.7 0-1.5 0 0zm.3 12.2c-.1.3.1 1.9.2 1.3s-.1-1.9-.2-1.3zm.6-32.8h-.2c.1 1.4.2.7.2 0zm-.2 0v-.8h-.1c-.1.4 0 .8.1.8z" fill="none"/><path d="M253.1 106.4c.1-.3-.1-1.9-.2-1.3s.1 1.8.2 1.3zM160 152.9c.4.1 1.8-.1 1.1-.2s-1.8.1-1.1.2zM138.9 40.7c-.3-.1-1.8.1-1.2.2s1.9-.1 1.2-.2zm96.4 110.7c.4 0 1.8-.1 1.1-.2s-1.8.1-1.1.2zm-41.6.2c.4.1 1.8-.1 1.1-.2s-1.8.1-1.1.2z" fill="#4e426c"/><path d="M105.3 150.7c10.1 0 19.5-.4 29.2-.2 4.9.1 11.3.5 18.5.6s14.1-.1 19.7.4c.3-.3 5.9-.7 7.2-.2-1.7 0-3.5 0-3.6.2 5.1.1 4.2 0 9.8 0-.1-.1.9-.2 1.2 0h-1.2v.2c6.2 0 6.7-.1 2.2-.4h12.2c8.3-.6 14.3-.2 24.1-.4 0-.2-.5-.3-1.5-.3.8.3-6.4.3-6.1 0h6.1v-.2c-1.5 0-1-.3 0 0a20.3 20.3 0 0 0 4.6-.3c-6.2-.3-8.4.4-10.8.2-6.3.3-21.3.3-28 0h28a74.4 74.4 0 0 0-7.6-.4c-.9 0-1.1.2-2.3.2a4 4 0 0 0-1.3-.2c-.9 0-1.1.2-2.3.2s-.1-.2-1.3-.2a35.3 35.3 0 0 1-6.2-.2c-11.5.2-27.6-.4-35 .4v.2c3.7.3 4.4-.2 6.3.4-4.2-.1-11.2.3-13.5-.2a35.4 35.4 0 0 1-8.6-.2c5.5.3 9.8-.6 13.4 0-1.8 0-4.5-.1-4.8.2 2.1-.1 7.3.2 7.2-.2s-1.5-.2-.1-.2c-5.7-.6-17.8.1-22-.2-1.3.1-.7.4-2.3.4a8.2 8.2 0 0 0-2.6-.4c-.4.3-1.4.4-3.5.4-8.3.1-10.5.3-19.5 0 1.1.5-5.2-.1-5.6.4zm95.2.1c.7.1-.7.2-1.1.2s.8-.2 1.2-.2zm-2.7-.4c.7.1-.7.2-1.1.2s.8-.2 1.2-.2zm.2.4c.7.1-.7.2-1.1.2s.8-.2 1.2-.2zm-12.9-1.1c.1.2-1.4.1-2.3.2s1.5-.2 2.4-.2zm-7.3 0c.7.1-.7.2-1.1.2s.9-.3 1.2-.2zm-4.6.4a7.4 7.4 0 0 0-2.5-.2c1.2-.6 4.9.1 5.1.4 2.1-.1 7.3.2 7.2-.2 5.5.4-6.9.6-7.2.2h-6.1c-3.9-.2 2.1-.3 3.6-.2zm-30.4 0c-.1.2-2.2.2-3.6.2.2-.3 2.3-.2 3.7-.2zM48.7 94.3c-.1.3.1 1.8.2 1.2s-.1-1.8-.2-1.2zm.7 15.8c-.4-11.5-.4 7.1 0 0zm41.2 40.2c-2.6.4-10 0-12.1.4 2.7.2 8.1 0 8.5 0s15.4.7 12.2 0-12.4.3-8.6-.4zm-32.8.2h-8.2v-21c-.2 5.3-.4 13.9-.3 20.4v.9h.8c3.3 0 6-.1 7.7-.3zm192.4-.1c-.4 0-1.8.1-1.1.2s1.9-.1 1.1-.2zm-4.8 0c-3.2 0-8 .1-5.2-.3l-7.1.2c-.7.6 15.7.2 12.3.1zm-14.6 0c-.4 0-1.8.1-1.1.2s1.8-.1 1.1-.2z" fill="#4e426c"/><path d="M226 150.6c.4 0 1.8-.1 1.1-.2s-1.8.1-1.1.2zm-123.1.1c.3.1 1.8-.1 1.2-.2s-1.9.1-1.2.2zm-40.3.1c4.5-.1 12.2.3 14.6-.2-4.4.1-12.1-.4-14.6.2zm-3.6 0c.3.1 1.8-.1 1.2-.2s-1.9 0-1.2.2zm65.3-108.1c-20.4.3-47.6.2-74.2.1h-.4v46.7c0 10.8-.2 20-.2 29.2 0 .6.5 1 .4 2.4s-.7.6-.4 2.4a1.4 1.4 0 0 1 0 1.2c0 2.2.3 2.6.2 4.9.1 5.1.2 12.1.2 20.4v.3h.3l34.3-.2c1.9 0 7.9.3 7.2-.4l-41.6.4H50c-.1-22.3 0-46 .2-64.2-.4-4.5.1-6.4-.2-12.2.3 0 1.1-3.4.4-4.9.1 2.1-.2 2.3-.4 2.4.1-3.3-.3-9.7.2-10.9 0 1.7 0 3.4.2 3.6-.2-3.7.2-4.4.2-7.3s-.7 2.4-.7-2.4.1-7.4.1-11V43h.2c9.6.1 18.4.4 26.8-.2 16.7.2 30.2.2 47.4.2 1 0 1.2-.2 2.4-.2s-.9-.1-2.5-.1zm-74 16.4c-.1.6-.3-.9-.2-1.2s.2.8.2 1.2zm80.1-16.6l-3.6.4c1.7.4 10.3.3 12.2 0v-.2c-4.8.2-6.2.3-8.6-.2zm120.3 59V78.3c0-1 0-2.4-.2-2.5.2 8.2-.3 19.4.2 25.7zm0 3.7a9.4 9.4 0 0 0-.2-2.5 9.5 9.5 0 0 0 .2 2.5zm-.2 9.6c.6-5.5-.6-3.3 0 0zm-155 35.5c-6.5-.2-1.3.7 0 0zm81.1-107.4c4.6 0 9 .4 13.4-.2h-21.9c-7.9 0-15.8-.2-18.2.4 11 .2 19.4-.1 26.7-.2zm73.5 54.7v4.9c0 1.7.2 2.6.2 1.3-.1-13 0-22.5.1-31.5s.2-17.5-.1-28.2c0 .7-.2 1.4-.2 0s-.2-.4-.1-.8h-.4a46.2 46.2 0 0 0-6.1-.2c-18.3 0-44.4 0-60.8.4h-18.2c-4.4-.2-4.4.4 0 .2h8.5c13.1-.1 29 .3 40.1-.2 1.9-.1 3.7.4 6.1.4s4.9-.3 7.3-.2c5.4.1 11.2.4 17 .4l6.1-.2h.4l-.6-.6c0 8.1-.5 17.7-.2 23.8a5.4 5.4 0 0 1 .2-2.4c0-1.5.3-.7 0 0v13.2c0 1.8.6.6.6 2.6a5.7 5.7 0 0 0-.4 2.3c.5 1.4.1 7.7.2 11 .3.3.3 2.3.3 3.8zm-5.4-54c-.6-.1.9-.3 1.2-.2s-.9.2-1.2.2zm4.7 6.5c.5-.2.1 4.3.2 6.1v6.1c-.4-1.8 0-8.5-.2-12.2zm.4-3.6c.5 3.7.1 12.5.2 18.3-.4-3.8 0-12.6-.1-18.3zm-.2 26.7c.2.1.2 1.5.2 2.5s-.1-1.6-.1-2.5zm0 3.6c.1-.6.3.9.2 1.3s-.2-1-.1-1.3zM233 150.2c-.7-.5-4.9.2 0 0zm-125.3.1c.4.1 1.8-.1 1.2-.2s-1.9.1-1.2.2z" fill="#4e426c"/><path d="M95.4 150.1v.2c7.1.2 7-.4 0-.2zm43.5-107.2c1.4.7 6.5-.2 0 0zm9.8 0c-7.8-.3-2.7.7 0 0zM250.3 44a4.5 4.5 0 0 0 0-.8v-.4h-.3c-.3 0-.4.1-.4.2h.5v1z" fill="#4e426c"/><path d="M106.3 149.7c-1.9 0-14.6-.3-10.9.4-1.5-.2 18.5-.3 10.9-.4zm143.8-18c.2-6.6-.1-14.1-.2-19.6 0-3.4.3-10.4-.4-11.1 0 7.8.3 10.4 0 17 .2-.1.3.5.4 1.5-.3-.7-.3.7-.4 2.2-.1 3.7.3 9.3.2 15.9a48 48 0 0 0 .4-5.9zm-125.6 18c-.4-.1-1.8.1-1.2.2s1.9-.1 1.2-.2zm-4.8 0c-.4-.1-1.8.1-1.2.2s1.8-.1 1.2-.2zm-3.7 0c-.4-.1-1.8.1-1.2.2s1.9-.1 1.2-.2zm-3.6 0c-.9 0-2.4 0-2.4.2s2.4 0 2.4-.2zM50.7 88.2V74.9c-.5-3.1.1 10-.4 10.9s.1 2.4.4 2.4zm-.2-19.4c-.1-1.8-.3.1 0 0zm95.7-25.2c1.8-.1-.1-.3 0 0zm2.5 0c2.1-.1 7.1.3 7.3-.2h-3.6c-1.5 0-3.5-.1-3.7.2zm8.5 0c.9 0 2.4 0 2.4-.2s-2.4 0-2.4.2zm92.7 50.3c-.5-7.2-.7 6.1 0 6.1 0-3.1-.4-4 0-6.1zM71.1 149.4c-.3-.1-1.8.1-1.2.2s1.8-.1 1.2-.2zm-14.6 0c-.3-.1-1.8.1-1.2.2s1.8-.1 1.2-.2zm-2.4 0c-.3-.1-1.8.1-1.2.2s1.8-.1 1.2-.2zm-3.4-55.1c0-1.8.1-4.5-.2-4.9 0 1.9-.1 4.5.2 4.9zm-.2-30.4c-.2 5.1.7.2 0 0zm78.7-20.1c.9 0 2.4 0 2.4-.2s-2.4 0-2.4.2zm9.7 0c.9 0 2.4 0 2.4-.2s-2.3 0-2.4.2zm7.3-.2c-1.8.1.1.3 0 0zm103.3 46.5c.5 0 .1-5.1.2-7.2-.5 0-.1 5.1-.2 7.2z" fill="#4e426c"/><path d="M249.7 137.5c-.2.5 0 1.5 0 0zM94.1 149.2c-.3-.1-1.8.1-1.2.2s1.8-.1 1.2-.2zm-41.6-22.1c.1-.3-.1-1.8-.2-1.2s.1 1.9.2 1.2zM248 147.9c0-.3-.1-1.9-.2-1.4s.2 1.9.2 1.4zm-142.4-1.3c-.3-.1-1.8.1-1.2.2s1.9-.1 1.2-.2z" fill="#4e426c"/><path fill="#f2f0f7" d="M61.5 54.6h177.1v84.02H61.5z"/><path d="M156.8 138.9c2 .5 8 .1 11.5.2-1.7-.6-2.2-.1-5.4-.4.1.5-4.3.1-6.1.2zM61.6 68.1c.1-.3-.1-1.6-.2-1s.1 1.5.2 1zm154.5 71h-5.2c-.2.2 5.9.2 5.2 0zm-53.1-.4v-.2c-1.3.1-.6.2 0 .2z" fill="none"/><path d="M160.9 138.7c-3.1-.6-6.7.3-11.4 0a26.1 26.1 0 0 0 7.3.2c.2-.2 2.5-.1 4.1-.2zm49.7 0h-23.8c5.7.3 18.5.3 23.8 0zm5.3.2c-.8-.2-1.2 0 0 0zm-19.3.5c-.3-.1-1.5.1-.9.2s1.5-.1.9-.2zm-49.2-.7c-1.2 0-3 0-3 .2s2.9.1 3-.2zm22.9.2h5.2c-.2-.3-3.4-1-4.4-.4a5.6 5.6 0 0 1 2.2.2c-1.3 0-6.4.1-3 .2zm24 .2c-.3-.1-1.5.1-.9.2s1.5-.1.9-.2zm-9.8.9h1c-.3-.2-1.1-.1-1 0zm-2.9-1.3c.1.4-4.4.1-6.1.2.3.4 10.9.2 6.1-.2zm12.9.8c-.3-.1-1.5.1-.9.2s1.5-.2.9-.2zm-11.1-1.2c-.8 0-2 0-2 .2s2.1 0 2-.2zm-6.2 0c-.3-.1-1.5.1-.9.2s1.5-.1.9-.2zm60.4-83.1h1l-.5-.5c0 3.2-.3 8 .2 9.3v-5.3c-.1-1 .1-2.9 0-4.1l.3.3c-.6 0-1.1.1-1 .3z" fill="none"/><path d="M234.5 54.7h4.1c0 4.3-.2 9 .2 11.4-.1-3.3.1-7.9 0-11.4h-.1a30.6 30.6 0 0 0-4.2 0zm3.8 18.5c0 .8 0 2 .2 2.1s0-2-.2-2.1zm-11.1-18.3c.3.1 1.6-.1 1-.2s-1.5.1-1 .2zm10.9 11c.3-.6 0-1.2 0 0zm.2 10.4c-.1.3.1 1.6.2 1.1s-.1-1.6-.2-1.1zm-5.9-22v.2c1.2-.1.6-.2 0-.2zm0 .2h-1c.2.2 1 .1 1 0z" fill="none"/><path d="M241.8 101.6c.1-.3-.1-1.7-.2-1.2s.1 1.7.2 1.2zm-79.6 39.9c.3.1 1.5-.1 1-.2s-1.6.1-1 .2zM137.1 52c-.3-.1-1.6.1-1 .2s1.6 0 1-.2zm89.2 88c.3 0 1.5-.1.9-.2s-1.5.2-.9.2zm-35.4.2c.3.1 1.5-.1.9-.2s-1.5.1-.9.2z" fill="#4e426c"/><path d="M115.4 139.4c8.6 0 16.6-.4 24.9-.2 4.2.1 9.7.5 15.8.6s12-.1 16.9.3a16.1 16.1 0 0 1 6.1-.2c-1.5 0-3 0-3 .2 4.3.1 3.6 0 8.3 0-.1-.1.7-.2 1 0h-1v.2c5.3 0 5.7-.1 1.9-.4h10.4c7-.6 12.1-.2 20.5-.4 0-.2-.5-.3-1.3-.3.7.3-5.4.3-5.2 0h5.2v-.2c-1.2 0-.8-.2 0 0a14.3 14.3 0 0 0 3.9-.3c-5.3-.3-7.1.4-9.2.2-5.3.3-18.1.3-23.8 0h23.8a55.3 55.3 0 0 0-6.5-.4 18.6 18.6 0 0 1-1.9.2 3.1 3.1 0 0 0-1.2-.2 19.1 19.1 0 0 1-1.9.2c-.3 0-.1-.2-1.2-.2a26 26 0 0 1-5.3-.2c-9.7.2-23.6-.4-29.8.4v.2c3.2.3 3.7-.2 5.4.4-3.6-.1-9.5.3-11.5-.2a26.1 26.1 0 0 1-7.3-.2c4.7.3 8.3-.6 11.4 0-1.5 0-3.9-.1-4.1.2 1.8-.1 6.2.2 6.1-.2s-1.3-.2-.1-.2c-4.9-.6-15.2.1-18.7-.2-1.1.1-.5.4-1.9.4a6.4 6.4 0 0 0-2.2-.4c-.4.3-1.2.4-3 .4-7 .1-8.9.3-16.6 0 .8.5-4.5 0-4.9.5zm81.2.1c.6.1-.6.2-.9.2s.6-.3.9-.3zm-2.3-.4c.6.1-.6.2-.9.2s.6-.3.9-.2zm.2.4c.6.1-.6.2-.9.2s.6-.3.9-.2zm-11.1-1.1c.1.2-1.2.1-2 .2s1.3-.2 2-.3zm-6.2 0c.6.1-.6.2-.9.2s.6-.3.9-.3zm-3.9.4a5.6 5.6 0 0 0-2.2-.2c.9-.6 4.2.1 4.4.4 1.8-.1 6.2.2 6.1-.2 4.7.4-5.8.6-6.1.2h-5.2c-3.4-.2 1.7-.3 3-.3zm-25.9 0c-.1.2-1.8.2-3 .2s1.8-.2 3-.3zM60.1 98.1c-.1.3.1 1.6.2 1s-.1-1.5-.2-1zm.6 13.5c-.4-9.8-.4 6.1 0 0zm42.2 27.4c-2.2.4-8.5 0-10.3.4 2.3.2 6.9 0 7.3 0s13.2.7 10.4 0-10.6.3-7.4-.4zm-28 .2H61v-11c-.1 2.8-.2 6.6-.3 10.5v.8h.8c5.4 0 10.9 0 13.4-.3zm164-.2c-.3 0-1.5.1-.9.2s1.5-.1.9-.2zm-4.1 0c-2.7 0-6.8.1-4.5-.3l-6.1.2c-.5.6 13.5.3 10.6.1zm-12.5 0c-.3 0-1.5.1-.9.2s1.5-.1.9-.2z" fill="#4e426c"/><path d="M218.3 139.2c.3 0 1.5-.1.9-.2s-1.5.1-.9.2zm-104.9.2c.3.1 1.6-.1 1-.2s-1.6.1-1 .2zm-34.3 0c3.8-.1 10.4.3 12.4-.2-3.8.1-10.4-.3-12.4.2zm-3.1 0c.3.1 1.6-.1 1-.2s-1.6.1-1 .2zM124.7 54c-17.4.3-40.6.2-63.2.1h-.4V94c0 9.2-.2 17.1-.2 24.9 0 .5.5.8.4 2.1s-.7.5-.4 2.1.1 1 0 1c0 1.9.3 2.2.2 4.1s.1 5.8.2 10.5v.4h.4l36.1-.3c1.6 0 6.8.3 6.1-.4-12 .3-27 .4-42.3.4h-.1c0-16.9 0-34.2.2-47.8-.4-3.8.1-5.4-.2-10.4.3 0 1.1-2.9.4-4.1.1 1.8-.2 2-.4 2.1.1-2.8-.3-8.2.2-9.3 0 1.5 0 2.9.2 3.1-.2-3.2.2-3.8.2-6.2s-.7 2-.7-2.1-.1-6.3-.1-9.3v-.2h.2c8.2.1 15.6.4 22.8-.2 14.3.2 25.7.2 40.4.2.8 0 1-.2 2.1-.2s-.8-.4-2.1-.4zM61.6 68c-.1.5-.3-.7-.2-1s.3.8.2 1.1zm68.3-14.2l-3.1.4c1.4.4 8.8.3 10.4 0V54c-4.1.2-5.3.4-7.3-.2zm109.5 43.6V77.5c0-.8 0-2.1-.2-2.1.1 7-.3 16.6.2 22zm0 3.1c0-.8 0-2.1-.2-2.2s0 2.1.2 2.2zm-.3 8.2c.6-4.7-.6-2.9 0 0zM107 139c-5.5-.2-1.1.7 0 0zm62.2-84.7c3.9 0 7.7.4 11.4-.2H162c-6.7 0-13.5-.2-15.5.4 9.3.1 16.5-.2 22.7-.2z" fill="#4e426c"/><path d="M238.8 94v4.1c0 1.3.2 2.2.2 1.1-.1-9.7 0-17.1.1-24s.2-13.2.1-20.7V54h-.5l-6.2.2c.6 0 1.2.2 0 .2s-.8.3-1 0a33.6 33.6 0 0 0-5.2-.2c-15.6 0-37.9 0-51.8.4h-15.6c-3.7-.2-3.7.4 0 .2h7.2c11.2-.1 24.7.3 34.2-.2 1.6-.1 3.2.4 5.2.4s4.2-.3 6.2-.2c4.6.1 9.5.4 14.5.4l5.2-.2h7.3l-.7-.7c-.1 5-.3 9.9-.1 13.4a4 4 0 0 1 .2-2c0-1.2.3-.6 0 0v11.6c.1 1.5.7.5.7 2.2a4.2 4.2 0 0 0-.4 2c.5 1.2.1 6.5.2 9.4.2.2.1 1.9.2 3.1zm-11.6-39.1c-.5-.1.7-.3 1-.2s-.7.3-1 .2zm10.4.2c-.1-.2.4-.2 1-.2l-.3-.3c0 1.2-.1 3.1 0 4.1v5.2c-.5-1.3-.2-6.1-.2-9.3l.5.5zm-3.1-.4a30.6 30.6 0 0 1 4.2-.3h.1c0 3.5-.1 8.1 0 11.4-.4-2.4-.2-7.1-.2-11.4h-4.1zm3.8 18.5c.2.1.2 1.3.2 2.1s-.1-1.3-.2-2.1zm0 3.1c.1-.5.3.8.2 1.1s-.2-.8-.2-1.1zm-14.1 62.6c-.7-.5-4.2.2 0 0zm-106.8 0c.3.1 1.5-.1 1-.2s-1.6.1-1 .2zm-10.4-.2v.2c6 .2 5.9-.3 0-.2zm30.1-84.4c1.2.7 5.5-.2 0 0zm8.3 0c-6.6-.3-2.3.7 0 0z" fill="#4e426c"/><path d="M232.4 54.3c-.9 0-1 .1-1 .2h1zm-116.2 84c-1.6 0-12.5-.3-9.2.4-1.4-.2 15.7-.3 9.2-.4zM238.7 123c.2-5.6-.1-12.1-.2-16.7 0-2.9.3-8.8-.4-9.5 0 6.6.3 8.8 0 14.4.2 0 .3.4.4 1.3s-.3.6-.4 1.8c-.1 3.1.3 7.9.2 13.6a33.9 33.9 0 0 0 .4-4.9zm-107 15.3c-.3-.1-1.5.1-1 .2s1.6-.1 1-.2zm-4.1 0c-.3-.1-1.5.1-1 .2s1.6-.1 1-.2zm-3.1 0c-.3-.1-1.5.1-1 .2s1.6-.1 1-.2zm-3.1 0c-.8 0-2 0-2 .2s2 0 2-.2zM62.1 92.9V81.5c-.5-2.6.1 8.5-.4 9.3s.1 2.1.4 2.1zm-.2-16.5c-.1-1.5-.3.1 0 0zm81.4-21.5c1.5-.1-.1-.3 0 0zm2.1 0c1.8-.1 6.1.3 6.2-.2h-3.1c-1.2.1-2.9 0-3.1.2zm7.3 0c.8 0 2 0 2.1-.2s-2.1 0-2.1.2zm85.8 35.9c-.5-6.1-.7 5.1 0 5.2 0-2.6-.4-3.4 0-5.2zM86.2 138.1c-.3-.1-1.6.1-1 .2s1.5-.1 1-.2zm-12.4 0c-.3-.1-1.6.1-1 .2s1.5-.1 1-.2zm-2.1 0c-.3-.1-1.6.1-1 .2s1.6-.1 1-.2zm-9.6-40c0-1.5.1-3.8-.2-4.1 0 1.5-.1 3.8.2 4.1zm-.2-25.9c-.2 4.3.7.2 0 0zm66.9-17c.8 0 2 0 2.1-.2s-2-.1-2.1.2zm8.3 0c.8 0 2 0 2.1-.2s-2-.1-2.1.2zm6.2-.3c-1.5.1.1.3 0 0zm94.8 32.7c.5 0 .1-4.3.2-6.1-.5 0-.1 4.3-.2 6.1zm.3 40.3c-.2.4 0 1.3 0 0zm-132.6 10c-.3-.1-1.5.1-1 .2s1.5-.1 1-.2zm-41.9-11.8c.1-.3-.1-1.6-.2-1s0 1.5.2 1zm172.8 10.4c0-.2-.1-1.6-.2-1.2s.1 1.7.2 1.2zm-121.2-1.2c-.3-.1-1.5.1-1 .2s1.5-.1 1-.2z" fill="#4e426c"/><path fill="#9b8bc3" d="M50 163.6h94.2v93.1H50z"/><path d="M85.5 257.1c1.4.5 5.7.1 8.3.2-1.2-.7-1.6-.1-3.9-.4.1.4-3.1 0-4.4.2zm-35.4-83.8c.1-.2-.1-1.1-.2-.7s.1 1.1.2.7zm78 83.9h-3.7c-.1.3 4.3.3 3.7 0zm-38.2-.3v-.2c-.9 0-.4.2 0 .2z" fill="none"/><path d="M88.5 256.9c-2.2-.6-4.8.3-8.2 0a12.9 12.9 0 0 0 5.3.2c.1-.3 1.7-.2 2.9-.2zm35.6-.1H107a154.8 154.8 0 0 0 17.1 0zm3.9.2c-.7-.3-.9 0 0 0zm-13.8.6c-.2-.1-1.1.1-.6.2s1-.1.6-.2zm-35.4-.7c-.9 0-2.1 0-2.2.2s2.1 0 2.2-.2zm16.4.2H99c-.1-.3-2.5-1-3.1-.4a2.9 2.9 0 0 1 1.6.2c-1.1-.1-4.7 0-2.3.2zm17.3.1c-.2-.1-1.1.1-.6.2s1-.1.6-.2zm-7 1h.8c-.3-.2-.9-.1-.8 0z" fill="none"/><path d="M103.3 256.9c.1.4-3.1.1-4.4.2s7.9.2 4.4-.2zm9.4.7c-.2-.1-1.1.1-.6.2s1-.1.6-.2zm-8.1-1.1c-.6 0-1.5 0-1.4.2s1.5-.1 1.4-.2zm-4.4-.1c-.2-.1-1.1.1-.7.2s1.1 0 .7-.2zm43.5-60.8c.1 2.3-.3 6.3.2 7.5v-3.7c-.1-1.2.3-3.8-.2-3.8zm.4-2.1c.1 3.5-.3 8.8.2 11.2-.1-3.5.3-8.8-.2-11.2zm-.2 16.2c0 .6 0 1.5.2 1.6s0-1.5-.2-1.6zm0-21.5c-.1.2.1 1.1.2.8s-.1-1.1-.2-.8zm-.2 16.3c.3-.3 0-.9 0 0zm.2 7.4c-.1.2.1 1.2.2.8s-.1-1.1-.2-.8zm.7-19.8h-.2c0 .8.2.4.2 0zm-.3-.1v-.7c-.2.1-.1.7 0 .7z" fill="none"/><path d="M147.2 231c.1-.2-.1-1.2-.2-.9s.1 1.2.2.9zm-57.8 28.8c.2.1 1.1-.1.7-.2s-1.1.1-.7.2zm14.8-98.7c-.2-.1-1.1.1-.7.2s1.1-.1.7-.2zm31.5 97.1c.2 0 1.1-.1.6-.2s-1 .1-.6.2zm-25.6.2c.2.1 1.1-.1.6-.2s-1 .1-.6.2z" fill="#4e426c"/><path d="M55.8 257.5c6.2 0 12-.4 17.9-.2 3 .1 6.9.5 11.4.6s8.6-.1 12.2.4a8 8 0 0 1 4.4-.2c-1.1 0-2.1 0-2.2.2a60.2 60.2 0 0 0 6 0c-.1-.1.5-.2.8 0h-.8v.2c3.9 0 4.1-.1 1.3-.4h7.5c5-.6 8.7-.2 14.7-.5 0-.2-.4-.3-1-.3s-3.9.3-3.7 0h3.7v-.3c-.9 0-.7-.3 0 0a6.7 6.7 0 0 0 2.7-.4c-3.8-.3-5 .4-6.6.2a154.8 154.8 0 0 1-17.1 0h17.1a28.8 28.8 0 0 0-4.7-.4c-.5 0-.6.2-1.4.2s-.1-.2-.9-.2-.6.2-1.4.2-.1-.2-.9-.2a13.1 13.1 0 0 1-3.8-.2c-7 .2-16.9-.4-21.3.4v.2c2.3.3 2.7-.2 3.9.4-2.6-.1-6.8.3-8.3-.2a12.9 12.9 0 0 1-5.3-.2c3.4.3 6-.6 8.2 0-1.1 0-2.8-.1-2.9.2s4.5.3 4.4-.2-.9-.2-.1-.2c-3.5-.6-10.9.1-13.4-.2-.8.1-.4.4-1.4.4a3.2 3.2 0 0 0-1.6-.4c-.3.3-.9.5-2.1.4a110 110 0 0 1-11.9 0c.7.8-3.2.2-3.4.7zm58.4.1c.4.1-.4.2-.6.2s.4-.2.6-.2zm-1.7-.4c.4.1-.4.2-.6.2s.3-.2.6-.2zm.2.4c.4.1-.4.2-.6.2s.4-.2.6-.2zm-8.1-1.2c.1.2-.8.2-1.4.2s.9-.1 1.4-.1zm-4.4 0c.4.1-.4.3-.7.2s.4-.2.7-.2zm-2.8.4a2.9 2.9 0 0 0-1.6-.2c.6-.6 3 .1 3.1.4s4.5.2 4.4-.2c3.4.4-4.1.7-4.4.2h-3.7c-2.4-.1 1.2-.2 2.2-.1zm-18.6 0c-.1.3-1.3.2-2.2.2s1.3-.1 2.2-.1zm-30.2-61.9c-.1.2.1 1.1.2.7s-.1-1.1-.2-.7zm.6 9.6c-.4-7-.4 4.3 0 0zm.5 49.1c-.4-1.6 0-6.1-.4-7.4a37 37 0 0 0 0 5.2c0 .5-.2 3.3-.3 5.4v1h1c1.7.1 2.9 0 2-.3h-2.8v-.8c0-2.2-.1-4.9.5-3.1zm-.3-20.1v-17.1c-.2 4.8-.5 14 0 17.1zm95.1 23.6c-.3 0-1.1.1-.6.2s1.1-.1.6-.2zm-2.9.1c-2 0-4.9.1-3.3-.3l-4.3.2c-.3.6 9.7.2 7.6.1zm-9 0c-.2 0-1.1.1-.6.2s1.1-.1.6-.2zm-2.8.2c.2 0 1.1-.1.6-.2s-1.1.1-.6.2zm-75.5.1c.2.1 1.1-.1.7-.2s-1.1.1-.7.2zm-5.1-21c.1 2.7-.3 7.4.2 8.9-.1-2.8.3-7.4-.2-8.9zm0-2.3c-.1.2.1 1.1.2.7s-.1-1-.2-.7z" fill="#4e426c"/><path d="M95.3 163.1c-12.5.3-29.1.2-45.3.1h-.4v28.7c0 6.6-.2 12.2-.2 17.8 0 .4.5.6.4 1.5a1.2 1.2 0 0 0-.4 1.5c.3.1.1.7 0 .7s.3 1.6.2 3c.3 8 .3 23.3.4 33.4 0 1.2-.3 4.8.4 4.5-.6-18.3-.5-46.2-.2-64.6-.4-2.7.1-3.9-.2-7.4.3 0 1.1-2.1.4-3 .1 1.3-.2 1.4-.4 1.5.1-2-.3-5.9.2-6.7 0 1.1 0 2.1.2 2.2-.2-2.3.2-2.7.2-4.5s-.7 1.5-.7-1.5-.1-4.5-.1-6.7v-.2h.2c5.9.1 11.2.4 16.3-.2 10.2.2 18.4.2 29 .2a12 12 0 0 1 1.5-.2c0-.5-.5-.1-1.5-.1zm-45.2 10.2c-.1.4-.3-.5-.2-.7s.3.5.2.7zM99 162.9l-2.2.4c1 .4 6.3.3 7.4 0v-.2c-2.8.2-3.7.3-5.2-.2zm45.9 64.4v-14.2c0-.6 0-1.5-.2-1.6.2 5.1-.2 11.8.2 15.8zm0 2.3c0-.6 0-1.5-.2-1.6s0 1.4.2 1.6zm-.2 5.8c.5-3.2-.6-2.2 0 0zm-95 21.1c.2-3.9-.7-.9 0 0zm77.6-93.2c2.8 0 5.5.4 8.2-.2h-13.4c-4.8 0-9.7-.2-11.1.4 6.7.2 11.8-.1 16.3-.2zm17 61.5v3c-.1 1.3.2 1.6.2.9-.1-8 0-13.7.1-19.2s.2-10.7-.1-17.3c0 .4-.2.8-.2-.1s-.2-.7 0-.7a17.2 17.2 0 0 0 .2-3.7c0-7 0-15.9-.1-24v-.2h-.2l-13.2.3h-11.2c-2.7-.2-2.7.4 0 .2h5.2c6.1-.1 13.2.1 19.2 0l-.3-.3c0 1.9.1 3.7.2 5.3s-.4 2.3-.4 3.7.3 3 .2 4.5c-.1 3.3-.4 6.8-.4 10.3 0 1.1.2 2.6.2 3.7 0 5-.5 10.9-.2 14.7 0-.9 0-1.3.2-1.4s.3-.3 0 0v8.1c0 1.1.6.5.6 1.8a1.9 1.9 0 0 0-.4 1.3c.5 1 .1 4.7.2 6.8a7 7 0 0 1 .2 2.3zm-.4-36.5c.1-.4.3.6.2.8s-.2-.7-.2-.9zm-.2 7.4c.5 0 .1 2.7.2 3.8v3.5c-.5-1.1-.1-5.1-.2-7.4zm.4-2.1c.5 2.4.1 7.7.2 11.2-.4-2.5 0-7.8-.2-11.3zm-.2 16.2c.2.1.2 1 .2 1.6s-.1-1.1-.2-1.7zm0 2.2c.1-.3.3.6.2.8s-.2-.7-.2-.9zm-9.9 45c-.6-.5-3 .2 0 0zm-76.8.1c.2.1 1.1-.1.7-.2s-1.1.1-.7.2zm-7.3-.6h-.2v.6h.3c4 .1 3.9-.4 0-.2h-.1zm54.3-93.2c.9.7 3.9-.2 0 0zm6 0c-4.8-.3-1.6.7 0 0z" fill="#4e426c"/><path d="M144.6 192.1c0-.6-.1-.7-.2-.8v.7zm-88.2 64.3c-.8 0-4.9-.2-6.4 0l.3.3c-.1-.7-.2-.9-.4-.2s.1 0 .1.2c1.7-.1 10.5-.2 6.4-.3zm87.9-10.8c.2-4-.1-8.7-.2-12s.3-6.2-.4-6.9c0 4.7.3 6.4 0 10.4.2 0 .3.4.4 1s-.3.3-.4 1.2.3 5.8.2 9.8a16.5 16.5 0 0 0 .4-3.5zm-76.7 10.8c-.2-.1-1.1.1-.7.2s1.1-.1.7-.2zm-3 0c-.2-.1-1.1.1-.7.2s1.1-.1.7-.2zm-2.2 0c-.2-.1-1.1.1-.7.2s1.1-.1.7-.2zm-2.2 0c-.6 0-1.5 0-1.5.2s1.4 0 1.5-.2zm-9.6-65.3V183c-.5-1.9.1 6.1-.4 6.7s.1 1.4.4 1.4zm-.3-11.8c-.1-1.1-.3.1 0 0zm58.4-15.3c1.1-.1-.1-.3 0 0zm1.5 0c1.3-.1 4.4.3 4.5-.2h-2.2c-1 0-2.2-.1-2.3.2zm5.2 0c.6 0 1.5 0 1.5-.2s-1.5 0-1.5.2zm28.7 58.4c-.5-4.5-.6 3.5 0 3.7 0-1.8-.3-2.5 0-3.7zm-93.5 19.3c.1-.2-.1-1.1-.2-.7s0 1.1.2.7zm0-8.9c.1-.2-.1-1.1-.2-.7s0 1 .2.7zm0-1.5c.1-.2-.1-1.1-.2-.7s0 1 .2.7zm0-36.4c0-1.1.1-2.7-.2-3s-.1 2.7.2 3zm-.3-18.6c-.2 3.1.7.2 0 0zm48-12.1c.6 0 1.5 0 1.5-.2s-1.5 0-1.5.2zm5.9 0c.6 0 1.5 0 1.5-.2s-1.4 0-1.5.2zm4.5-.2c-1.1.1.1.3 0 0zm35 56c.4.1.1-3.1.2-4.3s0 3-.2 4.3zm.3 29c-.2.2 0 .9 0 0z" fill="#4e426c"/><path d="M50.8 255.8c.1-.2-.1-1.1-.2-.7s.1 1.1.2.7zm1.5-40.9c.1-.2-.1-1.1-.2-.7s.1 1.1.2.7zm90 39.8c0-.2-.1-1.2-.2-.9s.1 1.2.2.9zm-86-1.4c-.2-.1-1.1.1-.7.2s1.1-.1.7-.2z" fill="#4e426c"/><path fill="#f2f0f7" d="M61.4 175h71.5v70.39H61.4z"/><path d="M88.4 245.7c1.1.5 4.3.1 6.3.2-1-.7-1.2-.1-3-.4.1.5-2.3.1-3.3.2zm-26.9-63.4c.1-.2-.1-.9-.2-.6s.1.9.2.6zm59.3 63.5H118c-.1.3 3.2.3 2.8 0z" fill="none"/><path d="M91.8 245.5v-.2c-.7 0-.4.2 0 .2zm-1.2 0c-1.7-.6-3.6.3-6.2 0a7.5 7.5 0 0 0 4 .2c.1-.3 1.4-.2 2.2-.2zm27.1 0h-13a88.9 88.9 0 0 0 13 0zm2.9.2c-.5-.3-.7 0 0 0zm-10.4.6c-.2-.1-.8.1-.5.2s.9-.1.5-.2zm-26.9-.8c-.7 0-1.6 0-1.6.2s1.6.1 1.6-.2zm12.5.2h2.8c-.1-.3-2-1-2.4-.4a1.8 1.8 0 0 1 1.2.2c-.7-.1-3.5 0-1.6.2zm13.1.2c-.2-.1-.8.1-.5.2s.8-.1.5-.2zm-5.2 1h.6c-.2-.2-.6-.1-.6 0zm-1.8-1.4c.1.4-2.4.1-3.3.2s6 .2 3.3-.2zm7.2.8c-.2-.1-.8.1-.5.2s.9-.1.5-.2zm-6.3-1.2c-.4 0-1.1 0-1 .2s1.1 0 1-.2zm-3.3 0c-.2-.1-.8.1-.5.2s.8-.1.5-.2zm32.8-46.1c.1 1.7-.3 4.7.2 5.7v-2.8c-.1-.9.3-2.8-.2-2.9zm.5-1.5c.1 2.7-.3 6.6.2 8.5-.1-2.7.3-6.7-.2-8.5zm-.2 12.2c0 .5 0 1.1.2 1.2s0-1.1-.2-1.2zm0-16.2c-.1.1.1.9.2.6s-.1-.9-.2-.6zm-.2 12.2c.3-.2 0-.7 0 0zm.2 5.7c-.1.1.1.9.2.7s-.1-.9-.2-.7zm.6-15h-.2c0 .6.2.3.2 0zm-.2 0v-.6c-.3.1-.1.5 0 .6z" fill="none"/><path d="M135.8 226.3c.1-.1-.1-.9-.2-.7s.1 1 .2.7zm-44.2 22.2c.2.1.8-.1.5-.2s-.8.1-.5.2zm10.8-76.1c-.2-.1-.9.1-.6.2s.9 0 .6-.2zm24.3 74.4c.2 0 .8-.1.4-.2s-.7.1-.4.2zm-19.4.3c.2.1.8-.1.5-.2s-.9.1-.5.2z" fill="#4e426c"/><path d="M65.9 246.2c4.7 0 9.1-.4 13.6-.2 2.3.1 5.3.5 8.7.6a70.3 70.3 0 0 1 9.3.4 4.6 4.6 0 0 1 3.3-.2c-.8 0-1.6 0-1.6.2a34.9 34.9 0 0 0 4.6 0c-.1-.1.4-.2.6 0h-.6v.2c2.9 0 3.1-.1.9-.4h5.7c3.7-.6 6.6-.2 11.1-.5-.1-.2-.4-.3-.8-.3s-2.9.3-2.8 0h2.8v-.2c-.7 0-.5-.3 0 0s1.8-.1 2-.4c-3-.3-3.7.4-4.9.2a88.9 88.9 0 0 1-13 0h13a17.5 17.5 0 0 0-3.6-.4c-.4 0-.5.2-1 .2s-.1-.2-.7-.2-.5.2-1 .2-.1-.2-.7-.2a7.7 7.7 0 0 1-2.9-.2c-5.3.2-12.8-.4-16.1.4v.2c1.8.3 2-.2 3 .4-2-.1-5.2.3-6.3-.2a7.5 7.5 0 0 1-4-.2c2.6.3 4.5-.6 6.2 0-.8 0-2.1-.1-2.2.2s3.4.3 3.3-.2-.7-.2-.1-.2c-2.7-.6-8.2.1-10.2-.2s-.3.4-1 .4a2.1 2.1 0 0 0-1.2-.4c-.2.3-.6.4-1.6.4a63.2 63.2 0 0 1-9 0c.3.6-2.6.1-2.8.6zm44.4.1c.4.1-.3.2-.5.2s.3-.3.4-.2zm-1.4-.4c.4.1-.3.2-.5.2s.3-.3.5-.2zm.2.4c.4.1-.3.2-.5.2s.3-.3.5-.2zm-6.3-1.2c.1.2-.6.2-1 .2s.6-.2 1-.2zm-3.4 0c.3.1-.3.3-.5.2s.4-.3.6-.2zm-2.1.4a1.8 1.8 0 0 0-1.2-.2c.4-.6 2.3.1 2.4.4s3.4.2 3.3-.2c2.7.4-3.1.7-3.3.2h-2.7c-1.9-.2.9-.3 1.6-.2zm-14.1 0c0 .3-1 .2-1.6.2s1-.2 1.7-.2zm-23.3-46.9c-.1.2.1.9.2.6s-.1-.8-.2-.6zm.7 7.4c-.4-5.3-.4 3.3 0 0zm.4 37.1c-.4-1.2 0-4.6-.4-5.6a21.3 21.3 0 0 0 0 3.9c0 .3-.2 2.4-.3 4v1h1.1c1.3.1 2.3.1 1.7-.3h-2.5v-.8c-.1-1.6-.1-3.5.4-2.2zm-.2-15.2V215c-.3 3.6-.5 10.6 0 12.9zm72.4 17.9c-.2 0-.8.1-.4.2s.8-.1.4-.2zm-2.3 0c-1.5 0-3.7.1-2.6-.3l-3.2.2c0 .6 7.5.2 5.8.1zm-6.7 0c-.2 0-.8.1-.4.2s.7-.1.4-.2z" fill="#4e426c"/><path d="M122 246c.2 0 .8-.1.4-.2s-.7.1-.4.2zm-57.3.2c.2.1.9-.1.6-.2s-.9.1-.6.2zm-4.1-16c.1 2.1-.3 5.6.2 6.8-.1-2.2.3-5.7-.2-6.8zm0-1.7c-.1.2.1.9.2.6s-.1-.9-.2-.6zm35.1-54.1c-9.4.3-22 .2-34.3.1H61v21.8c0 5-.2 9.3-.2 13.5 0 .3.5.5.4 1.1a.9.9 0 0 0-.4 1.1c.3.1.1.6 0 .6s.3 1.2.2 2.3c.3 6.1.3 17.7.4 25.3 0 .9-.3 3.6.4 3.4-.6-13.9-.5-35-.2-49-.4-2.1.1-3-.2-5.6.3 0 1.1-1.6.4-2.3.1 1-.2 1.1-.4 1.1.1-1.5-.3-4.5.2-5.1s0 1.6.2 1.7c-.2-1.7.2-2.1.2-3.4s-.7 1.1-.7-1.1-.1-3.4-.1-5.1v-.2h.2c4.4.1 8.5.4 12.4-.2 7.8.2 14 .2 22 .2.5 0 .6-.2 1.1-.2h-1.2zm-34.2 7.9c-.1.3-.3-.4-.2-.6s.2.5.2.6zm37-8.1l-1.7.4c.8.4 4.8.3 5.6 0v-.2c-2.1.2-2.8.4-3.9-.2zm35.1 49v-10.8c0-.5 0-1.1-.2-1.2.1 3.9-.3 8.9.2 12zm-.1 1.7c0-.5 0-1.1-.2-1.3s.1 1.2.2 1.3zm-.2 4.4c.5-2.4-.6-1.8 0 0zM61 245.4c.2-3-.7-.7 0 0zm58.9-70.7c2.1 0 4.2.4 6.2-.2H116c-3.6 0-7.3-.2-8.4.4 5 .1 8.9-.2 12.3-.2zm13.1 46.5v2.3c-.1 1 .2 1.3.2.7-.1-6.1 0-10.4.1-14.6s.2-8.1-.1-13.1c0 .3-.2.6-.2-.1s-.2-.5 0-.6a9.8 9.8 0 0 0 .2-2.8c0-5.3 0-12-.1-18v-.2h-.2l-10.2.3h-8.4c-2-.2-2 .4 0 .2h3.9c4.7-.1 10.1.1 14.7 0l-.3-.3c0 1.4.1 2.7.2 3.9s-.4 1.7-.4 2.8.3 2.3.2 3.4-.4 5.1-.4 7.8c0 .9.2 2 .2 2.8 0 3.8-.5 8.2-.2 11.1 0-.7 0-1 .2-1s.3-.2 0 0v6.2c0 .8.6.5.6 1.4a1.1 1.1 0 0 0-.4.9c.5.8.1 3.6.2 5.2s.2 1 .2 1.7zm-.4-27.7c.1-.3.3.5.2.6s-.3-.5-.2-.6zm-.2 5.5c.5 0 .1 2 .2 2.9v2.8c-.5-.9-.1-3.9-.3-5.7zm.4-1.6c.5 1.8.1 5.8.2 8.5-.5-1.8-.1-5.8-.2-8.4zm-.2 12.3c.2.1.2.8.2 1.2s-.2-.7-.2-1.2zm0 1.7c.1-.2.3.5.2.7s-.3-.6-.2-.7zm-7.5 34.3c-.5-.5-2.2.2 0 0zm-58.1 0c.2.1.8-.1.6-.2s-.9.1-.6.2zm-5.8-.3H61v.3h.4c3.2.2 3.2-.4 0-.2h-.1zm41.2-70.7c.7.7 3-.2 0 0zm4.6 0c-3.6-.3-1.2.7 0 0z" fill="#4e426c"/><path d="M133.2 196.4c0-.5-.1-.6-.2-.6v.6zm-66.8 48.7a36.2 36.2 0 0 0-5 0l.3.3c-.1-.4-.2-.5-.4 0h.1c.7-.1 8.2-.2 5-.3zM133 237c.2-3-.1-6.6-.2-9.1s.3-4.7-.4-5.3c0 3.6.3 4.9 0 7.8.2.1.3.4.4.8s-.3.2-.4.9.3 4.4.2 7.4a8.8 8.8 0 0 0 .4-2.5zm-58.2 8.1c-.2-.1-.8.1-.5.2s.8-.1.5-.2zm-2.3 0c-.2-.1-.8.1-.5.2s.8-.1.5-.2zm-1.6 0c-.2-.1-.8.1-.5.2s.8-.1.5-.2zm-1.7 0c-.4 0-1.1 0-1.1.2s1.1 0 1.1-.2zm-7.3-49.3v-6.2c-.5-1.4.1 4.6-.4 5.1s.1 1.1.4 1.1zm-.2-9c-.1-.8-.3.1 0 0zm44.1-11.5c.8-.1-.1-.3 0 0zm1.2 0c1-.1 3.3.3 3.4-.2h-1.7c-.7 0-1.7 0-1.7.2zm3.9 0c.4 0 1.1 0 1.1-.2s-1.1 0-1.1.2zm21.9 44.1c-.5-3.5-.6 2.6 0 2.8 0-1.4-.4-2 0-2.8zm-70.9 14.7c.1-.2-.1-.9-.2-.6s.1.9.2.6zm0-6.7c.1-.2-.1-.9-.2-.6s.1.8.2.6zm0-1.2c.1-.2-.1-.9-.2-.6s.1.9.2.6zm0-27.6c0-.8.1-2.1-.2-2.3s-.1 2.2.2 2.3zm-.2-14c-.2 2.3.7.1 0 0zm36.2-9c.4 0 1.1 0 1.1-.2s-1-.1-1.1.2zm4.5 0c.4 0 1.1 0 1.1-.2s-1-.1-1.1.2zm3.4-.3c-.8.1.1.3 0 0zm26.6 42.2c.4.2.1-2.3.2-3.3s-.1 2.4-.2 3.3z" fill="#4e426c"/><path d="M132.6 239.5c-.2.1 0 .7 0 0zm-70.5 5.3c.1-.2-.1-.9-.2-.6s.1.9.2.6zm1.6-31c.1-.2-.1-.9-.2-.6s.1.9.2.6zm67.2 29.6c0-.1-.1-.9-.2-.7s.1.9.2.7zm-64.7-1.5c-.2-.1-.8.1-.5.2s.8 0 .5-.2z" fill="#4e426c"/><path fill="#9b8bc3" d="M155.7 163.6h94.2v93.1h-94.2z"/><path d="M191.2 257.1c1.4.5 5.7.1 8.3.2-1.2-.7-1.6-.1-3.9-.4.1.4-3.1 0-4.4.2zm-35.4-83.8c.1-.2-.1-1.1-.2-.7s.1 1.1.2.7zm78 83.9h-3.7c-.2.3 4.3.3 3.7 0zm-38.2-.3v-.2c-.9 0-.4.2 0 .2z" fill="none"/><path d="M194.1 256.9c-2.2-.6-4.8.3-8.2 0a12.9 12.9 0 0 0 5.3.2c.1-.3 1.8-.2 2.9-.2zm35.7-.1h-17.1a154.8 154.8 0 0 0 17.1 0zm3.9.2c-.7-.3-.9 0 0 0zm-13.8.6c-.2-.1-1.1.1-.6.2s1-.1.6-.2zm-35.5-.7c-.9 0-2.1 0-2.2.2s2.2 0 2.2-.2zm16.5.2h3.7c-.1-.3-2.5-1-3.1-.4a2.9 2.9 0 0 1 1.6.2c-1-.1-4.7 0-2.2.2zm17.2.1c-.2-.1-1.1.1-.6.2s1.1-.1.6-.2zm-6.9 1h.8c-.3-.2-.9-.1-.8 0zm-2.2-1.3c.1.4-3.1.1-4.4.2s7.8.2 4.4-.2zm9.4.7c-.2-.1-1.1.1-.6.2s1-.1.6-.2zm-8.1-1.1c-.6 0-1.5 0-1.4.2s1.4-.1 1.4-.2zm-4.5-.1c-.2-.1-1.1.1-.7.2s1.2 0 .7-.2zm43.6-60.8c.1 2.3-.3 6.3.2 7.5v-3.7c-.1-1.2.2-3.8-.2-3.8zm.4-2.1c.1 3.5-.3 8.8.2 11.2-.1-3.5.3-8.8-.2-11.2zm-.2 16.2c0 .6 0 1.5.2 1.6s0-1.5-.2-1.6zm0-21.5c-.1.2.1 1.1.2.8s-.1-1.1-.2-.8zm-.2 16.3c.3-.3 0-.9 0 0zm.2 7.4c-.1.2.1 1.2.2.8s-.1-1.1-.2-.8zm.6-19.8h-.2c0 .8.2.4.2 0zm-.2-.1v-.7c-.2.1-.1.7 0 .7z" fill="none"/><path d="M252.8 231c.1-.2-.1-1.2-.2-.9s.1 1.2.2.9zm-57.7 28.8c.2.1 1.1-.1.7-.2s-1.2.1-.7.2zm14.8-98.7c-.2-.1-1.1.1-.7.2s1.1-.1.7-.2zm31.5 97.1c.2 0 1.1-.1.6-.2s-1.1.1-.6.2zm-25.6.2c.2.1 1.1-.1.6-.2s-1.1.1-.6.2z" fill="#4e426c"/><path d="M161.4 257.5c6.2 0 12-.4 17.9-.2 3 .1 6.9.5 11.4.6s8.6-.1 12.2.4a8 8 0 0 1 4.4-.2c-1.1 0-2.1 0-2.2.2a60.2 60.2 0 0 0 6 0c-.1-.1.5-.2.8 0h-.8v.2c3.9 0 4.1-.1 1.3-.4h7.5c5-.6 8.7-.2 14.7-.5 0-.2-.4-.3-1-.3s-3.9.3-3.7 0h3.7v-.3c-.9 0-.7-.3 0 0a6.7 6.7 0 0 0 2.7-.4c-3.8-.3-5 .4-6.6.2a154.8 154.8 0 0 1-17.1 0h17.1a28.8 28.8 0 0 0-4.7-.4c-.5 0-.6.2-1.4.2s-.1-.2-.9-.2-.6.2-1.4.2-.1-.2-.9-.2a13.1 13.1 0 0 1-3.8-.2c-7 .2-16.9-.4-21.3.4v.2c2.3.3 2.7-.2 3.9.4-2.6-.1-6.8.3-8.3-.2a12.9 12.9 0 0 1-5.3-.2c3.4.3 6-.6 8.2 0-1.1 0-2.8-.1-2.9.2s4.5.3 4.4-.2-.9-.2-.1-.2c-3.5-.6-10.9.1-13.4-.2-.8.1-.4.4-1.4.4a3.2 3.2 0 0 0-1.6-.4c-.3.3-.9.5-2.1.4a110 110 0 0 1-11.9 0c.7.8-3.1.2-3.4.7zm58.4.1c.4.1-.4.2-.6.2s.4-.2.7-.2zm-1.7-.4c.4.1-.4.2-.6.2s.4-.2.6-.2zm.2.4c.4.1-.4.2-.6.2s.4-.2.7-.2zm-8.1-1.2c.1.2-.8.2-1.4.2s.9-.1 1.5-.1zm-4.4 0c.4.1-.4.3-.7.2s.5-.2.7-.2zm-2.8.4a2.9 2.9 0 0 0-1.6-.2c.6-.6 3 .1 3.1.4s4.5.2 4.4-.2c3.4.4-4.1.7-4.4.2h-3.7c-2.4-.1 1.3-.2 2.2-.1zm-18.6 0c-.1.3-1.3.2-2.2.2s1.4-.1 2.2-.1zm-30.2-61.9c-.1.2.1 1.1.2.7s-.1-1.1-.2-.7zm.7 9.6c-.4-7-.4 4.3 0 0zm.4 49.1c-.4-1.6 0-6.1-.4-7.4a37 37 0 0 0 0 5.2c0 .5-.2 3.3-.3 5.4v1h1.1c1.7.1 2.9 0 2-.3h-2.8v-.8c-.1-2.2-.1-4.9.4-3.1zm-.2-20.1v-17.1c-.3 4.8-.5 14 0 17.1zm95.1 23.6c-.3 0-1.1.1-.6.2s1.1-.1.6-.2zm-3 .1c-2 0-4.9.1-3.3-.3l-4.3.2c-.2.6 9.8.2 7.6.1zm-8.9 0c-.2 0-1.1.1-.6.2s1-.1.6-.2zm-2.9.2c.2 0 1.1-.1.6-.2s-1 .1-.6.2zm-75.5.1c.2.1 1.1-.1.7-.2s-1.1.1-.7.2zm-5-21c.1 2.7-.3 7.4.2 8.9-.1-2.8.3-7.4-.2-8.9zm0-2.3c-.1.2.1 1.1.2.7s-.1-1-.2-.7z" fill="#4e426c"/><path d="M201 163.1c-12.5.3-29.1.2-45.3.1h-.4v28.7c0 6.6-.2 12.2-.2 17.8 0 .4.5.6.4 1.5a1.2 1.2 0 0 0-.4 1.5c.3.1.1.7 0 .7s.3 1.6.2 3c.3 8 .3 23.3.4 33.4 0 1.2-.3 4.8.4 4.5-.6-18.3-.5-46.2-.2-64.6-.4-2.7.1-3.9-.2-7.4.3 0 1.1-2.1.4-3 .1 1.3-.2 1.4-.4 1.5.1-2-.3-5.9.2-6.7 0 1.1 0 2.1.2 2.2-.2-2.3.2-2.7.2-4.5s-.7 1.5-.7-1.5-.1-4.5-.1-6.7v-.2h.2c5.9.1 11.2.4 16.3-.2 10.2.2 18.4.2 29 .2a12 12 0 0 1 1.5-.2c0-.5-.6-.1-1.5-.1zm-45.2 10.2c-.1.4-.3-.5-.2-.7s.2.5.2.7zm48.9-10.4l-2.2.4c1 .4 6.3.3 7.4 0v-.2c-2.9.2-3.8.3-5.2-.2zm45.9 64.4v-14.2c0-.6 0-1.5-.2-1.6.1 5.1-.3 11.8.2 15.8zm0 2.3c0-.6 0-1.5-.2-1.6s0 1.4.2 1.6zm-.2 5.8c.5-3.2-.6-2.2 0 0zm-95.1 21.1c.2-3.9-.7-.9 0 0zm77.6-93.2c2.8 0 5.5.4 8.2-.2h-13.4c-4.8 0-9.7-.2-11.1.4 6.7.2 11.8-.1 16.3-.2zm17.1 61.5v3c-.1 1.3.2 1.6.2.9-.1-8 0-13.7.1-19.2s.2-10.7-.1-17.3c0 .4-.2.8-.2-.1s-.2-.7 0-.7a17.2 17.2 0 0 0 .2-3.7c0-7 0-15.9-.1-24v-.2h-.2l-13.2.3h-11.2c-2.7-.2-2.7.4 0 .2h5.2c6.1-.1 13.2.1 19.2 0l-.3-.3c0 1.9.1 3.7.2 5.3s-.4 2.3-.4 3.7.3 3 .2 4.5c-.1 3.3-.4 6.8-.4 10.3 0 1.1.2 2.6.2 3.7 0 5-.5 10.9-.2 14.7 0-.9 0-1.3.2-1.4s.3-.3 0 0v8.1c0 1.1.6.5.6 1.8a1.9 1.9 0 0 0-.4 1.3c.5 1 .1 4.7.2 6.8a7 7 0 0 1 .2 2.3zm-.4-36.5c.1-.4.3.6.2.8s-.3-.7-.2-.9zm-.2 7.4c.5 0 .1 2.7.2 3.8v3.5c-.5-1.1-.1-5.1-.2-7.4zm.4-2.1c.5 2.4.1 7.7.2 11.2-.5-2.5-.1-7.8-.2-11.3zm-.2 16.2c.2.1.2 1 .2 1.6s-.2-1.1-.2-1.7zm0 2.2c.1-.3.3.6.2.8s-.3-.7-.2-.9zm-10 45c-.6-.5-3 .2 0 0zm-76.7.1c.2.1 1.1-.1.7-.2s-1.1.1-.7.2zm-7.4-.6h-.2v.6h.4c4 .1 3.9-.4 0-.2h-.1zm54.4-93.2c.9.7 3.9-.2 0 0zm5.9 0c-4.8-.3-1.6.7 0 0z" fill="#4e426c"/><path d="M250.2 192.1c0-.6-.1-.7-.2-.8v.7zm-88.1 64.3c-.8 0-4.9-.2-6.4 0l.3.3c-.1-.7-.2-.9-.4-.2s.1 0 .1.2c1.6-.1 10.4-.2 6.4-.3zm87.9-10.8c.2-4-.1-8.7-.2-12s.3-6.2-.4-6.9c0 4.7.3 6.4 0 10.4.2 0 .3.4.4 1s-.3.3-.4 1.2.3 5.8.2 9.8a16.5 16.5 0 0 0 .4-3.5zm-76.8 10.8c-.2-.1-1.1.1-.7.2s1.1-.1.7-.2zm-2.9 0c-.2-.1-1.1.1-.7.2s1.1-.1.7-.2zm-2.3 0c-.2-.1-1.1.1-.7.2s1.1-.1.7-.2zm-2.2 0c-.6 0-1.5 0-1.5.2s1.5 0 1.5-.2zm-9.6-65.3V183c-.5-1.9.1 6.1-.4 6.7s.1 1.4.4 1.4zm-.2-11.8c-.1-1.1-.3.1 0 0zm58.4-15.3c1.1-.1-.1-.3 0 0zm1.4 0c1.3-.1 4.4.3 4.5-.2h-2.2c-.9 0-2.1-.1-2.3.2zm5.2 0c.6 0 1.5 0 1.5-.2s-1.4 0-1.5.2zm28.8 58.4c-.5-4.5-.6 3.5 0 3.7 0-1.8-.4-2.5 0-3.7zm-93.6 19.3c.1-.2-.1-1.1-.2-.7s.1 1.1.2.7zm0-8.9c.1-.2-.1-1.1-.2-.7s.1 1 .2.7zm0-1.5c.1-.2-.1-1.1-.2-.7s.1 1 .2.7zm0-36.4c0-1.1.1-2.7-.2-3s-.1 2.7.2 3zm-.2-18.6c-.2 3.1.7.2 0 0zm48-12.1c.6 0 1.5 0 1.5-.2s-1.5 0-1.5.2zm5.9 0c.6 0 1.5 0 1.5-.2s-1.5 0-1.5.2zm4.5-.2c-1.1.1.1.3 0 0zm35 56c.4.1.1-3.1.2-4.3s-.1 3-.2 4.3z" fill="#4e426c"/><path d="M249.6 249c-.2.2 0 .9 0 0zm-93.2 6.8c.1-.2-.1-1.1-.2-.7s.1 1.1.2.7zm1.6-40.9c.1-.2-.1-1.1-.2-.7s.1 1.1.2.7zm89.9 39.8c0-.2-.1-1.2-.2-.9s.2 1.2.2.9zm-85.9-1.4c-.2-.1-1.1.1-.7.2s1-.1.7-.2z" fill="#4e426c"/><g><path fill="#f2f0f7" d="M166 175h71.5v70.39H166z"/><path d="M193.1 245.7c1.1.5 4.3.1 6.3.2-1-.7-1.2-.1-3-.4.1.5-2.4.1-3.3.2zm-27-63.4c.1-.2-.1-.9-.2-.6s.1.9.2.6zm59.3 63.5h-2.8c-.1.3 3.3.3 2.8 0z" fill="none"/><path d="M196.4 245.5v-.2c-.7 0-.3.2 0 .2zm-1.2 0c-1.7-.6-3.6.3-6.2 0a7.5 7.5 0 0 0 4 .2c.1-.3 1.4-.2 2.2-.2zm27.1 0h-13a88.9 88.9 0 0 0 13 0zm2.9.2c-.5-.3-.7 0 0 0zm-10.3.6c-.2-.1-.8.1-.5.2s.8-.1.5-.2zm-27-.8c-.7 0-1.6 0-1.6.2s1.6.1 1.6-.2zm12.5.2h2.8c-.1-.3-2-1-2.4-.4a1.8 1.8 0 0 1 1.2.2c-.7-.1-3.5 0-1.6.2zm13.1.2c-.2-.1-.8.1-.5.2s.9-.1.5-.2zm-5.2 1h.6c-.2-.2-.6-.1-.6 0zm-1.8-1.4c.1.4-2.4.1-3.3.2s6 .2 3.3-.2zm7.2.8c-.2-.1-.8.1-.5.2s.9-.1.5-.2zm-6.3-1.2c-.4 0-1.1 0-1 .2s1.1 0 1-.2zm-3.3 0c-.2-.1-.8.1-.5.2s.8-.1.5-.2zM237 199c.1 1.7-.3 4.7.2 5.7v-2.8c-.1-.9.2-2.8-.2-2.9zm.4-1.5c.1 2.7-.3 6.6.2 8.5-.1-2.7.3-6.7-.2-8.5zm-.2 12.2c0 .5 0 1.1.2 1.2s0-1.1-.2-1.2zm0-16.2c-.1.1.1.9.2.6s-.1-.9-.2-.6zm-.2 12.2c.3-.2 0-.7 0 0zm.2 5.7c-.1.1.1.9.2.7s-.1-.9-.2-.7zm.6-15h-.2c0 .6.2.3.2 0zm-.2 0v-.6c-.2.1-.1.5 0 .6z" fill="none"/><path d="M240.4 226.3c.1-.1-.1-.9-.2-.7s.1 1 .2.7zm-44.2 22.2c.2.1.8-.1.5-.2s-.8.1-.5.2zm10.9-76.1c-.2-.1-.9.1-.6.2s.9 0 .6-.2zm24.2 74.4c.2 0 .8-.1.4-.2s-.7.1-.4.2zm-19.4.3c.2.1.8-.1.5-.2s-.9.1-.5.2z" fill="#4e426c"/><path d="M170.5 246.2c4.7 0 9.1-.4 13.6-.2 2.3.1 5.3.5 8.7.6a70.3 70.3 0 0 1 9.3.4 4.6 4.6 0 0 1 3.3-.2c-.8 0-1.6 0-1.6.2a34.9 34.9 0 0 0 4.6 0c-.1-.1.4-.2.6 0h-.6v.2c2.9 0 3.1-.1.9-.4h5.7c3.7-.6 6.6-.2 11.1-.5-.1-.2-.4-.3-.8-.3s-2.9.3-2.8 0h2.8v-.2c-.7 0-.5-.3 0 0s1.8-.1 2-.4c-3-.3-3.7.4-4.9.2a88.9 88.9 0 0 1-13 0h13a17.5 17.5 0 0 0-3.6-.4c-.4 0-.5.2-1 .2s-.1-.2-.7-.2-.5.2-1 .2-.1-.2-.7-.2a7.7 7.7 0 0 1-2.9-.2c-5.3.2-12.8-.4-16.1.4v.2c1.8.3 2-.2 3 .4-2-.1-5.2.3-6.3-.2a7.5 7.5 0 0 1-4-.2c2.6.3 4.5-.6 6.2 0-.8 0-2.1-.1-2.2.2s3.4.3 3.3-.2-.7-.2-.1-.2c-2.7-.6-8.2.1-10.2-.2s-.3.4-1 .4a2.1 2.1 0 0 0-1.2-.4c-.2.3-.6.4-1.6.4a63.2 63.2 0 0 1-9 0c.3.6-2.6.1-2.8.6zm44.4.1c.4.1-.3.2-.5.2s.3-.3.5-.2zm-1.4-.4c.4.1-.3.2-.5.2s.3-.3.5-.2zm.2.4c.4.1-.3.2-.5.2s.3-.3.5-.2zm-6.3-1.2c.1.2-.6.2-1 .2s.6-.2 1-.2zm-3.4 0c.3.1-.3.3-.5.2s.4-.3.6-.2zm-2.1.4a1.8 1.8 0 0 0-1.2-.2c.4-.6 2.3.1 2.4.4s3.4.2 3.3-.2c2.7.4-3.1.7-3.3.2h-2.8c-1.8-.2 1-.3 1.7-.2zm-14.1 0c0 .3-1 .2-1.6.2s1.1-.2 1.7-.2zm-23.3-46.9c-.1.2.1.9.2.6s-.1-.8-.2-.6zm.7 7.4c-.4-5.3-.4 3.3 0 0zm.4 37.1c-.4-1.2 0-4.6-.4-5.6a21.3 21.3 0 0 0 0 3.9c0 .3-.2 2.4-.3 4v1h1.1c1.3.1 2.3.1 1.7-.3h-2.4v-.8c-.1-1.6-.2-3.5.3-2.2zm-.2-15.2V215c-.3 3.6-.5 10.6 0 12.9zm72.4 17.9c-.2 0-.8.1-.4.2s.8-.1.4-.2zm-2.2 0c-1.5 0-3.7.1-2.6-.3l-3.2.2c-.1.6 7.4.2 5.8.1zm-6.8 0c-.2 0-.8.1-.4.2s.7-.1.4-.2z" fill="#4e426c"/><path d="M226.7 246c.2 0 .8-.1.4-.2s-.8.1-.4.2zm-57.4.2c.2.1.9-.1.6-.2s-.9.1-.6.2zm-4.1-16c.1 2.1-.3 5.6.2 6.8-.1-2.2.3-5.7-.2-6.8zm0-1.7c-.1.2.1.9.2.6s-.1-.9-.2-.6zm35.1-54.1c-9.4.3-22 .2-34.3.1h-.4v21.8c0 5-.2 9.3-.2 13.5 0 .3.5.5.4 1.1a.9.9 0 0 0-.4 1.1c.3.1.1.6 0 .6s.3 1.2.2 2.3c.3 6.1.3 17.7.4 25.3 0 .9-.3 3.6.4 3.4-.6-13.9-.5-35-.2-49-.4-2.1.1-3-.2-5.6.3 0 1.1-1.6.4-2.3.1 1-.2 1.1-.4 1.1.1-1.5-.3-4.5.2-5.1s0 1.6.2 1.7c-.2-1.7.2-2.1.2-3.4s-.7 1.1-.7-1.1-.1-3.4-.1-5.1v-.2h.2c4.4.1 8.5.4 12.4-.2 7.8.2 14 .2 22 .2.5 0 .6-.2 1.1-.2h-1.2zm-34.2 7.9c-.1.3-.3-.4-.2-.6s.2.5.2.6zm37-8.1l-1.7.4c.8.4 4.8.3 5.6 0v-.2c-2.1.2-2.8.4-3.9-.2zm35.1 49v-10.8c0-.5 0-1.1-.2-1.2.1 3.9-.3 8.9.2 12zm0 1.7c0-.5 0-1.1-.2-1.3s0 1.2.2 1.3zm-.2 4.4c.5-2.4-.6-1.8 0 0zm-72.4 16.1c.2-3-.7-.7 0 0zm58.9-70.7c2.1 0 4.2.4 6.2-.2h-10.1c-3.6 0-7.3-.2-8.4.4 5 .1 8.9-.2 12.3-.2zm13.1 46.5v2.3c-.1 1 .2 1.3.2.7-.1-6.1 0-10.4.1-14.6s.2-8.1-.1-13.1c0 .3-.2.6-.2-.1s-.2-.5 0-.6a9.8 9.8 0 0 0 .2-2.8c0-5.3 0-12-.1-18v-.2h-.2l-10.2.3h-8.4c-2-.2-2 .4 0 .2h3.9c4.7-.1 10.1.1 14.7 0l-.3-.3c0 1.4.1 2.7.2 3.9s-.4 1.7-.4 2.8.3 2.3.2 3.4-.4 5.1-.4 7.8c0 .9.2 2 .2 2.8 0 3.8-.5 8.2-.2 11.1 0-.7 0-1 .2-1s.3-.2 0 0v6.2c0 .8.6.5.6 1.4a1.1 1.1 0 0 0-.4.9c.5.8.1 3.6.2 5.2s.2 1 .2 1.7zm-.4-27.7c.1-.3.3.5.2.6s-.3-.5-.2-.6zm-.2 5.5c.5 0 .1 2 .2 2.9v2.8c-.5-.9-.1-3.9-.2-5.7zm.4-1.6c.5 1.8.1 5.8.2 8.5-.5-1.8-.1-5.8-.2-8.4zm-.2 12.3c.2.1.2.8.2 1.2s-.2-.7-.2-1.2zm0 1.7c.1-.2.3.5.2.7s-.3-.6-.2-.7zm-7.4 34.3c-.5-.5-2.2.2 0 0zm-58.2 0c.2.1.8-.1.6-.2s-.9.1-.6.2zm-5.7-.3h-.2v.3h.4c3.2.2 3.2-.4 0-.2h-.1zm41.2-70.7c.7.7 3-.2 0 0zm4.5 0c-3.6-.3-1.2.7 0 0z" fill="#4e426c"/><path d="M237.8 196.4c0-.5-.1-.6-.2-.6v.6zM171 245.1a36.2 36.2 0 0 0-5 0l.3.3c-.1-.4-.2-.5-.4 0h.1c.8-.1 8.2-.2 5-.3zm66.6-8.1c.2-3-.1-6.6-.2-9.1s.3-4.7-.4-5.3c0 3.6.3 4.9 0 7.8.2.1.3.4.4.8s-.3.2-.4.9.3 4.4.2 7.4a8.8 8.8 0 0 0 .4-2.5zm-58.2 8.1c-.2-.1-.8.1-.5.2s.8-.1.5-.2zm-2.2 0c-.2-.1-.8.1-.5.2s.8-.1.5-.2zm-1.7 0c-.2-.1-.8.1-.5.2s.8-.1.5-.2zm-1.7 0c-.4 0-1.1 0-1.1.2s1.1 0 1.1-.2zm-7.3-49.3v-6.2c-.5-1.4.1 4.6-.4 5.1s.1 1.1.4 1.1zm-.2-9c-.1-.8-.3.1 0 0zm44.1-11.5c.8-.1-.1-.3 0 0zm1.2 0c1-.1 3.3.3 3.4-.2h-1.7c-.7 0-1.6 0-1.7.2zm3.9 0c.4 0 1.1 0 1.1-.2s-1.1 0-1.1.2zm21.9 44.1c-.5-3.5-.6 2.6 0 2.8 0-1.4-.4-2 0-2.8zm-70.9 14.7c.1-.2-.1-.9-.2-.6s.1.9.2.6zm0-6.7c.1-.2-.1-.9-.2-.6s.1.8.2.6zm0-1.2c.1-.2-.1-.9-.2-.6s.1.9.2.6zm0-27.6c0-.8.1-2.1-.2-2.3s-.1 2.2.2 2.3zm-.2-14c-.2 2.3.7.1 0 0zm36.3-9c.4 0 1.1 0 1.1-.2s-1.1-.1-1.1.2zm4.5 0c.4 0 1.1 0 1.1-.2s-1.1-.1-1.1.2zm3.3-.3c-.8.1.1.3 0 0zm26.6 42.2c.4.2.1-2.3.2-3.3s-.1 2.4-.2 3.3z" fill="#4e426c"/><path d="M237.2 239.5c-.2.1 0 .7 0 0zm-70.5 5.3c.1-.2-.1-.9-.2-.6s.1.9.2.6zm1.6-31c.1-.2-.1-.9-.2-.6s.1.9.2.6zm67.2 29.6c0-.1-.1-.9-.2-.7s.2.9.2.7zm-64.7-1.5c-.2-.1-.8.1-.5.2s.8 0 .5-.2z" fill="#4e426c"/></g><g><path fill="#685890" d="M226.3 127.3H71.9v-14.7l23.9-.2 45.4-28.2 25.7 20.1L226.3 66v61.3z"/><path d="M161.9 127.6c1.6.5 6.3.1 9.1.2-1.4-.6-1.7-.1-4.3-.4.2.4-3.4.1-4.8.2zm-64.4-16.1c.2-.1 1-.7.6-.6s-1 .8-.6.6zm111.1 16.2h-4.1c-.1.3 4.7.3 4.1 0z" fill="none"/><path d="M166.7 127.4v-.2c-1 0-.4.2 0 .2zm-1.6 0c-2.5-.6-5.3.3-9 0a16.7 16.7 0 0 0 5.8.2c.2-.3 2-.2 3.2-.2zm39.2 0h-18.8c4.6.3 14.6.2 18.8 0zm4.2.1c-.7-.2-1 0 0 0zm-15.1.6c-.3 0-1.2.1-.7.2s1.1-.1.7-.2zm-38.9-.7c-.9 0-2.3 0-2.4.2s2.4 0 2.4-.2zm18.1.2h4.1c-.2-.3-2.8-1-3.5-.4a3.8 3.8 0 0 1 1.7.2c-1-.1-5 0-2.3.2zm18.9.1c-.3-.1-1.2.1-.7.2s1.2-.1.7-.2zm-7.6 1h.8c-.3-.2-.9-.1-.8 0z" fill="none"/><path d="M181.4 127.4c.2.4-3.4.1-4.8.2.3.4 8.6.2 4.8-.2zm10.3.7c-.3 0-1.2.1-.7.2s1.2-.1.7-.2zm-8.9-1.1c-.6 0-1.6 0-1.5.2s1.6 0 1.5-.2zm-4.9 0c-.3-.1-1.2.1-.7.2s1.2-.1.7-.2zm44-57.5c1.2-.9 3.2-2 4.8-3l-.9-.5a7.8 7.8 0 0 0 .3 2.5V66l.5.3-1.3.8c-1.1.7-3.8 2.1-3.4 2.4z" fill="none"/><path d="M219.6 70.4c1.9-1.3 4.6-2.9 6.8-4.4h-.2a23.5 23.5 0 0 0 .3 4.1v-4.3h-.2a49.4 49.4 0 0 0-6.7 4.6zm6.4 5.4c0 .6 0 1.6.2 1.7s0-1.7-.2-1.7zm-11.1-2.1c.2-.1 1-.8.6-.6s-1 .7-.6.6z" fill="none"/><path d="M225.7 70.1c.3-.5 0-1 0 0zm.3 8.1c-.1.2.1 1.2.2.8s-.1-1.2-.2-.8zm-8-7.3v.2c.8-.5.3-.4 0-.2zm.1.2l-.7.4c.3.2.7-.3.7-.4z" fill="none"/><path d="M229.5 98.3c.1-.2-.1-1.3-.2-.9s.1 1.3.2.9zm-63 31.8c.3.1 1.2-.1.7-.2s-1.1.1-.7.2zm-9.1-36.5c-.1-.2-1-.7-.8-.3s1.1.6.8.3zm59.5 35.1c.3 0 1.2-.1.7-.2s-1.2.1-.7.2zm-28 .1c.3 0 1.2-.1.7-.2s-1.1.1-.7.2z" fill="#4e426c"/><path d="M129.4 128c6.8 0 13-.4 19.6-.2 3.3.1 7.7.5 12.6.6s9.4-.1 13.3.3a10 10 0 0 1 4.8-.2c-1.2 0-2.3 0-2.3.2 3.4.1 2.8 0 6.6 0-.1-.1.5-.2.8 0h-.8v.2c4.2 0 4.5-.1 1.4-.4h8.2c5.4-.6 9.5-.2 16.1-.4 0-.2-.4-.3-1.1-.3s-4.2.3-4.1 0h4.1v-.2c-1 0-.7-.2 0 0a8.4 8.4 0 0 0 3-.3c-4.2-.3-5.5.4-7.2.2-4.1.3-14.2.3-18.8 0h18.8a35.9 35.9 0 0 0-5.2-.4 11 11 0 0 1-1.5.2c-.3 0-.2-.2-1-.2s-.7.2-1.5.2-.1-.2-.9-.2a16.7 16.7 0 0 1-4.2-.2c-7.6.1-18.6-.4-23.4.4v.2c2.6.3 2.9-.2 4.3.4-2.8-.1-7.5.3-9.1-.2a16.7 16.7 0 0 1-5.8-.2c3.7.3 6.4-.6 9 0-1.2 0-3-.1-3.2.2s4.9.2 4.8-.2-1-.2-.1-.2c-3.9-.6-11.9.1-14.8-.2-.9 0-.4.4-1.5.4a4.5 4.5 0 0 0-1.8-.4c-.3.3-.9.4-2.3.4-5.5.1-7 .3-13 0 .7.5-3.6 0-3.8.5zm64 .1c.5.1-.4.2-.7.2s.4-.3.7-.2zm-1.9-.4c.5.1-.4.2-.7.2s.4-.2.7-.2zm.3.4c.5.1-.4.2-.7.2s.4-.3.6-.2zm-8.9-1.1c.1.2-.9.1-1.5.2s.8-.2 1.4-.2zm-4.9 0c.5.1-.4.2-.7.2s.4-.3.6-.2zm-3 .4a3.8 3.8 0 0 0-1.7-.2c.7-.6 3.3.1 3.5.4s4.9.2 4.8-.2c3.8.4-4.5.6-4.8.2h-4.1c-2.8-.2 1.2-.3 2.2-.2zm-20.4 0c0 .2-1.4.2-2.4.2s1.4-.2 2.3-.2zm-80.5-16.3c-.2-.1-1.2.1-.8.2s1.2-.1.8-.2zm-3 9.9c-.4-7.7-.4 4.8 0 0zm48.4 6.6c-1.7.4-6.7 0-8.1.4a45.7 45.7 0 0 0 5.7 0c.9 0 10.5.6 8.2 0s-8.3.3-5.8-.4zm-22 .2H78.7c5.3.3 15.4.5 18.8 0zm129.1-.1c-.3 0-1.2.1-.7.2s1.2-.2.7-.2zm-3.3 0c-2.2 0-5.3.1-3.6-.3l-4.7.2c-.3.6 10.7.2 8.3.1zm-9.8 0c-.3 0-1.2.1-.7.2s1.2-.1.7-.2z" fill="#4e426c"/><path d="M210.4 127.9c.3 0 1.2-.1.7-.2s-1.2.1-.7.2zm-82.6.1c.2.1 1.2-.1.8-.2s-1.3.1-.8.2zm-27 0c3-.1 8.2.3 9.8-.2-3.1.2-8.2-.3-9.8.2zm-2.5 0c.2.1 1.2-.1.8-.2s-1.2.1-.8.2z" fill="#4e426c"/><path d="M148.5 89.2l-7-5.3-.2-.2-.3.2c-13.2 8.4-30.1 18.7-45.4 28.2H71.3v.6l-.2 14.1a1.4 1.4 0 0 0 .2.6l.3.7h.2a1.9 1.9 0 0 1 1-.2s.4.7 1.6.4.8-.1.8 0 1.7-.3 3.3-.2c8.8-.3 25.6-.3 36.7-.4 1.3 0 5.4.3 4.8-.4-13.4.4-31.7.5-48.3.4h-.1v-15.1h7.9c3-.4 4.3.1 8.1-.3 0 .3 2.3 1.1 3.3.4-1.4.1-1.5-.2-1.6-.4 1.7.1 4.6-.1 6.3 0h-.1l1-.4-.9.6h-.1c-.7 0-1.3.1-1.4.2H96c1.2-.7 1.9-.9 3.1-1.6s-1.7.2 1-1.4c7.8-5.3 15.2-8.8 21.3-13.5l19.6-12h.1l6.9 5.4a14.3 14.3 0 0 1 1.4.8c.6-.5-.1-.6-.9-1.2zm-51 22.4c-.4.1.4-.6.6-.6s-.4.5-.6.5zm54.3-20.1a12.4 12.4 0 0 1-2.2-1.2c.6 1 5.3 4.5 6.4 5v-.2c-2.4-1.7-3.3-2.2-4.2-3.6zm75.2 3.3V79.2c0-.6 0-1.6-.2-1.7.2 5.5-.2 13 .2 17.3zm0 2.5c0-.7 0-1.6-.2-1.7s0 1.6.2 1.7zm-.2 6.5c.6-3.6-.6-2.3 0 0zm-104.1 23.8c-4.4-.2-.8.7 0 0zm53.5-29.7c2.5-1.7 5.3-3 7.4-5l-12.3 8-4.6 3h.7c-2.4-1.9-4.5-3.5-5.6-3.8l5.3 4.2h-.1z" fill="#4e426c"/><path d="M226.4 92.2v3.3c0 1.1.2 1.8.2.9-.2-13.1.2-21 .2-30.4v-1l-.8.5-8 5.4c.4-.2.9-.3.1.2s-.4.6-.7.4a20.8 20.8 0 0 0-3.5 2c-10.3 6.7-25.1 16.1-34 22.5l-5.5 3.5-4.8 3.1c-2.6 1.5-2.3 1.9.1.2l4.8-3.1c7.3-4.9 16.5-10.3 22.5-14.8 1-.8 2.3-1 3.7-1.8s2.6-2 4-2.8c3.1-1.9 6.5-3.7 9.8-5.8 1.1-.7 2.2-1.7 3.3-2.4l9-5.5-1.3-.7c-.1 2.1-.1 4.1.1 5.7 0-.9 0-1.4.2-1.6s.3-.5 0 0v9c.1 1.2.7.4.7 1.7a2.7 2.7 0 0 0-.4 1.5c.5 1 .1 5.1.2 7.4.1.2.1 1.6.1 2.6zm-11.5-18.5c-.4.1.3-.6.6-.6s-.4.5-.6.6zm7-4.2c-.4-.3 2.4-1.7 3.3-2.4l1.3-.8-.5-.3v2.5a7.8 7.8 0 0 1-.3-2.5l.9.5c-1.5.9-3.5 2.1-4.7 3zm-2.3 1a49.4 49.4 0 0 1 6.7-4.6h.2v4.2a23.5 23.5 0 0 1-.3-4.1h.2c-2.2 1.5-4.9 3.1-6.8 4.4zm6.4 5.3c.2 0 .2 1 .2 1.7s-.2-1.1-.2-1.7zm0 2.4c.1-.4.3.6.2.8s-.3-.6-.2-.8zm-11 49.3c-.6-.5-3.2.2 0 0zm-84.1.1c.2.1 1.2-.1.8-.2s-1.2.1-.8.2zm-8.2-.2v.2c4.8.1 4.6-.4 0-.2zM156 95.3c.3 1.1 3.6 2.5 0 0zm5.2 4.1c-4-3.4-1.8-.6 0 0z" fill="#4e426c"/><path d="M218 70.9c-.6.3-.6.5-.6.6l.7-.4zm-88.1 56c-1.3 0-9.8-.3-7.2.4-1.1-.1 12.3-.3 7.2-.4zm96.5-11.9c.2-4.4-.1-9.5-.2-13.2s.3-6.9-.4-7.5c0 5.2.3 7 0 11.3.2 0 .3.4.4 1s-.4.4-.4 1.4.3 6.3.2 10.7a20 20 0 0 0 .4-3.7zm-84.3 12c-.2-.1-1.2.1-.7.2s1.2-.1.7-.2zm-3.2 0c-.2-.1-1.2.1-.7.2s1.1-.1.7-.2zm-2.5 0c-.2-.1-1.2.1-.7.2s1.2-.1.7-.2zm-2.4 0c-.6 0-1.6 0-1.6.2s1.6 0 1.6-.2zm-55.8-13.9h9c2.1-.5-6.7.1-7.3-.4s-1.7.1-1.7.4zm13-.3c1.2-.1-.1-.3 0 0zm68.3-13.9c1 .6.1-.3 0 0zm1.3 1c1.2.8 3.6 3.2 4 2.8l-1.9-1.5c-.8-.6-1.9-1.4-2.1-1.3zm4.5 3.5c.5.4 1.3 1 1.4.8s-1.3-1-1.4-.8zm60.9-13.8c-.5-4.8-.7 4 0 4.1 0-2-.4-2.6 0-4.1zm-119.9 37.1c-.2-.1-1.2.1-.8.2s1.2-.1.8-.2zm-9.8 0c-.2-.1-1.2.1-.8.2s1.2-.1.8-.2zm-1.6 0c-.2-.1-1.2.1-.8.2s1.2-.1.8-.2zm-20.8-13.6c1.2 0 3 .1 3.3-.2s-3.1-.1-3.3.2zm20.4-.3c-3.4-.2-.2.7 0 0zM150.3 92c.5.3 1.3 1 1.4.8s-1.2-.9-1.4-.8zm5.2 4c.5.3 1.3 1 1.4.8s-1.3-.9-1.4-.8zm4 2.9c-1-.6-.1.3 0 0zm66.3-11.8c.5 0 .1-3.4.2-4.8s-.1 3.4-.2 4.8zm.2 31.7c-.2.3 0 1 0 0zm-104.3 7.7c-.2-.1-1.2.1-.8.2s1.2-.1.8-.2zM77 124.9c-.2-.1-1.2.1-.8.2s1.2-.1.8-.2zm147.3.3c0-.2-.1-1.3-.2-1s.2 1.3.2 1zM129 124c-.2-.1-1.2.1-.7.2s1.2-.1.7-.2z" fill="#4e426c"/></g><g><circle cx="86.6" cy="81.6" r="13.9" fill="#cdc5e1"/><path d="M94.5 93.5c.5.2 1.2-.7 1.7-1s-.3.2-1 .2-.6.5-.7.8zM73 83.9c.1-.1-.1-.2-.2-.1s.1.2.2.1zm27.5 1.7l-.3.9c.2.1.3-.1.4-.3s.1-.6-.1-.6z" fill="none"/><path d="M95.2 92.7v-.2c-.3.2-.1.3 0 .2zm-.3.2c-.7-.2-.8.9-1.6 1s1.1.1 1.2-.4.2-.4.4-.6zm4.9-6.6a13.4 13.4 0 0 1-1.8 3.5 4.9 4.9 0 0 0 1.8-3.5zm.5-.8c-.3 0 0 .2 0 0zm-.7 3.4c-.1 0-.1.3.1.3s0-.3-.1-.3zM93 94.1c-.2.1-.5.2-.4.4s.5-.1.4-.4zm3.3-2l.6-.6c-.2-.2-1.1-.4-.8.2a.3.3 0 0 1 .4-.1c-.2.1-.8.7-.2.5zM99 89c-.1 0-.1.3.1.3s.1-.3-.1-.3zm-.1 2.2V91c-.1-.1-.1.1 0 .2zm-1.5-.7c.4.3-.4.6-.5.9s.5-.1.7-.4.2-.6-.2-.5zm2-1.2c-.1 0-.1.3.1.3s0-.4-.1-.3zm-2.1.7c0 .1-.2.3 0 .4s.2-.3 0-.4zm-.7.7c-.1 0-.1.3 0 .3s.2-.2 0-.3zm-3.1-20.5c.5.1 1 1 1.5.8l-.7-.5c-.2 0-.5-.7-.8-.3zm-.2-.6l1.2.8a1.7 1.7 0 0 0 1.1.5l-1.1-.9a1.5 1.5 0 0 0-1.2-.4zm2.9 2.4c.1.1.2.2.4.1s-.3-.2-.4-.1zm-4-2.7c0 .1.3 0 .2-.1s-.3-.1-.2.1zm3 2.1c.1-.3-.2-.1 0 0zm1.3 1c0 .1.3.1.3 0s-.3-.1-.3 0zM93.2 69v.2c.1.1.1-.1 0-.2zm-.1.2H93c-.1.2.1.1.1 0z" fill="none"/><path d="M102.1 73.9c0-.1-.2-.2-.3-.1s.3.2.3.1zm-5.4 21.5c.1 0 .2-.3 0-.3s-.1.3 0 .3zM76.5 68.6c-.1 0-.2.3 0 .3s.1-.2 0-.3zm25.7 15.6c.1 0-.1-.3-.2-.2s0 .3.2.2zm-2.5 6.2c.1 0 .1-.3-.1-.3s0 .3.1.3z" fill="#4e426c"/><path d="M87.9 96.3A22.3 22.3 0 0 0 92 95a11 11 0 0 0 2.8-.7l1.3-.9a3.6 3.6 0 0 1 1.3-.7c-.1-.3.1-1.2.6-1s-.4.4-.2.6.5-.5 1-1.2-.1-.3.1-.2v.2h.1c.6-.8.6-.9-.1-.6a14.6 14.6 0 0 0 1-1.6 4.5 4.5 0 0 1 .4-1.8 6.8 6.8 0 0 0 .6-1.8c-.2-.1-.4-.1-.5.1s.2.3.1.5-.3.4-.4.3l.3-.9h-.2c0 .2-.3 0 0 0a.7.7 0 0 0-.3-.8c-.5.7.2 1.4-.2 1.6a4.9 4.9 0 0 1-1.7 3.7 13.4 13.4 0 0 0 1.9-3.5c-.4.1-.7.7-.8.8s.2.3.1.4-.2-.1-.3.1.2.3.1.4-.2-.1-.3.1 0 .3-.6.6a4.1 4.1 0 0 1-.7 1.1l-.9 1-.8.9a3 3 0 0 0-.5 1v.2c.6 0 .3-.6 1-.2s-1.2 1.3-1.7 1-.8.6-1.2.4.9-1.3 1.6-1-.6.3-.4.6 1-.4.7-.8-.3 0-.1-.2-2 1.5-2.7 1.4.1.5-.1.6-.3-.3-.5-.3a.5.5 0 0 1-.3.6l-1.3.6a3.2 3.2 0 0 1-1.4.1c.1.5-.9.1-.9.6zM99.6 89c.2 0 .2.3.1.3s-.2-.3-.1-.4zm-.6 0c.1 0 .2.3.1.3s-.2-.3-.1-.3zm.4.2c.1 0 .2.3.1.3s-.2-.2-.1-.2zm-2.1.7c.2.1 0 .3 0 .4s-.1-.2 0-.3zm-.7.8c.1 0 .1.3 0 .3s0-.3 0-.3zm-.1.8a.3.3 0 0 0-.4.1c-.3-.6.6-.4.8-.2s.9-.6.5-.9.4.2.2.5-.6.6-.7.4l-.6.6c-.6.3 0-.3.2-.4zM93 94.1c.1.2-.2.3-.4.4s.2-.3.4-.4zm-19.7-4.8c0 .1.2.2.3.1s-.3-.2-.3-.1zm1.9 1.6c-1.3-1.2.4 1.1 0 0zm10.5 4.9c-.4.4-1.4-.2-1.8.2a2.2 2.2 0 0 0 1.3.2l1.2.3c.5.1.9.1.7-.2s-2 .2-1.4-.5zM81 95a16 16 0 0 1-3.5-2.1 6.9 6.9 0 0 0 1.7 1.5 3.1 3.1 0 0 0 1.8.6zm20.1-13.3c-.1 0 .1.3.2.2s-.1-.3-.2-.2zm-.1.7c0 .5 0 1.2-.5.7s0 .4.1 1.1.6-.4.7-.9-.2-1.2-.3-.9zm-.2 2.1c-.1 0 0 .3.2.2s-.1-.2-.2-.2z" fill="#4e426c"/><path d="M100.8 85.3c.1 0 0-.3-.2-.2s.1.2.2.2zm-13.3 11c.1.1.3-.1.2-.2s-.3.1-.2.2zm-5.9-.9c.7.1 1.7.8 2.2.4s-1.7-.7-2.2-.4zm-.6-.2c0 .1.3 0 .3-.1s-.3 0-.3.1zm-4.9-23.5a17.1 17.1 0 0 0-3.6 7.7 14 14 0 0 0 1.2 8.9 18.5 18.5 0 0 0 2.4 3.7c.1.1.5-.2.6-.1s-.4.6 0 .6.2 0 .1.1.5.1.7.3a26.9 26.9 0 0 0 3.4 1.8 12.7 12.7 0 0 0 4 .9c.3 0 1.1.4 1.1-.4a10.8 10.8 0 0 1-3.5-.3 13.1 13.1 0 0 1-3.6-1.6 13.6 13.6 0 0 1-2.9-2.7 11.9 11.9 0 0 1-1.7-3.1c-.7-.4-.3-.9-.8-1.5s.9-.8.2-.8-.1.4-.3.5-.6-1.3-.1-1.6 0 .5.3.5.1-.6.1-1-.6.4-.7-.3a5.8 5.8 0 0 1-.2-1.5c0-.5.1-.9.2-1.4a7.4 7.4 0 0 0 .2-2.6c.2-.6.5-1.1.7-1.6l.8-1.5.9-1.4.8-1.3c.1-.1 0-.3.1-.4s-.2-.1-.4.1zM73 83.9c-.1.1-.3-.1-.2-.1s.2 0 .2.1zm3.6-13a1.3 1.3 0 0 1-.1.7c.5.2 1.3-.8 1.3-1.2v-.2c-.5.6-.5.9-1.2.7zm22.9 3.7l-.8-1.2-.9-1.2-.4-.4c-.1-.1-.2-.3-.4-.1s1.6 2.4 2.5 2.9zm.2.5c-.1-.1-.2-.3-.4-.2s.2.3.4.2zm.4 1.4c.3-1-.8-.1 0 0zM86.4 95.9c-.9-.3-.2.7 0 0zm-3.7-28h1a1.2 1.2 0 0 0 .9-.5l-1.5.3-.8.2-.8.3c-1.1.4-2.3.8-2.2 1.6l1.9-1z" fill="#4e426c"/><path d="M98.6 74.5l.4.6c.1.3.3.2.3.1a32 32 0 0 0-2.6-3.8 7.5 7.5 0 0 0-3.5-2.4c.1 0 .1.2-.1.2s-.2.2-.2-.1-.4-.4-.7-.6a14.2 14.2 0 0 0-4.4-1.1 9.8 9.8 0 0 0-4.2.6l-1.3.4-1.1.4c-.6.1-.4.6.1.2l1.1-.4 1.4-.4 1.5-.2h1.4l1.3-.2c.3-.1.5.5.8.6s.7-.2 1 0a19.3 19.3 0 0 1 2.1 1.2l.8.2a6.9 6.9 0 0 1 1.3 1.1 3.9 3.9 0 0 0 1.2.9.3.3 0 0 1-.1-.4c-.2-.1.1-.3 0 0l1.3 1.3c.2.1.5-.4.7-.2s-.2.4-.1.5.7.8 1.1 1.1.4.2.5.4zm-6.5-5.2c0-.1.2-.2.2-.1s-.1.1-.1.1zm1.4 1c.2-.4.6.2.8.3l.7.5c-.5.2-.9-.7-1.5-.9zm-.2-.6a1.5 1.5 0 0 1 1.1.4l1.1.9a1.7 1.7 0 0 1-1.1-.5zm2.9 2.3c.2-.2.3 0 .4.1s-.3 0-.4-.1zm.3.4c0-.1.3-.1.3 0s-.3.1-.3 0zm4.1 11.7c-.7-.1.1.8 0 0zM88.2 95.8c.1.1.3-.1.1-.2s-.2.1-.1.2zm-1.8-.2v.2c1 .2 1-.3 0-.2zm-8.5-25.2c.6.4.6-.8 0 0z" fill="#4e426c"/><path d="M79 69.6c-1.1.4 0 .8 0 0zm14.2-.6c-.1-.1-.2 0-.3.1h.2zm-5.3 26.1c-.3 0-2-.2-1.5.5s2.6-.4 1.5-.5zM100.4 79a3.7 3.7 0 0 0-.4-1.4l-.6-1.2c-.2-.4-.3-1.5-1.1-1.2s.9 1.1.9 2.1.4-.1.5 0-.3.2-.3.5.7 1.1.7 2.1.2-.6.3-.9zm-10 15.7c-.1 0-.2.2-.1.3s.2-.3.1-.3zm-.6.1c-.1 0-.2.2-.1.3s.2-.2.1-.3zm-.5.1c-.1-.1-.2.1-.1.2s.2-.1.1-.2zm-.5.1c-.1.1-.3.1-.3.3s.3-.1.3-.3zm-14.2-7.4l-.4-.8-.3-.9c-.6-.2.5 1.3.2 1.6s.3.2.5.1zm-1.1-2.5c-.2-.2-.3.1 0 0zm5.6-14.8c.1-.2-.2-.2 0 0zm.3-.1c.2-.3 1-.3.8-.7l-.4.3c-.3 0-.5.1-.4.4zm1-.6c.1-.1.3-.2.2-.3s-.3.1-.2.3zm17.8 4.5c-.9-.5-.2 1.1.4.7s-.6-.2-.4-.7zM83.1 94.5c0-.1-.3 0-.2.2s.3 0 .2-.2zm-1.9-.6c0-.1-.3 0-.2.1s.3 0 .2-.1zm-.3-.2c0-.1-.3 0-.2.1s.3.1.2-.1zM75 88.3c-.2-.2-.2-.6-.5-.5s.2.6.5.5zm-1.7-3.8c0 .7.7-.1 0 0zM77.4 72c.1-.1.2-.2.1-.4s-.3.2-.1.4zm1-.9c.1-.1.3-.2.1-.4s-.2.2-.1.4zm.7-.8c-.1.2.2.2 0 0zM97.5 74c.4-.3-.4-.6-.4-.9s.3.6.4.9zm2.5 5.9c-.3.1.1.2 0 0zM86.3 94.7c0-.1-.3.1-.2.2s.2 0 .2-.2zM79 90.4c0-.1-.2-.1-.3.1s.3 0 .3-.1zm18.7-8.8c.1 0-.1-.2-.2-.1s.1.2.2.1zM87.6 92c0-.1-.2.1-.1.2s.2 0 .1-.2z" fill="#4e426c"/></g><g><path d="M124.5 210.2c0-2.5-5.7-4.7-14.2-5.9 5.1-6.8 7.6-12.4 5.8-14.2s-7.4.7-14.2 5.8c-1.2-8.5-3.4-14.2-5.9-14.2s-4.7 5.7-5.9 14.2c-6.8-5.1-12.4-7.6-14.2-5.8s.7 7.4 5.8 14.2c-8.5 1.2-14.2 3.4-14.2 5.9s5.7 4.7 14.2 5.9c-5.1 6.8-7.6 12.4-5.8 14.2s7.4-.7 14.2-5.8c1.2 8.5 3.4 14.2 5.9 14.2s4.7-5.7 5.9-14.2c6.8 5.1 12.4 7.6 14.2 5.8s-.7-7.4-5.8-14.2c8.5-1.2 14.2-3.4 14.2-5.9z" fill="#cdc5e1"/><path d="M108.7 191.9a7.4 7.4 0 0 0 2.3-.9 8.6 8.6 0 0 1 2.8-.9c-.7-.6-1 0-2.5.3.2.5-1.9 1-2.6 1.5zm-36 14.3c-.2 0-.7.4-.4.4s.7-.3.4-.4zm42.2-.5l-2.5-.5c-.2.3 2.7.9 2.5.5z" fill="none"/><path d="M111.4 190.4v-.2c-.7.3-.3.3 0 .2zm-1 .4c-1.6 0-2.9 1.8-4.8 2.8a6.4 6.4 0 0 0 3.1-1.6c0-.4 1-.8 1.7-1.2zm2.1 14l-2.2-.3h-.2v-.2a50.5 50.5 0 0 0 5.1-8l-2.4 3.7-2.8 4.2-.3.4h.5zm2.5.7c-.2-.4-.6-.1 0 0zm-2.7-5.7c.1-.1.3-.7.1-.5s-.3.6-.1.5zm-7.6-5.6c-.5.4-1.2.8-1.1 1.1s1.2-.9 1.1-1.1zm10-4.3a1.6 1.6 0 0 1 1.6 1.2c.1 0 .2-.1.2-.3v-.7a1.1 1.1 0 0 0-.5-.6.8.8 0 0 0-.7 0c.6.1.8.5.8.6a1.4 1.4 0 0 0-.6-.4h-.8c-.5 0-.7.1 0 .2zm-1.5 9.2c.1-.1.3-.7.1-.5s-.3.7-.1.5zm1.3-4.8l-.2.4c.3.1.3-.3.2-.4z" fill="none"/><path d="M116.3 193.9c-.2-.1-.1-.6.1-1.2a3.2 3.2 0 0 0 0-1.7c-.1.1-.1.3-.2.7a11.2 11.2 0 0 1-.2 1.4c-.2 1-.3 1.8.3.8zm-3.5 5c.1-.1.3-.7.1-.5s-.3.7-.1.5zm3.5-3.9c.1-.4.3-1 .1-1s-.3 1-.1 1zm.8-3c.1-.2-.1-.8-.2-.5s.1.8.2.5zM107 228.5l2.5 1.4a4 4 0 0 0 2.2.7l-2.4-1c-.7-.3-2.2-1.6-2.3-1.1zm-1.1-1.2l3.6 2.1a7.5 7.5 0 0 0 3.3 1.1c-2.4-.5-5.4-2.8-6.9-3.2zm10.5 3.2c.3-.4.6-1 .4-1.1s-.5 1-.4 1.1zm-13.6-5.1c.1.1.7.4.5.1s-.6-.3-.5-.1zm9.8 5.7c-.2-.4-.6-.2 0 0zm4.5-2.1c.1-.2-.1-.8-.2-.5a.8.8 0 0 0 0 .4c.1.1.1.2.2.1zm-11.8-2.7v.2c.4.3.2 0 0-.2zm-.1.2l-.4-.3c-.1.3.3.4.4.3z" fill="none"/><path d="M109.2 220.4c0 .1.5.5.5.3s-.6-.6-.5-.3zm2.5-26.7c.1 0 .6-.4.3-.4s-.5.4-.3.4zm-31.8 34c-.1 0-.6.3-.3.4s.6-.4.3-.4zm39-19.6c.1.1.7.1.5 0s-.7-.2-.5 0zm-5.8-11.3c-.1.1-.3.7 0 .5s.2-.7 0-.5z" fill="#4e426c"/><path d="M98.1 184.4a27.7 27.7 0 0 1 2.2 5.5 32.9 32.9 0 0 1 1.2 5.9v1.2l.8-.5c1.6-1.1 3.9-2.2 6.4-3.5a23.4 23.4 0 0 1 3.7-1.7 5.6 5.6 0 0 1 1.7-.3c.5 0 .9.1.9.3s.3-.3.5 0 .1.9-.2 1a2 2 0 0 0 0-.7c-.1-.1-.1-.2-.2-.2s-.1.8-.1 1.2a7.6 7.6 0 0 1-.5 1.8c.1 0 .1.4-.2.4l.2-.4h-.2a18.9 18.9 0 0 0-.8 1.8c0 .2.3-.1.8-.8a34.1 34.1 0 0 1-2.4 4.3 17.6 17.6 0 0 1-2.4 4.2l-1.1 1.4 1.8.3 5.1.9c.1-.2 0-.4-.4-.5s-2.8-.2-2.5-.5l2.5.5v-.2c-.6-.1-.2-.4 0 0a3.9 3.9 0 0 0 2.1 0c-2.4-.9-3.7-.3-4.5-.7l-2.2-.2h-.5l.3-.4 2.8-4.2 2.4-3.7a50.5 50.5 0 0 1-5.1 8v.2h.2l2.2.3a6.1 6.1 0 0 0-2.1-.8l.2.5.5-.6c.2-.3.1-.6.4-1s.2.1.5-.3.1-.6.4-1 .2.1.5-.3a5.7 5.7 0 0 1 1.6-2c.6-1.1 1.2-2.2 1.8-3.5a10 10 0 0 0 1.1-4.2 2.6 2.6 0 0 0-1.1-2.2 3.2 3.2 0 0 0-2.1-.4 6.3 6.3 0 0 0-2.9 1.2v.2c1.5-.2 1.7-.8 2.5-.3a8.6 8.6 0 0 0-2.8.9 7.4 7.4 0 0 1-2.3.9 6.4 6.4 0 0 1-3.1 1.6c2-1 3.3-2.8 4.8-2.8-.7.3-1.7.8-1.7 1.1s2.7-1.1 2.6-1.5-.6 0-.1-.2a11.8 11.8 0 0 0-4.4 2c-1.5 1-2.9 2.1-3.6 2.4s0 .6-.6 1a1.5 1.5 0 0 0-.8.1l.5.2a1.8 1.8 0 0 0 0-.3c-.3-.2-.5-.6-.7-1.4s-.7-2.8-.9-3.9-.5-2.2-1-4c-.3.2-.5-.3-.8-.8s-.7-1.4-.9-1.3zm14.3 15.4c-.2.2 0-.5.1-.5s-.1.4-.2.5zm.9-.6c-.2.2-.1-.5.1-.5s-.1.4-.2.4zm-.4-.2c-.2.2-.1-.5.1-.5s0 .3-.2.4zm3.5-3.9c-.2-.1.1-.6.1-1s0 .6-.2.9zm.8-3.1c-.1.3-.3-.4-.2-.5s.2.3.1.5zm-1-1.8c0-.2-.2-.5-.8-.6a.8.8 0 0 1 .7 0 1.1 1.1 0 0 1 .5.6v.7c0 .2-.1.3-.2.3a3.2 3.2 0 0 1 0 1.7c-.1.6-.3 1.1-.1 1.2s-.5.2-.3-.8a11.2 11.2 0 0 0 .2-1.4c0-.4 0-.7.2-.7a1.6 1.6 0 0 0-1.6-1.2c-.7-.1-.6-.2-.1-.2h.8a1.4 1.4 0 0 1 .6.4zm-11.3 4c.1.3-.6.7-1.1 1.1s.5-.8.9-1.1zm-24.8 5c0-.1-.5-.6-.5-.3s.5.5.5.3zm-3.5-5.4c.4 1 .7 1.4.7 1.3a3.5 3.5 0 0 0-.3-.8c-.2-.8-.6-1.9-.4-.5zm17.7-10.4c-.2.5-.7 1.4-1 2.3a5.2 5.2 0 0 0-.6 2.3c.5-1 1.1-3 1.3-3.2l.6-.9a3.4 3.4 0 0 1 1.2-1 .9.9 0 0 1 .7 0c.2 0 .3.1.2-.2a.9.9 0 0 0-.8-.1 2.1 2.1 0 0 0-.9.6c-.5.6-.8 1-.7.2zm-4.6 12.9c-1.5-1.2-3.1-2.3-4.8-3.3a25.2 25.2 0 0 0-5.1-2.5 37.8 37.8 0 0 1 5.4 3 46 46 0 0 0 4.5 2.8zm34.2 13.9a.4.4 0 0 0-.1-.3h-.2v.2zm-.7-1.4c-.9-.8-2.8-1.5-1.4-1.4a17.6 17.6 0 0 0-2.9-.9c-.4.3 1.1.9 2.4 1.5s2.2 1.3 1.9.8zm-5.3-2.4c-.1-.1-.8-.1-.5.1s.7.1.5-.1z" fill="#4e426c"/><path d="M115.9 206.1c.1.1.8.1.5-.1s-.8-.1-.5.1zm-18.4-22.5c0 .1.5.5.4.2s-.4-.5-.4-.2zm-6.2 10.8c.1-1.9 1.3-4.8 1.1-5.9-.5 1.7-1.5 4.8-1.1 5.9zm-.3 1.5c.1-.1 0-.8-.1-.5s0 .7.1.5z" fill="#4e426c"/><path d="M76.1 229.2a5.8 5.8 0 0 1 .3-3 21.7 21.7 0 0 1 1.4-3.3 51.3 51.3 0 0 1 4.3-6.6l.4-.5H82a53 53 0 0 1-7.8-1.6 20.7 20.7 0 0 1-3.7-1.5 6.6 6.6 0 0 1-1.6-1.1 1.8 1.8 0 0 1-.7-1.5 2.4 2.4 0 0 1 .9-1.4l1.6-1a22.2 22.2 0 0 1 3.7-1.3 57.9 57.9 0 0 1 7.5-1.5h.9l-.6-.7-1.9-2.7a35.6 35.6 0 0 1-3.1-5.4 15.4 15.4 0 0 1-.9-2.7 3.7 3.7 0 0 1 0-2.3c.1-.1-.3-.5.2-.8l.3.2a.5.5 0 0 0 .6 0c.1-.3.4-.1.4 0s1-.2 1.9.2c2.8.7 6.7 3 10.3 5.7l.4.3v-.7a46.2 46.2 0 0 1 2.4-10.6 13.6 13.6 0 0 1 .9-1.7c.3-.6.6-1.1.3-1.2a10.2 10.2 0 0 0-1.5 2.9 29.5 29.5 0 0 0-1 3.3 65.1 65.1 0 0 0-1.3 7.3h-.1a60.2 60.2 0 0 0-6.6-4.3 22.6 22.6 0 0 0-3.6-1.6l-1.9-.4a2.7 2.7 0 0 0-1.8.4 2.1 2.1 0 0 0-.7 1.6 6.8 6.8 0 0 0 .3 1.9 19.2 19.2 0 0 0 1.4 3.4 53.5 53.5 0 0 0 3.5 5.9 7.2 7.2 0 0 1 1.2 1.3 13.9 13.9 0 0 0-3.3.6c-.1-.3-1.6-.8-2.1 0s1 0 1.1.2c-1.4.1-3.8 1.2-4.5.9s1.4-.4 1.4-.7-1.9.3-3 .8 1.2.3-.7 1a11.8 11.8 0 0 0-1.8 1.2 2.9 2.9 0 0 0-1.1 1.6 2 2 0 0 0 .6 1.7 6.6 6.6 0 0 0 1.5 1.2 16.4 16.4 0 0 0 7.1 2.1l4.7.9h.4l-.2.3a53.8 53.8 0 0 0-4.1 6 25.5 25.5 0 0 0-1.6 3.3 7 7 0 0 0-.6 3.8c.2.4.4.4.6.7s0-.1-.2-.6zm-3.4-23c.3 0-.3.4-.4.4s.2-.4.4-.4zm4.8 23.9a1.2 1.2 0 0 1-1.2 0 1 1 0 0 0 .6.6 3.1 3.1 0 0 0 1.5.1 5.5 5.5 0 0 0 2.4-.9v-.2a7.7 7.7 0 0 1-1.9.8 1.5 1.5 0 0 1-1.4-.4zm34.7-10a27.2 27.2 0 0 1 3.5 7 6.3 6.3 0 0 1 .2 1.3c.1.3-.1.8.2.8s-.4-3.4-1.2-5a15.8 15.8 0 0 0-2.7-4.1zm-.8-1.3c.3.3.6.8.7.7s-.5-.8-.7-.7zm.1-3.4h-1.2l-1.2.4.8.7c.2.2.3.1.2-.2l-.2-.8h.5a1.4 1.4 0 0 0 1.1-.1zm-15.8-33.2h-.4l-.3.2-.3.3c-.1.1 0 .2.1.1s.8-.2.9-.6zm-4.3 46.9c.4 1.8.5 3.8 1.7 5.2a42.9 42.9 0 0 1-2.2-8.8l-.2-1.2v-.9l-.8.6c-2.3 1.7-4.5 3-5 3.9a35.4 35.4 0 0 0 5.2-3.6l.2-.2v.3c.4 1.7.8 3.3 1.1 4.7z" fill="#4e426c"/><path d="M113.6 221l-1.1-1.7c-.5-.8-.8-.7-.5-.3a30.9 30.9 0 0 1 3.6 6.2 10.7 10.7 0 0 1 .8 2.9 3.5 3.5 0 0 1-.1 1.3 1.5 1.5 0 0 1-.7.8 3.8 3.8 0 0 1-2.4 0l-2.5-.9a60.7 60.7 0 0 1-5.4-2.9c.2.2.4.5-.1.2s-.5 0-.4-.3a9.3 9.3 0 0 0-1.9-1.7l-.6-.4-.5-.3v.6a60.7 60.7 0 0 1-1.1 6 23.7 23.7 0 0 1-2.2 6.1c-.5.9-1.3 1.8-2.2 1.9a2.1 2.1 0 0 1-1.3-.5l-1-1.1a22.9 22.9 0 0 1-2.3-5.1q-.5-2-.9-4c-.2-1.1-.4-2.2-.5-3.2h.2l-.2.2c-1.6 1-1.3 1.4.1.2l.2-.2-.5-.2c.2 1.1.3 2.2.5 3.3a36.3 36.3 0 0 0 2.5 8.4 7.3 7.3 0 0 0 1.3 1.9 2.5 2.5 0 0 0 2.1.9 3 3 0 0 0 1.8-1.2 7.1 7.1 0 0 0 .9-1.7c.3-.7 1-1.3 1.4-2.2s.4-2.1.7-3a62.3 62.3 0 0 0 1.6-6.3l-1.2.5.6.4c.6.5 1.6.8 2.2 1.3s3 2.1 4.6 3.1a10.7 10.7 0 0 0 4.7 1.7c-.7-.1-1-.3-1-.4s-.2-.4 0 0a5.3 5.3 0 0 0 3.1.1 2.3 2.3 0 0 0 1.1-1.4 3.4 3.4 0 0 0 .3-1.6c-.1-.8-.7-.1-.8-1a1.3 1.3 0 0 0 .2-1.1 4.8 4.8 0 0 1-1-1.8 13.3 13.3 0 0 0-1.2-2.3c-.2.1-.6-.7-.9-1.2zm-10.8 4.4c-.1-.3.5 0 .5.1s-.4.1-.5-.1zm4.1 3c.2-.5 1.6.8 2.4 1.1l2.4 1a4 4 0 0 1-2.2-.7zm-1.1-1.2c1.5.4 4.5 2.7 6.9 3.2a7.5 7.5 0 0 1-3.3-1.1zm10.5 3.3c-.1-.2.3-.7.4-1.1s0 .8-.3 1.1zm.7-1.6c-.1.1-.1 0-.2-.1a.8.8 0 0 1 0-.4c.2-.3.4.4.3.6zm1.9-22.4c.1-.7-2.1-.4 0 0zm-20-21.5c0 .2.4.7.4.4s-.4-.7-.4-.4zm-3.3-3v.2a1.7 1.7 0 0 1 1.3.2l.5.2s-.1-.2-.3-.4a1.5 1.5 0 0 0-1.5-.2zm-14.8 47.8c.8.4 2.3-1.3 0 0zm3.6-1.8c-2.9 1.3-.6 1.1 0 0z" fill="#4e426c"/><path d="M105.3 226.3c-.3-.3-.4-.2-.5-.1l.4.3zm-6-42a5.6 5.6 0 0 0-2.1-2.6l-.5-.2h-.5l-.7.2c-.3.2-.2.3.2.4s.2-.3.8-.2a3.2 3.2 0 0 1 1.9 1.4c1 1.2 1.5 2.5.9 1zm19.2 30c-2.7.6-5.7 1.5-7.9 1.9h-.2v-.2c.9 1.2 2.2 3.6 2.9 3.3a36.9 36.9 0 0 0-2.7-3.5l-.3.7 2.8-.3c-.1-.2 0-.4.4-.5s.5.3 1.1.2a41.9 41.9 0 0 0 6.4-2.1 11.3 11.3 0 0 0-2.5.5zm-16.9-22.7c0-.2-.3-.7-.3-.5s.3.8.3.5zm-.4-2c0-.2-.3-.7-.3-.4s.2.7.3.4zm-.5-1.5c0-.2-.3-.7-.4-.4s.4.7.4.4zm-.4-1.5c-.2-.4-.4-1-.6-.9s.4 1 .6.9zm-20.5 15.8l1.6 2.3.4-.9-2.8.4c-.8.5 1.2 0 2.8-.2l-.2.5c-.5-.7-.9-1.3-.9-1.6s-.6-.7-.9-.5zm-3.2 2.5c-.7.3.1.3 0 0zm7.2 24.2c.6-.5-.2-.2 0 0zm.9-.5c.7-.5 2.7-1.4 2.5-1.8l-1.3.8c-.5.3-1.3.7-1.2 1zm3-2c.3-.3.8-.6.7-.8s-.8.7-.7.8zm26.9-4.4c.9 1.2.8.5.3-.4s-1.3-2-1.6-1.8 1.1 1.2 1.3 2.2zm-24-31.6c-.1.1-.1.8.1.5s.1-.7-.1-.5zm-.7 4.5c-.1-.1-.7-.4-.5-.1s.7.3.5.1zm-.8-.6c-.1-.1-.7-.4-.5-.1s.7.3.5.1zm-10.7 5.7c.4.6 1 1.6 1.3 1.6s-1-1.6-1.3-1.6zm-3.8 5.2c2.1-.3-.1-.7 0 0zm2.2 25.9c.5.1 1.2.1 1.2-.1s-1.1-.1-1.2.1zm4.3-.7c.4-.2.9-.4.9-.6s-1 .4-.9.6zm2.7-1.5c-.6.5.2.2 0 0zm31.9-5.7c-.4.3.9 2 1 3s-.7-2.2-1-3zm5.3-9.6c.4.2.6-.3 0 0zm-26.3-32.3l-.4.3c-.1.1-.1.3 0 .2s.8-.6.4-.5zm-15.3 5.9c-.1-.1-1-.1-.7.1s1 .1.7-.1zm47.9 23c0 .2-.1.7-.1 1.1s-.1.6.1.3a2.4 2.4 0 0 0 .2-1.1c-.1-.4-.1-.7-.2-.3zM102 182.8l-.3-.4c-.1-.1-.3-.2-.2 0s.6.8.5.4z" fill="#4e426c"/></g><g><circle cx="96.1" cy="210.2" r="10.9" transform="rotate(-87.3 96.049 210.158)" fill="#f2f0f7"/><path d="M101.9 219.9c.5.3 1-.5 1.4-.7s-.3.1-.8.1-.5.3-.6.6zm-16.5-8.5c.1 0-.1-.2-.2-.1s.1.2.2.1zm21.6 2.4l-.2.7c.3.2.6-.6.2-.7zm-4.5 5.4v-.2c-.3.2-.1.3 0 .2z" fill="none"/><path d="M102.2 219.4c-.7-.3-.6.7-1.3.8s.9.2 1-.3.2-.4.3-.5zm4.1-5a10.6 10.6 0 0 1-1.6 2.7 3.4 3.4 0 0 0 1.6-2.7zm.5-.6c-.3 0 0 .2 0 0zm-.6 2.7c-.1 0 0 .2.1.2s.1-.2-.1-.2zm-5.5 3.8c-.1.1-.4.1-.3.4s.4-.2.3-.4zm2.7-1.5l.5-.5c-.2-.2-1-.6-.7 0s.2-.1.4 0-.7.6-.2.5zm2.3-2.3c-.1 0 0 .2.1.2s0-.2-.1-.2zm0 1.9h.1c-.2-.3-.2-.1-.1 0zm-1.4-.8c.4.3-.3.5-.4.7s.5 0 .6-.3.2-.5-.2-.4zm1.8-.8c-.1 0 0 .2.1.2s0-.2-.1-.2zm-1.9.3c0 .1-.2.2 0 .4s.1-.3 0-.4zm-.6.6c-.1 0-.1.2.1.3s0-.3-.1-.3zm-1.7-16.1c.4.1.7.9 1.2.6l-.5-.4c-.2 0-.4-.6-.7-.2zm0-.6c.6.2 1.1 1.2 1.8 1.1l-.8-.7a1 1 0 0 0-1-.4zm2.1 2.1c.1 0 .2.2.3.1s-.2-.3-.3-.1zm-3.1-2.3c0 .1.2 0 .2-.1s-.2-.1-.2.1zm2.3 1.8c.2-.3-.1-.1 0 0zm1 .8c0 .1.2.1.3 0s-.2-.2-.3 0zm-2.4-2.9v.2a.1.1 0 0 0 0-.2zm-.1.2h-.1c-.1.2.1.1.1 0z" fill="none"/><path d="M109.3 204.4c0-.1-.2-.2-.3-.1s.2.2.3.1zM104 222c.1 0 .2-.2 0-.3s-.2.2 0 .3zm-15.6-22.8c-.1 0-.1.2 0 .3s.1-.3 0-.3zm20.3 13.7c.1 0-.1-.3-.2-.2s0 .2.2.2zm-2.3 4.9c.1 0 0-.3-.1-.3s0 .3.1.3z" fill="#4e426c"/><path d="M96.6 221.9a20.2 20.2 0 0 0 3.4-.9 8.2 8.2 0 0 0 2.3-.3c.8-.4 1.4-1 2.3-1.1s0-1.1.5-.8-.3.3-.2.5.4-.3.9-.9-.1-.3.1-.1h.1c.5-.6.5-.7-.1-.5l.9-1.2c0-1.3.7-1.7.9-2.9s-.4-.1-.5 0 .1.9-.2.7l.2-.7h-.2c0 .2-.3 0 0 0a.6.6 0 0 0-.3-.7c-.5.5.2 1.1-.2 1.2a3.4 3.4 0 0 1-1.6 2.7 10.6 10.6 0 0 0 1.6-2.7c-.4 0-.7.5-.7.6s.2.3.1.3-.2-.1-.3 0 .2.3.1.3-.2-.1-.3 0 0 .2-.5.4a2.8 2.8 0 0 1-.6.8l-.7.7-.7.7a2 2 0 0 0-.4.8v.2c.5 0 .3-.5.8-.1s-.9 1-1.4.7-.7.5-1 .3.7-1.1 1.3-.8-.5.2-.3.5.8-.2.6-.6-.2-.1-.1-.2-1.6 1.1-2.2 1 .1.4-.1.5-.2-.3-.4-.3 0 .5-.2.5l-1 .4a2.2 2.2 0 0 1-1.1 0c0 1-.8.5-.8 1zm9.7-5.4c.1 0 .2.2.1.2s-.2-.2-.2-.2zm-.5 0c.1 0 .2.2.1.2s-.3-.2-.2-.2zm.4.2c.1 0 .2.2.1.2s-.3-.1-.2-.1zm-1.9.3c.2.1 0 .2 0 .4s-.2-.2-.1-.3zm-.5.6c.1 0 .1.3.1.3s-.4-.2-.3-.2zm-.1.7c-.1-.1-.3-.1-.4 0s.5-.3.7 0 .8-.4.4-.7.4.2.2.5-.5.5-.6.3l-.5.5c-.6 0-.1-.5 0-.5zm-2.9 1.9c.1.2-.2.3-.3.4s0-.3.2-.3zm-15.7-4.3c0 .1.2.2.3 0s-.2-.2-.3 0zm1.6 1.3c-1.1-.9.2.9 0 0zm8.2 4.2c-.4.4-1.1-.2-1.5.2s.9.2 1 .2l.9.3c.4.1.7.1.5-.2s-1.5.2-.9-.5zm-3.7-.8a12.7 12.7 0 0 1-2.7-1.8 4.8 4.8 0 0 0 1.2 1.3 2.1 2.1 0 0 0 1.5.5zm16.4-9.8c-.1 0 .1.2.2.2s-.1-.3-.2-.2zm-.1.5c0 .4 0 1-.5.5s0 .3.1.9.6-.3.7-.7-.1-.8-.3-.7zm-.2 1.7c-.1 0 0 .2.2.2s-.1-.2-.2-.2z" fill="#4e426c"/><path d="M107.3 213.6c.1 0 0-.2-.2-.2s.1.3.2.2zm-11 8.3c0 .1.2-.1.1-.2s-.2.1-.1.2zm-4.7-.9c.5.1 1.3.8 1.7.3s-1.2-.6-1.7-.3zm-.4-.2c0 .1.2 0 .2-.1s-.2 0-.2.1zm-3-18.9a14.3 14.3 0 0 0-3.1 6 11.1 11.1 0 0 0 .6 7.1 15.6 15.6 0 0 0 1.7 3c0 .1.4-.2.5-.1s-.5.5-.1.5.2 0 .1.1.4 0 .6.2a26.6 26.6 0 0 0 2.7 1.5 9.7 9.7 0 0 0 3.1.9c.2 0 .9.4.9-.3a8 8 0 0 1-2.7-.3 9.9 9.9 0 0 1-2.8-1.4 10.3 10.3 0 0 1-2.2-2.2 9 9 0 0 1-1.2-2.5c-.6-.3-.1-.7-.7-1.2s1-.6.3-.6-.1.3-.4.4-.5-1 0-1.2 0 .4.3.4.2-.5.1-.8-.7.3-.7-.2a3.7 3.7 0 0 1-.1-1.2c0-.4.1-.7.2-1.1a4.3 4.3 0 0 0 .2-2 13.6 13.6 0 0 1 3.1-4.4c0-.1-.1-.3 0-.4s-.3-.3-.4-.2zm-2.8 9.5c-.1.1-.3-.1-.2-.1s.2.1.2.1zm3.2-10.1a1.2 1.2 0 0 1 0 .6c.4.2 1.1-.5 1.1-.9v-.2c-.5.5-.5.7-1.1.5zm18.1 3.8l-.6-1-.7-1-.3-.3c-.1-.1-.2-.2-.4-.1s1.2 2 2 2.4zm.1.4c-.1-.1-.1-.3-.3-.2s.1.3.3.2zm.2 1.1c.4-.9-.8-.1 0 0zm-11.6 14.8c-.7-.3-.2.7 0 0zm-1.8-22.2h.8a.8.8 0 0 0 .7-.4l-1.2.2-1.3.3c-.9.3-1.8.5-1.8 1.2s2-1 2.8-1.3z" fill="#4e426c"/><path d="M105.9 205l.3.5c0 .3.3.2.3 0s-1.3-2.2-1.9-3.1a5.3 5.3 0 0 0-2.6-2 .1.1 0 0 1-.1.2c-.1.1-.2.2-.1-.1s-.3-.4-.5-.5a11.1 11.1 0 0 0-3.4-1 7.1 7.1 0 0 0-3.3.4l-1.1.2-.9.3c-.5 0-.3.5.1.2l.9-.3c1.4-.5 3.1-.2 4.4-.5s.3.5.6.6.6-.2.8 0a16.5 16.5 0 0 1 1.5 1.1h.7c.8.5 1.2 1.5 1.9 1.7s-.1-.2 0-.3.2-.3 0 0l1 1c.2.1.5-.4.7-.2s-.2.3-.2.5.6.6.8.9 0 .3.1.4zm-4.9-4.3c0-.1.2-.2.2-.1s-.3.2-.3.2zm1 .9c.2-.4.5.2.7.2l.5.4c-.6.3-.8-.5-1.3-.6zm-.1-.6a1 1 0 0 1 .9.3l.8.7c-.6.2-1.1-.8-1.7-1zm2.1 2c.2-.1.2 0 .3.1s-.2 0-.3 0zm.3.3c0-.1.3-.1.3 0s-.4.1-.4.1zm2.8 9.4c-.7-.1.1.6 0 0zm-10.3 8.7c0 .1.2-.1.1-.2s-.1.1-.1.2zm-1.3-.2v.2c.7.2.7-.3 0-.2zM89.6 201c.5.5.5-.6 0 0zm1-.6c-.9.2.1.7 0 0z" fill="#4e426c"/><path d="M101.8 200.5c-.1-.1-.2 0-.2.1h.1zm-5.1 20.3c-.2 0-1.6-.3-1.2.4s2-.3 1.2-.4zm10.4-12.1a2.4 2.4 0 0 0-.2-1.1l-.5-.9c-.2-.3-.1-1.2-.9-.9s.8.9.6 1.7h.5c-.4.1-.4.2-.4.4s.6.9.5 1.6.3-.6.4-.8zm-8.5 11.8c0-.1-.2.1-.1.2s.2-.1.1-.2zm-.5.1c0-.1-.2.1-.1.2s.2-.1.1-.2zm-.4.1c0-.1-.2.1-.1.2s.2-.1.1-.2z" fill="#4e426c"/><path d="M97.3 220.7c-.1.1-.3 0-.2.2s.2 0 .2-.2zm-10.7-6.3a9.2 9.2 0 0 1-.5-1.3c-.6-.2.4 1 0 1.3s.3.1.5 0zm-.8-2c-.2-.2-.3.1 0 0zm4.9-11.3c.1-.2-.1-.2 0 0zm.2-.1c.1-.2.8-.1.6-.6l-.4.2c-.1.1-.3.1-.2.4zm.8-.4c.1-.1.2-.1.2-.3s-.2.1-.2.3zm13.8 4.2c-.8-.4-.3 1 .3.6s-.6-.2-.3-.6zM93 220.1c0-.1-.2 0-.2.2s.2-.1.2-.2zm-1.5-.6c0-.1-.2 0-.2.1s.2 0 .2-.1zm-.2-.1c0-.1-.2 0-.2.1s.2 0 .2-.1zm-4.4-4.5c-.1-.1-.1-.5-.4-.4s.1.5.4.4zm-1.2-3c-.1.6.7-.1 0 0zm3.6-9.5c0-.1.2-.2.1-.3s-.2.1-.1.3zm.9-.7c.1-.1.2-.1.1-.3s-.3.1-.1.3zm.5-.6c-.1.2.1.2 0 0zm14.2 3.6c.4-.3-.2-.5-.3-.8s.3.5.3.8zm1.8 4.7c-.3.1 0 .2 0 0zm-11.3 10.9c0-.1-.2.1-.1.2s.1-.1.1-.2zm-5.2-3.9c0-.1-.2 0-.2.1s.2.1.2-.1zm14.1-5.8c.1 0-.1-.2-.2-.1s0 .1.2.1zm-7.8 7.1c0-.1-.1.1-.1.2s.2-.1.1-.2z" fill="#4e426c"/></g><g><path d="M181.2 226.2c-.4-.3-.8.4-1.2.5s.3 0 .7.1.4-.4.5-.6zm16.9.5c.1 0 .1-.2 0-.3s-.1.3 0 .3zm-23 1.8h.6c-.1-.5-.7-.4-.6 0zm5.6-1.7v.2c.2-.2.1-.3 0-.2z" fill="none"/><path d="M180.9 226.6c.6.4.5-.7 1-.8s-.8-.1-.8.3-.1.4-.2.5zm-5.2 2.2l2.6-.8a4.2 4.2 0 0 0-2.6.8zm-.6-.1c.1.3.1 0 0 0zm1.9-1.2s.1-.2 0-.2 0 .1 0 .2zm5.1-1.8c.1-.1.3-.2.1-.4s-.2.2-.1.4zm-2.2 1.3l-.5.3c.1.3.8.8.6.2s-.2.1-.3-.1.6-.4.2-.4zm-2.5.9c.1 0 .1-.2 0-.2s-.1.1 0 .2zm.6-1.5h-.1c.1.3.2.2.1 0zm.9 1.4c-.2-.4.4-.3.5-.5s-1.2.2-.5.5zm-1.6-.3s.1-.2 0-.2-.1.1 0 .2zm1.5.8c.1-.1.2-.1.1-.3s-.2.1-.1.3zm.7-.3c.1 0 .1-.2 0-.3s-.1.2 0 .3zm37.9 2.4c.3-.2 1.1 0 1.1-.5l-.6.2c-.1.1-.6-.2-.5.3zm-.4-.4c.5-.2 1.5-.1 1.6-.7s-1.4.1-1.6.7zm2.6-.6c.1-.1.2-.1.1-.3s-.2.1-.1.3zm-3.4.9c0 .1.2-.1.1-.2s-.2.1-.1.2zm2.7-.4c-.2-.3-.1.1 0 0zm1-.7c.1 0 .1-.2 0-.3s-.1.3 0 .3zm-3.2.4v.2c.1 0 0-.2 0-.2zm0 .2h-.1c.1.3.1.1.1 0z" fill="none"/><path d="M221.2 224.5c-.1 0-.2.2-.1.3s.2-.2.1-.3zm-42-.5c-.1 0-.1.2 0 .2s.1-.1 0-.2zm27.8 2.6c0-.1-.2 0-.2.2s.2-.1.2-.2zm-33.1.7c0-.1-.1.1-.1.2s.2-.1.1-.2zm3.4-.8s-.1.2 0 .2.1-.1 0-.2z" fill="#4e426c"/><path d="M184.9 225.9a3.3 3.3 0 0 1-1.1-1.3l-.3-.9-.6.7-.5.5c-.4.2-1.1.2-1.7.5s-1 .8-1.7.5-.1.9-.5.5.3-.1.2-.3-.3.1-.8.4 0 .3-.1 0h.1v-.2c-.5.2-.5.3 0 .5l-1 .4c-.5.9-1.2.6-2 1s.1.4.2.4.5-.5.6-.1h-.6v.2c.1 0 .1.3 0 0a.6.6 0 0 0-.4.5c.6.2.7-.7 1-.4a4.2 4.2 0 0 1 2.6-.8l-2.6.8a.8.8 0 0 0 .8.3c.1 0 .1-.3.2-.3s.1.2.2.2 0-.3.2-.3.1.2.2.2.1-.2.6 0 2.8-.8 2.9-1.9v-.2c-.5-.1-.2.5-.7-.1s.7-.8 1.2-.5.4-.5.8-.3-.4 1.1-1 .8.4-.2.3-.4-.7.2-.5.6.2.1.1.2 1.4-1.1 1.9-1.1-.2-.4-.1-.5.3.2.5.2-.2-.4 0-.6l.2-.3.2-.2.2.3a6 6 0 0 1 .6 1.3c.1-.6 0 .1.4-.3zm-7.9 1.6c-.1-.1 0-.3 0-.2s.1.3 0 .2zm.4.3c-.1-.1 0-.3 0-.2s.1.3 0 .3zm-.1-.4c-.1-.1 0-.3 0-.2v.3zm1.6.8c-.1-.2.1-.2.1-.3s-.1.3-.2.4zm.7-.3c-.1-.1 0-.3 0-.3l-.1.4zm.2-.6c.1.1.2.2.3.1s-.5.1-.6-.2-.7.1-.5.5.3-.9.5-.5l.5-.3c.3.1-.1.5-.3.5zm2.4-1.6c-.1-.2 0-.3.1-.4s-.1.3-.2.4zm12.3.5c0-.1-.1.1-.1.2s.1-.1.1-.2zm-1.4.9c1-.5-.7-.2 0 0zm-7.4-.1c.4-.3.8.4 1.2 0s-.7-.2-.7-.2l-.5-.5c-.2-.2-.3-.3-.4 0s1.1.2.4.7zm3 .5h2.6c-.7-.2-2.1-.5-2.6 0zm-16.1 1.2c0 .1.2-.1.1-.2s-.1.1-.1.2zm.5 0c.3 0 .7-.2.5.4l.7-.3c-.1-.8-1.5-.3-1.2-.1zm1.3-.1c0 .1.2-.1.1-.2s-.2.1-.1.2zm.4-.3c0-.1-.2.1-.1.2s.2-.1.1-.2zm10.3-2.2c0-.1-.2 0-.2.1s.1 0 .2-.1zm3.2 1.1c-.4.1-1-.5-1.3 0s1 .5 1.3 0zm.3.1c0-.1-.2.1-.1.2s.2-.1.1-.2z" fill="#4e426c"/><path d="M205 227.8a5.7 5.7 0 0 1-1.8-1.1 6.1 6.1 0 0 1-1.3-2l-.2-.4-.4.2a22.4 22.4 0 0 1-6.3 2.4 12.1 12.1 0 0 1-2.7.2c-.1 0 0 .5-.2.5s-.1-.7-.3-.4-.1.1-.1 0-.2.3-.4.3a8.8 8.8 0 0 1-2.5.3 11.7 11.7 0 0 1-2.7-.4c-.2 0-.5-.6-.8.1a16.2 16.2 0 0 0 5.1.5 45.8 45.8 0 0 0 5.1-.5c.3-.5.6-.1 1.1-.5s.7 1 .6.3-.3-.1-.4-.3.8-.6 1.1-.1-.3.1-.3.3.5.1.8-.1-.5-.6 0-.7 2.4-.6 3-1.7h.1l.3.2h.2a5.9 5.9 0 0 0 2.9 3.3h.3c.2-.6 0-.3-.2-.4zm-7-1.1c-.1-.1 0-.3 0-.3s.1.4.1.3z" fill="#4e426c"/><path d="M205.6 227.9l-.5.2c-.1.5.8.7 1 .5v-.2c-.3 0-.5.1-.5-.5zm16-.7l-1.8.8-.3.2c-.1.1-.2.1-.1.3s1.8-.6 2.2-1.3zm.4-.1c-.1.1-.2.1-.2.3s.2-.1.2-.3zm1.1 0c-.7-.5-.2.8 0 0zm-37.8-.3c.4.5.4-.5 0 0zm24.3 2.7c.4 0 .8.5 1.3-.1l-2-.3c-.7-.1-1.4-.6-1.8 0a5.7 5.7 0 0 0 2.5.4z" fill="#4e426c"/><path d="M221.5 227.9l.4-.2c.2 0 .2-.3 0-.2l-2.8 1.2a19 19 0 0 0-2.5.9c.1 0 .2.2 0 .2s-.1.3-.1 0a.6.6 0 0 0-.6-.1c-1.7.2-4.2.1-5.9.4h-.9l-.8-.2c-.4-.2-.5.3 0 .2l.8.2c1.3.1 2.8.6 3.9.1s.4.4.6.4.5-.3.7-.2a10.9 10.9 0 0 0 1.7.3l.6-.3c.8-.1 2 .1 2.5-.4s-.2 0-.3-.1-.2-.3 0 0l1.2-.6c.1-.1-.3-.6-.1-.7s.3.3.4.3.6-.4.8-.7.3-.4.4-.5zm-5.3 2.4c-.1-.1.1-.3.1-.2s-.1.3-.1.2zm1.2 0c-.1-.5.4-.2.5-.4l.6-.2c.1.7-.7.5-1.1.7zm-.4-.4c.3-.6 1.2-.3 1.6-.7s-1.1.6-1.6.8zm2.6-.6c-.1-.2.1-.2.1-.3s-.1.3-.1.4zm.3-.2c-.1-.1-.1-.3 0-.3s.1.5 0 .4zm-45.7-.3c.1.7.5-.3 0 0zm10.3-2.7c0-.1-.2 0-.2.1s.1.1.2-.1zm.7.9v-.2c-.3-.5-.6-.1 0 .2zm21 1.6c-.1.7.7 0 0 0z" fill="#4e426c"/><path d="M207 228.9c-.6-.5-.5.6 0 0zm9.7.7c-.1 0-.1.1-.1.2h.1zm-32.6-2.9a2.1 2.1 0 0 0 .6.5c.3.2.5.2.6-.3s-.4 0-.8-.2-.6-.3-.4 0zm40.7 1c-.6-.4-1.4-.1-1.9.1s-1.1-.1-.8.7.8-.6 1.4-.3 0-.4.1-.4.1.4.2.5.9-.2 1.3.2-.1-.6-.3-.8zm-41.7-2.7c0 .1.2.2.2.1s-.1-.1-.2-.1zm.2.5c0 .1.2.1.3 0s-.3-.1-.3 0zm.1.4c0 .1.2.1.3 0s-.2-.1-.3 0zm.3.3c.1 0 .2.2.3.1s-.2-.2-.3-.1zm11.8 1.8l1.3-.4c.1-.6-.9.3-1.2-.1s-.2.2-.1.5zm1.8-.7c.1-.2-.1-.3 0 0zm9.3 2.2c.2-.1.1-.3 0 0zm.2.1c.2-.1.6.5.8 0h-.3c-.2-.1-.4-.3-.5 0zm.8.2c.1 0 .2.1.3-.2s-.2 0-.3.2zm13.7-1.5c-.4.7.8.4.5-.2s-.2.5-.5.2zm-34 .1c0 .1.2-.1.2-.2s-.3.1-.2.2zm1.4.2c0 .1.2-.1.1-.2s-.1.1-.1.2zm.3 0c0 .1.2-.1.1-.2s-.2.1-.1.2zm5.9-.4c.2-.1.5 0 .4-.3s-.4 0-.4.3zm2.8-1.1c-.5 0 .2.6 0 0zm7.2 2c.1 0 .2.1.3-.1s-.2-.1-.3.1zm.9.4c.1 0 .2.1.3-.1s-.2-.1-.3.1zm.8 0c-.2.1-.1.3 0 0zm14.5-.7c-.2-.4-.5.1-.7.1s.5-.1.7-.1z" fill="#4e426c"/><path d="M225.1 228.3c-.1.3.1 0 0 0zm-40.2-.5c0 .1.2 0 .2-.1s-.2 0-.2.1zm6.9 2.6c0 .1.2-.1.1-.2s-.2.1-.1.2zm31.8-.2zm-41.7-1.3c0 .1.3.1.3 0s-.3-.1-.3 0z" fill="#4e426c"/></g><g><path d="M179.6 208c-.5-.2-.7.7-1.2.8s.3-.1.8-.1.4-.4.4-.7zm18.3-1.4c0 .1.2 0 .2-.1s-.2 0-.2.1zm-25.2 3.5h.6c.1-.2-.6-.3-.6 0zm6.5-1.3l.2.2c0-.2-.2-.3-.2-.2z" fill="none"/><path d="M179.4 208.6c.4.1.5-.1.6-.4s.1-.6.4-.8-.9.2-.7.6-.2.4-.3.6zm-6.1 2.1a7.7 7.7 0 0 0 3.2-.3H174zm-.7-.4c0 .3.2 0 0 0zm2.5-.6c0 .1.2-.1.1-.2s-.2.1-.1.2zm5.4-2.5c0-.2.2-.3 0-.5s-.2.3 0 .5zm-2.2 2l-.6.3c.1.3.9.8.7.1s-.2.1-.4 0 .8-.5.3-.4zm-2.9.9c0 .1.2-.1.1-.2s-.2.1-.1.2zm.9-1.3h-.1c.1.2.1.1.1 0zm.8 1.3c-.2-.5.5-.3.6-.6s-1.3.4-.6.6zm-1.8-.4c0 .1.2-.1.1-.2s-.2.1-.1.2zm1.7.9c.1-.1.3-.1.2-.3s-.3.1-.2.3zm.8-.3c.1 0 .1-.2 0-.3s-.1.2 0 .3zm43 0c.5 0 1.1.7 1.5.2l-.7-.2c-.3.1-.7-.4-.8 0zm-.3-.5c.7.1 1.5.8 2.1.4s-1.5-.7-2.1-.4zm3 1c.1 0 .3 0 .3-.2s-.3 0-.3.2zm-4-1.2c0 .1.2 0 .2-.1s-.2-.1-.2.1zm2.9 1.3c0-.3-.2 0 0 0zm1.5 0c0 .1.2-.1.2-.2s-.3.1-.2.2zm-3.5-1.7v.2a.1.1 0 0 0 0-.2zm-.1.2h-.1c-.1.2.1.2.1 0z" fill="none"/><path d="M227 207.3c0-.1-.2.1-.1.2s.2-.1.1-.2zm-49.8-.9c-.1 0 0 .2.1.2s0-.2-.1-.2zm31.9.2c0-.1-.1.1-.1.2s.2-.1.1-.2zm-37 1.9c0-.1-.2 0-.2.2s.2-.1.2-.2zm3.5.2s-.1.1-.1.2.2-.1.1-.2z" fill="#4e426c"/><path d="M184.2 207.9a17.2 17.2 0 0 1-2.8-1.8h-.1l-.3-.4-.6.7-.6.6-.7.5c-.4.4-.9 1-1.6.8s-.1 1-.5.5.3-.1.2-.4-.4.1-.8.4 0 .3-.1 0h.1v-.2c-.5.1-.6.2-.1.5l-1.1.3a1.3 1.3 0 0 1-1.1.5h-1.2c-.1.2-.1.4 0 .5s.7-.2.6.1h-.6v.2c.2 0 0 .3 0 0a.6.6 0 0 0-.7.3.7.7 0 0 0 .8.1c.2-.1.4-.2.5-.1l.7-.2h2.5a7.7 7.7 0 0 1-3.2.3c.1.4.7.5.8.5s.2-.3.3-.2 0 .2.2.2.1-.3.3-.2 0 .2.2.2.2-.2.8.1a16.9 16.9 0 0 0 2.2-.7c.7-.4 1.3-.9 1.3-1.5l-.2-.2c-.5 0-.2.5-.8.1s.7-1 1.2-.8.3-.6.7-.6-.3.5-.4.8-.2.5-.6.4.4-.3.2-.6-.7.4-.4.7.2 0 .2.2.8-.4 1.1-.9l.3-.7a1 1 0 0 1 .3-.4c0-.2-.4-.3-.3-.4h.1a.3.3 0 0 0 0 .3c.2-.2.4-.3.6-.1a4.3 4.3 0 0 1 1.8 1.3c.2-1.1.5-.3.8-.7zm-9.1 1.8c-.1-.1 0-.3.1-.2s-.1.3-.1.2zm.3.4c-.1-.1 0-.3.1-.2s0 .3-.1.2zm-.1-.4c-.1-.1 0-.3.1-.2s0 .3-.1.2zm1.7.9c-.1-.2.1-.2.2-.3s-.1.2-.2.3zm.8-.4c-.1-.1 0-.3 0-.3s.1.4 0 .4zm.3-.7c.1.1.2.2.4 0s-.6.2-.7-.1-.8.1-.6.6.4-.9.6-.6l.6-.3c.4 0-.1.5-.3.5zm2.4-2.5c-.2-.1-.1-.3 0-.5s0 .5 0 .7zm14.3 1.5c-.1 0-.1.2 0 .2s.1-.2 0-.2zm-1 1.3c.5-.4.2-.4 0-.3s-.4.3 0 .3zm-8.4-.6c.5-.2 1 .6 1.4.2s-.8-.4-.8-.4-1.1-1.4-1.2-.7 1.3.5.6.9zm3.5 1.2a7.7 7.7 0 0 0 3 .2c-.9-.1-2.4-.5-3-.2zm-18.7-1.5c0 .1.2 0 .2-.1s-.2-.1-.2.1zm.4.3c.3.2.8.3.2.7s.3.2.8.2-.1-.6-.4-.8-.7-.3-.6-.1zm1.3.7c0 .1.2 0 .2-.2s-.2.1-.2.2zm.6-.1c0-.1-.2.1-.2.2s.2 0 .2-.2zm11.9-1.7c0-.1-.2 0-.2.1s.2 0 .2-.1zm4 1.9c-.5 0-1.1-.7-1.6-.4s1.2.9 1.6.4zm.4.2c0-.1-.2 0-.2.2s.2-.1.2-.2z" fill="#4e426c"/><path d="M207.9 208.7a10.9 10.9 0 0 1-4.8-.6 39.5 39.5 0 0 1-5.1-2.2l-.6-.3v.6a4.9 4.9 0 0 1-1.5 2.5 5.7 5.7 0 0 1-2.8 1.3c-.1 0 0 .5-.1.5s-.2-.7-.4-.4-.1.2-.1 0-.2.3-.5.3a5.5 5.5 0 0 1-2.9.1 15.6 15.6 0 0 1-3.1-1c-.2-.1-.6-.7-1 0a16.4 16.4 0 0 0 6 1.4 8.7 8.7 0 0 0 5.6-2.1.8.8 0 0 1 .3-.6.8.8 0 0 0 .3-.7h.6c.2-.1.3-.2 0-.4s-.3.2-.5.1a1.2 1.2 0 0 0 .2-.6.7.7 0 0 1 .2-.5h.1a.3.3 0 0 1 0 .2h.1c0 .2-.1.3.1.4a.5.5 0 0 1 .1-.3l-.4.2c.1.1.2.3.4.4s0-.8.5-.5 2.6 1.7 4.1 1.4a12.2 12.2 0 0 0 5.3 1.1c.1 0 .1-.2.3-.2s-.2-.1-.4-.1zm-10-2.1c0-.1.2-.2.2-.1s-.2.2-.2.1zm10.7 1.9a1 1 0 0 1-.4.5c.2.4 1.2.1 1.4-.2v-.2c-.6.2-.7.4-1-.1zm18.1 1.5h-2.5c-.1 0-.3 0-.3.2l1.5.2a1.9 1.9 0 0 0 1.3-.4zm.4 0c-.1.1-.3 0-.3.2s.4 0 .3-.2zm1.1.1c-.7-.5-.2.8 0 0z" fill="#4e426c"/><path d="M184.9 208.9c.5.6.5-.5 0 0zm28.5-1.8c.4-.3 1-.4.9-1.2a6.9 6.9 0 0 1-1.8 1.5c-.7.5-1.6.5-1.7 1.2a5 5 0 0 0 2.6-1.5z" fill="#4e426c"/><path d="M226.3 210.7h.6c.3 0 .3-.2.1-.2a7.8 7.8 0 0 1-3.5-.4 23.2 23.2 0 0 0-3.1-.8.1.1 0 0 1-.1.2c0 .1-.2.2-.1-.1s-.3-.4-.5-.5a18.7 18.7 0 0 1-4.5-3.2h-.2l-.8 1.3-.9.7-.9.5c-.5.1-.3.6.1.2l.9-.5a9.8 9.8 0 0 0 1.9-1.9h-.6l.8.8.9.5c.2.1.1.6.3.8s.6.2.8.3a11 11 0 0 0 1.6 1.4c.2.1.6 0 .8.1s1.9 1.3 2.7 1.1-.2-.1-.2-.3 0-.3 0 0l1.6.3c.2 0 .1-.6.4-.6s.1.4.2.5.9 0 1.3-.1.3-.1.4-.1zm-6.8-1.1c0-.1.2-.2.2-.1s-.2.1-.2.1zm1.3.8c.1-.5.5.1.8 0l.7.2c-.4.4-1.1-.3-1.5-.3zm-.2-.6c.6-.3 1.4.4 2.1.4s-1.5-.3-2.2-.4zm3 1.1c0-.2.2-.1.3-.2s-.3.1-.4.1zm.4.1c-.1-.1.1-.3.2-.2s-.3.2-.3.1zm-52.4-1c-.2.6.6 0 0 0zm12.1-1.8c0-.1-.2 0-.2.1s.2 0 .2-.1zm1.1.9v-.2c-.5-.5-.8-.1 0 .2zm24.8-.3c.3.6.7-.4 0 0zm1-.3c-.9 0-.1.7 0 0z" fill="#4e426c"/><path d="M220.4 209.2c-.1-.1-.2 0-.2.2h.1zm-36.9-.4c.2.2 1.3 1.2 1.3.3s-2-.9-1.3-.3zm46.7 1.3a11.5 11.5 0 0 0-2.2.6c-.4.1-1.2-.3-1.3.5s1.2-.4 2-.2 0-.4.1-.5.2.4.4.4 1-.6 1.8-.7-.5 0-.8-.1zm-48.5-2.6c0 .1.2 0 .2-.1s-.1 0-.2.1zm.5.4c0 .1.2 0 .2-.1s-.2-.1-.2.1zm.3.2c0 .1.2 0 .2-.1s-.1 0-.2.1zm.4.3c.1 0 .2.2.4 0s-.3-.2-.4 0zm13.7 1.2a5.9 5.9 0 0 0 1-1.4c-.1-.3-.2 0-.5.3s-.5.7-.7.5 0 .4.2.6zm1.2-2.2c-.1-.2-.3-.1 0 0zm12.7 1.8c.2-.2-.1-.3 0 0zm.3 0c.2-.2.9 0 .7-.5h-.4c-.1.2-.3.2-.3.5zm1-.4c.1-.1.3-.1.2-.3s-.3.1-.2.3zm14.1 2.1c-.9.5.8.8.7 0s-.4.4-.7 0zm-38.8.1c0 .1.2 0 .2-.2s-.3 0-.2.2zm1.6.5c0 .1.2-.1.2-.2s-.2.1-.2.2zm.3.1c0 .1.2-.1.2-.2s-.2.1-.2.2zm7-1.5c.2-.2.5-.3.3-.6s-.4.3-.3.6zm2-3.3c-.4.6.6.2 0 0zm10.5 3c.1-.1.3 0 .3-.3s-.3.1-.3.3zm1.2-.1c.1-.1.3-.1.2-.3s-.2.1-.2.3zm.8-.5c-.2.2.1.3 0 0z" fill="#4e426c"/><path d="M225.5 211.3c0-.5-.6-.2-.8-.3s.5.2.8.3zm5.5-.9c.2.3.2-.1 0 0zm-46.5-.5c0 .1.2 0 .2-.1s-.2 0-.2.1zm8.1 3.5c.1.1.3-.1.1-.2s-.2.1-.1.2zm40.8-1.3c-.1 0-.2.2-.1.3s.2-.3.1-.3zm-51.7-.7c0 .1.3 0 .3-.1s-.3-.1-.3.1z" fill="#4e426c"/></g><g><path d="M179.7 185.7c-.5-.2-.8.6-1.2.7s.3 0 .8 0 .4-.4.4-.7zm18.7.6c.1 0 .1-.2-.1-.3s0 .2.1.3zm-25.5 1.9h.6c.1-.4-.6-.4-.6 0zm6.4-1.8v.2c.2-.2 0-.2 0-.2z" fill="none"/><path d="M179.5 186.2c.7.2.4-.8 1.1-1s-1 .1-.8.5-.2.4-.3.5zm-5.9 2.4a10.4 10.4 0 0 0 3-.6 7.2 7.2 0 0 0-3 .6zm-.7-.2c.1.3.2 0 0 0zm2.3-1c0 .1.2-.2.1-.2s-.2.1-.1.2zm5.6-2.4c.1-.1.4-.2.3-.4s-.5.2-.3.4zm-2.4 1.8l-.6.3c.1.3.9.8.7.1s-.2.1-.4-.1.8-.4.3-.3zm-2.8 1c.1.1.2-.2.1-.2s-.2.1-.1.2zm.8-1.5h-.1c.1.3.1.2.1 0zm.8 1.4c-.2-.4.5-.3.6-.6s-1.3.4-.6.6zm-1.7-.3c.1 0 .1-.2.1-.2s-.2.1-.1.2zm1.7.8c.1-.1.3-.1.2-.3s-.3.1-.2.3zm.7-.4c.1 0 .1-.2 0-.3s-.1.3 0 .3zm42.7 1.9c.4 0 1 .6 1.4.2l-.6-.2c-.3.1-.7-.5-.8 0zm-.2-.6c.7.1 1.5.8 2 .4s-1.5-.7-2-.4zm2.7 1.2c.1 0 .3.1.3-.1s-.2-.1-.3.1zm-3.7-1.2c0 .1.2 0 .2-.2s-.2 0-.2.2zm2.8 1.1c0-.3-.2 0 0 0zm1.3.2c0 .1.2 0 .2-.2s-.2.1-.2.2zm-3.3-1.8v.2a.1.1 0 0 0 0-.2zm0 .2h-.2c0 .3.1.2.2 0z" fill="none"/><path d="M227.7 187.8c0-.1-.2 0-.2.2s.2-.1.2-.2zm-50.2-3.9c-.1 0 0 .2.1.2s0-.2-.1-.2zm32 3.6c0-.1-.2 0-.2.2s.2 0 .2-.2zm-37.6-.7c0-.1-.2.1-.1.2s.2-.1.1-.2zm3.8-.4s-.1.2 0 .2 0-.1 0-.2z" fill="#4e426c"/><path d="M184.9 185.9a6.9 6.9 0 0 0-1.4-1.1 3.8 3.8 0 0 0-1.9-.6l-1.3.2-1.1.6c-.5.4-1 1-1.7.8s-.1 1-.5.5.3-.1.2-.4-.3.2-.8.4 0 .3-.1 0h.1v-.2c-.5.2-.6.3 0 .5l-1.1.4c-.7.9-1.4.5-2.3.7s0 .4.1.4.7-.4.6 0h-.6v.2c.2 0 .1.3 0 0a.6.6 0 0 0-.6.4c.7.4 1-.5 1.2-.2a7.2 7.2 0 0 1 3-.6 10.4 10.4 0 0 1-3 .6c.2.4.8.4.9.4s.1-.3.2-.3 0 .2.2.2.1-.3.2-.3 0 .2.2.2.1-.2.7 0l2.1-.8c.7-.3 1.2-.8 1.3-1.4v-.2c-.5 0-.3.5-.8 0s.7-.9 1.2-.7.5-.6.8-.5-.3 1.3-1.1 1 .4-.3.2-.5-.7.3-.5.7.2 0 .1.2.8-.3 1.1-.7.6-.7.8-.7-.1-.4.1-.5.2.4.3.4.1-.5.4-.4a2.3 2.3 0 0 1 1.1.3 2.2 2.2 0 0 1 .7.9c.5-.5.6.4 1 .1zm-9.7 1.6c-.1-.1 0-.3.1-.2s0 .2-.1.1zm.4.4c-.1-.1 0-.3.1-.2s-.1.1-.1.1zm-.1-.4c-.1-.1 0-.3.1-.2s-.1.1-.1.1zm1.7.8c-.1-.2.1-.2.2-.3s-.2.1-.2.2zm.8-.4c-.1-.1 0-.3 0-.3s0 .3-.1.2zm.3-.7c.1.1.2.2.4.1s-.5.2-.7-.1-.8.1-.6.6.4-1 .6-.6l.6-.3c.3-.2-.2.3-.4.3zm2.6-2.2c-.1-.2.1-.3.3-.4s-.3.3-.4.4zm14 2.8c-.1 0-.1.2 0 .2s.1-.2 0-.2zm-1.1 1.1c1-.7-.8-.2 0 0zm-8-1.7c.5-.1.8.7 1.3.4s-.7-.5-.7-.5-.8-1.5-1-.8 1.2.6.4.9zm3.2 1.6a8.1 8.1 0 0 0 2.9.6c-.9-.2-2.2-.8-2.9-.6zm-18.9-1.1c0 .1.2 0 .2-.2s-.2.1-.2.2zm.5.2c.3.1.9.1.4.6h.8c.1-.4-.3-.6-.6-.6s-.7-.2-.6 0zm1.5.2c0 .1.2-.1.1-.2s-.1.1-.1.2zm.6-.2c0-.1-.2.1-.1.2s.1 0 .1-.2zm12.4-1.9c0-.1-.2-.1-.2.1s.2.1.2-.1zm3.5 2.4c-.5-.1-1-.8-1.5-.5s1 .9 1.5.5zm.3.2c0-.1-.2 0-.2.2s.3-.1.2-.2z" fill="#4e426c"/><path d="M207.3 188.6a14 14 0 0 1-2.6-1.6 13.4 13.4 0 0 0-3.1-1.9 4 4 0 0 0-2-.3 3 3 0 0 0-1.8 1l-1 1.4-1.1 1a5.5 5.5 0 0 1-2.8.8c-.1 0 0 .5-.2.5s-.1-.7-.3-.4-.1.1-.1 0-.3.3-.5.2a5.6 5.6 0 0 1-2.8-.3 13.9 13.9 0 0 1-2.8-1.3c-.2-.1-.5-.8-.9-.1a15.1 15.1 0 0 0 5.5 2.1 8.5 8.5 0 0 0 5.7-1.2c.1-.6.6-.4.8-1.1s1.2.3.7-.2-.3.1-.5 0 .4-1.1.9-.9-.3.3-.1.4.5-.2.6-.4-.7-.3-.3-.7a1.8 1.8 0 0 1 1.1-.6h1.1a6.3 6.3 0 0 0 2 .5l2.1 1.7 2.2 1.5h.3c.3-.3.1 0-.1-.1zm-8.9-2.3c-.1 0-.2-.3-.1-.3s.2.3.1.3zm9.6 2.4l-.6.2c-.1.5.9.8 1.2.6v-.2c-.4 0-.7 0-.6-.6zm18.5 1.5l-2.1-.7h-.4c-.1 0-.3-.1-.3.1s2 .9 2.8.6zm.4.2c-.1 0-.3-.1-.3.1s.2.1.3-.1zm.9.5c-.4-.8-.5.6 0 0zm-42.4-4c.4.6.6-.4 0 0zm27.1 3.6c.5 0 1 .4 1.4-.3a7.9 7.9 0 0 1-2.3 0c-.8-.1-1.5-.6-2 0a5 5 0 0 0 2.9.3z" fill="#4e426c"/><path d="M225.9 190.7l.5.2c.2.1.3-.1.2-.2-2.8-.6-3.9-1.9-6.3-2.1a.1.1 0 0 1-.1.2c0 .1-.2.2-.1 0s-.3-.4-.6-.4l-.9-.2a1.6 1.6 0 0 0-1 .3c-.5.4-.9.8-1.4 1.2a11.1 11.1 0 0 1-3 1.3h-2.1c-.5-.2-.6.3 0 .2h1a12.7 12.7 0 0 0 2.4-.2 3.3 3.3 0 0 0 2-1.1c.1-.2.6.1.8-.1s.3-.6.5-.7.8 0 1.3.3h.7c.9.3 1.8 1.2 2.5 1.1s-.2-.1-.2-.3 0-.3 0 0l1.4.5c.2 0 .3-.6.5-.5s0 .4.1.5.8.2 1.2.2.4-.2.6-.2zm-6.5-1.7c0-.1.2-.2.2-.2l-.2.3zm1.2.6c.1-.5.5.1.7 0l.6.2c-.3.5-.8-.1-1.3-.1zm-.2-.6c.6-.4 1.4.4 2 .4s-1.4-.2-2-.3zm2.8 1.2c.1-.2.2-.1.3-.1s-.2.2-.4.2zm.4.1c0-.1.2-.2.2-.2s-.3.4-.3.3zm-51.7-2c0 .7.6-.2 0 0zm12.5-2.3c0-.1-.2-.1-.3.1s.3 0 .3-.1zm.9 1.1v-.2c-.4-.6-.7-.2 0 .2zm23.3 2.5c-.1.7.7.1 0 0zm1 .4c-.7-.5-.5.5 0 0z" fill="#4e426c"/><path d="M220.2 188.6c-.1-.1-.1 0-.2.2h.1zm-36.1-2c.1.2 1 1.4 1.2.5s-1.8-1.2-1.2-.5zm45.4 5.3a6.1 6.1 0 0 0-2.1-.5c-.4-.1-1-.7-1.3 0s1.2 0 1.8.6.2-.4.3-.4 0 .4.1.5 1.1 0 1.8.3-.4-.3-.6-.5zm-46.9-6.6c0 .1.2 0 .2-.1s-.2-.1-.2.1zm.4.2c0 .1.2 0 .2-.1s-.2 0-.2.1zm.3.3c0 .1.2.1.2-.1s-.2 0-.2.1zm.3.3c.1 0 .2.2.3 0s-.2-.2-.3 0zm12.9 3a6.1 6.1 0 0 0 1.2-1.1c-.1-.3-.2 0-.5.2s-.6.6-.7.4-.2.3 0 .5zm1.4-1.8c0-.2-.2-.1 0 0zm11.2 3.2c.2-.1.1-.3 0 0zm.2.1c.3 0 .7.5.9 0h-.4c-.2-.1-.3-.2-.5 0zm1 .3c.1 0 .3.1.3-.1s-.3-.1-.3.1zm15.1-.1c-.9.3.4.9.6.2s-.5.3-.6-.2zm-38.3-1.6c0 .1.2 0 .2-.1s-.2 0-.2.1zm1.6.7c0 .1.2 0 .2-.2s-.2.1-.2.2zm.3.1c0 .1.2 0 .2-.2s-.3.1-.2.2zm6.9-.5c.2-.1.5-.2.4-.5s-.5.2-.4.5zm2.4-2.7c-.5.3.5.4 0 0zm8.9 3c.1 0 .2.1.4-.1s-.3 0-.4.1zm1 .6c.1 0 .3.1.3-.1s-.2-.1-.3.1zm.9.1c-.2 0-.1.3 0 0zm15.8.6c.1-.5-.5-.3-.7-.5s.5.3.7.5zm5.1 1.5c0 .3.2 0 0 0zm-45.2-4.8c0 .1.2.1.3-.1s-.3 0-.3.1zm7.3 4.5c.1.1.3-.1.2-.2s-.2.1-.2.2zm38.4 3c0-.1-.2 0-.2.2s.2 0 .2-.2zm-48.6-6.5c0 .1.3.1.3 0s-.3-.2-.3 0z" fill="#4e426c"/></g></svg>