<svg data-name="Layer 1" xmlns="http://www.w3.org/2000/svg" width="300" height="300"><path fill="#bfe7f3" d="M0 0h300v300H0z"/><path d="M200.4 87.5a50.4 50.4 0 0 0-100.8 0v70.7h20.3V86.5a30.2 30.2 0 0 1 60.3 0v71.7h20.3z" fill="#66c6e4"/><path d="M138.4 39.2h.9l1.3-.2 3.3-.5a29 29 0 0 1 3.6-.3h3.3a3.3 3.3 0 0 0-2.1-.3 25.3 25.3 0 0 1-3.6.1c-.1.2-1.2.4-2.7.6l-2.2.3zM119.9 133c.1-.3-.1-1.7-.2-1.1s.1 1.7.2 1.1zm73.6-69.4l-1.5-2.4-.7-1.2-.8-1.1c-.3-.1.6 1.1 1.4 2.5s1.6 2.5 1.6 2.2zm-48.4-25.7v-.2c-1.3.1-.6.2 0 .2z" fill="none"/><path d="M142.8 38.2l-2.6.2a24 24 0 0 0-2.9.8c-2.1.6-4.2 1.6-6.6 2.3l3.7-.9 2.2-.6 1.8-.6a4.1 4.1 0 0 1 1.7-.6zm48 20.4l-2-2.6-2.2-2.4-1.1-1.2-1.2-1.1-2.4-2.3-2.6-2-1.3-1-1.4-.8-2.8-1.7-3-1.4a68 68 0 0 1 11 7.1 68.7 68.7 0 0 1 9 9.4zm2.9 4.9c-.1-.8-.7-1.2 0 0z" fill="none"/><path d="M179 48c-.2-.2-1.4-.9-1-.5s1.4.9 1 .5zm-50.3-5.6c-1.2.6-3 1.3-3 1.7s2.9-1.4 3-1.7zm24.4-4.4a40.9 40.9 0 0 1 5.6.7c0-.2-.7-.6-1.7-.9a4.3 4.3 0 0 0-2.8-.2h1.5l.7.3-1.6-.2h-2c-1 .1-1.5.1.3.3zm24.4 8.3c-.2-.2-1.5-.8-1.1-.4s1.5.8 1.1.4zm-10.5-4l1 .4c-.1-.4-1-.5-1-.4zm-1.6-2.3c-.1.2-1.3-.1-2.7-.5l-2.1-.6a9.7 9.7 0 0 0-1.9-.3c0 .1.7.3 1.7.5l3.4.9 2.5.6c.4.1.2 0-.9-.6zm11.8 6.7c-.2-.2-1.5-.8-1.1-.4s1.6.8 1.1.4zm-9.5-6.3c-.9-.3-2.1-.8-2.2-.6s2.1.8 2.2.6zm-6.6-2l-.9-.2c-.3 0-.5 0-.3.1s1.7.4 1.2.1zm18.5 116.7v3.5h.5c3.3 0 7.2.2 8.4-.2h-8.7v-.3c.1-1.5.1-3.1-.2-3z" fill="none"/><path d="M180.1 151.7c.1 1.9 0 4.2 0 6.5h.1a89.1 89.1 0 0 0 10.7-.2h-10.6a50.6 50.6 0 0 0-.2-6.3zm18.8 6.8h1.8v-.3c0-.4-.1-.7-.2-.7v.7h-.1c-.7.1-1.5.2-1.5.3zm-19.1-14.8c-.1.3.1 1.7.2 1.1s0-1.7-.2-1.1zm11.1 15c-.7-.3-1.4 0 0 0zm9.9-2.4c.1-.3-.1-1.7-.2-1.1s0 1.7.2 1.1zm-20.3-6.9h-.2c0 1.3.2.7.2 0zm-.2 0v-1.1c-.3.2-.1 1.1 0 1.1z" fill="none"/><path d="M197.1 131c-.1.3.1 1.6.2 1s0-1.6-.2-1zm-53.8-89.7c.3 0 1.6-.4 1-.4s-1.6.3-1 .4zm11.9 13.2c-.3-.1-1.9-.2-1.3 0s1.9.2 1.3 0zm41.1 18.8c0 .3.5 1.6.5 1s-.6-1.6-.5-1zM173 45.2c.2.2 1.5.8 1.1.4l-.8-.4c-.4-.2-.6-.2-.3 0z" fill="#006799"/><path d="M104.9 67.3l1.5-3.1 1.8-3 .9-1.5 1-1.4c.7-.9 1.3-1.9 2-2.7l2.2-2.5.6-.6.6-.6 1.2-1.1a43.9 43.9 0 0 1 5.3-4.1 52.9 52.9 0 0 1 15.6-6.3l2.3-.6 2.4-.4 2.3-.3h2.3a34.4 34.4 0 0 1 8.3.5c.4-.2 5.8 0 6.6 1l-2.1-.5c-.6-.1-1.1-.1-1.2 0l1.4.3 1.1.3 1.6.4 1.7.4 2.7.9c0-.1.9.1 1 .4l-1-.4v.2l1.7.6 1.3.6 1.3.5c.3.1-.4-.4-2.1-1.4l2.5 1.2a20 20 0 0 1 2.5 1.3 42.9 42.9 0 0 1 4.7 3l2.4 1.5 2.1 1.7 1 .8.5.4.4.5 1.8 1.9.9 1 .8 1.1 1.7 2.2a27.9 27.9 0 0 1 1.6 2.5l.9 1.3a12 12 0 0 1 .8 1.4c.3.1.3-.4-.1-1.2s-.9-1-1.7-2.3-1.7-2.6-1.4-2.5l.8 1.1.7 1.2 1.5 2.4h.2c-.7-1.2-.1-.8 0 0a19.4 19.4 0 0 0 2.4 3.9c-.5-1.3-1.1-2.4-1.6-3.4a21.6 21.6 0 0 0-1.6-2.3l-1.3-1.7a14.2 14.2 0 0 1-.9-1.4 68.7 68.7 0 0 0-9.1-9.4 68 68 0 0 0-11-7.1l3 1.4 2.8 1.7 1.4.8 1.3 1 2.6 2 2.4 2.2 1.2 1.1 1.1 1.2 2.2 2.4 2 2.6a20.8 20.8 0 0 0-1.9-3.1l-2.1-2.3c-.6-.6-1-.8-1.8-1.5s.1-.2-.7-.9-1.1-.6-1.9-1.4.2-.2-.8-.9l-2.3-1.7a19.6 19.6 0 0 0-2.3-1.8 53.2 53.2 0 0 0-16.5-6.8 40.7 40.7 0 0 0-15.3-.3v.2a25.3 25.3 0 0 0 3.6-.1 3.3 3.3 0 0 1 2.1.3h-3.3a29 29 0 0 0-3.6.3l-3.3.5-1.3.2h-.9l-1.8.6-2.2.6-3.7.9c2.4-.7 4.5-1.8 6.6-2.3a24 24 0 0 1 2.9-.8l2.6-.2-2.8.4a4.1 4.1 0 0 0-1.7.6l1.8-.5 2.2-.3c1.4-.2 2.6-.4 2.7-.6s-1.3 0 0-.2a39.3 39.3 0 0 0-4.8.5l-2.9.7c-1 .3-2 .5-2.9.8a93.2 93.2 0 0 0-9 3.9c-1 .7-.4.8-1.7 1.6a5.2 5.2 0 0 0-2.2.8A7.9 7.9 0 0 1 119 48a50.6 50.6 0 0 0-6.4 6.2l-1.3 1.8-1.3 1.7-1.5 1.9L107 62c.5 0-.2 1.1-.9 2.3s-1.3 2.7-1.2 3zM179 48c.4.4-.8-.3-1-.5s.8.3 1 .5zm-1.6-1.7c.4.4-.9-.2-1.1-.4s.9.2 1.2.4zm-.2.4c.4.4-.8-.2-1.1-.4s.9.2 1.1.4zm-9.5-6.3c-.1.2-1.4-.3-2.2-.6s1.3.3 2.2.6zm-6.6-2c.5.3-.9.1-1.2 0s-.1-.1.3-.1zm-4.6-.3l-.7-.3h-1.5a4.3 4.3 0 0 1 2.8.2c.9.3 1.7.7 1.7.9a9.7 9.7 0 0 1 1.9.3l2.1.6c1.4.4 2.6.7 2.7.5s1.3.7.9.6l-2.5-.6-3.4-.9c-1-.3-1.7-.4-1.7-.5a40.9 40.9 0 0 0-5.6-.7c-1.8-.2-1.3-.2-.2-.2h2zm-27.8 4.3c0 .3-1.8 1-3 1.7s1.8-1.1 3-1.7zm-16.9 114.3c-.3-.1-1.7.1-1.1.2s1.7 0 1.1-.2zm-11.5-1.1v2.6l-.9-.9c1.5-.1 1.1-.1 0-.2l1 1c.2-2 .2-6.5-.1-2.5zm.3-75.5a13.3 13.3 0 0 1-.1 1.4v1.8l-.2 4.1v.6h-.5l.5-.5a22.4 22.4 0 0 0 .2 4c.1-1.1.1-2.6.1-4l-.9.9h.8v-.9c.1-1.9.1-3.7.1-4s0-.5.1-1 .2-1 .3-1.7l.4-2.1.2-1.1.3-1.1c.4-1.4.8-2.8 1-3.6s.3-1.1-.1-.4-.5 1.8-.8 2.9a27.1 27.1 0 0 0-.7 3.3c-.4 2.1-.6 3.3-.7 1.4zm-.5 30.8v26.3c.3-7.4.5-21.5 0-26.3zm99.8-23.5c0-.3-.2-1.7-.3-1.1s.1 1.4.2 1.3l.6.6c-.1 0-.1 0 0 0l-.6-.6zm-.3-4.5c-.4-3-1.3-7.4-.2-4.6a18.3 18.3 0 0 0-.6-2.1l-.3-1.2-.3-1.2a13 13 0 0 0-.7-2.1c-.2-.1-.2 0-.2.3s.2.8.3 1.4.7 2.9 1.1 4.5.6 3.2.8 4.2.1 1.5.1.8zm-3.2-13.2c-.1-.3-.7-1.6-.6-1s.7 1.6.6 1z" fill="#006799"/><path d="M194.3 65.7c.1.3.8 1.5.7.9s-.8-1.5-.7-.9zM104 69.4c.1-.3.5-1.6.2-1.1s-.5 1.6-.2 1.1zm-3.7 37c-.1-4.2.3-11.4-.2-13.7.2 4.1-.3 11.3.2 13.7zm0 3.4c.1-.3-.1-1.7-.2-1.1s.1 1.7.2 1.1z" fill="#006799"/><path d="M141 57.4a33.8 33.8 0 0 0-7.8 3.8 33.1 33.1 0 0 0-6.9 6.4 31.1 31.1 0 0 0-6.8 19l.4-.4h-.4v.4l-.2 71.7.6-.6H99.6l.7.7v-10.8c0-.5-.5-.9-.4-2.3s.7-.6.4-2.3c-.3-.2-.1-1.1 0-1.1 0-2-.3-2.4-.2-4.6-.3-12-.3-34.4-.4-49.7v-1.8c0-.4.1-1.1.1-1.9a21 21 0 0 1 .3-2.4c.2-1.5.3-2.8-.1-2.6s-.4 2.6-.5 4l-.2 4.6.2-.2h-.2v.2c.3 20.8.4 47.7.2 70.7h20.3c-.4-4.2.1-6-.2-11.4.3 0 1.1-3.2.4-4.6.1 1.9-.2 2.2-.4 2.3.1-3.1-.3-9.1.2-10.3 0 1.6 0 3.2.2 3.4-.2-3.5.2-4.2.2-6.9s-.7 2.2-.7-2.3c-.3-13.2.5-24.7-.2-35.5v-6.7h.3l-.3.3a33 33 0 0 1 1.7-9.4 30.4 30.4 0 0 1 4.3-8.2c.5-.6.9-1.3 1.4-1.8l1.6-1.7a33 33 0 0 1 3.6-3.1 31 31 0 0 1 8.9-4.5c.9-.3 1.1-.5 2.2-.8s-.6 0-2 .4zM119.9 133c-.1.6-.3-.8-.2-1.1s.3.8.2 1.1zm26.8-77c-.8.4-2.1.6-3.4 1l2.2-.2 1.6-.2h1.9a57.6 57.6 0 0 1 5.8.1v-.2l-1.5-.2h-3.4a14.5 14.5 0 0 1-3.2-.3zm53 77.6v21.6c0 .9 0 2.2.2 2.3-.2-7.6.3-18.3-.2-23.9zm0-3.4c0 .9 0 2.2.2 2.2s0-2.2-.2-2.2zm.2-9.1c-.6 5.7.7 2.5 0 0z" fill="#006799"/><path d="M101.5 75.7l-.5 1.7a7.3 7.3 0 0 0-.1.9c0 .4.1.3.2.1a7.7 7.7 0 0 0 .4-2.7zm78.1 3.9l.2.8v.9l.2 1.7c.1 1.1.1 2.3.2 3.4l-.2-.2h.2v.2a37 37 0 0 0 .3 5.7v-6.3h-.6l.6.6c-.1-1.1-.1-2.3-.2-3.6a29.7 29.7 0 0 0-.7-3.7l-.5-1.9-.7-1.8-.3-.9-.4-.9-.9-1.7a30.3 30.3 0 0 0-6.7-8.3l-.9-.8-.9-.6-1.6-1.1a13 13 0 0 0-2.4-1.1 33.6 33.6 0 0 1 10.3 9.2 29.3 29.3 0 0 1 5 10.4z" fill="#006799"/><path d="M200.3 136.9v-4.6c.1-2.1-.2-2.3-.2-1.1.1 10.9 0 19.2-.1 27l.4-.4c-6.8-.1-13.1-.2-20.3-.1l.5.5c0-2.6-.1-5.6-.2-8.8 0 .6-.2 1.3-.2 0s-.3-.9 0-1.1a40.9 40.9 0 0 0 .2-5.7c0-16.8 0-40.7-.4-56.1v-1.1a28.5 28.5 0 0 0-1.8-8.9 29.4 29.4 0 0 0-3.7-7l-1.4-1.9-.6-.5.4.6 1.4 1.8a29.2 29.2 0 0 1 3.7 7 29.5 29.5 0 0 1 1.8 10v.3h.3l-.3-.3c0 9.7-.1 19.8.2 27.5.1 1.8-.4 3.5-.4 5.7s.3 4.6.2 6.9c-.1 5.1-.4 10.5-.4 16 0 1.8.2 3.9.2 5.7s-.1 6.6-.2 9.9v.7h.8c4.9.1 9.6.2 13 0a5 5 0 0 1-2.3-.2c-1.4 0-.7-.3 0 0H201v-3.6c-.1-1.7-.7-.4-.7-2.3a6 6 0 0 0 .4-2.3c-.5-1.2-.1-7.2-.2-10.3-.2-.1-.1-2-.2-3.3zm-20.5 6.8c.1-.6.3.8.2 1.1s-.2-.8-.2-1.1zm-.2 11.4c.3-.1.3 1.4.2 3v.3h8.7c-1.2.4-5.1.2-8.4.2h-.5v-.5c.1-1 .1-2.1 0-3zm.4-3.4a50.6 50.6 0 0 1 .3 6.5h10.5a89.1 89.1 0 0 1-10.7.2h-.1c.1-2.5.1-4.8.1-6.7zm18.8 6.8c0-.2.8-.2 1.6-.2h.1v-.7c.1 0 .1.3.2.7v.3h-1.8zm1.9-2.2c-.1.6-.3-.8-.2-1.1s.3.8.3 1.1zm-3.3-84.5c.5-.4-1.9-4.4 0 0zm-91.9-6.7c.2-.3.7-1.6.3-1.1s-.7 1.5-.3 1.1zm-4.2 10.5h.2c.5-1.6.7-2.8 1-3.5a3.7 3.7 0 0 0 .3-1.2 3.8 3.8 0 0 0-.5 1.1 26.2 26.2 0 0 0-1 3.6zm53.5-18.9a4.1 4.1 0 0 0 1.4.5l1.3.3c.3 0 .4 0 0-.2a10.5 10.5 0 0 0-2.7-.6zm8.8 2.8l-2-1-1.2-.4c-.5-.1-.6-.1-.3.1l1.5.6a10.7 10.7 0 0 0 2 .7z" fill="#006799"/><path d="M180.5 149.4c0-1-.1-1.1-.2-1.1v1.1zm-76.1-83.6c-.2.4-.7 1.3-1.2 2.6l-1.5 4c-.7 2.7-1.1 4.8-.3 3.3-.1.3 0-.5.4-2l.3-1.2.4-1.2.9-2.6a21.6 21.6 0 0 1 1-2.3l.7-1.6c.2-.7.1-.6-.7 1zm95.9 39.1c-.2 6.4.1 13.1.2 18.2 0 3.2-.4 10 .4 10.2 0-7.4-.3-9.5 0-16.1-.2.3-.4-.1-.4-.9s.4-1.1.4-2.5c.1-3.6-.3-8.5-.2-14.8a56.4 56.4 0 0 0-.4 5.9zm-85.9-53.1c-.3.2-1.1 1.4-.6 1l.6-.7c.1-.3.2-.5 0-.3zm-3.2 3.4c-.3.2-1 1.5-.5 1l.5-.7c.2-.3.3-.5 0-.3zm-2.1 2.7c-.2.2-1 1.5-.5 1s1-1.4.5-1zm-1.9 2.9c-.4.8-1.2 1.9-1 2.1s1.1-2 1-2.1zm10.3 97.9h2.8v-10.8c-.5-2.9.1 9.4-.4 10.3h-1.4c-.5.3-1 .4-1 .5zm2.7-16.5c-.1-1.7-.3.1 0 0zm41-83.1c1.6.5 0-.3 0 0zm2.1 1l.8.3.9.5 1.9 1.2c1.1.9 2.1 1.6 2.3 1.4l-2.8-2-1.9-1.1a2.2 2.2 0 0 0-1.2-.3zm6.5 4.4l1.1.9c.3.3.6.5.7.5l-1.1-1c-.3-.3-.6-.5-.7-.4zm30.7 75.8c.5 6.5.7-6.2 0-5.7.1 2.8.4 3.4 0 5.7zM99 98.3c-.1.3.1 1.7.2 1.1s-.1-1.7-.2-1.1zm0 13.8c-.1.3.1 1.7.2 1.1s-.1-1.7-.2-1.1zm0 2.3c-.1.3.1 1.7.2 1.1s-.1-1.7-.2-1.1zm12.8 44.3c1.7 0 4.2.1 4.6-.2-1.7.1-4.2-.1-4.6.2zm8.4-21.1c-.2 4.8.7.2 0 0zm25.5-80.1l1.4-.2c.4 0 .8-.1.8-.2s-2.2.2-2.2.4zm9 0l1.4.2c.4.1.8.1.8 0s-2.2-.4-2.2-.2zm6.5 1.6c-1.6-.4 0 .3 0 0zm39.8 84.5c-.5.2-.1 4.9-.2 6.9.5-.1.1-4.8.2-6.9zm-.3-44.7c.3-.9 0-1.4 0 0zM100.1 76.5a3 3 0 0 0-.2.9c0 .3 0 .6.1.3s.4-1.7.1-1.2zm-2.9 63c-.1.3.1 1.7.2 1.1s-.1-1.7-.2-1.1zm105.2-53.8c0 .4.1 1.7.2 1s-.1-1.7-.2-1zM101.6 64.4c-.2.3-.7 1.7-.3 1.2s.7-1.7.3-1.2z" fill="#006799"/><path fill="#e5f5fa" d="M62.5 125.4h175.1v137.07H62.5z"/><path d="M139.7 262.8c2.3.5 9.5.1 13.7.2-1.9-.6-2.6-.1-6.4-.4.1.5-5.2.1-7.3.2zM62.6 141.5c.1-.3-.1-1.9-.2-1.2s.1 1.9.2 1.2zm147.9 121.4h-6.2c-.4.3 7 .3 6.2 0zm-63.5-.3v-.2c-1.4 0-.6.2 0 .2z" fill="none"/><path d="M144.6 262.6c-3.6-.6-8.1.3-13.6 0a35.6 35.6 0 0 0 8.7.2c.3-.3 3-.2 4.9-.2zm59.4 0h-28.5c6.8.3 22.1.3 28.5 0zm6.4.2c-1-.3-1.5 0 0 0zm-23.2.5c-.4-.1-1.8.1-1.1.2s1.8-.1 1.1-.2zm-58.7-.7c-1.4 0-3.5 0-3.7.2 1.5 0 3.5.1 3.7-.2zm27.3.2h6.2c-.2-.3-3.9-1-5.1-.4a7.4 7.4 0 0 1 2.6.2c-1.6-.1-7.7 0-3.7.2zm28.6.2c-.4-.1-1.8.1-1.1.2s1.8-.1 1.1-.2zm-11.8 1h1.2c-.3-.3-1.3-.1-1.2 0zm-3.3-1.4c.1.4-5.2.1-7.3.2.3.4 12.9.2 7.3-.2zm15.4.8c-.4-.1-1.8.1-1.1.2s1.8-.2 1.1-.2zm-13.1-1.2c-.9 0-2.4 0-2.4.2s2.5 0 2.4-.2zm-7.4 0c-.4-.1-1.8.1-1.1.2s1.8-.1 1.1-.2zM237 160.7c.1 3.8-.3 10.6.2 12.4v-6.2c-.1-1.8.3-6.3-.2-6.2zm.4-3.6c.1 5.8-.3 14.7.2 18.6-.1-5.8.3-14.8-.2-18.6zm-.2 27.1a9 9 0 0 0 .2 2.5 8.9 8.9 0 0 0-.2-2.5zm0-35.8c-.1.3.1 1.9.2 1.3s-.1-1.9-.2-1.3zm-.2 27.1c.3-.7 0-1.5 0 0zm.2 12.4c-.1.3.1 1.9.2 1.3s-.1-1.9-.2-1.3zm.7-33.2h-.2c0 1.4.2.7.2 0zm-.2-.1v-1.2c0-.4-.2 1.2 0 1.2z" fill="none"/><path d="M240.5 218.3c.1-.3-.1-2-.2-1.4s.1 2 .2 1.4zm-94.8 47.2c.4.1 1.9-.1 1.2-.2s-1.9.1-1.2.2zm7.1-142.6c-.3-.1-1.9.1-1.2.2s1.9-.1 1.2-.2zm69.7 141c.4 0 1.8-.1 1.1-.2s-1.8.1-1.1.2zm-42.3.2c.4.1 1.8-.1 1.1-.2s-1.8.1-1.1.2z" fill="#006799"/><path d="M90.1 263.3c10.3 0 19.9-.4 29.8-.2 5 .1 11.5.5 18.8.6s14.3-.1 20.1.4c.3-.3 6-.7 7.4-.2-1.8 0-3.5 0-3.6.2 5.2.1 4.3 0 10 0-.1-.1.9-.2 1.2 0h-1.2v.2c6.4 0 6.8-.1 2.3-.4h12.5c8.5-.6 14.5-.2 24.6-.4 0-.2-.5-.3-1.5-.3.8.3-6.5.3-6.2 0h6.2v-.2c-1.5 0-1-.3 0 0a21 21 0 0 0 4.7-.3c-6.3-.3-8.6.4-11 .2-6.4.3-21.7.3-28.5 0H204a75.6 75.6 0 0 0-7.7-.4c-.9 0-1.2.2-2.3.2a4 4 0 0 0-1.4-.2c-.9 0-1.2.2-2.3.2s-.1-.2-1.4-.2a35.6 35.6 0 0 1-6.3-.2c-11.7.2-28.1-.4-35.7.4v.2c3.8.3 4.5-.2 6.4.4-4.2-.1-11.4.3-13.7-.2a35.6 35.6 0 0 1-8.7-.2c5.5.3 10-.6 13.6 0-1.8 0-4.6-.1-4.9.2 2.1-.1 7.4.2 7.4-.2s-1.5-.2-.1-.2c-5.7-.6-18.1.1-22.3-.2-1.3.1-.7.4-2.4.4a8 8 0 0 0-2.6-.4c-.5.3-1.5.4-3.6.4-8.4.1-10.7.3-19.8 0 .8.4-5.6-.1-6.1.4zm97 .1c.7.1-.7.2-1.1.2s.8-.3 1.2-.3zm-2.7-.4c.7.1-.7.2-1.1.2s.8-.3 1.1-.2zm.2.4c.7.1-.7.2-1.1.2s.8-.3 1.2-.2zm-13.1-1.1c.1.2-1.4.2-2.4.2s1.6-.3 2.5-.3zm-7.4 0c.7.1-.8.3-1.1.2s.8-.4 1.2-.3zm-4.8.4a7.4 7.4 0 0 0-2.6-.2c1.2-.6 5 .1 5.1.4 2.1-.1 7.4.2 7.3-.2 5.6.4-7.1.6-7.3.2h-6.2c-3.8-.3 2.3-.4 3.8-.3zm-31 0c-.1.2-2.2.2-3.7.2.3-.3 2.4-.3 3.9-.3zM61 177.4c-.1.3.1 1.9.2 1.2s-.1-1.8-.2-1.2zm.7 16.1c-.4-11.7-.4 7.2 0 0zm13.5 69.3c-2.7.4-10.2 0-12.4.4 2.8.2 8.2 0 8.7 0s15.7.7 12.4 0-12.6.4-8.7-.4zm-13.3-21v-28.5c-.3 8.1-.5 23.3 0 28.5zm175.9 21.1c-.4 0-1.8.1-1.1.2s1.8-.1 1.1-.2zm-5 0c-3.3 0-8.2.1-5.3-.3l-7.3.2c-.7.6 16.1.2 12.6.1zm-14.9 0c-.4 0-1.8.1-1.1.2s1.9-.1 1.1-.2z" fill="#006799"/><path d="M213.1 263.1c.4 0 1.8-.1 1.1-.2s-1.8.1-1.1.2zm-125.4.2c.3.1 1.9-.1 1.2-.2s-1.9.1-1.2.2zm-26-16.5c.1 4.6-.3 12.3.2 14.9-.1-4.7.3-12.4-.2-14.9zm0-3.7c-.1.3.1 1.9.2 1.2s-.1-1.9-.2-1.2zM138 124.9c-20.8.3-48.5.2-75.5.1H62v47.5c0 10.9-.2 20.4-.2 29.7 0 .6.5 1 .4 2.5s-.7.6-.4 2.5a1.4 1.4 0 0 1 0 1.2c0 2.2.3 2.6.2 5 .3 11.9.3 33.3.4 49.2v.2H69c1.9 0 8 .3 7.4-.4l-14 .2h.1c-.3-29-.3-67.2 0-93.7-.4-4.5.1-6.5-.2-12.4.3 0 1.1-3.4.4-5 .1 2.1-.2 2.3-.4 2.5.1-3.4-.3-9.8.2-11.1 0 1.8 0 3.5.2 3.7-.2-3.8.2-4.5.2-7.4s-.7 2.4-.7-2.5-.1-7.6-.1-11.1v-.2h.2c9.8.1 18.7.4 27.2-.2 17.1.2 30.7.2 48.3.2 1 0 1.2-.2 2.5-.2s-.8-.3-2.3-.3zm-75.4 16.6c-.1.6-.3-.9-.2-1.2s.2.9.2 1.2zm81.6-16.8l-3.7.4c1.7.4 10.5.3 12.4 0v-.2c-4.9.2-6.3.3-8.7-.2zm94 88.5v-23.6a9.2 9.2 0 0 0-.2-2.6c.2 8.4-.2 19.7.2 26.2zm0 3.7a10.3 10.3 0 0 0-.2-2.6 10.3 10.3 0 0 0 .2 2.6zm-.2 9.8c.5-5.6-.6-3.4 0 0zM80.2 262.8c-6.6-.2-1.4.7 0 0zm111-137.7c4.6 0 9.2.4 13.6-.2h-22.3c-8 0-16.1-.2-18.6.4 11.3.2 19.8-.1 27.3-.2z" fill="#006799"/><path d="M237.6 209.2v5c0 1.7.2 2.6.2 1.4-.1-13.2 0-22.9.1-32s.2-17.8-.1-28.7c0 .7-.2 1.4-.2 0s-.3-1 0-1.2a47.8 47.8 0 0 0 .2-6.2v-22.4h-.3c-14.3 0-29.3.1-40.1.4h-18.6c-4.5-.2-4.5.4 0 .2h8.7c13.4-.1 29.5.3 40.9-.2 1.9-.1 3.8.4 6.2.4h3l-.5-.5c.1 1.5.2 3 .1 4.4-.1 5.5-.4 11.3-.4 17.2 0 1.9.2 4.2.2 6.2 0 8.3-.5 18.3-.2 24.6a5.5 5.5 0 0 1 .2-2.4c0-1.5.3-.7 0 0V189c0 1.8.6.7.6 2.7a5.7 5.7 0 0 0-.4 2.3c.5 1.5.1 7.8.2 11.2.3.5.2 2.5.2 4zm-.4-60.8c.1-.6.3.9.2 1.3s-.2-1-.2-1.3zm-.2 12.3c.5-.1.1 4.4.2 6.2v6.2c-.5-1.8-.1-8.6-.2-12.4zm.4-3.6c.5 3.8.1 12.8.2 18.6-.4-3.9 0-12.8-.2-18.6zm-.2 27.1a8.9 8.9 0 0 1 .2 2.5 9 9 0 0 1-.2-2.5zm0 3.7c.1-.6.3 1 .2 1.3s-.2-.9-.2-1.3zm-16.9 74.9c-.7-.5-5 .2 0 0zm-127.7 0c.4.1 1.9-.1 1.2-.2s-1.9.1-1.2.2zm-12.4-.2v.2c7.1.2 7-.3 0-.2zm72.6-137.5c1.5.7 6.6-.2 0 0zm9.9 0c-7.9-.3-2.7.7 0 0z" fill="#006799"/><path d="M237.9 154.7c0-1-.1-1.2-.2-1.3s0 .8 0 1.2zM91.3 262.2c-1.9 0-14.8-.3-11.1.4-1.6-.2 18.8-.3 11.1-.4zm146.3-18.4c.2-6.7-.1-14.4-.2-19.9 0-3.5.3-10.5-.4-11.4 0 7.9.3 10.6 0 17.3.2-.1.3.5.4 1.5-.3-.7-.3.7-.4 2.2-.1 3.8.3 9.5.2 16.2a50.4 50.4 0 0 0 .4-5.9zm-127.8 18.4c-.4-.1-1.9.1-1.2.2s1.9-.1 1.2-.2zm-4.9 0c-.4-.1-1.9.1-1.2.2s1.8-.1 1.2-.2zm-3.8 0c-.4-.1-1.9.1-1.2.2s1.9-.1 1.2-.2zm-3.7 0c-1 0-2.4 0-2.4.2s2.4 0 2.4-.2zm-34.4-91v-13.6c-.5-3.2.1 10.2-.4 11.1s.1 2.5.4 2.5zm-.2-19.8c-.1-1.8-.3.1 0 0zm97.5-25.6c1.8-.1-.1-.3 0 0zm2.4 0c2.2-.1 7.3.3 7.4-.2h-3.7c-1.4 0-3.5-.1-3.7.2zm8.7 0c1 0 2.4 0 2.5-.2s-2.5-.1-2.5.2zm66 79.5c-.5-7.3-.7 6.1 0 6.2 0-3.1-.3-4 0-6.2zM63 255.4c.1-.3-.1-1.9-.2-1.2s.1 1.9.2 1.2zm0-14.8c.1-.3-.1-1.9-.2-1.2s.1 1.8.2 1.2zm0-2.5c.1-.3-.1-1.9-.2-1.2s.1 1.8.2 1.2zm0-60.7c0-1.8.1-4.6-.2-4.9 0 1.8-.1 4.5.2 4.9zm-.2-30.9c-.2 5.1.7.3 0 0zm80.1-20.5c1 0 2.4 0 2.5-.2s-2.4 0-2.5.2zm9.9 0c1 0 2.4 0 2.5-.2s-2.4 0-2.5.2zm7.5-.2c-1.8.1.1.3 0 0zm76.7 75.6c.4.1.1-5.2.2-7.3-.4 0 0 5.2-.2 7.3zm.3 48.3c-.2.5 0 1.5 0 0zm-158.4 12c-.3-.1-1.9.1-1.2.2s1.8-.1 1.2-.2zm-14.1-50.8c.1-.3-.1-1.9-.2-1.2s.1 1.8.2 1.2zm170.8 49.5c0-.3-.1-1.9-.2-1.4s.1 1.9.2 1.4zm-144.7-1.3c-.3-.1-1.8.1-1.2.2s1.8-.1 1.2-.2z" fill="#006799"/><path d="M173.3 237.2l-9.7-34.8a22.5 22.5 0 1 0-26.8 0l-9.7 34.8z" fill="#66c6e4"/><path d="M163.6 202h-.2v.4c-.2.9.9 3.3 1.1 4.7.5-.7-.1-.9-.2-2.3s-.6-1.7-.9-2.5v-.2l.2-.2zm-28.9-34.1c-.1 0-.4.5-.2.5s.5-.5.2-.5zm35.4 59.3l-.6-2.2c-.4-.3.3 2.2.6 2.2z" fill="none"/><path d="M164.3 204.9h.2c-.2-.5-.3-.2-.2 0zm-.3-.8a2.9 2.9 0 0 0-.3-1.7 25.9 25.9 0 0 1 2.4-2.3 5.6 5.6 0 0 0-2.5 1.9.2.2 0 0 1 0 .1v.2a6.2 6.2 0 0 1 .4 1.8zm5.9 21.1l-2.8-10.1a55.8 55.8 0 0 0 2.8 10.1zm.4 2.1c.2-.1-.2-.5 0 0zm-3-8.4c0-.1-.3-.7-.3-.5s.3.7.3.5zm-.6-19.4c.3-.4.9-.9.7-1.2s-.8.9-.7 1.2zm-1.8 8.5l.6 2.2c.3 0 .8-1.3 0-1.8s.2.8 0 .9-.8-2.7-.6-1.3zm2.6 10.1c0-.1-.3-.7-.3-.5s.3.7.3.5zm-2.3-4.4v.4c.3 0 .1-.4 0-.4zm1.3-.8c-.5 0-.6-1.9-1-2.6s1 4.4 1 2.6zm.6 5.1c0-.1-.3-.7-.3-.5s.2.7.3.5zm.1-4.3c-.1-.3-.2-.9-.5-.9s.2.9.5.9zm-.8-2.6c0-.1-.3-.7-.3-.4s.3.6.3.4zm-30.6 26.6c1.4-.1 4.1.3 4.6-.2h-2.3c-.7.1-2.4-.2-2.3.2zm-1.4-.4c2.1-.1 5.6.3 6.8-.2-2.1.1-5.5-.3-6.8.2zm10.1.2c.3 0 .9 0 .8-.2s-.8 0-.8.2zm-13.3 0c.1.1.7-.1.4-.2s-.7.1-.4.2zm10.2.2c-.4-.3-.6 0 0 0zm4.5-.2c.1.1.7-.1.4-.2s-.7.1-.4.2zm-12.5-.6v.2c.5-.1.2-.2 0-.2zm0 .2h-.4c.1.2.4.1.4 0z" fill="none"/><path d="M154.4 234.3c-.2-.1-.6.1-.3.2s.6-.1.3-.2zm6.6-29.5c0 .1.3.6.3.4s-.3-.7-.3-.4zm-21.7-1.6v-.2l.2-2.2-1.1-.6c-.2-.1-.4-.1-.3 0h.2l.9.4v2.4c0 .2 0 .4.1.2zm30.8 27.3c0 .1.3.7.3.5s-.3-.7-.3-.5zm-4.4-14.3c0 .1.3.6.3.4s-.3-.6-.3-.4z" fill="#006799"/><path d="M171.9 186.8a19.9 19.9 0 0 1-3.5 10 24.1 24.1 0 0 1-5 4.3l-.4.3-.7.5.2.8a31.7 31.7 0 0 1 1.3 6.4c.4.1 1.4 2.1.9 2.5s-.3-1.2-.6-1.3a18.8 18.8 0 0 0 1 3.4c.1 0 .4.3.1.4v-.4h-.2c.6 2.1.7 2.3.7.9l1.2 4.2c1.6 3.2 1.7 5.1 3 8.7.3.2.3.1.3-.3s-1-2.5-.6-2.2l.6 2.2h.2c-.2-.5.2-.1 0 0a6.1 6.1 0 0 0 .9 1.9c-.3-2-1.4-3.4-1.3-4.1a55.8 55.8 0 0 1-2.8-10.1L170 225a7.2 7.2 0 0 0-.3-2.5c-.1-.3-.4-.5-.5-.9s.2 0 .1-.4-.4-.5-.5-.9.2.1.1-.4a4 4 0 0 1-.4-2.2c-.7-2.1-1.3-4.7-1.9-7a23.9 23.9 0 0 0-2.1-5.9h-.2c0 1.4.7 1.6.2 2.3-.3-1.4-1.3-3.8-1.1-4.7v-.4h.2a5.6 5.6 0 0 1 2.5-1.9 25.9 25.9 0 0 0-2.4 2.3 2.9 2.9 0 0 1 .3 1.7 6.2 6.2 0 0 0-.6-1.6v-.2a.2.2 0 0 0 0-.1h-.1l-.2.2v.2c.3.8.4 2.5.9 2.5s0-.5.2 0a9.8 9.8 0 0 0-.5-2.6v.4a44.2 44.2 0 0 0 4.1-4c.3-.4-.1-.5.2-1a1.3 1.3 0 0 0 .9-.5 1.7 1.7 0 0 1 .4-1.4 24.6 24.6 0 0 0 1.4-3.2c.4-.9.7-1.9 1.2-3.5-.4 0-.3-.5-.2-1s.4-1.4.2-1.5zm-4.5 32.1c0 .2-.4-.4-.3-.5s.2.4.2.5zm.2-.8c0 .2-.4-.4-.3-.5s.2.4.2.5zm-.4-.1c0 .2-.4-.3-.3-.5s.2.4.2.5zm.1-4.3c-.2 0-.3-.5-.5-.9s.2.6.4.9zm-.7-2.7c-.1.2-.4-.3-.3-.4s.2.3.1.5zm-.9-1.7c.1-.1.2-.4 0-.9s.4 1.8 0 1.8.5 2.6 1 2.6c0 1.9-1.4-2.6-1-2.6l-.6-2.2c-.4-1.4.3.8.4 1.3zm1.2-9.9c-.1-.2.4-.7.7-1.2s-.5.8-.9 1.3zm-20.2-35.8c.1 0 .6-.2.4-.3s-.6.2-.4.3zm5.6-.9c-2.1.1-1.4.2-.6.2s1.9.2.6-.2zm19.9 18.7c-.5-.9-.6-3.6-1.5-4.2s.3 1.2.4 1.8l.4 1.2a10.1 10.1 0 0 1 .1 1.1v1.7a12.8 12.8 0 0 0 0 1.4c0 .3.1.4.3.1s-.1-1.7-.1-2.5 0-1.3.4-.6zm-4.9-10.9a22.4 22.4 0 0 0-8.1-6.2 33.1 33.1 0 0 1 4.5 3.1l1.1.9 1 .9zm5.6 66.3c0-.1-.3-.7-.3-.6s.3.8.3.6zm-.5-1.8c-.3-1.1-.9-3-.1-1.5-.6-1.7-.3-1.1-.9-2.7s1.2 5.3 1 4.2zm-1.5-5.2c0-.1-.3-.7-.3-.5s.2.7.3.5zm-.7-1.8c0 .1.3.7.3.5s-.3-.7-.3-.5zm1.7-42.1c-.1.1 0 .7.2.5s0-.7-.2-.5zm-3.7-13.8c1 1.3 1.9 3.9 2.6 4.6l-1.2-2.7a5 5 0 0 0-1.4-1.9zm-.8-1.1c0 .1.5.5.4.2s-.4-.5-.4-.2z" fill="#006799"/><path d="M133.5 198.4a20.6 20.6 0 0 1-4.7-8.8 22 22 0 0 1 .3-11.4 21.3 21.3 0 0 1 2.5-5.4 23.9 23.9 0 0 1 1.7-2.4l1-1.1.5-.5.5-.5a21.6 21.6 0 0 1 9.6-5.2 20.4 20.4 0 0 1 10.6.1c.2.1.5-.4 1-.2a.9.9 0 0 0 .1.4.6.6 0 0 0 .6.3c.2-.2.5 0 .4.2s1 0 1.7.4a20.2 20.2 0 0 1 7.8 5.5 22.9 22.9 0 0 1 5 9.3l.2.7c0 .3.1.6.1.9s.3 1.1.6.9a23.7 23.7 0 0 0-3.3-8.8 23.2 23.2 0 0 0-17-11 23.6 23.6 0 0 0-9.4.8 6.9 6.9 0 0 1-1.9.9 8.2 8.2 0 0 0-2.2 1.2c-.1-.3-1.7-.3-1.8.6s.8-.3 1-.1-2.7 2.3-3.4 2.3 1-.9.9-1.1-1.4.9-2.2 1.7 1.1-.2-.1 1.1a33.7 33.7 0 0 0-4 6.2 14 14 0 0 0-1.4 6.5 21.3 21.3 0 0 0 .7 8.7 22 22 0 0 0 4.2 7.8c.3.3.5.2.8.5s0-.1-.4-.5zm1.2-30.4c.3-.1 0 .4-.2.5s.1-.5.2-.6zm.5 31.9a3.4 3.4 0 0 1-1.3-.7 3.9 3.9 0 0 0 1.3 1.6 8.1 8.1 0 0 0 1.9 1.3h.1v.2a1 1 0 0 0 0 .2h.2v-.6l-.3-.2c-1.2-.6-1.7-.9-1.9-1.8zm19.3 36.6H146c-.3 0-.9 0-.8.2 2.9-.1 7.3.3 9.3-.2zm1.4 0c-.3 0-.9 0-.8.2s.9 0 .8-.2zm3.8.2c-2.5-.5-.7.6 0 0z" fill="#006799"/><path d="M172.4 183.2c.1-2.4-.7-.5 0 0zm-39 33.1c-.4 1.7-1.3 3.2-1.1 4.9l2.2-7.9c.8-2.9 1.8-5.7 1.4-6.7-1.3 3.9-1.9 7-2.5 9.7z" fill="#006799"/><path d="M153.5 237.1h1.8c.9.1.8-.2.3-.2-4.8.1-8.4 0-11.8-.1a95.5 95.5 0 0 0-10.5.1c.3 0 .5.2 0 .2s-.3.3-.5 0a6.8 6.8 0 0 0-2.3-.2h-3.4l.3.4c1.7-6.1 3.8-13.7 4.8-18.9l1-3.5.9-3.1c.6-1.6.1-1.7-.2-.1l-.9 3.1c-1.2 4.8-3.2 10.4-3.8 14.6-.1.7-.8 1.3-1 2.1s-.2 1.9-.5 2.7l-1 2.8-.2.6h.8l3.5.2 2.3-.2c3.1 0 7 .5 9.3.2-.5 0-.8 0-1-.2s-.4-.3 0 0h5.1c.6 0-.1-.6.7-.6a2 2 0 0 0 1.1.4c.3-.5 2.9-.1 4-.2s.7-.1 1.2-.1zm-22.4.4c-.2-.1.3-.3.4-.2s-.2.3-.3.2zm4.6.2c-.2-.5 1.6-.1 2.3-.2h2.3c-.4.5-3.1.1-4.5.2zm-1.4-.4c1.3-.5 4.7-.1 6.8-.2-1.2.5-4.6.1-6.7.2zm10.2.2c-.1-.2.5-.2.8-.2s-.4.2-.8.2zm1.4 0c-.3-.1.2-.3.4-.2s-.2.3-.4.2zm25.4-6.7c.6.2-.7-1.9 0 0zm.9-43.1c-.1.1 0 .7.2.5s-.1-.7-.2-.5zm.4-4.5h-.2c0 1.3 0 1.9.1 1.9s.3-.6.1-1.9zm-35.4 19.4c-.8.3-.4 2.4 0 0zm-1 3.6c1-2.8-.4-1.2 0 0z" fill="#006799"/><path d="M133.4 236.9c-.4 0-.4.1-.4.2h.5zm39.5-49.6a16.9 16.9 0 0 0 .3-2.9c-.1-1.1-.2-2-.6-1.3s.3 1.4.2 2.9-.2 2.8.1 1.3zm-6.6 49.8c-2.6-.1-5.2.1-7.2.2s-4.2-.3-3.9.4c3 0 3.7-.3 6.5 0-.2-.2-.2-.3.2-.3s.6.3 1.2.3 3.2-.3 5.8-.2a14.2 14.2 0 0 0-2.6-.4zm4.6-43.1c.1-.1.2-.7 0-.5s-.2.7 0 .5zm.8-1.7c.1-.1.1-.7-.1-.5s-.1.7.1.5zm.4-1.3c.1-.1.1-.7-.1-.5s-.1.7.1.5zm.4-1.4c0-.4.2-.9 0-1s-.2 1 0 1zm-28.4-27.5a21.7 21.7 0 0 0-2.4.8l-2.3 1.1c-.4.5.4 0 1.5-.5l1.6-.6c.5-.1.9-.2 1-.1s.7-.4.6-.7zm-6.7 3.3c-.5.5.2.2 0 0zm-1.6 39.7c0 .7.3 0 0 0zm-.3.9c-.1.8-1 2.5-.5 2.7l.4-1.3c.1-.5.4-1.3.1-1.4zm-.8 3.1c0 .4-.2.9 0 .9s.2-.8 0-.9zm17.6 28.2c-2.4.5 2.8.6 2.3 0s-1.3.3-2.3 0zm18.6-63.2c0-.1-.4-.6-.4-.3s.4.6.4.3zm-3-4.7c0-.1-.6-.5-.5-.2s.6.5.5.2zm-.7-.7c0-.1-.6-.5-.5-.2s.6.5.5.2zm-20.8-7.1c-.7.1-1.7.3-1.8.6l1.1-.3c.4 0 .6-.1.7-.3zm-10.5 5c1.7-1-.3-.6 0 0zm-2 33.9c.3.2.7.6.8.5s-.6-.7-.8-.5zm2.4 1.9c0 .4-.2.9 0 .9s.2-.8 0-.9zm-.5 2.7c0-.7-.3 0 0 0zm15.3 32.6c-.3-.4-2-.1-2.9-.2s2 .1 2.9.2zm17.9-.3c.5.2.5 0 0 0zm4.5-54.7c.1-.1-.1-.7-.2-.5s.1.7.2.5zm-14-21.4c-.1-.1-.8-.2-.6 0s.8.2.6 0zm16 77.6c-.2 0-.6.1-.3.2s.6-.2.3-.2zm.5-51.1c.1-.1 0-.8-.2-.5s0 .7.2.5zM136.5 137.7h-1.6l-.4-.2a5.3 5.3 0 0 0-2.2-.1h-1l-5.7-.3-.7-.3h-1c-2 .1-3.6-.6-5.4-.4l-3.3.2h-7.1a18.7 18.7 0 0 0-3 .1h-1.2l-1.2-.2h-1.4a4 4 0 0 0-1.4-.1l-.2.2h-.1l-.7-.2h-.3a2.9 2.9 0 0 0-2-.1h-.5l-1.2.2h-.2a2.8 2.8 0 0 1-1.4-.3H93a3.1 3.1 0 0 0-2 .3h-.5a2.6 2.6 0 0 0-1.5-.1h-.8l-4 .2h-1.7a11.6 11.6 0 0 0-2.4.2h-2c-.1 0 0-.1 0-.1s-.6.1-.6-.2l-.5.2a5.7 5.7 0 0 0-2.7.2h-1.5c-.9 0-1.3.1-1.4.3h-1.3v.8h.1l2-.2a8.8 8.8 0 0 0 2.4 0h5.6l2.9-.2h.8a5.7 5.7 0 0 0 2.5.3c2.6-.1 5.4.2 7.9-.3l1.4-.2h4.8c.1.6 2.5.4 3.2.3s0-.1 0-.1a17.1 17.1 0 0 1 3.2.1l.9-.3h1a4.2 4.2 0 0 0 1 .5c.3-.4 1.3-.4 1.9-.4h2.1c.5.1.9 0 1.1-.2h.3a7.5 7.5 0 0 0 1.5.3h5.8a22 22 0 0 0 3.3.2 7.8 7.8 0 0 0 1.9 0l8.8.5zm-58.8-.7zm-2.6 0zm54.7 12.6H128a4.3 4.3 0 0 0-1.9 0h-6l-.7-.2-.9.2c-1.7.2-3.2-.5-4.9-.2l-2.9.3h-6.4a15.6 15.6 0 0 0-2.7.1h-1l-1.1-.2h-1.3a3.2 3.2 0 0 0-1.2-.1v.2h-.1l-.6-.2H96a2.4 2.4 0 0 0-1.8-.1h-.5l-1.1.2h-.2a2.3 2.3 0 0 1-1.2-.4H91a2.5 2.5 0 0 0-1.8.3h-.4a2.1 2.1 0 0 0-1.3-.1h-6.2a9.3 9.3 0 0 0-2.2.1h-.6v-.1h-1.2v-.1s-.6 0-.5-.2l-.5.2c-.3-.3-1.8-.1-2.4.1h-1.4c-.8 0-1.2 0-1.2.3h-1.2v.8H72a7 7 0 0 0 2.1.1h8.4a4.6 4.6 0 0 0 2.2.3c2.3-.1 4.9.3 7.1-.2l1.3-.2h4.3c.1.6 2.2.4 2.9.3s0-.1 0-.1a13.8 13.8 0 0 1 2.8 0l.8-.3h.9a3.7 3.7 0 0 0 .9.5c.2-.4 1.2-.4 1.7-.4h1.9c.5.1.8 0 .9-.3h.3a5.9 5.9 0 0 0 1.4.3l1.7-.2h3.5a16.6 16.6 0 0 0 2.9.1 6.3 6.3 0 0 0 1.7-.1h7.9zm-52.8 0zm-2.3-.1zm23 14.1h-.8c-.3-.2-.6 0-.9 0h-2.6l-.3-.2-.4.2c-.8.2-1.4-.5-2.2-.2l-1.3.3h-2.8a3.1 3.1 0 0 0-1.2.1h-.5l-.5-.2h-.6c-.2-.1-.3-.2-.6-.1v.2l-.3-.2h-.1a.5.5 0 0 0-.8-.1h-.2l-.5.2H81a.7.7 0 0 1-.5-.4h-.1a.6.6 0 0 0-.8.3h-.2a.5.5 0 0 0-.6-.1h-2.6a1.9 1.9 0 0 0-1 .1H75v-.1h-.5v-.1s-.3 0-.2-.2l-.2.2c-.1-.3-.8-.1-1.1.1h-.6c-.4 0-.5 0-.5.3h-.5v.8h.8a1.4 1.4 0 0 0 .9.1h3.7a1.1 1.1 0 0 0 1 .3c1-.1 2.2.3 3.2-.2l.6-.2h1.9c0 .6 1 .4 1.3.3s0-.1 0-.1 1-.1 1.3 0l.3-.3h.4c.1.2.2.4.4.5s.5-.4.7-.4h.8a.3.3 0 0 0 .4-.3h.1c.2.1.4.3.6.3l.8-.2h1.5a3.3 3.3 0 0 0 1.3.1c.2 0 .6.1.8-.1h3.5zm-23.4 0zm-1-.1z" fill="#006799"/></svg>