<svg data-name="Layer 1" xmlns="http://www.w3.org/2000/svg" width="300" height="300"><path fill="#c7e8ca" d="M0 0h300v300H0z"/><path fill="#ecf7ed" d="M50 43.2h200v213.68H50z"/><path d="M120.3 257.2c2.9.5 12.6.1 18.1.2-2.3-.7-3.4-.1-8.4-.4 0 .4-6.9 0-9.7.2zM50.1 64.5c.1-.5-.1-2.5-.2-1.6s.1 2.4.2 1.6zM214 257.3h-8.2c-.5.3 9.2.3 8.2 0zm-83.9-.4v-.2c-2 .1-1 .2 0 .2z" fill="none"/><path d="M126.8 256.9c-4.7-.6-10.8.3-18.1 0a60.4 60.4 0 0 0 11.6.2c.4-.2 4-.1 6.5-.2zm78.8 0h-37.8c9 .4 29.2.3 37.8 0zm8.3.2c-1.2-.3-2 0 0 0zm-30.9.6c-.5-.1-2.4.1-1.5.2s2.4-.1 1.5-.2zm-77.6-.7c-1.9 0-4.7 0-4.9.2 2-.1 4.7 0 4.9-.2zm36.2.2h8.2c-.1-.3-5-1-6.7-.4a11.9 11.9 0 0 1 3.4.2c-2.1-.1-10.2 0-4.9.2zm37.9.1c-.5-.1-2.4.1-1.5.2s2.4-.1 1.5-.2zm-15.9 1h1.7a2.6 2.6 0 0 0-1.7 0zm-4-1.4c0 .4-6.9.1-9.8.2.3.5 17.1.3 9.8-.2zm20.1.8c-.5-.1-2.4.1-1.5.2s2.4-.1 1.5-.2zm-17-1.2c-1.2 0-3.2 0-3.2.2s3.2 0 3.2-.2zm-9.8 0c-.5-.1-2.4.1-1.6.2s2.4-.1 1.6-.2zm96.6-134.6c.1 5-.3 14 .2 16.4v-8.2c-.1-2.3.2-8.3-.2-8.2zm.4-4.8c.1 7.7-.3 19.5.2 24.7-.1-7.7.3-19.6-.2-24.7zm-.2 36a16 16 0 0 0 .2 3.4 15.8 15.8 0 0 0-.2-3.4zm0-47.5c-.1.4.1 2.5.2 1.7s-.1-2.5-.2-1.7zm-.2 36c.3-.9 0-2 0 0zm.2 16.5c-.1.4.1 2.5.2 1.7s-.1-2.5-.2-1.7zm.6-44.1h-.2c0 1.8.2.9.2 0zm-.2-.1v-1.6a2.5 2.5 0 0 0 0 1.6z" fill="none"/><path d="M252.9 197.8c.1-.4-.1-2.6-.2-1.8s.1 2.6.2 1.8zm-125.2 62.1c.5.1 2.5-.1 1.6-.2s-2.5.1-1.6.2zm42.1-219.3c-.5-.1-2.5.1-1.6.2s2.4-.1 1.6-.2zm59.9 217.7c.5 0 2.4-.1 1.5-.2s-2.4.1-1.5.2zm-56.1.2c.5.1 2.5-.1 1.5-.2s-2.4.1-1.5.2z" fill="#31843f"/><path d="M54.6 257.6c13.6 0 26.4-.4 39.5-.2 6.6.1 15.1.6 24.8.6s19-.1 26.5.4c.5-.3 8.1-.7 9.8-.2-2.3 0-4.7 0-4.9.2 6.8.2 5.7 0 13.2 0a2.6 2.6 0 0 1 1.7 0h-1.7v.2c8.4 0 9.1-.1 3.1-.4h16.5c11.4-.6 19.3-.2 32.7-.5.1-.2-.6-.3-1.9-.4 1 .3-8.7.3-8.2 0h8.3v-.2c-2 0-1.2-.3 0 0a38.1 38.1 0 0 0 6.3-.4c-8.2-.3-11.5.4-14.6.2-8.6.3-28.8.3-37.7 0h37.7c-2.2-.3-8.9-.4-10.1-.4s-1.6.2-3.1.2a6.1 6.1 0 0 0-1.8-.2c-1.2 0-1.6.2-3.2.2a5.2 5.2 0 0 0-1.8-.2 60.1 60.1 0 0 1-8.3-.2c-15.5.2-37.2-.4-47.3.4v.2c4.9.3 6-.2 8.4.4-5.6-.1-15.2.3-18.1-.2a60.4 60.4 0 0 1-11.6-.2c7.3.3 13.4-.6 18.1 0-2.4 0-6.1-.1-6.5.2 2.8-.1 9.7.3 9.8-.2s-1.9-.2-.1-.2c-7.5-.6-24.1.1-29.6-.2-1.8.1-1 .4-3.2.4a12.6 12.6 0 0 0-3.4-.4 15 15 0 0 1-4.9.4c-11.2.1-14.3.3-26.3 0 .9.8-7.5.2-8.1.7zm128.5.1c.9.1-1 .2-1.5.2s.9-.2 1.4-.2zm-3.5-.4c.9.1-1 .2-1.5.2s.9-.2 1.4-.2zm.2.4c.9.1-1 .3-1.5.2s.9-.2 1.4-.2zm-17-1.2c.1.2-1.9.2-3.2.2s1.8-.1 3.1-.2zm-9.8 0c.9.1-1.1.3-1.6.2s1-.2 1.5-.2zm-6.4.4a11.9 11.9 0 0 0-3.4-.2c1.8-.6 6.6.1 6.7.4 2.8-.1 9.8.2 9.8-.2 7.3.4-9.5.7-9.8.2h-8.2c-5.4-.1 2.7-.2 4.8-.2zm-41 0c-.2.3-3 .2-4.9.2.1-.2 2.8-.1 4.7-.1zm-57-144.8c-.1.5.1 2.5.2 1.6s-.1-2.5-.2-1.6zm.6 21.3c-.4-15.5-.4 9.6 0 0zm.5 108.3c-.4-3.6 0-13.4-.4-16.4-.2 3.6 0 10.9 0 11.5s-.7 20.6 0 16.4-.4-16.8.4-11.5zm-.3-44.3v-37.7c-.2 10.6-.5 30.8 0 37.7zm200.8 59.8c-.5 0-2.4.1-1.5.2s2.4-.1 1.5-.2zm-6.6 0c-4.3 0-10.8.1-6.9-.3l-9.7.2c-1.1.7 21.2.3 16.6.1zm-19.7.1c-.5 0-2.4.1-1.5.2s2.4-.1 1.5-.2zm-6.4.2c.5 0 2.4-.1 1.5-.2s-2.5.1-1.5.2zm-166.2.1c.5.1 2.5-.1 1.6-.2s-2.5.1-1.6.2zM49.2 204c.1 6.1-.3 16.3.2 19.7-.1-6.1.3-16.4-.2-19.7zm0-5c-.1.5.1 2.5.2 1.6s-.1-2.4-.2-1.6z" fill="#31843f"/><path d="M150.1 42.6c-27.5.3-64.2.2-100.1.1h-.4v62.8c0 14.5-.2 27-.2 39.4 0 .8.5 1.3.4 3.3 0 0-.7.8-.4 3.3a2.4 2.4 0 0 1 0 1.6c0 2.9.3 3.5.2 6.6.3 17.7.3 51.5.4 73.8 0 2.6-.3 10.6.4 9.8-.6-40.4-.5-101.9-.2-142.7-.4-6 .1-8.6-.2-16.4.3 0 1.1-4.6.4-6.6.1 2.8-.2 3.1-.4 3.3.1-4.5-.3-13 .2-14.8 0 2.3 0 4.6.2 4.9-.2-5 .2-6 .2-9.8s-.7 3.2-.7-3.3-.1-10-.1-14.8V43h.2c13 .1 24.8.4 36.1-.2 22.6.2 40.7.2 64 .2 1.3 0 1.6-.2 3.3-.2 0-.6-1.2-.2-3.3-.2zm-100 21.9c-.1.8-.3-1.2-.2-1.6s.3 1.1.2 1.6zm108.2-22.1l-4.9.4c2.3.4 13.9.3 16.4 0v-.2c-6.4.2-8.3.3-11.5-.2zm92.4 149v-31.2a16.2 16.2 0 0 0-.2-3.4c.1 11-.3 26.1.2 34.6zm0 4.9a17.9 17.9 0 0 0-.2-3.4 17.9 17.9 0 0 0 .2 3.4zm-.2 13.1c.5-7.5-.6-4.4 0 0zM49.7 248.3c.2-8.7-.7-1.9 0 0zM220.6 42.8c6.1 0 12.2.4 18-.2h-29.4c-10.6 0-21.4-.2-24.6.4 14.8.2 26.1-.1 36-.2zm29.5 143.3v6.6c-.1 2.9.2 3.5.2 1.8-.1-17.5 0-30.3.1-42.4s.2-23.6-.1-38.1c0 .9-.2 1.8-.2-.1a2.5 2.5 0 0 1 0-1.6c.2-2.4.2-5.1.2-8.2 0-17.8 0-41.1-.2-61V43h-.1l-21.2.3h-24.6c-5.9-.2-5.9.4 0 .2H250l-.4-.4c0 7.2.1 14 .3 19.9.1 2.5-.4 5-.4 8.2s.3 6.6.2 9.9c-.1 7.2-.4 15-.4 22.8 0 2.5.2 5.6.2 8.2 0 11-.5 24.3-.2 32.7a9.8 9.8 0 0 1 .2-3.2c0-2 .3-.9 0 0v18c0 2.4.6.9.6 3.6a10.3 10.3 0 0 0-.4 3.1c.5 2 .1 10.3.2 14.9a31.2 31.2 0 0 1 .2 4.9zm-.4-80.5c.1-.8.3 1.2.2 1.7s-.3-1.3-.2-1.7zm-.2 16.3c.5-.1.1 5.8.2 8.3s0 5.5 0 8.2c-.5-2.5-.1-11.4-.2-16.5zm.4-4.8c.5 5.1.1 16.9.2 24.7-.5-5.1-.1-16.9-.2-24.7zm-.2 36a15.8 15.8 0 0 1 .2 3.4 16 16 0 0 1-.2-3.4zm0 4.9c.1-.8.3 1.3.2 1.7s-.3-1.2-.2-1.6zM227 257.1c-.8-.5-6.7.2 0 0zm-169.2.1c.5.1 2.5-.1 1.6-.2s-2.4.1-1.6.2zm-7.9-8.9h-.2c-.2 9.3.3 9.3.2 0zM169.8 42.8c1.9.7 8.7-.2 0 0zm13.1 0c-10.5-.3-3.6.7 0 0z" fill="#31843f"/><path d="M250.3 114c0-1.4-.1-1.6-.2-1.7s0 1.1 0 1.6zM56.2 256.5H50l.4.4c0-5.4 0-11.8-.5-8.6.1-.9.2 3.8.2 8.6H50c6-.3 11.9-.3 6.2-.4zm193.9-24.4c.1-8.9-.1-19-.2-26.4 0-4.6.3-14-.4-15 0 10.5.3 14 0 22.9.2-.1.3.6.4 1.9-.3-.8-.3 1-.4 3-.1 5 .3 12.5.2 21.4.3-1.1.3-5 .4-7.8zM80.8 256.5c-.5-.1-2.5.1-1.6.2s2.4-.1 1.6-.2zm-6.6 0c-.5-.1-2.5.1-1.6.2s2.5-.1 1.6-.2zm-4.9 0c-.5-.1-2.5.1-1.6.2s2.4-.1 1.6-.2zm-4.9 0c-1.3 0-3.2 0-3.3.2s3.2 0 3.3-.2zM50.6 103.9v-18c-.5-4.2.1 13.5-.4 14.8s.1 3.1.4 3.2zm-.3-26.3c-.1-2.4-.3.2 0 0zm129.3-34.1c2.4-.1-.2-.3 0 0zm3.3 0c2.9-.1 9.6.3 9.8-.2h-4.9c-1.9 0-4.6-.1-4.9.2zm11.5 0c1.3 0 3.2 0 3.3-.2s-3.3 0-3.3.2zm55.5 137.6c-.5-9.7-.6 8.2 0 8.2 0-4.1-.4-5.3 0-8.2zM50.6 215.4c.1-.5-.1-2.5-.2-1.6s0 2.5.2 1.6zm0-19.6c.1-.5-.1-2.5-.2-1.6s0 2.4.2 1.6zm0-3.3c.1-.4-.1-2.5-.2-1.6s0 2.4.2 1.6zm0-80.4c0-2.4.1-6.1-.2-6.6 0 2.5-.1 6.1.2 6.6zM50.3 71c-.2 6.8.7.3 0 0zm106.4-27.3c1.3 0 3.2 0 3.3-.2s-3.3 0-3.3.2zm13.1 0c1.3 0 3.2 0 3.3-.2s-3.3 0-3.3.2zm9.8-.2c-2.4.1.2.3 0 0zM249.5 176c.4 0 .1-6.9.2-9.7-.4-.1-.1 6.9-.2 9.7zm.3 64c-.2.8 0 2 0 0zm-199 6.6c.1-.5-.1-2.5-.2-1.6s.1 2.5.2 1.6zm1.5-90.2c.1-.5-.1-2.5-.2-1.6s.1 2.4.2 1.6zM248 254.7c0-.4-.1-2.6-.2-1.8s.2 2.5.2 1.8z" fill="#31843f"/><path d="M56.1 253.4c-.4-.1-2.5.1-1.6.2s2.4-.1 1.6-.2z" fill="#31843f"/><path d="M81.6 76.5c-.3-1.1-3-3.3-4.2-4.8 0 1 .7 1 1.7 2.4.4-.3 1.7 1.7 2.5 2.4zm63.2 68.1c.1.2.7.6.6.3s-.8-.6-.6-.3zM59.2 52.2l2 2.1c.4-.1-1.9-2.6-2-2.1z" fill="none"/><path d="M79.1 74.1l-.2.2c.5.4.4 0 .2-.2zm.8.8c.6 1.6 2.8 2.6 4.4 4.7a7.4 7.4 0 0 0-2.6-3.1c-.4 0-1.2-1-1.8-1.6zM60.8 54.6l9.2 9.7a80.4 80.4 0 0 0-9.2-9.7zM59 52.3c0 .5.5.5 0 0zm8 7.6c.1.2.7.6.6.3s-.7-.6-.6-.3zm18 20.5c.5.5 1.1 1.2 1.4 1.1s-1.1-1.2-1.4-1.1zM76.5 71l-2-2.1c-.2.2.3 1.9 1.3 2s-.7-.8-.6-1 2.4 2.5 1.3 1.1zm-9-9.9c.1.2.7.6.6.3s-.7-.6-.6-.3zm4.8 3.4l-.4-.4c-.1.3.3.5.4.4zm-.4 1.9c.4-.3 1.8 1.7 2.5 2.4s-3.8-4.5-2.5-2.4zm-4.1-5.7c.1.2.7.6.6.3s-.7-.5-.6-.3zm3 5.2c.3.3.8.8 1 .7s-.8-.8-1-.7zm2.4 2.5c.1.2.7.6.6.3s-.7-.6-.6-.3zm143.8 154c1.3 1.2 3.2 3.8 4.1 4.1l-2-2.1c-.6-.5-1.8-2.4-2.1-2zm-.8-1.6c2 1.9 4.5 5.3 6.1 6.2-2-1.8-4.6-5.2-6.1-6.2zm8.5 9.5c.3.3.8.8 1 .7s-.8-.8-1-.7zM213.2 218c.1.2.7.6.6.3s-.7-.6-.6-.3zm8.6 9.5c0-.5-.5-.5 0 0zm4.1 4.1c.1.2.7.6.6.3s-.7-.6-.6-.3zm-10.2-11.9l-.2.2c.5.4.4 0 .2-.2zm-.2.1l-.4-.4c-.1.3.3.5.4.4z" fill="none"/><path d="M237.8 238.7c-.1-.2-.7-.6-.6-.3s.7.6.6.3zM82.2 72.8c-.1-.2-.7-.6-.6-.3s.7.6.6.3zm98.6 106.4c-.1-.2-.7-.6-.6-.3s.7.6.6.3zM56.6 47.4c-.1-.2-.7-.6-.6-.3s.7.6.6.3zm13.5 14.4c-.1-.2-.7-.6-.6-.3s.7.6.6.3z" fill="#31843f"/><path d="M97.8 93.1c-3.3-3.5-6.7-6.5-9.7-10-1.5-1.7-3.2-4.2-5.5-6.8s-4.6-4.8-6-7.1c-.4.1-2.6-1.6-2.5-2.4s1.1 1.2 1.4 1.1a32.8 32.8 0 0 0-3.2-3.4c-.1.1-.5-.2-.4-.4l.4.4.2-.2c-2-2.2-2.2-2.3-1.1-.5l-4-4.2c-3.3-2.5-4.8-4.8-8.3-8.2-.3.1-.2.4.1.7s2.4 2.1 2 2.1l-2-2.1-.2.2c.5.5 0 .5 0 0a4.6 4.6 0 0 0-1.9-1.4c1.7 2.3 3.3 2.7 3.7 3.7a80.4 80.4 0 0 1 9.2 9.7l-9.1-9.7a12.2 12.2 0 0 0 2.1 2.8c.3.3.6.3 1 .7s-.2.2.2.6.6.3 1 .7-.2.2.2.6a6.4 6.4 0 0 1 1.8 2.3c3.9 3.9 8.7 9.9 11.8 12l.2-.2c-.9-1.5-1.7-1.4-1.7-2.4 1.2 1.5 3.9 3.7 4.2 4.8a7.4 7.4 0 0 1 2.6 3.1c-1.5-2.1-3.8-3-4.4-4.7.6.6 1.4 1.6 1.7 1.5s-2.1-2.7-2.5-2.4.3.6-.2.2c1.3 2.3 5.9 6.2 7 7.8s.6 0 1.1.5a1.8 1.8 0 0 0 .5 1.2c.4 0 .8.2 1.5 1a66.6 66.6 0 0 1 6.3 6.8c.4-.7 2 1.8 2.5 1.6zM67 59.9c-.1-.3.5.1.6.3s-.5-.1-.6-.3zm.5 1.2c-.1-.3.5.1.6.3s-.5-.2-.6-.3zm.3-.3c-.1-.3.5.1.6.3s-.5-.2-.6-.4zm3 5.2c.2-.1.6.4 1 .7s-.6-.5-1-.8zm2.4 2.5c-.1-.3.5.1.6.3s-.5-.2-.6-.4zm1.9 1.4c0 .2.1.5.6 1s-1.5-1.8-1.3-2-2.1-2.7-2.5-2.4c-1.4-2.2 2.9 2 2.5 2.4l2 2.1c1.2 1.4-.8-.6-1.3-1.2zM85 80.4c.3-.1.9.6 1.4 1.1s-.9-.6-1.4-1.1zm49.4 50.8c-.1-.2-.7-.6-.6-.3s.7.6.6.3zm-5.6-5c4 3.7-2.1-2.7 0 0zm-26.5-27.7c1.2.6 3.2 3.5 4.3 3.9a22.6 22.6 0 0 0-2.8-3c-.5-.4-4.5-5.8-4-4.2s4.3 4.1 2.5 3.3zm10.8 11.3l9.1 9.7c-2.3-2.9-7-8.3-9.1-9.7zm-62.6-67c.1.2.7.6.6.3s-.8-.6-.6-.3zm1.5 1.7c1 1.1 2.7 2.7 1.3 2l2.5 2.4c1.1-.1-4.7-5.7-3.8-4.4zm4.8 5.1c.1.2.7.6.6.3s-.7-.6-.6-.3z" fill="#31843f"/><path d="M58.6 51.2c-.1-.2-.7-.6-.6-.3s.7.6.6.3zm40 42.8c-.1-.2-.7-.6-.6-.3s.7.6.6.3zm13.1 13.9c-1.6-1.5-3.7-4.4-4.9-4.9 1.5 1.5 3.7 4.4 4.9 4.9zm1.2 1.3c-.1-.2-.7-.6-.6-.3s.7.6.6.3zm61.7 66.3c-11-11.1-27.1-29-39.3-42-3.5-3.7-6.4-7.1-9.4-10.3-.2-.2-.7 0-1.1-.5a.9.9 0 0 0-.5-1.2c-.3.1-.5-.3-.4-.4s-1-.7-1.7-1.5c-4.5-4.4-12.6-13.1-18.2-18.8-.6-.7-2.3-3-2.7-2.2 10.2 10.1 25 25.9 34.7 36.7 1.8 1.3 2 2.3 4.1 4.1-.2.2.3 1.9 1.3 2-.7-.7-.6-.9-.5-1.2s3.4 3.2 3.4 4-1.1-1.2-1.4-1.1c1.3 1.2 1.3 1.7 2.2 2.7s-.3-1.3 1.3.4c4.8 4.7 8.2 9.5 12.5 13 5.3 6 9.7 10.7 15.3 16.7.4.3.6.3 1 .7s-.1-.6-.6-1.1zm-29.8-30.9c-.1-.3.5.1.6.3s-.6-.2-.6-.3zm31.9 32.8a6.6 6.6 0 0 1-1.5-1c.2.9 3.2 3.8 4 4.2l.2-.2c-1.7-1.4-2.3-1.8-2.7-3zm58 61.9l-6.3-6.8-1.2-1.3c-.3-.3-.8-.8-1-.7 2.7 2.8 6.1 7 8.5 8.8zm1.1 1.3c-.3-.3-.8-.8-1-.7s.9.8 1 .7zm3.1 3.5c-1.4-2.4-1.5-.5 0 0zM100.7 96.8c1.9 2.4 1 0 0 0zm90.8 97c1.5 1.6 2.7 3.4 4.5 4.5l-7.1-7.6c-2.6-2.7-5-5.7-6.3-6.1 3.5 4 6.4 6.7 8.9 9.2zm41.5 44.7l1.6 1.7c.7.8 1 .7.6.3-8.6-8.8-12-13.7-19.4-20.8.2.2.3.6-.2.2s-.5-.2-.4-.4a10.6 10.6 0 0 0-1.8-2.3c-6-6.3-14.5-15.5-20.2-20.9l-3.2-3.4-2.8-3c-1.3-1.6-1.7-1.3-.2.2l2.8 3c4.4 4.5 9.3 10.3 13.3 13.8.7.6.9 1.6 1.7 2.4s1.8 1.5 2.5 2.4 3.4 4.2 5.2 6.2 1.5 1.3 2.1 2c2.6 2.9 5.5 6.7 7.8 8.6-.5-.5-.7-.8-.6-1s0-.5 0 0l4.4 4.7c.6.6.6-.3 1.3.4a1.8 1.8 0 0 0 .5 1.2c.8.1 2.6 2.6 3.7 3.7s.8.5 1.3 1zM213.2 218c-.1-.3.5.1.6.3s-.5-.1-.6-.3zm3.8 4.4c.3-.4 1.5 1.4 2.1 2l2 2.1c-.9-.2-2.8-2.9-4.1-4.1zm-.9-1.6c1.6.9 4.1 4.3 6.1 6.2-1.5-.9-4.1-4.3-6-6.2zm8.6 9.5c.2-.1.6.4 1 .7s-.6-.4-1-.7zm1.2 1.3c-.1-.3.5.1.6.3s-.5-.2-.6-.3zM55.8 48.9c-.4.5 1.8 1.6 0 0zm40.9 43.7c-.1-.2-.7-.6-.6-.3s.7.6.6.3zm3.8 4.4l.2-.2c-2.2-2.5-2.6-2.2-.2.2zm78.7 83.7c0 1 2.3 2.1 0 0zm3.2 3.4c-2.4-2.9-1.4-.5 0 0z" fill="#31843f"/><path d="M215.7 219.7c-.3-.4-.4-.3-.6-.3l.4.4zM96.6 93.4c.6.7 4.5 5.3 3.9 3.5.3.8-6.3-6.2-3.9-3.5zm147.5 157c-2-2.5-4.7-4.8-6.5-6.6s-3.2-3.9-3.9-3.5c2.5 2.8 3.6 3.3 5.6 5.9.1-.2.4-.2.7.1s0 .6.5 1.2 3.2 2.9 5.3 5.4a9.9 9.9 0 0 0-1.7-2.5zM90.7 87.1c.1.2.7.6.6.3s-.8-.6-.6-.3zm1.5 1.7c.1.2.7.6.6.3s-.7-.6-.6-.3zm1.2 1.3c.1.2.7.6.6.3s-.7-.6-.6-.3zm1.2 1.2c.3.3.8.8 1 .7s-.8-.8-1-.7zm40.3 43.4l4.4 4.7c1.4.7-3.3-3.4-3.2-4.1s-1-.8-1.2-.6zm6.5 6.6c.7.5.2-.2 0 0zm39.7 42.4c.7.5.2-.2 0 0zm.8.9c.8.7 2.1 2.7 2.5 2.4l-1.2-1.3c-.5-.5-1.1-1.3-1.3-1.1zm2.8 2.9c.3.3.8.8 1 .7s-.9-.8-1-.7zm46.9 49.9c-2.7-2.1 1.5 2.7 2 2.1s-1.5-1-2-2.1zM107.9 105.9c.1.2.7.6.6.3s-.7-.6-.6-.3zm4.8 5.1c.1.2.7.6.6.3s-.7-.6-.6-.3zm.8.8c.1.2.7.6.6.3s-.7-.6-.6-.3zm19.4 20.8c.6.6 1.4 1.6 1.7 1.5s-1.3-1.6-1.7-1.5zM143 143c-1.5-1.9-.6.4 0 0zm32.4 34.9c.3.3.8.8 1 .7s-.9-.8-1-.7zm3.1 3.4c.3.3.8.8 1 .7s-.8-.8-1-.7zm2.6 2.4c-.7-.5-.2.2 0 0zm49 52.7c.3-.4-1.6-1.9-2.2-2.7s1.6 1.9 2.2 2.7z" fill="#31843f"/><path d="M245.7 252.8c0 .5.5.5 0 0zM100.2 98c.1.2.7.6.6.3s-.7-.6-.6-.3zm20.7 24.4c.1.2.7.6.6.3s-.7-.6-.6-.3zm127 136.3c-.1-.2-.7-.6-.6-.3s.7.6.6.3zM94.3 95.6c.1.2.7.6.6.3s-.7-.6-.6-.3z" fill="#31843f"/><path d="M218.9 76.9c1.1-.4 3.1-3.2 4.5-4.5-1 .1-.9.8-2.3 1.8.3.4-1.6 1.9-2.2 2.7zm-63.8 67.5c-.2.1-.5.7-.2.6s.5-.7.2-.6zm86.5-91.5l-2 2.1c.1.5 2.5-2 2-2.1z" fill="none"/><path d="M221.1 74.2l-.2-.2c-.4.6 0 .5.2.2zm-.8.9c-1.6.7-2.4 3-4.4 4.7a7.4 7.4 0 0 0 2.9-2.8c0-.4.9-1.3 1.5-1.9zm19-20.4l-9.1 9.7a80.4 80.4 0 0 0 9.1-9.7zm2.2-1.9c-.5 0-.5.5 0 0zm-7.1 8.5c-.2.1-.5.7-.2.6s.5-.8.2-.6zm-19.3 19.3c-.4.5-1.2 1.2-1 1.4s1.2-1.2 1-1.4zm8.9-9.2l2-2.1c-.2-.2-1.9.4-1.9 1.4s.7-.7 1-.7-2.5 2.6-1.1 1.4zm9.3-9.6c-.2.1-.5.7-.2.6s.5-.7.2-.6zm-3.2 5l.4-.4c-.2-.1-.4.3-.4.4zm-1.9-.2c.3.4-1.6 1.9-2.2 2.7s4.3-4.2 2.2-2.7zm5.4-4.5c-.2.1-.5.7-.2.6s.5-.7.2-.6zm-4.9 3.3c-.3.4-.8.8-.6 1s.7-.8.6-1zm-2.4 2.6c-.2.1-.5.7-.2.6s.5-.8.2-.6zM82.2 221.7c-1.1 1.4-3.6 3.5-3.8 4.4l2-2.1c.4-.8 2.2-2.1 1.8-2.3zm1.5-1c-1.8 2.1-5 4.9-5.8 6.5 1.7-2.1 5-4.9 5.8-6.5zm-8.9 9.2c-.3.4-.8.8-.6 1s.7-.9.6-1zm11.5-12.3c-.2.1-.5.7-.2.6s.5-.8.2-.6zm-8.9 9.1c.5 0 .5-.5 0 0zm-3.8 4.4c-.2.1-.5.7-.2.6s.5-.7.2-.6zm11.2-11l-.2-.2c-.4.6 0 .5.2.2z" fill="none"/><path d="M84.6 220l.4-.4c-.2-.1-.5.3-.4.4z" fill="none"/><path d="M67.2 243.5c.2-.1.5-.7.2-.6s-.4.7-.2.6zM222.6 77.2c.2-.1.5-.7.2-.6s-.5.7-.2.6zm-99.7 105.5c.2-.1.5-.7.2-.6s-.5.7-.2.6zM246.2 50c.2-.1.5-.7.2-.6s-.5.8-.2.6zm-13.5 14.4c.2-.1.5-.7.2-.6s-.5.8-.2.6z" fill="#31843f"/><path d="M203.3 94.2c3.3-3.5 6.1-7.1 9.4-10.3 1.6-1.6 4-3.5 6.4-5.9s4.5-4.9 6.7-6.5c-.1-.4 1.5-2.7 2.2-2.7s-1.2 1.2-1 1.4a32.8 32.8 0 0 0 3.2-3.4c-.1-.1.1-.5.4-.4l-.4.4.2.2c2-2.1 2.1-2.4.5-1.2l4-4.2c2.3-3.5 4.5-5.2 7.6-8.8-.1-.2-.4-.2-.7.1s-1.9 2.6-2 2.1l2-2.1-.2-.2c-.5.5-.5 0 0 0a4.6 4.6 0 0 0 1.3-2c-2.2 1.8-2.5 3.4-3.4 4a80.4 80.4 0 0 1-9.1 9.7l9.1-9.7a12.2 12.2 0 0 0-2.7 2.2c-.3.3-.2.6-.6 1s-.2-.1-.6.3-.2.6-.6 1-.2-.2-.6.3-.4.7-2.1 2c-3.6 4.2-9.3 9.3-11.2 12.6l.2.2c1.4-1 1.3-1.7 2.3-1.8-1.4 1.3-3.5 4.1-4.5 4.5a7.4 7.4 0 0 1-2.9 2.8c2-1.7 2.8-4 4.4-4.7-.6.7-1.5 1.5-1.4 1.8s2.5-2.3 2.2-2.7-.6.4-.2-.2c-2.2 1.5-5.8 6.3-7.3 7.5s.1.6-.5 1.2a1.8 1.8 0 0 0-1.1.5c0 .4-.2.9-.9 1.6a66.6 66.6 0 0 1-6.3 6.8c.4.3-2 2.1-1.8 2.6zm31.1-32.9c.3-.1-.1.5-.2.6s.1-.6.2-.6zm-1.1.5c.3-.1-.1.5-.2.6s0-.5.2-.6zm.3.3c.3-.1-.1.5-.2.6s.1-.5.2-.6zm-4.9 3.3c.1.2-.4.6-.6 1s.3-.6.6-1zm-2.4 2.6c.3-.1-.1.5-.2.6s.1-.5.2-.6zm-1.3 2c-.2 0-.5.2-1 .7s1.7-1.6 1.9-1.4 2.5-2.3 2.2-2.7c2.1-1.5-1.8 3-2.2 2.7l-2 2.1c-1.3 1.2.6-.9 1.1-1.4zm-9.9 10.6c.1.2-.6.9-1 1.4s.6-.9 1-1.4zm-47.4 52.6c.2-.1.5-.7.2-.6s-.5.7-.2.6zm4.7-6c-3.5 4.2 2.6-2.2 0 0zM198.2 99c-.6 1.2-3.3 3.4-3.6 4.5a22.6 22.6 0 0 0 2.8-3c.4-.5 5.5-4.9 4-4.2s-3.9 4.5-3.2 2.7zm-10.5 11.5l-9.1 9.7c2.8-2.5 7.8-7.5 9.1-9.7zm62.7-66.9c-.2.1-.5.7-.2.6s.4-.7.2-.6zm-1.6 1.7c-1 1.1-2.5 2.9-1.9 1.4-1.3 1.6-1 1.1-2.2 2.7s5.3-5.1 4.1-4.1zm-4.8 5.1c-.2.1-.5.7-.2.6s.5-.8.2-.6z" fill="#31843f"/><path d="M242.6 52.2c.2-.1.5-.7.2-.6s-.5.8-.2.6zM202.5 95c.2-.1.5-.7.2-.6s-.5.8-.2.6zm-13.1 14c1.4-1.7 4.2-4 4.6-5.2-1.3 1.6-4.1 4-4.6 5.2zm-1.1 1.3c.2-.1.5-.7.2-.6s-.5.7-.2.6zm-62.1 65.9c10.4-11.7 27.1-29 39.3-42 3.5-3.7 6.6-6.9 9.7-10 .2-.2 0-.7.5-1.2a.9.9 0 0 0 1.1-.5c-.1-.3.3-.5.4-.4s.6-1.1 1.4-1.8c4.1-4.8 12.3-13.5 17.5-19.4.6-.7 2.8-2.5 2.1-2.8-9.4 10.8-24.2 26.7-34.3 37-1.1 1.8-2.2 2.2-3.8 4.4-.2-.2-1.9.4-1.9 1.4.6-.8.9-.7 1.1-.5s-2.9 3.6-3.7 3.7 1.1-1.2 1-1.4c-1.1 1.4-1.6 1.4-2.5 2.4s1.3-.3-.3 1.3c-4.3 5.1-8.9 8.8-12.1 13.3-5.6 5.7-10 10.4-15.6 16.4-.3.4-.2.6-.6 1s.2-.3.7-.9zm28.9-31.8c.3-.1-.1.5-.2.6s0-.5.2-.6zm-30.7 34.1a6.6 6.6 0 0 1 .9-1.6c-.9.3-3.6 3.4-4 4.2l.2.2c1.4-1.7 1.7-2.4 2.9-2.8zm-57.9 61.9l6.3-6.8 1.2-1.3c.3-.4.8-.8.6-1-2.5 2.9-6.5 6.6-8.1 9.1zm-1.2 1.2c.3-.4.8-.8.6-1s-.8.9-.6 1zm-3.3 3.3c2.3-1.6.4-1.5 0 0zM199.8 97.3c-2.3 2.1 0 1 0 0zm-90.8 97c-1.5 1.6-3.2 2.9-4.2 4.8l7.1-7.6c2.6-2.7 5.3-5.4 5.6-6.7-3.6 3.8-6.2 6.9-8.5 9.5z" fill="#31843f"/><path d="M67.2 238.6l-1.6 1.7c-.8.7-.7 1-.2.6 8.2-9.2 12.9-12.9 19.4-20.8-.2.2-.6.4-.2-.2s.1-.5.4-.4a10.6 10.6 0 0 0 2.1-2c5.9-6.4 14.5-15.5 19.5-21.5l3.2-3.4 2.8-3c1.6-1.4 1.2-1.8-.2-.2l-2.8 3c-4.2 4.7-9.6 9.9-12.9 14.1-.5.7-1.5 1-2.3 1.8s-1.4 1.9-2.2 2.7-3.9 3.6-5.9 5.6-1.2 1.6-1.8 2.3c-2.7 2.8-6.3 6-8.1 8.3.4-.5.7-.7 1-.7s.5 0 0 0l-4.4 4.9c-.5.6.3.6-.3 1.3a1.8 1.8 0 0 0-1.1.5c-.1.8-2.4 2.7-3.4 4s-.6.9-1 1.4zm19.1-21.1c.3-.1-.1.5-.2.6s0-.5.2-.5zm-4.1 4.1c.4.3-1.3 1.6-1.8 2.3l-2 2.1c.1-.9 2.7-3 3.8-4.3zm1.5-1c-.8 1.6-4 4.4-5.8 6.5.8-1.5 4-4.3 5.8-6.4zm-8.9 9.2c.1.2-.4.6-.6 1s.3-.6.6-.9zm-1.2 1.3c.3-.1-.1.5-.2.6s0-.5.2-.6zm171-181.7c-.6-.4-1.5 1.9 0 0zM203.8 93c.2-.1.5-.7.2-.6s-.5.8-.2.6zm-4.1 4.1l.2.2c2.3-2.4 1.9-2.7-.2-.2zm-78.4 84.1c-1 0-1.9 2.4 0 0zm-3.2 3.4c2.7-2.5.4-1.4 0 0z" fill="#31843f"/><path d="M84.8 220.1c.4-.3.3-.5.2-.6l-.4.4zM202.9 93c-.6.6-5 4.9-3.2 4.1-.7.4 5.8-6.7 3.2-4.1zM56.1 250.5c2.3-2.2 4.5-5 6.2-6.9s3.7-3.4 3.2-4.1c-2.6 2.7-3.1 3.8-5.6 5.9.3.1.2.4-.1.7s-.6.1-1.1.5-2.7 3.4-5 5.7c.6-.1 1.6-1.1 2.4-1.8zM208.9 86.6c-.2.1-.5.7-.2.6s.4-.7.2-.6zm-1.6 1.7c-.2.1-.5.7-.2.6s.5-.7.2-.6zm-1.2 1.3c-.2.1-.5.7-.2.6s.5-.7.2-.6zm-1.2 1.3c-.3.4-.8.8-.6 1s.7-.9.6-1zm-40.6 43l-4.4 4.7c-.6 1.4 3.2-3.5 3.9-3.5s.7-1 .5-1.2zm-6.2 7c-.5.7.2.1 0 0zm-39.7 42.3c-.5.7.2.1 0 0zm-.8.9c-.6.8-2.5 2.3-2.2 2.7l1.2-1.3c.4-.5 1.2-1.2 1-1.4zm-2.7 3c-.3.4-.8.8-.6 1s.7-.9.6-1zm-46.7 50.1c1.9-2.8-2.6 1.7-2 2.1s1-1.6 2-2.1zm123-132.1c-.2.1-.5.7-.2.6s.5-.7.2-.6zm-4.7 5.1c-.2.1-.5.7-.2.6s.5-.7.2-.6zm-.8.9c-.2.1-.5.7-.2.6s.5-.8.2-.6zm-19.4 20.7c-.6.7-1.5 1.5-1.4 1.8s1.4-1.4 1.4-1.8zm-9.8 10.8c1.8-1.6-.4-.5 0 0zm-32.7 34.6c-.3.4-.8.8-.6 1s.8-.9.6-1zm-3.2 3.4c-.3.4-.8.8-.6 1s.8-.9.6-1zm-2.2 2.6c.5-.7-.2-.1 0 0zm-49.3 52.4c.4.3 1.8-1.7 2.5-2.4s-1.7 1.8-2.5 2.4zm-15.3 16.7c-.5 0-.5.5 0 0zM198.6 96.9c-.2.1-.5.7-.2.6s.5-.7.2-.6zm-22.9 22.3c-.2.1-.5.7-.2.6s.4-.8.2-.6zM48 254.9c.2-.1.5-.7.2-.6s-.5.7-.2.6zm152.6-164c-.2.1-.5.7-.2.6s.5-.8.2-.6z" fill="#31843f"/><g><rect x="64.2" y="126.1" width="171.6" height="57.95" rx="10" ry="10" fill="#6bc373"/><path d="M172.2 184.4c1.5.5 6.7.1 9.6.2-1.1-.7-1.8-.1-4.4-.4-.1.5-3.7.1-5.2.2zM64.3 147.5c.1-.2-.1-1.3-.2-.9s.1 1.4.2.9zm157.8 37.1h-4.4c-.4.4 4.8.4 4.4 0zm-44.7-.4v-.2c-1 0-.5.2 0 .2z" fill="none"/><path d="M175.7 184.2c-2.4-.7-5.8.3-9.6 0a16.6 16.6 0 0 0 6.1.2c.2-.3 2.1-.2 3.5-.2zm42 0h-20.1a183 183 0 0 0 20.1 0zm4.4.2c-.5-.3-1.1 0 0 0zm-16.6.7c-.2-.1-1.3.1-.9.2s1.3-.1.9-.2zm-41.2-.9c-1 0-2.5 0-2.6.2s2.4.1 2.6-.2zm19.2.2h4.4c0-.3-2.4-1.1-3.5-.4 1 0 1.6 0 1.8.2s-5.4 0-2.7.2zm20.2.2c-.2-.1-1.3.1-.9.2s1.4 0 .9-.2zm-8.8 1.2h.9c-.2-.3-.9-.2-.9 0zm-1.7-1.6c-.1.5-3.7.1-5.3.2.1.5 9.1.3 5.3-.2zm10.5.9c-.2-.1-1.3.1-.9.2s1.4-.1.9-.2zm-8.8-1.3c-.7 0-1.7 0-1.8.2s1.8 0 1.8-.2zm-5.2 0c-.2-.1-1.3.1-.9.2s1.3-.1.9-.2zm17.8-57.1c2.7-.1 7.5.3 8.8-.2h-4.4c-1.3.1-4.6-.3-4.4.2zm-2.7-.5c4.1-.1 10.5.3 13.1-.2-4 .2-10.4-.3-13.1.2zm19.3.3c.7 0 1.7 0 1.8-.2s-1.7 0-1.8.2zm-25.4 0c.2.1 1.3-.1.9-.2s-1.3.1-.9.2zm19.3.2c-.5-.3-1.1 0 0 0zm8.7-.2c.2.1 1.3.1.9-.1s-1.3 0-.9.1zm-23.6-.7v.2c1 0 .5-.2 0-.2zm0 .2h-.9c.2.3.9.1.9 0z" fill="none"/><path d="M239.2 141.6c.1-.2-.1-1.3-.2-.9s.1 1.3.2.9zm-63.5 45.7c.2.1 1.3-.1.9-.2s-1.4.1-.9.2zm-53.2-63.7c-.2-.1-1.3.1-.9.2s1.3-.1.9-.2zm108.1 61.3l.7-.4c.2-.2.3-.3.1-.3s-1.3.9-.8.7zm-30.4 1.1c.2.1 1.3-.1.9-.2s-1.4.1-.9.2z" fill="#31843f"/><path d="M137.1 184.9c7.3 0 14.1-.4 21-.2 3.5.1 8 .6 13.1.7s10.1-.1 14 .4c.3-.3 4.5-.8 5.3-.2-1.2 0-2.5 0-2.6.2 3.6.2 3 0 7 0 0-.1.7-.3.9 0h-.9v.2c4.5 0 4.8-.1 1.8-.4h8.8c6.2-.7 10.3-.2 17.5-.4.1-.3-.2-.4-.9-.4s-4.8.4-4.4 0h4.4v-.2c-1.1 0-.5-.3 0 0a10 10 0 0 0 3.5-.4c-4.3-.3-6.3.6-7.9.2a183 183 0 0 1-20.2 0h20.2a27.4 27.4 0 0 0-5.3-.4 13.2 13.2 0 0 1-1.7.2c-.3 0 0-.2-.9-.2a13.6 13.6 0 0 1-1.7.2c-.3 0 0-.2-.9-.2a14.5 14.5 0 0 1-4.4-.2c-8.3.2-19.8-.4-25.4.4v.2c2.6.3 3.3-.3 4.4.4-3-.1-8.1.3-9.6-.2a16.6 16.6 0 0 1-6.1-.2c3.9.3 7.2-.7 9.6 0-1.3 0-3.2-.1-3.5.2 1.5-.1 5.1.3 5.3-.2s-1-.2 0-.2c-3.9-.6-12.9.1-15.8-.2-1 .1-.6.4-1.8.4a3.6 3.6 0 0 0-1.8-.4 4.7 4.7 0 0 1-2.6.4c-6 .1-7.6.3-14 0 .4.5-4 0-4.4.5zm68.4.2c.5.1-.6.3-.9.2s.6-.3.9-.2zm-1.8-.4c.5.1-.6.3-.9.2s.7-.3.9-.3zm0 .4c.5.1-.6.3-.9.2s.7-.3.9-.2zm-8.8-1.3c0 .2-1.1.2-1.8.2s1.2-.2 1.8-.2zm-5.3 0c.5.1-.6.3-.9.2s.7-.3 1-.2zm-3.5.4c-.2-.2-.7-.3-1.8-.2 1.1-.7 3.5.1 3.5.4 1.5-.1 5.2.3 5.3-.2 3.8.5-5.2.7-5.3.2h-4.4c-2.6-.2 1.7-.3 2.8-.2zm-21.9 0c-.1.3-1.6.2-2.6.2s1.6-.2 2.7-.2zM62.8 172.9c-.1.2.1 1.3.2.9s-.1-1.3-.2-.9zm5.8 10.4a12 12 0 0 1-1.9-1.3l-.5-.4a5.3 5.3 0 0 0 1.2 1.2 8 8 0 0 0 2.1 1.2c.4.1.3.1-.9-.7zm58 1.1c-1.9.4-7.2 0-8.8.4a51.5 51.5 0 0 0 6.1 0c1 0 11 .7 8.8 0s-8.9.4-6.1-.4zm-23.7.2H82.8c5.7.3 16.5.6 20.1 0zm133.4-10.4c-.1.3 0 1.4.2.9s0-1.4-.2-.9zm-.6 3.6a10 10 0 0 1-1.9 3.1c-.7.7-.9.8-.3-.3a8.4 8.4 0 0 1-1.9 1.9 13.1 13.1 0 0 1-2.4 1.3c-.1.1 0 .2.3.2l1.1-.3a9.1 9.1 0 0 0 3.1-2.3 9.6 9.6 0 0 0 1.9-3.1c.3-.7.3-1 .1-.5zm-8.3 6.7c-.3 0-1.4.2-.9.3s1.4-.3.9-.3z" fill="#31843f"/><path d="M223.9 184.9c.2.1 1.3-.1.9-.2s-1.4.1-.9.2zm-88.6 0c.2.1 1.3-.1.9-.2s-1.3.1-.9.2zm-28.9 0c3.2-.1 8.7.3 10.5-.2-3.2.1-8.7-.3-10.5.2zm-2.6 0c.2.1 1.3-.1.9-.2s-1.4.1-.9.2z" fill="#31843f"/><path d="M112 125.6l-19.7.2H75.6a11.9 11.9 0 0 0-5.8 1 10.5 10.5 0 0 0-6 9.7v38.7a10.7 10.7 0 0 0 1.9 5.2 10.8 10.8 0 0 0 9.3 4.5c.4 0 .7-.5 1.8-.4s.4.7 1.8.4.9-.1.9 0c1.6 0 1.8-.3 3.5-.2 9.5-.3 27.5-.3 39.4-.4 1.4 0 5.7.3 5.3-.4-10.8.3-24.4.4-38 .4H74.2a10 10 0 0 1-8.3-4.4 10 10 0 0 1-1.6-4.3 42.8 42.8 0 0 1-.1-4.4V167c-.4-3.2.1-4.6-.2-8.8.3 0 1.1-2.4.4-3.5.1 1.5-.2 1.7-.4 1.8.1-2.4-.3-7 .2-7.9 0 1.2 0 2.5.2 2.6-.2-2.7.2-3.2.2-5.3s-.7 1.7-.7-1.8-.1-5-.1-7.3a11 11 0 0 1 .5-3.5 10.3 10.3 0 0 1 1.6-3 10.5 10.5 0 0 1 5.4-3.7 12 12 0 0 1 3.2-.5l3.1-.2c12.1.2 21.7.2 34.2.2a16.5 16.5 0 0 1 1.8-.2c.2-.7-.5-.3-1.6-.3zm-47.7 21.9c-.1.5-.3-.6-.2-.9s.3.7.2.9z" fill="#31843f"/><path d="M116.3 125.4l-2.6.4c1.2.4 7.4.3 8.8 0v-.2c-3.4.2-4.4.3-6.2-.2zm120.3 13.5v-3.6a10.8 10.8 0 0 0-6.1-8.9 10.5 10.5 0 0 0-2.7-.9c-.7-.1-1.9-.2-1.9 0a10.1 10.1 0 0 1 4.8 1.2 10.8 10.8 0 0 1 3.9 3.5 11.5 11.5 0 0 1 1.7 4.7c0 .4.1.8.1 1.1v1c.1.8.1 1.4.2 1.9zm0 2.7c0-.7 0-1.7-.2-1.8s0 1.7.2 1.8zm-.2 7c.6-4.2-.7-2.1 0 0zm-106.3 35.8c-4.6-.2-1 .7 0 0zm19.5-58.6c3.3 0 6.5.4 9.6-.2h-15.7c-5.7 0-11.4-.2-13.1.4 7.9.2 13.9-.1 19.2-.2z" fill="#31843f"/><path d="M235.9 136.3v3.5c-.1 1.6.2 1.8.2.9v-3.4a16.5 16.5 0 0 0-.2-3.2 11.5 11.5 0 0 0-1.1-2.9 11.7 11.7 0 0 0-1.7-2.3 10.5 10.5 0 0 0-4.7-2.8 10.7 10.7 0 0 0-2.6-.4h-2.5c-6.5-.1-12.6-.2-20.3.1.5 0 1 .2 0 .2s-.7.3-.9 0a24.1 24.1 0 0 0-4.4-.2c-13.2 0-32 0-43.8.4h-13c-3.2-.2-3.2.4 0 .2h6.1c9.5-.1 20.9.3 28.9-.2 1.3-.1 2.7.4 4.4.4s3.5-.3 5.3-.2c3.9.1 8.1.4 12.3.4l4.4-.2c5.9 0 13.1.6 17.5.2-1 0-1.6 0-1.8-.2s-.5-.3 0 0h4.8a31.3 31.3 0 0 1 4.7.2c.6.1.7 0 .8-.2s.3-.3 1 0a5.8 5.8 0 0 0 1.4 1.2 5 5 0 0 1 2.7 2 11.7 11.7 0 0 1 2 3.9c.3.1.5 1.6.5 2.6zm-37.2-9.8c-.5-.1.6-.3.9-.2s-.6.2-.9.2zm8.8.2c-.1-.5 3.1-.1 4.4-.2h4.4c-1.3.5-6.2.1-8.8.2zm-2.6-.4c2.7-.5 9-.1 13.1-.2-2.7.4-9 0-13.2.1zm19.3.2c0-.2 1.1-.2 1.8-.2s-1.2.1-1.9.2zm2.6 0c-.4-.2.6-.2.9-.1s-.8.2-1 .1zm2.4 57.3c-.2-.3-1 0-1.5.2s-.3.2-.1.2a4.2 4.2 0 0 0 1.6-.4zm-90.3.6c.2.1 1.3-.1.9-.2s-1.4.1-.9.2zm-8.8-.2v.2c5 .2 5-.4 0-.2zm-7.6-58.4c1 .7 4.7-.2 0 0zm7 0c-5.6-.3-1.9.7 0 0z" fill="#31843f"/><path d="M203.1 125.8c-.7 0-.8.1-.9.2h.9zm-65.1 58c-1.3 0-10.5-.3-7.9.4-1.1-.2 13.3-.3 7.9-.4zm97.9-23c.2-4.8-.2-10.1-.2-14s.4-7.6-.4-7.9c0 5.6.3 7.4 0 12.3.3-.1.4.2.4.9s-.4.7-.4 1.8c-.1 2.7.3 6.6.2 11.4a22.1 22.1 0 0 0 .4-4.5zm-84.8 23c-.2-.1-1.3.1-.9.2s1.4-.1.9-.2zm-3.5 0c-.2-.1-1.3.1-.9.2s1.4-.1.9-.2zm-2.6 0c-.2-.1-1.3.1-.9.2s1.3-.1.9-.2zm-2.6 0c-.7 0-1.7 0-1.8.2s1.7 0 1.8-.2zm-77.6-15.2V159c-.5-2.2.1 7.2-.4 7.9s.1 1.6.4 1.7zm-.3-14.1c-.1-1.3-.3.1 0 0zm63.2-28c1.3-.1-.1-.3 0 0zm1.8 0c1.5-.1 5.1.3 5.3-.2h-2.6c-1.1 0-2.6-.1-2.7.2zm6.1 0c.7 0 1.7 0 1.8-.2s-1.8 0-1.8.2zm99.8 7.2c-.5-1.2-.7-1.4-.7-1.2s.2.9.4 1.7a24.4 24.4 0 0 1 .3 2.6c.1.8.2 1.4.4 1.3-.2-2.3-.5-2.7-.4-4.4zm-122.8 49.8c-.2-.1-1.3.1-.9.2s1.3 0 .9-.2zm-10.5 0c-.2-.1-1.3.1-.9.2s1.3 0 .9-.2zm-1.8 0c-.2-.1-1.3.1-.9.2s1.3 0 .9-.2zm-35.5-10.6c0-1.3.1-3.2-.2-3.5 0 1.3-.1 3.3.2 3.5zm-.3-21.9c-.2 3.6.7.2 0 0zm51-24.3c.7 0 1.7 0 1.8-.2s-1.8 0-1.8.2zm7 0c.7 0 1.7 0 1.8-.2s-1.8 0-1.8.2zm5.2-.2c-1.3.1.1.3 0 0zm106.3 5c.2-.2-.2-1-1-1.8a12.5 12.5 0 0 0-2.4-1.9c-.1.2.7.7 1.4 1.4a7.7 7.7 0 0 1 2 2.3z" fill="#31843f"/><path d="M235.5 165.2c-.3.5 0 1.1 0 0zm-106.3 18.1c-.2-.1-1.3.1-.9.2s1.4-.1.9-.2zM81 181.8c-.2-.1-1.3.1-.9.2s1.4-.1.9-.2zm152-7.8c.1-.2-.1-1.3-.2-.9s.1 1.3.2.9zm-95 6.6c-.2-.1-1.3.1-.9.2s1.3 0 .9-.2z" fill="#31843f"/></g><g><rect x="64.2" y="115.9" width="171.6" height="57.95" rx="10" ry="10" fill="#b5e1b9"/><path d="M172.2 174.2c1.5.5 6.7.1 9.6.2-1.1-.7-1.8-.1-4.4-.4-.1.5-3.7.1-5.2.2zM64.3 137.3c.1-.2-.1-1.3-.2-.9s.1 1.4.2.9zm157.8 37.1h-4.4c-.4.4 4.8.4 4.4 0z" fill="none"/><path d="M177.4 174v-.2c-1 0-.5.2 0 .2zm-1.7 0c-2.4-.7-5.8.3-9.6 0a16.6 16.6 0 0 0 6.1.2c.2-.3 2.1-.2 3.5-.2zm42 0h-20.1a183 183 0 0 0 20.1 0zm4.4.2c-.5-.3-1.1 0 0 0zm-16.6.7c-.2-.1-1.3.1-.9.2s1.3-.1.9-.2zm-41.2-.9c-1 0-2.5 0-2.6.2s2.4 0 2.6-.2zm19.2.2h4.4c0-.3-2.4-1.1-3.5-.4 1 0 1.6 0 1.8.2s-5.4 0-2.7.2zm20.2.2c-.2-.1-1.3.1-.9.2s1.4-.1.9-.2zm-8.8 1.1h.9c-.2-.2-.9-.1-.9 0zm-1.7-1.5c-.1.5-3.7.1-5.3.2.1.5 9.1.3 5.3-.2zm10.5.9c-.2-.1-1.3.1-.9.2s1.4-.1.9-.2zm-8.8-1.4c-.7 0-1.7 0-1.8.2s1.8 0 1.8-.2zm-5.2 0c-.2-.1-1.3.1-.9.2s1.3-.1.9-.2zm17.8-57c2.7-.1 7.5.3 8.8-.2h-4.4c-1.3.1-4.6-.3-4.4.2zm-2.7-.5c4.1-.1 10.5.3 13.1-.2-4 .1-10.4-.3-13.1.2zm19.3.2c.7 0 1.7 0 1.8-.2s-1.7 0-1.8.2zm-25.4 0c.2.1 1.3-.1.9-.2s-1.3.1-.9.2zm19.3.3c-.5-.3-1.1 0 0 0zm8.7-.2c.2.1 1.3.1.9-.1s-1.3-.1-.9.1zm-23.6-.7v.2c1 0 .5-.2 0-.2zm0 .2h-.9c.2.3.9.1.9 0z" fill="none"/><path d="M239.2 131.3c.1-.2-.1-1.3-.2-.9s.1 1.4.2.9zm-63.5 45.8c.2.1 1.3-.1.9-.2s-1.4.1-.9.2zm-53.2-63.8c-.2-.1-1.3.1-.9.2s1.3 0 .9-.2zm108.1 61.4l.7-.4c.2-.2.3-.3.1-.3s-1.3.8-.8.7zm-30.4 1.1c.2.1 1.3-.1.9-.2s-1.4 0-.9.2z" fill="#31843f"/><path d="M137.1 174.6c7.3 0 14.1-.4 21-.2 3.5.1 8 .6 13.1.7s10.1-.1 14 .4c.3-.3 4.5-.8 5.3-.2-1.2 0-2.5 0-2.6.2 3.6.2 3 0 7 0 0-.1.7-.3.9 0h-.9v.2c4.5 0 4.8-.1 1.8-.4h8.8c6.2-.7 10.3-.2 17.5-.4.1-.3-.2-.4-.9-.4s-4.8.4-4.4 0h4.4v-.2c-1.1 0-.5-.3 0 0a10 10 0 0 0 3.5-.4c-4.3-.3-6.3.6-7.9.2a183 183 0 0 1-20.2 0h20.2a27.4 27.4 0 0 0-5.3-.4 13.2 13.2 0 0 1-1.7.2c-.3 0 0-.2-.9-.2a13.6 13.6 0 0 1-1.7.2c-.3 0 0-.2-.9-.2a14.5 14.5 0 0 1-4.4-.2c-8.3.2-19.8-.4-25.4.4v.2c2.6.3 3.3-.3 4.4.4-3-.1-8.1.3-9.6-.2a16.6 16.6 0 0 1-6.1-.2c3.9.3 7.2-.7 9.6 0-1.3 0-3.2-.1-3.5.2 1.5-.1 5.1.3 5.3-.2s-1-.2 0-.2c-3.9-.6-12.9.1-15.8-.2-1 .1-.6.4-1.8.4a3.6 3.6 0 0 0-1.8-.4 4.7 4.7 0 0 1-2.6.4c-6 .1-7.6.3-14 0 .4.6-4 0-4.4.5zm68.4.2c.5.1-.6.3-.9.2s.6-.2.9-.1zm-1.8-.4c.5.1-.6.3-.9.2s.7-.2.9-.2zm0 .4c.5.1-.6.3-.9.2s.7-.2.9-.1zm-8.8-1.3c0 .2-1.1.2-1.8.2s1.2-.1 1.8-.2zm-5.3 0c.5.1-.6.3-.9.2s.7-.2 1-.2zm-3.5.4c-.2-.2-.7-.3-1.8-.2 1.1-.7 3.5.1 3.5.4 1.5-.1 5.2.3 5.3-.2 3.8.5-5.2.7-5.3.2h-4.4c-2.6-.1 1.7-.2 2.8-.1zm-21.9 0c-.1.3-1.6.2-2.6.2s1.6-.1 2.7-.1zM62.8 162.7c-.1.2.1 1.3.2.9s-.1-1.3-.2-.9zm5.8 10.4a12 12 0 0 1-1.9-1.3l-.5-.4a5.3 5.3 0 0 0 1.2 1.2 8 8 0 0 0 2.1 1.2c.4.1.3 0-.9-.7zm58 1.1c-1.9.4-7.2 0-8.8.4a51.5 51.5 0 0 0 6.1 0c1 0 11 .7 8.8 0s-8.9.3-6.1-.4zm-23.7.2H82.8c5.7.3 16.5.5 20.1 0zM236.3 164c-.1.3 0 1.4.2.9s0-1.4-.2-.9zm-.6 3.6a10 10 0 0 1-1.9 3.1c-.7.7-.9.8-.3-.3a8.4 8.4 0 0 1-1.9 1.9 13.1 13.1 0 0 1-2.4 1.3c-.1.1 0 .2.3.2l1.1-.3a9.1 9.1 0 0 0 3.1-2.3 9.6 9.6 0 0 0 1.9-3.1c.3-.7.3-1.1.1-.5zm-8.3 6.7c-.3 0-1.4.2-.9.3s1.4-.3.9-.3z" fill="#31843f"/><path d="M223.9 174.6c.2.1 1.3-.1.9-.2s-1.4.1-.9.2zm-88.6 0c.2.1 1.3-.1.9-.2s-1.3.1-.9.2zm-28.9 0c3.2-.1 8.7.3 10.5-.2-3.2.2-8.7-.3-10.5.2zm-2.6 0c.2.1 1.3-.1.9-.2s-1.4.1-.9.2z" fill="#31843f"/><path d="M112 115.4l-19.7.2H75.6a11.9 11.9 0 0 0-5.8 1 10.5 10.5 0 0 0-6 9.7V165a10.7 10.7 0 0 0 1.9 5.2 10.8 10.8 0 0 0 9.3 4.5c.4 0 .7-.5 1.8-.4s.4.7 1.8.4.9-.1.9 0c1.6 0 1.8-.3 3.5-.2 9.5-.3 27.5-.3 39.4-.4 1.4 0 5.7.3 5.3-.4-10.8.3-24.4.4-38 .4H74.2a10 10 0 0 1-8.3-4.4 10 10 0 0 1-1.6-4.3 42.8 42.8 0 0 1-.1-4.4v-4.2c-.4-3.2.1-4.6-.2-8.8.3 0 1.1-2.4.4-3.5.1 1.5-.2 1.7-.4 1.8.1-2.4-.3-7 .2-7.9 0 1.2 0 2.5.2 2.6-.2-2.7.2-3.2.2-5.3s-.7 1.7-.7-1.8-.1-5-.1-7.3a11 11 0 0 1 .5-3.5 10.3 10.3 0 0 1 1.6-3 10.5 10.5 0 0 1 5.4-3.7 12 12 0 0 1 3.2-.5l3.1-.2c12.1.2 21.7.2 34.2.2a16.5 16.5 0 0 1 1.8-.2c.2-.7-.5-.4-1.6-.3zm-47.7 21.9c-.1.5-.3-.6-.2-.9s.3.7.2.9z" fill="#31843f"/><path d="M116.3 115.1l-2.6.4c1.2.4 7.4.3 8.8 0v-.2c-3.4.2-4.4.4-6.2-.2zm120.3 13.6v-3.6a10.8 10.8 0 0 0-6.1-8.9 10.5 10.5 0 0 0-2.7-.9c-.7-.1-1.9-.2-1.9 0a10.1 10.1 0 0 1 4.8 1.2 10.8 10.8 0 0 1 3.9 3.5 11.5 11.5 0 0 1 1.7 4.7c0 .4.1.8.1 1.1v1c.1.7.1 1.4.2 1.9zm0 2.6c0-.7 0-1.7-.2-1.8s0 1.8.2 1.8zm-.2 7c.6-4.2-.7-2.1 0 0zm-106.3 35.9c-4.6-.2-1 .7 0 0zm19.5-58.6c3.3 0 6.5.4 9.6-.2h-15.7c-5.7 0-11.4-.2-13.1.4 7.9.2 13.9-.2 19.2-.2z" fill="#31843f"/><path d="M235.9 126.1v3.5c-.1 1.6.2 1.8.2.9v-3.4a16.5 16.5 0 0 0-.2-3.2 11.5 11.5 0 0 0-1.1-2.9 11.7 11.7 0 0 0-1.7-2.3 10.5 10.5 0 0 0-4.7-2.8 10.7 10.7 0 0 0-2.6-.4h-2.5c-6.5-.1-12.6-.2-20.3.1.5 0 1 .2 0 .2s-.7.3-.9 0a24.1 24.1 0 0 0-4.4-.2c-13.2 0-32 0-43.8.4h-13c-3.2-.2-3.2.4 0 .2h6.1c9.5-.1 20.9.3 28.9-.2 1.3-.1 2.7.4 4.4.4s3.5-.3 5.3-.2c3.9.1 8.1.4 12.3.4l4.4-.2c5.9 0 13.1.6 17.5.2-1 0-1.6 0-1.8-.2s-.5-.3 0 0h4.8a31.3 31.3 0 0 1 4.7.2c.6.1.7 0 .8-.2s.3-.3 1 0a5.8 5.8 0 0 0 1.4 1.2 5 5 0 0 1 2.7 2 11.7 11.7 0 0 1 2 3.9c.3.1.5 1.5.5 2.6zm-37.2-9.8c-.5-.1.6-.3.9-.2s-.6.2-.9.1zm8.8.2c-.1-.5 3.1-.1 4.4-.2h4.4c-1.3.5-6.2 0-8.8.2zm-2.6-.4c2.7-.5 9-.1 13.1-.2-2.7.4-9 0-13.2.1zm19.3.2c0-.2 1.1-.2 1.8-.2s-1.2.1-1.9.1zm2.6 0c-.4-.2.6-.2.9-.1s-.8.2-1 .1zm2.4 57.3c-.2-.3-1 0-1.5.2s-.3.2-.1.2a4.2 4.2 0 0 0 1.6-.4zm-90.3.6c.2.1 1.3-.1.9-.2s-1.4.1-.9.2zm-8.8-.2v.2c5 .2 5-.4 0-.2zm-7.6-58.4c1 .7 4.7-.2 0 0zm7 0c-5.6-.3-1.9.7 0 0z" fill="#31843f"/><path d="M203.1 115.6c-.7 0-.8.1-.9.2h.9zM138 173.5c-1.3 0-10.5-.3-7.9.4-1.1-.2 13.3-.3 7.9-.4zm97.9-22.9c.2-4.8-.2-10.1-.2-14s.4-7.6-.4-7.9c0 5.6.3 7.4 0 12.3.3-.1.4.2.4.9s-.4.7-.4 1.8c-.1 2.7.3 6.6.2 11.4a22.1 22.1 0 0 0 .4-4.5zm-84.8 22.9c-.2-.1-1.3.1-.9.2s1.4-.1.9-.2zm-3.5 0c-.2-.1-1.3.1-.9.2s1.4-.1.9-.2zm-2.6 0c-.2-.1-1.3.1-.9.2s1.3-.1.9-.2zm-2.6 0c-.7 0-1.7 0-1.8.2s1.7 0 1.8-.2zm-77.6-15.2v-9.6c-.5-2.2.1 7.2-.4 7.9s.1 1.7.4 1.7zm-.3-14c-.1-1.3-.3.1 0 0zm63.2-28.1c1.3-.1-.1-.3 0 0zm1.8 0c1.5-.1 5.1.3 5.3-.2h-2.6c-1.1.1-2.6 0-2.7.2zm6.1 0c.7 0 1.7 0 1.8-.2s-1.8 0-1.8.2zm99.8 7.3c-.5-1.2-.7-1.4-.7-1.2s.2.9.4 1.7a24.4 24.4 0 0 1 .3 2.6c.1.8.2 1.4.4 1.3-.2-2.3-.5-2.7-.4-4.4zm-122.8 49.8c-.2-.1-1.3.1-.9.2s1.3-.1.9-.2zm-10.5 0c-.2-.1-1.3.1-.9.2s1.3-.1.9-.2zm-1.8 0c-.2-.1-1.3.1-.9.2s1.3-.1.9-.2zm-35.5-10.6c0-1.3.1-3.2-.2-3.5 0 1.3-.1 3.2.2 3.5zm-.3-21.9c-.2 3.6.7.2 0 0zm51-24.3c.7 0 1.7 0 1.8-.2s-1.8-.1-1.8.2zm7 0c.7 0 1.7 0 1.8-.2s-1.8-.1-1.8.2zm5.2-.3c-1.3.1.1.3 0 0zm106.3 5.1c.2-.2-.2-1-1-1.8a12.5 12.5 0 0 0-2.4-1.9c-.1.2.7.7 1.4 1.4a7.7 7.7 0 0 1 2 2.3z" fill="#31843f"/><path d="M235.5 155c-.3.5 0 1.1 0 0zm-106.3 18.1c-.2-.1-1.3.1-.9.2s1.4-.1.9-.2zM81 171.5c-.2-.1-1.3.1-.9.2s1.4-.1.9-.2zm152-7.7c.1-.2-.1-1.3-.2-.9s.1 1.3.2.9zm-95 6.6c-.2-.1-1.3.1-.9.2s1.3-.1.9-.2z" fill="#31843f"/></g><g><path d="M180.7 148.1a2.2 2.2 0 0 1-1.6.7h-22.8a2.3 2.3 0 0 1-2.2-2.2v-16a2.3 2.3 0 0 1 2.2-2.2h3.8l3-4.5h9.1l3 4.5h3.8a2.2 2.2 0 0 1 1.6.7 2.1 2.1 0 0 1 .7 1.6v16a2.1 2.1 0 0 1-.6 1.4zm-17-14.7a5.5 5.5 0 0 0-1.7 4 5.4 5.4 0 0 0 1.7 4 5.6 5.6 0 0 0 4 1.6 5.6 5.6 0 0 0 5.6-5.6 5.6 5.6 0 0 0-1.6-4 5.6 5.6 0 0 0-8 0zm9.7 19.9a5.8 5.8 0 0 0-5.7 5.7 5.4 5.4 0 0 0 1.7 4 5.6 5.6 0 0 0 4 1.6 5.4 5.4 0 0 0 4-1.6 5.5 5.5 0 0 0 1.6-4v-7.9h-4.5v2.4zm10.2-11.4h6.8v11.5l-1.2-.2a5.8 5.8 0 0 0-5.7 5.7 5.4 5.4 0 0 0 1.7 4 5.6 5.6 0 0 0 4 1.6 5.4 5.4 0 0 0 4-1.6 5.5 5.5 0 0 0 1.6-4v-23.7h-11.2z" fill="#ecf7ed"/><path d="M180.7 148.1a2.2 2.2 0 0 1-1.6.7h-22.8a2.3 2.3 0 0 1-2.2-2.2v-16a2.3 2.3 0 0 1 2.2-2.2h3.8l3-4.5h9.1l3 4.5h3.8a2.2 2.2 0 0 1 1.6.7 2.1 2.1 0 0 1 .7 1.6v16a2.1 2.1 0 0 1-.6 1.4zm-17-14.7a5.5 5.5 0 0 0-1.7 4 5.4 5.4 0 0 0 1.7 4 5.6 5.6 0 0 0 4 1.6 5.6 5.6 0 0 0 5.6-5.6 5.6 5.6 0 0 0-1.6-4 5.6 5.6 0 0 0-8 0zm9.7 19.9a5.8 5.8 0 0 0-5.7 5.7 5.4 5.4 0 0 0 1.7 4 5.6 5.6 0 0 0 4 1.6 5.4 5.4 0 0 0 4-1.6 5.5 5.5 0 0 0 1.6-4v-7.9h-4.5v2.4zm10.2-11.4h6.8v11.5l-1.2-.2a5.8 5.8 0 0 0-5.7 5.7 5.4 5.4 0 0 0 1.7 4 5.6 5.6 0 0 0 4 1.6 5.4 5.4 0 0 0 4-1.6 5.5 5.5 0 0 0 1.6-4v-23.7h-11.2z" fill="none"/><path d="M190.8 148.9c.5-.3.1-1.3.2-1.9s-.1.4-.4.9 0 .7.2 1zm2.6 14.2c.1 0 .1-.3 0-.3s-.2.3 0 .3zm-5.7-21.7h.8c.1-.4-.8-.3-.8 0zm2.8 6.5h-.2a.1.1 0 1 0 .2 0z" fill="none"/><path d="M190.5 148.2c-.7.5.3 1.2 0 1.9s.6-.9.2-1.2-.1-.4-.2-.7zm-2.1-6.4h2.2v1.9a6 6 0 0 0 .3-1.9v-.4h-.4a6.4 6.4 0 0 0-2.1.4zm-.8-.2c0 .3.2 0 0 0zm3.8.7c-.1 0 .1.3.2.2s0-.3-.2-.2zm-.9 8.2c0 .2 0 .5.2.5s.1-.5-.2-.5zm.3-3.8v-.9c-.3 0-1.1.5-.4.7a.3.3 0 0 1 .2-.4c-.1.2 0 1.1.2.6zm.2-4.1c-.1 0 .1.3.2.2s-.1-.3-.2-.2zm1.1 1.8v-.2c-.2 0-.1.2 0 .2zm-1.6.3c.5 0 .1.7.2 1.1s.3-1.8-.2-1.1zm.9-2.1c-.1 0 .1.3.2.2s0-.3-.2-.2zm-1.3 1.8c0 .1 0 .3.2.4s0-.4-.2-.4zm0 1c-.1 0 .1.3.2.2s-.1-.3-.2-.2zm1.1-10.8c-.5.1-1.5-.3-1.8.2h.9c.3-.1 1 .3.9-.2zm.6.5c-.8.1-2.1-.3-2.6.2s2 .3 2.6-.2zm-3.9-.3c-.1 0-.3 0-.3.2s.3.1.3-.2zm5.1 0c0-.1-.3.1-.2.2s.3 0 .2-.2zm-3.9-.2c.1.3.2 0 0 0zm-1.7.2c0-.1-.3.1-.2.2s.3 0 .2-.2zm4.7.7v-.2c-.2 0-.1.2 0 .2zm0-.2h.2c-.1-.3-.2-.1-.2 0z" fill="none"/><path d="M187.1 135.3c.1 0-.1-.2-.2-.1s0 .2.2.1zm6.6 12.9c.1 0-.1-.3-.2-.2s.1.3.2.2zm-1.3.2c-.1 0 .1.3.2.2s-.1-.3-.2-.2zm-5.5-8.1l-.3.2s.3-.1.3-.2zm5.4 3c.1 0-.1-.3-.2-.2s.1.3.2.2z" fill="#31843f"/><path d="M188.2 154.2l1.1-.2h1.8v-.7a8 8 0 0 1 0-1.7c.1-.7.6-1.6.7-2.6s-.1-2 .4-2.8-.8-.9-.2-1.1 0 .5.2.5 0-.6 0-1.4-.3-.1 0-.2v.2h.2c0-.9-.1-1-.4-.4V142l-.2-.4-.6-1.6-.6.3c-.9.4-1.6.1-2.8.3s-.1.4 0 .4 1-.4.8 0h-.8v.2c.2 0 0 .3 0 0a1.3 1.3 0 0 0-.9.4c.8.3 1.4-.5 1.6-.2a6.4 6.4 0 0 1 2.1-.3h.4v.4a6 6 0 0 1-.3 1.9v-1.9h-2.2c.1.4.9.4 1 .4s.2-.3.4-.2 0 .2.2.2.2-.3.4-.2 0 .2.2.2l-.3-.3c.1.6.1.2-.2.9s-.4 4 .4 5.1h.2c.3-.5-.3-.7.4-.9s.3 1.6-.2 1.9.1 1-.2 1.2-.7-1.4 0-1.9-.1.6.2.7.3-1-.2-1.1a.1.1 0 1 1-.2 0c-.6.8.1 2.6-.2 3.2s.4.1.4.4-.4.2-.4.4.5.2.4.5l.2 1.2v.3h-.4l-1.5-.3c-.1.9-1 .5-.9 1zm3.3-11.9c.1-.1.3.1.2.2s-.3-.2-.3-.2zm-.4.4c.1-.1.3.1.2.2s-.4-.2-.3-.3zm.4 0c.1-.1.3.1.2.2s-.3-.2-.3-.3zm-1.3 1.8c.2 0 .2.2.2.4s-.2-.4-.3-.5zm0 1.1c.1-.1.3.1.2.2s-.4-.3-.3-.4zm.4.7a.3.3 0 0 0-.2.4c-.7-.2.1-.7.4-.7s.3-1-.2-1.1.7 1 .2 1.1v.9c-.2.3-.3-.6-.3-.8zm0 4.4c.3 0 .2.3.2.5s-.2-.5-.3-.7zm-1.8 12.5c0-.1-.2.1-.2.2s.3-.1.2-.2zm-1.9.1c.7.2.5 0 .3-.1s-.6-.3-.3.1zm-.6-8.7c0 .5-1.1.9-.9 1.4s.7-.7.8-.8l.9-.3c.4-.1.7-.2.4-.4s-1.2.9-1.2.1zm-2.1 3.7a5 5 0 0 0 .7 3.5 9.5 9.5 0 0 1-.4-1.8 5.2 5.2 0 0 0-.3-1.7zm-.2-16.8l.3-.2zm.7 0c.4 0 1.2-.1.4.3l1.1-.2c.6-.7-1.8-.2-1.5-.1zm2-.1c0 .1.3-.1.3-.2s-.4.1-.3.2z" fill="#31843f"/><path d="M187.4 141.2c0-.1-.3.1-.2.2s.3-.1.2-.2zm.5 13.1c.1 0 .2-.2.1-.3s-.2.2-.1.3zm-3.4 3.4a2 2 0 0 1 .4-.9c.2-.3.3-.5.2-.8l-.6.9c-.1.3-.2.6 0 .8zm0 .4c.1 0-.1-.2-.2-.2s0 .3.2.2z" fill="#31843f"/><path d="M194.4 150.5a81.3 81.3 0 0 1 .2 8.4 5.2 5.2 0 0 1-5.2 5.1 4.5 4.5 0 0 1-3.3-1.5c-.1-.1-.4.3-.5.1s.4-.6.1-.5-.2 0-.1-.1-.4-.1-.5-.4a4.3 4.3 0 0 1-1-3.2 5.7 5.7 0 0 1 1.6-3.6c.2-.2 1-.4.6-1a7 7 0 0 0-2.1 3 6.2 6.2 0 0 0 0 3.9 6.1 6.1 0 0 0 2.5 3 6.2 6.2 0 0 0 3.4.9c.6-.5 1 0 1.6-.6s1 .8.8.1-.4 0-.5-.2.9-1 1.4-.7-.4.3-.3.5.7-.3 1-.6-.7-.2-.3-.7a10.3 10.3 0 0 0 1.1-2.5 4 4 0 0 0-.2-2.6c.2-2.4.2-4.3.2-6.8 0-.1-.2-.2-.2-.3s-.3.1-.3.3zm-1 12.6c-.1 0-.1-.3 0-.3s.1.3 0 .3zm.8-13.5a1.3 1.3 0 0 1 .4.5c.4-.2.3-1.5 0-1.8h-.2c.2.8.3 1-.2 1.3zM183.9 136h3.3c.1 0 .3 0 .4-.2s-2.8-.4-3.7.2zm.5-.6v-.2l-.7.7v-.2h-.1l.6-.6c0 .2 0 .3.2.3zm-.3 1.3c.6-.9-.7-.3 0 0z" fill="#31843f"/><path d="M186.8 154.2c-.9.2.2.7 0 0zm7.8-11.2c0-.7.4-1.3-.2-1.9v3.2c0 1.1-.2 2.3.4 2.6a19.3 19.3 0 0 0-.2-3.9z" fill="#31843f"/><path d="M184.4 135.3h-.7c0 .2.2.2.2.1l-.3.3c3.7-.3 5.4.6 8.5 0-.1 0-.2-.2 0-.2s.1-.3.2 0a1.1 1.1 0 0 0 .9.2h1.8l-.3-.3a43.5 43.5 0 0 0 .4 6.9v2.6c-.2.6.4.6.2 0v-1.2c-.1-1.9.3-4.2-.2-5.8s.4-.5.4-.9-.3-.7-.2-1.1v-1h-.3l-1.8-.3-.9.2c-1.2 0-2.6-.6-3.5-.2a.3.3 0 0 1 .3.2c.2 0 .1.3 0 0h-1.9c-.3 0-.1.7-.4.7s-.2-.4-.4-.4-1.1.1-1.6.2-.2-.1-.4 0zm8.6-.4c.1.1-.1.3-.2.2s.1-.3.2-.3zm-1.8-.2c0 .5-.6.1-.9.2h-.9c.3-.6 1.3-.1 1.8-.3zm.5.4c-.5.5-1.8.1-2.6.2s1.8-.1 2.7-.2zm-3.9-.2c0 .2-.2.2-.3.2s.3-.2.4-.3zm-.5 0c.1.1-.1.3-.2.2s.2-.3.3-.3zm-1.1 6.7c-.3.6.8-.2 0 0zm2.2 12.1c.1 0 .2-.1.1-.2s-.2.1-.1.2zm-1.7.3v.2c.4-.1.6-.3.6-.4s-.2-.1-.6.2zm7.9-5.6c.7-.2-.2-.9 0 0zm0-1.4c-.3 1.1.7.4 0 0z" fill="#31843f"/><path d="M192.1 135.5c.1 0 .2-.1.2-.2h-.2zm-4 17.6a3.6 3.6 0 0 0-1.1.3c-.4.2-.6.5-.2.7s.4-.5.9-.7 1-.4.4-.3zm-4.4-13.9a9.3 9.3 0 0 0-.2-2.7c0-.3.2-1 0-1.3h.1a.5.5 0 0 0 .3-.5h-.9v.6c0 1 .3 1.3 0 2.3s.4-.1.4.1-.4.3-.4.5.3 1.3.3 2.3a2.8 2.8 0 0 0 .4-1.3zm6.4 13.9c-.1 0 .1.3.2.2s-.1-.3-.2-.2z" fill="#31843f"/><path d="M190.1 153c0-.1-.3.1-.2.2s.3 0 .2-.2zm-.5 0c-.1-.1-.3.1-.2.2s.3-.1.2-.2zm-.6 0c-.1.1-.4 0-.3.2s.3 0 .3-.2zm.6 12.2a6.1 6.1 0 0 0 2.1-.4c.1-.3-.2-.2-.7 0s-1 .2-1.1 0-.3.1-.3.4zm2.8-1c.2-.3-.2-.2 0 0zm2.9-16.8c-.1-.3-.3 0 0 0zm0-.4c-.1-.3.3-1-.2-1.1v.5c0 .3-.1.6.2.6zm0-1.2c0-.1 0-.3-.2-.4s0 .4.2.4zm-10.4-10.7c1-.5-.9-.8-.9 0s.6-.5.9 0zm-1.1 21c-.1 0 0 .3.1.3s0-.3-.1-.3zm-.7 2.2c-.1 0 .1.3.2.2s-.1-.3-.2-.2zm0 .4c-.1.1.1.3.2.2s-.1-.3-.2-.2zm5.5 6.5c.3 0 .7.1.8-.2s-.7-.1-.8.2zm4.4-1.5c-.8.3.4.6 0 0zm2.5-13.9c0-.1 0-.3-.2-.4s0 .4.2.4zm0-1.4c0-.1 0-.3-.2-.4s0 .4.2.4zm-.2-1c.1.3.3 0 0 0zm-9.8-12.8c0 .5.7.1 1.1.2s-.8-.1-1.1-.2zm-2.2 5.7c-.3.3 0 .2 0 0zm2.8 13c-.1 0-.2.2-.1.3s.3-.2.1-.3zm-3.3 10.4c0 .1.3.2.3.1s-.3-.2-.3-.1zm-1.2-19.8c0-.1-.1-.2-.2-.1s.2.3.2.1zm5.9 6.1c-.1 0-.4.2-.2.3s.4-.2.2-.3z" fill="#31843f"/><path d="M168.4 157c.5.1.3-.5.6-.7s-.2.1-.6.1 0 .4 0 .6zm7.4 7.3s.1-.2 0-.2-.1.1 0 .2zm-4.1-10.2h-.4c.2.5.6.3.4 0zm-3.3 2.3h-.2s.2.1.2 0z" fill="none"/><path d="M168.4 156.6c-.7-.1 0 .6-.3.9s.7-.2.4-.5-.1-.3-.1-.4zm2.8-2.8a5.6 5.6 0 0 0-1.6 1.1 2.4 2.4 0 0 0 1.6-1.1zm.5.1c-.2-.3-.1.1 0 0zm-1 1.2c-.1 0 0 .1.1.2s0-.1-.1-.2zm-2.7 2.5c0 .1-.1.2.2.3s0-.2-.2-.3zm.9-1.6l.2-.3c-.3-.2-1-.5-.6 0s.1-.1.3 0-.2.5.1.3zm1.4-1.1c-.1 0 0 .2.1.2s0-.2-.1-.2zm.3 1.3c-.2-.2-.1-.1 0 0zm-1.3-1c.4.3-.2.3-.2.5s.8-.4.2-.5zm1.3 0c-.1 0 0 .2.1.2s0-.1-.1-.2zm-1.5-.4c0 .1-.1.1 0 .3s.2-.2 0-.3zm-.3.4c-.1 0 0 .2.1.2s0-.2-.1-.2zm9.2-4.7c-.3.1-.7-.3-.8.2h.4c0-.1.4.3.4-.2zm.2.5c-.4.1-1-.3-1.3.2s1 .3 1.3-.2zm-1.9-.3c-.1 0-.2 0-.2.2s.2 0 .2-.2zm2.5 0c0-.1-.1.1-.1.2s.1-.1.1-.2zm-1.9-.2c.1.3.1 0 0 0zm-.8.2c0-.1-.1.1-.1.2s.1-.1.1-.2zm2.3.7v-.2c-.1 0-.1.2 0 .2zm0-.2h.1c-.1-.3-.1-.2-.1 0z" fill="none"/><path d="M178 151.5zm-6.8 6.4zm5.3.3zm-3.9-3c0 .1.1-.1 0-.2s0 .1 0 .2zm-1.6.9c.1 0 0-.1-.1-.2s0 .1.1.2z" fill="#31843f"/><path d="M168.6 160c-.1-.6-.5-1.2-.3-1.8s.7-.5.9-.9.3-.7.9-.7-.4-.7.1-.4-.1.1.1.3.2-.1.3-.4-.1-.2 0 0l.2.2c.2-.2.2-.3-.2-.4l.5-.4c0-.8.5-.6 1-1s-.1-.4-.2-.4-.2.5-.4.1h.4v-.2c-.1.1-.2-.3 0 0s.2-.2.2-.5-.4.7-.6.5a2.4 2.4 0 0 1-1.6 1.1 5.6 5.6 0 0 1 1.6-1.1.6.6 0 0 0-.7-.2c-.1 0 .1.3 0 .3s-.1-.2-.2-.1.1.3 0 .3-.1-.2-.2-.1 0 .2-.5.1l-1.1 1a1 1 0 0 0-.3 1.3h.2c.4 0-.1-.4.6-.1s-.1.7-.6.7 0 .4-.4.5-.4-.9.3-.9-.2.2.1.4.4-.3 0-.5-.2 0-.2-.1-.5.4-.5.7 0 .6-.2.7.4.1.4.3h-.5c.3.1.4.2.4.3s.2.7 0 1.3 0 .2.5.1zm2.1-4.9c.1.1.1.3.1.2s-.1-.2-.1-.2zm-.4-.3c.1.1.1.3.1.2s-.1-.2-.1-.1zm.3.4c.1.1.1.3.1.2s-.1-.2-.1-.2zm-1.5-.5c.2.2 0 .2 0 .3v-.2zm-.4.4c.1 0 .2.2.1.2s-.1-.2 0-.1zm.1.5c-.2-.1-.3-.1-.3 0s.3-.2.6 0 .5-.2.2-.5.2.8-.2.5l-.2.3c-.3.3-.1-.1 0-.2zm-.9 1.9c.2.1.1.2.2.3s-.1-.1-.1-.2zm5.5 5.7c0-.1-.1.1-.1.2s.1-.1.1-.2zm-1 .6c.7-.2-.3-.4 0 0zm-4-2.8c.4 0 .2.6.7.5s-.2-.4-.2-.4.3-1-.3-.7.6.5-.2.6zm1.4 1.6a5.4 5.4 0 0 0 1.4 1c-.3-.4-.8-1.1-1.4-1zm3.6-8.8c0-.1-.1.1-.1.2s.1 0 .1-.2zm-.3 0c-.2 0-.5.2-.4-.4l-.4.3c.1.9 1 .3.8.1zm-.9.2c0-.1-.1.1 0 .2s0-.1 0-.2z" fill="#31843f"/><path d="M171.9 154.3c0 .1.1-.1 0-.2s0 .1 0 .2zm-3.3 5.8zm1.1 2.1c-.3-.1-.2-.7-.7-.6s.2.9.7.6zm.2.2z" fill="#31843f"/><path d="M178.5 159.2a3.9 3.9 0 0 1-1.2 3.4 5.2 5.2 0 0 1-3.6 1.5 3.8 3.8 0 0 1-1.8-.4s-.2.5-.3.4.2-.7 0-.5-.1.1-.1 0-.2.2-.4.1-2.2-1.2-2.8-2.2.1-.6-.6-.3a9 9 0 0 0 2.7 2.5 7.7 7.7 0 0 0 3.5 1c.3-.5.5.1.8-.4s.5 1 .5.3-.2-.1-.3-.4.5-.5.8 0-.2.1-.2.3.4.1.6 0-.5-.6-.1-.7a4.5 4.5 0 0 1 1.1-.7 1 1 0 0 0 .6-1.1 4.1 4.1 0 0 0 1.2-2.9l-.2-.2c-.6.1-.2.2-.2.3zm-2.7 5.1c-.1-.1-.1-.3 0-.2s.1.2 0 .2z" fill="#31843f"/><path d="M178.3 158.8l.4.3c.4-.1.3-.7 0-.8h-.2c.2.2.4.3-.2.5zm-3-7.6v-.2l-.8.8h1.5c.1 0 .2 0 .2-.2s-1.2-.2-1.6.1l.6-.6z" fill="#31843f"/><path d="M175.3 151.5c0-.1 0-.2-.2-.2s0 .2.2.2zm-.2.7c.6-.4-.7-.2 0 0zm-6.8 8.5c-.1.5.7-.1 0 0zm10.4-5.2c0-.3.4-.6-.2-.9v1.5c0 .5-.2 1.1.4 1.3a4.7 4.7 0 0 0-.2-1.9z" fill="#31843f"/><path d="M174.6 151.2v.2c-.1.2.2.2.2.1v-.3l-.3.3c1.6-.1 2.4.6 3.8 0s-.1-.2 0-.2.1-.3.1 0a.4.4 0 0 0 .4.2h.2l-.3-.3a13.2 13.2 0 0 0 .4 4.1v1.3c-.2.3.4.3.2 0v-.6c-.1-.9.3-2-.2-2.8s.4-.3.4-.4-.3-.3-.2-.5.3-.7.4-1v-.5l-.9-.3h-.2l-.4.2c-.6 0-1.3-.6-1.7-.2s.2 0 .2.2.1.3 0 0h-.7c-.1 0 0 .7-.2.7s-.1-.4-.2-.4-.5.1-.8.2-.1-.1-.2 0zm4.2-.4c0 .1-.1.3-.1.2s.1-.3.1-.3zm-.8-.2c0 .5-.3.1-.4.2h-.4c0-.6.5-.2.8-.3zm.3.4c-.3.5-.9.1-1.3.2s.8-.1 1.2-.2zm-1.9-.2c0 .2-.1.2-.2.2s.1-.2.1-.3zm-.3 0c0 .1-.1.3-.1.2s.1-.3.1-.3zm-3.8 2.9c-.2-.6-.3.3 0 0zm-4.2 6.2zm0 .9h.2c0-.6-.5-.4-.2 0zm10.6-2.6c.7-.1-.2-.5 0 0zm0-.7c-.3.5.7.2 0 0z" fill="#31843f"/><path d="M178.4 151.4c.1 0 .1-.1.1-.2h-.1zm-10.9 8.7c0 .1 0 1.1.6.6s-.3-.2-.4-.4-.2-.5-.2-.2zm7.2-6.8c.2-.5-.2-1-.2-1.4s.4-.7-.4-.8.3.7 0 1.2h.4c-.4 0-.4.1-.4.2s.2.5.2.8l.4-.3h-.3a.5.5 0 0 0 .2.4h.1zm-7.3 5.5zm0 .4zm0 .2zm0 .3c.1.1 0 .2.2.1s0-.1-.2-.1zm6.4 5.5h1c.1-.5-.7.2-.9-.3s-.1 0-.1.3zm1.4-.5c.1-.2-.1-.3 0 0zm4.2-7c-.1-.1-.3 0 0 0zm0-.2c-.1-.1.3-.5-.2-.5v.3s-.1.2.2.2zm0-.6c0-.1 0-.2-.2-.2s0 .2.2.2zm-4.5-5.9c.4-.4-.1-.7-.3-.3l-.4.4h.4c.1-.3.2-.5.3-.1zm-6.6 11.6zm.8.9zm.1.1zm4.2 1.6c.1 0 .3.1.4-.2s-.4-.1-.4.2zm2.2-.6c-.4-.1.2.6 0 0zm4-5.7c0-.1 0-.2-.2-.2s0 .2.2.2zm0-.7c0-.1 0-.2-.2-.2s0 .2.2.2zm-.2-.5c.1.1.3 0 0 0zm-4.3-7.2c0 .5.4.1.5.2s-.3-.1-.5-.2z" fill="#31843f"/><path d="M174.3 153.1c0-.3-.1 0 0 0zm-7 8.1zm2.9 5.1c0 .1.2 0 .2-.2s-.2.1-.2.2zm3.2-15.8c0 .1.2-.1.2-.2s-.3.1-.2.2zm-9 10.2c-.1 0 .1.2.2.1s-.1-.2-.2-.1z" fill="#31843f"/><path d="M162.5 138.5c.5-.2 0-.5.1-.7s-.1.1-.4.4.1.2.3.3zm8.6 3.6c.1 0 0-.2-.1-.2s0 .1.1.2zm-7.9-7.2l-.2.3c.4.2.6-.1.2-.3zm-1 3.2z" fill="none"/><path d="M162.2 138.2c-.6.3.4.4.2.7s.5-.5.1-.5-.3-.1-.3-.2zm.5-3.2a5.2 5.2 0 0 0-.5 1.5 1.6 1.6 0 0 0 .5-1.5zm.3-.2c-.3-.1 0 .1 0 0zm.2 1.3zm-.8 3c.1.1 0 .2.3.1s-.1-.1-.3-.1zm0-1.5v-.3c0-.1-1.1.2-.4.3s0-.1.2-.1 0 .3.2.1zm.3-1.5zm1 .8c-.2-.1-.1 0 0 0z" fill="none"/><path d="M162.2 136.9c.5.1.1.3.2.4s.3-.7-.2-.4zm1-.6zm-1.5.4c0 .1 0 .1.2.2s.1-.2-.2-.2zm0 .4zm7.5-5.8c-.2.1-.6-.4-.8.1h.4c.1 0 .3.4.4-.1zm.1.5c-.3 0-.8-.5-1.1 0s.8.4 1.1 0zm-1.6-.4c-.1 0-.1 0-.1.2s.1 0 .1-.2zm2.2.4c0-.1-.1.1-.1.2s.1-.1.1-.2zm-1.6-.6c0 .3.1 0 0 0zm-.8.2c0-.1-.1.1-.1.2s.1-.1.1-.2zm1.8.9v-.2.2zm.1-.2h.1c0-.3-.1-.2-.1 0z" fill="none"/><path d="M167 135.3v-.2.2zm-1.7 2.5zm5.5-.8zm-6.2-1.8zm-.6 1.4zm0 3.9c-.3-.4-.9-.6-1-1.1s.3-.7.4-1-.2-.6.4-.9-.8-.3-.2-.3 0 .2.2.2 0-.2 0-.4-.2-.1 0-.1h.2c.1-.2 0-.3-.4-.2v-.5c-.5-.6 0-.7 0-1.2l-.4-.2c.3.2.2.5-.2.3l.2-.3h-.2c0-.1 0-.3-.2-.5s.2.7-.1.7a1.6 1.6 0 0 1-.5 1.5 5.2 5.2 0 0 1 .5-1.5.5.5 0 0 0-.6.2c0 .1.2.2.2.2h-.3c0 .1.2.2.2.2h-.2c0 .3.1.1-.3.3s-.2.8-.2 1.2a.8.8 0 0 0 .5 1h.2c.3-.2-.3-.2.4-.4s.3.5-.1.7.2.3-.1.5-.8-.4-.2-.7 0 .3.3.2.2-.4-.3-.4h-.2c-.6.4.3 1 .1 1.3h.5l-.4.3c.3-.1.5-.1.5 0s.5.4.6.9.2.4.7 0zm-.7-4.4zm-.5 0zm.4.1zm-1.4.4c.2 0 .2.1.2.2s-.2-.1-.3-.1zm0 .4zm.4.3c-.2 0-.3.1-.2.1s.1-.3.4-.3.3-.4-.2-.4.7.4.2.4 0 .2 0 .3-.3.1-.3 0zm.3 1.7c.3-.1.2.1.3.1s-.4.1-.4 0zm6.4 2.5c0-.1-.1.1 0 .2s0-.1 0-.2zm-.7.8c.5-.4-.4-.3 0 0zm-4-.9c.4-.2.4.4.8 0s-.3-.3-.3-.3-.1-1-.5-.4.6.3 0 .7zm1.6.7l1.4.3c-.4-.2-1-.6-1.4-.3zm-1.7-8.3c-.1 0 0 .1.1.2s0-.1-.1-.2zm-.2.2c-.1.1-.2.4-.5-.1s-.1.1-.1.5.9-.4.6-.4zm-.5.6l.2.2zm.1.3l-.2-.2zm.5 5.7z" fill="#31843f"/><path d="M165.6 141.8c-.3 0-.4-.5-.8-.2s.5.7.8.2zm.2.1v.2c-.1.1 0-.1 0-.2z" fill="#31843f"/><path d="M172.8 137.5a3.5 3.5 0 0 1-.8 3 5.6 5.6 0 0 1-2.7 1.8 3.4 3.4 0 0 1-1.5 0s-.1.5-.1.4 0-.7-.1-.4-.1.1-.1 0-.1.3-.3.2a2.5 2.5 0 0 1-1.4 0l-1.5-.6c-.1 0-.1-.5-.6.1a10.5 10.5 0 0 0 3 1 10 10 0 0 0 3.1 0c.1-.5.4 0 .6-.5s.7.9.5.3-.2-.1-.3-.3.3-.5.7-.2-.2.1-.1.3.4 0 .5-.1-.5-.5-.3-.6a2.5 2.5 0 0 1 .8-.8.8.8 0 0 0 .4-1 3.8 3.8 0 0 0 .9-2.5h-.2c-.8-.2-.5-.1-.5-.1zm-1.7 4.6c-.1-.1-.1-.3-.1-.2s.2.3.1.2zm1.5-4.9l.4.2c.4-.1.3-.6 0-.7h-.2c.2.3.4.4-.2.5zm-6.3-4.5l1-.2h.2c0-.1.1 0 .1-.2s-1.1-.2-1.3.4zm-.1 0c0-.1.1 0 0-.3s-.1.1 0 .3zm-.6 0c.5.4-.2-.7 0 0zm-1.6 8.5c.1.4.5-.4 0 0zm8.4-6.4c-.1-.2.1-.7-.6-.5l.6 1c.2.4.1.8.7.8s-.5-1-.7-1.3z" fill="#31843f"/><path d="M166.4 132h-.3c-.1 0-.1.2 0 .2a2.3 2.3 0 0 1 1.7-.1 3.3 3.3 0 0 0 1.5.1s0-.2.1-.2.1-.2.1 0 .1.3.2.3a14.3 14.3 0 0 1 2.9 1.9l.3.5.2.5c-.1.3.5.1.2-.1l-.2-.5c-.4-.6-.8-1.7-1.7-1.7s.1-.5 0-.6-.4 0-.5-.1-.4-.7-.8-.9h-.5c-.5-.2-1.1-.8-1.5-.5s.1.1.1.2 0 .3 0 0h-.8c-.1.1 0 .7-.1.7s-.1-.4-.2-.4-.4.1-.6.3-.1.3-.1.4zm3.5-.2c0 .1-.1.2-.1.2s.1-.3.1-.2zm-.7-.4c-.1.5-.3 0-.4.1h-.4c.2-.6.5-.1.8-.2zm.1.5c-.3.4-.7-.1-1.1 0s.8 0 1.1-.1zm-1.6-.4c0 .2-.1.2-.1.2l.1-.3zm-.2 0c0 .1 0 .3-.1.2s.1-.4.1-.3zm-4.2 2.9c-.6-.4 0 .3 0 0zm.2 6.3zm.3.7l.2-.2c-.2-.4-.6 0-.2.2zm9.2-4.7c.7-.2-.3-.3 0 0zm-.1-.5c-.2.5.7 0 0 0z" fill="#31843f"/><path d="M169.3 132.3c0 .1.1-.1.1-.2h-.1zm-6.2 8.9c0 .1.4.9.8.2s-1.1-.6-.8-.2zm1.5-8.4c.4-.1.6-.6.9-.8s.7.1.5-.6-.5.5-1 .4.2.4.1.4-.2-.3-.3-.3-.3.6-.7.7.3.2.5.2zm-2.2 7.5zm.2.3zm.1.1zm.1.2c.1 0 .1.1.3 0s-.1-.1-.3 0zm6.9 2.4l.8-.3c0-.5-.6.3-.8-.1s-.1.2 0 .4zm1-.7c0-.2-.1-.2 0 0zm2.9-6.4c-.2-.1-.3.1 0 0zm0-.1c-.1-.1.1-.5-.3-.4v.2c.1.1 0 .2.3.2zm-.2-.5c-.1 0-.1-.1-.3-.1s.1.1.3.1z" fill="#31843f"/><path d="M166.5 131.7c.3-.6-.6-.6-.4.1s.2-.5.4-.1zm-1.9 11.1c0 .1.2 0 .2-.2zm.8.4c0 .1.1-.1.2-.2s-.2.1-.2.2zm.2.1c0 .1.1-.1.1-.2s-.1 0-.1.2zm3.7.1c.1-.1.3 0 .2-.3s-.2 0-.2.3zm1.7-.9c-.4 0 .3.6 0 0zm2.9-5.2c-.1-.1 0-.2-.2-.1s0 .1.2.1zm0-.7c-.1-.1 0-.2-.2-.1s0 .2.2.1zm-.3-.4c.2.1.3-.1 0 0z" fill="#31843f"/><path d="M166.6 131.2c.1.5.3 0 .5.2s-.3-.1-.5-.2zm-2.6 1.5c-.2-.2-.1.1 0 0zm-.7 9.4zm3.8 3.3c0 .1.2-.1.1-.2s-.1.1-.1.2zm-5.3-14c.1 0 0-.2-.1-.2s-.1.2.1.2zm-1.1 11.8c0 .1.2.1.2-.1s-.2 0-.2.1z" fill="#31843f"/><g><path d="M165.8 149.1c.3.5 1.5.1 2.1.2s-.4-.1-1-.4-.8.1-1.1.2zm-11-20c.1 0 .1-.3 0-.3s-.1.3 0 .3zm21.9 20.2h-1c-.1.4 1.1.4 1 0z" fill="none"/><path d="M166.9 148.9v-.2c-.2 0-.1.2 0 .2zm-.4 0c-.5-.7-1.3.3-2.1 0s1 .6 1.3.2.6-.2.8-.2zm9.2 0h-4.4a8.8 8.8 0 0 0 4.4 0zm1 .2c-.1-.3-.2 0 0 0zm-3.7.7c-.1-.1-.3.1-.2.2s.3-.1.2-.2zm-8.9-.9c-.2 0-.5 0-.6.2s.5 0 .6-.2zm4.2.2h1c0-.3-.5-1.1-.8-.4s.3 0 .4.2-1.2 0-.6.2zm4.4.2c-.1-.1-.3.1-.2.2s.3-.1.2-.2zm-2 1.1h.2c0-.2-.2-.1-.2 0zm-.3-1.5c0 .5-.8.1-1.1.2s1.9.3 1.1-.2zm2.3.9c-.1-.1-.3.1-.2.2s.3-.1.2-.2zm-2-1.4c-.1 0-.4 0-.4.2s.4 0 .4-.2zm-1.1 0c-.1-.1-.3.1-.2.2s.3-.1.2-.2zm11.2-15.8c.1.6-.3 1.6.2 1.9v-1c-.1-.2.3-.9-.2-.9zm.5-.6c.1.9-.3 2.3.2 2.9s.3-2.3-.2-2.9zm-.3 4.2c0 .1 0 .4.2.4s.1-.4-.2-.4zm0-5.5c-.1.1.1.3.2.2s0-.3-.2-.2zm-.2 4.2c.3-.1 0-.2 0 0zm.2 1.9c-.1.1.1.3.2.2s0-.3-.2-.2zm.7-5.2h-.2c0 .2.2.1.2 0zm-.2 0v-.2c-.3.1-.1.2 0 .2z" fill="none"/><path d="M184.8 141.2c.1-.1-.1-.3-.2-.2s.1.3.2.2zM166.5 152c.1.1.3-.1.2-.2s-.3.1-.2.2zm2.1-30.8c-.1-.1-.3.1-.2.2s.3 0 .2-.2zm9.8 29.4c.1.1.3-.1.2-.2s-.3.1-.2.2zm-6.5 0c.1.1.3-.1.2-.2s-.3.1-.2.2z" fill="#31843f"/><path d="M158.1 149.5c1.6 0 3.1-.4 4.6-.2s1.7.6 2.9.7 2.2-.1 3.1.4 1-.8 1.1-.2-.5 0-.6.2.7 0 1.5 0 .2-.3.2 0h-.2v.2c1 0 1.1-.1.4-.4h1.9c1.4-.7 2.3-.2 3.8-.4 0-.3 0-.4-.2-.4s-1 .4-1 0h1v-.2c-.2 0-.1-.3 0 0a.8.8 0 0 0 .8-.4c-.9-.3-1.4.6-1.7.2a8.8 8.8 0 0 1-4.4 0h4.4c-.2-.4-1-.5-1.1-.4s-.2.3-.4.2 0-.2-.2-.2-.2.3-.4.2 0-.2-.2-.2-.3.1-1-.2-4.3-.4-5.5.4v.2c.6.3.7-.3 1 .4s-1.8.3-2.1-.2-1.1.1-1.3-.2 1.6-.7 2.1 0-.7-.1-.8.2 1.1.3 1.1-.2-.2-.2 0-.2-2.8.1-3.4-.2-.1.4-.4.4-.2-.4-.4-.4a.5.5 0 0 1-.6.4 7.3 7.3 0 0 1-3.1 0c.2.6-.8 0-.9.5zm14.9.2c.1.1-.1.3-.2.2s.2-.2.2-.1zm-.4-.4c.1.1-.1.3-.2.2s.2-.3.3-.2zm0 .4c.1.1-.1.3-.2.2s.2-.2.3-.1zm-1.9-1.3c0 .2-.2.2-.4.2s.3-.1.4-.2zm-1.1 0c.1.1-.1.3-.2.2s.1-.2.2-.2zm-.8.4c0-.2-.2-.3-.4-.2s.8.1.8.4 1.1.3 1.1-.2-1.1.7-1.1.2h-1c-.5-.1.4-.2.6-.1zm-4.8 0c0 .3-.3.2-.6.2s.4-.1.7-.1zm-11.3-14.4c-.1.1.1.3.2.2s-.1-.3-.2-.2zm.6 2.5c-.4-1.8-.4 1.1 0 0zm2.5 12.1c-.3.2-.8-.1-1.1-.4s-.6-.6-.9-.7a1.5 1.5 0 0 0 .6.9l.6.4.6.3.5.2h.5c.5.1.9.1.7-.2H156c-.5 0-.7-.2-.2-.5zm-2.2-4.6V140c-.3 1.2-.5 3.6 0 4.4zm27.5 4.1c-.1 0-.2.3 0 .3s.2-.3 0-.3zm-.8.5c-.6.3-1.5.4-1-.2l-1.2.2c0 .2.1.4.3.4h.8c.9.1 1.5-.4 1.1-.4zm-2.5.3c-.1-.1-.3.1-.2.2s.3-.1.2-.2zm-.7.2c.1.1.3-.1.2-.2s-.3.1-.2.2zm-19.3 0c.1.1.3-.1.2-.2s-.3.1-.2.2zm-4.5-4.4a5.6 5.6 0 0 1 0 1.3 1.9 1.9 0 0 0 .1.8.7.7 0 0 0 .4.5 2.3 2.3 0 0 1-.2-1.5c0-.5 0-.9-.3-1.1zm0-.6c-.1.1.1.3.2.2s0-.3-.2-.2z" fill="#31843f"/><path d="M166.3 123.2l-3.1.2h-.2v.2l-3 4.5.3-.2h-4.1a2.6 2.6 0 0 0-1.5.6 2.8 2.8 0 0 0-.9 1.3 2.7 2.7 0 0 0-.1.8v3.1c0 1.7-.2 3.1-.2 4.6s.5.2.4.4-.7.1-.4.4.1.2 0 .2.3.4.2.8a38.6 38.6 0 0 1 .3 4.1v2.3a2.3 2.3 0 0 0 1 2 2.1 2.1 0 0 0 .6.4c.3.1.5 0 .5-.4a1.9 1.9 0 0 1-1.5-.7 1.9 1.9 0 0 1-.4-.8c-.1-.3-.1-.7-.1-1s-.1-2.9-.1-4.4.1-6 .2-8.3c-.4-.7.1-1-.2-1.9s1.1-.6.5-.7-.2.3-.5.4a8.8 8.8 0 0 1 .1-1c.1-.4.3-.6.6-.5s-.3.4-.1.6.5-.4.8-.6a.4.4 0 0 0-.2-.4c-.1-.1-.2-.1.2-.3a2 2 0 0 1 1.3-.3h1.2a11.3 11.3 0 0 0 2.3.1 4 4 0 0 0 .4-1l2.6-3.5h3.2c.2 0 .2-.2.4-.2s-.3-.8-.5-.8zm-11.4 5.9c-.2 0-.1-.3 0-.3s0 .3-.1.3zm12.3-6.1l-.6.4c.3.4 1.6.3 1.9 0v-.2c-.7.2-.9.4-1.3-.2zm15 17.6V137c0-.1 0-.4-.2-.4s-.4 3 .2 4zm0 .6c0-.1 0-.4-.2-.4s-.1.4.2.4zm-.3 1.5c.6-.9-.7-.5 0 0zm-25.3 6.4c-.5-.1-.6 0-.5.2a.3.3 0 0 0 .5-.2zm17.2-23.6c.4.6.5 1.4 1.4 1.6l-1.9-2.9-.5-.8-.2-.2h-.3c-.9 0-1.7 0-2 .5h2.1z" fill="#31843f"/><path d="M181.5 140v.8c-.1.3.2.4.2.2-.3-4 .6-6 0-9.4 0 .1-.2.2-.2 0s-.3-.2 0-.2a1.3 1.3 0 0 0 .2-1 2.5 2.5 0 0 0-.8-1.7 2.6 2.6 0 0 0-1.9-.7h-3.6l-1.5-1.7-.8-1.3-.7-1.1-.2-.3h.1c-.3 0-.3.2 0 .3l-.3-.2.2.3.7 1.1c.7 1 1.4 2.1 2.1 3.2v.2h.2a9.9 9.9 0 0 0 2.5-.3c.3-.1.6.4 1 .4s.7-.3 1-.1a1.5 1.5 0 0 1 .7.8 2 2 0 0 1 .1.9c0 .2.2.6.2.9s-.6 2.9-.2 3.8 0-.3.2-.4.3-.1 0 0v2.5c0 .3.7.1.7.4s-.4.2-.4.4.1 1.2.2 1.7.3.3.3.5zm-.4-9.4c.1-.1.3.1.2.2s-.3-.1-.3-.1zm-.2 1.9c.5 0 .1.7.2 1v1c-.6-.3-.1-1.3-.3-1.9zm.4-.6c.5.6.1 2 .2 2.9s-.1-1.9-.2-2.8zm-.2 4.2c.2 0 .2.2.2.4s-.2-.1-.3-.3zm0 .6c.1-.1.3.1.2.2s-.3-.1-.3-.1zm-2.9 12.4c0-.7-.8.2 0 0zm-19.7 0c.1.1.3-.1.2-.2s-.3.1-.2.2zm-1.9-.2v.2c1.1.1 1.1-.4 0-.2zm12-25.4c.2.7 1-.2 0 0zm1.5 0c-1.2-.3-.4.7 0 0z" fill="#31843f"/><path d="M181.7 131.6c0-.2-.1-.2-.2-.2v.2zm-23.4 16.8c-.3 0-2.3-.3-1.7.4s2.9-.3 1.7-.4zm23.2-3a11.8 11.8 0 0 0-.2-3.1c0-.5.4-1.7-.4-1.7s.3 1.6 0 2.7.4 0 .4.2-.4.2-.4.4.3 1.4.2 2.5.3-.7.4-1zm-20.3 3c-.1-.1-.3.1-.2.2s.3-.1.2-.2zm-.8 0c-.1-.1-.3.1-.2.2s.3-.1.2-.2zm-.5 0c-.1-.1-.3.1-.2.2s.3-.1.2-.2zm-.6 0c-.1 0-.4 0-.4.2s.4 0 .4-.2zm-4.6-14.9v-2.1c-.5-.5.1 1.6-.4 1.7s.1.4.4.4zm-.2-3.1c-.1-.3-.3 0 0 0zm15.2-6.3c.3-.1 0-.3 0 0zm.4 0c.3-.1 1.1.3 1.1-.2h-.6c-.2.1-.5 0-.5.2zm1.3 0c.1 0 .4 0 .4-.2s-.4 0-.4.2zm9.9 15.4c-.5-1.1-.8 1 0 1s-.4-.7 0-1zm-26.6 7c.1-.1-.1-.3-.2-.2s.1.3.2.2zm0-2.3c.1-.1-.1-.3-.2-.2s.1.3.2.2zm0-.4c.1-.1-.1-.3-.2-.2s.1.3.2.2zm0-9.4c0-.3.1-.7-.2-.8s-.1.8.2.8zm-.1-4.6c-.2.3 0 .3.1.3s.2-.1-.1-.3zm12.4-5.4c.1 0 .4 0 .4-.2s-.4-.1-.4.2zm1.6 0c.1 0 .4 0 .4-.2s-.4-.1-.4.2zm1.1-.3c-.3.1 0 .3 0 0zm11.1 14.8c.5 0 .1-.8.2-1.1s0 .8-.2 1.1zm.2 7.4c-.3.1 0 .2 0 0zm-24.6 1.7c-.1-.1-.2.1-.2.2s.3-.1.2-.2zm.1-8.4c.1-.1-.1-.3-.2-.2s.1.3.2.2zm22.2 6.5zm-20.4-.8c-.1-.1-.3.1-.2.2s.3-.1.2-.2z" fill="#31843f"/></g></g><g><path d="M136.8 131.1a17.7 17.7 0 0 1 4.9 8.3 18.8 18.8 0 0 1 0 9.6 18.7 18.7 0 0 1-13.2 13.2 18.8 18.8 0 0 1-9.6 0 18.7 18.7 0 0 1-13.2-13.2 18.8 18.8 0 0 1 0-9.6 18.7 18.7 0 0 1 13.2-13.2 18.8 18.8 0 0 1 9.6 0 17.7 17.7 0 0 1 8.3 4.9zm-9.8 25.7v-9.1h9.1V141H127v-9.1h-6.7v9.1h-9.1v6.7h9.1v9.1z" fill="#ecf7ed"/><path d="M136.8 131.1a17.7 17.7 0 0 1 4.9 8.3 18.8 18.8 0 0 1 0 9.6 18.7 18.7 0 0 1-13.2 13.2 18.8 18.8 0 0 1-9.6 0 18.7 18.7 0 0 1-13.2-13.2 18.8 18.8 0 0 1 0-9.6 18.7 18.7 0 0 1 13.2-13.2 18.8 18.8 0 0 1 9.6 0 17.7 17.7 0 0 1 8.3 4.9zm-9.8 25.7v-9.1h9.1V141H127v-9.1h-6.7v9.1h-9.1v6.7h9.1v9.1z" fill="none"/><path d="M133.6 147.3c-.3-.5-1.5-.1-2.2-.2s.4.1 1 .4.9-.1 1.2-.2zm-10.7-15.7c-.1-.1-.3.1-.2.2s.3-.1.2-.2zm3.6 20.5v-.9c-.3-.2-.3.9 0 .9z" fill="none"/><path d="M132.4 147.5v.2c.3 0 .1-.2 0-.2zm.4 0c.5.7 1.3-.3 2.2 0s-1-.6-1.4-.2-.5.1-.8.2zm-5.9 3.8v-3.7h.9l-.8-.2h-.2v.3a9.8 9.8 0 0 0 .1 3.6zm-.2.9c.3 0 0-.2 0 0zm-.6-3.7c.1 0-.1-.3-.2-.2s0 .3.2.2zm9.3-1c.2 0 .6 0 .6-.2s-.6-.1-.6.2zm-4.4-.2h-1c0 .3.6 1.1.8.4s-.4 0-.4-.2 1.3 0 .6-.2zm-4.5.9c.1-.1-.1-.3-.2-.2s.1.2.2.2zm2-2.3h-.2c0 .3.2.2.2 0z" fill="none"/><path d="M128.9 147.5c0-.5.8-.1 1.2-.2s-2.1-.3-1.2.2zm-2.8.6c.1 0-.1-.3-.2-.2s0 .3.2.2zm2.4-.2c.2 0 .4 0 .4-.2s-.4 0-.4.2zm1.1 0c.1.1.3-.1.2-.2s-.3.1-.2.2zm-9.7.3h.4l-.5-.5c0 .6-.2 1.3.2 1.6v-1a1.4 1.4 0 0 1 0-.6l.3.3c-.2-.1-.4-.1-.4.2z" fill="none"/><path d="M119.3 147.7h.9c0 .8-.1 1.6.2 2a15.5 15.5 0 0 1 0-2h-.1a1.6 1.6 0 0 0-1 0zm.7 3.3c0 .2 0 .4.2.4s0-.4-.2-.4zm-2.1-3.1c.1.1.3-.1.2-.2s-.3.1-.2.2zm1.8 1.7c.3-.1 0-.2 0 0zm.3 1.9c-.1.1.1.3.2.2s-.1-.3-.2-.2zm-1.1-4.2v.2c.2-.1.1-.2 0-.2zm0 .2h-.2c0 .2.2.1.2 0z" fill="none"/><path d="M123.8 156.1c.1-.1-.1-.3-.2-.2s0 .3.2.2zm9-11.7c-.1-.1-.3.1-.2.2s.3-.1.2-.2zm-17.8-1c.1.1.3-.1.2-.2s-.4.1-.2.2zm10.5 9.7s.1.3.2.3-.2-.3-.2-.3zm1.8-7.4h-.2l-1.8 1.8h.1l1.7-1.7c0 .2.3 0 .2-.1z" fill="#31843f"/><path d="M135.4 142.2c0 1.6.4 3.2.2 4.8v.6l.7-.7a13.5 13.5 0 0 0-2.4-.6c-1.1-.1-2.3.1-3.2-.4s-1 .8-1.2.2.6 0 .6-.2-.7 0-1.6 0-.2.3-.2 0h.2v-.2c-1 0-1.1.1-.4.4h-2.5v2.3c.7 1.3.3 2.1.5 3.7s.4.1.4 0-.4-1.1 0-.9v.9h.2c0-.2.3 0 0 0a1.5 1.5 0 0 0 .4 1c.3-.9-.5-1.6-.2-1.9a9.8 9.8 0 0 1-.2-3.7v-.3h.2l.8.2h-.9v3.7c.4-.1.4-.9.4-1.1s-.3-.3-.2-.4.2 0 .2-.2-.3-.3-.2-.4.2 0 .2-.2-.1-.3.2-1v-.4l-.5.5c1.8-.1 4.2.4 5.4-.4v-.2c-.6-.3-.7.3-1-.4s1.8-.3 2.2.2 1.1-.1 1.4.2-1.6.7-2.2 0 .7.1.8-.2-1.2-.3-1.2.2.2.2 0 .2 2.9-.1 3.6.2.1-.2.2-.3h.1c-.1 0-.2-.1-.2-.2s.4-.2.4-.4a.6.6 0 0 1-.4-.6 7.9 7.9 0 0 1 0-3.2c-.6.3-.1-.7-.6-.8zm-9.4 6.3c-.1.1-.3-.2-.2-.2s.3.2.3.2zm.4-.3c-.1.1-.3-.1-.2-.2s.4.1.3.2zm-.4 0c-.1.1-.3-.1-.2-.2s.3.1.3.1zm2.4-.2c0-.2.2-.2.4-.2s-.2.1-.3.1zm1.2 0c-.1-.1.1-.3.2-.2s-.1.2-.2.1zm.8-.4c0 .2.2.3.4.2s-.8-.1-.8-.4-1.2-.3-1.2.2 1.2-.7 1.2-.2h1c.7.1-.3.2-.6.1zm5 0c0-.3.4-.2.6-.2s-.4.1-.6.1zm-9.8-14.3c-.1.1.1.3.2.2s-.1-.3-.2-.2zm.7 2.6c-.4-1.9-.4 1.2 0 0zm8.9 5.3c-.4.4-1.6 0-2 .4a2.7 2.7 0 0 0 1.4 0l1.6.3-1.1-1.1c0 .4 0 .6.3.4a1.9 1.9 0 0 0 0-.4l.8.8c-.6 0-1.5.2-1-.4zm-5.4.2h-3.3v-2.3a13.6 13.6 0 0 0-.3 1.8v.7h.9a5.6 5.6 0 0 0 2.7-.2zm-3.1 14.9s-.1-.4-.2-.3.1.3.2.3zm-.1-.7c0-.5-.1-1.3.3-.5-.2-.8 0-.5-.2-1.3s-.2 2.1-.1 1.8zm0-2.3c.1 0-.1-.3-.2-.3s.1.3.2.3z" fill="#31843f"/><path d="M126.3 152.4c-.1 0 .1.3.2.3s0-.3-.2-.3zm9.1-10.6c-.1.1.1.3.2.2s-.1-.3-.2-.2zm-4.8-.2c.7-.1 2 .3 2.4-.2s-2-.3-2.4.2zm-.6 0c.1.1.3-.1.2-.2s-.3.1-.2.2zm-12.7-.2l3-.2h.4v-.4c-.1-2.8 0-6 0-9.1l-.4.4h6.7l-.6-.6v.8c0 1.8-.2 3.3-.2 4.8s.5.2.4.4-.7.1-.4.4.1.2 0 .2.3.4.2.8.1 1 .2 1.8v.4h.4l7.1-.3c.3 0 1.3.3 1.2-.4-2.4.3-5.3.4-8.3.4h-.1c0-3.2 0-6.4.2-8.9v-.2c-.6.2-.9-.2-1.8.1s-.6-1.1-.8-.4.4.2.4.4-1.6.3-1.8-.2.6 0 .6-.2-.7-.2-1.2-.2.4.7-.4.7h-1.8l.2-.2c-.1 1.6-.4 3 .2 4.4s-.2 3.2-.2 4.8h-3.1c-.2 0-.2.2-.4.2s.1.3.3.3zm5.6-9.8c.1.1-.1.3-.2.2s.1-.3.2-.2zm-6.6 10l.6-.4c-.3-.4-1.7-.3-2 0v.2c.8-.2 1.1-.3 1.4.2zm4.8 13.9v-3.8c0-.2 0-.4-.2-.4s-.3 3.2.2 4.2zm0 .6c0-.2 0-.4-.2-.4s0 .4.2.4z" fill="#31843f"/><path d="M121.2 156.2c-.9-.6-.4.7 0 0zm14.8-15c-1.1-.2-.2.7 0 0zm-24.5 2c0 .7-.4 1.5.2 2.2v-4.6l-.6.6c.9 0 1.7 0 2-.5h-1.9c.1.8.3 1.6.3 2.3z" fill="#31843f"/><path d="M120.4 154.9v.8c-.1.4.2.4.2.2-.2-3.6.3-5.6.2-8.3v-.5h-.5l-1.4.2c.1 0 .2.2 0 .2s-.2.3-.2 0a1.4 1.4 0 0 0-1-.2h-6.5l.2.2a29.1 29.1 0 0 0-.3-3.4v-3a.9.9 0 0 0 0-.4h.1c.2 0 .2-.2 0-.3h-.3v.4a.9.9 0 0 0 0 .4v1.4c.1 1.6-.1 3.4 0 5v.4h.3l1.6-.2c.3-.1.6.4 1 .4s.8-.3 1.2-.2 1.8.4 2.8.4l1-.2 1.6.2-.7-.7a5.7 5.7 0 0 0-.1 2.4c0-.2 0-.4.2-.4s.3-.1 0 0v2.2c0 .3.7.1.7.4s-.4.2-.4.4.1 1.2.2 1.8.1.2.1.4zm-2.5-7c-.1-.1.1-.3.2-.2s-.1.3-.2.2zm2 .2c0-.3.2-.3.4-.2l-.3-.3a1.4 1.4 0 0 0 0 .6v1c-.4-.2-.2-1-.2-1.6l.5.5zm-.6-.4a1.6 1.6 0 0 1 1-.3h.1a15.5 15.5 0 0 0 0 2c-.3-.4-.3-1.2-.2-2h-.9zm.7 3.2c.2 0 .2.2.2.4s-.2-.2-.2-.3zm0 .6c.1-.1.3.1.2.2s-.3-.1-.2-.2zm6.8 2.3c.6.3-.2-.9 0 0zm9.1-11.2c-.1.1.1.3.2.2s-.1-.3-.2-.2zm.1-1.6v.2h.2l-.4-.4c-.1.9.3.9.3 0h-.1zm-21 .2c-.2-.7-1.1.2 0 0zm-1.6 0c1.3.3.4-.7 0 0z" fill="#31843f"/><path d="M118.9 147.3c-.2 0-.2.1-.2.2h.2zm17.6-4.9a6.5 6.5 0 0 0 0-1.6v-.4h-.3c-.3.1-.4.2-.2.5h.2c.2.6.2 2.5.3 1.5zM124 156.6a12 12 0 0 0-3.1.2h-.6c.1-.6.1-1.2-.5-1.2a6.2 6.2 0 0 0 .1 1.2v.5h.4a3.6 3.6 0 0 1 1.7.1c-.1-.3 0-.4.1-.4s.2.4.5.4 1.5-.3 2.6-.3a3.2 3.2 0 0 0-1.2-.5zm12.5-11.2c.1-.1-.1-.3-.2-.2s.1.3.2.2zm0-.8c.1-.1-.1-.3-.2-.2s.1.3.2.2zm0-.6c.1-.1-.1-.3-.2-.2s.1.3.2.2zm0-.6c0-.2 0-.4-.2-.4s0 .4.2.4zm-8.9-11.1v-1.2h-2.1c-.4.4 1 .1 1.6.3h.3v.2l-.2.2c.2.2.1.5.4.5zm-3.1-.9c-.3.1 0 .3 0 0zm-10.7 9.1c-.3.1 0 .3 0 0zm-.4 0c-.3.1-1.2-.3-1.2.2h.6c.2 0 .5.1.6-.2zm-1.4 0c-.2 0-.4 0-.4.2s.4 0 .4-.2zm8.2 13.8c-.5-1.1-.8 1 0 1s-.4-.6 0-1zm11.8-14c-.1-.1-.3.1-.2.2s.3-.1.2-.2zm-2.4 0c-.1-.1-.3.1-.2.2s.3-.1.2-.2zm-.4 0c-.1-.1-.3.1-.2.2s.3-.1.2-.2zm-1.6-7c0-.3.1-.7-.2-.8s-.1.7.2.8zm-3.9-1.9c.8.2 0-.7 0 0zm-7.2 8.9c-.2 0-.4 0-.4.2s.4 0 .4-.2zm-1.5 0c-.2 0-.4 0-.4.2s.3 0 .4-.2zm-1.2.2c.3-.1 0-.3 0 0zm5.9 13.2c.5 0 .1-.8.2-1.2s0 .9-.2 1.2zm5.5 3.3c.3.3.2 0 0 0zm10.6-16.9c-.1-.1-.3.1-.2.2s.3-.1.2-.2zm-6.4-1.4c.1-.1-.1-.3-.2-.2s.1.3.2.2zm-.4 20c-.1 0-.3.1-.1.2s.3-.1.1-.2zm10.6-16.3c.1-.1-.1-.3-.2-.2s.1.3.2.2z" fill="#31843f"/><path d="M142.3 148c.6-.3.4-1.8.6-2.6s-.1.5-.6 1.1-.1 1.1 0 1.5zm-29.4 11.3c0-.1-.3-.1-.3 0s.3.1.3 0zm27.5-24.4l.6 1.1c.4-.1-.3-1.4-.6-1.1z" fill="none"/><path d="M142.3 146.6h-.2c0 .2.2.1.2 0zm-.1.4c-.8.5 0 1.6-.6 2.5s.9-1 .6-1.5 0-.6 0-1zm-1.6-10.9a18.6 18.6 0 0 1 1.6 5.1 7 7 0 0 0-.3-2.7 6.8 6.8 0 0 0-1.3-2.4zm-.3-1.1c-.2.3.2.2 0 0zm2.3 3.9c0 .1.2.3.3.2s-.2-.3-.3-.2zm-1.1 11.1c0 .3-.3.6 0 .7s.3-.6 0-.7zm1.1-5v-1.2c0-.4-1.1.6-.4.9s.1-.4.2-.5 0 1.5.2.8zm-.3-5.5c0 .1.2.3.3.2s-.2-.3-.3-.2zm1.5 2.2v-.3c-.2.2-.1.3 0 .3z" fill="none"/><path d="M142.3 142.4c.5 0 .2 1 .3 1.4s.1-2.5-.3-1.4zm.4-3c0 .1.2.3.3.2s-.2-.3-.3-.2zm-.9 2.6c.1.2.1.4.3.4s0-.4-.3-.4zm.2 1.3c-.1.1.1.3.2.2s-.1-.3-.2-.2zm-22.6-16.6c.6-.3 1.9-.1 2.2-.6l-1.1.2c-.3.1-1.2-.1-1.1.4zm-.8-.3c1-.5 2.7-.3 3.4-.8-1 .2-2.8.1-3.4.8zm5-.5c.2 0 .4 0 .5-.2s-.4 0-.5.2zm-6.4 1.2c.1 0 .3-.2.1-.3s-.3.2-.1.3zm4.9-.9c-.2-.3-.3 0 0 0zm2.2-.3c.1.1.4-.1.2-.2s-.3.1-.2.2zm-6.2.2v.2c.3-.1.1-.2 0-.2zm0 .2h-.2c.1.3.3.1.2 0z" fill="none"/><path d="M130.7 123.3c-.1-.1-.4 0-.3.1s.4 0 .3-.1zm14.6 24.2c.1-.1 0-.4-.2-.3s.1.4.2.3zm-42.7-5.9c-.1.1.1.4.2.3s0-.4-.2-.3zm37.7-9.3c0-.1-.3-.2-.3-.1s.3.2.3.1zm3.5 7.9c0-.1-.2-.4-.3-.2s.2.3.3.2z" fill="#31843f"/><path d="M138.5 156.7a24.3 24.3 0 0 0 2.8-5 14.9 14.9 0 0 0 1.7-3.3c.4-1.4.4-2.8.9-3.9s-.8-1.3-.3-1.5 0 .7.3.7a4.8 4.8 0 0 0-.1-2c-.1 0-.3-.2 0-.3v.3h.2c-.1-1.3-.3-1.4-.5-.4a21.1 21.1 0 0 0-.5-2.4c-1.1-1.5-1.1-2.7-2.3-4.4-.2.1-.3.2-.3.4s1 1 .6 1.1l-.6-1.1h-.2c.2.2-.2.3 0 0s-.5-.6-.9-.6 1.3 1.2 1.2 1.7a6.8 6.8 0 0 1 1.2 2.4 7 7 0 0 1 .3 2.7 18.6 18.6 0 0 0-1.6-5.1 2.5 2.5 0 0 0 .1 1.4c.1.2.4.1.4.4s-.2.1-.1.3.3.1.4.4-.2.1-.1.3.2.3.1 1.2a12.4 12.4 0 0 1 .4 3.5 8.8 8.8 0 0 0 .4 3.1h.2c.4-.7-.2-.9.6-1.1s0 2.3-.6 2.6-.2 1.3-.6 1.5-.2-2 .6-2.5-.2.8.1 1 .5-1.3 0-1.4-.2.2-.2 0a4.9 4.9 0 0 0-.6 2.1 4.4 4.4 0 0 1-.6 1.9c0 .3.4.3.3.6a.7.7 0 0 0-.6.3.6.6 0 0 1 .1.8 6.7 6.7 0 0 1-1.9 3.2c.6.1-.6.7-.3 1.1zm4.1-17.8c.1-.2.3.1.3.2s-.3-.1-.3-.2zm-.3.6c.1-.1.3.1.3.2s-.3-.1-.3-.2zm.4-.1c.1-.2.3.1.3.2s-.3-.1-.3-.2zm-.9 2.6c.2 0 .2.3.3.4s-.2-.3-.3-.4zm.1 1.4c.1-.1.3.2.2.2s-.2-.2-.1-.3zm.5.9c-.2.1-.3.2-.2.5s.1-.9.4-.9.2-1.4-.3-1.4.8 1.4.3 1.4 0 .8 0 1.2-.2-.6-.2-.8zm-.9 5.8c.2.1 0 .5 0 .7v-.8zm-23 13.5c.1.1.4 0 .3-.2s-.4.1-.3.2zm3.2 0c-2.3.1 1.4.5 0 0zm14.5-5.1c-.1.7-1.5 1.2-1.6 1.8a3.4 3.4 0 0 0 1.4-1l1.3-.9c.5-.4.9-.8.5-.8s-1.7 1.9-1.6.9zm-5.3 3.5a19.9 19.9 0 0 1-5.3 1.3 10.3 10.3 0 0 0 3-.2 4.8 4.8 0 0 0 2.3-1.1zm6.3-31.3c0 .1.3.2.3 0s-.3-.2-.3 0zm.7.7c.4.5 1.1 1.1.3 1 .7.5.4.4 1 1s.1-.8-.4-1.4-1.1-.9-.9-.6zm1.8 2.2c0 .1.3.2.3.1s-.3-.2-.3-.1zm.7.7c0-.1-.3-.3-.3-.1s.3.3.3.1zm-2.2 22.8c.1 0 .2-.3 0-.3s-.1.3 0 .3zm-6.3 4.8c.7-.5 2.3-.9 2.4-1.6s-2.2.9-2.4 1.6zm-.7.2c.1 0 .3-.2.1-.3s-.2.3-.1.3z" fill="#31843f"/><path d="M104.5 144.7a21.8 21.8 0 0 0 3.7 10.7 20.4 20.4 0 0 0 4.3 4.5 17.5 17.5 0 0 0 5.2 2.7 23 23 0 0 0 5.6 1.1c.1 0 .2-.5.5-.4s.1.7.5.4.2-.1.2 0 .5-.3.9-.3a29.7 29.7 0 0 0 4.9-1.4 16.6 16.6 0 0 0 4.7-2.9c.3-.2 1.4-.7.8-1.2a15 15 0 0 1-3.7 3 16.7 16.7 0 0 1-5 1.9 17.1 17.1 0 0 1-10-1c-1 .1-1.1-.5-2.2-.7s0-1.3-.6-.8.3.4.2.6-1.7-.7-1.7-1.3.5.4.7.2-.6-.7-1-1-.1.8-.8.2a9.9 9.9 0 0 1-2.7-2.7 16.7 16.7 0 0 0-2.2-2.7 21.3 21.3 0 0 1-1.6-4.3 20.7 20.7 0 0 1-.6-4.5c0-.2-.2-.2-.2-.5s.1.1.1.4zm8.4 14.6c0 .2-.3.1-.3 0s.2-.1.3 0zm-8.6-15.8a1.8 1.8 0 0 1 .4.7c.4-.3.3-2 .1-2.4h-.2c.1 1 .3 1.3-.3 1.7zm24.8-17.9a20.1 20.1 0 0 0-3.8-.7h-.7c-.2 0-.5 0-.5.2 1.7-.2 3.8.6 5 .5zm.7.2c-.2 0-.5-.1-.5.1s.5.1.5-.1zm1.8.9c-.8-1-.8.4 0 0zm5.3 31.1c-1.1.7.3.7 0 0zm-29.8-22.9c.4-.8 1.2-1.3 1.3-2.3a18.7 18.7 0 0 0-2.2 3.7c-.6 1.4-1.3 2.9-.7 3.5a37.8 37.8 0 0 1 1.6-4.9z" fill="#31843f"/><path d="M128.3 126l.9.2c.4.2.5-.1.3-.1a31.9 31.9 0 0 0-6-1 11.3 11.3 0 0 0-5.4.9c.1 0 .3.1.1.2s-.1.3-.2.1a1.7 1.7 0 0 0-1.2.2 17.6 17.6 0 0 0-5.1 3.1 14.1 14.1 0 0 0-3.5 4.5l-.9 1.6-.7 1.5c-.5.7.1.9.2.1l.7-1.5a14.1 14.1 0 0 1 2.2-3.2c.9-1 1.7-1.9 2.4-2.8s.8-.1 1.2-.3.6-.7 1-.9a21.7 21.7 0 0 1 3-1c.3-.1.6-.5 1-.6s3.4-.2 4.4-.6-.4 0-.5-.2-.2-.3 0 0h2.5c.3 0 .1-.7.5-.6s.2.4.4.5 1.4.1 2.1.1.3-.2.6-.2zm-11.1 1.1c-.2-.1.1-.3.1-.3l-.1.3zm2.2-.4c-.1-.5.8-.3 1.1-.4l1.1-.2c-.3.5-1.5.2-2.2.6zm-.8-.3c.5-.7 2.3-.6 3.4-.8-.6.5-2.4.3-3.4.8zm5-.5c0-.2.3-.2.5-.2s-.3.2-.5.2zm.7 0c-.1-.1.2-.3.2-.2s-.1.3-.2.2zm14.9 7.5c-.5.4.7.7 0 0zm-.7 22.7c.1 0 .1-.3 0-.3s-.2.3 0 .3zm-1.7 1.6l.2.2c1-.9.6-1.3-.2-.2zm-32-15.8c.7-.2-.1-1.3 0 0zm.4-1.9c-.5 1.4.6.6 0 0z" fill="#31843f"/><path d="M118.1 126.1c-.2 0-.2.2-.2.3h.2zm19.7 29.7c-.2.3-2.1 1.8-1.1 1.8s.4-.7.8-1.3.8-1 .3-.5zm-3.6-27.1a8.8 8.8 0 0 0-3.4-1.6c-.6-.2-1.8-1-2.1-.3 1.4.5 1.9.3 2.9 1.1s.2-.3.4-.3 0 .4.2.6a12.1 12.1 0 0 1 2.6 1.5c.1-.3-.3-.6-.6-1zm5.6 24.3c-.1 0-.1.4.1.3s0-.3-.1-.3zm-.5.8c-.1 0-.1.3.1.3s.1-.3-.1-.3zm-.4.6c-.1 0-.1.3.1.3s.1-.4-.1-.3zm-.4.5c-.1.2-.3.4-.1.5s.3-.3.1-.5zm-20.6 6.5l-2.3-.9c-.4.1.1.3.6.5s1.1.4 1.1.7.5 0 .6-.3zm-3.4-1.3c-.4-.1-.1.2 0 0zm-8.8-19.5c-.1-.4-.3 0 0 0zm.1-.4c0-.4.6-1.2.1-1.4l-.2.7c0 .2-.1.6.1.7zm.4-1.6c0-.2.1-.4-.1-.5s-.1.4.1.5zm21.3-12.5c-1.4.2 1 1 1.1.3s-.7.2-1.1-.3zm5.2 33.8c-.1 0-.2.3-.1.3s.3-.2.1-.3zm-2.4 1.2c-.1 0-.3.2-.1.3s.2-.3.1-.3zm-.4.1c-.1 0-.3.2-.1.3s.2-.2.1-.3zm-10.9.5c-.3 0-.8-.3-.9 0s.7.3.9 0zm-5.3-2.1c.7.7.4-.5 0 0zm-8.1-15.8c-.1-.2 0-.4-.2-.5s0 .5.2.5zm.1-1.8c0-.2.1-.4-.2-.5s0 .5.2.5zm0-1.4c.1.4.3 0 0 0z" fill="#31843f"/><path d="M126.8 126.4c.1-.5-.9-.2-1.3-.4s.9.2 1.3.4zm8.1 3.4c-.1.3.2.2 0 0zm1.1 27.4c-.1 0-.2.3 0 .3s.1-.3 0-.3zm-11.1 3.3c-.1-.1-.3.1-.2.2s.3-.1.2-.2zm9.9-27.5c0-.1-.3-.2-.3 0s.3.2.3 0zm.6 20.8c-.1 0-.1.3 0 .3s.2-.3 0-.3z" fill="#31843f"/></g></svg>