<svg data-name="Layer 1" xmlns="http://www.w3.org/2000/svg" width="300" height="300"><path fill="#ffe399" d="M0 0h300v300H0z"/><circle cx="151.2" cy="195.5" r="12.5" fill="#ee8e0d"/><path d="M158.3 206.2c.5.3 1.1-.6 1.5-.9s-.3.2-.9.2-.4.4-.6.7zm-19.3-8.8c.1-.1-.1-.2-.2-.1s.1.2.2.1zm24.8 1.6l-.2.8c.3.2.6-.8.2-.8zm-4.8 6.4v-.2c-.3.2-.1.3 0 .2z" fill="none"/><path d="M158.7 205.6c-.7-.3-.7.8-1.4.9s1 .1 1.1-.4.1-.3.3-.5zm4.4-6a12.1 12.1 0 0 1-1.7 3.2 4.2 4.2 0 0 0 1.7-3.2zm.5-.7c-.3 0 0 .2 0 0zm-.6 3.2c-.1 0 0 .3.1.3s0-.3-.1-.3zm-6 4.6c-.2.1-.4.2-.3.4s.4-.2.3-.4zm2.9-1.8l.6-.6c-.2-.2-1.1-.5-.8.1a.2.2 0 0 1 .4 0c-.1.1-.7.7-.2.5zm2.5-2.8c-.1 0 0 .3.1.3s.1-.3-.1-.3zm0 2.1h.1c-.2-.3-.2-.1-.1 0zm-1.4-.7c.4.3-.4.6-.5.9s.5-.1.7-.4.2-.7-.2-.5zm1.8-1.1c-.1 0 0 .3.1.3s.1-.4-.1-.3zm-2 .5c0 .1-.2.2 0 .4s.2-.2 0-.4zm-.6.7c-.1 0-.1.2.1.3s.1-.3-.1-.3zm-2.8-18.3c.5.1.9 1 1.4.7l-.6-.5c-.2-.1-.5-.7-.8-.2zm-.1-.7l1 .7a1.4 1.4 0 0 0 1 .4l-1-.8a1.3 1.3 0 0 0-1-.3zm2.5 2.2c.1.1.2.2.4.1s-.2-.2-.4-.1zm-3.6-2.4c0 .1.3 0 .2-.1s-.2-.1-.2.1zm2.7 1.9c.1-.3-.1-.1 0 0zm1.2.9c0 .1.2.1.3 0s-.2-.2-.3 0zm-2.9-3.1v.2a.1.1 0 0 0 0-.2zm-.1.2h-.1c-.1.2.1.1.1 0z" fill="none"/><path d="M165.5 188.3c0-.1-.2-.2-.3-.1s.2.3.3.1zm-4.9 19.8c.1 0 .2-.3 0-.3s-.2.3 0 .3zM142 183.6c-.1 0-.2.3 0 .3s.1-.3 0-.3zm23.4 14.2c.1 0-.1-.3-.2-.2s.1.3.2.2zm-2.2 5.6c.1 0 .1-.3-.1-.3s0 .3.1.3z" fill="#ee8e0d"/><path d="M152.4 208.7a21.2 21.2 0 0 0 3.8-1.1 9.7 9.7 0 0 0 2.5-.6c.9-.5 1.5-1.2 2.4-1.4s.1-1.2.6-.9-.4.3-.2.5.5-.4.9-1.1-.1-.3.1-.1h.1c.6-.7.5-.8-.1-.6a13.3 13.3 0 0 0 .9-1.5c0-1.4.7-1.9.9-3.3s-.4-.1-.5 0 .1 1-.2.8l.2-.8h-.2c0 .2-.3 0 0 0a.6.6 0 0 0-.3-.7c-.5.6.2 1.2-.2 1.4a4.2 4.2 0 0 1-1.7 3.2 12.1 12.1 0 0 0 1.7-3.2c-.4.1-.7.6-.7.7s.2.3.1.4-.2-.1-.3 0 .2.3.1.4-.2-.1-.3 0 0 .3-.6.5a3.5 3.5 0 0 1-.6 1l-.8.9-.7.8a2.5 2.5 0 0 0-.4.9v.2c.6 0 .3-.6.9-.2s-1 1.2-1.5.9-.7.6-1.1.4.7-1.2 1.4-.9-.5.3-.4.6.9-.3.6-.7-.3 0-.1-.2-1.8 1.3-2.5 1.2.1.4-.1.5-.3-.3-.5-.3 0 .5-.3.6l-1.1.5a2.7 2.7 0 0 1-1.3.1c.4 1-.5.6-.5 1.1zm10.6-6.6c.1 0 .2.2.1.3s-.2-.3-.1-.3zm-.6.1c.1 0 .2.2.1.3s-.1-.4-.1-.4zm.4.2c.1 0 .2.3.1.3s-.2-.3-.1-.3zm-2 .6c.2.1 0 .3 0 .4v-.5zm-.6.7c.1 0 .1.3.1.3l-.1-.4zm-.1.8a.2.2 0 0 0-.4 0c-.3-.6.5-.3.8-.1s.8-.5.5-.9.4.2.2.5-.5.6-.7.4l-.6.6c-.5.1.1-.5.2-.6zm-3.2 2.3c.1.2-.2.3-.3.4s.2-.4.4-.5zm-17.7-4.4c0 .1.2.2.3 0s-.3-.1-.3 0zm1.8 1.5c-1.2-1 .3 1 0 0zm9.4 4.3c-.4.4-1.3-.2-1.7.2a1.8 1.8 0 0 0 1.1.2l1 .3c.5.1.8.1.6-.2s-1.5.2-1-.5zm-4.2-.7a14.5 14.5 0 0 1-3.2-1.9 5.9 5.9 0 0 0 1.5 1.4 2.6 2.6 0 0 0 1.7.5zm18.1-12c-.1 0 .1.2.2.2s-.1-.3-.2-.2zm0 .6c0 .4 0 1.1-.5.6s0 .4.1 1 .6-.3.6-.8-.1-1-.2-.8zm-.3 2c-.1 0 0 .3.2.2s0-.3-.2-.2z" fill="#ee8e0d"/><path d="M164.1 198.7c.1 0 0-.3-.2-.2s.1.3.2.2zm-12 10c.1.1.2-.1.1-.2s-.2.1-.1.2zm-5.4-.8c.6.1 1.5.7 1.9.3s-1.4-.6-1.9-.3zm-.5-.2c0 .1.3 0 .2-.2s-.2.1-.2.2zm-4.4-21.2a15.8 15.8 0 0 0-3.3 6.9 12.6 12.6 0 0 0 1.1 8 17.1 17.1 0 0 0 2.1 3.3c.1.1.4-.3.5-.1s-.4.6-.1.5.2 0 .1.1.4 0 .6.3a26.5 26.5 0 0 0 3.1 1.6 11.3 11.3 0 0 0 3.6.8c.2 0 1 .4 1-.4a9.5 9.5 0 0 1-3.1-.2 11.6 11.6 0 0 1-3.3-1.4 12 12 0 0 1-2.6-2.4 10.6 10.6 0 0 1-1.6-2.8c-.7-.3-.2-.8-.8-1.4s1-.7.3-.7-.1.3-.4.4-.6-1.2-.1-1.4 0 .4.3.4.1-.6.1-.9-.7.4-.7-.2a4.8 4.8 0 0 1-.1-1.3c0-.4.1-.8.2-1.2a5.8 5.8 0 0 0 .2-2.3 15.1 15.1 0 0 1 3.2-5.2c.1-.1-.1-.3.1-.4s-.3-.2-.4 0zm-2.8 11c-.1.1-.3-.1-.2-.1h.2zm3.2-11.8a1.2 1.2 0 0 1-.1.6c.5.2 1.1-.7 1.2-1v-.2c-.5.6-.5.8-1.1.6zm20.7 3.4l-.7-1.1-.8-1.1-.3-.4c-.1-.1-.2-.2-.4-.1s1.3 2.2 2.2 2.7zm.2.4c-.1-.1-.1-.3-.3-.2s.1.3.3.2zm.3 1.3c.3-1-.8-.1 0 0zm-12.3 17.5c-.8-.3-.2.7 0 0zm-3.3-25.2h.9a1 1 0 0 0 .8-.5l-1.4.3-.7.2-.7.3c-1 .4-2 .7-2 1.5l1.7-.9z" fill="#ee8e0d"/><path d="M162.1 189l.3.5c.1.3.3.2.3 0a33 33 0 0 0-2.4-3.4 6.5 6.5 0 0 0-3.1-2.1.1.1 0 0 1-.1.2c-.1.1-.2.2-.1-.1s-.4-.4-.6-.5a12.7 12.7 0 0 0-4-.9 8.5 8.5 0 0 0-3.8.6l-1.2.3-1 .4c-.6.1-.3.6.1.2l1-.4 1.2-.3 1.3-.2h1.3l1.2-.2c.2-.1.4.5.7.6s.6-.2.9 0a18 18 0 0 1 1.8 1.1h.8c.9.5 1.6 1.6 2.3 1.8s-.2-.2-.1-.4.1-.3 0 0l1.2 1.1c.2.1.5-.4.7-.2s-.2.4-.1.5l1 1c.3.3.2.3.4.4zm-5.8-4.6c0-.1.2-.2.2-.1s-.3.1-.3.1zm1.2.9c.2-.4.5.2.8.2l.6.5c-.6.2-1-.6-1.5-.7zm-.2-.6a1.3 1.3 0 0 1 1 .3l1 .8a1.4 1.4 0 0 1-1-.4zm2.5 2.2c.2-.2.2 0 .4.1s-.3-.1-.4-.2zm.3.3c0-.1.3-.1.3 0s-.3 0-.3 0zm3.8 10.5c-.7-.1.1.7 0 0zm-11.2 10.5c.1.1.2-.1.1-.2s-.2.1-.1.2zm-1.6-.1v.2c.9.1.9-.4 0-.2zm-7.7-22.8c.6.4.5-.7 0 0zm1-.7c-1 .3.1.7 0 0z" fill="#ee8e0d"/><path d="M157.2 184.1c-.1-.1-.2 0-.2.1h.1zm-4.8 23.5c-.2 0-1.8-.2-1.4.5s2.4-.5 1.4-.5zm11.2-14.5a3 3 0 0 0-.3-1.3l-.6-1c-.2-.4-.2-1.4-1-1s.9 1 .8 1.9.4-.1.5 0-.3.2-.3.4.6 1 .6 1.9.2-.6.3-.9zm-8.9 14c-.1 0-.2.2-.1.3s.2-.2.1-.3zm-.6.2c-.1 0-.2.2-.1.3s.2-.2.1-.3zm-.5.1c-.1-.1-.2.1-.1.2s.2-.1.1-.2zm-.4 0c-.1.1-.3.1-.3.3s.3 0 .3-.3zm-12.7-6.6a10.6 10.6 0 0 1-.6-1.5c-.6-.2.5 1.1.1 1.4s.3.2.5.1zm-1-2.2c-.2-.2-.3.1 0 0zm5-13.3c.1-.2-.2-.2 0 0zm.3-.1c.2-.2.9-.2.7-.7l-.4.2c-.2.2-.5.2-.3.5zm.9-.6c.1-.1.3-.1.2-.3s-.3.1-.2.3zm15.9 4.1c-.9-.4-.2 1.1.4.7s-.6-.2-.4-.7zM148.1 207c0-.1-.2 0-.2.2s.3-.1.2-.2zm-1.6-.6c0-.1-.2 0-.2.1s.2 0 .2-.1zm-.3-.1c0-.1-.3 0-.2.1s.2 0 .2-.1zm-5.3-4.9c-.2-.2-.2-.5-.5-.4s.2.5.5.4zm-1.6-3.4c-.1.7.7-.1 0 0zm3.7-11.2c.1-.1.2-.2.1-.4s-.2.3-.1.4zm.9-.8c.1-.1.2-.2.1-.4s-.2.3-.1.4zm.6-.7c-.1.2.2.2 0 0zm16.5 3.3c.4-.3-.3-.6-.4-.9s.3.6.4.9z" fill="#ee8e0d"/><path d="M163.3 193.9c-.3.1.1.2 0 0zm-12.4 13.3c0-.1-.2.1-.2.2s.3-.1.2-.2zm-6.3-4.1c0-.1-.2 0-.2.1s.2.1.2-.1zm16.3-7.7c.1 0-.1-.2-.2-.1s.1.2.2.1zm-8.8 9.1c0-.1-.2.1-.1.2s.2-.1.1-.2z" fill="#ee8e0d"/><g fill="#fff8e5"><path d="M157.1 189.8zm-11.6 1zm7.4-2.9v.5c0 .3.1-.2 0-.5zm-9.2 4.5zm1-.4zm2.1.3c-.2 0-.5.4-.7.3s-.3-.4-.4-.4-.3.1-.5-.2-.2.5-.2.2.1 0 .1-.2-.1 0-.2.1 0 .1 0 0c-.2 0-.2.1-.1.3h-.3c-.2.4-.4.2-.6.3s0 .1 0 .2.2-.2.1 0h-.1s0 .1 0 0v.2c.1.1.2-.2.3-.1a.5.5 0 0 1 .7 0h-.7a.2.2 0 0 0 .2.2h.1v.1h.1v.1s0-.1.1.1.7.4.9-.2v-.2c-.1-.2-.1.2-.1-.3s.3-.2.3.1.2-.1.2.2-.3.5-.3 0 .1.1.1-.2-.2-.2-.2.2v.2c0 .1.4 0 .5.2s0-.3.1-.4a1.1 1.1 0 0 0 .1.4c0-.2 0-.4.1-.4s.3-.3.5 0-.1-.3-.1-.8zm-2.3.2v-.1.1zm.1.2v-.1s0 .1-.1.1zm0-.2v-.1s0 .1-.1.1zm.3.7c0-.1 0-.1.1-.1s-.1 0-.2.1zm.2 0v-.1c0 .1-.1.1-.1.1zm.1-.3c0 .1 0 .2.1.1s-.1-.1-.1-.3-.2-.1-.2.1.2-.4.2-.1h.1c0 .2-.1.3-.2.2zm.7 0c0-.2.1-.1.1-.2s-.1.2-.1.2zm3.6-1.9zm-.4 1c.3-.5-.2-.5 0 0zm-2 .7c.1-.4.2 0 .3-.5s-.2 0-.2 0-.4-.6-.3 0 .3-.3.2.5zm.8-.3h.7c-.2-.4-.5-.6-.7 0zm-4.6.4zm.1 0c.1 0 .2-.1.1.1h.2c0-.3-.4-.1-.3-.1zm.3 0zm.2-.1zm3-.4zm.9-.2c-.1.2-.3-.3-.4.3s.4.3.4-.3zm.1 0z"/><path d="M152.5 192c-.8.9-2 .1-2.9.2s-.5-.2-.7-.3 0 .7-.1.6 0-.9 0-.6 0 .2 0 0-.1.4-.1.3-.9.4-1.3.6-.2-.3-.2.5a2.3 2.3 0 0 1 2.6-.1c.1-.6.2.1.3-.3s0 1.7.1.7-.1-.3 0-.7.2-.4.3.3-.1-.1-.1.3.1.4.2.4 0-1.1.1-1 .6.9.9-.4a1.8 1.8 0 0 0 1.1.4 4.1 4.1 0 0 1 .1-.4c-.2-1.2-.2-.5-.3-.5zm-2.2 1.2v-.3.4z"/><path d="M152.7 191.6a7.9 7.9 0 0 1-.1.9c0 .9.2.5.3 0v-.5c-.2.4-.2.7-.2-.4zm4.3.8l-.5-.2h-.1c0 .1-.1 0-.1.3s.5.4.7-.1z"/><path d="M157 192.4s-.1 0-.1.2.1.1.1-.2zm.3.3c-.1-.6-.1.6 0 0zm-10.3 0c.2.2 0-.7 0 0zm6.8-.2c.1-.1.2.8.3-.4h-.5c-.2 0-.4-.5-.5.9s.5-.4.7-.5zm3.1.6h.1c.1.1.1-.2 0-.2a.7.7 0 0 1-.8-.3c-.2-.2-.4-.4-.7 0a.9.9 0 0 1 0 .4c0 .2 0 .4 0 0s-.1-.4-.1-.4-1.1-.2-1.5.8h-.4c-.1-.3-.1.8 0 .5h.2c.3-.2.7.5 1-.5s.1.8.1.8.1-.5.2-.4.3.7.4.8.1-.4.2-.4.4.8.6.2-.1-.1-.1-.3 0-.5 0 0h.3c0-.1 0-.9.1-.9a2.5 2.5 0 0 0 0 .6c0-.6.2-.1.3-.3s0-.4.1-.4zm-1.5.7v-.4.4zm.3.3c0-.8.1-.2.2-.4h.1c-.1.8-.2.2-.3.4zm-.1-.7c.1-.8.3-.1.4-.3s-.2.1-.4.3zm.6.3c0-.3 0-.2.1-.3s0 .2 0 .3zm.1 0v-.3.3zm-12.6-.8c0 .2.1-.1 0 0zm3-.2zm.3.2v-.2c-.1-.2-.2.4 0 .2zm5.9-.4c0 1.4.2-.5 0 0z"/><path d="M153.1 192.5c-.2-.5-.1 1.4 0 0zm2.5.1v.4zm-8.9.7s.3.3.3-.4-.4.3-.3.4zm11-.1c-.2-.1-.3.1-.5.2s-.2-.4-.3.5.3-.4.4-.1a.9.9 0 0 1 0-.4c0 .3 0 .3.1.3s.2-.3.4-.3-.1-.2-.1-.2zm-11.4.1v-.2.2zm.1 0v-.2.2zm.1 0v-.2.2z"/><path d="M146.6 193.3s.1 0 .1-.2-.1 0-.1.2zm3 .6h.3c.1-.7-.2.1-.3-.7s0 .3 0 .7zm.5-.3c0-.2 0-.4 0 0zm2.9.2c0-.3 0-.6 0 0zm.1 0c.1-.3.2.6.2-.5h-.1c-.1.1-.1 0-.1.5zm.2 0c0-.1.1 0 .1-.5s-.1.1-.1.5zm3.5-.5c-.2.6.1.8.1 0s-.1.5-.1 0zm-9.2.4v-.2.2zm.3 0v-.3.3zm.1 0v-.3.3zm1.4.2c0-.1.1.1.1-.3s0-.2-.1.3zm.8-.3c-.1-.3 0 1 0 0zm2.4.6c0-.1.1 0 .1-.4s-.1 0-.1.4zm.2.1c0-.1.1 0 .1-.4s-.1-.1-.1.4zm.2-.5c0 .3 0 .6 0 0zm3.7.1c0-.6-.1-.1-.2-.2s.1 0 .2.2zm1.1-.5c0 .1 0 0 0 0zm-10.8.4v-.2.2zm1.6 2.3v-.3.3zm9.5-2.3zm-11.4 2.5v-.2.2zm11.2 0zm-11.7 1.2zm7.5-2.9zm-9.4 4.6zm1.1-.4zm2.1.2c-.2 0-.5.4-.7.3s-.3-.4-.4-.4-.3.1-.5-.2-.2.5-.2.2.1 0 .1-.2-.1 0-.2.1 0 .1 0 0c-.2 0-.2.1-.1.3h-.3c-.2.4-.4.2-.6.4s0 .1 0 .2.2-.2.1 0h-.1s0 .1 0 0v.2c.1.1.2-.2.3-.1a.5.5 0 0 1 .7 0h-.7a.2.2 0 0 0 .2.2h.1v.1s0-.1.1.1.7.4.9-.2v-.2c-.1-.2-.1.2-.1-.3s.3-.2.3.1.2-.1.2.2-.2.5-.3 0 .1.1.1-.2-.2-.2-.2.2v.2c0 .1.4 0 .5.2s0-.4.1-.4a1.1 1.1 0 0 0 .1.4c0-.2 0-.4.1-.4s.3-.3.5 0 0-.3 0-.8zm-2.3.3v-.1.1zm.1.2v-.1l-.1.1zm0-.2v-.1l-.1.1zm.3.7c0-.1 0-.1.1-.1s-.1.1-.2.1zm.2 0v-.1c0 .1-.1.1-.1.1zm.1-.3c0 .1 0 .2.1.1s-.1-.1-.1-.3-.2-.1-.2.1.2-.4.2-.1h.1c0 .2-.1.3-.2.2zm.7 0c0-.2.1-.1.1-.2s-.1.2-.1.2zm3.6-2zm-.4 1c.3-.5-.2-.5 0 0zm-1.9.7c.1-.4.2 0 .3-.5s-.2 0-.2 0-.4-.6-.3 0 .3-.2.2.5zm.8-.3h.7c-.2-.4-.6-.6-.7 0zm-4.7.6zm.1 0c.1 0 .2-.1.1.1h.2c0-.4-.4-.2-.3-.1zm.3-.1zm.2-.1zm3-.5zm1-.1c-.1.2-.3-.3-.4.3s.3.3.4-.3zm0 0v.3c0 .2.1-.2 0-.3z"/><path d="M153.3 198.7c-.8.9-2 .2-3 .3s-.5-.2-.7-.2 0 .7-.1.6 0-.9-.1-.6 0 .2 0 0-.1.4-.1.3-.9.4-1.3.6-.2-.3-.2.5a2.4 2.4 0 0 1 2.6-.2c.1-.6.2.1.3-.3s.1 1.7.1.7-.1-.3-.1-.7.2-.4.3.3-.1-.1-.1.3.1.4.2.4-.1-1.1.1-1 .6.9.9-.4a1.8 1.8 0 0 0 1.2.4 4 4 0 0 1 .1-.4c0-1.3-.1-.6-.1-.6zm-2.2 1.3v-.3.3z"/><path d="M153.4 198.2a7.7 7.7 0 0 1-.1.9c0 .9.3.5.3 0v-.5c-.1.4-.1.7-.2-.4zm4.4.8l-.5-.2h-.1c0 .1-.1 0-.1.3s.6.4.7-.1zm.1 0s-.1 0-.1.2.1 0 .1-.2zm.2.3c-.1-.6-.1.6 0 0zm-10.4.2c.2.2 0-.7 0 0zm6.9-.4c.1-.1.2.8.3-.4h-.5c-.2 0-.4-.5-.4.9s.4-.4.6-.5z"/><path d="M157.7 199.7h.1c.1.1.1-.2 0-.2a.8.8 0 0 1-.8-.3c-.2-.2-.4-.4-.7.1a.9.9 0 0 1 0 .4c0 .2 0 .4 0 0s-.1-.4-.1-.4-1.1-.1-1.5.8h-.4c-.1-.3-.1.8 0 .5h.2c.3-.2.7.5 1-.5s.1.8.1.9.1-.5.2-.4.3.7.4.7.1-.4.1-.4.4.8.6.2-.1-.1-.1-.3 0-.5 0 0h.3c0-.1 0-.9.1-.9a2.6 2.6 0 0 0 .1.6c0-.7.2-.1.3-.3s.1-.5.1-.5zm-1.5.7v-.4c0 .1.1.5.1.4zm.3.3c0-.8.1-.2.1-.4h.1c.1.8-.1.2-.2.4zm-.1-.7c.1-.8.3-.1.4-.4s-.2.1-.3.4zm.7.3c0-.3 0-.2.1-.3s-.1.2-.1.3zm.1 0v-.3.2zm-12.8-.6c0 .2.1-.1 0 0zm3-.2v.2c0 .1.1-.1 0-.2zm.3.2v-.2c-.1-.2-.1.3 0 .2zm6-.6c0 1.4.2-.5 0 0z"/><path d="M153.9 199.1c-.2-.5-.1 1.4 0 0zm2.5.1v.4zm-8.9.9s.4.3.3-.4-.5.3-.3.4zm11-.4c-.2-.1-.3.1-.5.2s-.3-.4-.3.5.3-.4.4-.1a.9.9 0 0 1 0-.4c0 .3 0 .3.1.3s.2-.3.4-.3 0-.1-.1-.2zm-11.5.4v-.2.2zm.1 0v-.2.2zm.1 0v-.2.2zm.1 0s.1 0 .1-.2-.1 0-.1.2zm3.1.5h.3c.1-.8-.2.1-.3-.7s0 .3 0 .7zm.4-.3c0-.2 0-.4 0 0zm3 .2c0-.3 0-.6 0 0zm.1 0c.1-.3.2.6.2-.5h-.1c-.1.1-.1-.1-.1.5zm.2 0c0-.1.1 0 .1-.5s-.1 0-.1.5z"/><path d="M157.6 199.9c-.2.7.2.8.1 0s0 .5-.1 0zm-9.3.5v-.2.2zm.4 0v-.3.3zm.1.1v-.3c0-.2-.1.1 0 .3zm1.4.1c0-.1.1.1.1-.3s-.1-.1-.1.3zm.8-.3c-.1-.3 0 1 0 0zm2.4.6c0-.1.1 0 .1-.4s-.1 0-.1.4zm.3 0c0-.1.1 0 .1-.4s-.1 0-.1.4zm.1-.4c0 .3 0 .6 0 0zm3.7 0c0-.6-.1-.1-.2-.2s.2 0 .2.2zm1.2-.6c0 .1 0 0 0 0zm-10.9.7v-.2.2zm1.6 2.2v-.3.3zm9.6-2.4zm-11.5 2.7v-.2.2z"/></g><path fill="#fff8e5" d="M50 220.8h200v31.97H50z"/><g fill="#ee8e0d"><path d="M247.8 219.1c-.3 0-1.4 0-.9.1s1.4-.1.9-.1zm-66.4 34.7zm-64.2-35.7c-.3-.1-1.4.1-.9.2s1.3-.1.9-.2zM238.1 253zm-31.2.2zm-66.4-.1h22l13.9.2c5.3 0 10.6-.1 14.8.1a42.8 42.8 0 0 1 5.5-.1h4.7c4.7 0 5.1 0 1.8-.1h9.2c6.4-.2 10.8-.1 18.3-.1h-21.4c-8.7 0-20.9-.2-26.6.1 2.8.1 3.4-.1 4.7.1-3.1 0-8.5.1-10.2-.1a55.3 55.3 0 0 1-6.5-.1c4.1.1 7.5-.2 10.1 0h-3.6c1.6 0 5.5.1 5.5-.1s-1.1-.1 0-.1c-4.2-.2-13.5 0-16.6-.1-1 0-.5.2-1.8.2l-1.9-.2a11.8 11.8 0 0 1-2.7.2c-6.3.1-8 .1-14.7 0 .6.1-4.2-.1-4.5.1zm71.8-.2zm-1.9-.1zm.1.1zm-9.4-.3zm-5.5 0zm-3.6.1h-1.9a15.7 15.7 0 0 1 3.8.1c1.6 0 5.5.1 5.5-.1 4.1.1-5.3.2-5.5.1h-2zm-23 0zm-112.3 1.1c.3 0 1.4-.1.9-.2s-1.4.1-.9.2zm12-.5c-8.7.3 5.4.2 0 0zm60.7-.4c-1.9.2-7.5 0-9.1.2 2.1.1 6.1 0 6.4 0s11.7.3 9.2 0-9.3.2-6.5-.2zm-24.8.2H83.4c6 .2 17.4.3 21.2 0zm145.3-.3zm-3.7 0H237c-.8.1 11.7 0 9.2 0zm-11 0zm-3.6.1zm-92.9.2c.3 0 1.4-.1.9-.1s-1.4.1-.9.1zm-30.4.1c3.4-.1 9.2.1 11-.1-3.4.1-9.2-.2-11 .1zm-2.8 0c.3 0 1.4-.1.9-.1s-1.4.1-.9.1z"/><path d="M106.1 220.2c-15.4.3-36 .2-56.1.2h-.4v32.7h25.5a7.4 7.4 0 0 1 1.8-.3 2.4 2.4 0 0 0 1.9.3 1.2 1.2 0 0 1 .9 0c1.7 0 1.9-.2 3.7-.2 9.9-.2 28.9-.2 41.4-.3 1.4 0 6 .1 5.5-.2-22.6.2-57.1.3-80 .1h-.2c-.3-3.2.1-4.7-.1-9a5.3 5.3 0 0 0 .3-3.7c.1 1.6-.1 1.7-.3 1.8.1-2.5-.2-7.3.2-8.3a8.2 8.2 0 0 0 .2 2.8c-.1-2.8.2-3.4.2-5.5s-.6 1.8-.5-1.8-.1-5.6-.1-8.3c7.3 0 13.9.3 20.2-.2l35.9.2a17.3 17.3 0 0 1 1.8-.2c.1-.5-.6-.1-1.8-.1zm-56 12.5c-.1.5-.2-.7-.2-.9s.2.7.2 1z"/><path d="M110.7 220a14.8 14.8 0 0 1-2.8.5c1.3.5 7.8.3 9.2 0v-.2c-3.5.1-4.6.3-6.4-.3zm134.3.4h-17.4c-.7 0-1.8 0-1.8.1 6.1-.1 14.6.2 19.2-.1zm2.8 0a8 8 0 0 0-1.8.1 8.3 8.3 0 0 0 1.8-.1zm2.4 5.6c.3-4.4-.3-2.3 0 0zm-117.1 26.9c-4.9-.1-1 .3 0 0zm12.6-32.4c3.4 0 6.8.4 10.1-.2h-16.6c-5.9 0-12-.2-13.8.5 8.4.1 14.7-.3 20.3-.3z"/><path d="M242.3 220.7h3.7c1.6 0 1.9-.1.9-.1-9.8 0-17 0-23.8-.1s-13.2-.2-21.3 0c.5 0 1 .2 0 .2s-.7.2-.9 0a31.1 31.1 0 0 0-4.6-.2c-13.8 0-33.6-.1-46 .4h-13.8c-3.3-.2-3.3.4 0 .2h6.4c9.9-.1 21.9.2 30.4-.2 1.4-.1 2.8.4 4.6.4s3.7-.3 5.5-.2c4.1.1 8.5.3 12.9.4l4.6-.2c6.2 0 13.7.4 18.4.1a4.3 4.3 0 0 1-1.8-.2c-1.1 0-.6-.2 0 0h10.1c1.3 0 .3-.5 1.8-.5a5.4 5.4 0 0 0 1.8.3c1-.3 5.8-.1 8.3-.2a13.5 13.5 0 0 1 2.8-.1zm-45.1.4c-.5-.1.7-.2.9-.2s-.6.3-.9.2zm9.2.2c-.2-.4 3.3-.1 4.6-.2h4.6c-1.3.4-6.4.1-9.2.2zm-2.8-.4c2.8-.4 9.5-.1 13.8-.2-2.7.4-9.4.1-13.8.2zm20.2.1c0-.2 1.1-.1 1.8-.2s-1 .2-1.7.2zm2.8 0c-.5-.1.7-.2.9-.2s-.6.3-.8.2zm-84.3 31.9c.3 0 1.4 0 .9-.1s-1.4.1-.9.1zm-9.2-.1c5.3.2 5.2 0 0 0zm-15.9-32.3c1.1.7 4.9-.3 0 0zm7.3 0c-5.9-.3-2 .7 0 0z"/><path d="M201.8 220.5c-.8 0-.9.1-.9.2h.9zm-60.5 32.1c-1.4 0-11.1-.2-8.2.2-1.3-.1 13.9-.1 8.2-.2zM250 238.9c.1-5 0-10.6-.1-14.7v-3.3c-2.3 0-4.7 0-5 .3h5l-.2-.2c.1 2.6.1 4.6 0 7.9.1-.1.2.2.2 1s-.2.7-.2 1.8c0 2.8.2 6.9.1 12 .2-1 .2-3.2.2-4.8zm-94.9 13.7zm-3.7 0zm-2.8 0c-.3 0-1.4 0-.9.1s1.4 0 .9-.1zm-2.7 0zm-93.8-.2H50l.4.4v-8c-.4-2.2 0 6.4-.3 8h.1c.3-.3 1.9-.2 1.9-.4zm-1.8-12.3c-.1-1.3-.2.1 0 0zm72.4-18.9c1.3-.1-.1-.3 0 0zm1.8 0c1.6-.1 5.4.3 5.5-.2h-2.8c-1 0-2.5-.1-2.7.2zm6.5 0c.7-.1 1.8 0 1.8-.2s-1.8-.1-1.8.2zm108.5-.3c-5.3.3 4.8.4 4.6 0a28 28 0 0 1-4.6 0zm-124.9 31.6c-.3 0-1.4.1-.9.1s1.4-.1.9-.1zm-11.1 0c-.3 0-1.4.1-.9.1s1.4-.1.9-.1zm-1.8 0c-.3 0-1.4.1-.9.1s1.4-.1.9-.1zm-45-.1a18 18 0 0 0-3.7.2 18.2 18.2 0 0 0 3.7-.2zm-6.4-15.9c-.2 3.8.5.2 0 0zm59.5-15.1c.7-.1 1.8 0 1.8-.2s-1.8 0-1.8.2zm7.4 0c.7-.1 1.8 0 1.8-.2s-1.8 0-1.8.2zm5.5-.2c-1.3.1.1.3 0 0zm114.1-.1c-.1-.3-3.9 0-5.5-.1.1.3 3.9.1 5.5.1zm13.1 22.3c-.1.5 0 1.1 0 0zm-117.9 9c-.3 0-1.4 0-.9.1s1.4 0 .9-.1zm-50.7-1.1c-.3 0-1.4.1-.9.1s1.4-.1.9-.1zm168.5 1.2a7.2 7.2 0 0 0-.1-1 8.5 8.5 0 0 0 .1 1zm-109.1-1.3c-.3 0-1.4 0-.9.1s1.4 0 .9-.1z"/></g><path fill="#fff8e5" d="M50.3 47.2H122v28.34H50.3z"/><g fill="#ee8e0d"><path d="M123.7 61.5c0-.1 0-.6-.1-.4s0 .6.1.4zM92.8 76.6zM79.3 44.5c-.1-.1-.6.1-.4.2s.6-.1.4-.2zm37.8 31.3zm-13.5.2zm-28.7-.1c3.3 0 6.3-.2 9.5-.1l6.1.2c2.3 0 4.6-.1 6.4.1a7.5 7.5 0 0 1 2.3-.1h2c2 0 2.2 0 .7-.1h4c2.7-.2 4.6-.1 7.8-.2h-9.3c-3.7 0-9.1-.2-11.4.1a9.5 9.5 0 0 1 2.1.1c-1.4 0-3.6.1-4.4-.1a10.2 10.2 0 0 1-2.8-.1c1.8.1 3.2-.2 4.4 0h-1.6a13.2 13.2 0 0 0 2.3-.1c-.2 0-.5-.1 0-.1-1.9-.2-5.8 0-7.2-.1s-.2.2-.7.2l-.9-.2a2 2 0 0 1-1.1.2c-2.7.1-3.4.1-6.4 0 .4.3-1.7.1-1.8.3zm31-.2zm-.9-.1zm.1.1zm-4.2-.3zm-2.4 0zm-1.5.1h-.8a3.1 3.1 0 0 1 1.7.1 16.5 16.5 0 0 0 2.3-.1c1.8.1-2.2.2-2.3.1H97zm-9.9 0zM49.3 63.9c0 .1.1.6.2.4s-.1-.6-.2-.4zm.5 5.2c-.3-3.7-.2 2.3 0 0zm20.3 6.6c-.8.2-3.3 0-3.9.2a20.3 20.3 0 0 0 2.8 0c.4 0 5.1.3 4 0s-4.1.2-2.9-.2zm-10.8.2H50h.4a55.9 55.9 0 0 0 8.9 0zm62.8-.3zm-1.6 0h-4c-.3.1 5.1 0 4 0zm-4.8 0zm-1.5.1zm-40.1.2c.1 0 .6-.1.4-.1s-.6.1-.4.1zm-13.2.1c1.5-.1 4 .1 4.8-.1-1.5.1-4-.2-4.8.1zm-1.2 0c.1 0 .6-.1.4-.1s-.6.1-.4.1z"/><path d="M74.6 46.6c-6.7.3-15.5.2-24.2.2H50v15.5c0 3.5-.1 6.5-.1 9.5 0 .2.3.3.3.8a.6.6 0 0 0-.3.8c.2.1.1.4 0 .4s.2.8.2 1.6v.5h.3c4.3-.2 12.4-.2 17.7-.3.6 0 2.6.2 2.3-.2l-20 .2h-.1c0-5.2 0-10.3.2-14.5-.3-1.5.1-2.1-.2-4 .2 0 .8-1.1.3-1.6s-.1.7-.3.8-.2-3.2.2-3.6 0 1.1.2 1.2a13.3 13.3 0 0 1 .2-2.4c-.3-.9-.6.8-.5-.8s-.1-2.4-.1-3.6h.1c3.1 0 6 .3 8.7-.2l15.5.2c.3 0 .4-.2.8-.2s-.3-.3-.8-.3zm-24.2 5.8c-.1.2-.2-.3-.2-.4s.3.3.2.4z"/><path d="M76.5 46.4a3.3 3.3 0 0 1-1.2.5c.6.5 3.4.3 4 0v-.2c-1.5.1-2 .3-2.8-.3zm46 13.4v-7.6c0-.3 0-.8-.1-.8.1 2.6-.2 6.3.1 8.4zm-.1 1.2c0-.3 0-.8-.1-.8s0 .7.1.8zm-.1 3.1c.3-1.8-.3-1.1 0 0zM71.7 75.7c-2.1-.1-.4.3 0 0zm19.9-28.8c1.5 0 2.9.4 4.4-.2h-7.2c-2.6 0-5.2-.2-6 .5 3.7.1 6.4-.3 8.8-.3z"/><path d="M122.1 58.5v1.6c0 .7.1.9.1.4-.1-5.7.1-9.3.2-13.3v-.4h-.4c-1.9 0-3.9 0-6.2.1.2 0 .5.2 0 .2s-.3.2-.4 0a5.9 5.9 0 0 0-2-.2c-6 0-14.5-.1-19.8.4h-6c-1.4-.2-1.4.4 0 .2h2.8c4.3-.1 9.5.2 13.1-.2.6-.1 1.2.4 2 .4s1.6-.3 2.4-.2 3.7.3 5.6.4l2-.2c2.1 0 4.7.3 6.6.2l-.7-.7a12.4 12.4 0 0 0 .1 1.3c0-.5 0-.7.2-.8s.2-.2 0 0V52c0 .6.4.2.4.9a1.1 1.1 0 0 0-.3.7c.3.5.1 2.5.2 3.6s.1.8.1 1.3zm-8.3-11c-.2-.1.3-.2.4-.2s-.2.3-.3.2zm4 .2c-.1-.4 1.4-.1 2-.2h2c-.6.4-2.8.1-4 .2zm-1.2-.4c1.1-.4 3.6-.1 5.4-.2h.1c-1.4.4-3.8.1-5.5.2zm5.2 3.2c.2 0 .1.5.2.8s-.1-.5-.2-.8zm0 1.2c.1-.2.2.3.2.4s-.2-.3-.2-.4zm-46.2 24c.1 0 .6-.1.4-.1s-.6.1-.4.1zm-4-.1c2.3.2 2.3-.1 0 0zm7.7-28.7c.5.7 2.1-.3 0 0zm3.2 0c-2.5-.3-.9.7 0 0z"/><path d="M115.8 46.9c-.3 0-.4.1-.4.2h.4zM75.1 75.4c-.6 0-4.8-.2-3.5.2-.5-.1 6-.1 3.5-.2zm47-5.8c.1-2.1 0-4.6-.1-6.4s.2-3.4-.2-3.7c0 2.5.2 3.4.1 5.5.1 0 .1.2.2.5s-.1.2-.1.7.1 3.1.1 5.2v-1.8zm-41 5.8c-.1 0-.6 0-.4.1s.6 0 .4-.1zm-1.6 0c-.1 0-.6 0-.4.1s.6 0 .4-.1zm-1.2 0c-.1 0-.6 0-.4.1s.6 0 .4-.1z"/><path d="M77.1 75.4c-.3 0-.8 0-.8.1zM50.7 61.9v-4.4c-.4-1 0 3.3-.3 3.6s.1.8.3.8zm-.1-6.3c-.1-.6-.2 0 0 0zm31.1-8c.6-.1 0-.3 0 0zm.8 0c.7-.1 2.3.3 2.4-.2h-1.2c-.5 0-1.1-.1-1.2.2zm2.8 0c.3-.1.8 0 .8-.2s-.8-.1-.8.2zm36.7 9.6c-.3-2.4-.4 1.9 0 2s-.2-1.3 0-2zM63.6 75.3c-.1 0-.6.1-.4.1s.6-.1.4-.1zm-4.7-.1c-.1 0-.6.1-.4.1s.6 0 .4-.1zm-.8 0c-.1 0-.6.1-.4.1s.6 0 .4-.1zm-7.4-11.3c0-.6.1-1.5-.2-1.6s0 1.5.2 1.6zm-.1-9.9c-.2 1.6.5.1 0 0zm25.5-6.2c.3-.1.8 0 .8-.2s-.7 0-.8.2zm3.2 0c.3-.1.8 0 .8-.2s-.8 0-.8.2zm2.4-.2c-.6.1 0 .3 0 0zm40 8.4c.3 0 0-1.7.1-2.3s0 1.6-.1 2.3zm.3 15.5c-.1.2 0 .5 0 0zm-50.9 3.7c-.1 0-.6.1-.4.1s.6-.1.4-.1zm-19.2-.6c0-.1-.1-.6-.1-.4s0 .6.1.4zm70 .7c0-.1-.1-.7 0-.4s0 .6 0 .4zM74.8 74c-.1 0-.6 0-.4.1s.6-.1.4-.1z"/></g><path d="M66.1 66.1c-.2-.5-.8-.1-1.2-.2s.2.1.5.4.6 0 .7-.2zm17.6.5c0 .1.2-.1.1-.2s-.1.1-.1.2zm-23.8-.7h.5c.1-.4-.6-.4-.5 0zm5.6.5v.2c.1-.1 0-.2 0-.2z" fill="none"/><path d="M65.7 66.4c.3.7.7-.3 1.2 0s-.6-.6-.8-.2-.2.1-.4.2zm-5.3 0H63a3 3 0 0 0-2.6 0zm-.5-.3c.1.3.1 0 0 0zm2.1-.6c0 .1.2-.1.1-.2s-.2.1-.1.2zm5.1.9c.1 0 .3 0 .3-.2s-.2-.1-.3.2zm-2.4-.3h-.5c0 .3.3 1.1.4.4s-.2 0-.2-.2.7 0 .3-.2zm-2.5-.2c0 .1.2-.1.1-.2s-.2.1-.1.2zm1.1-1.1h-.1c0 .3.1.1.1 0zm.2 1.6c0-.5.5-.1.7-.2s-1.2-.3-.7.2zm-1.3-.9c0 .1.2-.1.1-.2s-.2.1-.1.2zm1.1 1.3c.1 0 .2 0 .2-.2s-.2 0-.2.2zm.6 0c0 .1.2-.1.1-.2s-.1.1-.1.2zm39.9.2c.3-.1.9.3 1.1-.2h-.5c-.2.1-.6-.3-.6.2zm-.3-.4c.5-.1 1.3.3 1.6-.2s-1.3-.3-1.6.2zm2.4.2c.1 0 .2 0 .2-.2s-.2 0-.2.2zm-3.2 0c0 .1.2-.1.1-.2s-.1.1-.1.2zm2.5.2c-.1-.3-.1 0 0 0zm1.1-.2c0 .1.2-.1.1-.2s-.2.1-.1.2zm-3-.7v.2c.1 0 0-.2 0-.2zm0 .3h-.1c0 .2.1.1.1 0z" fill="none"/><path d="M108.8 63c0-.1-.2.1-.1.2s.1-.1.1-.2zm-43.1.2c0-.1-.2.1-.1.2s.2 0 .1-.2zm27.5.7c0-.1-.2.1-.1.2s.1-.1.1-.2zm-34.3.7c0-.1-.2.1-.1.2s.1-.1.1-.2zm3.7 0c0-.1-.2.1-.1.2s.2-.1.1-.2z" fill="#ee8e0d"/><path d="M70.5 65.7a16.6 16.6 0 0 1-2.6.2c-.4-.1-1-.6-1.6-.7s-1.3.1-1.8-.4-.6.8-.7.2.3 0 .3-.2-.4 0-.9 0-.1.3-.1 0h.1v-.2c-.6 0-.6.1-.2.4h-1c-.8.7-1.3.2-2.2.4s0 .4.1.4.6-.4.5 0h-.5v.2c.1 0 .1.3 0 0a.5.5 0 0 0-.4.4c.5.3.8-.6 1-.2a3 3 0 0 1 2.5 0h-2.6a.8.8 0 0 0 .7.4c.1 0 .1-.3.2-.2s0 .2.1.2.1-.3.2-.2 0 .2.1.2.1-.1.5.2 2.5.4 3.2-.4v-.2c-.3-.3-.4.3-.5-.4s1-.3 1.2.2.6-.1.8.2-.9.7-1.2 0 .4.1.4-.2-.6-.3-.7.2.1.2 0 .2 1.6-.1 2 .2.1-.4.2-.4.1.4.2.4.1-.5.3-.4a2.5 2.5 0 0 1 1.8 0c0-.5.6 0 .6-.5zm-8.5-.2c-.1-.1.1-.3.1-.2s-.1.2-.1.2zm.2.4c-.1-.1.1-.3.1-.2s-.1.3-.1.2zm0-.4c-.1-.1.1-.3.1-.2s-.1.2-.1.2zm1.1 1.3c0-.2.1-.2.2-.2s-.1.2-.2.2zm.7 0c-.1-.1.1-.3.1-.2s-.1.3-.2.2zm.4-.4c0 .2.1.3.2.2s-.4-.1-.4-.4-.6-.3-.7.2.7-.7.7-.2h.5c.4.1-.2.2-.3.2zm2.7 0c0-.3.2-.2.3-.2s-.1.1-.3.2zM80.5 65c0-.1-.2.1-.1.2s.2-.1.1-.2zm-1.4.7c1-.4-.6-.4 0 0zm-7.2.4c.2-.4.9 0 1.1-.4s-.7 0-.8 0-1.4-.7-1.1 0 1.1-.3.8.4zm2.9-.2h2.5c-.7-.3-2-.5-2.5 0zm-17.3 0c0 .1.2-.1.1-.2s-.2.1-.1.2zm.4 0c.3 0 .7-.1.4.4l.7-.2c.1-.8-1.4-.4-1.1-.2zm1.3 0c0 .1.2-.1.1-.2s-.1.1-.1.2z" fill="#ee8e0d"/><path d="M59.7 65.7c0-.1-.2.1-.1.2s.1-.1.1-.2zm11.1 0c0-.1-.2.1-.1.2s.1-.1.1-.2zm3.6 0c-.4.1-1.1-.3-1.3.2s1.1.3 1.3-.2zm.3 0c0-.1-.2.1-.1.2s.2-.1.1-.2z" fill="#ee8e0d"/><path d="M91.9 65.9c-3 .4-7.5 0-10.9 0l-2.6-.2c-.1 0-.1.5-.2.4s-.1-.7-.2-.4-.1.1-.1 0-.2.3-.4.2-3.4.3-4.9.4-.7-.3-.7.4a34.8 34.8 0 0 1 9.6-.2c.4-.4.6.1 1.1-.2s.3 1.1.4.4-.2-.2-.2-.4.9-.3 1 .2-.3 0-.3.2.4.2.7.2-.2-.7.2-.7 2.4.5 3.4-.2a34 34 0 0 0 4.3.2c.1 0 .1-.2.2-.2s-.3-.1-.4-.1zm-8.1.7c-.1-.1.1-.3.1-.2s-.1.2-.2.2z" fill="#ee8e0d"/><path d="M92.4 65.7l-.3.4c.2.4.9.3 1.1 0v-.2c-.4.2-.6.3-.8-.2zm16.1 0h-2.1c-.1 0-.2 0-.2.2s1.7.3 2.3-.2zm.3 0c-.1 0-.2 0-.2.2s.2 0 .2-.2zm.9.2c-.5-.6-.3.7 0 0zm-38.3.2c.6.2.1-.7 0 0zm25.2 0c.4 0 .8.4 1.2-.2h-2c-.7 0-1.4-.2-1.6.4a7.7 7.7 0 0 0 2.4-.2zm11.5.3h.4c.2.1.2-.2.1-.2-2.3.3-3.5-.6-5.4 0 .1 0 .1.2 0 .2s-.1.3-.1 0a.5.5 0 0 0-.5-.2 23.4 23.4 0 0 0-5.5.4h-1.6c-.4-.2-.4.4 0 .2h.8c1.2-.1 2.6.3 3.6-.2s.3.4.5.4.4-.3.7-.2 1 .4 1.5.4l.5-.2c.7 0 1.6.6 2.2.2s-.2 0-.2-.2-.1-.3 0 0h1.2c.2 0 0-.7.2-.7s.1.4.2.4.7-.1 1-.2.3-.1.4-.1zm-5.4.4c-.1-.1.1-.3.1-.2s0 .3-.1.2zm1.1.2c0-.5.4-.1.5-.2h.5c0 .5-.6.1-1 .2zm-.3-.4c.3-.5 1.1-.1 1.6-.2s-1.1 0-1.6.2zm2.4.2c0-.2.1-.2.2-.2s-.1.2-.2.2zm.3 0c-.1-.1.1-.3.1-.2v.2zM59 66.1c0 .7.5-.2 0 0zm11.3 0c0-.1-.2.1-.1.2s.2 0 .1-.2zm1.1.3v-.2c-.6-.2-.6.3 0 .2zm21.8-.3c.1.7.6-.2 0 0zm.9 0c-.7-.3-.2.7 0 0z" fill="#ee8e0d"/><path d="M103.3 66.1c-.1 0-.1.1-.1.2h.1zm-32.9.7c.2 0 1.3.3 1-.4s-1.7.3-1 .4zm40.8-.4c-.6-.2-1.3.2-1.8.2s-1-.4-1 .4.9-.3 1.5 0 0-.4.1-.4.1.4.2.4.8-.3 1.4-.2-.2-.3-.4-.4zm-42.4.4c0 .1.2-.1.1-.2s-.2.1-.1.2zm.4 0c0 .1.2-.1.1-.2s-.1.1-.1.2zm.4 0c0 .1.2-.1.1-.2s-.2.1-.1.2z" fill="#ee8e0d"/><path d="M69.9 66.8c.1 0 .2 0 .2-.2s-.2 0-.2.2zm11.2.2h1.2c.3-.5-.9.1-1-.4s-.2.1-.2.4zm1.7-.2c.2-.1 0-.3 0 0zm11 0c.2-.1 0-.3 0 0zm.3 0c.2-.1.6.3.7-.2h-.3c-.2 0-.4-.1-.4.2zm.7 0c.1 0 .2 0 .2-.2s-.2 0-.2.2zm13-.2c-.6.5.6.8.5 0s-.3.4-.5 0zm-34.2.4c0 .1.2-.1.1-.2s-.1.1-.1.2zm1.3 0c0 .1.2-.1.1-.2s-.1.1-.1.2zm.3 0c0 .1.2-.1.1-.2s-.2.1-.1.2zm5.3 0c.2 0 .4.1.4-.2s-.3-.1-.4.2zm2.8-.2c-.5-.2 0 .7 0 0zm9 .2c.1 0 .2 0 .2-.2s-.2 0-.2.2zm.9 0c.1 0 .2 0 .2-.2s-.2 0-.2.2zm.6-.2c-.2.1 0 .3 0 0zm13.7.2c0-.5-.5-.1-.7-.2s.5.1.7.2zm4.2-.2c.1.3.1 0 0 0zm-40.2.4c0 .1.2-.1.1-.2s-.1.1-.1.2zm6.1 1.6c0 .1.2-.1.1-.2s-.2.1-.1.2zm35.2.5c0-.1-.2.1-.1.2s.2-.1.1-.2zm-42.4.6c0 .1.2-.1.1-.2s-.1.1-.1.2z" fill="#ee8e0d"/><path d="M60.4 55.3c-.5-.1-.4.5-.6.7s.2-.1.6-.2 0-.3 0-.5zm10.9.1c0 .1.1-.1.2-.2s-.2 0-.2.2zm-13.6 1.1l.3.2c.1-.3-.1-.5-.3-.2zm2.6-.7z" fill="none"/><path d="M60.4 55.7c.7.1 0-.6.5-.8s-.8 0-.5.4 0 .3 0 .4zm-2.7 1.4a1.5 1.5 0 0 0 1.6.2h-1.6zm-.2-.4c-.2.3.1 0 0 0zm1.2-.2v-.2c0-.1-.1.1 0 .2zm2.3-1.7c0-.1.2-.1 0-.3s-.2.1 0 .3zm-1.1 1.4l-.2.3c.3.2 1.1.4.5 0s-.1.1-.3 0 .3-.4 0-.3zm-1.1.8c0 .1.1-.1 0-.2s-.1.1 0 .2zm-.2-1.1z" fill="none"/><path d="M59.6 57c-.3-.3.1-.3.1-.5s-.3 0-.4.1a.3.3 0 0 0 .3.4zm-.9-.5v-.2.2zm1.1 1c0-.1.1-.1 0-.3s-.2.1 0 .3zm.4-.4c.1 0 0-.2-.1-.2s-.1.1.1.2zm21.4-2.8c.3 0 .5.6.8.2l-.3-.2c-.2.1-.3-.4-.5 0zm0-.5c.4 0 .7.7 1.2.4s-.8-.7-1.2-.4zm1.4 1.1c.1 0 .1.1.3-.1s-.2-.1-.3.1zm-2-1.1c0 .1.1-.1.2-.2s-.2.1-.2.2zm1.4 1c.1-.3-.1 0 0 0zm.8.2c0 .1.2 0 .2-.2s-.2.1-.2.2zm-1.6-1.7zm-.1.2h-.1c-.1.3 0 .2.1 0z" fill="none"/><path d="M86.2 52.2c0-.1-.1.1-.1.2s.1-.1.1-.2zm-28.6 2.1c-.1 0 0 .2.2.2s-.1-.2-.2-.2zm18.6 3zm-17.9-2zm.4.8zm5-2.2a3.3 3.3 0 0 0-2.4.1 2.8 2.8 0 0 0-1.6.7c-.4.5-.4 1-1 .9s.5.6.1.3.1-.1-.1-.2-.1 0 0 .1h.1c0 .4-.2.4-.3.3l-.4-.3-.3.4c.2-.3.5-.1.3.2l-.3-.2v.2c.1 0-.2.3 0 0s-.3-.1-.5.1.8 0 .7.3h1.6a1.5 1.5 0 0 1-1.6-.2.5.5 0 0 0 .2.6c.1 0 .2-.2.2-.2s-.1.2 0 .2.2-.3.2-.2 0 .2.1.2.1-.1.5.2a2.9 2.9 0 0 0 1.4-.9 1 1 0 0 0 .1-1.2h-.2c-.4.1.1.4-.6.2s.1-.8.6-.7.2-.5.5-.4.2.9-.5.8.2-.2 0-.4-.5.3 0 .5.2 0 .2.1.5-.3.5-.5.2-.5.4-.4-.2-.4-.1-.4l.4.3c-.1-.3-.1-.5 0-.5s.8-.4 1.3 0 .3.5.5 0zm-5.1 2.6v-.2c0 .1.1.3.1.2zm.1.4v-.2c0 .1.1.3.1.3zm0-.4v-.2.2zm1.1 1c-.1-.2 0-.2 0-.3v.3zm.4-.4c-.1 0-.2-.2-.1-.2s.1.2.1.2zm-.2-.5c.2.1.3.1.3 0s-.3.2-.5 0-.4.1-.1.5a.3.3 0 0 1-.3-.4c0-.1.2-.2.4-.1l.2-.3c.2-.2.1.2 0 .2zm1-1.8c-.2-.2 0-.3 0-.3v.3zm7.3.6c-.1 0 0 .2.1.2s0-.2-.1-.2zm0 1c0-.3-.1-.3-.1-.2s-.1.1.1.2zm-3.9-1.6c.4-.2.5.5.9.2s-.4-.4-.5-.4l-.3-.5c-.2-.2-.4-.3-.4 0s1 .3.3.7zm1.8 1.3a3.4 3.4 0 0 0 1.4.7c-.3-.4-.8-1-1.4-.7zm-9.3-.8zm.1.3c.1.2.3.3-.3.4l.4.3c.4-.2.3-.5.2-.6s-.3-.3-.3-.1zm.4.6zm.3.1zm6.2-2.3c0-.1-.2 0-.2.2s.2-.1.2-.2zm2.2 1.7c-.3-.1-.3-.7-.8-.4s.3.7.8.4zm.2.1z" fill="#ee8e0d"/><path d="M76.6 57.6a4.5 4.5 0 0 1-3.3-1.4 5.8 5.8 0 0 0-1.8-1.4 1.8 1.8 0 0 0-1.4 0 2.5 2.5 0 0 0-.9.8l-.6.7-.5.2s.1.5 0 .5-.1-.7-.2-.4 0 .1 0 0-.1.3-.2.2a2 2 0 0 1-1.5-.4l-1.5-1.1c-.1-.1-.2-.6-.6.1s1.9 1.3 3 1.7a1.9 1.9 0 0 0 1.7-.1 10.4 10.4 0 0 0 1.2-1.1c-.1-.2 0-.3.1-.4a.5.5 0 0 0 .4-.3l.3.5c.1.1.1.2.1-.2s-.1-.1-.2-.4h.3c.2 0 .3 0 .3.3s-.2-.1-.2.2.2.3.3.3.1-.7.4-.5 1 1.6 2.1 1.4a4.8 4.8 0 0 0 2.6 1.2l.2-.2c0-.6-.1-.2-.1-.2zm-5.2-2.2c0-.1.2-.2.2-.2l-.3.2zm5.3 2.2v.2c0 .2.2.3.3.2a.3.3 0 0 0 0-.4h-.2v.2h-.1zm8.4-3l-1.1-.5h-.2c-.1 0-.1-.1-.2.1s1 .8 1.5.4zm.2.1c-.1 0-.1 0-.2.2s.1 0 .2-.2zm.5.4c-.2-.7-.4.7 0 0zm-21.7-.4c.2.5.5-.5 0 0zm13.3.5c0-.3.5-.5.1-1a5.6 5.6 0 0 0-.4 1.5c-.1.5-.4 1 .3 1.3a5.1 5.1 0 0 0 0-1.8z" fill="#ee8e0d"/><path d="M84.7 55.2h.3c.1.1.2-.1.1-.2-1.7-.3-1.9-1.6-3.5-1.7 0 0 0 .2-.1.2s-.2.2-.1 0-.2-.3-.3-.4a2.8 2.8 0 0 0-2.2 0 1.8 1.8 0 0 0-1 1.8v1.2c-.2.3.3.3.2 0v-.5a2.4 2.4 0 0 1 .4-1.2l.7-.9c.1-.1.3.3.5.3s.2-.3.4-.3.6.5.8.6h.4c.5.2.7 1 1.3.9s-.1-.1 0-.3.1-.3 0 0l.8.4c.1 0 .3-.6.5-.5s-.1.4-.1.5.5.1.8.1h.1zM81 53.8c0-.1.2-.2.2-.2s-.2.3-.2.2zm.6.5c.2-.4.3 0 .4 0l.3.2c-.3.4-.5-.2-.7-.2zm0-.5c.4-.4.8.3 1.2.4s-.8-.4-1.2-.4zm1.4 1c.1-.2.2-.1.3-.1s-.2.1-.3.2zm.2.1c0-.1.2-.2.2-.2l-.2.3zm-26.1 1.4c-.5.4.4.1 0 0zm6.3-2.1c0-.1-.2.1-.2.2s.2 0 .2-.2zm.6.6v-.2c-.2-.3-.5.1 0 .2zm13 2.8c.3.1.3-.1.2-.1s-.3 0-.2.1zm.1-.5c-.3.4.6.3 0 0z" fill="#ee8e0d"/><path d="M81.6 53.3c0-.1-.1 0-.2.2h.1zm-18.4 1.6c.1 0 .6.7.8-.1s-.3 0-.6 0-.4 0-.2.1zm23.6.8c-.4-.3-.9 0-1.3-.1s-.5-.6-.8.2.8-.1 1.1.3.1-.4.2-.4 0 .4.1.5.7-.2 1.1 0-.3-.3-.4-.5zm-24.6-1c0 .1.1-.1.1-.2s-.2.1-.1.2zm.2 0c0 .1.1-.1.1-.2s-.1.1-.1.2zm.2 0c0 .1.1-.1.1-.2s-.1.1-.1.2zm.2.1c.1 0 .1 0 .2-.2s-.1 0-.2.2zm7.3 1.4l.5-.4c0-.3-.1-.2-.3-.1s-.2.3-.4.1 0 .2.2.4zm.7-.7c.1-.1 0-.3 0 0zm6.9 1.8c-.1-.1-.3 0 0 0zm0-.1c-.1-.2.3-.4-.1-.5v.2c0 .1-.1.2.1.3zm.1-.6c0-.1 0-.2-.2-.2s0 .2.2.2zm6.5-1.3c-.7.3.1.9.4.1s-.4.3-.4-.1zm-19.5 1.1zm.8.6c0 .1.2 0 .2-.1zm.2.1c0 .1.2 0 .2-.1s-.2 0-.2.1zm4.1-.6c0-.1.2-.2 0-.4s-.2.2 0 .4zm1.1-1c-.1-.1-.1.1-.1.2s.1.1.1-.2zm5.9 3.2c.1-.1.3-.1.2-.3s-.2.1-.2.3zm.9-.8c0-.1.1-.2-.1-.3s-.1.3.1.3zm-.1-.6c.1.1.3 0 0 0z" fill="#ee8e0d"/><path d="M83.9 55.6c.2-.5-.3-.2-.4-.4s.4.2.4.4zm3.2.6c0 .3.1 0 0 0zm-23.5-.6zm4 4c0 .1.3-.1.2-.2s-.3.1-.2.2zm20.2-.8c0-.1-.2.1-.1.2s.2-.1.1-.2zm-25.9-1.1z" fill="#ee8e0d"/><path fill="#fff8e5" d="M177.4 89.7h71.7v28.34h-71.7z"/><g fill="#ee8e0d"><path d="M250.7 104c0-.1 0-.6-.1-.4s.1.6.1.4zm-30.9 15.1zM206.3 87c-.1-.1-.6.1-.4.2s.6-.1.4-.2zm37.8 31.3zm-13.4.2zm-28.8-.1c3.3 0 6.3-.2 9.5-.1l6.1.2c2.3 0 4.6-.1 6.4.1a7.5 7.5 0 0 1 2.3-.1h2c2 0 2.2 0 .7-.1h4c2.7-.2 4.6-.1 7.8-.2h-9.3c-3.7 0-9.1-.2-11.4.1a9.5 9.5 0 0 1 2.1.1c-1.4 0-3.6.1-4.4-.1a10.2 10.2 0 0 1-2.8-.1c1.8.1 3.2-.2 4.4 0h-1.6a13.2 13.2 0 0 0 2.3-.1c-.2 0-.5-.1 0-.1-1.9-.2-5.8 0-7.2-.1s-.2.2-.7.2l-.9-.2a2 2 0 0 1-1.1.2c-2.7.1-3.4.1-6.4 0 .4.3-1.7.1-1.8.3zm31-.2zm-.9-.1zm.1.1zm-4.1-.2zm-2.4 0zm-1.5.1h-.8a3.1 3.1 0 0 1 1.7.1 16.5 16.5 0 0 0 2.3-.1c1.8.1-2.2.2-2.3.1h-2c-1.4-.1.6-.1 1.1-.1zm-9.9 0zm-37.9-11.7c0 .1.1.6.2.4s-.1-.6-.2-.4zm.5 5.2c-.3-3.7-.2 2.3 0 0zm20.3 6.6c-.8.2-3.3 0-3.9.2a20.3 20.3 0 0 0 2.8 0c.4 0 5.1.3 4 0s-4.1.2-2.9-.2zm-10.7.2H177h.4a55.9 55.9 0 0 0 9 0zm62.7-.3zm-1.6 0h-4c-.3.1 5.1 0 4 0zm-4.7 0zm-1.6.1zm-40.1.2c.1 0 .6-.1.4-.1s-.6.1-.4.1zm-13.1.1c1.5-.1 4 .1 4.8-.1-1.5.1-4.1-.2-4.8.1zm-1.2 0c.1 0 .6-.1.4-.1s-.6.1-.4.1zm14.8-29.4c-6.7.3-15.5.2-24.2.2h-.4v15.4c0 3.5-.1 6.5-.1 9.5 0 .2.3.3.3.8a.6.6 0 0 0-.3.8c.2.1.1.4 0 .4s.2.8.2 1.6v.5h.3c4.3-.2 12.4-.2 17.7-.3.6 0 2.6.2 2.3-.2l-20 .2h-.1c0-5.2 0-10.3.2-14.5-.3-1.5.1-2.1-.2-4 .2 0 .8-1.1.3-1.6s-.1.7-.3.8-.2-3.2.2-3.6 0 1.1.2 1.2a13.3 13.3 0 0 1 .2-2.4c-.3-.9-.6.8-.5-.8s-.1-2.4-.1-3.6h.1c3.1 0 6 .3 8.7-.2l15.5.2c.3 0 .4-.2.8-.2s-.3-.2-.8-.2zm-24.1 5.7c-.1.2-.2-.3-.2-.4s.2.4.1.5zm26.1-5.9a3.3 3.3 0 0 1-1.2.5c.6.5 3.4.3 4 0v-.2c-1.6.1-2.1.3-2.8-.3zm45.9 13.4v-7.6c0-.3 0-.8-.1-.8.1 2.6-.2 6.3.1 8.4zm0 1.2c0-.3 0-.8-.1-.8s0 .7.1.8zm-.2 3.1c.3-1.8-.3-1.1 0 0z"/><path d="M198.7 118.2c-2.1-.1-.4.3 0 0zm19.9-28.8c1.5 0 2.9.4 4.4-.2h-7.1c-2.6 0-5.2-.2-6 .5 3.6.1 6.3-.3 8.7-.3z"/><path d="M249.2 101v1.6c0 .7.1.9.1.4-.1-5.7.1-9.3.2-13.3v-.4h-.4c-1.9 0-3.9 0-6.2.1.2 0 .5.2 0 .2s-.3.2-.4 0a5.9 5.9 0 0 0-2-.2c-6 0-14.5-.1-19.8.4h-6c-1.4-.2-1.4.4 0 .2h2.8c4.3-.1 9.5.2 13.1-.2.6-.1 1.2.4 2 .4s1.6-.3 2.4-.2 3.7.3 5.6.4l2-.2c2.1 0 4.7.3 6.6.2l-.7-.7a12.4 12.4 0 0 0 .1 1.3c0-.5 0-.7.2-.8s.2-.2 0 0v4.3c0 .6.4.2.5.9a1.1 1.1 0 0 0-.3.7c.3.5.1 2.5.2 3.6s-.1.8 0 1.3zm-8.3-11c-.2-.1.3-.2.4-.2s-.3.3-.4.2zm4 .2c-.1-.4 1.4-.1 2-.2h2c-.6.4-2.9.1-4.1.2zm-1.2-.4c1.1-.4 3.6-.1 5.4-.2h.1c-1.5.4-3.9.1-5.6.2zm5.2 3.2c.2 0 .1.5.2.8s-.2-.5-.2-.8zm0 1.2c.1-.2.2.3.2.4s-.3-.3-.2-.4zm-46.3 24c.1 0 .6-.1.4-.1s-.6.1-.4.1zm-4-.1c2.4.2 2.3-.1 0 0zm7.7-28.7c.5.7 2.1-.3 0 0zm3.2 0c-2.5-.3-.9.7 0 0z"/><path d="M242.9 89.4c-.3 0-.4.1-.4.2h.4zm-40.7 28.5c-.6 0-4.8-.2-3.5.2-.6-.1 5.9-.1 3.5-.2zm46.9-5.8c.1-2.1 0-4.6-.1-6.4s.2-3.4-.2-3.7c0 2.5.2 3.4.1 5.5.1 0 .1.2.2.5s-.1.2-.1.7.1 3.1.1 5.2v-1.8zm-41 5.8c-.1 0-.6 0-.4.1s.6 0 .4-.1zm-1.6 0c-.1 0-.6 0-.4.1s.6 0 .4-.1zm-1.2 0c-.1 0-.6 0-.4.1s.7 0 .4-.1z"/><path d="M204.1 117.9c-.3 0-.8 0-.8.1zm-26.3-13.5V100c-.4-1 0 3.3-.3 3.6s0 .8.3.8zm-.2-6.3c-.1-.6-.2 0 0 0zm31.1-8c.6-.1 0-.3 0 0zm.8 0c.7-.1 2.3.3 2.4-.2h-1.2c-.5 0-1.1-.1-1.2.2zm2.8 0c.3-.1.8 0 .8-.2s-.8-.1-.8.2zm36.7 9.6c-.3-2.4-.4 1.9 0 2s-.2-1.3 0-2zm-58.4 18.1c-.1 0-.6.1-.4.1s.7-.1.4-.1zm-4.7-.1c-.1 0-.6.1-.4.1s.6 0 .4-.1zm-.8 0c-.1 0-.6.1-.4.1s.6 0 .4-.1zm-7.3-11.3c0-.6.1-1.5-.2-1.6s-.1 1.5.2 1.6zm-.2-9.9c-.2 1.6.5.1 0 0zm25.6-6.2c.3-.1.8 0 .8-.2s-.8 0-.8.2zm3.1 0c.3-.1.8 0 .8-.2s-.8 0-.8.2zm2.4-.2c-.6.1 0 .3 0 0zm40.1 8.4c.3 0 0-1.7.1-2.3s-.1 1.6-.1 2.3zm.2 15.5c-.1.2 0 .5 0 0zm-50.9 3.7c-.1 0-.6.1-.4.1s.7-.1.4-.1zm-19.2-.6c0-.1-.1-.6-.1-.4s0 .6.1.4zm70 .7c0-.1-.1-.7 0-.4s0 .6 0 .4zm-47.1-1.3c-.1 0-.6 0-.4.1s.6-.1.4-.1z"/></g><path d="M193.2 108.6c-.2-.5-.8-.1-1.2-.2s.2.1.5.4.5 0 .7-.2zm17.5.5c0 .1.2-.1.1-.2s-.1.1-.1.2zm-23.8-.7h.5c.1-.4-.6-.4-.5 0zm5.6.5v.2c.1-.1.1-.2 0-.2z" fill="none"/><path d="M192.7 108.9c.3.7.7-.3 1.2 0s-.6-.6-.8-.2-.2.1-.4.2zm-5.3 0h2.6a3 3 0 0 0-2.6 0zm-.5-.3c.1.3.1 0 0 0zm2.1-.6c0 .1.2-.1.1-.2s-.2.1-.1.2zm5.2.9c.1 0 .3 0 .3-.2s-.3-.1-.3.2zm-2.5-.3h-.5c0 .3.3 1.1.4.4s-.2 0-.2-.2.7 0 .3-.2zm-2.5-.2c0 .1.2-.1.1-.2s-.2.1-.1.2zm1.1-1.1h-.1c0 .3.1.1.1 0zm.2 1.6c0-.5.5-.1.7-.2s-1.2-.3-.7.2zm-1.3-.9c0 .1.2-.1.1-.2s-.2.1-.1.2zm1.1 1.3c.1 0 .2 0 .2-.2s-.2 0-.2.2zm.7 0c0 .1.2-.1.1-.2s-.2.1-.1.2zm39.9.2c.3-.1.9.3 1.1-.2h-.5c-.3.1-.7-.3-.6.2zm-.4-.4c.5-.1 1.3.3 1.6-.2s-1.2-.3-1.6.2zm2.4.2c.1 0 .2 0 .2-.2s-.2 0-.2.2zm-3.1 0c0 .1.2-.1.1-.2s-.2.1-.1.2zm2.4.2c-.1-.3-.1 0 0 0zm1.1-.2c0 .1.2-.1.1-.2s-.2.1-.1.2zm-3-.7v.2c.1 0 .1-.2 0-.2zm0 .3h-.1c0 .2.1.1.1 0z" fill="none"/><path d="M235.8 105.5c0-.1-.2.1-.1.2s.2-.1.1-.2zm-43.1.2c0-.1-.2.1-.1.2s.2 0 .1-.2zm27.5.7c0-.1-.2.1-.1.2s.2-.1.1-.2zm-34.3.7c0-.1-.2.1-.1.2s.2-.1.1-.2zm3.7 0c0-.1-.2.1-.1.2s.2-.1.1-.2z" fill="#ee8e0d"/><path d="M197.6 108.2a16.6 16.6 0 0 1-2.6.2c-.4-.1-1-.6-1.6-.7s-1.3.1-1.8-.4-.6.8-.7.2.3 0 .3-.2-.4 0-.9 0-.1.3-.1 0h.1v-.2c-.6 0-.6.1-.2.4H189c-.8.7-1.3.2-2.2.4s0 .4.1.4.6-.4.5 0h-.5v.2c.1 0 .1.3 0 0a.5.5 0 0 0-.4.4c.5.3.8-.6 1-.2a3 3 0 0 1 2.5 0h-2.5a.8.8 0 0 0 .7.4c.1 0 .1-.3.2-.2s0 .2.1.2.1-.3.2-.2 0 .2.1.2.2-.1.5.2 2.5.4 3.2-.4v-.2c-.3-.3-.4.3-.5-.4s1-.3 1.2.2.6-.1.8.2-.9.7-1.2 0 .4.1.4-.2-.6-.3-.7.2.1.2 0 .2 1.6-.1 2 .2.1-.4.2-.4.1.4.2.4.1-.5.3-.4a2.5 2.5 0 0 1 1.8 0c0-.5.5 0 .6-.5zm-8.6-.2c-.1-.1.1-.3.1-.2s-.1.2-.1.2zm.2.4c-.1-.1.1-.3.1-.2s-.1.3-.1.2zm0-.4c-.1-.1.1-.3.1-.2s-.1.2-.1.2zm1.1 1.3c0-.2.1-.2.2-.2s-.1.2-.2.2zm.7 0c-.1-.1.1-.3.1-.2s-.1.3-.1.2zm.4-.4c0 .2.1.3.2.2s-.4-.1-.4-.4-.6-.3-.7.2.7-.7.7-.2h.5c.4.1-.2.2-.3.2zm2.7 0c0-.3.2-.2.3-.2s-.1.1-.2.2zm13.5-1.4c0-.1-.2.1-.1.2s.1-.1.1-.2zm-1.5.7c1-.4-.6-.4 0 0zm-7.2.4c.2-.4.9 0 1.1-.4s-.7 0-.8 0-1.4-.7-1.1 0 1.1-.3.8.4zm2.9-.2h2.5c-.6-.3-2-.5-2.5 0zm-17.3 0c0 .1.2-.1.1-.2s-.2.1-.1.2zm.4 0c.3 0 .7-.1.4.4l.7-.2c.1-.8-1.4-.4-1.1-.2zm1.3 0c0 .1.2-.1.1-.2s-.1.1-.1.2z" fill="#ee8e0d"/><path d="M186.7 108.2c0-.1-.2.1-.1.2s.1-.1.1-.2zm11.1 0c0-.1-.2.1-.1.2s.1-.1.1-.2zm3.6 0c-.4.1-1.1-.3-1.3.2s1.1.3 1.3-.2zm.3 0c0-.1-.2.1-.1.2s.2-.1.1-.2z" fill="#ee8e0d"/><path d="M218.9 108.4c-3 .4-7.5 0-10.9 0l-2.6-.2c-.1 0-.1.5-.2.4s-.1-.7-.2-.4-.1.1-.1 0-.2.3-.4.2-3.4.3-4.9.4-.7-.3-.7.4a34.8 34.8 0 0 1 9.6-.2c.4-.4.6.1 1.1-.2s.3 1.1.4.4-.2-.2-.2-.4.9-.3 1 .2-.3 0-.3.2.4.2.7.2-.2-.7.2-.7 2.4.5 3.4-.2a34 34 0 0 0 4.3.2c.1 0 .1-.2.2-.2s-.3-.1-.4-.1zm-8.1.7c-.1-.1.1-.3.1-.2s-.1.2-.2.2z" fill="#ee8e0d"/><path d="M219.4 108.2l-.3.4c.2.4.9.3 1.1 0v-.2c-.4.2-.6.3-.8-.2zm16.1 0h-2.1c-.1 0-.2 0-.2.2s1.7.3 2.3-.2zm.3 0c-.1 0-.2 0-.2.2s.2 0 .2-.2zm.9.2c-.5-.6-.3.7 0 0zm-38.3.2c.6.2.1-.7 0 0zm25.2 0c.4 0 .8.4 1.2-.2h-2c-.7 0-1.4-.2-1.6.4a7.7 7.7 0 0 0 2.4-.2zm11.5.3h.4c.2.1.2-.2.1-.2-2.3.3-3.5-.6-5.4 0 .1 0 .1.2 0 .2s-.1.3-.1 0a.5.5 0 0 0-.5-.2 23.4 23.4 0 0 0-5.5.4h-1.6c-.4-.2-.4.4 0 .2h.8c1.2-.1 2.6.3 3.6-.2s.3.4.5.4.4-.3.7-.2 1 .4 1.5.4l.5-.2c.7 0 1.6.6 2.2.2s-.2 0-.2-.2-.1-.3 0 0h1.2c.2 0 0-.7.2-.7s.1.4.2.4.7-.1 1-.2.3-.1.4-.1zm-5.4.4c-.1-.1.1-.3.1-.2v.2zm1.1.2c0-.5.4-.1.5-.2h.5c0 .5-.6.1-.9.2zm-.3-.4c.3-.5 1.1-.1 1.6-.2s-1.1 0-1.6.2zm2.4.2c0-.2.1-.2.2-.2s-.1.2-.2.2zm.3 0c-.1-.1.1-.3.1-.2v.2zm-47.2-.7c0 .7.5-.2 0 0zm11.3 0c0-.1-.2.1-.1.2s.2 0 .1-.2zm1.1.3v-.2c-.6-.2-.6.3 0 .2zm21.8-.3c.1.7.6-.2 0 0zm.9 0c-.7-.3-.2.7 0 0z" fill="#ee8e0d"/><path d="M230.3 108.6c-.1 0-.1.1-.1.2h.1zm-32.9.7c.2 0 1.3.3 1-.4s-1.6.3-1 .4zm40.8-.4c-.6-.2-1.3.2-1.8.2s-1-.4-1 .4.9-.3 1.5 0 0-.4.1-.4.1.4.2.4.8-.3 1.4-.2-.2-.3-.4-.4zm-42.4.4c0 .1.2-.1.1-.2s-.2.1-.1.2zm.4 0c0 .1.2-.1.1-.2s-.1.1-.1.2zm.4 0c0 .1.2-.1.1-.2s-.2.1-.1.2zm.3 0c.1 0 .2 0 .2-.2s-.2 0-.2.2zm11.2.2h1.2c.3-.5-.9.1-1-.4s-.2.1-.2.4zm1.8-.2c.2-.1 0-.3 0 0zm11 0c.2-.1 0-.3 0 0zm.2 0c.2-.1.6.3.7-.2h-.3c-.2 0-.4-.1-.4.2zm.7 0c.1 0 .2 0 .2-.2s-.2 0-.2.2zm13-.2c-.6.5.6.8.5 0s-.3.4-.5 0zm-34.2.4c0 .1.2-.1.1-.2s-.1.1-.1.2zm1.4 0c0 .1.2-.1.1-.2s-.2.1-.1.2zm.2 0c0 .1.2-.1.1-.2s-.2.1-.1.2zm5.4 0c.2 0 .4.1.4-.2s-.4-.1-.4.2zm2.7-.2c-.5-.2 0 .7 0 0zm9 .2c.1 0 .2 0 .2-.2s-.2 0-.2.2zm.9 0c.1 0 .2 0 .2-.2s-.2 0-.2.2zm.7-.2c-.2.1 0 .3 0 0zm13.6.2c0-.5-.5-.1-.7-.2s.5.1.7.2zm4.3-.2c.1.3.1 0 0 0zm-40.3.4c0 .1.2-.1.1-.2s-.1.1-.1.2zm6.1 1.6c0 .1.2-.1.1-.2s-.2.1-.1.2zm35.3.5c0-.1-.2.1-.1.2s.1-.1.1-.2zm-42.5.6c0 .1.2-.1.1-.2s-.1.1-.1.2z" fill="#ee8e0d"/><path d="M187.4 97.8c-.5-.1-.4.5-.6.7s.2-.1.6-.2 0-.3 0-.5zm11 .1c0 .1.1-.1.2-.2s-.2 0-.2.2zM184.7 99l.3.2c.1-.3-.1-.5-.3-.2zm2.7-.7z" fill="none"/><path d="M187.4 98.2c.7.1 0-.6.5-.8s-.8 0-.5.4 0 .3 0 .4zm-2.7 1.4a1.5 1.5 0 0 0 1.6.2h-1.6zm-.2-.4c-.2.3.1 0 0 0zm1.2-.2v-.2.2zm2.3-1.7c0-.1.2-.1 0-.3s-.2.1 0 .3zm-1.1 1.4l-.2.3c.3.2 1.1.4.5 0s-.1.1-.3 0 .3-.4 0-.3zm-1.1.8c0 .1.1-.1 0-.2s-.1.1 0 .2zm-.2-1.1zm1 1.1c-.3-.3.1-.3.1-.5s-.3 0-.4.1a.3.3 0 0 0 .3.4zm-.9-.5v-.2.2zm1.1 1c0-.1.1-.1 0-.3s-.2.1 0 .3zm.4-.4c.1 0 0-.2-.1-.2s0 .1.1.2zm21.4-2.8c.3 0 .5.6.8.2l-.3-.2c-.2.1-.3-.4-.5 0zm0-.5c.4 0 .7.7 1.2.4s-.8-.7-1.2-.4zm1.4 1.1c.1 0 .1.1.3-.1s-.2-.1-.3.1zm-2-1.1c0 .1.1-.1.2-.2s-.2.1-.2.2zm1.4 1c.1-.3-.1 0 0 0zm.8.2c0 .1.2 0 .2-.2s-.2.1-.2.2zm-1.6-1.7v.2s.1-.1 0-.2zm-.1.2h-.1c0 .3.1.2.1 0z" fill="none"/><path d="M213.2 94.7c0-.1-.1.1-.1.2s.1-.1.1-.2zm-28.6 2.1c-.1 0 0 .2.2.2s0-.2-.2-.2zm18.6 3zm-17.8-2zm.3.8zm5-2.2a3.3 3.3 0 0 0-2.4.1 2.8 2.8 0 0 0-1.6.7c-.4.5-.4 1-1 .9s.5.6.1.3.1-.1-.1-.2-.1 0 0 .1h.1c0 .4-.2.4-.3.3l-.4-.3-.3.4c.2-.3.5-.1.3.2l-.3-.2v.2c.1 0-.2.3 0 0s-.3-.1-.5.1.8 0 .7.3h1.6a1.5 1.5 0 0 1-1.6-.2.5.5 0 0 0 .2.6c.1 0 .2-.2.2-.2s-.1.2 0 .2.2-.3.2-.2 0 .2.1.2.1-.1.5.2a2.9 2.9 0 0 0 1.4-.9 1 1 0 0 0 .1-1.2h-.2c-.4.1.1.4-.6.2s.1-.8.6-.7.2-.5.5-.4.2.9-.5.8.2-.2 0-.4-.5.3 0 .5.2 0 .2.1.5-.3.5-.5.2-.5.4-.4-.2-.4-.1-.4l.4.3c-.1-.3-.1-.5 0-.5s.8-.4 1.3 0 .3.5.5 0zm-5 2.6v-.2.2zm.1.4v-.2.3zm0-.4v-.2c0 .1-.1.3-.1.2zm1.1 1c-.1-.2 0-.2 0-.3s-.1.2-.1.3zm.4-.4c-.1 0-.2-.2-.1-.2s0 .2 0 .2zm-.3-.6c.2.1.3.1.3 0s-.3.2-.5 0-.4.1-.1.5a.3.3 0 0 1-.3-.4c0-.1.2-.2.4-.1l.2-.3c.2-.1.1.3 0 .3zm1-1.8c-.2-.2 0-.3 0-.3v.4zm7.3.7c-.1 0 0 .2.1.2s0-.2-.1-.2zm0 1c0-.3-.1-.3-.1-.2s-.1.1.1.2zm-3.9-1.6c.4-.2.5.5.9.2s-.4-.4-.5-.4l-.3-.5c-.2-.2-.4-.3-.4 0s1 .3.3.7zm1.8 1.3a3.4 3.4 0 0 0 1.4.7c-.3-.4-.8-1-1.4-.7zm-9.3-.8zm.1.3c.1.2.3.3-.3.4l.4.3c.4-.2.3-.5.2-.6s-.2-.3-.3-.1zm.4.6zm.3.1zm6.2-2.3c0-.1-.2 0-.2.2s.2-.1.2-.2zm2.2 1.7c-.3-.1-.3-.7-.8-.4s.4.7.8.4zm.2.1z" fill="#ee8e0d"/><path d="M203.6 100.1a4.5 4.5 0 0 1-3.3-1.4 5.8 5.8 0 0 0-1.8-1.4 1.8 1.8 0 0 0-1.4 0 2.5 2.5 0 0 0-.9.8l-.6.7-.5.2s.1.5 0 .5-.1-.7-.2-.4 0 .1 0 0-.1.3-.2.2a2 2 0 0 1-1.5-.4l-1.5-1.1c-.1-.1-.2-.6-.6.1s1.9 1.3 3 1.7a1.9 1.9 0 0 0 1.7-.1 10.5 10.5 0 0 0 1.2-1.1c-.1-.2 0-.3.1-.4a.5.5 0 0 0 .4-.3l.3.5c.1.1.1.2.1-.2s-.1-.1-.2-.4h.4c.2 0 .3 0 .3.3s-.2-.1-.2.2.2.3.3.3.1-.7.4-.5 1 1.6 2.1 1.4a4.8 4.8 0 0 0 2.7 1.4l.2-.2c-.2-.8-.2-.4-.3-.4zm-5.2-2.2c0-.1.2-.2.2-.2l-.2.2z" fill="#ee8e0d"/><path d="M203.7 100.1v.2c0 .2.2.3.3.2a.3.3 0 0 0 0-.4h-.2v.2h-.1zm8.4-3l-1.1-.5h-.2c-.1 0-.1-.1-.2.1s1 .8 1.5.4zm.2.1c-.1 0-.1 0-.2.2s.2 0 .2-.2zm.5.4c-.2-.7-.4.7 0 0zm-21.7-.4c.2.5.5-.5 0 0zm13.3.5c0-.3.5-.5.1-1a5.6 5.6 0 0 0-.4 1.5c-.1.5-.4 1 .3 1.3a5.1 5.1 0 0 0 0-1.8z" fill="#ee8e0d"/><path d="M211.7 97.7h.3c.1.1.2-.1.1-.2-1.7-.3-1.9-1.6-3.5-1.7 0 0 0 .2-.1.2s-.2.2-.1 0-.2-.3-.3-.4a2.8 2.8 0 0 0-2.2 0 1.8 1.8 0 0 0-1 1.8v1.2c-.2.3.3.3.2 0v-.5a2.4 2.4 0 0 1 .4-1.2l.7-.9c.1-.1.3.3.5.3s.2-.3.4-.3.6.5.8.6h.4c.5.2.7 1 1.3.9s-.1-.1 0-.3.1-.3 0 0l.8.4c.1 0 .3-.6.5-.5s-.1.4-.1.5.5.1.8.1h.1zm-3.7-1.4c0-.1.2-.2.2-.2s-.2.3-.2.2zm.6.5c.2-.4.3 0 .4 0l.3.2c-.3.4-.4-.2-.7-.2zm0-.5c.4-.4.8.3 1.2.4s-.8-.4-1.2-.4zm1.4 1c.1-.2.2-.1.3-.1s-.2.1-.3.2zm.2.1c0-.1.2-.2.2-.2l-.2.3zm-26.1 1.4c-.5.4.4.1 0 0zm6.3-2.1c0-.1-.2.1-.2.2s.2 0 .2-.2zm.6.6v-.2c-.2-.3-.5.1 0 .2zm13 2.8c.3.1.3-.1.2-.1s-.3 0-.2.1zm.1-.5c-.3.4.6.3 0 0z" fill="#ee8e0d"/><path d="M208.6 95.8c0-.1-.1 0-.2.2h.1zm-18.4 1.6c.1 0 .6.7.8-.1s-.3 0-.6 0-.4 0-.2.1zm23.6.8c-.4-.3-.9 0-1.3-.1s-.5-.6-.8.2.8-.1 1.1.3.1-.4.2-.4 0 .4.1.5.7-.2 1.1 0-.3-.3-.4-.5zm-24.6-1c0 .1.1-.1.1-.2s-.2.1-.1.2zm.2 0c0 .1.1-.1.1-.2s-.1.1-.1.2zm.2 0c0 .1.1-.1.1-.2s-.1.1-.1.2zm.2.1c.1 0 .1 0 .2-.2s-.1 0-.2.2zm7.4 1.4l.5-.4c0-.3-.1-.2-.3-.1s-.2.3-.4.1-.1.2.2.4zm.6-.7c.1-.1 0-.3 0 0zm6.9 1.8c-.1-.1-.3 0 0 0zm.1-.1c-.1-.2.3-.4-.1-.5v.2c-.1.1-.2.2.1.3zm0-.6c0-.1 0-.2-.2-.2s0 .2.2.2zm6.6-1.3c-.7.3.1.9.4.1s-.5.3-.4-.1zm-19.6 1.1zm.8.6c0 .1.2 0 .2-.1zm.2.1c0 .1.2 0 .2-.1s-.2 0-.2.1zm4.1-.6c0-.1.2-.2 0-.4s-.2.2 0 .4zm1.1-1c-.1-.1-.1.1-.1.2s.1.1.1-.2zm5.9 3.2c.1-.1.3-.1.2-.3s-.2.1-.2.3zm.9-.8c0-.1.1-.2-.2-.3s0 .3.2.3zm-.1-.6c.1.1.3 0 0 0z" fill="#ee8e0d"/><path d="M211 98.1c.2-.5-.3-.2-.4-.4s.3.2.4.4zm3.2.6c0 .3.1 0 0 0zm-23.6-.6zm4 4c0 .1.3-.1.2-.2s-.3.1-.2.2zm20.3-.8c0-.1-.2.1-.1.2s.1-.1.1-.2zm-26-1.1z" fill="#ee8e0d"/><g fill="#ee8e0d"><path d="M179.3 187.6l-.4 1.3-.2.3a4.7 4.7 0 0 0-.5 1.7v.8l-1.3 4.6c-.2.2-.4.3-.5.5s.1.6.1.9a3.2 3.2 0 0 1-.1.6l-.4 1.6 1.6-.7c1.3-.5 2.8-.1 3.9-1a11.5 11.5 0 0 1 2.3-1.5l.9-.4 3.8-1.7.8-.2a7.7 7.7 0 0 0 2.2-1.3l.5-.3h.4l1-.3.5-.5.5-.2a1.9 1.9 0 0 0 1.1-.5.8.8 0 0 1 0-.3h.7v-.3a1.5 1.5 0 0 0 1.4-.9l.4-.2a3.9 3.9 0 0 0 .7-.9h.1a1.9 1.9 0 0 1 1.2-.4v-.2a1.9 1.9 0 0 0 1.1-1.4l.3-.2a1.5 1.5 0 0 0 1-.8l.5-.5 2.1-2.7.2-.3.5-.6.2-.4a8.1 8.1 0 0 0 1-1.8l.3-.5h.1l.5-1h.1c.1-.4.2-.5.3-.4v-.5a5 5 0 0 0 .6-2.2 7.3 7.3 0 0 0 .2-1.3c0-.8-.1-1.1-.1-1.2a9.3 9.3 0 0 0-.2-1h-.2a8.7 8.7 0 0 1 .1 1.6 19.2 19.2 0 0 1-.3 1.9l-.2.6a12.2 12.2 0 0 1-1 2.3l-.7 1.2-1.3 2-.3.4h-.1a5.6 5.6 0 0 0-1.6 1.3 20.2 20.2 0 0 1-2.4 2.2l-1.3 1-1.1 1.1-.8.9-2.9 1.8-.5.2c-.5-.7-2.1.4-2.6.8v.2c-.6.3-1.8 1.1-2.4 1l-.4.7-.8.3a4.5 4.5 0 0 0-1.1-.5c.1.8-.7 1.1-1.1 1.3l-.9.2h-.1l-.8.3a.6.6 0 0 0-.6.8h-.3a3.1 3.1 0 0 0-1.4-.1c-.5.2-.9.7-1.3 1l-.6.5-2.3 1.1h-.6l1.1.9a12.9 12.9 0 0 0 .4-2.1 3.8 3.8 0 0 0 .1-1.6c.4-2.4.8-4.9 1.1-7.3zm28.5-10.2l.2-.6zm.7-2.1zm-16.9 27l-.3-.2h-.1a.5.5 0 0 0-.4-.3h-.2l-1.2-.5c0-.2 0-.4-.1-.4s-.2.2-.3.2-.6-1.1-1.1-.8a1.5 1.5 0 0 1-.8.4h-1.4l-.2-.2c-.2-.2-.5.1-.7.1h-.3c-.1-.1-.1-.3-.2-.3l-.2.2h-.1c-.1-.1-.1-.3-.3-.2v.3-.1c-.1-.3-.2-.4-.4-.1h-.1l-.3.3c-.1-.1-.2-.1-.2-.5h-.7c-.1-.2-.4-.1-.5.3h-.1c-.1-.3-.2-.3-.3-.2h-2.5c-.1.1-.2 0-.1-.1h-.1c-.1-.2-.5 0-.6 0h-.5l.5.2h.2l.7.2h1.2c.1.3.2.4.5.5s1.1.7 1.8.4l.4-.2.9.2h.1c-.1.8.4.8.6.7v-.2c.2 0 .6-.1.7.3l.3-.4h.2a7.4 7.4 0 0 0 0 1c.2-.7.4-.7.6-.6l.2.2h.2c.1.1.2 0 .3-.5h.1c.1.3.1.6.2.7s.4-.3.5-.3l.2-.2h.7c.2.3.4.2.7.2s.3.1.5-.1h2.1zm-13.2-2.7zm-.6-.1z"/></g><g><circle cx="151.1" cy="103.9" r="12.5" fill="#ee8e0d"/><path d="M158.2 114.6c.5.3 1.1-.6 1.5-.9s-.3.2-.9.2-.4.4-.6.7zm-19.3-8.7c.1-.1-.1-.2-.2-.1s.1.2.2.1zm24.8 1.5l-.2.8c.3.2.6-.7.2-.8zm-4.9 6.4v-.2c-.2.2 0 .3 0 .2z" fill="none"/><path d="M158.6 114c-.7-.3-.7.8-1.4.9s1 .1 1.1-.4.1-.3.3-.5zm4.4-5.9a12.1 12.1 0 0 1-1.7 3.2 4.2 4.2 0 0 0 1.7-3.2zm.5-.7c-.3 0 0 .2 0 0zm-.6 3.1c-.1 0 0 .3.1.3s0-.3-.1-.3zm-6 4.6c-.2.1-.4.2-.3.4s.4-.1.3-.4zm2.9-1.8l.6-.6c-.2-.2-1.1-.5-.8.1a.2.2 0 0 1 .4 0c-.2.1-.7.7-.2.5zm2.5-2.7c-.1 0 0 .3.1.3s.1-.3-.1-.3zm0 2h.1c-.2-.3-.2-.1-.1 0zm-1.4-.7c.4.3-.4.6-.5.9s.5-.1.7-.4.2-.6-.2-.5zm1.8-1.1c-.1 0 0 .3.1.3s.1-.3-.1-.3zm-2 .6c0 .1-.2.2 0 .4s.2-.3 0-.4zm-.6.7c-.1 0-.1.2.1.3s.1-.3-.1-.3zm-2.8-18.4c.5.1.9 1 1.4.7l-.6-.5c-.2 0-.5-.6-.8-.2zm-.1-.6l1 .7a1.4 1.4 0 0 0 1 .4l-1-.8a1.3 1.3 0 0 0-1-.3zm2.5 2.2c.1.1.2.2.4.1s-.2-.3-.4-.1zm-3.6-2.5c0 .1.3 0 .2-.1s-.2 0-.2.1zm2.7 1.9c.1-.3-.1-.1 0 0zm1.2.9c0 .1.2.1.3 0s-.2-.1-.3 0zm-2.9-3.1v.2a.1.1 0 0 0 0-.2zm-.1.2h-.1c-.1.2 0 .1.1 0z" fill="none"/><path d="M165.4 96.8c0-.1-.2-.2-.3-.1s.2.2.3.1zm-5 19.7c.1 0 .2-.3 0-.3s-.1.3 0 .3zM141.9 92c-.1 0-.2.3 0 .3s.1-.3 0-.3zm23.4 14.2c.1 0-.1-.3-.2-.2s.1.3.2.2zm-2.2 5.7c.1 0 .1-.3-.1-.3s0 .3.1.3zm-10.8 5.2a21.2 21.2 0 0 0 3.7-1.1 9.7 9.7 0 0 0 2.5-.6c.9-.5 1.5-1.2 2.4-1.4s.1-1.2.6-.9-.4.3-.2.5.5-.4.9-1.1-.1-.3.1-.1h.1c.6-.7.5-.8-.1-.6a13.3 13.3 0 0 0 1-1.5c0-1.4.7-1.9.9-3.3s-.4-.1-.5 0 .1 1-.2.8l.2-.8h-.2c0 .2-.3 0 0 0a.6.6 0 0 0-.3-.7c-.5.6.2 1.2-.2 1.4a4.2 4.2 0 0 1-1.7 3.2 12.1 12.1 0 0 0 1.7-3.2c-.4.1-.7.6-.7.7s.2.3.1.4-.2-.1-.3 0 .2.3.1.4-.2-.1-.3 0 0 .3-.6.5a3.5 3.5 0 0 1-.6 1l-.8.9-.7.8a2.5 2.5 0 0 0-.4.9v.2c.6 0 .3-.6.9-.2s-1 1.2-1.5.9-.7.6-1.1.4.7-1.2 1.4-.9-.5.3-.4.6.9-.3.6-.7-.3 0-.1-.2-1.8 1.3-2.5 1.2.1.4-.1.5-.3-.3-.5-.3 0 .5-.3.6l-1.1.5a2.7 2.7 0 0 1-1.3.1c.4 1-.5.6-.5 1.1zm10.6-6.6c.1 0 .2.2.1.3s-.2-.3-.1-.3zm-.6.1c.1 0 .2.2.1.3s-.1-.3-.1-.3zm.4.2c.1 0 .2.3.1.3s-.2-.3-.1-.3zm-2 .6c.2.1 0 .3 0 .4v-.4zm-.6.7c.1 0 .1.3.1.3s-.1-.4-.1-.3zm-.1.8a.2.2 0 0 0-.4 0c-.3-.6.5-.3.8-.1s.8-.5.5-.9.4.2.2.5-.5.6-.7.4l-.6.6c-.5.1 0-.5.2-.6zm-3.2 2.3c.1.2-.2.3-.3.4s.2-.4.4-.5zm-17.7-4.3c0 .1.2.2.3 0s-.3-.2-.3 0zm1.7 1.4c-1.2-1 .3 1 0 0zm9.5 4.4c-.4.4-1.3-.2-1.7.2a1.8 1.8 0 0 0 1.1.2l1 .3c.5.1.8.1.6-.2s-1.6.2-1-.5zm-4.3-.8a14.5 14.5 0 0 1-3.2-1.9 5.9 5.9 0 0 0 1.5 1.4 2.6 2.6 0 0 0 1.7.5zm18.2-12c-.1 0 .1.2.2.2s-.1-.3-.2-.2zm0 .7c0 .4 0 1.1-.5.6s0 .4.1 1 .6-.3.6-.8-.1-1.1-.2-.8zm-.3 1.9c-.1 0 0 .3.2.2s0-.3-.2-.2z" fill="#ee8e0d"/><path d="M164 107.2c.1 0 0-.3-.2-.2s0 .2.2.2zm-12.1 9.9c.1.1.2-.1.1-.2s-.1.1-.1.2zm-5.3-.7c.6.1 1.5.7 1.9.3s-1.4-.7-1.9-.3zm-.5-.2c0 .1.3 0 .2-.2s-.2 0-.2.2zm-4.4-21.3a15.8 15.8 0 0 0-3.3 6.9 12.6 12.6 0 0 0 1.1 8 17.1 17.1 0 0 0 2.1 3.3c.1.1.4-.3.5-.1s-.4.6-.1.5.2 0 .1.1.4 0 .6.3a26.5 26.5 0 0 0 3.1 1.6 11.3 11.3 0 0 0 3.6.8c.2 0 1 .4 1-.4a9.5 9.5 0 0 1-3.1-.2 11.6 11.6 0 0 1-3.3-1.4 12 12 0 0 1-2.6-2.4 10.6 10.6 0 0 1-1.6-2.8c-.7-.3-.2-.8-.8-1.4s1-.7.3-.7-.1.3-.4.4-.6-1.2-.1-1.4 0 .4.3.4.1-.6.1-.9-.7.4-.7-.2a4.7 4.7 0 0 1-.1-1.3c0-.4.1-.8.2-1.2a5.8 5.8 0 0 0 .2-2.3 15.1 15.1 0 0 1 3.2-5.2c.1-.1-.1-.3.1-.4s-.3-.2-.4 0zm-2.8 11c-.1.1-.3-.1-.2-.1s.3 0 .2.1zm3.2-11.7a1.2 1.2 0 0 1-.1.6c.5.2 1.1-.7 1.2-1v-.2c-.5.5-.5.8-1.1.6zm20.7 3.3l-.7-1.1-.8-1.1-.3-.3c-.1-.1-.2-.2-.4-.1s1.3 2.2 2.2 2.6zm.2.5c-.1-.1-.1-.3-.3-.2s.1.3.3.2zm.3 1.3c.3-1-.8-.1 0 0zM151 116.7c-.8-.3-.2.7 0 0zm-3.4-25.2h.9a1 1 0 0 0 .8-.5l-1.4.3-.7.2-.7.3c-1 .4-2 .7-2 1.5l1.7-.9z" fill="#ee8e0d"/><path d="M162 97.4l.3.5c.1.3.3.2.3 0a33 33 0 0 0-2.4-3.4 6.5 6.5 0 0 0-3.1-2.1.1.1 0 0 1-.1.2c-.1.1-.2.2-.1-.1s-.4-.4-.6-.5a12.7 12.7 0 0 0-4-.9 8.5 8.5 0 0 0-3.8.6l-1.2.3-1 .4c-.6.1-.3.6.1.2l1-.4 1.2-.3 1.3-.2h1.3l1.2-.2c.2-.1.4.5.7.6s.6-.2.9 0a18 18 0 0 1 1.8 1.1h.8c.9.5 1.6 1.6 2.3 1.8s-.2-.2-.1-.4.1-.3 0 0l1.2 1.1c.2.1.5-.4.7-.2s-.2.4-.1.5l1 1c.3.3.2.3.4.4zm-5.8-4.6c0-.1.2-.2.2-.1s-.3.2-.3.1zm1.2.9c.2-.4.5.2.8.2l.6.5c-.6.3-1-.6-1.5-.7zm-.2-.6a1.3 1.3 0 0 1 1 .3l1 .8a1.4 1.4 0 0 1-1-.4zm2.5 2.2c.2-.2.2 0 .4.1s-.3-.1-.4-.1zm.3.3c0-.1.3-.1.3 0s-.3.1-.3 0zm3.8 10.5c-.7-.1.1.7 0 0zm-11.2 10.5c.1.1.2-.1.1-.2s-.2.1-.1.2zm-1.6-.1v.2c.9.2.8-.4 0-.2zm-7.7-22.7c.6.4.5-.7 0 0zm1-.8c-1 .3.1.7 0 0z" fill="#ee8e0d"/><path d="M157.1 92.5c-.1-.1-.2 0-.2.1h.1zm-4.8 23.5c-.2 0-1.8-.2-1.4.5s2.4-.5 1.4-.5zm11.2-14.5a3 3 0 0 0-.3-1.3l-.6-1c-.2-.4-.2-1.4-1-1s.9 1 .8 1.9.4-.1.5 0-.3.2-.3.4.6 1 .6 1.9.2-.6.3-.9zm-8.9 14.1c-.1 0-.2.2-.1.3s.2-.3.1-.3zm-.6.1c-.1 0-.2.2-.1.3s.2-.2.1-.3zm-.5.1c-.1-.1-.2.1-.1.2s.2-.1.1-.2zm-.4.1c-.1.1-.3.1-.3.3s.3-.1.3-.3zm-12.7-6.7a10.6 10.6 0 0 1-.6-1.5c-.6-.2.5 1.1.1 1.4s.3.2.5.1zm-1-2.2c-.2-.2-.3.1 0 0zm5-13.2c.1-.2-.2-.2 0 0zm.3-.2c.2-.2.9-.2.7-.7l-.4.2c-.2.2-.5.3-.3.5zm.9-.5c.1-.1.3-.1.2-.3s-.3.1-.2.3zm15.9 4.1c-.9-.4-.2 1.1.4.7s-.6-.3-.4-.7zM148 115.4c0-.1-.2 0-.2.2s.3-.1.2-.2zm-1.7-.6c0-.1-.2 0-.2.1s.3.1.2-.1zm-.2-.1c0-.1-.3 0-.2.1s.2 0 .2-.1zm-5.3-4.8c-.2-.2-.2-.5-.5-.4s.2.5.5.4zm-1.6-3.5c-.1.7.7-.1 0 0zm3.7-11.2c.1-.1.2-.2.1-.4s-.2.3-.1.4zm.9-.7c.1-.1.2-.2.1-.4s-.2.2-.1.4zm.6-.7c-.1.2.2.2 0 0zm16.5 3.2c.4-.3-.3-.6-.4-.9s.3.6.4.9z" fill="#ee8e0d"/><path d="M163.2 102.4c-.3.1.1.2 0 0zm-12.4 13.2c0-.1-.2.1-.2.2s.3-.1.2-.2zm-6.3-4c0-.1-.2 0-.2.1s.2 0 .2-.1zm16.3-7.7c.1 0-.1-.2-.2-.1s.1.1.2.1zm-8.8 9c0-.1-.2.1-.1.2s.2-.1.1-.2z" fill="#ee8e0d"/><g fill="#fff8e5"><path d="M157.6 100.8v.2c0 .2.1-.1 0-.2zm-11.9 1.8s-.1.1 0 .2 0-.2 0-.2zm7.5-3zm-9.6 4.5zm1.1-.3zm2.3.4c-.3 0-.5.4-.8.3s-.3-.4-.5-.5-.4.1-.5-.2-.2.5-.2.2.1 0 .1-.2-.1 0-.3.1 0 .1 0 0c-.2 0-.2.1-.1.3h-.3c-.3.4-.4.2-.7.3s0 .1 0 .2.2-.1.2 0h-.2s0 .1 0 0h-.1c.1.1.3-.2.3-.1a.6.6 0 0 1 .7 0h-.6a.3.3 0 0 0 .2.2h.1v.1h.1v.1s.1-.1.2.1.7.4 1-.1v-.2c-.1-.2-.1.2-.1-.3s.3-.2.3.1.2-.1.2.2-.3.5-.4 0 .1.1.1-.2-.2-.2-.2.2v.2c0 .1.5 0 .6.2s0-.4.1-.4a1 1 0 0 0 0 .4c0-.2.1-.4.1-.4s.3-.3.5 0 .2-.2.2-.6zm-2.5.1zm0 .2zm0-.2zm.3.7c0-.1 0-.1.1-.1s-.1 0-.1.1zm.2 0v-.1.1zm.1-.3c0 .1 0 .2.1.1s-.1-.1-.1-.3-.2-.2-.2.1.2-.4.2-.1h.2c.1.2-.1.3-.1.2zm.8 0c0-.2.1-.1.1-.2v.3zm4-1.8zm-.4 1c.3-.5-.2-.5 0 0zm-2.1.7c.1-.4.3 0 .3-.5s-.2 0-.2 0-.4-.6-.3 0 .3-.3.2.5zm.8-.3h.7c-.1-.4-.5-.6-.7 0zm-5.1.2zm.2 0c.1 0 .2 0 .1.1h.2c0-.3-.4-.1-.3-.1zm.4 0zm.1-.1zm3.3-.2c0-.1-.1.1 0 .2s0-.1 0-.2zm1-.1c-.1.2-.3-.3-.4.3s.3.2.4-.3zm.1-.1c0-.1-.1.1 0 .3s0-.1 0-.3z"/><path d="M153.1 103.7c-.8 1-2.2.3-3.1.4s-.5-.2-.8-.2 0 .7-.1.6 0-.9-.1-.6 0 .2 0 0-.1.4-.1.3-1 .4-1.5.6-.2-.3-.2.5a2.9 2.9 0 0 1 2.8-.2c.1-.6.2.1.3-.3s.1 1.7.1.7-.1-.3-.1-.7.2-.4.3.3-.1-.1-.1.3.1.4.2.3-.1-1.1 0-1 .7.8 1-.4a2 2 0 0 0 1.3.3 3.8 3.8 0 0 1 0-.4c.2-1.2.2-.5.1-.5zm-2.3 1.4v-.3c0 .1.1.4 0 .3zm2.5-1.8a7.2 7.2 0 0 1 0 .9c.1.9.3.5.3 0v-.5c-.2.3-.2.7-.3-.4zm4.6.1h-.6c0 .1-.1 0 0 .3s.6.3.6-.3zm.1.1s-.1 0 0 .2.1 0 0-.2zm.3.2c-.3-.6 0 .6 0 0z"/><path d="M147.2 104.6c.2.2.1-.7 0 0zm7.3-.6c.1-.1.3.8.3-.5h-.6c-.2 0-.4-.4-.4 1s.6-.3.7-.5zm3.5.2h.1c.1.1 0-.2 0-.2a.9.9 0 0 1-.9-.2c-.3-.2-.5-.3-.7.2a.9.9 0 0 1 0 .4c0 .2 0 .4 0 0s-.2-.4-.2-.4-1.2 0-1.5 1h-.5c-.1-.3 0 .8 0 .5h.2c.3-.3.8.4 1-.6s.2.8.3.8.1-.5.1-.5.4.7.5.7.1-.4.1-.4.6.7.7.1-.1 0-.1-.3-.1-.5 0 0h.3c0-.1-.1-.9-.1-.9a2.3 2.3 0 0 0 .2.6c-.1-.7.2-.2.2-.3s.2-.5.3-.5zm-1.5.9v-.4.4zm.4.3c-.1-.8.1-.2.1-.4h.2c0 .7-.3.1-.3.4zm-.2-.7c0-.9.3-.2.4-.4s-.3.1-.4.4zm.7.2v-.3.2zm.1 0v-.3.2zm-13.9-.3c0 .2.1-.1 0 0zm3.3 0c0-.1-.1.1 0 .2s0-.1 0-.2zm.3.2v-.2c-.2-.2-.2.4 0 .2zm6.4-.7c.1 1.4.1-.5 0 0zm.2 0c-.2-.5 0 1.4 0 0zm2.7-.2v.4z"/><path d="M146.9 105.2s.4.3.3-.4-.5.3-.3.4zm12-1.1c-.2-.1-.4.1-.5.3s-.3-.3-.2.5.2-.4.4-.2a.9.9 0 0 1 0-.4c0 .3.1.3.1.3s.2-.3.4-.3zm-12.5 1.1c0 .1.1-.1 0-.2s0 .1 0 .2zm.2 0c0 .1.1-.1 0-.2s-.1.1 0 .2zm.1 0c0 .1.1-.1 0-.2s-.1.1 0 .2z"/><path d="M146.7 105.2s.1 0 .1-.2 0 0-.1.2zm3.4.6h.4c.1-.8-.3.1-.3-.7s-.1.2-.1.7zm.5-.3c0-.2 0-.4 0 0zm3.3 0c0-.3 0-.6 0 0zm0 0c0-.3.2.5.2-.5h-.1c0 .1-.1-.1-.1.5zm.3-.1c0-.1.1 0 0-.5s-.1.1 0 .5zm3.7-1c-.1.7.3.8.2 0s-.1.5-.2 0zm-10.1 1.2c0 .1.1-.1 0-.2s0 0 0 .2zm.4 0c0 .1.1-.1 0-.3s0 .2 0 .3zm.1 0c0 .1.1-.1 0-.3s0 .2 0 .3zm1.6.2c0-.1.1.1.1-.3s-.1-.2-.1.3zm.8-.3c-.1-.3 0 1 0 0zm2.7.4c0-.1.1 0 0-.4s0 0 0 .4zm.3 0c0-.1.1 0 0-.5s0 .1 0 .5zm.2-.4c0 .3 0 .5 0 0z"/><path d="M157.9 105c-.1-.6-.2-.1-.2-.2s.1 0 .2.2zm1.2-.8c0 .1 0 0 0 0zm-11.9 1.5c0 .1.1-.1 0-.2s0 .1 0 .2zm1.8 2.3c0 .1.1-.1 0-.3s0 .1 0 .3zm10.5-3.4zm-12.7 3.6c0 .1.1-.1 0-.2s0 .1 0 .2zm7.8 2.5zm-1.8-11.1zm3.3 7zm-5.1-8.7zm.5 1zm-.2 2c0-.2-.4-.4-.3-.7s.4-.3.4-.4-.1-.3.1-.5-.5-.1-.2-.2h.2c.1-.1 0-.1-.1-.2s-.1 0 0 0h.1c0-.1-.1-.2-.3 0v-.3c-.4-.2-.2-.3-.4-.6h-.2c.1 0 .2.1 0 .1h-.3c-.1.1.2.2.1.3a.5.5 0 0 1 .1.7v-.7l-.2.2c0 .1.1 0-.1.1s-.3.7.2.8h.2c.2-.1-.2-.1.3-.2s.2.3-.1.3.1.2-.1.2-.5-.2 0-.3 0 .1.2.1.2-.2-.2-.2h-.2c-.4.2.1.4-.2.5h.4c.1.2.3.2 0 .5s.2.5.6.5zm-.4-2.2zm-.2.1zm.2 0zm-.7.3zm0 .2zm.3.1h-.1c-.4 0 .1-.1.3-.1s.1-.2-.1-.2.4.1.1.2c-.1.2-.2.1-.1.1zm.1.7zm2.2 3.4zm-1-.4c.5.2.4-.2 0 0zm-.8-1.8c.4 0 0 .2.5.3s0-.2 0-.2.6-.4-.1-.3.3.2-.4.2zm.3.7v.7c.5-.2.6-.6 0-.7zm-.8-4.4zm.1.1c0 .1.1.2-.1.1v.2c.3 0 .1-.4.1-.3zm0 .3zm.1.1zm.7 2.9zm.2.9c-.2-.1.3-.3-.3-.3s-.3.3.3.3zm0 .1z"/><path d="M152 106.4c-1-.7-.3-1.9-.4-2.8s.1-.5.2-.7c-.3 0-.2 0 0 0h-.3c-.4-.3-.4-.9-.7-1.2s.3-.2-.5-.1a2.2 2.2 0 0 1 .3 2.5c.6.1-.1.2.3.3s-1.7.2-.7.1h.7c-.2.1.4.2-.3.3h-.3c.2.1-.3.1-.3.2s1.1-.1 1 0-.8.7.4.9a1.7 1.7 0 0 0-.3 1.1h.4c1.2-.5.5-.5.5-.6zm-1.4-2z"/><path d="M152.5 106.6h-.9c-.9.1-.5.3 0 .3h.5c-.4-.2-.7-.2.4-.3zm-.6 4.1l.2-.5h-.3c.2.1-.4.4.1.5zm0 .1zm-.3.3c.6-.2-.6 0 0 0zm-.6-9.9c-.2.2.7 0 0 0zm.7 6.5c.1.1-.8.3.5.3s0-.3 0-.5.4-.4-1-.4.3.4.5.6zm-.5 3h.2c-.1-.3 0-.5.2-.8s.4-.4-.1-.7h-.4c-.2 0-.4 0 0 0s.4-.1.4-.2.1-1-.9-1.4v-.4c.3-.1-.8-.1-.5 0v.2c.3.3-.4.7.5.9l-.8.2h.4c-.1.1-.7.3-.7.4h.4c0 .2-.8.5-.2.6h.3v.3h.3c.6 0 .1.2.3.2zm-.8-1.4zm-.3.3c.8 0 .2.1.4.1-.7.2-.1 0-.3-.1zm.7-.1c.9 0 .1.3.4.4s-.1-.3-.3-.4zm-.2.6zm0 .1zm-.1-12.2c-.2 0 .1.1 0 0zm.4 2.9zm-.2.3h.2c.2-.2-.3-.2-.2 0z"/><path d="M151.6 106.8c-1.4.1.5.1 0 0zm0 .2c.5-.2-1.4 0 0 0zm0 2.4zm-1.3-8.4s-.3.4.4.2-.3-.4-.4-.2zm.9 10.5c.1-.2-.1-.3-.2-.4s.4-.3-.5-.2.4.2.2.4c0 .1.3.2.3.4zm-.9-11zm0 .1zm0 .1zm0 .1zm-.4 2.9v.3c.8 0-.1-.2.7-.3zm.3 3.4c.3 0-.6.2.5.1h-.5zm0 .2zm.8 3.3c-.7-.1-.8.2 0 .1s-.5 0 0-.1zm-1-8.8zm0 .3zm0 .1zm0 1.4c.1 0-.1.1.3.1s.1-.1-.3-.1zm.3.7c.3-.1-1 0 0 0zm-.5 2.4zm0 .2z"/><path d="M150.5 110.6c.6 0 .1-.1.2-.2l-.2.2zm.5 1.1c-.1 0 0 0 0 0zm-1.2-10.4zm-2.1 1.7zm2.9 9zm-3.3-10.9z"/></g></g><g><circle cx="151.1" cy="150.9" r="12.5" fill="#ee8e0d"/><path d="M158.2 161.6c.5.3 1.1-.6 1.5-.9s-.3.2-.9.2-.4.4-.6.7zm-19.3-8.7c.1-.1-.1-.2-.2-.1s.1.1.2.1zm24.8 1.5l-.2.8c.3.2.6-.8.2-.8zm-4.9 6.4v-.2c-.2.2 0 .3 0 .2z" fill="none"/><path d="M158.6 161c-.7-.3-.7.8-1.4.9s1 .1 1.1-.4.1-.3.3-.5zm4.4-6a12.1 12.1 0 0 1-1.7 3.2 4.2 4.2 0 0 0 1.7-3.2zm.5-.7c-.3 0 0 .2 0 0zm-.6 3.2c-.1 0 0 .3.1.3s0-.3-.1-.3zm-6 4.6c-.2.1-.4.2-.3.4s.4-.2.3-.4zm2.9-1.8l.6-.6c-.2-.2-1.1-.5-.8.1a.2.2 0 0 1 .4 0c-.2.1-.7.7-.2.5zm2.5-2.8c-.1 0 0 .3.1.3s.1-.3-.1-.3zm0 2.1h.1c-.2-.3-.2-.1-.1 0zm-1.4-.7c.4.3-.4.6-.5.9s.5-.1.7-.4.2-.7-.2-.5zm1.8-1.1c-.1 0 0 .3.1.3s.1-.4-.1-.3zm-2 .5c0 .1-.2.2 0 .4s.2-.2 0-.4zm-.6.7c-.1 0-.1.2.1.3s.1-.3-.1-.3zm-2.8-18.3c.5.1.9 1 1.4.7l-.6-.5c-.2-.1-.5-.7-.8-.2zm-.1-.7l1 .7a1.4 1.4 0 0 0 1 .4l-1-.8a1.3 1.3 0 0 0-1-.3zm2.5 2.2c.1.1.2.2.4.1s-.2-.2-.4-.1zm-3.6-2.4c0 .1.3 0 .2-.1s-.2-.1-.2.1zm2.7 1.9c.1-.3-.1-.1 0 0zm1.2.9c0 .1.2.1.3 0s-.2-.2-.3 0zm-2.9-3.1v.2a.1.1 0 0 0 0-.2zm-.1.2h-.1c-.1.2 0 .1.1 0z" fill="none"/><path d="M165.4 143.7c0-.1-.2-.2-.3-.1s.2.3.3.1zm-5 19.8c.1 0 .2-.3 0-.3s-.1.3 0 .3zM141.9 139c-.1 0-.2.3 0 .3s.1-.3 0-.3zm23.4 14.2c.1 0-.1-.3-.2-.2s.1.3.2.2zm-2.2 5.6c.1 0 .1-.3-.1-.3s0 .3.1.3zm-10.8 5.3a21.2 21.2 0 0 0 3.7-1.1 9.7 9.7 0 0 0 2.5-.6c.9-.5 1.5-1.2 2.4-1.4s.1-1.2.6-.9-.4.3-.2.5.5-.4.9-1.1-.1-.3.1-.1h.1c.6-.7.5-.8-.1-.6a13.3 13.3 0 0 0 1-1.5c0-1.4.7-1.9.9-3.3s-.4-.1-.5 0 .1 1-.2.8l.2-.8h-.2c0 .2-.3 0 0 0a.6.6 0 0 0-.3-.7c-.5.6.2 1.2-.2 1.4a4.2 4.2 0 0 1-1.7 3.2 12.1 12.1 0 0 0 1.7-2.9c-.4.1-.7.6-.7.7s.2.3.1.4-.2-.1-.3 0 .2.3.1.4-.2-.1-.3 0 0 .3-.6.5a3.5 3.5 0 0 1-.6 1l-.8.9-.7.8a2.5 2.5 0 0 0-.4.9v.2c.6 0 .3-.6.9-.2s-1 1.2-1.5.9-.7.6-1.1.4.7-1.2 1.4-.9-.5.3-.4.6.9-.3.6-.7-.3 0-.1-.2-1.8 1.3-2.5 1.2.1.4-.1.5-.3-.3-.5-.3 0 .5-.3.6l-1.1.5a2.7 2.7 0 0 1-1.3.1c.4.7-.5.3-.5.8zm10.6-6.6c.1 0 .2.2.1.3s-.2-.3-.1-.3zm-.6.1c.1 0 .2.2.1.3s-.1-.4-.1-.4zm.4.2c.1 0 .2.3.1.3s-.2-.3-.1-.3zm-2 .6c.2.1 0 .3 0 .4v-.5zm-.6.7c.1 0 .1.3.1.3l-.1-.4zm-.1.8a.2.2 0 0 0-.4 0c-.3-.6.5-.3.8-.1s.8-.5.5-.9.4.2.2.5-.5.6-.7.4l-.6.6c-.5.1 0-.5.2-.6zm-3.2 2.3c.1.2-.2.3-.3.4s.2-.4.4-.5zm-17.7-4.4c0 .1.2.2.3 0s-.3-.1-.3 0zm1.7 1.5c-1.2-1 .3 1 0 0zm9.5 4.3c-.4.4-1.3-.2-1.7.2a1.8 1.8 0 0 0 1.1.2l1 .3c.5.1.8.1.6-.2s-1.6.2-1-.5zm-4.3-.7a14.5 14.5 0 0 1-3.2-1.9 5.9 5.9 0 0 0 1.5 1.4 2.6 2.6 0 0 0 1.7.5zm18.2-12c-.1 0 .1.2.2.2s-.1-.3-.2-.2zm0 .6c0 .4 0 1.1-.5.6s0 .4.1 1 .6-.3.6-.8-.1-1-.2-.8zm-.3 2c-.1 0 0 .3.2.2s0-.3-.2-.2z" fill="#ee8e0d"/><path d="M164 154.1c.1 0 0-.3-.2-.2s0 .3.2.2zm-12.1 10c.1.1.2-.1.1-.2s-.1.1-.1.2zm-5.3-.8c.6.1 1.5.7 1.9.3s-1.4-.6-1.9-.3zm-.5-.2c0 .1.3 0 .2-.2s-.2.1-.2.2zm-4.4-21.2a15.8 15.8 0 0 0-3.3 6.9 12.6 12.6 0 0 0 1.1 8 17.1 17.1 0 0 0 2.1 3.3c.1.1.4-.3.5-.1s-.4.6-.1.5.2 0 .1.1.4 0 .6.3a26.5 26.5 0 0 0 3.1 1.6 11.3 11.3 0 0 0 3.6.8c.2 0 1 .4 1-.4a9.5 9.5 0 0 1-3.1-.2 11.6 11.6 0 0 1-3.3-1.4 12 12 0 0 1-2.6-2.4 10.6 10.6 0 0 1-1.6-2.8c-.7-.3-.2-.8-.8-1.4s1-.7.3-.7-.1.3-.4.4-.6-1.2-.1-1.4 0 .4.3.4.1-.6.1-.9-.7.4-.7-.2a4.7 4.7 0 0 1-.1-1.3c0-.4.1-.8.2-1.2a5.8 5.8 0 0 0 .2-2.3 15.1 15.1 0 0 1 3.2-5.2c.1-.1-.1-.3.1-.4s-.3-.2-.4 0zm-2.8 11c-.1.1-.3-.1-.2-.1s.3 0 .2.1zm3.2-11.8a1.2 1.2 0 0 1-.1.6c.5.2 1.1-.7 1.2-1v-.2c-.5.6-.5.8-1.1.6zm20.7 3.4l-.7-1.1-.8-1.1-.3-.4c-.1-.1-.2-.2-.4-.1s1.3 2.2 2.2 2.7zm.2.4c-.1-.1-.1-.3-.3-.2s.1.3.3.2zm.3 1.3c.3-1-.8-.1 0 0zM151 163.7c-.8-.3-.2.7 0 0zm-3.4-25.2h.9a1 1 0 0 0 .8-.5l-1.4.3-.7.2-.7.3c-1 .4-2 .7-2 1.5l1.7-.9z" fill="#ee8e0d"/><path d="M162 144.4l.3.5c.1.3.3.2.3 0a33 33 0 0 0-2.4-3.4 6.5 6.5 0 0 0-3.1-2.1.1.1 0 0 1-.1.2c-.1.1-.2.2-.1-.1s-.4-.4-.6-.5a12.7 12.7 0 0 0-4-.9 8.5 8.5 0 0 0-3.8.6l-1.2.3-1 .4c-.6.1-.3.6.1.2l1-.4 1.2-.3 1.3-.2h1.3l1.2-.2c.2-.1.4.5.7.6s.6-.2.9 0a18 18 0 0 1 1.8 1.1h.8c.9.5 1.6 1.6 2.3 1.8s-.2-.2-.1-.4.1-.3 0 0l1.2 1.1c.2.1.5-.4.7-.2s-.2.4-.1.5l1 1c.3.3.2.3.4.4zm-5.8-4.6c0-.1.2-.2.2-.1s-.3.1-.3.1zm1.2.9c.2-.4.5.2.8.2l.6.5c-.6.2-1-.6-1.5-.7zm-.2-.6a1.3 1.3 0 0 1 1 .3l1 .8a1.4 1.4 0 0 1-1-.4zm2.5 2.2c.2-.2.2 0 .4.1s-.3-.1-.4-.2zm.3.3c0-.1.3-.1.3 0s-.3.1-.3 0zm3.8 10.5c-.7-.1.1.7 0 0zm-11.2 10.5c.1.1.2-.1.1-.2s-.2.1-.1.2zm-1.6-.1v.2c.9.1.8-.4 0-.2zm-7.7-22.8c.6.4.5-.7 0 0zm1-.7c-1 .3.1.7 0 0z" fill="#ee8e0d"/><path d="M157.1 139.5c-.1-.1-.2 0-.2.1h.1zm-4.8 23.5c-.2 0-1.8-.2-1.4.5s2.4-.5 1.4-.5zm11.2-14.5a3 3 0 0 0-.3-1.3l-.6-1c-.2-.4-.2-1.4-1-1s.9 1 .8 1.9.4-.1.5 0-.3.2-.3.4.6 1 .6 1.9.2-.6.3-.9zm-8.9 14c-.1 0-.2.2-.1.3s.2-.2.1-.3zm-.6.2c-.1 0-.2.2-.1.3s.2-.2.1-.3zm-.5.1c-.1-.1-.2.1-.1.2s.2-.1.1-.2z" fill="#ee8e0d"/><path d="M153.1 162.8c-.1.1-.3.1-.3.3s.3 0 .3-.3zm-12.7-6.6a10.6 10.6 0 0 1-.6-1.5c-.6-.2.5 1.1.1 1.4s.3.2.5.1zm-1-2.2c-.2-.2-.3.1 0 0zm5-13.3c.1-.2-.2-.2 0 0zm.3-.1c.2-.2.9-.2.7-.7l-.4.2c-.2.2-.5.2-.3.5zm.9-.6c.1-.1.3-.1.2-.3s-.3.1-.2.3zm15.9 4.1c-.9-.4-.2 1.1.4.7s-.6-.2-.4-.7zM148 162.4c0-.1-.2 0-.2.2s.3-.1.2-.2zm-1.7-.6c0-.1-.2 0-.2.1s.3 0 .2-.1zm-.2-.1c0-.1-.3 0-.2.1s.2 0 .2-.1zm-5.3-4.9c-.2-.2-.2-.5-.5-.4s.2.5.5.4zm-1.6-3.4c-.1.7.7-.1 0 0zm3.7-11.2c.1-.1.2-.2.1-.4s-.2.3-.1.4zm.9-.8c.1-.1.2-.2.1-.4s-.2.3-.1.4zm.6-.7c-.1.2.2.2 0 0zm16.5 3.3c.4-.3-.3-.6-.4-.9s.3.6.4.9zm2.3 5.3c-.3.1.1.2 0 0zm-12.4 13.3c0-.1-.2.1-.2.2s.3-.1.2-.2zm-6.3-4.1c0-.1-.2 0-.2.1s.2.1.2-.1zm16.3-7.7c.1 0-.1-.2-.2-.1s.1.2.2.1zm-8.8 9.1c0-.1-.2.1-.1.2s.2-.1.1-.2z" fill="#ee8e0d"/><g fill="#fff8e5"><path d="M157.6 147.8v.2c0 .2.1-.1 0-.2zm-11.9 1.7s-.1.1 0 .2 0-.1 0-.2zm7.5-2.9zm-9.6 4.5zm1.1-.4zm2.3.4c-.3 0-.5.4-.8.3s-.3-.4-.5-.5-.4.1-.5-.2-.2.5-.2.2.1 0 .1-.2-.1 0-.3.1 0 .1 0 0c-.2 0-.2.1-.1.3h-.3c-.3.4-.4.2-.7.3s0 .1 0 .2.2-.1.2 0h-.2s0 .1 0 0h-.1c.1.1.3-.2.3-.1a.6.6 0 0 1 .7 0h-.6a.3.3 0 0 0 .2.2h.1v.1h.1v.1s.1-.1.2.1.7.4 1-.1v-.2c-.1-.2-.1.2-.1-.3s.3-.2.3.1.2-.1.2.2-.3.5-.4 0 .1.1.1-.2-.2-.2-.2.2v.2c0 .1.5 0 .6.2s0-.4.1-.4a1 1 0 0 0 0 .4c0-.2.1-.4.1-.4s.3-.3.5 0 .2-.1.2-.6zm-2.5.1zm0 .2zm0-.2zm.3.7c0-.1 0-.1.1-.1s-.1.1-.1.1zm.2 0v-.1.2zm.1-.3c0 .1 0 .2.1.1s-.1-.1-.1-.3-.2-.2-.2.1.2-.4.2-.1h.2c.1.3-.1.4-.1.3zm.8 0c0-.2.1-.1.1-.2v.3zm4-1.7zm-.4 1c.3-.5-.2-.5 0 0zm-2.1.6c.1-.4.3 0 .3-.5s-.2 0-.2 0-.4-.6-.3 0 .3-.2.2.5zm.8-.2h.7c-.1-.5-.5-.6-.7 0zm-5.1.2zm.2 0c.1 0 .2 0 .1.1h.2c0-.3-.4-.2-.3-.1zm.4 0zm.1-.1zm3.3-.3c0-.1-.1.1 0 .2s0-.1 0-.2zm1-.1c-.1.2-.3-.3-.4.3s.3.3.4-.3zm.1 0c0-.1-.1.1 0 .3s0-.2 0-.3z"/><path d="M153.1 150.7c-.8 1-2.2.3-3.1.4s-.5-.2-.8-.2 0 .7-.1.6 0-.9-.1-.6 0 .2 0 0-.1.4-.1.3-1 .4-1.5.6-.2-.3-.2.5a2.9 2.9 0 0 1 2.8-.2c.1-.6.2.1.3-.3s.1 1.7.1.7-.1-.3-.1-.7.2-.4.3.3-.1-.1-.1.3.1.4.2.3-.1-1.1 0-1 .7.8 1-.4a2 2 0 0 0 1.3.3 3.8 3.8 0 0 1 0-.4c.2-1.2.2-.6.1-.5zm-2.3 1.4v-.3c0 .1.1.4 0 .3zm2.5-1.9a7.2 7.2 0 0 1 0 .9c.1.9.3.5.3 0v-.5c-.2.4-.2.7-.3-.4zm4.6.2h-.6c0 .1-.1 0 0 .3s.6.2.6-.3zm.1 0s-.1 0 0 .2.1 0 0-.2zm.3.3c-.3-.6 0 .6 0 0z"/><path d="M147.2 151.6c.2.2.1-.7 0 0zm7.3-.6c.1-.1.3.8.3-.5h-.6c-.2 0-.4-.4-.4 1s.6-.4.7-.5zm3.5.1h.1c.1.1 0-.2 0-.2a.9.9 0 0 1-.9-.2c-.3-.2-.5-.3-.7.2a.9.9 0 0 1 0 .4c0 .2 0 .4 0 0s-.2-.4-.2-.4-1.2 0-1.5 1h-.5c-.1-.3 0 .8 0 .5h.2c.3-.3.8.4 1-.6s.2.8.3.8.1-.5.1-.5.4.7.5.7.1-.4.1-.4.6.7.7.1-.1 0-.1-.3-.1-.5 0 0h.3c0-.1-.1-.9-.1-.9a2.3 2.3 0 0 0 .2.6c-.1-.7.2-.2.2-.3s.2-.4.3-.5zm-1.5.9v-.4.4zm.4.3c-.1-.8.1-.2.1-.4h.2c0 .8-.3.2-.3.4zm-.2-.7c0-.9.3-.2.4-.4s-.3.2-.4.4zm.7.2v-.3.3zm.1 0v-.3.3zm-13.9-.3c0 .2.1-.1 0 0zm3.3.1c0-.1-.1.1 0 .2s0-.1 0-.2zm.3.2v-.2c-.2-.2-.2.3 0 .2zm6.4-.7c.1 1.4.1-.5 0 0zm.2-.1c-.2-.5 0 1.4 0 0zm2.7-.1v.4zm-9.6 1.3s.4.3.3-.4-.5.3-.3.4zm12-1.2c-.2-.1-.4.1-.5.3s-.3-.3-.2.5.2-.4.4-.2a.9.9 0 0 1 0-.4c0 .3.1.3.1.3s.2-.3.4-.3zm-12.5 1.1c0 .1.1-.1 0-.2s0 .1 0 .2zm.2.1c0 .1.1-.1 0-.2s-.1.1 0 .2zm.1 0c0 .1.1-.1 0-.2s-.1.1 0 .2z"/><path d="M146.7 152.2s.1 0 .1-.2 0 0-.1.2zm3.4.5h.4c.1-.8-.3.1-.3-.7s-.1.3-.1.7zm.5-.3c0-.2 0-.4 0 0zm3.3 0c0-.3 0-.6 0 0zm0 0c0-.3.2.5.2-.5h-.1c0 .1-.1 0-.1.5zm.3 0c0-.1.1 0 0-.5s-.1.1 0 .5zm3.7-1c-.1.7.3.8.2 0s-.1.4-.2 0zm-10.1 1.1c0 .1.1-.1 0-.2s0 .1 0 .2zm.4.1c0 .1.1-.1 0-.3s0 .1 0 .3zm.1 0c0 .1.1-.1 0-.3s0 .1 0 .3zm1.6.1c0-.1.1.1.1-.3s-.1-.1-.1.3zm.8-.3c-.1-.3 0 1 0 0zm2.7.5c0-.1.1 0 0-.4s0 0 0 .4zm.3 0c0-.1.1 0 0-.5s0 0 0 .5zm.2-.5c0 .3 0 .5 0 0z"/><path d="M157.9 151.9c-.1-.6-.2-.1-.2-.2s.1.1.2.2zm1.2-.7c0 .1 0 0 0 0zm-11.9 1.5c0 .1.1-.1 0-.2s0 .1 0 .2zm1.8 2.3c0 .1.1-.1 0-.3s0 .1 0 .3zm10.5-3.4zm-12.7 3.6c0 .1.1-.1 0-.2s0 0 0 .2zm7.8 2.5zm-1.8-11.1zm3.3 6.9zm-5.1-8.6zm.5.9zm-.2 2.1c0-.2-.4-.4-.3-.7s.4-.3.4-.4-.1-.3.1-.5-.5-.1-.2-.2h.2c.1-.1 0-.1-.1-.2s-.1 0 0 0h.1c0-.1-.1-.2-.3 0v-.3c-.4-.2-.2-.3-.4-.6h-.2c.1 0 .2.1 0 .1h-.3c-.1.1.2.2.1.3a.5.5 0 0 1 .1.7v-.7l-.2.2c0 .1.1 0-.1.1s-.3.7.2.8h.2c.2-.1-.2-.1.3-.2s.2.3-.1.3.1.2-.1.2-.5-.2 0-.3 0 .1.2.1.2-.2-.2-.2h-.2c-.4.2.1.4-.2.5h.4c.1.2.3.2 0 .5s.2.5.6.5zm-.4-2.2zm-.2.1zm.2 0zm-.7.3zm0 .2zm.3.1h-.1c-.4 0 .1-.1.3-.1s.1-.2-.1-.2.4.1.1.2c-.1.2-.2.1-.1 0zm.1.7zm2.2 3.3zm-1-.3c.5.2.4-.2 0 0zm-.8-1.8c.4 0 0 .2.5.3s0-.2 0-.2.6-.4-.1-.3.3.2-.4.2zm.3.7v.7c.5-.2.6-.6 0-.7zm-.8-4.5zm.1.2c0 .1.1.2-.1.1v.2c.3 0 .1-.4.1-.3zm0 .3zm.1.1zm.7 2.9z"/><path d="M151.6 148.9c-.2-.1.3-.3-.3-.3s-.3.3.3.3zm0 .1zm.4 4.4c-1-.7-.3-1.9-.4-2.8s.1-.5.2-.7c-.3 0-.2 0 0 0h-.3c-.4-.3-.4-.9-.7-1.2s.3-.2-.5-.1a2.2 2.2 0 0 1 .3 2.5c.6.1-.1.2.3.3s-1.7.2-.7.1h.7c-.2.1.4.2-.3.3h-.3c.2.1-.3.1-.3.2s1.1-.1 1 0-.8.7.4.9a1.7 1.7 0 0 0-.3 1.1h.4c1.2-.6.5-.6.5-.6zm-1.4-2z"/><path d="M152.5 153.5h-.9c-.9.1-.5.3 0 .3h.5c-.4-.2-.7-.2.4-.3zm-.6 4.2l.2-.5h-.3c.2.1-.4.4.1.5zm0 .1zm-.3.2c.6-.2-.6 0 0 0zm-.6-9.9c-.2.2.7 0 0 0zm.7 6.5c.1.1-.8.3.5.3s0-.3 0-.5.4-.4-1-.4.3.5.5.6zm-.5 3.1h.2c-.1-.3 0-.5.2-.8s.4-.4-.1-.7h-.4c-.2 0-.4 0 0 0s.4-.1.4-.2.1-1-.9-1.4v-.4c.3-.1-.8-.1-.5 0v.2c.3.3-.4.7.5.9l-.8.2h.4c-.1.1-.7.3-.7.4h.4c0 .2-.8.5-.2.6h.3v.3h.3c.6 0 .1.2.3.2zm-.8-1.4zm-.3.3c.8 0 .2.1.4.1-.7.2-.1 0-.3-.1zm.7-.1c.9 0 .1.3.4.4s-.1-.3-.3-.4zm-.2.6zm0 .1zm-.1-12.3c-.2 0 .1.1 0 0zm.4 3zm-.2.3h.2c.2-.2-.3-.2-.2 0zm.9 5.6c-1.4.1.5.1 0 0zm0 .2c.5-.2-1.4 0 0 0zm0 2.4z"/><path d="M150.3 147.9s-.3.4.4.2-.3-.4-.4-.2zm.9 10.6c.1-.2-.1-.3-.2-.4s.4-.3-.5-.2.4.2.2.4c0 .1.3.2.3.4zm-.9-11zm0 .1zm0 .1zm0 .1zm-.4 2.9v.3c.8 0-.1-.2.7-.3zm.3 3.4c.3 0-.6.2.5.1h-.5zm0 .2zm.8 3.3c-.7-.1-.8.2 0 .1s-.5 0 0-.1zm-1-8.8zm0 .3zm0 .1zm0 1.4c.1 0-.1.1.3.1s.1-.1-.3-.1zm.3.7c.3-.1-1 0 0 0zm-.5 2.3zm0 .3zm.7 3.6c.6 0 .1-.1.2-.2s-.1.2-.2.2zm.5 1.1c-.1 0 0 0 0 0zm-1.2-10.4zm-2.1 1.7zm2.9 9zm-3.3-10.8z"/></g></g><g fill="#ee8e0d"><path d="M119.7 93.3l.4 1.3v.4a5.4 5.4 0 0 0 .6 1.8l.3.8 1.4 4.7a1.9 1.9 0 0 0-.2.7c0 .3.3.5.5.8a4.3 4.3 0 0 1 .4 2l1.2-1.4a5.1 5.1 0 0 0-2.6-.8 10.1 10.1 0 0 1-2.8-.1l-1-.2-4.1-1.1-.7-.4a10.5 10.5 0 0 0-2.5-.6l-.6-.2-.3-.2a4 4 0 0 0-.9-.6h-.7l-.5-.3a2.1 2.1 0 0 0-1-.6l-.2.2h-.1l-.4-.5h-.3a1.6 1.6 0 0 0-1.5-.8l-.4-.2-1.1-.2h-.1a1.8 1.8 0 0 1-.8-.9h-.3a2.1 2.1 0 0 0-1.7-.6l-.3-.2a1.8 1.8 0 0 0-1-.8l-.5-.4a13.9 13.9 0 0 1-2.6-2.1l-.2-.2-.4-.6-.3-.3-1.1-1.7-.2-.5h.1a5.5 5.5 0 0 1-.4-1h.1c-.2-.3-.2-.5 0-.5l-.2-.4a12.2 12.2 0 0 0-.6-2.2l-.2-1.3c-.1-.8-.2-1.1-.3-1.2l-.2-1.1h-.2l.2 1.7a13.9 13.9 0 0 0 .2 2.1v.7a24.6 24.6 0 0 0 .6 2.6 6.1 6.1 0 0 0 .5 1.4h.1a10.3 10.3 0 0 0 1.2 1.8l.3.5v.2a4 4 0 0 0 1.3 1.9c1.7 1.6 3.7 3.4 5.8 4l1.2.3 3.3 1.6a.8.8 0 0 0 .5.3c-.3.8 1.7 1.5 2.4 1.6v-.2c.7.3 2.2.7 2.6 1.1l.9-.2.9.3a4 4 0 0 0 .6 1.2c.5-.7 1.3-.4 1.8-.2l.9.4a.3.3 0 0 1 0 .1l.9.2h-.1a.7.7 0 0 0 1-.3h.3c.4.3.7.8 1.2.9a9.2 9.2 0 0 0 1.8-.1h.8l1.9.3h1l-.3-1-.2-.7a7.6 7.6 0 0 0-.8-2.8 3.9 3.9 0 0 0-.8-1.5 61.3 61.3 0 0 0-3.3-7zm-27.1-5.6l-.2-.6zm-.5-2.1zm13.8 28.9h.6a.8.8 0 0 0 .7 0h.3l1.8-.2.3.3c.1 0 .1-.2.2-.3s1.4.7 1.8.1a2.3 2.3 0 0 1 .8-.8l.3-.2 1.4-.6h.3c.4 0 .5-.4.8-.6h.8v-.3h.2c.2 0 .3.2.4 0v-.3l.3.2v-.2c.3.2.5.2.6-.2h.2c.1-.1.2-.3.2-.4a.6.6 0 0 1 .6.2v-.2c.2.1.5-.2.4-.6h.2c.3.1.4.1.5-.1h.2l1-.8h.5l.6-.5h.2l.3-.3c.1-.1.1-.1.2 0v-.2c.2.1.5-.4.6-.5l.4-.3.3-.3.3-.2h-.1l-.5.3-.7.3h-.2l-.8.4-.4.2-.7.5h-.2a.8.8 0 0 0-.8 0c-.7.4-1.7.3-2.1 1l-.3.4-1.2.5h-.2c-.4-.8-.9-.4-1.1-.1v.2c-.2.1-.7.4-.9.2s-.1.3-.1.5h-.3l-.6-.8c.2.7-.1.8-.3.9h-.7c-.2-.1-.2.1-.1.6h-.1c-.2-.2-.4-.5-.6-.4s-.3.4-.4.6l-.2.3-.9.3c-.4-.2-.6 0-1 .2s-.4.1-.5.4l-2.5 1zm16.6-6.2zm.7-.4z"/></g><g fill="#ee8e0d"><path d="M119.7 139.6l.4 1.3v.3a5.4 5.4 0 0 0 .6 1.8l.3.8 1.4 4.7a1.9 1.9 0 0 0-.2.7c0 .3.3.5.5.8a4.3 4.3 0 0 1 .4 2l1.2-1.4a5.1 5.1 0 0 0-2.6-.8 10.1 10.1 0 0 1-2.8-.1l-1-.2-4.1-1.1-.7-.4a10.5 10.5 0 0 0-2.5-.6l-.6-.2-.3-.2a4 4 0 0 0-.9-.6h-.7l-.5-.3a2.1 2.1 0 0 0-1-.6l-.2.2h-.1l-.4-.5h-.3a1.6 1.6 0 0 0-1.5-.8l-.4-.2-1.1-.2h-.1a1.8 1.8 0 0 1-.8-.9h-.3a2.1 2.1 0 0 0-1.7-.6l-.3-.2a1.8 1.8 0 0 0-1-.8l-.5-.4a13.9 13.9 0 0 1-2.6-2.1l-.2-.2-.4-.6-.3-.3-1.1-1.7-.2-.5h.1a5.5 5.5 0 0 1-.4-1h.1c-.2-.3-.2-.5 0-.5l-.2-.4a12.2 12.2 0 0 0-.6-2.2l-.2-1.3c-.1-.8-.2-1.1-.3-1.2l-.2-1.1h-.2l.2 1.7a13.9 13.9 0 0 0 .2 2.1v.7a24.6 24.6 0 0 0 .6 2.6 6.1 6.1 0 0 0 .5 1.4h.1a10.3 10.3 0 0 0 1.3 2.2l.3.5v.2a4 4 0 0 0 1.3 1.9c1.7 1.6 3.7 3.4 5.8 4l1.2.3 3.3 1.6a.8.8 0 0 0 .5.3c-.3.8 1.7 1.5 2.4 1.6v-.2c.7.3 2.2.7 2.6 1.1l.9-.2.9.3a4 4 0 0 0 .6 1.2c.5-.7 1.3-.4 1.8-.2l.9.4a.3.3 0 0 1 0 .1l.9.2h-.1a.7.7 0 0 0 1-.3h.3c.4.3.7.8 1.2.9a9.2 9.2 0 0 0 1.8-.1h.8l1.9.3h1l-.3-1-.2-.7a7.6 7.6 0 0 0-.8-2.8 3.9 3.9 0 0 0-.8-1.5 61.3 61.3 0 0 0-3.3-7zM92.6 134l-.2-.6zm-.5-2.1zm13.8 28.8h.6a.8.8 0 0 0 .7 0h.3l1.8-.2.3.3c.1 0 .1-.2.2-.3s1.4.7 1.8.1a2.3 2.3 0 0 1 .8-.8l.3-.2 1.4-.6h.3c.4 0 .5-.4.8-.6h.8v-.3h.2c.2 0 .3.2.4 0v-.3l.3.2c.3.2.5.2.6-.2h.2c.1-.1.2-.3.2-.4a.6.6 0 0 1 .6.2v-.2c.2.1.5-.2.4-.6h.2c.3.1.4.1.5-.1h.2l1-.8h.5l.6-.5h.2l.3-.3c.1-.1.1-.1.2 0v-.2c.2.1.5-.4.6-.5l.4-.3.3-.3.3-.2h-.1l-.5.3-.7.3h-.2l-.8.4-.4.2-.7.5h-.2a.8.8 0 0 0-.8 0c-.7.4-1.7.3-2.1 1l-.3.4-1.2.5h-.2c-.4-.8-.9-.4-1.1-.1v.2c-.2.1-.7.4-.9.2s-.1.3-.1.5h-.3l-.6-.8c.2.7-.1.8-.3.9h-.7c-.2-.1-.2.1-.1.6h-.1c-.2-.2-.4-.5-.6-.4s-.3.4-.4.6l-.2.3-.9.3c-.4-.2-.6 0-1 .2s-.4.1-.5.4l-2.5 1zm16.6-6.2zm.7-.4z"/></g><g><path fill="#fff8e5" d="M177.4 136.7h71.7v28.34h-71.7z"/><g fill="#ee8e0d"><path d="M250.7 150.9c0-.1 0-.6-.1-.4s.1.6.1.4zM219.8 166zm-13.5-32c-.1-.1-.6.1-.4.2s.6-.1.4-.2zm37.8 31.2zm-13.4.2zm-28.8 0c3.3 0 6.3-.2 9.5-.1l6.1.2c2.3 0 4.6-.1 6.4.1a7.5 7.5 0 0 1 2.3-.1h2c2 0 2.2 0 .7-.1h4c2.7-.2 4.6-.1 7.8-.2h-9.3c-3.7 0-9.1-.2-11.4.1a9.5 9.5 0 0 1 2.1.1c-1.4 0-3.6.1-4.4-.1a10.2 10.2 0 0 1-2.8-.1c1.8.1 3.2-.2 4.4 0h-1.6a13.2 13.2 0 0 0 2.3-.1c-.2 0-.5-.1 0-.1-1.9-.2-5.8 0-7.2-.1s-.2.2-.7.2l-.9-.2a2 2 0 0 1-1.1.2c-2.7.1-3.4.1-6.4 0 .4.3-1.7.1-1.8.3zm31-.2zm-.9-.1zm.1.1zm-4.2-.3zm-2.4 0zm-1.5.1h-.8a3.1 3.1 0 0 1 1.7.1 16.5 16.5 0 0 0 2.3-.1c1.8.1-2.2.2-2.3.1h-2c-1.3 0 .7-.1 1.2 0zm-9.9 0zm-37.8-11.6c0 .1.1.6.2.4s-.1-.7-.2-.4zm.5 5.1c-.3-3.7-.2 2.3 0 0zm20.3 6.7c-.8.2-3.3 0-3.9.2a20.3 20.3 0 0 0 2.8 0c.4 0 5.1.3 4 0s-4.1.2-2.9-.2zm-10.7.2H177h.4a55.9 55.9 0 0 0 9 0zm62.7-.3zm-1.6 0h-4c-.3.1 5.1 0 4 0zm-4.7 0zm-1.6 0zm-40.1.3c.1 0 .6-.1.4-.1s-.6 0-.4.1zm-13.1.1c1.5-.1 4 .1 4.8-.1-1.5 0-4.1-.2-4.8.1zm-1.2 0c.1 0 .6-.1.4-.1s-.6 0-.4.1zm14.8-29.4c-6.7.3-15.5.2-24.2.2h-.4v15.4c0 3.5-.1 6.5-.1 9.5 0 .2.3.3.3.8a.6.6 0 0 0-.3.8c.2.1.1.4 0 .4s.2.8.2 1.6v.5h.3c4.3-.2 12.4-.2 17.7-.3.6 0 2.6.2 2.3-.2l-20 .2h-.1c0-5.2 0-10.3.2-14.5-.3-1.5.1-2.1-.2-4 .2 0 .8-1.1.3-1.6s-.1.7-.3.8-.2-3.2.2-3.6 0 1.1.2 1.2a13.3 13.3 0 0 1 .2-2.4c-.3-.9-.6.8-.5-.8s-.1-2.4-.1-3.6h.1c3.1 0 6 .3 8.7-.2l15.5.2c.3 0 .4-.2.8-.2s-.3-.2-.8-.2zm-24.1 5.7c-.1.2-.2-.3-.2-.4s.2.3.1.4zm26.1-5.9a3.3 3.3 0 0 1-1.2.5c.6.5 3.4.3 4 0v-.2c-1.6.1-2.1.2-2.8-.3zm45.9 13.3v-7.6c0-.3 0-.8-.1-.8.1 2.7-.2 6.4.1 8.4zm0 1.2c0-.3 0-.8-.1-.8s0 .8.1.8zm-.2 3.2c.3-1.8-.3-1.1 0 0z"/><path d="M198.7 165.2c-2.1-.1-.4.3 0 0zm19.9-28.9c1.5 0 2.9.4 4.4-.2h-7.1c-2.6 0-5.2-.2-6 .5 3.6.1 6.3-.2 8.7-.3z"/><path d="M249.2 147.9v1.6c0 .7.1.9.1.4-.1-5.7.1-9.3.2-13.3v-.4h-.4c-1.9 0-3.9 0-6.2.1.2 0 .5.2 0 .2s-.3.2-.4 0a5.9 5.9 0 0 0-2-.2c-6 0-14.5-.1-19.8.4h-6c-1.4-.2-1.4.4 0 .2h2.8c4.3-.1 9.5.2 13.1-.2.6-.1 1.2.4 2 .4s1.6-.3 2.4-.2 3.7.3 5.6.4l2-.2c2.1 0 4.7.3 6.6.2l-.7-.7a12.4 12.4 0 0 0 .1 1.3c0-.5 0-.7.2-.8s.2-.2 0 0v4.3c0 .6.4.2.5.9a1.1 1.1 0 0 0-.3.7c.3.5.1 2.5.2 3.6s-.1.9 0 1.3zm-8.3-11c-.2-.1.3-.2.4-.2s-.3.3-.4.3zm4 .2c-.1-.4 1.4-.1 2-.2h2c-.6.4-2.9.1-4.1.2zm-1.2-.4c1.1-.4 3.6-.1 5.4-.2h.1c-1.5.4-3.9.2-5.6.3zm5.2 3.2c.2 0 .1.5.2.8s-.2-.4-.2-.8zm0 1.2c.1-.2.2.3.2.4s-.3-.3-.2-.4zm-46.3 24.1c.1 0 .6-.1.4-.1s-.6 0-.4.1zm-4-.1c2.4.2 2.3-.1 0 0zm7.7-28.8c.5.7 2.1-.3 0 0zm3.2 0c-2.5-.3-.9.7 0 0z"/><path d="M242.9 136.4c-.3 0-.4.1-.4.2h.4zm-40.7 28.5c-.6 0-4.8-.2-3.5.2-.6-.1 5.9-.2 3.5-.2zm46.9-5.9c.1-2.1 0-4.6-.1-6.4s.2-3.4-.2-3.7c0 2.5.2 3.4.1 5.5.1 0 .1.2.2.5s-.1.2-.1.7.1 3.1.1 5.2V159zm-41 5.9c-.1 0-.6 0-.4.1s.6-.1.4-.1zm-1.6 0c-.1 0-.6 0-.4.1s.6-.1.4-.1zm-1.2 0c-.1 0-.6 0-.4.1s.7-.1.4-.1zm-1.2 0c-.3 0-.8 0-.8.1zm-26.3-13.5V147c-.4-1 0 3.3-.3 3.6s0 .8.3.8zm-.2-6.4c-.1-.6-.2 0 0 0zm31.1-8c.6-.1 0-.3 0 0zm.8 0c.7-.1 2.3.3 2.4-.2h-1.2c-.5 0-1.1 0-1.2.2zm2.8 0c.3-.1.8 0 .8-.2s-.8 0-.8.2zm36.7 9.7c-.3-2.4-.4 1.9 0 2s-.2-1.3 0-2zm-58.4 18c-.1 0-.6.1-.4.1s.7 0 .4-.1zm-4.7 0c-.1 0-.6.1-.4.1s.6 0 .4-.1zm-.8 0c-.1 0-.6.1-.4.1s.6 0 .4-.1zm-7.3-11.3c0-.6.1-1.5-.2-1.6s-.1 1.4.2 1.6zm-.2-10c-.2 1.6.5.1 0 0zm25.6-6.1c.3-.1.8 0 .8-.2s-.8-.1-.8.2zm3.1 0c.3-.1.8 0 .8-.2s-.8-.1-.8.2zm2.4-.3c-.6.1 0 .3 0 0zm40.1 8.4c.3 0 0-1.7.1-2.3s-.1 1.7-.1 2.3zm.2 15.6c-.1.2 0 .5 0 0zm-50.9 3.6c-.1 0-.6.1-.4.1s.7 0 .4-.1zm-19.2-.5c0-.1-.1-.6-.1-.4s0 .6.1.4zm70 .7c0-.1-.1-.7 0-.4s0 .6 0 .4zm-47.1-1.4c-.1 0-.6 0-.4.1s.6 0 .4-.1z"/></g><path d="M193.2 155.6c-.2-.5-.8-.1-1.2-.2s.2.1.5.4.5-.1.7-.2zm17.5.4c0 .1.2-.1.1-.2s-.1.1-.1.2zm-23.8-.6h.5c.1-.4-.6-.4-.5 0zm5.6.4v.2c.1 0 .1-.2 0-.2z" fill="none"/><path d="M192.7 155.8c.3.7.7-.3 1.2 0s-.6-.6-.8-.2-.2.2-.4.2zm-5.3 0h2.6a3 3 0 0 0-2.6 0zm-.5-.2c.1.3.1 0 0 0zm2.1-.7c0 .1.2-.1.1-.2s-.2.1-.1.2zm5.2.9c.1 0 .3 0 .3-.2s-.3 0-.3.2zm-2.5-.2h-.5c0 .3.3 1.1.4.4s-.2 0-.2-.2.7 0 .3-.2zm-2.5-.2c0 .1.2-.1.1-.2s-.2.1-.1.2zm1.1-1.1h-.1c0 .2.1.1.1 0zm.2 1.5c0-.5.5-.1.7-.2s-1.2-.3-.7.2zm-1.3-.9c0 .1.2-.1.1-.2s-.2.1-.1.2zm1.1 1.4c.1 0 .2 0 .2-.2s-.2-.1-.2.2zm.7 0c0 .1.2-.1.1-.2s-.2.1-.1.2zm39.9.2c.3-.1.9.3 1.1-.2h-.5c-.3.1-.7-.3-.6.2zm-.4-.5c.5-.1 1.3.3 1.6-.2s-1.2-.3-1.6.2zm2.4.3c.1 0 .2 0 .2-.2s-.2-.1-.2.2zm-3.1 0c0 .1.2-.1.1-.2s-.2.1-.1.2zm2.4.2c-.1-.3-.1 0 0 0zm1.1-.2c0 .1.2-.1.1-.2s-.2.1-.1.2zm-3-.7v.2c.1 0 .1-.2 0-.2zm0 .2h-.1c0 .3.1.1.1 0z" fill="none"/><path d="M235.8 152.5c0-.1-.2.1-.1.2s.2-.1.1-.2zm-43.1.2c0-.1-.2.1-.1.2s.2-.1.1-.2zm27.5.7c0-.1-.2.1-.1.2s.2-.1.1-.2zm-34.3.6c0-.1-.2.1-.1.2s.2 0 .1-.2zm3.7 0c0-.1-.2.1-.1.2s.2 0 .1-.2z" fill="#ee8e0d"/><path d="M197.6 155.2a16.6 16.6 0 0 1-2.6.2c-.4-.1-1-.6-1.6-.7s-1.3.1-1.8-.4-.6.8-.7.2.3 0 .3-.2-.4 0-.9 0-.1.3-.1 0h.1v-.3c-.6 0-.6.1-.2.4H189c-.8.7-1.3.2-2.2.4s0 .4.1.4.6-.4.5 0h-.5v.2c.1 0 .1.3 0 0a.5.5 0 0 0-.4.4c.5.3.8-.6 1-.2a3 3 0 0 1 2.5 0h-2.5a.8.8 0 0 0 .7.4c.1 0 .1-.3.2-.2s0 .2.1.2.1-.3.2-.2 0 .2.1.2.2-.1.5.2 2.5.4 3.2-.4v-.2c-.3-.3-.4.3-.5-.4s1-.3 1.2.2.6-.1.8.2-.9.7-1.2 0 .4.1.4-.2-.6-.3-.7.2.1.2 0 .2 1.6-.1 2 .2.1-.4.2-.4.1.4.2.4.1-.5.3-.4a2.5 2.5 0 0 1 1.8 0c0-.5.5.1.6-.4zm-8.6-.2c-.1-.1.1-.3.1-.2s-.1.2-.1.1zm.2.4c-.1-.1.1-.3.1-.2s-.1.2-.1.2zm0-.4c-.1-.1.1-.3.1-.2s-.1.2-.1.1zm1.1 1.3c0-.2.1-.2.2-.2s-.1.1-.2.2zm.7 0c-.1-.1.1-.3.1-.2s-.1.2-.1.2zm.4-.4c0 .2.1.3.2.2s-.4-.1-.4-.4-.6-.3-.7.2.7-.7.7-.2h.5c.4.1-.2.2-.3.1zm2.7 0c0-.3.2-.2.3-.2s-.1.1-.2.1zm13.5-1.4c0-.1-.2.1-.1.2s.1-.1.1-.2zm-1.5.7c1-.4-.6-.4 0 0zm-7.2.4c.2-.4.9 0 1.1-.4s-.7 0-.8 0-1.4-.7-1.1 0 1.1-.3.8.4zm2.9-.2h2.5c-.6-.3-2-.5-2.5 0zm-17.3 0c0 .1.2-.1.1-.2s-.2.1-.1.2zm.4 0c.3 0 .7-.1.4.4l.7-.2c.1-.9-1.4-.4-1.1-.2zm1.3 0c0 .1.2-.1.1-.2s-.1.1-.1.2z" fill="#ee8e0d"/><path d="M186.7 155.2c0-.1-.2.1-.1.2s.1-.1.1-.2zm11.1 0c0-.1-.2.1-.1.2s.1-.1.1-.2zm3.6 0c-.4.1-1.1-.3-1.3.2s1.1.3 1.3-.2zm.3 0c0-.1-.2.1-.1.2s.2-.1.1-.2z" fill="#ee8e0d"/><path d="M218.9 155.4c-3 .4-7.5 0-10.9 0l-2.6-.2c-.1 0-.1.5-.2.4s-.1-.7-.2-.4-.1.1-.1 0-.2.3-.4.2-3.4.3-4.9.4-.7-.3-.7.4a34.8 34.8 0 0 1 9.6-.2c.4-.4.6.1 1.1-.2s.3 1.1.4.4-.2-.2-.2-.4.9-.3 1 .2-.3 0-.3.2.4.2.7.2-.2-.7.2-.7 2.4.5 3.4-.2a34 34 0 0 0 4.3.2c.1 0 .1-.2.2-.2s-.3-.1-.4-.1zm-8.1.7c-.1-.1.1-.3.1-.2s-.1.2-.2.1z" fill="#ee8e0d"/><path d="M219.4 155.2l-.3.4c.2.4.9.3 1.1 0v-.2c-.4.2-.6.3-.8-.2zm16.1 0h-2.1c-.1 0-.2 0-.2.2s1.7.3 2.3-.2zm.3 0c-.1 0-.2 0-.2.2s.2 0 .2-.2zm.9.2c-.5-.6-.3.7 0 0zm-38.3.2c.6.2.1-.7 0 0zm25.2 0c.4 0 .8.4 1.2-.2h-2c-.7 0-1.4-.2-1.6.4a7.7 7.7 0 0 0 2.4-.2z" fill="#ee8e0d"/><path d="M235.1 155.8h.4c.2.1.2-.2.1-.2-2.3.3-3.5-.6-5.4 0 .1 0 .1.2 0 .2s-.1.3-.1 0a.5.5 0 0 0-.5-.2 23.4 23.4 0 0 0-5.5.4h-1.6c-.4-.2-.4.4 0 .2h.8c1.2-.1 2.6.3 3.6-.2s.3.4.5.4.4-.3.7-.2 1 .4 1.5.4l.5-.2c.7 0 1.6.6 2.2.2s-.2 0-.2-.2-.1-.3 0 0h1.2c.2 0 0-.7.2-.7s.1.4.2.4.7-.1 1-.2.3 0 .4-.1zm-5.4.4c-.1-.1.1-.3.1-.2v.3zm1.1.2c0-.5.4-.1.5-.2h.5c0 .6-.6.1-.9.3zm-.3-.4c.3-.5 1.1-.1 1.6-.2s-1.1.1-1.6.2zm2.4.2c0-.2.1-.2.2-.2s-.1.2-.2.3zm.3 0c-.1-.1.1-.3.1-.2v.3zm-47.2-.6c0 .7.5-.2 0 0zm11.3 0c0-.1-.2.1-.1.2s.2-.1.1-.2zm1.1.2v-.2c-.6-.2-.6.4 0 .2zm21.8-.2c.1.7.6-.2 0 0zm.9 0c-.7-.3-.2.7 0 0z" fill="#ee8e0d"/><path d="M230.3 155.6c-.1 0-.1.1-.1.2h.1zm-32.9.7c.2 0 1.3.3 1-.4s-1.6.3-1 .4zm40.8-.5c-.6-.2-1.3.2-1.8.2s-1-.4-1 .4.9-.3 1.5 0 0-.4.1-.4.1.4.2.4.8-.3 1.4-.2-.2-.3-.4-.4zm-42.4.5c0 .1.2-.1.1-.2s-.2.1-.1.2zm.4 0c0 .1.2-.1.1-.2s-.1.1-.1.2zm.4 0c0 .1.2-.1.1-.2s-.2.1-.1.2zm.3 0c.1 0 .2 0 .2-.2s-.2-.1-.2.2zm11.2.2h1.2c.3-.5-.9.1-1-.4s-.2.1-.2.4zm1.8-.2c.2-.1 0-.3 0 0zm11 0c.2-.1 0-.3 0 0zm.2 0c.2-.1.6.3.7-.2h-.3c-.2 0-.4-.1-.4.2zm.7 0c.1 0 .2 0 .2-.2s-.2-.1-.2.2zm13-.3c-.6.5.6.8.5 0s-.3.5-.5 0zm-34.2.5c0 .1.2-.1.1-.2s-.1.1-.1.2zm1.4 0c0 .1.2-.1.1-.2s-.2.1-.1.2zm.2 0c0 .1.2-.1.1-.2s-.2.1-.1.2zm5.4 0c.2 0 .4.1.4-.2s-.4-.1-.4.2zm2.7-.2c-.5-.2 0 .7 0 0zm9 .2c.1 0 .2 0 .2-.2s-.2 0-.2.2zm.9 0c.1 0 .2 0 .2-.2s-.2 0-.2.2zm.7-.2c-.2.1 0 .3 0 0zm13.6.2c0-.5-.5-.1-.7-.2s.5.1.7.2zm4.3-.2c.1.3.1 0 0 0zm-40.3.4c0 .1.2-.1.1-.2s-.1.1-.1.2zm6.1 1.6c0 .1.2-.1.1-.2s-.2.1-.1.2zm35.3.4c0-.1-.2.1-.1.2s.1-.1.1-.2zm-42.5.7c0 .1.2-.1.1-.2s-.1.1-.1.2z" fill="#ee8e0d"/><path d="M187.4 144.8c-.5-.1-.4.5-.6.7s.2-.1.6-.2 0-.3 0-.5zm11 0c0 .1.1-.1.2-.2s-.2.1-.2.2zm-13.7 1.2l.3.2c.1-.3-.1-.5-.3-.2zm2.7-.7z" fill="none"/><path d="M187.4 145.2c.7.1 0-.6.5-.8s-.8 0-.5.4 0 .2 0 .4zm-2.7 1.4a1.5 1.5 0 0 0 1.6.2h-1.6zm-.2-.4c-.2.3.1 0 0 0zm1.2-.2v-.2.2zm2.3-1.7c0-.1.2-.1 0-.3s-.2.1 0 .3zm-1.1 1.4l-.2.3c.3.2 1.1.4.5 0s-.1.1-.3 0 .3-.4 0-.3zm-1.1.7c0 .1.1-.1 0-.2s-.1.1 0 .2zm-.2-1zm1 1.1c-.3-.3.1-.3.1-.5s-.3 0-.4.1a.3.3 0 0 0 .3.4zm-.9-.5v-.2.2zm1.1.9c0-.1.1-.1 0-.3s-.2.2 0 .3zm.4-.4c.1 0 0-.2-.1-.2s0 .2.1.2zm21.4-2.7c.3 0 .5.6.8.2l-.3-.2c-.2 0-.3-.5-.5 0zm0-.5c.4 0 .7.7 1.2.4s-.8-.8-1.2-.4zm1.4 1c.1 0 .1.1.3-.1s-.2-.1-.3.1zm-2-1c0 .1.1-.1.2-.2s-.2 0-.2.2zm1.4.9c.1-.3-.1 0 0 0zm.8.2c0 .1.2 0 .2-.2s-.2.1-.2.2zm-1.6-1.6v.2s.1-.2 0-.2zm-.1.2h-.1c0 .2.1.1.1 0z" fill="none"/><path d="M213.2 141.6c0-.1-.1.1-.1.2s.1-.1.1-.2zm-28.6 2.2c-.1 0 0 .2.2.2s0-.2-.2-.2zm18.6 3zm-17.8-2zm.3.8zm5-2.2a3.3 3.3 0 0 0-2.4.1 2.8 2.8 0 0 0-1.6.7c-.4.5-.4 1-1 .9s.5.6.1.3.1-.1-.1-.2-.1 0 0 .1h.1c0 .4-.2.4-.3.3l-.4-.3-.3.4c.2-.3.5-.1.3.2l-.3-.2v.2c.1 0-.2.3 0 0s-.3-.1-.5.1.8 0 .7.3h1.6a1.5 1.5 0 0 1-1.6-.2.5.5 0 0 0 .2.6c.1 0 .2-.2.2-.2s-.1.2 0 .2.2-.3.2-.2 0 .2.1.2.1-.1.5.2a2.9 2.9 0 0 0 1.4-.9 1 1 0 0 0 .1-1.2h-.2c-.4.1.1.4-.6.2s.1-.8.6-.7.2-.5.5-.4.2.9-.5.8.2-.2 0-.4-.5.3 0 .5.2 0 .2.1.5-.3.5-.5.2-.5.4-.4-.2-.4-.1-.4l.4.3c-.1-.3-.1-.5 0-.5s.8-.4 1.3 0 .3.4.5 0zm-5.1 2.6v-.2c0 .1.1.3.1.2zm.1.4v-.2c0 .1.1.3.1.2zm0-.4v-.2.2zm1.1 1c-.1-.2 0-.2 0-.3v.2zm.4-.4c-.1 0-.2-.2-.1-.2s.1.2.1.1zm-.2-.5c.2.1.3.1.3 0s-.3.2-.5 0-.4.1-.1.5a.3.3 0 0 1-.3-.4c0-.1.2-.2.4-.1l.2-.3c.2-.2.1.2 0 .2zm1-1.8c-.2-.2 0-.3 0-.3v.3zm7.3.5c-.1 0 0 .2.1.2s0-.1-.1-.2zm0 1c0-.3-.1-.3-.1-.2s-.1.1.1.2zm-3.9-1.5c.4-.2.5.5.9.2s-.4-.4-.5-.4l-.3-.5c-.2-.2-.4-.3-.4 0s1 .3.3.7zm1.8 1.2a3.4 3.4 0 0 0 1.4.7c-.3-.3-.8-.9-1.4-.7zm-9.3-.7zm.1.2c.1.2.3.3-.3.4l.4.3c.4-.2.3-.5.2-.6s-.2-.2-.3-.1zm.4.7zm.3 0zm6.2-2.2c0-.1-.2 0-.2.2s.2-.1.2-.2zm2.2 1.7c-.3-.1-.3-.7-.8-.4s.4.7.8.4zm.2.1z" fill="#ee8e0d"/><path d="M203.6 147.1a4.5 4.5 0 0 1-3.3-1.4 5.8 5.8 0 0 0-1.8-1.4 1.8 1.8 0 0 0-1.4 0 2.5 2.5 0 0 0-.9.8l-.6.7-.5.2s.1.5 0 .5-.1-.7-.2-.4 0 .1 0 0-.1.3-.2.2a2 2 0 0 1-1.5-.4l-1.5-1.1c-.1-.1-.2-.6-.6.1s1.9 1.3 3 1.7a1.9 1.9 0 0 0 1.7-.1 10.5 10.5 0 0 0 1.2-1.1c-.1-.2 0-.3.1-.4a.5.5 0 0 0 .4-.3l.3.5c.1.1.1.2.1-.2s-.1-.1-.2-.4h.4c.2 0 .3 0 .3.3s-.2-.1-.2.2.2.3.3.3.1-.7.4-.5 1 1.6 2.1 1.4a4.8 4.8 0 0 0 2.7 1.4l.2-.2c-.2-.8-.2-.4-.3-.4zm-5.2-2.2c0-.1.2-.2.2-.2s-.2.2-.2.1z" fill="#ee8e0d"/><path d="M203.7 147v.2c0 .2.2.3.3.2a.3.3 0 0 0 0-.4h-.2v.2h-.1zm8.4-2.9l-1.1-.5h-.2c-.1 0-.1-.1-.2.1s1 .7 1.5.4zm.2 0c-.1 0-.1 0-.2.2s.2.1.2-.2zm.5.4c-.2-.7-.4.7 0 0zm-21.7-.4c.2.5.5-.5 0 0zm13.3.6c0-.3.5-.5.1-1a5.6 5.6 0 0 0-.4 1.5c-.1.5-.4 1 .3 1.3a5.1 5.1 0 0 0 0-1.8z" fill="#ee8e0d"/><path d="M211.7 144.6h.3c.1.1.2-.1.1-.2-1.7-.3-1.9-1.6-3.5-1.7 0 0 0 .2-.1.2s-.2.2-.1 0-.2-.3-.3-.4a2.8 2.8 0 0 0-2.2 0 1.8 1.8 0 0 0-1 1.8v1.2c-.2.3.3.3.2 0v-.5a2.4 2.4 0 0 1 .4-1.2l.7-.9c.1-.1.3.3.5.3s.2-.3.4-.3.6.5.8.6h.4c.5.2.7 1 1.3.9s-.1-.1 0-.3.1-.3 0 0l.8.4c.1 0 .3-.6.5-.5s-.1.4-.1.5.5.1.8.1h.1zm-3.7-1.3c0-.1.2-.2.2-.2l-.2.2zm.6.5c.2-.4.3 0 .4 0l.3.2c-.3.3-.4-.2-.7-.2zm0-.5c.4-.4.8.3 1.2.4s-.8-.4-1.2-.4zm1.4 1c.1-.2.2-.1.3-.1s-.2.1-.3.1zm.2.1c0-.1.2-.2.2-.2s-.2.3-.2.2zm-26.1 1.3c-.5.4.4.1 0 0zm6.3-2c0-.1-.2.1-.2.2s.2-.1.2-.2zm.6.6v-.2c-.2-.4-.5.1 0 .2zm13 2.8c.3.1.3-.1.2-.1s-.3-.1-.2.1zm.1-.6c-.3.4.6.3 0 0z" fill="#ee8e0d"/><path d="M208.6 142.8c0-.1-.1 0-.2.2h.1zm-18.4 1.6c.1 0 .6.7.8-.1s-.3 0-.6 0-.4-.1-.2.1zm23.6.8c-.4-.3-.9 0-1.3-.1s-.5-.6-.8.2.8-.1 1.1.3.1-.4.2-.4 0 .4.1.5.7-.2 1.1 0-.3-.3-.4-.5zm-24.6-1.1c0 .1.1-.1.1-.2s-.2.1-.1.2zm.2 0c0 .1.1-.1.1-.2s-.1.1-.1.2zm.2.1c0 .1.1-.1.1-.2s-.1.1-.1.2zm.2 0c.1 0 .1 0 .2-.2s-.1 0-.2.2zm7.4 1.5l.5-.4c0-.3-.1-.2-.3-.1s-.2.3-.4.1-.1.2.2.4zm.6-.7c.1-.1 0-.3 0 0zm6.9 1.8c-.1-.1-.3 0 0 0zm.1-.2c-.1-.2.3-.4-.1-.5v.2c-.1.2-.2.3.1.3zm0-.5c0-.1 0-.2-.2-.2s0 .1.2.2zm6.6-1.4c-.7.3.1.9.4.1s-.5.4-.4-.1zm-19.6 1.1zm.8.7c0 .1.2 0 .2-.1zm.2.1c0 .1.2 0 .2-.1s-.2 0-.2.1zm4.1-.6c0-.1.2-.2 0-.4s-.2.2 0 .4zm1.1-1c-.1-.1-.1.1-.1.2s.1.1.1-.2zm5.9 3.2c.1-.1.3-.1.2-.3s-.2.1-.2.3zm.9-.8c0-.1.1-.2-.2-.3s0 .2.2.3zm-.1-.6c.1.1.3 0 0 0z" fill="#ee8e0d"/><path d="M211 145c.2-.5-.3-.2-.4-.4s.3.3.4.4zm3.2.7c0 .3.1 0 0 0zm-23.6-.6zm4 4c0 .1.3-.1.2-.2s-.3.1-.2.2zm20.3-.9c0-.1-.2.1-.1.2s.1-.1.1-.2zm-26-1z" fill="#ee8e0d"/></g><g><path d="M79.5 243.1c-.4-.5-1.6-.1-2.4-.2s.4.1 1.1.4.9-.1 1.3-.2zm34.2.4c.1.1.3-.1.2-.2s-.3.1-.2.2zm-46.4-.6h1.1c.1-.4-1.2-.4-1.1 0zm10.9.4v.2c.2 0 .1-.2 0-.2z" fill="none"/><path d="M78.6 243.3c.6.7 1.4-.3 2.4 0s-1.1-.6-1.5-.2-.5.2-.9.2zm-10.2 0h4.9a11 11 0 0 0-4.9 0zm-1.1-.2c.1.3.3 0 0 0zm4.1-.7c.1.1.3-.1.2-.2s-.3.1-.2.2zm10 .9c.3 0 .6 0 .6-.2s-.6-.1-.6.2zm-4.7-.2h-1.1c0 .3.6 1.1.9.4s-.4 0-.4-.2 1.3 0 .6-.2zm-4.9-.2c.1.1.3-.1.2-.2s-.3 0-.2.2zm2.1-1.2h-.2c.1.3.2.2.2 0z" fill="none"/><path d="M74.4 243.3c0-.5.9-.1 1.3-.2s-2.3-.3-1.3.2zm-2.6-.9c.1.1.3-.1.2-.2s-.3.1-.2.2zm2.1 1.3c.2 0 .4 0 .4-.2s-.4 0-.4.2zm1.3 0c.1.1.3-.1.2-.2s-.3.1-.2.2zm77.6.3c.6-.1 1.8.3 2.1-.2h-1.1c-.3.1-1.1-.3-1 .2zm-.7-.5c1-.1 2.6.3 3.2-.2-1 .1-2.5-.3-3.2.2zm4.7.2c.2 0 .4 0 .4-.2s-.4 0-.4.2zm-6.2 0c.1.1.3-.1.2-.2s-.3.1-.2.2zm4.7.3c-.1-.3-.3 0 0 0zm2.2-.3c.1.1.3-.1.2-.2s-.3.1-.2.2zm-5.8-.6v.2c.2 0 .1-.2 0-.2zm0 .2h-.2c0 .3.2.1.2 0z" fill="none"/><path d="M162.4 240c-.1-.1-.3.1-.2.2s.3-.1.2-.2zm-83.8.2c-.1-.1-.3.1-.2.2s.3-.1.2-.2zm53.4.7c-.1-.1-.3.1-.2.2s.4-.1.2-.2zm-66.6.6c-.1-.1-.3.1-.2.2s.3-.1.2-.2zm7.2 0c-.1-.1-.3.1-.2.2s.4-.1.2-.2z" fill="#ee8e0d"/><path d="M88 242.6c-1.8 0-3.4.4-5.1.2s-1.9-.6-3.2-.7-2.5.1-3.4-.4-1.1.8-1.3.2.6 0 .6-.2-.7 0-1.7 0-.2.3-.2 0h.2v-.2c-1.1 0-1.2.1-.4.4h-2.1c-1.5.7-2.5.2-4.3.4 0 .3 0 .4.2.4s1.2-.4 1.1 0h-1.1v.2c.3 0 .1.3 0 0a.9.9 0 0 0-.9.4c1 .3 1.5-.6 1.9-.2a11 11 0 0 1 4.9 0h-4.8c.3.4 1.1.5 1.3.4s.2-.3.4-.2 0 .2.2.2.2-.3.4-.2 0 .2.2.2.3-.1 1.1.2 4.8.4 6.2-.4v-.2c-.6-.3-.8.3-1.1-.4s2-.3 2.4.2 1.2-.1 1.5.2-1.8.7-2.4 0 .8.1.9-.2-1.3-.3-1.3.2.2.2 0 .2 3.1-.1 3.8.2.1-.4.4-.4.2.4.4.4a.6.6 0 0 1 .6-.4 9.1 9.1 0 0 1 3.4 0c.1-.5 1.1 0 1.2-.5zm-16.7-.2c-.1-.1.2-.3.2-.2s-.1.3-.1.2zm.4.4c-.1-.1.2-.3.2-.2s0 .3-.1.3zm0-.4c-.1-.1.2-.3.2-.2s0 .3-.1.2zm2.1 1.3c0-.2.3-.2.4-.2s-.1.2-.3.2zm1.3 0c-.1-.1.2-.3.2-.2s0 .3-.1.2zm.9-.4c0 .2.2.3.4.2s-.9-.1-.9-.4-1.3-.3-1.3.2 1.3-.7 1.3-.2h1.1c.8.2-.3.3-.5.2zm5.3 0c0-.3.4-.2.6-.2s-.2.2-.5.2zm26.2-1.3c-.1-.1-.3.1-.2.2s.3-.1.2-.2zm-2.8.6c2-.4-1.2-.4 0 0zm-14.1.5c.5-.4 1.7 0 2.1-.4a3.1 3.1 0 0 0-1.5 0c-.2 0-2.7-.7-2.1 0s2.2-.4 1.5.4zm5.8-.2h4.9c-1.4-.3-4-.6-4.9 0zm-33.8 0c.1.1.3-.1.2-.2s-.3 0-.2.2zm.9 0c.6 0 1.4-.1.9.4l1.3-.2c.1-.9-2.8-.5-2.2-.2zm2.5 0c.1.1.3-.1.2-.2s-.3 0-.2.2z" fill="#ee8e0d"/><path d="M66.9 242.6c-.1-.1-.3.1-.2.2s.3-.1.2-.2zm21.6 0c-.1-.1-.3.1-.2.2s.3-.1.2-.2zm7 0c-.8.1-2.1-.3-2.6.2s2.2.3 2.6-.2zm.7 0c-.1-.1-.3.1-.2.2s.3-.1.2-.2zm33.3.3c-5.8.4-14.6 0-21.2 0l-5.1-.2c-.1 0-.2.5-.4.4s-.1-.7-.4-.4-.2.1-.2 0-.5.3-.9.2c-2.3.3-6.7.3-9.6.4-.3 0-1.4-.3-1.3.4a131.1 131.1 0 0 1 18.6-.2c.8-.4 1.1.1 2.1-.2s.6 1.1.9.4-.4-.2-.4-.4 1.7-.3 1.9.2-.6 0-.6.2.8.2 1.3.2-.4-.7.4-.7c2.5-.3 4.6.5 6.6-.2s5.3.2 8.3.2c.2 0 .2-.2.4-.2s-.1-.2-.4-.1zm-15.8.7c-.1-.1.2-.3.2-.2s-.2.2-.2.1zm16.9-1l-.6.4c.3.4 1.8.3 2.1 0v-.2c-.9.2-1.1.4-1.5-.2zm31.1 0h-4.1c-.2 0-.4 0-.4.2s3.5.3 4.5-.2zm.7 0c-.2 0-.4 0-.4.2s.4 0 .4-.2zm1.7.3c-1-.6-.5.7 0 0zm-74.4.2c1.1.2.3-.7 0 0zm49 0c.8 0 1.6.4 2.4-.2h-3.8c-1.4 0-2.8-.2-3.2.4a28.7 28.7 0 0 0 4.6-.2z" fill="#ee8e0d"/><path d="M161.1 243.3h.9c.4.1.4-.2.2-.2-4.5.3-6.7-.6-10.5 0 .1 0 .2.2 0 .2s-.2.3-.2 0a1.6 1.6 0 0 0-1.1-.2 87.7 87.7 0 0 0-10.7.4h-3.2c-.8-.2-.8.4 0 .2h1.5c2.3-.1 5.1.3 7.1-.2.3-.1.7.4 1.1.4s.9-.3 1.3-.2 2 .4 3 .4l1.1-.2c1.4 0 3.2.6 4.3.2s-.4 0-.4-.2-.1-.3 0 0h2.4c.3 0 .1-.7.4-.7s.2.4.4.4 1.3-.1 1.9-.2.3-.1.5-.1zm-10.5.4c-.1-.1.2-.3.2-.2s-.1.3-.2.2zm2.1.2c0-.5.8-.1 1.1-.2h1.1c-.3.6-1.5.1-2.1.3zm-.6-.4c.6-.5 2.2-.1 3.2-.2-.6.5-2.2.1-3.2.2zm4.7.2c0-.2.3-.2.4-.2s-.2.2-.4.2zm.6 0c-.1-.1.2-.3.2-.2s-.1.3-.1.2zm-91.8-.6c0 .7.9-.2 0 0zm22 0c-.1-.1-.3.1-.2.2s.3-.1.2-.2zm2.1.2v-.2c-1.2-.2-1.2.4 0 .2zm42.3-.2c.3.7 1.1-.2 0 0zm1.8 0c-1.4-.3-.5.7 0 0z" fill="#ee8e0d"/><path d="M151.7 243.1c-.2 0-.2.1-.2.2h.2zm-63.9.6c.3 0 2.6.3 1.9-.4s-3.2.3-1.9.4zm79.3-.4a14.7 14.7 0 0 0-3.4.2c-.6 0-1.9-.4-1.9.4s1.8-.3 3 0 0-.4.2-.4.2.4.4.4 1.6-.3 2.8-.2-.7-.3-1.1-.4zm-82.5.4c.1.1.3-.1.2-.2s-.3.1-.2.2zm.9 0c.1.1.3-.1.2-.2s-.3.1-.2.2zm.6 0c.1.1.3-.1.2-.2s-.3.1-.2.2zm.6 0c.2 0 .4 0 .4-.2s-.3 0-.4.2zm21.8.3h2.4c.5-.5-1.8.1-1.9-.4s-.5.1-.5.4zm3.5-.3c.3-.1 0-.3 0 0zm21.3 0c.3-.1 0-.3 0 0zm.5 0c.4-.1 1.3.3 1.3-.2h-.6c-.4.1-.7 0-.7.2zm1.5 0c.2 0 .4 0 .4-.2s-.4 0-.4.2zm25.2-.2c-1.2.5 1.1.8 1.1 0s-.7.4-1.1 0zM94 244c.1.1.3-.1.2-.2s-.3.1-.2.2zm2.6 0c.1.1.3-.1.2-.2s-.3.1-.2.2zm.4 0c.1.1.3-.1.2-.2s-.3.1-.2.2zm10.5 0c.3 0 .8.1.9-.2s-.9-.1-.9.2zm5.3-.3c-.9-.2 0 .7 0 0zm17.5.3c.2 0 .4 0 .4-.2s-.4 0-.4.2zm1.7 0c.2 0 .4 0 .4-.2s-.3 0-.4.2zm1.3-.3c-.3.1 0 .3 0 0zm26.5.3c0-.5-.9-.1-1.3-.2s.9 0 1.3.2zm8.4-.3c.1.3.3 0 0 0zm-78.2.5c.1.1.3-.1.2-.2s-.4.1-.2.2zm11.7 1.6c.1.1.3-.1.2-.2s-.3 0-.2.2zm68.6.4c-.1-.1-.3.1-.2.2s.3-.1.2-.2zm-82.5.7c.1.1.3-.1.2-.2s-.3 0-.2.2z" fill="#ee8e0d"/></g><g><path d="M68.9 231.7c-.2-.1-.5 0-.6.3a2.6 2.6 0 0 1-.5.6c.6.3.2-.1.7-.2s.3-.5.4-.7zm17.8.6c0 .1.2-.1.2-.2s-.2.1-.2.2zm-23.1 1.2l.5.2a.3.3 0 1 0-.5-.2z" fill="none"/><path d="M68.5 232.4h.2c.1 0-.1-.1-.2 0zm.2-.2c.4.1.4-.1.5-.3s.3-.5.6-.5-.9-.2-.9.2-.1.4-.2.6zm-4.7 2a4.1 4.1 0 0 0 2.6 0H64zm-.5-.4c-.1.3.1 0 0 0zm2-.3c0 .1.1-.1.1-.2s-.1.1-.1.2zm4.5-2.1c.1-.1.3 0 .3-.3s-.3 0-.3.3zm-2.2 1.5l-.4.4c.2.3 1.1.5.6 0s-.2.1-.3 0 .5-.6.1-.4zm-2 1c0 .1.1-.1.1-.2s-.2.1-.1.2zm.4-1.3c0 .3 0 .1 0 0z" fill="none"/><path d="M67.1 233.9c-.3-.4.3-.3.4-.6s-.4 0-.5.1-.2.4.1.5zm-1.4-.4c0 .1.1-.1 0-.2s-.1 0 0 .2zm1.4.9c.1-.1.2-.1.1-.3s-.2.1-.1.3zm.7-.4c.1 0 .1-.2-.1-.2s-.1.1.1.2zm36.9-2.4c.4 0 .9.6 1.2.2l-.6-.2c-.2 0-.5-.5-.6 0zm-.2-.6c.6 0 1.2.7 1.7.4s-1.2-.7-1.7-.4zm2.4 1.1c.1 0 .2.1.3-.1s-.2-.1-.3.1zm-3.2-1.1c0 .1.2-.1.2-.2s-.3.1-.2.2zm2.3 1c0-.3-.1 0 0 0zm1.2.2c0 .1.2-.1.2-.2s-.2 0-.2.2zm-2.8-1.7v.2c.1 0 .1-.1 0-.2zm-.1.2h-.1c0 .3.1.2.1 0z" fill="none"/><path d="M110.6 229.1c0-.1-.2.1-.1.2s.1-.1.1-.2zm-44.1.9c-.1 0-.1.3 0 .3s.1-.3 0-.3zm29.3 4.3zM63.6 232zm2.2.5c0-.1-.1.1 0 .2s.1-.1 0-.2z" fill="#ee8e0d"/><path d="M73.9 231a11 11 0 0 0-3.1-.2 3.5 3.5 0 0 0-2.3.1c-.9.5-1.2 1.3-1.8 1.3s.2.9-.2.5.2-.1 0-.3-.2.1-.3.3.1.3 0 0v-.2c-.2.1-.3.2.1.4h-.7a.7.7 0 0 1-.8.3l-.9-.3c-.1.2-.1.4-.1.4a.3.3 0 1 1 .5.2l-.5-.2v.2c.1 0-.1.3 0 0a.6.6 0 0 0-.6.2c.4.6 1-.2 1.1.2h2.6a4.1 4.1 0 0 1-2.6 0c0 .4.5.6.6.6s.2-.3.3-.2 0 .2.1.2.1-.3.3-.2 0 .2.1.2.1-.1.7.2a4.9 4.9 0 0 0 2-.9 1.7 1.7 0 0 0 .7-1.6h-.2c-.5.1-.1.5-.7.2a2.6 2.6 0 0 0 .5-.6c.2-.2.4-.4.6-.3s.6-.5.9-.2-.5.2-.6.5-.2.4-.5.3.4-.2.2-.5-.8.3-.4.7.2 0 .2.1.6-.3.9-.5.6-.4.8-.3 0-.5.1-.5.2.4.3.4.1-.5.3-.5a2.1 2.1 0 0 1 1.9.2c-.1-.5.3.2.5-.2zm-8.4 2.5c0-.1 0-.3.1-.2s0 .2-.1.2zm.2.4c-.1-.1 0-.3.1-.2s0 .3 0 .2zm-.1-.4c-.1-.1 0-.3 0-.2s.1.2.1.2zm1.4.9c-.1-.2.1-.2.1-.3s.1.2 0 .3zm.6-.4c-.1 0-.1-.3-.1-.2s.3.2.3.2zm0-.7c.1.1.3.1.3 0s-.4.3-.6 0-.6.2-.4.6-.3-.3-.2-.5.3-.3.5-.1l.4-.4c.6-.2.3.3.2.4zm2.3-1.9c-.1-.3.2-.3.3-.3s0 .2-.2.3zm12.7.5c-.1 0-.1.2 0 .3s.2-.3 0-.3zm-.6 1.3c.5-.7-.6-.1 0 0zm-6.9-1.3c.4-.3.9.5 1.3.2s-.7-.4-.8-.4-1.2-1.3-1.1-.5 1.3.2.6.7zm2.9 1.2a7.5 7.5 0 0 0 2.4.6c-.6-.3-1.7-.9-2.4-.6zm-16-.9zm.2.3c.1.2.5.4-.1.6l.7.2c.3-.3.1-.6-.1-.8s-.5-.2-.5 0zm.9.8c0 .1.2 0 .2-.1s-.2-.1-.2.1zm.4 0c0-.1-.2 0-.2.2s.2-.1.2-.2zm10.6-2.3c0-.1-.2 0-.2.2s.3 0 .2-.2zm3.6 1.7c-.4 0-.9-.7-1.3-.4s.9.8 1.3.4zm.3.2c0-.1-.2 0-.2.2s.2-.1.2-.2z" fill="#ee8e0d"/><path d="M95 234.5a10.6 10.6 0 0 1-5.3-1.4 12.5 12.5 0 0 0-2.9-1.4 3.7 3.7 0 0 0-3.2.5l-1.2.8-1 .3s0 .5-.1.5-.1-.7-.3-.4-.1.1-.1 0-.2.3-.4.2a4.7 4.7 0 0 1-2.4-.2 26.9 26.9 0 0 1-2.5-1c-.2-.1-.6-.6-.8.1l2.3.8a13.8 13.8 0 0 0 2.6.7 5.1 5.1 0 0 0 2.6-.2c.8-.3 1.4-1 2.1-1.2a.4.4 0 0 1 .4-.4 1 1 0 0 0 .6-.2c.1.3.4 1.1.5.4s-.2-.2-.2-.4 1-.2 1 .3-.3-.1-.4.2.3.3.6.4 0-.7.4-.6 2 1.7 3.4 1.4A11.2 11.2 0 0 0 95 235l.2-.2c0-.6-.1-.3-.2-.3zm-8.3-2.2c0-.1.2-.3.2-.2s-.2.3-.2.2zm8.8 2a.7.7 0 0 1-.3.4.4.4 0 0 0 .5.3c.3-.1.4-.3.3-.4l-.2-.2c.1.3-.2.5-.3-.1zm14.3-2.7l-1.8-.4h-.3c-.1 0-.2-.1-.3.1s1.7.7 2.4.3zm.3.1c-.1 0-.2 0-.3.2s.3 0 .3-.2zm.9.4c-.5-.7-.4.7 0 0zm-36.3-.4c.5.5.4-.6 0 0zm22.6-.4a1.6 1.6 0 0 1 .6-.5.9.9 0 0 0 .4-.7 3.6 3.6 0 0 0-1 .7 3.3 3.3 0 0 0-.7 1.1c-.3.8-.6 1.5-.1 1.9s.3-1.8.8-2.5z" fill="#ee8e0d"/><path d="M109.3 232.2h.5c.2.1.3-.2.2-.2-2.5-.2-3.3-1.5-5.5-1.6.1 0 .1.2-.1.2s-.2.2-.1 0-.3-.3-.5-.4a10.4 10.4 0 0 0-3.1-.4 3.4 3.4 0 0 0-2.6 1.2l-.6.7-.3.7c-.3.4.3.5.2.1l.3-.7a2.2 2.2 0 0 1 1.4-1.1l1.7-.5c.2-.1.3.4.5.5s.5-.2.7-.1.9.6 1.5.8h.6c.7.2 1.5 1.1 2.2 1s-.2-.1-.2-.3 0-.3 0 0l1.3.4c.2 0 .2-.6.4-.6s0 .4.1.5.7.1 1.1 0 .2-.2.3-.2zm-5.7-1.2c0-.1.2-.2.2-.2s-.1.3-.1.2zm1 .6c.1-.5.4 0 .6 0l.6.2c-.2.4-.7-.3-1.1-.2zm-.2-.5c.5-.4 1.2.3 1.7.4s-1-.4-1.6-.5zm2.4 1c.1-.2.2-.1.3-.1s-.1 0-.2.1zm.3.1c0-.1.2-.2.2-.2s0 .2-.1.2zm-44.3 1.1c-.3.6.5.1 0 0zm10.7-2c0-.1-.2.1-.2.2s.3-.1.2-.2zm1.1.6v-.2c-.5-.4-.7.1 0 .2zm21.5 2.7c.3.2.3 0 .2-.1s-.2-.1-.2.1zm.3-.7c-.5.6.6.5 0 0z" fill="#ee8e0d"/><path d="M104.4 230.5c-.1-.1-.1.1-.2.2h.1zm-31 1.5c.2.1 1.2.8 1.1 0s-.4 0-.8 0-.6-.2-.3 0zm39.2.7a5.4 5.4 0 0 0-1.9 0c-.3 0-.9-.5-1.1.3s1-.2 1.7.3.1-.4.2-.4 0 .4.2.5.9-.2 1.6-.1-.5-.4-.7-.6zm-40.8-1.1c0 .1.2-.1.1-.2s-.2.1-.1.2zm.4.1c0 .1.2-.1.1-.2s-.1.1-.1.2zm.4.1c0 .1.2-.1.2-.2s-.3 0-.2.2zm.3 0c.1 0 .2.1.3-.2s-.2 0-.3.2zm11.4 1.3l1-.4c.1-.3-.1-.2-.4-.1s-.5.2-.7.1 0 .2.1.4zm1.5-.7c.2-.1 0-.3 0 0zm11.1 1.9c-.1-.2-.3-.1 0 0zm.1-.2c-.1-.2.4-.6 0-.8v.3c-.1.2-.2.4 0 .5zm.2-.8c0-.1 0-.2-.2-.3s0 .2.2.3zm11.7-.9c-.8.4.5.9.6.1s-.5.3-.6-.1zm-32.5 1.2c0 .1.2 0 .2-.1s-.2 0-.2.1zm1.3.6c0 .1.2 0 .2-.2s-.2.1-.2.2zm.3.1c0 .1.2 0 .2-.2s-.2.1-.2.2zm5.9-.9c.1-.1.4-.2.2-.4s-.4.2-.2.4zm2.3-.9c-.4-.3-.1.7 0 0zm9.2 3.2c.1 0 .3 0 .3-.2s-.3 0-.3.2zm1.3-.4c.1-.1.2-.3 0-.4s-.2.2 0 .4zm.2-1c.1.2.3.1 0 0z" fill="#ee8e0d"/><path d="M108.5 232.7c.1-.5-.5-.2-.6-.4s.4.3.6.4zm4.6.5c.1.3.1 0 0 0zm-38.8-.4c0 .1.2 0 .2-.2s-.2.1-.2.2zm6.4 3.8c.1.1.3-.1.2-.2s-.2.1-.2.2zm33.5-.9c0-.1-.2.1-.1.2s.2-.1.1-.2zm-41.7-.7c0 .1.1-.1.1-.2s-.1 0-.1.2z" fill="#ee8e0d"/></g><g><path d="M213.7 245c-.1-.5-.4-.1-.6-.2s.1.1.3.4.2-.1.3-.2zm8.7.4c0 .1.1-.1.1-.2s-.1.1-.1.2zm-11.8-.6h.3c0-.4-.3-.4-.3 0z" fill="none"/><path d="M213.4 245.2v.2c.1 0 0-.2 0-.2zm.1 0c.1.7.4-.3.6 0s-.3-.6-.4-.2-.1.2-.2.2zm-2.6 0h1.3a.8.8 0 0 0-1.3 0zm-.3-.2c0 .3.1 0 0 0zm1.1-.7c0 .1.1-.1.1-.2s-.2.1-.1.2zm2.5.9c.1 0 .2 0 .2-.2s-.2-.1-.2.2zm-1.2-.2h-.3c0 .3.2 1.1.2.4s-.1 0-.1-.2.4 0 .2-.2zm-1.2-.2c0 .1.1-.1.1-.2s-.2 0-.1.2zm.5-1.2h-.1c.1.3.1.2.1 0z" fill="none"/><path d="M212.4 245.2c0-.5.2-.1.3-.2s-.5-.3-.3.2zm-.6-.9c0 .1.1-.1.1-.2s-.2.1-.1.2zm.5 1.3s.1 0 .1-.2-.1 0-.1.2zm.3 0c0 .1.1-.1.1-.2s-.1.1-.1.2zm19.8.3c.2-.1.5.3.5-.2h-.3c0 .1-.2-.3-.2.2zm-.2-.5c.3-.1.7.3.8-.2s-.6-.3-.8.2zm1.2.2s.1 0 .1-.2-.1 0-.1.2zm-1.6 0c0 .1.1-.1.1-.2s-.1.1-.1.2zm1.2.3c0-.3-.1 0 0 0zm.6-.3c0 .1.1-.1.1-.2s-.1.1-.1.2zm-1.5-.6v.2c.1 0 0-.2 0-.2zm0 .2h-.1c.1.3.1.1.1 0z" fill="none"/><path d="M234.8 241.9c0-.1-.1.1-.1.2s.2-.1.1-.2zm-21.3.2c0-.1-.1.1-.1.2s.1-.1.1-.2zm13.6.7c0-.1-.1.1-.1.2s.1-.1.1-.2zm-17 .6c0-.1-.1.1-.1.2s.2-.1.1-.2zm1.9 0c0-.1-.1.1-.1.2s.1-.1.1-.2z" fill="#ee8e0d"/><path d="M215.9 244.5c-.5 0-.9.4-1.3.2s-.5-.6-.8-.7-.6.1-.9-.4-.3.8-.3.2.2 0 .2-.2-.2 0-.4 0 0 .3-.1 0h.1v-.2c-.3 0-.3.1-.1.4h-.5c-.4.7-.6.2-1.1.4a.8.8 0 0 0 .1.4c0-.4.3-.4.3 0h-.3v.2c.1 0 0 .3 0 0s-.2.1-.2.4.4-.6.5-.2a.8.8 0 0 1 1.3 0h-1.3c.1.4.3.5.3.4s.1-.3.1-.2 0 .2.1.2.1-.3.1-.2 0 .2.1.2.1-.1.3.2 1.2.4 1.6-.4v-.2c-.2-.3-.2.3-.3-.4s.5-.3.6.2.3-.1.4.2-.4.7-.6 0 .2.1.2-.2-.3-.3-.3.2.1.2 0 .2.8-.1 1 .2 0-.4.1-.4 0 .4.1.4.1-.5.2-.4.5-.3.9 0-.1 0-.1-.5zm-4.2-.2c0-.1 0-.3.1-.2s-.1.3-.1.2zm.1.4c0-.1 0-.3.1-.2s-.1.3-.1.3zm0-.4c0-.1 0-.3.1-.2s-.1.3-.1.2zm.5 1.3c0-.2.1-.2.1-.2s0 .2-.1.2zm.3 0c0-.1 0-.3.1-.2s0 .3-.1.2zm.2-.4c0 .2 0 .3.1.2s-.2-.1-.2-.4-.3-.3-.3.2.3-.7.3-.2h.3c.2.2-.1.3-.1.2zm1.4 0c0-.3.1-.2.2-.2s-.1.2-.2.2zm6.7-1.3c0-.1-.1.1-.1.2s.1-.1.1-.2zm-.8.6c.5-.4-.3-.4 0 0zm-3.5.5c.1-.4.4 0 .5-.4s-.4 0-.4 0-.7-.7-.5 0 .5-.4.4.4zm1.4-.2h1.3c-.4-.3-1-.6-1.3 0zm-8.6 0c0 .1.1-.1.1-.2s-.1 0-.1.2zm.3 0c.1 0 .4-.1.2.4l.3-.2c.1-.9-.7-.5-.5-.2zm.6 0c0 .1.1-.1.1-.2s-.1 0-.1.2zm.2-.3c0-.1-.1.1-.1.2s.2-.1.1-.2z" fill="#ee8e0d"/><path d="M216 244.5c0-.1-.1.1-.1.2s.1-.1.1-.2zm1.8 0c-.2.1-.5-.3-.7.2s.6.3.7-.2zm.2 0c0-.1-.1.1-.1.2s.1-.1.1-.2zm8.5.3c-1.5.4-3.7 0-5.4 0l-1.3-.2s0 .5-.1.4 0-.7-.1-.4-.1.1-.1 0-.1.3-.2.2a12.8 12.8 0 0 1-2.4.4c-.1 0-.4-.3-.3.4a8.7 8.7 0 0 1 4.7-.2c.2-.4.3.1.5-.2s.2 1.1.2.4-.1-.2-.1-.4.4-.3.5.2-.2 0-.2.2.2.2.3.2-.1-.7.1-.7 1.2.5 1.7-.2a8.4 8.4 0 0 0 2.1.2l.1-.2v-.1zm-4 .7c0-.1 0-.3.1-.2s-.2.2-.2.1zm4.2-1l-.2.4c.1.4.5.3.5 0v-.2c-.1.2-.2.4-.3-.2zm8 0h-1s-.1 0-.1.2.8.3 1.1-.2zm.1 0s-.1 0-.1.2.1 0 .1-.2zm.5.3c-.3-.6-.1.7 0 0zm-19 .2c.3.2.1-.7 0 0zm12.5 0c.2 0 .4.4.6-.2h-1c-.4 0-.7-.2-.8.4s.9-.2 1.2-.2z" fill="#ee8e0d"/><path d="M234.5 245.2h.2c.1.1.1-.2.1-.2s-1.7-.6-2.7 0 .1.2 0 .2 0 .3-.1 0-.2-.2-.3-.2a6 6 0 0 0-2.7.4h-.8c-.2-.2-.2.4 0 .2h.4c.6-.1 1.3.3 1.8-.2s.2.4.3.4.2-.3.3-.2.5.4.8.4l.3-.2c.4 0 .8.6 1.1.2s-.1 0-.1-.2 0-.3 0 0h.6c.1 0 0-.7.1-.7s0 .4.1.4.3-.1.5-.2 0-.1.1-.1zm-2.7.4c0-.1 0-.3.1-.2s0 .3-.1.2zm.5.2c0-.5.2-.1.3-.2h.3c0 .6-.4.1-.5.3zm-.2-.4c.2-.5.6-.1.8-.2s-.4.1-.7.2zm1.2.2c0-.2.1-.2.1-.2s.1.2 0 .2zm.2 0c0-.1 0-.3.1-.2s0 .3 0 .2zm-23.3-.6c0 .7.2-.2 0 0zm5.6 0c0-.1-.1.1-.1.2s.1-.1.1-.2zm.5.2v-.2a.1.1 0 1 0 0 .2zm10.8-.2c.1.7.3-.2 0 0zm.4 0c-.3-.3-.1.7 0 0z" fill="#ee8e0d"/><path d="M232.1 245s-.1.1-.1.2h.1zm-16.2.6c.1 0 .7.3.5-.4s-.9.3-.5.4zm20.1-.4c-.3-.2-.6.2-.9.2s-.5-.4-.5.4.5-.3.8 0a.8.8 0 0 1 .1-.4c0 .4 0 .4.1.4s.4-.3.7-.2-.2-.3-.3-.4zm-21 .4c0 .1.1-.1.1-.2s-.1.1-.1.2zm.3 0c0 .1.1-.1.1-.2s-.2.1-.1.2zm.1 0c0 .1.1-.1.1-.2s-.1.1-.1.2zm.2 0s.1 0 .1-.2-.1 0-.1.2zm5.5.3h.6c.1-.5-.4.1-.5-.4s-.1.1-.1.4zm.9-.3c.1-.1 0-.3 0 0zm5.4 0c.1-.1 0-.3 0 0zm.1 0c.1-.1.3.3.3-.2h-.2c0 .1 0 0-.1.2zm.4 0s.1 0 .1-.2-.1 0-.1.2z" fill="#ee8e0d"/><path d="M234.3 245.4c-.3.5.3.8.3 0s-.2.4-.3 0zm-16.9.5c0 .1.1-.1.1-.2s-.1.1-.1.2zm.7 0c0 .1.1-.1.1-.2s-.1.1-.1.2zm.1 0c0 .1.1-.1.1-.2s-.1.1-.1.2zm2.7 0c.1 0 .2.1.2-.2s-.2-.1-.2.2zm1.3-.3c-.2-.2 0 .7 0 0zm4.5.3s.1 0 .1-.2-.1 0-.1.2zm.4 0s.1 0 .1-.2-.1 0-.1.2zm.3-.3c-.1.1 0 .3 0 0z" fill="#ee8e0d"/><path d="M234.2 245.9c0-.5-.2-.1-.3-.2s.2 0 .3.2zm2.1-.3c0 .3.1 0 0 0zm-19.9.5c0 .1.1-.1.1-.2s-.1.1-.1.2zm3 1.6c0 .1.1-.1.1-.2s-.1 0-.1.2zm17.4.4c0-.1-.1.1-.1.2s.2-.1.1-.2zm-20.9.7c0 .1.1-.1.1-.2s-.2 0-.1.2z" fill="#ee8e0d"/></g><g><path d="M213.7 237.5c-.1-.5-.4-.1-.6-.2s.1.1.3.4.2-.1.3-.2zm8.7.4c0 .1.1-.1.1-.2s-.1.1-.1.2zm-11.8-.6h.3c0-.4-.3-.4-.3 0z" fill="none"/><path d="M213.4 237.7v.2c.1 0 0-.2 0-.2zm.1 0c.1.7.4-.3.6 0s-.3-.6-.4-.2-.1.2-.2.2zm-2.6 0h1.3a.8.8 0 0 0-1.3 0zm-.3-.2c0 .3.1 0 0 0zm1.1-.7c0 .1.1-.1.1-.2s-.2.1-.1.2zm2.5.9c.1 0 .2 0 .2-.2s-.2-.1-.2.2zm-1.2-.2h-.3c0 .3.2 1.1.2.4s-.1 0-.1-.2.4 0 .2-.2zm-1.2-.2c0 .1.1-.1.1-.2s-.2 0-.1.2zm.5-1.2h-.1c.1.3.1.2.1 0z" fill="none"/><path d="M212.4 237.7c0-.5.2-.1.3-.2s-.5-.3-.3.2zm-.6-.9c0 .1.1-.1.1-.2s-.2.1-.1.2zm.5 1.3s.1 0 .1-.2-.1 0-.1.2zm.3 0c0 .1.1-.1.1-.2s-.1.1-.1.2zm19.8.3c.2-.1.5.3.5-.2h-.3c0 .1-.2-.3-.2.2zm-.2-.5c.3-.1.7.3.8-.2s-.6-.3-.8.2zm1.2.2s.1 0 .1-.2-.1 0-.1.2zm-1.6 0c0 .1.1-.1.1-.2s-.1.1-.1.2zm1.2.3c0-.3-.1 0 0 0zm.6-.3c0 .1.1-.1.1-.2s-.1.1-.1.2zm-1.5-.6v.2c.1 0 0-.2 0-.2zm0 .2h-.1c.1.3.1.1.1 0z" fill="none"/><path d="M234.8 234.4c0-.1-.1.1-.1.2s.2-.1.1-.2zm-21.3.2c0-.1-.1.1-.1.2s.1-.1.1-.2zm13.6.7c0-.1-.1.1-.1.2s.1-.1.1-.2zm-17 .6c0-.1-.1.1-.1.2s.2-.1.1-.2zm1.9 0c0-.1-.1.1-.1.2s.1-.1.1-.2z" fill="#ee8e0d"/><path d="M215.9 237c-.5 0-.9.4-1.3.2s-.5-.6-.8-.7-.6.1-.9-.4-.3.8-.3.2.2 0 .2-.2-.2 0-.4 0 0 .3-.1 0h.1v-.2c-.3 0-.3.1-.1.4h-.5c-.4.7-.6.2-1.1.4a.8.8 0 0 0 .1.4c0-.4.3-.4.3 0h-.3v.2c.1 0 0 .3 0 0s-.2.1-.2.4.4-.6.5-.2a.8.8 0 0 1 1.3 0h-1.3c.1.4.3.5.3.4s.1-.3.1-.2 0 .2.1.2.1-.3.1-.2 0 .2.1.2.1-.1.3.2 1.2.4 1.6-.4v-.2c-.2-.3-.2.3-.3-.4s.5-.3.6.2.3-.1.4.2-.4.7-.6 0 .2.1.2-.2-.3-.3-.3.2.1.2 0 .2.8-.1 1 .2 0-.4.1-.4 0 .4.1.4.1-.5.2-.4.5-.3.9 0-.1 0-.1-.5zm-4.2-.2c0-.1 0-.3.1-.2s-.1.3-.1.2zm.1.4c0-.1 0-.3.1-.2s-.1.3-.1.3zm0-.4c0-.1 0-.3.1-.2s-.1.3-.1.2zm.5 1.3c0-.2.1-.2.1-.2s0 .2-.1.2zm.3 0c0-.1 0-.3.1-.2s0 .3-.1.2zm.2-.4c0 .2 0 .3.1.2s-.2-.1-.2-.4-.3-.3-.3.2.3-.7.3-.2h.3c.2.2-.1.3-.1.2zm1.4 0c0-.3.1-.2.2-.2s-.1.2-.2.2zm6.7-1.3c0-.1-.1.1-.1.2s.1-.1.1-.2zm-.8.6c.5-.4-.3-.4 0 0zm-3.5.5c.1-.4.4 0 .5-.4s-.4 0-.4 0-.7-.7-.5 0 .5-.4.4.4zm1.4-.2h1.3c-.4-.3-1-.6-1.3 0zm-8.6 0c0 .1.1-.1.1-.2s-.1 0-.1.2zm.3 0c.1 0 .4-.1.2.4l.3-.2c.1-.9-.7-.5-.5-.2zm.6 0c0 .1.1-.1.1-.2s-.1 0-.1.2zm.2-.3c0-.1-.1.1-.1.2s.2-.1.1-.2z" fill="#ee8e0d"/><path d="M216 237c0-.1-.1.1-.1.2s.1-.1.1-.2zm1.8 0c-.2.1-.5-.3-.7.2s.6.3.7-.2zm.2 0c0-.1-.1.1-.1.2s.1-.1.1-.2zm8.5.3c-1.5.4-3.7 0-5.4 0l-1.3-.2s0 .5-.1.4 0-.7-.1-.4-.1.1-.1 0-.1.3-.2.2a12.8 12.8 0 0 1-2.4.4c-.1 0-.4-.3-.3.4a8.7 8.7 0 0 1 4.7-.2c.2-.4.3.1.5-.2s.2 1.1.2.4-.1-.2-.1-.4.4-.3.5.2-.2 0-.2.2.2.2.3.2-.1-.7.1-.7 1.2.5 1.7-.2a8.4 8.4 0 0 0 2.1.2l.1-.2v-.1zm-4 .7c0-.1 0-.3.1-.2s-.2.2-.2.1zm4.2-1l-.2.4c.1.4.5.3.5 0v-.2c-.1.2-.2.4-.3-.2zm8 0h-1s-.1 0-.1.2.8.3 1.1-.2zm.1 0s-.1 0-.1.2.1 0 .1-.2zm.5.3c-.3-.6-.1.7 0 0zm-19 .2c.3.2.1-.7 0 0zm12.5 0c.2 0 .4.4.6-.2h-1c-.4 0-.7-.2-.8.4s.9-.2 1.2-.2z" fill="#ee8e0d"/><path d="M234.5 237.7h.2c.1.1.1-.2.1-.2s-1.7-.6-2.7 0 .1.2 0 .2 0 .3-.1 0-.2-.2-.3-.2a6 6 0 0 0-2.7.4h-.8c-.2-.2-.2.4 0 .2h.4c.6-.1 1.3.3 1.8-.2s.2.4.3.4.2-.3.3-.2.5.4.8.4l.3-.2c.4 0 .8.6 1.1.2s-.1 0-.1-.2 0-.3 0 0h.6c.1 0 0-.7.1-.7s0 .4.1.4.3-.1.5-.2 0-.1.1-.1zm-2.7.4c0-.1 0-.3.1-.2s0 .3-.1.2zm.5.2c0-.5.2-.1.3-.2h.3c0 .6-.4.1-.5.3zm-.2-.4c.2-.5.6-.1.8-.2s-.4.1-.7.2zm1.2.2c0-.2.1-.2.1-.2s.1.2 0 .2zm.2 0c0-.1 0-.3.1-.2s0 .3 0 .2zm-23.3-.6c0 .7.2-.2 0 0zm5.6 0c0-.1-.1.1-.1.2s.1-.1.1-.2zm.5.2v-.2a.1.1 0 1 0 0 .2zm10.8-.2c.1.7.3-.2 0 0zm.4 0c-.3-.3-.1.7 0 0z" fill="#ee8e0d"/><path d="M232.1 237.5s-.1.1-.1.2h.1zm-16.2.6c.1 0 .7.3.5-.4s-.9.3-.5.4zm20.1-.4c-.3-.2-.6.2-.9.2s-.5-.4-.5.4.5-.3.8 0a.8.8 0 0 1 .1-.4c0 .4 0 .4.1.4s.4-.3.7-.2-.2-.3-.3-.4zm-21 .4c0 .1.1-.1.1-.2s-.1.1-.1.2zm.3 0c0 .1.1-.1.1-.2s-.2.1-.1.2zm.1 0c0 .1.1-.1.1-.2s-.1.1-.1.2zm.2 0s.1 0 .1-.2-.1 0-.1.2zm5.5.3h.6c.1-.5-.4.1-.5-.4s-.1.1-.1.4zm.9-.3c.1-.1 0-.3 0 0zm5.4 0c.1-.1 0-.3 0 0zm.1 0c.1-.1.3.3.3-.2h-.2c0 .1 0 0-.1.2zm.4 0s.1 0 .1-.2-.1 0-.1.2z" fill="#ee8e0d"/><path d="M234.3 237.9c-.3.5.3.8.3 0s-.2.4-.3 0zm-16.9.5c0 .1.1-.1.1-.2s-.1.1-.1.2zm.7 0c0 .1.1-.1.1-.2s-.1.1-.1.2zm.1 0c0 .1.1-.1.1-.2s-.1.1-.1.2zm2.7 0c.1 0 .2.1.2-.2s-.2-.1-.2.2zm1.3-.3c-.2-.2 0 .7 0 0zm4.5.3s.1 0 .1-.2-.1 0-.1.2zm.4 0s.1 0 .1-.2-.1 0-.1.2zm.3-.3c-.1.1 0 .3 0 0z" fill="#ee8e0d"/><path d="M234.2 238.4c0-.5-.2-.1-.3-.2s.2 0 .3.2zm2.1-.3c0 .3.1 0 0 0zm-19.9.5c0 .1.1-.1.1-.2s-.1.1-.1.2zm3 1.6c0 .1.1-.1.1-.2s-.1 0-.1.2zm17.4.4c0-.1-.1.1-.1.2s.2-.1.1-.2zm-20.9.7c0 .1.1-.1.1-.2s-.2 0-.1.2z" fill="#ee8e0d"/></g><g><path d="M213.7 230c-.1-.5-.4-.1-.6-.2s.1.1.3.4.2-.1.3-.2zm8.7.4c0 .1.1-.1.1-.2s-.1.1-.1.2zm-11.8-.6h.3c0-.4-.3-.4-.3 0z" fill="none"/><path d="M213.4 230.2v.2c.1 0 0-.2 0-.2zm.1 0c.1.7.4-.3.6 0s-.3-.6-.4-.2-.1.2-.2.2zm-2.6 0h1.3a.8.8 0 0 0-1.3 0zm-.3-.2c0 .3.1 0 0 0zm1.1-.7c0 .1.1-.1.1-.2s-.2.1-.1.2zm2.5.9c.1 0 .2 0 .2-.2s-.2-.1-.2.2zm-1.2-.2h-.3c0 .3.2 1.1.2.4s-.1 0-.1-.2.4 0 .2-.2zm-1.2-.2c0 .1.1-.1.1-.2s-.2 0-.1.2zm.5-1.2h-.1c.1.3.1.2.1 0z" fill="none"/><path d="M212.4 230.2c0-.5.2-.1.3-.2s-.5-.3-.3.2zm-.6-.9c0 .1.1-.1.1-.2s-.2.1-.1.2zm.5 1.3s.1 0 .1-.2-.1 0-.1.2zm.3 0c0 .1.1-.1.1-.2s-.1.1-.1.2zm19.8.3c.2-.1.5.3.5-.2h-.3c0 .1-.2-.3-.2.2zm-.2-.5c.3-.1.7.3.8-.2s-.6-.3-.8.2zm1.2.2s.1 0 .1-.2-.1 0-.1.2zm-1.6 0c0 .1.1-.1.1-.2s-.1.1-.1.2zm1.2.3c0-.3-.1 0 0 0zm.6-.3c0 .1.1-.1.1-.2s-.1.1-.1.2zm-1.5-.6v.2c.1 0 0-.2 0-.2zm0 .2h-.1c.1.3.1.1.1 0z" fill="none"/><path d="M234.8 226.9c0-.1-.1.1-.1.2s.2-.1.1-.2zm-21.3.2c0-.1-.1.1-.1.2s.1-.1.1-.2zm13.6.7c0-.1-.1.1-.1.2s.1-.1.1-.2zm-17 .6c0-.1-.1.1-.1.2s.2-.1.1-.2zm1.9 0c0-.1-.1.1-.1.2s.1-.1.1-.2z" fill="#ee8e0d"/><path d="M215.9 229.5c-.5 0-.9.4-1.3.2s-.5-.6-.8-.7-.6.1-.9-.4-.3.8-.3.2.2 0 .2-.2-.2 0-.4 0 0 .3-.1 0h.1v-.2c-.3 0-.3.1-.1.4h-.5c-.4.7-.6.2-1.1.4a.8.8 0 0 0 .1.4c0-.4.3-.4.3 0h-.3v.2c.1 0 0 .3 0 0s-.2.1-.2.4.4-.6.5-.2a.8.8 0 0 1 1.3 0h-1.3c.1.4.3.5.3.4s.1-.3.1-.2 0 .2.1.2.1-.3.1-.2 0 .2.1.2.1-.1.3.2 1.2.4 1.6-.4v-.2c-.2-.3-.2.3-.3-.4s.5-.3.6.2.3-.1.4.2-.4.7-.6 0 .2.1.2-.2-.3-.3-.3.2.1.2 0 .2.8-.1 1 .2 0-.4.1-.4 0 .4.1.4.1-.5.2-.4.5-.3.9 0-.1 0-.1-.5zm-4.2-.2c0-.1 0-.3.1-.2s-.1.3-.1.2zm.1.4c0-.1 0-.3.1-.2s-.1.3-.1.3zm0-.4c0-.1 0-.3.1-.2s-.1.3-.1.2zm.5 1.3c0-.2.1-.2.1-.2s0 .2-.1.2zm.3 0c0-.1 0-.3.1-.2s0 .3-.1.2zm.2-.4c0 .2 0 .3.1.2s-.2-.1-.2-.4-.3-.3-.3.2.3-.7.3-.2h.3c.2.2-.1.3-.1.2zm1.4 0c0-.3.1-.2.2-.2s-.1.2-.2.2zm6.7-1.3c0-.1-.1.1-.1.2s.1-.1.1-.2zm-.8.6c.5-.4-.3-.4 0 0zm-3.5.5c.1-.4.4 0 .5-.4s-.4 0-.4 0-.7-.7-.5 0 .5-.4.4.4zm1.4-.2h1.3c-.4-.3-1-.6-1.3 0zm-8.6 0c0 .1.1-.1.1-.2s-.1 0-.1.2zm.3 0c.1 0 .4-.1.2.4l.3-.2c.1-.9-.7-.5-.5-.2zm.6 0c0 .1.1-.1.1-.2s-.1 0-.1.2zm.2-.3c0-.1-.1.1-.1.2s.2-.1.1-.2z" fill="#ee8e0d"/><path d="M216 229.5c0-.1-.1.1-.1.2s.1-.1.1-.2zm1.8 0c-.2.1-.5-.3-.7.2s.6.3.7-.2zm.2 0c0-.1-.1.1-.1.2s.1-.1.1-.2zm8.5.3c-1.5.4-3.7 0-5.4 0l-1.3-.2s0 .5-.1.4 0-.7-.1-.4-.1.1-.1 0-.1.3-.2.2a12.8 12.8 0 0 1-2.4.4c-.1 0-.4-.3-.3.4a8.7 8.7 0 0 1 4.7-.2c.2-.4.3.1.5-.2s.2 1.1.2.4-.1-.2-.1-.4.4-.3.5.2-.2 0-.2.2.2.2.3.2-.1-.7.1-.7 1.2.5 1.7-.2a8.4 8.4 0 0 0 2.1.2l.1-.2v-.1zm-4 .7c0-.1 0-.3.1-.2s-.2.2-.2.1zm4.2-1l-.2.4c.1.4.5.3.5 0v-.2c-.1.2-.2.4-.3-.2zm8 0h-1s-.1 0-.1.2.8.3 1.1-.2zm.1 0s-.1 0-.1.2.1 0 .1-.2zm.5.3c-.3-.6-.1.7 0 0zm-19 .2c.3.2.1-.7 0 0zm12.5 0c.2 0 .4.4.6-.2h-1c-.4 0-.7-.2-.8.4s.9-.2 1.2-.2z" fill="#ee8e0d"/><path d="M234.5 230.2h.2c.1.1.1-.2.1-.2s-1.7-.6-2.7 0 .1.2 0 .2 0 .3-.1 0-.2-.2-.3-.2a6 6 0 0 0-2.7.4h-.8c-.2-.2-.2.4 0 .2h.4c.6-.1 1.3.3 1.8-.2s.2.4.3.4.2-.3.3-.2.5.4.8.4l.3-.2c.4 0 .8.6 1.1.2s-.1 0-.1-.2 0-.3 0 0h.6c.1 0 0-.7.1-.7s0 .4.1.4.3-.1.5-.2 0-.1.1-.1zm-2.7.4c0-.1 0-.3.1-.2s0 .3-.1.2zm.5.2c0-.5.2-.1.3-.2h.3c0 .6-.4.1-.5.3zm-.2-.4c.2-.5.6-.1.8-.2s-.4.1-.7.2zm1.2.2c0-.2.1-.2.1-.2s.1.2 0 .2zm.2 0c0-.1 0-.3.1-.2s0 .3 0 .2zm-23.3-.6c0 .7.2-.2 0 0zm5.6 0c0-.1-.1.1-.1.2s.1-.1.1-.2zm.5.2v-.2a.1.1 0 1 0 0 .2zm10.8-.2c.1.7.3-.2 0 0zm.4 0c-.3-.3-.1.7 0 0z" fill="#ee8e0d"/><path d="M232.1 230s-.1.1-.1.2h.1zm-16.2.6c.1 0 .7.3.5-.4s-.9.3-.5.4zm20.1-.4c-.3-.2-.6.2-.9.2s-.5-.4-.5.4.5-.3.8 0a.8.8 0 0 1 .1-.4c0 .4 0 .4.1.4s.4-.3.7-.2-.2-.3-.3-.4zm-21 .4c0 .1.1-.1.1-.2s-.1.1-.1.2zm.3 0c0 .1.1-.1.1-.2s-.2.1-.1.2zm.1 0c0 .1.1-.1.1-.2s-.1.1-.1.2zm.2 0s.1 0 .1-.2-.1 0-.1.2zm5.5.3h.6c.1-.5-.4.1-.5-.4s-.1.1-.1.4zm.9-.3c.1-.1 0-.3 0 0zm5.4 0c.1-.1 0-.3 0 0zm.1 0c.1-.1.3.3.3-.2h-.2c0 .1 0 0-.1.2zm.4 0s.1 0 .1-.2-.1 0-.1.2z" fill="#ee8e0d"/><path d="M234.3 230.4c-.3.5.3.8.3 0s-.2.4-.3 0zm-16.9.5c0 .1.1-.1.1-.2s-.1.1-.1.2zm.7 0c0 .1.1-.1.1-.2s-.1.1-.1.2zm.1 0c0 .1.1-.1.1-.2s-.1.1-.1.2zm2.7 0c.1 0 .2.1.2-.2s-.2-.1-.2.2zm1.3-.3c-.2-.2 0 .7 0 0zm4.5.3s.1 0 .1-.2-.1 0-.1.2zm.4 0s.1 0 .1-.2-.1 0-.1.2zm.3-.3c-.1.1 0 .3 0 0z" fill="#ee8e0d"/><path d="M234.2 230.9c0-.5-.2-.1-.3-.2s.2 0 .3.2zm2.1-.3c0 .3.1 0 0 0zm-19.9.5c0 .1.1-.1.1-.2s-.1.1-.1.2zm3 1.6c0 .1.1-.1.1-.2s-.1 0-.1.2zm17.4.4c0-.1-.1.1-.1.2s.2-.1.1-.2zm-20.9.7c0 .1.1-.1.1-.2s-.2 0-.1.2z" fill="#ee8e0d"/></g></svg>