<svg data-name="Layer 1" xmlns="http://www.w3.org/2000/svg" width="300" height="300"><path fill="#fbc5a9" d="M0 0h300v300H0z"/><path fill="#fef0e9" d="M255.9 65H44.1v150.4h75.8l30.6 29.6 30.5-29.6h74.9V65z"/><path d="M138.3 65.3c2.4.5 11.3.1 16.2.2-1.6-.6-3-.1-7.2-.4-.3.5-6.3.1-9 .2zM44 208.1c-.1.4.1 2.3.2 1.5s-.1-2.3-.2-1.5zM222.7 65.4h-7.4c-.9.3 7.8.3 7.4 0zm-75.4-.3v-.2c-1.6 0-.8.2 0 .2z" fill="none"/><path d="M144.4 65.1c-3.8-.6-9.9.3-16.3 0a48.6 48.6 0 0 0 10.3.2c.5-.3 3.7-.2 6-.2zm71.2 0h-34.2c7.8.3 26 .3 34.2 0zm7.2.2c-.7-.3-1.8 0 0 0zm-28.5.5c-.4-.1-2.3.1-1.6.2s2.3-.1 1.6-.2zm-69.2-.7c-1.8 0-4.2 0-4.5.2 1.7 0 4.2.1 4.5-.2zm32.5.2h7.4c.1-.3-3.7-1-5.7-.4a8.1 8.1 0 0 1 2.9.2c-1.8-.1-9.2 0-4.6.2zm34 .2c-.4-.1-2.3.1-1.6.2s2.3-.1 1.6-.2zm-15.4 1h1.5c-.1-.3-1.4-.1-1.5 0zm-2.2-1.4c-.4.4-6.3.1-9 .2-.1.4 15.2.2 9-.2zm17.4.8c-.4-.1-2.3.1-1.6.2s2.3-.2 1.6-.2zm-14.2-1.2a14 14 0 0 0-3.1.2 14 14 0 0 0 3.1-.2zm-8.9 0c-.4-.1-2.3.1-1.6.2s2.3-.1 1.6-.2zm88.1 122.1c-.1-4.5.3-12.9-.2-14.8v7.4c.1 2.1-.2 7.7.2 7.4zm-.4 4.5c-.1-6.9.3-17.8-.2-22.2.1 6.9-.3 17.8.2 22.2zm.2-32.7c0-1.1 0-2.9-.2-2.9s0 2.9.2 2.9zm0 43.1c.1-.4-.1-2.2-.2-1.5s.1 2.3.2 1.5zm.2-32.8c-.3 1 0 1.8 0 0zm-.2-14.8c.1-.4-.1-2.2-.2-1.4s.1 2.2.2 1.4zm-.7 40.2h.2c0-1.7-.2-.8-.2 0zm.3 0v1.5a2 2 0 0 0 0-1.5z" fill="none"/><path d="M252.9 121.8c-.1.4.1 2.2.2 1.3s-.1-2.2-.2-1.3zM143.2 68c.4.1 2.3-.1 1.5-.2s-2.2.1-1.5.2zm6.9 173.8c-.3.2-1.5 1.6-.9 1.2s1.5-1.7.9-1.2zm85.1-175.4c.4 0 2.3-.1 1.6-.2s-2.3.1-1.6.2zm-50.2.2c.4.1 2.3-.1 1.6-.2s-2.3.1-1.6.2z" fill="#bf461d"/><path d="M79 65.8c12.2 0 23.9-.4 35.6-.2 5.9.1 13.3.5 22 .6s17.1-.1 23.4.4c.7-.3 7.9-.7 9-.2a19.4 19.4 0 0 0-4.5.2c5.9.1 5.1 0 11.8 0 .1-.1 1.3-.2 1.5 0h-1.5v.2c7.5 0 8.2-.1 3.2-.4h14.8c10.9-.6 17.6-.2 29.8-.4.4-.2-.1-.3-1.2-.3.4.3-8.3.3-7.4 0h7.4v-.2c-1.8 0-.7-.3 0 0a42.6 42.6 0 0 0 6.2-.3c-7.1-.3-11.1.4-13.5.2-8.2.3-26.4.3-34.1 0h34.1c-1.6-.3-7.6-.4-8.6-.4s-1.8.2-3.1.2.1-.2-1.4-.2-1.7.2-3.1.2.2-.2-1.4-.2a46.4 46.4 0 0 1-7.3-.2c-14.2.2-33.5-.4-43.3.4v.2c4.2.3 5.6-.2 7.2.4-4.9-.1-13.9.3-16.2-.2a48.6 48.6 0 0 1-10.3-.2c6.4.3 12.5-.6 16.3 0-2.2 0-5.4-.1-6 .2 2.6-.1 8.6.2 9-.2s-1.6-.2.1-.2c-6.4-.6-21.8.1-26.7-.2-1.6.1-1.1.4-3.1.4a8.7 8.7 0 0 0-2.9-.4 14.4 14.4 0 0 1-4.6.4c-10.2.1-13 .3-23.7 0 .6.4-6.8-.1-7.5.4zm115.3.1c.7.1-1.2.2-1.6.2s1.2-.3 1.6-.3zm-2.7-.4c.7.1-1.2.2-1.6.2s1.2-.3 1.6-.2zm-.2.4c.7.1-1.2.2-1.6.2s1.2-.3 1.6-.2zm-14.1-1.1a14 14 0 0 1-3.1.2 14 14 0 0 1 3-.3zm-8.9 0c.7.1-1.2.3-1.6.2s1.1-.4 1.5-.3zm-6.1.4a8.1 8.1 0 0 0-2.9-.2c2.1-.6 5.9.1 5.7.4 2.7-.1 8.6.2 9-.2 6.2.4-9.1.6-9 .2h-7.4c-4.7-.3 2.7-.4 4.5-.3zm-37.1 0c-.3.2-2.8.2-4.5.2.2-.3 2.6-.3 4.4-.3zm-79.6 99.9c.1-.4-.1-2.3-.2-1.5s.1 2.2.2 1.5zm-.7-19.3c.4 14 .4-8.7 0 0zm16.4-80.5c-3.2.4-12.1 0-14.8.4 3.3.2 9.8 0 10.4 0s18.5.7 14.8 0-15.2.4-10.4-.4zM44.7 87.9V122c.3-9.6.5-27.9 0-34.1zm210.6-22.5c-.4 0-2.3.1-1.6.2s2.3-.1 1.6-.2zm-5.9 0c-3.9 0-9.9.1-5.6-.3l-9 .2c-2.2.6 18.4.2 14.6.1zm-17.8 0c-.4 0-2.3.1-1.6.2s2.3-.1 1.6-.2z" fill="#bf461d"/><path d="M225.5 65.6c.4 0 2.3-.1 1.6-.2s-2.3.1-1.6.2zM76 65.8c.4.1 2.3-.1 1.5-.2s-2.2.1-1.5.2zM44.9 82c-.1-5.1.2-13.4-.1-17l-.7.7.6-.6c.1 5.4-.3 14 .2 16.9zm0 4.4c.1-.4-.1-2.2-.2-1.5s.1 2.3.2 1.5z" fill="#bf461d"/><path d="M139.5 233.6l-19.3-18.4h-76l.5.5V171c0-13.1.2-24.4.2-35.6 0-.7-.5-1.2-.4-3 0 0 .7-.7.4-3a2 2 0 0 1 0-1.5c0-2.7-.3-3.1-.2-5.9-.3-13.8-.3-38.3-.4-57l-.2.2h9.7c2.3 0 9.6.3 8.9-.4L44 65c.3 34.5.3 79.2 0 110.5.4 5.4-.1 7.8.2 14.8-.3 0-1.1 4.1-.4 5.9-.1-2.5.2-2.8.4-3-.1 4 .3 11.8-.2 13.4 0-2.1 0-4.2-.2-4.4.2 4.5-.2 5.4-.2 8.9s.7-2.9.7 3v1.4h-.1c16.5-.3 31 .5 44.6-.2l31.2.2h.1l19.2 18.6c.9.8 1.2.9 2.3 1.9s-.8-1.1-2.1-2.4zM44 208.1c.1-.8.3 1.1.2 1.5s-.3-1.1-.2-1.5z" fill="#bf461d"/><path d="M145 238.6a39.7 39.7 0 0 1-3.5-2.8c1 1.4 6.3 6.5 9.1 9h-.3l1.3-1.5-.2-.2-1.4 1.4h.7c-3-2.7-4.3-3.8-5.7-5.9zm110.2-113.7V153c0 1.1 0 2.9.2 2.9-.2-9.8.2-23.8-.2-31zm0-4.4c0 1.1 0 2.9.2 2.9s0-3-.2-2.9zm.2-12c-.5 7.4.6 3.2 0 0zM67.2 65.3c-7.8-.2-1.8.7 0 0zm119.3 149.8c5.6 0 11 .4 16.3-.2h-22l-.2.2-3.5 3.4c-6.9 6.7-14 13.3-15.7 15.8 7.9-7.4 14-13.6 19.4-19h5.6z" fill="#bf461d"/><path d="M255.8 129v-5.9c0-1.9-.2-2.9-.2-1.4.1 15.6 0 27.4-.1 38.3s-.2 21.3.1 34.3c0-.8.2-1.7.2 0a2 2 0 0 1 0 1.5 69.4 69.4 0 0 0-.2 7.4v12.2l.3-.3c-20.5 0-45.4 0-62 .4h-12.8l-6.7 6.5c-4 3.6-3.6 4 .2.2l6.7-6.5h.8c16-.1 35.3.3 49-.2 2.3-.1 4.6.4 7.4.4s6-.3 8.9-.2l8.5.2h.5v-.5c.1-4 .2-8.1.3-12.3 0-2.3-.2-5.1-.2-7.4 0-10 .5-22.4.2-29.8a9.2 9.2 0 0 1-.2 3c0 1.8-.3 1 0 0v-16.3c0-2.1-.6-.3-.6-2.8a11.6 11.6 0 0 0 .4-3.1c-.5-1.4-.1-9.3-.2-13.3-.4-.1-.3-2.6-.3-4.4zm.4 72.6c-.1.8-.3-1.1-.2-1.5s.3 1.2.2 1.6zm.2-14.9c-.5.3-.1-5.3-.2-7.4s0-5 0-7.4c.5 2 .1 10.4.2 14.9zm-.4 4.5c-.5-4.4-.1-15.3-.2-22.2.5 4.5.1 15.4.2 22.3zm.2-32.7c-.2 0-.2-1.8-.2-2.9s.2 1.8.2 3zm0-4.5c-.1.8-.3-1-.2-1.4s.3 1.1.2 1.5zm-21.5-88.7c.1-.5-6.3.2 0 0zM82 65.3c.4.1 2.3-.1 1.5-.2s-2.2.1-1.5.2zm-14.8-.2v.2c8.4.2 8.5-.3 0-.2zm84.5 178.3c1.7-.7 5.5-5.6 0 0zm8.5-8.3c-7 6.4-1.9 2.8 0 0z" fill="#bf461d"/><path d="M255.5 194.3c0 1.3.1 1.4.2 1.5s0-1 0-1.5zM80.6 64.7c-2.3 0-17.8-.3-13.4.4-1.9-.2 22.7-.3 13.4-.4zm175.2 22.8c-.2 8.3.1 17 .2 23.6 0 4.1-.3 13 .4 13.2 0-9.6-.3-12.3 0-20.8-.2.4-.3-.1-.4-1.2s.3-1.4.4-3.2c.1-4.7-.3-11-.2-19.2-.3 1.4-.3 4.9-.4 7.6zM102.9 64.7c-.4-.1-2.3.1-1.5.2s2.3-.1 1.5-.2zm-5.9 0c-.4-.1-2.3.1-1.5.2s2.2-.1 1.5-.2zm-4.5 0c-.4-.1-2.3.1-1.5.2s2.3-.1 1.5-.2zm-4.4 0c-1.2 0-2.9 0-3 .2s2.9 0 3-.2zM43.6 172.5v16.3c.5 3.8-.1-12.2.4-13.4s-.1-2.9-.4-2.9zm.2 23.7c.1 2.2.3-.1 0 0zm114.7 41.5c1.5-1.6-.3-.1 0 0zm2.2-2.1c1.8-1.9 6.5-5.9 6.2-6.3l-3.2 3.1c-1.2 1.2-3.1 2.9-3 3.2zm7.4-7.2c.8-.8 2.1-2 2-2.2s-2.1 2-2 2.2zm87.9-95c.5 8.3.7-8.1 0-7.4 0 3.7.4 4.4 0 7.4zM43.6 71.6c-.1.4.1 2.3.2 1.5s-.1-2.3-.2-1.5zm0 17.8c-.1.4.1 2.3.2 1.5s-.1-2.3-.2-1.5zm0 2.9c-.1.4.1 2.2.2 1.5s-.1-2.2-.2-1.5zm0 72.8c0 2.2-.1 5.5.2 5.9-.1-2.2.1-5.5-.2-5.9zm.2 37.1c.2-6.2-.7-.3 0 0zm99.2 36.3c.9.8 2.1 2 2.3 1.9s-2.1-2-2.3-1.9zm9.3 5.5c.8-.8 2.1-2 2-2.2s-2.1 2-2 2.2zm6.2-6.3c-1.5 1.6.3.1 0 0zm97.9-100c-.5.4-.1 6.3-.2 9 .5-.4.1-6.4.2-9zm-.3-57.9c.2-1.1 0-1.8 0 0zM65.8 64.2c-.4-.1-2.3.1-1.5.2s2.3-.1 1.5-.2zm-24 60.8c-.1.4.1 2.3.2 1.5s-.1-2.3-.2-1.5zm216.1-61.8c0 .5.1 2.2.2 1.3s-.2-2.1-.2-1.3zM81 61.6c-.4-.1-2.3.1-1.5.2s2.3-.1 1.5-.2z" fill="#bf461d"/><rect x="70" y="117" width="159.9" height="54" rx="10" ry="10" fill="#f78b53"/><path d="M171.1 171.3c1.4.5 6.2.1 9 .2-1-.7-1.7-.1-4.1-.4-.1.5-3.5.1-4.9.2zm-101-33.7c.1-.2-.1-1.2-.2-.8s.1 1.2.2.8zm147.4 34h-4.1c-.3.3 4.5.3 4.1 0zm-41.5-.5v-.2c-.9 0-.5.2 0 .2z" fill="none"/><path d="M174.4 171.1c-2.2-.7-5.4.3-9 0a14.4 14.4 0 0 0 5.7.2c.3-.3 2.1-.1 3.3-.2zm39.1 0h-18.8a158 158 0 0 0 18.8 0zm4 .2c-.5-.3-1 0 0 0zm-15.4.7c-.2-.1-1.2.1-.8.2s1.2-.1.8-.2zm-38.3-.9c-1 0-2.3 0-2.4.2s2.3.1 2.4-.2zm17.9.2h4.1c0-.3-2.3-1.1-3.3-.4.9 0 1.4 0 1.6.2s-5 .1-2.4.2zm18.7.3c-.2-.1-1.2.1-.8.2s1.2-.1.8-.2zm-8.1 1.1h.8c-.2-.3-.8-.1-.8 0zm-1.6-1.6c-.1.5-3.5.1-4.9.2s8.4.3 4.9-.2zm9.7.9c-.2-.1-1.2.1-.8.2s1.2-.1.8-.2zm-8.1-1.3c-.6 0-1.6 0-1.6.2s1.6 0 1.6-.2zm-4.9 0c-.2-.1-1.2.1-.8.2s1.2-.1.8-.2zm15.3-53.1c2.5-.1 7 .3 8.1-.2h-4.1c-1.1.1-4.2-.3-4 .2zm-2.5-.5c3.8-.1 9.7.3 12.2-.2-3.8.1-9.7-.3-12.2.2zm17.9.2c.6 0 1.6 0 1.6-.2s-1.5 0-1.6.2zm-23.6 0c.2.1 1.2-.1.8-.2s-1.2.1-.8.2zm17.9.3c-.5-.3-1 0 0 0zm8.2-.2c.2 0 1.2.1.8-.1s-1.2-.1-.8.1zm-22-.7v.2c.9 0 .5-.2 0-.2zm0 .2h-.8c.1.2.8.1.8 0z" fill="none"/><path d="M233.3 130.8c.1-.2-.1-1.2-.2-.8s.1 1.2.2.8zm-58.9 43.4c.2.1 1.2-.1.8-.2s-1.2.1-.8.2zm-50.7-59.8c-.2-.1-1.2.1-.8.2s1.2 0 .8-.2zm101.9 57c.3-.1 1.2-.9.7-.7s-1.2.9-.7.7zm-28.4 1.5c.2.1 1.2-.1.8-.2s-1.3.1-.8.2z" fill="#bf461d"/><path d="M138.6 171.8c6.7 0 13.1-.4 19.5-.2 3.3.1 7.4.6 12.2.7s9.4-.1 13 .4c.3-.3 4.1-.8 4.9-.2-1.2 0-2.3 0-2.4.2a64.5 64.5 0 0 0 6.5 0c0-.1.7-.3.8 0h-.8v.2c4.1 0 4.5-.1 1.6-.4h8.1c5.8-.7 9.6-.2 16.3-.4.1-.3-.2-.4-.8-.4s-4.4.4-4.1 0h4.1v-.2c-1 0-.5-.3 0 0a7.4 7.4 0 0 0 3.2-.5c-4-.3-5.9.6-7.3.3a158 158 0 0 1-18.7 0h18.7a23.7 23.7 0 0 0-4.9-.4c-.6 0-.9.3-1.6.2s0-.2-.8-.2-.9.3-1.6.2 0-.2-.8-.2a12.5 12.5 0 0 1-4.1-.2c-7.7.2-18.4-.4-23.6.4v.2c2.4.3 3-.3 4.1.4-2.7-.1-7.6.3-9-.2a14.4 14.4 0 0 1-5.7-.2c3.6.3 6.7-.7 9 0-1.2 0-3-.1-3.3.2 1.4-.1 4.8.3 4.9-.2s-.9-.2 0-.2c-3.6-.6-12 .1-14.7-.2-.9.1-.6.4-1.6.4a3.2 3.2 0 0 0-1.6-.4 4.1 4.1 0 0 1-2.4.4c-5.6.1-7.1.3-13 0 .3.5-3.8 0-4.1.5zm63.5.2c.4.1-.6.3-.8.2s.5-.3.8-.2zm-1.6-.4c.4.1-.6.3-.8.2s.5-.3.7-.2zm0 .4c.4.1-.6.3-.8.2s.5-.3.7-.2zm-8.1-1.3c0 .2-1 .2-1.6.2s.9-.2 1.5-.2zm-4.9 0c.4.1-.6.3-.8.2s.5-.3.7-.2zm-3.3.4c-.2-.2-.7-.3-1.6-.2 1-.7 3.3.1 3.3.4s4.8.3 4.9-.2c3.5.5-4.8.7-4.9.2h-4.1c-2.7-.1 1.3-.3 2.3-.2zm-20.4 0c-.1.3-1.5.2-2.4.2s1.4-.1 2.4-.2zm-95.3-9.9c-.1.3.2 1.4.3.9s-.2-1.3-.3-.9zm6.4 9.3a23.2 23.2 0 0 1-2.4-1.5 5.2 5.2 0 0 0 1.2 1.1l1.1.6.9.4c.4.1.3.1-.8-.6zm53.9.8c-1.8.4-6.7 0-8.1.4a44.4 44.4 0 0 0 5.7 0c.9 0 10.2.7 8.1 0s-8.3.4-5.7-.4zm-22 .3H88.1c5.3.3 15.3.5 18.7 0zm123.6-10.5c-.1.2 0 1.3.2.9s-.1-1.3-.2-.9zm-.6 3.4a9.3 9.3 0 0 1-1.6 3c-.6.6-.8.8-.4-.3a8 8 0 0 1-1.7 1.8 12.9 12.9 0 0 1-2.1 1.4c-.1.3.5.2 1.3-.2a8.7 8.7 0 0 0 2.8-2.3c1.8-2 2.1-4.5 1.7-3.4zm-7.3 6.7c-.2 0-1.3.4-.8.4s1.3-.4.8-.4z" fill="#bf461d"/><path d="M219.1 171.8c.2.1 1.3-.1.8-.2s-1.2.1-.8.2zm-82.2 0c.2.1 1.2-.1.8-.2s-1.2.1-.8.2zm-26.8 0c3-.1 8.1.3 9.8-.2-3.1.1-8.2-.3-9.8.2zm-2.5 0c.2.1 1.2-.1.8-.2s-1.2.1-.8.2zm6.3-55.4l-18.3.2H80.1a10.5 10.5 0 0 0-5.3 1.4 10.9 10.9 0 0 0-2.2 1.7 11.2 11.2 0 0 0-1.7 2.2 10.6 10.6 0 0 0-1.4 5.4v34.6a13.3 13.3 0 0 0 .2 1.3 10.8 10.8 0 0 0 6.3 7.6 10.4 10.4 0 0 0 2.4.7 14.1 14.1 0 0 0 2.4.2c.4 0 .7-.5 1.6-.4s.4.7 1.6.4.8-.1.8 0 1.7-.3 3.3-.2c8.8-.3 25.6-.3 36.6-.4 1.3 0 5.3.3 4.9-.4-10 .3-22.7.4-35.3.4H80.1a10.1 10.1 0 0 1-9.8-7.6 14.9 14.9 0 0 1-.3-4.1v-3.9c-.4-3 .1-4.3-.2-8.1.3 0 1.1-2.3.4-3.3.1 1.4-.2 1.5-.4 1.6.1-2.2-.3-6.5.2-7.3 0 1.2 0 2.3.2 2.4-.2-2.5.2-3 .2-4.9s-.7 1.6-.7-1.6-.1-4.6-.1-6.8a10.3 10.3 0 0 1 1.8-6.1 11 11 0 0 1 7.6-4.5l2.9-.2c11.2.2 20.2.2 31.8.2a14.3 14.3 0 0 1 1.6-.2c.3-.6-.3-.3-1.4-.3zm-43.8 21.2c-.1.4-.3-.6-.2-.8s.2.6.2.8zm47.9-21.4l-2.4.4c1.1.4 6.9.3 8.1 0v-.2c-3.2.2-4.1.4-5.7-.2zm112.6 12.1v-1.7a10.7 10.7 0 0 0-9.1-10.3c-.7-.1-1.7-.1-1.7.1a9.7 9.7 0 0 1 4.5 1 10.6 10.6 0 0 1 3.8 3.1 11.5 11.5 0 0 1 2 4.1 26.2 26.2 0 0 1 .5 3.7zm0 2.5c0-.6 0-1.6-.2-1.6s0 1.6.2 1.6zm-.2 6.5c.6-3.9-.7-2 0 0zm-98.4 34c-4.3-.2-1 .7 0 0zm16.9-54.6c3 0 6 .4 9-.2h-14.7c-5.3 0-10.6-.2-12.2.4 7.4.2 13-.2 17.9-.2z" fill="#bf461d"/><path d="M229.9 125.9c.1 1.1.1 2.2.1 3.3s.2 1.7.2.8v-3.1a10.8 10.8 0 0 0-.5-3 11.4 11.4 0 0 0-1.2-2.6 11.1 11.1 0 0 0-1.8-2 10.5 10.5 0 0 0-4.5-2.3l-1.2-.2h-3.5c-6-.1-11.7-.2-18.8.1.5 0 .9.2 0 .2s-.7.3-.8 0a20.8 20.8 0 0 0-4.1-.2c-12.2 0-29.8 0-40.7.4h-12.3c-2.9-.2-2.9.4 0 .2h5.7c8.8-.1 19.4.3 26.9-.2 1.2-.1 2.5.4 4.1.4s3.3-.3 4.9-.2c3.6.1 7.5.4 11.4.4l4.1-.2c5.5 0 12.2.6 16.3.2-.9 0-1.4 0-1.6-.2s-.5-.3 0 0h4.5a35.4 35.4 0 0 1 4.4.1c.6 0 .6-.1.8-.2s.3-.3.9-.1a4.4 4.4 0 0 0 1.3 1 4.7 4.7 0 0 1 2.6 1.6 12.1 12.1 0 0 1 2.2 3.5c.1 0 .5 1.3.6 2.3zm-35.4-8.5c-.4-.1.6-.3.8-.2s-.5.2-.8.1zm8.1.2c-.1-.5 2.9-.1 4.1-.2h4.1c-1.1.4-5.6 0-8.1.2zm-2.4-.4c2.5-.5 8.4-.1 12.2-.2-2.4.4-8.4 0-12.2.1zm17.9.2c0-.2 1-.2 1.6-.2s-.9.1-1.6.1zm2.4 0c-.4-.1.6-.3.8-.1s-.5.1-.7.1zm3.6 53c-.2-.2-1 .1-1.3.3s-.3.5 1.3-.3zm-83.9.9c.2.1 1.2-.1.8-.2s-1.2.1-.8.2zm-8.2-.2v.2c4.7.2 4.7-.3 0-.2zm-8.3-54.4c1 .7 4.3-.2 0 0zm6.5 0c-5.2-.3-1.8.7 0 0z" fill="#bf461d"/><path d="M198.6 116.7c-.7 0-.8.1-.8.2h.8zm-59.2 54c-1.2 0-9.8-.3-7.3.4-1.1-.2 12.3-.3 7.3-.4zm90.6-22c.2-4.5-.2-9.4-.2-13s.4-7.1-.4-7.3c0 5.2.3 6.8 0 11.4.3-.1.4.2.4.8s-.4.6-.4 1.6c-.1 2.5.3 6.1.2 10.6a19.1 19.1 0 0 0 .4-4.1zm-78.4 22c-.2-.1-1.2.1-.8.2s1.2-.1.8-.2zm-3.3 0c-.2-.1-1.2.1-.8.2s1.2-.1.8-.2zm-2.4 0c-.2-.1-1.2.1-.8.2s1.2-.1.8-.2zm-2.5 0c-.6 0-1.6 0-1.6.2s1.6 0 1.6-.2zm-72.9-13.6v-9c-.5-2.1.1 6.7-.4 7.3s.1 1.7.4 1.7zm-.2-13c-.1-1.2-.3.1 0 0zm58.3-26.8c1.2-.1-.1-.3 0 0zm1.6 0c1.4-.1 4.8.3 4.9-.2h-2.4c-1 .1-2.4 0-2.5.2zm5.7 0c.6 0 1.6 0 1.6-.2s-1.6 0-1.6.2zm93.2 6.3c-.5-1-.8-1.2-.8-1a13.6 13.6 0 0 0 .5 1.5c.5 1.4.6 3.5 1 3.5a7.6 7.6 0 0 0-.3-2.2l-.2-.8zm-113.3 46.9c-.2-.1-1.2.1-.8.2s1.2-.1.8-.2zm-9.8 0c-.2-.1-1.2.1-.8.2s1.2-.1.8-.2zm-1.6 0c-.2-.1-1.2.1-.8.2s1.2-.1.8-.2zm-33.9-9.3c-.1-1.2.1-3-.2-3.2s-.1 3 .2 3.2zm-.2-20.4c-.2 3.4.7.2 0 0zm46.9-23.2c.6 0 1.6 0 1.6-.2s-1.6-.1-1.6.2zm6.5 0c.6 0 1.6 0 1.6-.2s-1.6-.1-1.6.2zm4.9-.3c-1.2.1.1.3 0 0zm99 4.4c.2-.2-.3-.9-1-1.6a15 15 0 0 0-2.3-1.7c-.1.2.6.6 1.4 1.2a7.8 7.8 0 0 1 1.9 2.1zm1.9 31.1c-.3.5 0 1 0 0zm-98.3 17.4c-.2-.1-1.2.1-.8.2s1.2-.1.8-.2zm-44.8-1.5c-.2-.1-1.2.1-.8.2s1.3-.1.8-.2zm140.7-7.8c.1-.2-.1-1.2-.2-.8s0 1.2.2.8zm-87.7 6.7c-.2-.1-1.2.1-.8.2s1.2-.1.8-.2z" fill="#bf461d"/><rect x="70" y="107.5" width="159.9" height="54" rx="10" ry="10" fill="#f9a87e"/><path d="M171.1 161.8c1.4.5 6.2.1 9 .2-1-.7-1.7-.1-4.1-.4-.1.5-3.5.1-4.9.2zm-101-33.7c.1-.2-.1-1.2-.2-.8s.1 1.2.2.8zM217.5 162h-4.1c-.3.4 4.5.4 4.1 0zm-41.5-.4v-.2c-.9 0-.5.2 0 .2z" fill="none"/><path d="M174.4 161.6c-2.2-.7-5.4.3-9 0a14.4 14.4 0 0 0 5.7.2c.3-.3 2.1-.2 3.3-.2zm39.1 0h-18.8a158 158 0 0 0 18.8 0zm4 .2c-.5-.3-1 0 0 0zm-15.4.7c-.2-.1-1.2.1-.8.2s1.2-.1.8-.2zm-38.3-.9c-1 0-2.3 0-2.4.2s2.3 0 2.4-.2zm17.9.2h4.1c0-.3-2.3-1.1-3.3-.4.9 0 1.4 0 1.6.2s-5 0-2.4.2zm18.7.2c-.2-.1-1.2.1-.8.2s1.2 0 .8-.2zm-8.1 1.1h.8c-.2-.2-.8-.1-.8 0zm-1.6-1.5c-.1.5-3.5.1-4.9.2s8.4.3 4.9-.2zm9.7.9c-.2-.1-1.2.1-.8.2s1.2-.1.8-.2zm-8.1-1.4c-.6 0-1.6 0-1.6.2s1.6.1 1.6-.2zm-4.9 0c-.2-.1-1.2.1-.8.2s1.2 0 .8-.2zm15.3-53.1c2.5-.1 7 .3 8.1-.2h-4.1c-1.1.1-4.2-.2-4 .2zm-2.5-.4c3.8-.1 9.7.3 12.2-.2-3.8.1-9.7-.3-12.2.2zm17.9.2c.6 0 1.6 0 1.6-.2s-1.5 0-1.6.2zm-23.6 0c.2.1 1.2-.1.8-.2s-1.2.1-.8.2zm17.9.2c-.5-.3-1 0 0 0zm8.2-.2c.2 0 1.2.1.8-.1s-1.2 0-.8.1zm-22-.7v.2c.9 0 .5-.2 0-.2zm0 .3h-.8c.1.2.8.1.8 0z" fill="none"/><path d="M233.3 121.3c.1-.2-.1-1.2-.2-.8s.1 1.2.2.8zm-58.9 43.4c.2.1 1.2-.1.8-.2s-1.2.1-.8.2zm-50.7-59.8c-.2-.1-1.2.1-.8.2s1.2-.1.8-.2zm101.9 57c.3-.1 1.2-.9.7-.7s-1.2.8-.7.7zm-28.4 1.5c.2.1 1.2-.1.8-.2s-1.3.1-.8.2z" fill="#bf461d"/><path d="M138.6 162.3c6.7 0 13.1-.4 19.5-.2 3.3.1 7.4.6 12.2.7s9.4-.1 13 .4c.3-.3 4.1-.8 4.9-.2-1.2 0-2.3 0-2.4.2a64.5 64.5 0 0 0 6.5 0c0-.1.7-.3.8 0h-.8v.2c4.1 0 4.5-.1 1.6-.4h8.1c5.8-.7 9.6-.2 16.3-.4.1-.3-.2-.4-.8-.4s-4.4.4-4.1 0h4.1v-.2c-1 0-.5-.3 0 0a7.4 7.4 0 0 0 3.2-.5c-4-.3-5.9.6-7.3.3a158 158 0 0 1-18.7 0h18.7a23.7 23.7 0 0 0-4.9-.4c-.6 0-.9.3-1.6.2s0-.2-.8-.2-.9.3-1.6.2 0-.2-.8-.2a12.5 12.5 0 0 1-4.1-.2c-7.7.2-18.4-.4-23.6.4v.2c2.4.3 3-.3 4.1.4-2.7-.1-7.6.3-9-.2a14.4 14.4 0 0 1-5.7-.2c3.6.3 6.7-.7 9 0-1.2 0-3-.1-3.3.2 1.4-.1 4.8.3 4.9-.2s-.9-.2 0-.2c-3.6-.6-12 .1-14.7-.2-.9.1-.6.4-1.6.4a3.2 3.2 0 0 0-1.6-.4 4.1 4.1 0 0 1-2.4.4c-5.6.1-7.1.3-13 0 .3.5-3.8 0-4.1.5zm63.5.2c.4.1-.6.3-.8.2s.5-.3.8-.2zm-1.6-.4c.4.1-.6.3-.8.2s.5-.3.7-.3zm0 .4c.4.1-.6.3-.8.2s.5-.3.7-.2zm-8.1-1.3c0 .2-1 .2-1.6.2s.9-.2 1.5-.3zm-4.9 0c.4.1-.6.3-.8.2s.5-.3.7-.3zm-3.3.4c-.2-.2-.7-.3-1.6-.2 1-.7 3.3.1 3.3.4s4.8.3 4.9-.2c3.5.5-4.8.7-4.9.2h-4.1c-2.7-.2 1.3-.3 2.3-.2zm-20.4 0c-.1.3-1.5.2-2.4.2s1.4-.2 2.4-.2zm-95.3-9.9c-.1.3.2 1.4.3.9s-.2-1.4-.3-.9zm6.4 9.3a23.2 23.2 0 0 1-2.4-1.5 5.2 5.2 0 0 0 1.2 1.1l1.1.6.9.4c.4.1.3 0-.8-.6zm53.9.8c-1.8.4-6.7 0-8.1.4a44.4 44.4 0 0 0 5.7 0c.9 0 10.2.7 8.1 0s-8.3.4-5.7-.4zm-22 .2H88.1c5.3.3 15.3.5 18.7 0zm123.6-10.4c-.1.2 0 1.3.2.9s-.1-1.4-.2-.9zm-.6 3.4a9.3 9.3 0 0 1-1.6 3c-.6.6-.8.8-.4-.3a8 8 0 0 1-1.7 1.8 12.9 12.9 0 0 1-2.1 1.4c-.1.3.5.2 1.3-.2a8.7 8.7 0 0 0 2.8-2.3c1.8-2.1 2.1-4.6 1.7-3.4zm-7.3 6.7c-.2 0-1.3.4-.8.4s1.3-.4.8-.4z" fill="#bf461d"/><path d="M219.1 162.3c.2.1 1.3-.1.8-.2s-1.2 0-.8.2zm-82.2 0c.2.1 1.2-.1.8-.2s-1.2 0-.8.2zm-26.8 0c3-.1 8.1.3 9.8-.2-3.1.1-8.2-.4-9.8.2zm-2.5 0c.2.1 1.2-.1.8-.2s-1.2 0-.8.2zm6.3-55.4l-18.3.2H80.1a10.5 10.5 0 0 0-5.3 1.4 10.9 10.9 0 0 0-2.2 1.7 11.2 11.2 0 0 0-1.7 2.2 10.6 10.6 0 0 0-1.4 5.4v34.6a13.3 13.3 0 0 0 .2 1.3 10.8 10.8 0 0 0 6.3 7.6 10.4 10.4 0 0 0 2.4.7 14.1 14.1 0 0 0 2.4.2c.4 0 .7-.5 1.6-.4s.4.7 1.6.4.8-.1.8 0 1.7-.3 3.3-.2c8.8-.3 25.6-.3 36.6-.4 1.3 0 5.3.3 4.9-.4-10 .3-22.7.4-35.3.4H80.1a10.1 10.1 0 0 1-9.8-7.6 14.9 14.9 0 0 1-.3-4.1V146c-.4-3 .1-4.3-.2-8.1.3 0 1.1-2.3.4-3.3.1 1.4-.2 1.5-.4 1.6.1-2.2-.3-6.5.2-7.3 0 1.2 0 2.3.2 2.4-.2-2.5.2-3 .2-4.9s-.7 1.6-.7-1.6-.1-4.6-.1-6.8a10.3 10.3 0 0 1 1.8-6.1 11 11 0 0 1 7.6-4.5l2.9-.2c11.2.2 20.2.2 31.8.2a14.3 14.3 0 0 1 1.6-.2c.3-.6-.3-.3-1.4-.3zm-43.8 21.2c-.1.4-.3-.6-.2-.8s.2.5.2.8zm47.9-21.4l-2.4.4c1.1.4 6.9.3 8.1 0v-.2c-3.2.2-4.1.4-5.7-.2zm112.6 12.1v-1.7a10.7 10.7 0 0 0-9.1-10.3c-.7-.1-1.7-.1-1.7.1a9.7 9.7 0 0 1 4.5 1 10.6 10.6 0 0 1 3.8 3.1 11.5 11.5 0 0 1 2 4.1 26.2 26.2 0 0 1 .5 3.7zm0 2.5c0-.6 0-1.6-.2-1.6s0 1.5.2 1.6zm-.2 6.5c.6-3.9-.7-2 0 0zm-98.4 34c-4.3-.2-1 .7 0 0zm16.9-54.7c3 0 6 .4 9-.2h-14.7c-5.3 0-10.6-.2-12.2.4 7.4.2 13-.1 17.9-.2z" fill="#bf461d"/><path d="M229.9 116.4c.1 1.1.1 2.2.1 3.3s.2 1.7.2.8v-3.1a10.8 10.8 0 0 0-.5-3 11.4 11.4 0 0 0-1.2-2.6 11.1 11.1 0 0 0-1.8-2 10.5 10.5 0 0 0-4.5-2.3l-1.2-.2h-3.5c-6-.1-11.7-.2-18.8.1.5 0 .9.2 0 .2s-.7.3-.8 0a20.8 20.8 0 0 0-4.1-.2c-12.2 0-29.8 0-40.7.4h-12.3c-2.9-.2-2.9.4 0 .2h5.7c8.8-.1 19.4.3 26.9-.2 1.2-.1 2.5.4 4.1.4s3.3-.3 4.9-.2c3.6.1 7.5.4 11.4.4l4.1-.2c5.5 0 12.2.6 16.3.2-.9 0-1.4 0-1.6-.2s-.5-.3 0 0h4.5a35.4 35.4 0 0 1 4.4.1c.6 0 .6-.1.8-.2s.3-.3.9-.1a4.4 4.4 0 0 0 1.3 1 4.7 4.7 0 0 1 2.6 1.6 12.1 12.1 0 0 1 2.2 3.5c.1 0 .5 1.3.6 2.3zm-35.4-8.5c-.4-.1.6-.3.8-.2s-.5.2-.8.1zm8.1.2c-.1-.5 2.9-.1 4.1-.2h4.1c-1.1.4-5.6 0-8.1.1zm-2.4-.4c2.5-.5 8.4-.1 12.2-.2-2.4.4-8.4-.1-12.2.1zm17.9.2c0-.2 1-.2 1.6-.2s-.9.1-1.6.1zm2.4 0c-.4-.1.6-.3.8-.1s-.5.1-.7 0zm3.6 53c-.2-.2-1 .1-1.3.3s-.3.5 1.3-.3zm-83.9.9c.2.1 1.2-.1.8-.2s-1.2.1-.8.2zm-8.2-.2v.2c4.7.2 4.7-.4 0-.2zm-8.3-54.5c1 .7 4.3-.2 0 0zm6.5 0c-5.2-.3-1.8.7 0 0z" fill="#bf461d"/><path d="M198.6 107.1c-.7 0-.8.1-.8.2h.8zm-59.2 54c-1.2 0-9.8-.3-7.3.4-1.1-.1 12.3-.3 7.3-.4zm90.6-21.9c.2-4.5-.2-9.4-.2-13s.4-7.1-.4-7.3c0 5.2.3 6.8 0 11.4.3-.1.4.2.4.8s-.4.6-.4 1.6c-.1 2.5.3 6.1.2 10.6a19.1 19.1 0 0 0 .4-4.1zm-78.4 21.9c-.2-.1-1.2.1-.8.2s1.2 0 .8-.2zm-3.3 0c-.2-.1-1.2.1-.8.2s1.2 0 .8-.2zm-2.4 0c-.2-.1-1.2.1-.8.2s1.2 0 .8-.2zm-2.5 0c-.6 0-1.6 0-1.6.2s1.6.1 1.6-.2zm-72.9-13.5v-9c-.5-2.1.1 6.7-.4 7.3s.1 1.7.4 1.7zm-.2-13c-.1-1.2-.3.1 0 0zm58.3-26.8c1.2-.1-.1-.3 0 0zm1.6 0c1.4-.1 4.8.3 4.9-.2h-2.4c-1 0-2.4 0-2.5.2zm5.7 0c.6 0 1.6 0 1.6-.2s-1.6 0-1.6.2zm93.2 6.2c-.5-1-.8-1.2-.8-1a13.6 13.6 0 0 0 .5 1.5c.5 1.4.6 3.5 1 3.5a7.6 7.6 0 0 0-.3-2.2l-.2-.8zm-113.3 46.9c-.2-.1-1.2.1-.8.2s1.2-.1.8-.2zm-9.8 0c-.2-.1-1.2.1-.8.2s1.2-.1.8-.2zm-1.6 0c-.2-.1-1.2.1-.8.2s1.2-.1.8-.2zm-33.9-9.2c-.1-1.2.1-3-.2-3.2s-.1 2.9.2 3.2zm-.2-20.4c-.2 3.4.7.2 0 0zm46.9-23.3c.6 0 1.6 0 1.6-.2s-1.6 0-1.6.2zm6.5 0c.6 0 1.6 0 1.6-.2s-1.6 0-1.6.2zm4.9-.2c-1.2.1.1.3 0 0zm99 4.4c.2-.2-.3-.9-1-1.6a15 15 0 0 0-2.3-1.7c-.1.2.6.6 1.4 1.2a7.8 7.8 0 0 1 1.9 2.1zm1.9 31c-.3.5 0 1 0 0zm-98.3 17.5c-.2-.1-1.2.1-.8.2s1.2-.1.8-.2zm-44.8-1.6c-.2-.1-1.2.1-.8.2s1.3 0 .8-.2zm140.7-7.7c.1-.2-.1-1.2-.2-.8s0 1.2.2.8zm-87.7 6.6c-.2-.1-1.2.1-.8.2s1.2-.1.8-.2z" fill="#bf461d"/><g><path d="M136 132.5a9.2 9.2 0 0 1 8.4 9.2 8.8 8.8 0 0 1-2.7 6.5 9 9 0 0 1-6.6 2.7h-26.5a9.2 9.2 0 0 1-9.2-9.2 9 9 0 0 1 2.3-6.2 8.9 8.9 0 0 1 5.7-3 5.2 5.2 0 0 1-.2-1.4 6.7 6.7 0 0 1 6.6-6.6 6.7 6.7 0 0 1 2.6.5 10.9 10.9 0 0 1 3.8-4.2 10.6 10.6 0 0 1 16.1 8.9 10.2 10.2 0 0 1-.3 2.8z" fill="#fef0e9"/><path d="M136 132.5a9.2 9.2 0 0 1 8.4 9.2 8.8 8.8 0 0 1-2.7 6.5 9 9 0 0 1-6.6 2.7h-26.5a9.2 9.2 0 0 1-9.2-9.2 9 9 0 0 1 2.3-6.2 8.9 8.9 0 0 1 5.7-3 5.2 5.2 0 0 1-.2-1.4 6.7 6.7 0 0 1 6.6-6.6 6.7 6.7 0 0 1 2.6.5 10.9 10.9 0 0 1 3.8-4.2 10.6 10.6 0 0 1 16.1 8.9 10.2 10.2 0 0 1-.3 2.8z" fill="none"/><path d="M142.5 147.8c.3 0 .7-.4 1-.9l.8-1.5c-.8 0-.3.5-1 1s-.6 1-.8 1.4zm-39.5 1.1c0-.1-.4-.2-.3 0s.4.2.3 0zm38.5-14.7l1 .9c.3-.1-.9-1.3-1-.9zm1.7 12.2h-.2c-.1.2.1.1.2 0z" fill="none"/><path d="M142.9 146.9c-.5.1-.7.5-.9.9a2.4 2.4 0 0 1-1 1.2c.5.1 1.5-.5 1.5-1.1s.2-.7.4-1zm-.8-11.5a9 9 0 0 1 2.4 5.3 5.5 5.5 0 0 0-.5-3 5.6 5.6 0 0 0-1.9-2.3zm-.8-1c-.1.3.3.2 0 0zm3.5 3.8c0 .1.2.4.3.2s-.3-.4-.3-.2zm-4.2 11c-.2.2-.6.4-.5.6s.6-.3.5-.6zm3.6-4.3a9.7 9.7 0 0 0 .3-1.3c-.3 0-1.2.4-.7.9s.2-.4.4-.4-.5 1.5 0 .8zm.3-6.1c0 .1.2.4.3.2s-.2-.3-.3-.2zm1.5 2.7v-.3a.1.1 0 0 0 0 .3zm-1.5.5c.5.1 0 1.1.1 1.6s.4-.6.4-1.2-.3-.9-.5-.4zm.5-3.3c0 .1.2.4.3.2s-.3-.4-.3-.2zm-1 2.8c.1.2 0 .5.2.5s.1-.5-.2-.5zm-.1 1.5c-.1.1 0 .4.2.3s0-.4-.2-.3zm-19.4-23.2c.7-.3 2.1.2 2.4-.3h-1.2c-.4.1-1.3-.2-1.2.3z" fill="none"/><path d="M123.7 119.5a6.2 6.2 0 0 1 2-.2 4.3 4.3 0 0 0 1.8-.1h-2.1a2.5 2.5 0 0 0-1.7.3zm5.4.5c.2 0 .5.2.5 0s-.5-.2-.5 0zm-7 .2c.1 0 .3-.2.2-.3s-.4.2-.2.3zm5.3-.4c-.1-.3-.3 0 0 0zm2.4.4c0 .1.4.1.3-.1s-.4 0-.3.1zm-6.7-1v.2c.3-.1.1-.3 0-.2zm0 .2h-.2c.1.3.3.1.2 0z" fill="none"/><path d="M137.2 121.5c0-.1-.4-.3-.4-.1s.4.3.4.1zm8.3 27.1c.1 0 .2-.5 0-.4s-.2.5 0 .4zM105 133.1l2.2-3.3c-.1 0-.4.2-.2.3h.3l-2 3zm35-1.4c-.1-.1-.5-.1-.4.1s.5 0 .4-.1zm6.1 8c0-.1-.2-.4-.3-.3s.2.4.3.3zm-13.1 12a19.7 19.7 0 0 0 3.1-.2 17.3 17.3 0 0 0 3.1-.9 9.4 9.4 0 0 0 3.7-1.9c1.2-1.2 1.8-2.7 2.7-3.9s-.4-1.6.1-1.8-.2.8.1.9a4.8 4.8 0 0 0 .2-2.4.1.1 0 0 1 0-.3v.3h.2a2.9 2.9 0 0 0-.2-1.3c-.1-.1-.2.2-.3.7a10.4 10.4 0 0 0-.6-2.9l-1.6-2.3a7.9 7.9 0 0 0-2-2.1.3.3 0 0 0-.1.5c.2-.4 1.3.8 1 .9l-1-.9v.2c.3.2-.1.3 0 0a1.1 1.1 0 0 0-1.1-.3c.8 1 1.8.8 1.9 1.3a5.6 5.6 0 0 1 1.9 2.3 5.5 5.5 0 0 1 .5 3 9 9 0 0 0-2.4-5.3 3.4 3.4 0 0 0 .6 1.5c.1.1.4.1.4.3s-.2.1-.1.3.4.1.4.3-.2.1-.1.3.3.3.2 1.2a7.6 7.6 0 0 1 .1 3.7c-.2 1.2-.6 2.3-.7 3.2h.2c.7-.5.2-.9 1-1l-.8 1.5c-.3.5-.6.9-1 .9s-1 1.2-1.5 1.1a2.4 2.4 0 0 0 1-1.2c.2-.4.4-.8.9-.9s-.6.7-.5 1 1.2-1.1.7-1.4-.3.1-.2-.1a8.7 8.7 0 0 0-1.6 1.7 4 4 0 0 1-1.6 1.3c-.2.2.1.5-.2.6a.8.8 0 0 0-.6-.2.7.7 0 0 1-.5.7l-1.9.6a6 6 0 0 1-2.1-.1c.1 1.1-1.2.6-1.3 1.1zm11.8-13.5c.1-.2.3.1.3.2s-.3-.1-.3-.2zm-.3.7c.1-.2.3.1.3.2s-.3-.2-.3-.3zm.4-.1c.1-.2.3.1.3.2s-.3-.2-.2-.3zm-.9 2.8c.2 0 .2.3.2.5s-.1-.4-.2-.6zm-.1 1.5c.1-.1.3.2.2.3s-.2-.4-.2-.4zm.2 1.1c-.2 0-.3.1-.4.4s.4-.9.7-.9.5-1.5-.1-1.6.4-.2.5.4-.2 1.2-.4 1.2a9.7 9.7 0 0 1-.3 1.3c-.4.6 0-.7.1-.9zm-3.6 5.2c.1.2-.3.4-.5.6s.4-.6.6-.8zm-30.6 2.9c.1.1.4-.1.3-.2s-.4.1-.3.2zm3.3-.6c-2.4.4 1.5.4 0 0zm16.8-.5c-.6.4-2.1 0-2.5.4a4.4 4.4 0 0 0 1.8 0c.3 0 3.2.7 2.5 0s-2.6.4-1.8-.4zm-6.9.2h-5.8c1.6.3 4.8.6 5.8 0zm13.4-19.3v-.1c0-.1 0-.2.1-.2s.1.1 0 .2zm.6 0c.7.1 1.8.4.9.7a8.1 8.1 0 0 1 1.5.4c.3-.3-.4-.8-1.2-1.1s-1.5-.2-1.2 0zm3 1.1c0 .1.4.1.3 0s-.3-.1-.3 0z" fill="#bf461d"/><path d="M141.2 133.7c0-.1-.4-.2-.4 0s.4.2.4 0zm-8.7 18c.1.1.4-.1.3-.2s-.4.1-.3.2zm-8.4 0c.9-.1 2.5.3 3-.2s-2.4-.3-3 .2zm-.7 0c.1.1.4-.1.3-.2s-.5.1-.3.2zm-19.1-18.9a11 11 0 0 0-4.1 4.2 10.1 10.1 0 0 0-1 6.6 9.6 9.6 0 0 0 3.6 5.8 9.2 9.2 0 0 0 3 1.6 10.2 10.2 0 0 0 3.2.4l6.1.2c.1 0 .2-.5.5-.4s.1.7.5.4.3-.1.3 0 .5-.3 1-.2c2.7-.3 8-.3 11.4-.4.4 0 1.6.3 1.5-.4a182 182 0 0 1-22.1.2c-1 .4-1.3-.2-2.5-.2s-.2-1.3-.8-.8.4.3.3.6-2-.7-1.9-1.3.6.4.7.2-.6-.7-1-1-.1.9-.8.2a6.7 6.7 0 0 1-2.3-3.5c-.4-1.3-.5-2.5-.8-3.7a9.7 9.7 0 0 1 1.7-4.7 10 10 0 0 1 3.8-3.3c.2-.1.1-.3.4-.4s-.4-.2-.7-.1zm-1.3 16.1c0 .2-.3.1-.3 0s.3-.1.3 0zm2.5-16.8a2.5 2.5 0 0 1-.6.7 2.2 2.2 0 0 0 1.3-.1l1.2-.5-.3.4h-.2l.5-.7c-1 .4-1.2.6-1.9.2zm29-9.7a12 12 0 0 0-3.3-2.7l-.7-.4c-.2 0-.5-.2-.6 0a7.9 7.9 0 0 1 2.6 1.5 17.4 17.4 0 0 0 2 1.6zm.5.7c-.2-.1-.3-.4-.5-.3s.4.4.5.3zm1 1.9c0-1.4-.9-.2 0 0zm-5 26.2c-1.3-.2-.3.7 0 0zm-21-25.9a4.6 4.6 0 0 1 1.3-.6 3.6 3.6 0 0 0 1.3-.7 7.2 7.2 0 0 0-4.2 2.4 6.7 6.7 0 0 0-1.3 2.1 1.6 1.6 0 0 0 .1 1.6 8.1 8.1 0 0 1 2.8-4.8z" fill="#bf461d"/><path d="M133.5 122.3l.7.8c.2.4.5.3.3.1a13.4 13.4 0 0 0-5.4-4 8.5 8.5 0 0 0-6 0c.1 0 .3.1.1.2s-.1.3-.2.1a1.9 1.9 0 0 0-1.3.2 11 11 0 0 0-5.4 5.2h.3a6 6 0 0 0-5.2.3 6.4 6.4 0 0 0-1.7 1.1 7.4 7.4 0 0 0-1.2 1.3c-.6.7-.1.9.2.1a7.2 7.2 0 0 1 1.1-1.3 5.4 5.4 0 0 1 3.2-1.5 8.4 8.4 0 0 1 3.4.3h.3v-.2l.4-.9c.1-.4.8-.4 1.1-.7s.5-.9.8-1.2a11.4 11.4 0 0 1 3-1.5c.3-.1.7-.5 1-.6a7.3 7.3 0 0 1 2.5-.1l2.2.2c-.3 0-.4-.1-.4-.3s-.1-.3 0 0a9.5 9.5 0 0 1 2.5.7c.3.1.4-.6.7-.4a.8.8 0 0 0 .2.6c.5-.3 1.4.8 1.9 1.1s.7.2.9.4zm-11.4-2.1c-.2-.1.1-.3.2-.3s-.1.3-.2.3zm2.4-.4c-.1-.5.9-.2 1.2-.3h1.2c-.4.5-1.7 0-2.4.3zm-.8-.3a2.5 2.5 0 0 1 1.7-.5h2.1a4.3 4.3 0 0 1-1.8.1 6.2 6.2 0 0 0-2 .4zm5.4.5c.1-.2.3-.1.5 0s-.3 0-.5 0zm.7.3c-.1-.2.3-.2.3-.1s-.3.1-.3 0zm9.8 12.9c-.3.6 1.1.4 0 0zm-6.1 18c.1.1.4-.1.3-.2s-.4.1-.3.2zm-2.5-.2v.2c1.4.2 1.4-.4 0-.2zm-23.9-18.5a.4.4 0 0 0 0-.7c-.1 0-.3.1 0 .7zm-.2-2.1c-.2.8 0 1 .1.9a.7.7 0 0 0-.1-.9z" fill="#bf461d"/><path d="M123.1 119.2c-.2 0-.2.1-.2.3h.2zm10.2 31.4c-.4 0-3-.3-2.3.4s3.9-.3 2.3-.4zm3.2-21.9a6.8 6.8 0 0 0-1.3-3.8c-.3-.6-.9-2.1-1.6-1.6l1.1 1.4a2.9 2.9 0 0 1 .6 1.5c.2-.1.4-.1.5.1s-.3.3-.3.6a8.5 8.5 0 0 1 .6 3.1c.3-.3.3-.9.4-1.3zm.5 21.7c-.1 0-.3.2-.2.3s.4-.3.2-.3zm-1 .1c-.1-.1-.4.1-.2.2s.4-.1.2-.2zm-.7.1c-.1-.1-.4.1-.2.2s.3-.1.2-.2zm-.7 0c-.2 0-.5 0-.5.2s.4 0 .5-.2zm-26-.3a9.2 9.2 0 0 1-2.6-.4c-.4.1.1.3.7.4s1.3.1 1.4.4.5-.1.5-.4zm-3.8-.5c-.4 0-.1.3 0 0zm2.8-18.8c-.1-.4-.3 0 0 0zm0-.5c-.1-.5.5-1.3.1-1.5l-.2.7c0 .3-.1.7.1.8zm.4-1.7c0-.2.2-.4 0-.5s-.2.4 0 .5zm24.8-6.9c-.7-.3-.6.1-.2.4s.9.7 1.1.5-.8-.2-.9-.9zm-6.9 28.4c-.1-.1-.4.1-.3.2s.4-.1.3-.2zm-3 0c-.1-.1-.4.1-.3.2s.4-.1.3-.2zm-.5 0c-.1-.1-.4.1-.3.2s.4-.1.3-.2zm-12.5 0c-.4 0-.9-.1-1 .2s.9.1 1-.2zm-5.9-1c.8.7.4-.5 0 0zm1.7-15.8c.2-.1.4-.2.4-.4s-.5.2-.4.4zm2.3-1.2c-.1-.2-.1-.4-.3-.4s.1.5.3.4zm-.4-1.3c.1.3.3 0 0 0zm24.3-9.2c.3-.4-.8-.7-1.1-1s.9.6 1.1 1z" fill="#bf461d"/><path d="M136.1 129.9c-.3.1 0 .3 0 0zm-5.4 20.2c-.1-.1-.4.1-.3.2s.5-.1.3-.2zm-13.9-1.5c-.1-.1-.4.1-.3.2s.4-.1.3-.2zm16.7-14.9a3.8 3.8 0 0 1-.3-1.2 3.5 3.5 0 0 1 .1-.8v-.1h-.2v.7a3.2 3.2 0 0 0 .1.9 2.5 2.5 0 0 0 .5 1s0-.1-.2-.5zm-.2 13.7c-.1-.1-.4.1-.3.2s.4 0 .3-.2z" fill="#bf461d"/></g><g><path d="M176.9 117a17.1 17.1 0 0 1 8.8 2.3 17.5 17.5 0 0 1 6.4 6.4 17.6 17.6 0 0 1 0 17.6 17.5 17.5 0 0 1-6.4 6.4 17.6 17.6 0 0 1-17.6 0 17.4 17.4 0 0 1-6.4-6.4 17.6 17.6 0 0 1 0-17.6 17.5 17.5 0 0 1 6.4-6.4 17.1 17.1 0 0 1 8.8-2.3zm2.5 20.5l.8-14.1h-6.5l.8 14.1zm-.2 7.3a3.2 3.2 0 0 0 0-4.2 3.1 3.1 0 0 0-2.3-.8 3.3 3.3 0 0 0-2.3.8 3.1 3.1 0 0 0 0 4.2 3.2 3.2 0 0 0 2.3.8 3.4 3.4 0 0 0 2.3-.8z" fill="#fef0e9"/><path d="M176.9 117a17.1 17.1 0 0 1 8.8 2.3 17.5 17.5 0 0 1 6.4 6.4 17.6 17.6 0 0 1 0 17.6 17.5 17.5 0 0 1-6.4 6.4 17.6 17.6 0 0 1-17.6 0 17.4 17.4 0 0 1-6.4-6.4 17.6 17.6 0 0 1 0-17.6 17.5 17.5 0 0 1 6.4-6.4 17.1 17.1 0 0 1 8.8-2.3zm2.5 20.5l.8-14.1h-6.5l.8 14.1zm-.2 7.3a3.2 3.2 0 0 0 0-4.2 3.1 3.1 0 0 0-2.3-.8 3.3 3.3 0 0 0-2.3.8 3.1 3.1 0 0 0 0 4.2 3.2 3.2 0 0 0 2.3.8 3.4 3.4 0 0 0 2.3-.8z" fill="none"/><path d="M179.6 142c-.5.1 0 .3-.2.4s.1-.1.4-.2-.1-.1-.2-.2zm-4.7-1.8s0 .1.1.2zm4.3 3.7h.1c-.4-.3-.5-.2-.1 0zm.6-1.7z" fill="none"/><path d="M179.8 142.1c.6-.2-.3-.2-.1-.4s-.6.3-.2.3.3.1.3.1zm-.2 1.8a3 3 0 0 0 .2-.8.5.5 0 0 0-.2.8zm-.2.1c.3.1 0 0 0 0zm-.5-.8zm.8-1.5s0-.1-.2 0 0 0 .2 0zm-.1.8v.2c.3 0 1.1-.1.4-.2h-.2c.1 0 0-.1-.2 0zm-.2.7zm-1.1-.3c.2 0 .1 0 0 0zm1.5 0c-.5 0-.1-.2-.2-.2s-.2.3.2.2zm-.9.3zm1.4-.2zm0-.3zm-4.1 3.4c.1-.1.4.3.4-.2h-.2c-.1.1-.2-.3-.2.2zm-.1-.5c.2-.1.5.3.6-.2s-.4-.3-.6.2zm.9.3c0-.1.1 0 .1-.2s-.1 0-.1.2zm-1.2-.1c0 .1.1-.1.1-.2s-.1.1-.1.2zm.9.3c0-.3-.1 0 0 0zm.4-.2c0 .1.1-.1 0-.2s0 .1 0 .2zm-1-.7v.2a.3.3 0 0 0 0-.2zm0 .2c-.1.2 0 .1 0 0z" fill="none"/><path d="M177.1 142.1zm-.4.5zm-.4.3zm1.6.5zm.2-.4zm.6-1.8c.1.1.6.1.5.4s-.4.4-.5.6.1.3-.4.4.8.1.2.1h-.2c-.2.1 0 .1 0 .2s.3 0 0 0h-.2c0 .1 0 .1.4.1v.2c.6.3.2.3.3.5l.4.2c-.3-.1-.3-.3.1-.1h.1l.3.3c.4 0-.4-.5-.1-.4a.5.5 0 0 1 .2-.8 3 3 0 0 1-.2.8c.4.1.5-.1.5-.1h.1c0-.2-.1-.1.3-.2s.5-1-.4-1.2h-.2c-.3.1.3.1-.4.2s-.3-.2.2-.4-.2-.1.2-.3.7.2.1.4.1-.1-.2-.1-.2.2.3.2h.2c.6-.3-.2-.6 0-.8h-.4l.4-.2h-.5c-.2-.2-.4-.1-.3-.5s-.5.1-.8.5zm.3 2zm.4 0zm-.4-.1zm1.4-.2zm0-.2zm-.4-.2h.2c.7 0-.1.2-.4.2s-.3.2.2.2-.7-.2-.2-.2v-.2c0-.1.1 0 0 .1zm-.1-.9c-.2.1-.2 0-.2 0v.1zm-3.7-.3v-.2.2zm.3-.7c-.3.4.2.3 0 0zm2.2 0c-.3.3-.2-.2-.5.2s.1.1.2.1-.2.7.2.1-.4.2.1-.4zm-.9-.1h-.8c.3.2.6.5.8 0zm1 3.9zm.1-.1c.1-.1 0-.2.4.2s0-.1-.1-.3-.5 0-.3.1zm.2-.3zm-.2-.2zm-.3-2.7z" fill="#bf461d"/><path d="M177.9 140.7c.2-.1.2.4.4-.1s-.2-.3-.4.1zm-.1 0z" fill="#bf461d"/><path d="M174.3 142.7a1.4 1.4 0 0 1 .2-1.5 2.4 2.4 0 0 1 1.4-.7 1.7 1.7 0 0 1 .8.1s0-.5.1-.4 0 .7.1.4 0-.1 0 0 .1-.3.1-.2 1.1-.2 1.6-.1 0 .4.4-.3h-3.4c0 .4-.2 0-.3.3s-.6-1-.3-.3.1.1.3.4-.1.4-.4 0 .1 0 0-.3-.3-.1-.3-.1.5.5.3.6-.3.3-.5.4-.3.3-.1.6a1.6 1.6 0 0 0-.5 1.3h.2c.7-.1.3-.1.3-.2zm.6-2.5v.2c0-.1-.1-.2 0-.2zm-.4 2.7h-.4c-.4.1-.3.3 0 .3h.2c-.2-.2-.3-.2.2-.3zm3.2 1.8h-.6c0 .1-.1 0-.1.2s.6.3.7-.2zm.1 0c0 .1-.1 0 0 .2s0 0 0-.2zm.3.1c-.3-.5.2.7 0 0zm.7-4.1c0-.3-.4.5 0 0zm-4.4 3.4c.1.1-.2.5.4.1l-.3-.4c-.1-.2.1-.4-.6-.3s.4.5.5.6z" fill="#bf461d"/><path d="M177.7 145.4h.1c.1 0 0-.2 0-.2a.9.9 0 0 1-.9 0 .7.7 0 0 0-.8.1.3.3 0 0 1 0 .2c0 .1-.1.2 0 0s-.1-.2-.1-.3-1.1-.4-1.7-.6l-.2-.3v-.3c.1-.2-.4 0-.2.1v.3l.4.6a.6.6 0 0 0 .7.2c.1-.1-.1.4 0 .5h.3c.1.1.2.5.5.6l.3-.2c.3.1.6.6.8.3s-.1-.1-.1-.2 0-.3 0 0h.5c.1-.1 0-.7 0-.7a1.1 1.1 0 0 0 .1.4c0-.5.2-.1.3-.3s0-.2 0-.2zm-1.9.4c0-.1.1-.3.1-.2s-.1.2-.1.2zm.4.3c.1-.5.2-.1.2-.2h.2c-.1.5-.3 0-.4.2zm-.1-.5c.2-.5.4 0 .6-.2s-.4.1-.6.2zm.9.3c0-.2 0-.2.1-.2s-.1.1-.1.2zm.1 0v-.2.2zm2.1-1.7c.6.3-.1-.2 0 0zm-.2-3.3zm-.1-.4v.2c-.1.2.3-.2 0-.2zm-4.8 2.6c-.7.1.3.1 0 0zm0 .3c.2-.3-.7.1 0 0z" fill="#bf461d"/><path d="M176.1 145.2s0 .1-.1.2zm3.4-4.8c0-.1-.2-.6-.6.1s.7.2.6-.1zm-.8 4.6c-.3-.1-.3.3-.5.4s-.4-.3-.2.5.2-.4.6-.2a1.1 1.1 0 0 1-.1-.4c.1.4.2.4.3.4s.1-.4.4-.5-.4-.1-.5-.2zm1.2-4.1zm-.1-.1zm-.1-.1zm-.1-.1zm-4-1.2h-.5c.1.5.3-.2.5.3s.1 0 0-.3zm-.6.5c0 .2.1.2 0 0zm-1.5 3.7c.1 0-.2.3.3.2s-.1-.3-.3-.2zm.1.2zm4 1.8c-.2.6.4.7.2 0s0 .4-.2 0zm.9-6.1zm-.5-.1c0-.1-.1.1-.1.2s.1-.1.1-.2zm-.1 0c0-.1-.1.1-.1.2s.1-.1.1-.2zm-2.1 0c-.1 0-.2 0-.1.3s.2 0 .1-.3z" fill="#bf461d"/><path d="M174.9 139.9c.3.1-.3-.6 0 0zm-1.7 3zm0 .4zm4.4 2.8c-.1-.5-.2-.1-.3-.2s.2 0 .3.2zm1.5-.8c.2.3 0 0 0 0zm.3-5.5l-.2.2zm-2.4-2.3c0-.1-.1.1-.1.2s.1-.1.1-.2zm4.1 9.3c-.1 0 0 .2.1.2s0-.1-.1-.2zm.7-8.5z" fill="#bf461d"/><path d="M179.4 131.1c-.5-.1-.1.5-.2.7s.1-.1.4-.2-.1-.3-.2-.5zm-4-7.8c0-.1-.1.1-.1.2s.2-.1.1-.2zm3.6 12v-.3c-.2-.3-.2.1 0 .3zm.6-3.6z" fill="none"/><path d="M179.6 131.5c.6.1-.2-.7 0-.9s-.6.1-.2.4.2.4.2.5zm-.2 3.7v-1.8c-.2.3-.3 1.2 0 1.8zm-.2.3c.2.2 0-.1 0 0zm-.5-1.9l-.2-.2zm.9-3.1c0-.1 0-.2-.2-.3s0 .2.2.3zm-.2 1.6v.4c.3.2 1 .4.4-.1s0 .1-.2 0-.1-.5-.2-.3zm-.3 1.6l-.2-.2zm-.9-1.4c.2.2.1.1 0 0zm1.3.8c-.4-.3-.1-.4-.2-.6s-.2.6.2.6zm-.8.4l-.2-.2zm1.2 0c0-.1 0-.2-.2-.3s0 .1.2.3zm0-.5l-.2-.2zm-6.1 3c.2.2-.2.7.3.8v-.4c-.2-.1.2-.5-.3-.4zm.4-.3c.2.4-.2 1 .3 1.2s.2-1-.3-1.2zm-.1 1.8l.3.3h.1c.1 0 .1 0 .1-.2h-.1l-.2-.2zm-.1-2.3zm-.2 1.7c.3-.1 0-.1 0 0zm.9.9c0 .1.1-.1.1-.2s-.2.1-.1.2zm-.1-2.3zm-.2 0c-.2 0-.1.1 0 0z" fill="none"/><path d="M175.4 134.2v.2c0 .1.1-.1 0-.2zm1.4-4.2l.2.2zm-.3-1.8zm1.5 6.9l.2.2zm0-2.4l.2.2zm1.1-4.8c0 .6.3 1.3.1 1.9s-.5.5-.6.8 0 .9-.4.9.6.8.2.6 0-.2-.2-.3 0 .2 0 .6.2.2 0 .1h-.2c0 .3 0 .4.4.4v.7c.5.9.2 1 .3 1.8l.3.2c-.3-.2-.3-.7 0-.4v.4h.2a1.1 1.1 0 0 0 .3.6c.3-.2-.4-.9-.1-.9s-.2-1.6.1-1.8v1.8a.2.2 0 0 0 .4-.2c0-.1-.2-.3-.2-.3h.2c0-.1-.2-.3-.2-.3h.2c0-.3-.1-.2.2-.3s.5-1.6-.2-2.6h-.2c-.3.1.2.4-.4.2s-.2-.8.2-.7-.1-.5.2-.4.6 1 0 .9.1-.3-.2-.4-.3.3.2.6h.2c.6-.1 0-1.2.3-1.3s-.4-.2-.4-.3h.4c-.2-.1-.4-.3-.4-.4s-.2-.8.1-1.2-.3-.5-.8-.7zm-.4 5.7l-.2-.2zm.4.1l-.2-.2zm-.4-.3l-.2-.2zm1.1 0c-.2-.1-.1-.2-.2-.3s.2.3.3.4zm0-.5l-.2-.2zm-.4-.6c.1.1.2.1.2 0s-.1.3-.4.1-.2.3.2.6-.6-.8-.2-.6v-.4c.3-.1.4.4.3.4zm.1-2c-.2-.1-.2-.2-.2-.3s.3.4.3.5zm-1.8-5.5c0 .1.1-.1.1-.2s-.1.1-.1.2zm1-.6c-.7.4.5.4 0 0zm.9 2.9c-.4-.3.1-.6-.4-.9s0 .5 0 .5-.7.8 0 .8-.3-.8.4-.4zm-.1-2.1v-1.6l.6.6-.6-.7c-.3.5-.5 1.3 0 1.7zm-.5 12l-.2-.2zm0-.3c0-.2-.1-.6.3 0s0-.2-.1-.6-.4.7-.2.6zm0-.9l-.2-.2zm-.1-.5l.2.2zm.2-7.6zm.2-2.5c.1.3-.3.7.2.9s.2-.6-.2-.9zm0-.2z" fill="#bf461d"/><path d="M174.4 127.4a17.3 17.3 0 0 1-.4-4l-.4.4 3.8.2 1.9.2s.1-.5.2-.4 0 .7.2.4.1-.1.1 0 .2-.3.3-.2h.1l-.5-.5a30 30 0 0 1 .2 3.4c0 .1-.3.4.4.6a16.4 16.4 0 0 1-.2-4h.1l-3-.2c-.3.4-.4-.1-.8.2s-.2-1.1-.3-.4.1.2.2.4-.6.3-.7-.2.2 0 .2-.2-.3-.2-.5-.2.2.7-.2.7a2.9 2.9 0 0 1-1.5-.1 1 1 0 0 0 .4.9 17.4 17.4 0 0 0-.1 3.1h.2c.7 0 .4 0 .3-.1zm1-4.1c0 .1-.1.3-.1.2s.1-.3.1-.2z" fill="#bf461d"/><path d="M174.7 127.7l-.5-.2c-.4.1-.2.7 0 .8h.2c-.1-.3-.3-.4.3-.6zm1.3 9h-1.3c-.1 0-.1 0-.1.2s1.2.3 1.4-.2zm.2 0s-.1 0-.1.2.2 0 .1-.2zm.7.2c-.6-.6.1.7 0 0zm2.7-9.5c.3-.3-.6-.3 0 0zm-5.2 3.4c.1.3-.4.6.3.9v-1.4c0-.5.2-1-.5-1.2a4 4 0 0 0 .2 1.7z" fill="#bf461d"/><path d="M175.9 137.3h.3c.2.1.1-.2 0-.2a4.9 4.9 0 0 1-1.9-.1l.4.4a3.1 3.1 0 0 0-.2-1.9h-.2c-.1 0-.3 0 0-.1a.3.3 0 0 0 .2-.4 12.1 12.1 0 0 0-.7-3.9V130c.1-.3-.4-.3-.2 0v.5c.2.8-.2 1.9.4 2.6s-.4.3-.4.4.3.3.2.5-.4.7-.4 1.1.2.3.2.4-.5 1.2-.1 1.6 0-.1.2-.2v1.1h.9c.1-.1 0-.7.1-.7s.1.4.2.4.5-.1.7-.2.3-.1.3-.2zm-2-2.2zm-.2.8c.5 0 .1.3.2.4v.4c-.4 0 0-.5-.1-.7zm.4-.3c.5.2.1.8.3 1.2s0-.7-.2-1.1zm-.1 1.7h.1l.2.2h.1c0 .2-.1.2-.1.2h-.1l-.3-.3zm.6.3c0-.1 0-.3.1-.2s0 .4 0 .4zm4.6-1.5c.5.4-.1-.5 0 0zm.3-7.9zm.3-.8h-.2c-.2.4.3.5.2 0zm-5.5.9c-.7.1.3.4 0 0zm0 .6c.2-.5-.7-.1 0 0zm.3 6.6z" fill="#bf461d"/><path d="M180.2 128.3c0-.1.3-.9-.4-.8s.3 1.2.4.8zm-2.1 9.1c-.5-.2-.8.1-1.2.2s-.8-.4-.6.4.6-.3 1.2 0-.2-.4-.1-.4.2.4.4.4.5-.3 1-.2a1.7 1.7 0 0 0-.7-.4zm2-7.9l-.2-.2zm0-.3l-.2-.2zm0-.3l-.2-.2zm.1-.2c0-.1 0-.2-.2-.2s0 .1.2.2zm-2.9-5.9h-.9c-.2.5.6-.1.7.4s.2-.1.2-.4zm-1.2.2c-.1.1 0 .3 0 0zm-2.5 5.8c.1.1.3 0 0 0zm0 .2c.1.1-.2.5.2.5v-.2c0-.2.1-.3-.2-.3zm.1.5c.1.1 0 .2.2.1s0-.1-.2-.1z" fill="#bf461d"/><path d="M175.8 137.6c-.4.5.6.7.4 0s-.2.4-.4 0zm4.7-11.6zm.1-1zm0-.1zm-2.9-2.1c-.1 0-.3-.1-.3.2s.3.1.3-.2zm-1.9.2c.3.2 0-.7 0 0zm-2.5 4.7c.1.1 0 .2.2.1s0-.1-.2-.1zm.1.7c.1.1 0 .2.2.1s0-.1-.2-.1zm.2.4c-.1-.1-.3 0 0 0zm2 9.2c-.1-.5-.4-.1-.5-.2s.3.1.5.2zm3.2-.3c.2.3.1 0 0 0zm1.9-10.1zm-.9-6.6c0-.1-.1.1-.1.2s.2 0 .1-.2zm1.5 18.5c-.1 0-.1.1.1.2s0-.2-.1-.2zm1.9-10.3c.1 0-.1-.2-.2-.2s0 .2.2.2z" fill="#bf461d"/><path d="M191.8 124.6c.2-.6-.9-1.4-1.3-2.1s.2.4.4 1.1.5.8.9 1zm-12.1 27c-.1-.1-.3.2-.2.3s.3-.2.2-.3zm2.1-34.5l1.1.3c.2-.3-1.1-.7-1.1-.3zm9 6.6h-.2c.2.3.3.1.2 0z" fill="none"/><path d="M191.1 124c-.2.9 1.1 1 1.3 2s0-1.3-.6-1.4-.5-.3-.7-.6zm-8.4-6.2a17.8 17.8 0 0 1 4.5 2.3 6.3 6.3 0 0 0-2-1.6 6.2 6.2 0 0 0-2.5-.7zm-1-.5c0 .3.3.1 0 0zm4.3 1c0 .1.4.1.3-.1s-.4 0-.3.1zm6.6 8.1c.2.2.2.6.5.5s-.3-.5-.5-.5zm-2.6-4.1l-.8-.8c-.2.2-.4 1.2.3.9s-.2-.3-.1-.5.9 1.1.6.4z" fill="none"/><path d="M186.1 119c0 .1.3.1.3-.1s-.3-.1-.3.1zm2.6.3h-.2c-.1.1.1.1.2 0zm-.6 1.5c.3-.4.8.5 1.1.7s-1.6-1.7-1.1-.7zm-1.7-2.2c0 .1.4.1.3-.1s-.4-.1-.3.1zm1 2.3c.2.1.3.3.5.1s-.3-.2-.5-.1zm1 .9c0 .1.3.1.3 0s-.3-.2-.3 0zm-26 3.8c.2-.6 1.2-1.3 1-1.9l-.6.9c-.1.3-.8.8-.4 1zm-.7.4c.4-1 1.6-2 1.7-2.8-.6.8-1.8 1.9-1.7 2.8zm3-3.7c.1-.2.3-.3.2-.5s-.3.4-.2.5zm-3.5 5.1c.1 0 0-.3-.1-.3s0 .4.1.3zm2.7-3.8c-.3-.1-.1.2 0 0zm1.3-1.7c.1 0 .2-.3 0-.3s-.2.3 0 .3zm-4.1 4.2h.2c.1-.1-.1-.1-.2 0zm.2.2v.2c.2 0 .1-.2 0-.2z" fill="none"/><path d="M167.5 115.7c-.1 0-.3.3-.1.3s.3-.2.1-.3zm26.1 6.5c0-.1-.3-.2-.3-.1s.3.3.3.1zm-32.5 24.6c0 .1.3.2.3.1s-.3-.3-.3-.1zm18.9-31.5c-.1-.1-.4.1-.3.2s.4 0 .3-.2zm7.6 3c0-.1-.4-.1-.3.1s.4.1.3-.1z" fill="#bf461d"/><path d="M195.1 132.9a23.4 23.4 0 0 0-1.5-5.2 13.9 13.9 0 0 0-1-3.3c-.6-1.2-1.6-2.1-2-3.2s-1.4-.3-1.2-.8.5.5.7.3-.6-.6-1.4-1.2-.3.1-.2-.1h.2v-.2c-1-.8-1.1-.7-.7.1l-2-1.3c-1.8-.2-2.6-1-4.5-1.4-.1.2-.1.4.1.5s1.3 0 1.1.3l-1.1-.3v.2c.3.1 0 .3 0 0a.9.9 0 0 0-1 .2c.9.6 1.7-.1 1.9.3a6.2 6.2 0 0 1 2.4.8 6.3 6.3 0 0 1 2 1.6 17.8 17.8 0 0 0-4.5-2.3c.1.4.9.8 1 .9s.3-.2.5 0-.1.2.1.3.3-.1.5 0-.1.2.1.3.3 0 .8.7a11.3 11.3 0 0 1 2.6 2 7.6 7.6 0 0 0 2.3 1.8h.2c-.1-.7-.7-.5-.4-1.1s1.5 1.5 1.3 2.1.8 1 .6 1.4-1.5-1.2-1.3-2 .4.7.7.6-.5-1.2-1-.9 0 .3-.2.1a4.3 4.3 0 0 0 1 1.8 4 4 0 0 1 .9 1.6c.2.2.5-.1.6.2a.7.7 0 0 0-.2.6.6.6 0 0 1 .6.4 6.1 6.1 0 0 1 .8 3.4c1.1-.4.7.7 1.2.8zm-9.1-14.6c0-.2.3-.2.3-.1s-.3.2-.3.1zm.2.6c0-.2.3-.2.3-.1s-.3.2-.4.2zm.2-.4c0-.2.3-.2.3-.1s-.3.3-.3.2zm1.1 2.4c.1-.2.3 0 .5.1s-.4 0-.6-.1zm1 .8c0-.2.3-.1.3 0s-.4.1-.4.1zm.9.3c-.1.2-.1.3.1.5s-.5-.7-.3-.9-.8-1.1-1.1-.7 1.5.3 1.1.7l.8.8c.3.6-.5-.1-.6-.4zm3.2 4.4c.2-.1.4.3.5.5s-.4-.2-.5-.5zm-6.2 24.5c.1 0 .3-.3.1-.3s-.3.2-.1.3zm2.1-2.3c-1.5 1.6 1.3-.6 0 0zm6.2-13c.4.5-.2 1.8.2 2.3a3 3 0 0 0 .2-1.6c0-.1.2-.8.3-1.4s.1-1.1-.2-.8.2 2.3-.5 1.5zm-1.2 5.9a18.6 18.6 0 0 1-2.7 4.4 9.4 9.4 0 0 0 1.8-2.1 4.3 4.3 0 0 0 .9-2.3zm-16.6-25.1c.1.1.3-.1.2-.2s-.3.1-.2.2zm.9 0c.6 0 1.5 0 .9.5h1.3c.2-.4-.5-.6-1.2-.7s-1.3.1-1 .2zm2.7.4c0 .1.4 0 .3-.2s-.4 0-.3.2z" fill="#bf461d"/><path d="M181.4 116.8c0-.1-.4 0-.3.2s.4-.1.3-.2zm13.7 16.5c.1-.1-.1-.3-.2-.2s.1.4.2.2zm-1 7.4c.2-.8.9-2.1.5-2.7s-.8 2.1-.5 2.7zm-.3.7c.1 0 0-.4-.1-.3s0 .3.1.3zm-29.4 6.2a20.6 20.6 0 0 0 9.6 4.6 19.3 19.3 0 0 0 5.8.1 16.5 16.5 0 0 0 5.3-1.7 21.7 21.7 0 0 0 4.5-3c.1-.1-.2-.5 0-.6s.6.4.6 0 .1-.3.2-.2.1-.5.4-.8a28.3 28.3 0 0 0 2.3-4.2 15.6 15.6 0 0 0 1.2-5c0-.3.4-1.4-.3-1.3a14 14 0 0 1-.5 4.4 15.5 15.5 0 0 1-2.1 4.5 15.8 15.8 0 0 1-7.3 5.9c-.6.7-1.1.4-1.9 1s-.9-.9-1-.2.4.1.5.3-1.6.7-2 .2.6-.1.6-.3-.8-.1-1.3 0 .5.7-.3.7a9 9 0 0 1-3.6 0 13.9 13.9 0 0 0-3.2-.3 20.3 20.3 0 0 1-3.9-1.8 19.3 19.3 0 0 1-3.4-2.6c-.2-.1-.3 0-.5-.1s.1.2.3.4zm15.2 4.1c.1.1-.1.3-.2.3s.2-.4.3-.4zm-16.1-4.8l.8.2c.1-.5-1.1-1.5-1.5-1.7h-.2c.7.7 1 .8.9 1.5zm4.6-28.5a18.8 18.8 0 0 0-3 2.1l-.5.4c-.1.2-.3.3-.2.5s3-2 3.7-3zm.6-.3c-.1.1-.4.2-.3.4s.4-.2.3-.4zm1.8-.5c-1.2-.2-.2.9 0 0zm24.2 17.1c-.3 1.2.7.3 0 0zm-35 4.6c-.3-.8 0-1.7-.7-2.4a17.7 17.7 0 0 0 1 3.9c.5 1.4 1.1 2.8 1.9 2.8a38.4 38.4 0 0 1-2.2-4.3z" fill="#bf461d"/><path d="M167.9 119.3l.8-.4c.4-.1.3-.4.1-.3a30.9 30.9 0 0 0-4.7 3.3 10.3 10.3 0 0 0-2.9 4.2c.1-.1.3-.1.2.1s.1.3-.1.2a1.5 1.5 0 0 0-.7.9 16.6 16.6 0 0 0-1.3 5.5 13.1 13.1 0 0 0 .7 5.3 15.8 15.8 0 0 0 .4 1.7l.5 1.4c.2.8.7.6.2-.1l-.5-1.4a13.1 13.1 0 0 1-.7-3.6c-.1-1.2-.1-2.4-.2-3.4s.5-.6.6-1-.1-.9 0-1.3a20.7 20.7 0 0 1 1.4-2.7c.1-.3.1-.7.2-1s2.1-2.4 2.5-3.3-.3.2-.4.2-.3-.1 0 0l1.6-1.7c.2-.2-.4-.5-.1-.8a.7.7 0 0 0 .6.1c-.1-.5 1-.9 1.4-1.3s.2-.4.4-.6zm-6.6 8.1c-.2.1-.2-.3-.1-.3s.1.3 0 .3zm1.2-1.8c-.4-.2.3-.7.4-1l.6-.9c.2.6-.9 1.3-1.1 1.9zm-.7.3c-.1-.8 1.1-2 1.7-2.8-.1.9-1.4 1.9-1.8 2.9zm3-3.6c-.2-.2.1-.3.2-.5s-.2.4-.3.5zm.5-.4c-.2 0-.1-.3 0-.3s0 .3-.1.3zm14.7-5c-.1.7.9 0 0 0zm14.6 15.6c.1-.1-.1-.3-.2-.2s.1.3.2.2zm-.1 2.2h.2c.2-1.3-.4-1.2-.2 0zm-31.7 10.7c.4-.6-.9-.8 0 0zm-1-1.4c.6 1.3.8 0 0 0z" fill="#bf461d"/><path d="M161.1 126.1c-.1.1 0 .2.1.3v-.2zm32.9 6.7c.1.3-.2 2.6.5 1.9s-.2-.7-.3-1.4-.3-1.2-.2-.5zm-20.4-15.6a8.1 8.1 0 0 0-3.3 1.2c-.5.2-1.9.5-1.5 1.2s1.5-1.1 2.7-1.2-.1-.4.1-.5.3.3.5.3a11.4 11.4 0 0 1 2.7-.8c-.3-.3-.8-.2-1.2-.2zm19.8 12.4c0 .1.2.3.3.1s-.3-.2-.3-.1zm.2.8c0 .1.2.3.3.2s-.2-.3-.3-.2zm.1.7c-.1.1.2.3.3.2s-.2-.4-.3-.2zm.1.6c.1.2.1.4.3.4s-.1-.4-.3-.4zm-9.4 17.9l-2.1.9c-.2.3.2.2.7 0s1-.5 1.2-.3.4-.3.2-.6zm-3.1 1.5c-.3.2.1.3 0 0zm-18.7-7.1c-.3-.2-.2.2 0 0zm-.2-.4c-.3-.3-.4-1.2-.8-1l.3.6c.1.2.2.5.5.4zm-.8-1.3c-.1-.1-.2-.4-.4-.3s.2.4.4.3zm5.8-22.4c-.7 1.1 1.3 0 .9-.6s-.3.7-.9.6zm25.9 19c-.1 0 0 .3.2.3s-.1-.4-.2-.3zm-.9 2.4c-.1 0 0 .3.1.3s.1-.4-.1-.3zm-.2.3c-.1 0 0 .3.1.3s.1-.3-.1-.3zm-6.8 7.5c-.3.2-.7.3-.6.6s.7-.3.6-.6zm-4.9 2.1c.9 0-.1-.7 0 0zm-15.9-5c-.2-.1-.3-.3-.5-.2s.4.3.5.2zm-1.1-1.3c-.1-.1-.3-.3-.4-.2s.2.3.4.2zm-.9-.9c.3.2.2-.2 0 0z" fill="#bf461d"/><path d="M167.2 120.6c-.3-.4-.8.5-1.2.6s.8-.5 1.2-.6zm7.5-3.2c.2.3.3-.1 0 0zm18.9 17.5c-.1.1.1.3.2.2s-.1-.3-.2-.2zm-5.2 9.5c-.1 0-.1.3 0 .3s.1-.3 0-.3zm-11.5-24.6c-.1-.1-.3.1-.2.2s.3-.1.2-.2zm14 13.3c-.1.1.1.3.2.2s-.1-.3-.2-.2z" fill="#bf461d"/></g></svg>