<svg data-name="Layer 1" xmlns="http://www.w3.org/2000/svg" width="300" height="300"><path fill="#ffe399" d="M0 0h300v300H0z"/><path d="M121.4 107.7c-.5.2-.1.9-.2 1.2s.1-.2.4-.6 0-.4-.2-.6zm.4-18c.1 0-.1-.2-.2-.1s.1.1.2.1zm-.6 24.4v-.6c-.4 0-.4.7 0 .6zm.4-5.7h.2c0-.2-.2-.1-.2 0z" fill="none"/><path d="M121.6 108.1c.7-.3-.3-.7 0-1.2s-.6.6-.2.8.2.3.2.4zm.1 5.4v-2.6a3.2 3.2 0 0 0 0 2.6zm-.3.6c.3-.1 0-.1 0 0zm-.6-2.1c.1 0-.1-.2-.2-.1s0 .1.2.1zm.8-5.3c0-.1 0-.3-.2-.3s0 .3.2.3zm-.2 2.4v.6c.3 0 1.1-.3.4-.5s0 .2-.2.2 0-.6-.2-.3zm-.2 2.6c.1 0-.1-.2-.2-.1s.1.2.2.1zm-1.1-1.1c.2.1.1 0 0 0zm1.5-.2c-.5 0-.1-.5-.2-.7s-.2 1.2.2.7zm-.8 1.3c.1 0-.1-.2-.2-.1s0 .2.2.1zm1.3-1.1c-.1-.1 0-.2-.2-.2s0 .2.2.2zm0-.7c.1 0-.1-.2-.2-.1s.1.2.2.1zm.2-40.8c-.1-.3.3-.9-.2-1.1v.6c.1.1-.3.5.2.5zm-.5.3c-.1-.5.3-1.3-.2-1.7s-.3 1.3.2 1.7zm.4-2.5c0-.1 0-.2-.2-.2s-.1.2.2.2zm-.2 3.3c.1 0-.1-.2-.2-.1s.1.1.2.1zm.3-2.5c-.3.1 0 .1 0 0zm-.1-1.1c.1 0-.1-.2-.2-.1s.1.1.2.1zm-.8 3h.2c0-.1-.2-.1-.2 0zm.2 0c.2.1.1 0 0 0z" fill="none"/><path d="M118.8 63.4c-.1 0 .1.2.2.2s-.1-.3-.2-.2zm-.3 44.7c-.1 0 .1.2.2.1s-.1-.1-.2-.1zm.6-28.1c-.1 0 .1.2.2.1s0-.2-.2-.1zm.8 35.1c-.1 0 .1.2.2.1s-.1-.1-.2-.1zm0-3.8c-.1 0 .1.2.2.1s-.1-.2-.2-.1z" fill="#ee8e0d"/><path d="M121 103.2a17.5 17.5 0 0 1 .2 2.7 16.9 16.9 0 0 0-.7 1.7c-.1.6.1 1.3-.4 1.8s.8.6.2.7 0-.3-.2-.3 0 .4 0 .9.3.1 0 .1h-.2c0 .6.1.6.4.2v1c.7.8.2 1.3.4 2.3h.4c-.4.1-.4-.6 0-.6v.6h.2c0-.1.3-.1 0 0a.5.5 0 0 0 .4.4c.3-.6-.6-.8-.2-1a3.2 3.2 0 0 1 0-2.6v2.6a.8.8 0 0 0 .4-.7c0-.1-.3-.1-.2-.2s.2 0 .2-.1-.3-.1-.2-.2.2 0 .2-.1-.1-.2.2-.6.4-2.5-.5-3.3h-.2c-.3.3.3.4-.4.6s-.3-1 .2-1.2-.1-.6.2-.8.7.9 0 1.2.1-.4-.2-.4-.3.7.2.7.2-.1.2 0-.1-1.7.2-2-.4-.1-.4-.2.4-.1.4-.2-.5-.1-.4-.3a2.6 2.6 0 0 1 0-1.8c-.5-.3.1-.9-.4-.9zm-.2 8.8c-.1.1-.3-.1-.2-.1s.2 0 .2.1zm.4-.2c-.1.1-.3-.1-.2-.1h.2zm-.4 0c-.1.1-.3-.1-.2-.1h.2zm1.3-1.1c-.2 0-.2-.1-.2-.2s.1 0 .2.1zm0-.7c-.1.1-.3-.1-.2-.1h.2zm-.4-.4c.2 0 .3-.1.2-.2s-.1.5-.4.5-.3.7.2.7-.7-.7-.2-.7v-.6c.1-.5.2 0 .1.2zm0-2.8c-.3 0-.2-.2-.2-.3s.1 0 .1.2zm-1.4-13.9c-.1 0 .1.2.2.1s-.1-.1-.2-.1zm.7 1.5c-.4-1.1-.4.7 0 0zm.4 7.4c-.4-.2 0-.9-.4-1.1s0 .7 0 .8-.7 1.4 0 1.1-.3-1.1.4-.8zm-.2-3v-2.6c-.3.7-.5 2.1 0 2.6zm0 17.8c.1 0-.1-.2-.2-.1s.1.1.2.1zm0-.5c0-.3-.1-.7.4-.5s0-.3-.2-.7-.4 1.5-.2 1.2zm0-1.3c.1 0-.1-.2-.2-.1s.1.1.2.1z" fill="#ee8e0d"/><path d="M121 114.3c-.1 0 .1.2.2.1s-.1-.1-.2-.1zm0-11.3c-.1 0 .1.2.2.1s-.1-.2-.2-.1zm0-3.8c.1.4-.3 1.1.2 1.4s.3-1.1-.2-1.4zm0-.3c-.1 0 .1.2.2.1s-.1-.2-.2-.1zm.2-17.6c.4 3 0 7.7 0 11.2 0 1-.1 1.9-.2 2.7s.5.1.4.2-.7.1-.4.2.1.1 0 .1.3.2.2.5.3 3.5.5 5.1-.3.7.4.7a36.6 36.6 0 0 1-.2-9.8c-.4-.4.1-.6-.2-1.1s1.1-.3.4-.5-.2.2-.4.2-.3-.9.2-1 0 .3.2.3.2-.4.2-.7-.7.2-.7-.2.5-2.4-.2-3.5a35.7 35.7 0 0 0 .2-4.4c0-.1-.2-.1-.2-.2s-.3.1-.2.2zm.7 8.3c-.1.1-.3-.1-.2-.1s.2.1.1.2zm-1-8.8l.4.3c.4-.2.3-1 0-1.1h-.2c.2.4.4.5-.2.8zm.5-16.6q-.2.9-.2 1.8v.3c0 .1 0 .2.2.2s.4-1.6 0-2.3zm0-.3c0 .1 0 .2.2.3s0-.3-.2-.3zm.4-.9c-.7.4.7.4 0 0zm-.4 39.3c.2-.6-.7-.1 0 0zm0-25.8c0-.4.4-.8-.2-1.2v2c0 .7-.2 1.5.4 1.7a8.1 8.1 0 0 0-.2-2.5z" fill="#ee8e0d"/><path d="M122 64.7v-.4c.1-.2-.2-.3-.2-.2-.1 2.4-1 3.5-.5 5.5 0-.1.2-.1.2 0s.3.1 0 .1-.2.4-.2.6a23.9 23.9 0 0 0 .4 5.6v1.7c-.2.4.4.4.2 0v-.8c-.1-1.2.3-2.7-.2-3.7s.4-.3.4-.6-.3-.5-.2-.7.4-1 .5-1.6-.2-.4-.2-.6.6-1.6.3-2.2-.1.2-.2.2-.3.1 0 0 0-.8.1-1.2-.7-.1-.6-.3l.5-.2c-.5-.2 0-.7-.1-1s-.2-.1-.2-.2zm.1 5.5c-.1.1-.3-.1-.2-.1s.2 0 .1.1zm.2-1.1c-.5 0-.1-.4-.2-.6v-.6c.5.2 0 .8.2 1.2zm-.5.3c-.5-.4 0-1.2-.2-1.7s.1 1.2.2 1.7zm.3-2.5c-.2 0-.2-.1-.2-.2s.2.1.3.2zm0-.3c-.1 0-.3-.1-.2-.1s.3.1.3.1zm-.7 48.4c.7 0-.2-.5 0 0zm0-11.6c-.1 0 .1.2.2.1s-.1-.2-.2-.1zm.2-1.1h-.2c-.1.6.4.6.2 0zm-.2-22.3c.7-.1-.2-.6 0 0zm0-.9c-.3.7.7.2 0 0z" fill="#ee8e0d"/><path d="M121.4 69.6c0 .1.1.1.2.1h-.2zm.7 33.7c0-.2.3-1.4-.4-1s.3 1.7.4 1zm.6-41.7a3.4 3.4 0 0 0-.2 1.8c0 .3-.5.9.3 1.1s-.2-1 .3-1.5l-.4-.2c.4.1.4 0 .5-.1s-.1-.9.2-1.4-.6.1-.7.3zm-.6 43.4c.1 0-.1-.2-.2-.1s.1.1.2.1zm0-.5c.1 0-.1-.2-.2-.1s.1.2.2.1zm0-.3c.1 0-.1-.2-.2-.1s.1.1.2.1zm0-.3c-.1-.1 0-.2-.2-.2s0 .1.2.2zm.2-11.5v-1.3c-.5-.3.1.9-.4 1s.1.3.4.3zm-.2-1.8c-.1-.2-.3 0 0 0zm-.1-11.3c-.1-.2-.3 0 0 0zm0-.2c-.1-.2.3-.7-.2-.7v.3c.1.2 0 .4.2.4zm0-.8c-.1-.1 0-.2-.2-.2s0 .2.2.2zm.1-13.3c.4.7.8-.5.1-.6s.4.5-.1.6zm.2 35c.1 0-.1-.2-.2-.1s.1.2.2.1zm0-1.3c.1 0-.1-.2-.2-.1s.1.1.2.1zm0-.3c.1 0-.1-.2-.2-.1s.1.2.2.1zm0-5.5c0-.2.1-.4-.2-.4s-.1.4.2.4zm-.2-2.8c-.2.5.7 0 0 0zm.2-9.2c0-.1 0-.2-.2-.2s-.1.2.2.2zm0-.9c-.1-.1 0-.2-.2-.2s-.1.2.2.2zm-.3-.7c.1.2.3 0 0 0zm.5-13.9c-.5 0-.1.5-.3.6s.2-.4.3-.6zm.8-4.2c.3 0 0-.1 0 0zm-.8 41c.1 0-.1-.2-.2-.1s.1.1.2.1zm1.6-6.2c.1 0-.1-.2-.2-.1s.1.1.2.1zm1.8-34.9c-.1 0 0 .2.2.2s-.1-.2-.2-.2zm-.7 42.2c.1 0-.1-.2-.2-.1s.1.1.2.1z" fill="#ee8e0d"/><path fill="#fff8e5" d="M122.2 60l34.1 7.6-34 12.5-.1-20.1z"/><path d="M136.1 62.8c-.5-.6-1.4-.4-2-.6s.4.2 1 .6.7.1 1 0zm12.3 7.6c-.1 0-.2.2-.1.3s.2-.2.1-.3zm-22.6-10l.9.2c-.1-.3-1.2-.5-.9-.2z" fill="none"/><path d="M135.1 62.8v.2c.2 0 .1-.2 0-.2zm.3.1c.7.7 1.1 0 1.9.4s-1.1-.8-1.3-.5-.3.1-.6.1zm-8.5-1.9l4.1.9a10.5 10.5 0 0 0-4.1-.9zm-1-.4c.3.3.2 0 0 0zm3.1.1c.1.1.2 0 .1-.2s-.3.1-.1.2zm8.7 2.7c.2 0 .5.1.5-.1s-.5-.2-.5.1zm-3.9-1.1l-.9-.2c.1.3.9 1.1.9.6a.5.5 0 0 1-.4-.3c.2.1 1 .2.4-.1zm-4.2-1.1c.1.1.2 0 .1-.2s-.3.1-.1.2zm1.3-.6h-.2c.1.2.2.1.2 0zm1 1.5c-.2-.4.7.1 1 0s-2-.6-1 0zm-2.5-1.3c.1.1.2 0 .1-.2s-.3.1-.1.2zm2.3 1.6c.1 0 .3.1.3-.1s-.4-.1-.3.1zm1.1.2c.1.1.2 0 .1-.2s-.3.1-.1.2zm-10 12.4c-.1-.6.3-1.4-.2-1.8v.8c.1.3-.3.9.2 1zm-.4.4c-.1-.9.3-2.1-.2-2.8.1.9-.3 2.2.2 2.8zm.2-3.9c0-.2 0-.4-.2-.4s0 .4.2.4zm0 5.2c.1 0-.1-.3-.2-.2s.1.3.2.2zm.2-3.8c-.3 0 0 .2 0 0zm-.2-1.9c.1 0-.1-.3-.2-.3s.1.4.2.3zm-.7 4.7h.2c0-.2-.2-.1-.2 0zm.3 0v.2c.2 0 .1-.1 0-.2z" fill="none"/><path d="M119.4 64.8c-.1 0 .1.4.2.3s-.1-.4-.2-.3zm15-4.9a.1.1 0 1 0-.1.2.1.1 0 1 0 .1-.2zm.3 18.4c.1 0 .2-.2.1-.3s-.2.2-.1.3zM123.4 59c-.1-.1-.2 0-.1.1s.3 0 .1-.1zm6.3 1.2c-.1-.1-.2 0-.1.2s.2-.1.1-.2z" fill="#ee8e0d"/><path d="M143.2 63.9c-1.5-.3-2.8-.2-4.3-.7s-1.8-.9-2.9-1.2a10.3 10.3 0 0 1-3.1-1c.1.3-.6.5-1 0s.5.1.5-.1a4.2 4.2 0 0 0-1.5-.3c.1.1 0 .2-.2 0h.2v-.2c-1-.2-1-.1-.2.3l-1.8-.4c-1 .3-2-.2-3.4-.4l.4.4c-.3-.3.8-.1.9.2l-.9-.2v.2c.2 0 .3.3 0 0s-.5 0-.5.2 1-.2 1.5.2a10.5 10.5 0 0 1 4.1.9l-4.1-.9a3.7 3.7 0 0 0 1.3.6c.1 0 0-.2.2-.1s.1.2.3.2.1-.2.2-.1.1.2.3.2.2-.1 1 .4 4.1 1.3 4.9.8v-.2c-.6-.4-.6.1-1-.6s1.6.1 2 .6 1 .1 1.3.5-1.3.3-1.9-.4.7.2.6-.1-1.1-.5-1 0 .3.2.1.2 2.6.5 3.2.9 0-.4.2-.4a1.2 1.2 0 0 0 .5.5c0-.2.1-.4.4-.3a7.1 7.1 0 0 1 2.8.6c-.1-.5.8.2.9-.3zM129 60.7c-.1-.1 0-.2.1-.2s0 .3-.1.2zm.6.5c-.1-.1 0-.2.1-.2s-.1.3-.1.2zm-.2-.4c-.1-.1 0-.2.1-.2s-.1.3-.1.2zm2.4 1.6c-.1-.2.1-.1.3-.1s-.3.1-.4.1zm1.1.2c-.1-.1 0-.2.1-.2s-.1.3-.2.2zm.5-.3a.5.5 0 0 0 .4.3c0 .6-.7-.3-.9-.6s-1.2-.5-1 0 .8-.4 1 0l.9.2c.6.4-.2.3-.5.2zm4.4 1c0-.2.3-.1.5-.1s-.4.2-.6.2zm16.1 6.7c.1 0 .2-.2.1-.3s-.3.3-.1.3zm1.9-1.4c-1.5.9 1.1 0 0 0zm-10.5-3.8c.4-.3 1.5.4 1.8-.1a2.4 2.4 0 0 0-1.3-.3c-.2 0-2.3-1.2-1.8-.4s1.9.2 1.3.8zm4.9.9l4.1.9c-1.1-.6-3.3-1.3-4.1-.9zm-28.3-6.1c.1.1.2 0 0-.1s-.2 0 0 .1zm.7.1c.5.1 1.1.2 1 .5h.9c-.3-.6-2.5-.7-1.9-.5zm2.1.5c.1.1.2 0 .1-.1s-.2 0-.1.1zm.6-.1c-.1-.1-.2 0-.1.1s.3.1.1-.1zm18.2 3.9c-.1-.1-.3 0-.2.2s.3-.1.2-.2zm6 1.3c-.7 0-1.8-.7-2.2-.3s1.8.7 2.2.3zm.5.1c0-.1-.3 0-.2.2s.3 0 .2-.2z" fill="#ee8e0d"/><path d="M136.1 75.6c4.4-2.1 11.6-4.3 16.8-6.2l3.7-1.1 2.5-.7-2.5-.7h-.5c-.1 0-.2.5-.4.4s.1-.7-.3-.5-.2.1-.2 0-.4.2-.8.1c-2-.1-5.6-1-8-1.3-.3 0-1.2-.6-1 .2a86.8 86.8 0 0 1 11.1 2.1l-4.4 1.1c-.5.6-.9.2-1.6.8s-.9-.9-.8-.2.4 0 .5.3-1.3.8-1.6.4.5-.1.4-.4-.7 0-1.1.2.6.5-.1.8-3.8.9-5.2 2.1-4.3 1.4-6.7 2.2c-.1.1-.1.3-.3.3s.3.2.5.1zm12.3-5.3c.1.1 0 .3-.1.3s0-.2.1-.2zm-13.1 5.9a1.3 1.3 0 0 1 .4-.6c-.4-.3-1.5.3-1.7.6v.2c.6-.4.8-.6 1.3-.2zm-13.7-9.4v3.5c0 .2 0 .4.2.5s.2-2.8-.2-4zm0-.5c0 .2 0 .4.2.5s0-.4-.2-.5zm.2-1.4c-.5.5.6.9 0 0zm22.8-.2c1 .5.2-.6 0 0zm-15.9 13.4c-.6.3-1.4.1-1.8.9l3.1-1.1c1.1-.4 2.3-.6 2.4-1.4a20.6 20.6 0 0 0-3.7 1.6z" fill="#ee8e0d"/><path d="M122.1 67.7V67c.1-.3-.2-.5-.2-.3a31.5 31.5 0 0 1-.1 4.7 16.4 16.4 0 0 0 .1 4.3c0-.1.2-.2.2 0s.3.2 0 .2a1.1 1.1 0 0 0-.2.9v3.7l.4-.2a37.7 37.7 0 0 0 5.3-2.4l1.4-.5 1.2-.4c.7-.1.5-.6-.1-.2l-1.2.4c-1.8.8-4.1 1.2-5.5 2.3s-.7-.2-1-.1l-.3.2.7.5a2 2 0 0 1-.2-.7c.1-.8.4-1.6.4-2.4s-.2-.6-.2-.9.5-2.5.2-3.5 0 .3-.2.3-.3 0 0 0v-2c0-.3-.6-.3-.6-.6s.4 0 .4-.2-.1-1.2-.2-1.7-.2-.4-.3-.7zm.5 9c-.1.1-.3-.2-.2-.2s.3.2.2.2zm.2-1.7c-.5-.1-.1-.7-.2-.9v-.9c.5.3.1 1.2.2 1.8zm-.4.4c-.5-.7-.1-1.9-.2-2.8.5.8 0 1.9.2 2.8zm.2-3.9c-.2-.1-.2-.3-.2-.4s.1.3.2.4zm0-.5c-.1 0-.3-.2-.2-.3s.2.3.2.3zm1.9-10.7c.4.6.6 0 0 0zm18.3 4c-.1-.1-.3 0-.1.2s.3-.1.1-.2zm1.8.6v-.2c-1-.4-.9.1 0 .2zm-10.7 11.3c-.4-.6-.8.6 0 0zm-1.3.5c1.2-.2.1-.8 0 0z" fill="#ee8e0d"/><path d="M121.9 75.7c0 .1.1.2.2.2v-.2zM143.1 65c.3.1 2.1.8 1.5-.1s-2.6-.3-1.5.1zm-21-2.3a15.3 15.3 0 0 0 .2 3c0 .5-.3 1.4.4 1.9 0-1.1-.3-1.7 0-2.5a.8.8 0 0 1-.3-.5c.3.3.3.1.3-.1s-.3-1.6-.2-2.5-.3.4-.4.7zm18.4 1.7c.1.1.2 0 .1-.2s-.2.1-.1.2zm.7.2c.1.1.2 0 .1-.2s-.2 0-.1.2zm.5.1c.1.1.2 0 .1-.2s-.2 0-.1.2zm.5.1c.1 0 .3.1.3-.1s-.3-.1-.3.1zm10.1 3.7l-1.9.7c-.3.6 1.4-.6 1.7-.1s.3-.3.2-.6zm-2.6 1.2c-.2.2.1.2 0 0zm-17 6.2c-.2.2.1.2 0 0zm-.3.2c-.3.2-1.1.1-.9.6l.5-.2c.1-.2.4-.2.4-.4zm-1.2.4c-.1.1-.3.1-.3.3s.3-.1.3-.3zm-8.9-8.1c.5 1.3.6-.5 0-.9s.4.8 0 .9zm25.9-2c0 .1.3 0 .2-.2s-.3 0-.2.2zm2.1.4c0 .1.3 0 .2-.2s-.3.1-.2.2zm.3.1c0 .1.3 0 .2-.2s-.3.1-.2.2zm2.6 1.3c-.2.1-.7.2-.6.5s.6-.2.6-.5zm-4.2 1.7c.8-.1-.2-.6 0 0zm-14 4.9c-.1.1-.3.1-.3.3s.4 0 .3-.3zm-1.4.5c-.1.1-.3.1-.3.3s.4 0 .3-.3zm-.9.6c.2-.2-.1-.2 0 0zm-10-6.7c-.4-.2-.1.7-.2 1s.1-.8.2-1z" fill="#ee8e0d"/><path d="M122.4 62.1c.2.1 0-.2 0 0zm22.5 3.7c.1.1.3 0 .2-.2s-.3.1-.2.2zm9.2 3.7c0 .1.3 0 .2-.2s-.2.1-.2.2zM124 62.2s.1.3.2.3-.2-.3-.2-.3zm19.5 5.9c.1.1.2 0 .1-.2s-.2.1-.1.2z" fill="#ee8e0d"/><path fill="#ffc733" d="M204.2 98h-22.7v14.9h-24.3V98h-24.4v14.9h-24.3V98H85.8l-8.7 140.6h135.8L204.2 98z"/><path d="M140.5 98.4c2 .5 9 .1 13 .2-1.5-.7-2.4-.1-5.9-.4-.2.5-5.1.1-7.1.2zm-61.3 104c-.1.3 0 1.8.2 1.2s0-1.8-.2-1.2zm102.9-100.9v5.9c.3.5.3-6.4 0-5.9zm-34.5-3.3V98c-1.4 0-.7.2 0 .2z" fill="none"/><path d="M145.2 98.2c-3.1-.6-7.4.2-12.4 0h.1l-.2.2a29.9 29.9 0 0 0 7.7.1c.4-.4 3-.3 4.8-.3zm36.4 9.2v5.5h-21.8c4.9.3 14.6.4 21.6.2h.3v-.3c.1-2.1 0-4-.1-5.4zm.2-5.9c-.3.7 0 1.4 0 0zm-11.3 12.4c-.3-.1-1.8.1-1.2.2s1.8-.1 1.2-.2zM132.9 101c0 1.4 0 3.3.2 3.5 0-1.3.1-3.3-.2-3.5zm22.9-2.6h1.3l-.3-.3v4.6c.3 0 1.1-3.1.5-4.6v-.2a4.9 4.9 0 0 1-.2 2.2v-2.2h.1c-2 .3-4 .4-1.4.5zm12.3 15.1c-.3-.1-1.8.1-1.2.2s1.8-.1 1.2-.2zm-12.6-1.4v2.5h1.7l-1.7-.2.2-1.3c0-.6-.1-1-.2-1z" fill="none"/><path d="M157 109.7c-.5-.1-.1-5-.2-7.1-.5.1-.2 12.2.2 7.1zm11.1 4.2c-.3-.1-1.8.1-1.2.2s1.8-.1 1.2-.2zm-10.6-1.8c0-.9 0-2.3-.2-2.4s0 2.3.2 2.4zm0-7.1c.1-.3-.1-1.8-.2-1.2s.1 1.8.2 1.2zm53.2 89.7c-.4-3.5-.4-10.3-1-11.7l.4 5.9c.3 1.6.2 6.1.6 5.8zm-.2 3.6c-.5-5.5-.6-14.2-1.3-17.6.5 5.5.6 14.2 1.3 17.6zm-1.4-26c-.1-.9-.2-2.3-.4-2.3s.2 2.3.4 2.3zm2.1 34.2c0-.3-.2-1.8-.3-1.1s.3 1.8.3 1.1zm-1.4-26c-.3.8.1 1.4 0 0zm-.9-11.7c0-.4-.2-1.7-.3-1.1s.2 1.7.3 1.1zm1.3 32h.2c-.1-1.4-.2-.7-.2 0zm.2-.1v1.2c.4-.3.2-1.2 0-1.2z" fill="none"/><path d="M204 143.7c0 .4.2 1.7.2 1s-.1-1.7-.2-1zm-58.8-42.4c.3.1 1.8-.1 1.2-.2s-1.8.1-1.2.2zM142.3 236c-.3-.1-1.8.1-1.2.2s1.8 0 1.2-.2zm45.9-136.1c.3.1 1.7-.1 1.2-.2s-1.7.1-1.2.2zm-24.8 14.9c.3.1 1.8-.1 1.2-.2s-1.8.1-1.2.2z" fill="#ee8e0d"/><path d="M107.7 112.5v1.2h.8c8.4 0 16.3-.3 24.3-.3h.5v-4.1c.1-3.2.3-6.9.5-11.2l-1 1 6.5.2c6.3.1 12.8-.1 17.9.4l-1.6-1.7v1c.3.4.8 6 .2 7.1 0-1.7 0-3.3-.2-3.5-.2 4.8 0 4.1 0 9.4.1 0 .2.5.1.9l-.2 1.3 1.7.2h-1.7v-2.5h-.2v2.7h1.9c5.2 0 5.5-.1 1.5-.4h11.8c4.1-.3 7.5-.4 11-.4h1v-1c0-3.7.1-7.6 0-12.6-.3-.2-.4.3-.4 1.2s.4 6.4 0 5.9v-5.9h-.2c0 1.4-.3.7 0 0a32.8 32.8 0 0 0-.2-3.5h-.1l1.3-.3h-1.4v.4c-.2 4.9.6 7.4.3 9.4s.1 3.3.2 5.5v.3h-.3c-7 .2-16.8.1-21.6-.2h21.8v-5.5a36.2 36.2 0 0 0-.4 5.5l.3-.3h-1.6a23.6 23.6 0 0 1-2.4.2c-.3 0 0-.2-1.2-.2s-1.3.3-2.4.2 0-.2-1.2-.2a26.2 26.2 0 0 1-5.9-.2h-9.8l.5.5c0-5.1.1-10.3 0-14.9v-.6h-.6c-3.8 0-7.1.2-9.6.5v.2c3.5.3 4.4-.3 5.9.4-4-.1-11 .3-13-.2a29.9 29.9 0 0 1-7.7-.1l.2-.2h-.1c4.9.2 9.3-.7 12.4 0-1.8 0-4.4-.1-4.7.2 2.1-.1 6.9.3 7.1-.2s-1.3-.2 0-.2c-3.4-.4-9.7-.2-14.7-.2h-.3v.3c0 2.8.1 5.1-.1 6.5s.4.8.4 2.4a6.2 6.2 0 0 0-.4 2.4 8.2 8.2 0 0 1 .4 3.5h-.1c-8 .1-10.2.3-18.8 0 .5.6-4.1.3-5.5.5h-.6v-.7a.8.8 0 0 0-.3-.1zm62.8 1.4c.6.1-.9.3-1.2.2s.8-.3 1.2-.2zm-2.4-.4c.6.1-.8.3-1.2.2s.9-.3 1.2-.2zm0 .4c.6.1-.8.3-1.2.2s.9-.3 1.2-.2zm-10.6-1.9c-.2 0-.2-1.4-.2-2.4s.1 1.5.2 2.5zm0-7.1c-.1.6-.3-.9-.2-1.2s.3.9.2 1.3zm-.4-4.7a4.9 4.9 0 0 0 .2-2.2c.6 1.5-.2 4.6-.5 4.6.1 2.1-.3 6.9.2 7.1-.5 5.1-.7-7-.2-7.1V98l.3.3h-1.3c-2.6-.1-.6-.2 1.3-.2h-.1c.1.8.1 1.7 0 2.1zm-24.1.8c.3.2.2 2.2.2 3.5-.3-.1-.2-2.1-.3-3.5zm-50.1 67.3c.1-.3 0-1.8-.1-1.2s-.1 1.8.1 1.2zm.3-15.4c-.3 11.1.8-6.9 0 0zm24.9-54.5V98l.4.4c-2.7.3-9.4-.1-11.5.4 2.6.2 7.8 0 8.3 0h3.2l-.9-.9c-.2 4.2-.4 10.8.1 8.6s-.1-6.9 0-8.6l.8.8c-.7-.1-.9-.2 0-.3l-.4-.4zM85.8 107l-1.7 27.1c.8-7.7 1.9-22.2 1.7-27.1zm117.8-8.5c-.3 0-1.8.1-1.3.2s1.9-.2 1.3-.2zm-4.6 0c-3.1 0-7.8.2-4.5-.4l-7.1.2c-.7.4 2.9.5 6.4.4s6.7-.1 5.2-.2zm-13.9.1c-.3-.1-1.8.1-1.2.2s1.8-.1 1.2-.2z" fill="#ee8e0d"/><path d="M182.3 99.1a4.3 4.3 0 0 0-.1-1.1l-.7.7c.2 0 .3-.1.1-.2h-.1l.5-.5c0 .5.2 1.7.3 1.1zm-74.6 11.1c-.1.3.1 1.8.2 1.2s-.1-1.8-.2-1.2zm-21.4-7.9c0-1.2.1-2.7.2-4.2l-.8.7c3.9 0 8.3.2 10-.2-2.8.1-6.8-.1-10 0l.5-.5a24.7 24.7 0 0 0 .1 4.2zm-.2 3.5c.1-.3 0-1.8-.1-1.2s0 1.8.1 1.2z" fill="#ee8e0d"/><path d="M128.1 238c-14.4.2-32.3.2-51.1.2l.4.4 4.3-65.7c.6-10.4 1.4-19.4 2-28.3 0-.6-.4-1-.3-2.4s.7-.5.6-2.3a1.3 1.3 0 0 1 .1-1.2c.2-2.1-.1-2.5.1-4.7.3-8.8 1.2-23.2 1.9-36l-.2.2h22.5c.1 1 .2 1.7.5 1.5v-2h-.3l-22.8.3c-1.4 25.9-3.4 56.4-5 78.4.2 4.3-.5 6.2-.5 11.8-.3 0-1.3 3.2-.7 4.7 0-2 .3-2.2.6-2.3-.3 3.2-.3 9.4-.9 10.6.1-1.7.2-3.3 0-3.5-.1 3.6-.5 4.3-.7 7.1s.8-2.3.5 2.4c-.4 11.6-1.7 21.8-2 31.5H77l5-.2c16.3.2 29.3.2 46 .2 1 0 1.2-.2 2.4-.2s-.8-.5-2.3-.5zm-48.9-35.6c.2-.6.2.9.2 1.2s-.3-.9-.2-1.2zm54.8 35.4l-3.5.4c1.6.4 10 .3 11.8 0v-.2c-4.6.2-6 .4-8.3-.2zm72.5-92l1.1 18.8.2 3.5c.1.9.1 2.3.3 2.3-.6-7.9-.9-19-1.6-24.6zm-.3-3.6c.1.9.1 2.3.3 2.2s-.1-2.3-.3-2.2zm-.3-9.5c-.2 6 .8 2.4 0 0z" fill="#ee8e0d"/><path d="M108.1 103.1c.2-6.3-.7-1.4 0 0zm70.8 135.2c4.4 0 8.8.4 13-.2h-21.3c-7.6 0-15.4-.2-17.7.4 10.7.2 18.8-.2 26-.2z" fill="#ee8e0d"/><path d="M207.2 148.9l-.3-4.7c-.1-2.1-.3-2.3-.3-1.1.9 12.4 1.3 21.7 1.8 30.5s.9 16.9 1.8 27.2c0-.7.1-1.4.2-.1s.3.9.1 1.2a45.2 45.2 0 0 0 .1 5.9l2 30.8.3-.3c-10.3.1-20.4.2-28.1.4h-17.7c-4.3-.2-4.3.4 0 .2h8.3c12.3-.1 26.9.2 37.6-.2h.2v-1.5c-.2-1.8.2-3.7.1-5.9s-.6-4.7-.7-7.1c-.2-5.2-.3-10.9-.6-16.6-.1-1.8-.5-4-.6-5.9-.5-7.9-.6-17.8-1.3-23.7a6.2 6.2 0 0 1-.1 2.4c.1 1.4-.3.8 0 0l-.8-13c-.2-1.7-.6-.1-.8-2.1a8.2 8.2 0 0 0 .3-2.6c-.5-1-.5-7.4-.9-10.5-.4.1-.4-1.9-.6-3.3zm4 57.6c-.1.6-.3-.8-.3-1.1s.4.8.3 1.1zm-.5-11.9c-.5.3-.4-4.2-.6-5.8l-.4-5.9c.7 1.5.7 8.2 1 11.8zm-.2 3.7c-.7-3.4-.8-12.1-1.3-17.6.7 3.4.8 12.1 1.3 17.6zm-1.4-26c-.2.1-.2-1.4-.4-2.3s.3 1.4.4 2.3zm-.2-3.5c-.1.7-.3-.7-.3-1.1s.3.7.3 1.1zm-21.5-70.4c-.1-.7-4.9.2 0 0zm-76.9 14.8c.3.1 1.8-.1 1.2-.2s-1.8.1-1.2.2zm-2.1-10.1h-.2c-.2 6.7.3 6.7.2 0zm33.9 135.2c1.4.7 6.3-.2 0 0zm9.4 0c-7.6-.3-2.6.7 0 0z" fill="#ee8e0d"/><path d="M210.2 200.8c0 1 .2 1.1.3 1.1v-1.2zm-100.9-88.2h-.8l.3.3c.1-3.2.2-13-.5-9.8.1-.9.2 6 .3 9.8l-.2-.2c2.5 0 3.7-.1.9-.1zm95.9 3.3c.3 6.6 1 13.5 1.3 18.7.2 3.3.3 10.4 1 10.4-.4-7.6-.9-9.7-1.1-16.5-.2.4-.3 0-.4-.9s.3-1.2.2-2.6c-.2-3.7-.8-8.6-1.1-15.2a60.6 60.6 0 0 0 .1 6.1zm-78.2-3.3c-.3-.1-1.8.1-1.2.2s1.8-.1 1.2-.2zm-4.7 0c-.3-.1-1.8.1-1.2.2s1.8-.1 1.2-.2zm-3.6 0c-.3-.1-1.8.1-1.2.2s1.8-.1 1.2-.2zm-3.5 0c-.9 0-2.3 0-2.4.2s2.4 0 2.4-.2zm-34.7 61.5l-.8 13c.3 3 .5-9.7 1.1-10.6s0-2.4-.3-2.4zm-.9 18.8c0 1.7.3-.1 0 0zm69.8 46c1.7-.1-.1-.3 0 0zm2.3 0c2.1-.1 6.9.3 7.1-.2h-3.5c-1.4.1-3.4 0-3.6.2zm8.3 0c.9 0 2.3 0 2.4-.2s-2.4 0-2.4.2zm47.6-86.6c.9 6.5.3-6.6-.4-5.9.3 3 .7 3.5.4 5.9zM89.9 97.5c-.3-.1-1.8.1-1.2.2s1.8-.1 1.2-.2zm-5.3 10.6c-.1.3 0 1.8.1 1.2s.1-1.8-.1-1.2zm-.1 2.3c-.1.3 0 1.8.1 1.2s0-1.8-.1-1.2zm-3.6 57.8c-.1 1.8-.3 4.3-.1 4.7.1-1.8.4-4.4.1-4.7zm-1.6 29.4c.5-4.9-.7-.3 0 0zm53.5 41.6c.9 0 2.3 0 2.4-.2s-2.3-.1-2.4.2zm9.5 0c.9 0 2.3 0 2.4-.2s-2.4-.1-2.4.2zm7.1-.3c-1.7.1.1.3 0 0zm58.9-83.2c-.4.4.2 5.1.3 7.2.3-.4-.3-5.1-.3-7.2zm-3.1-46c.2-.9-.1-1.4 0 0zm-95.9-7.8c.1-.3-.1-1.8-.2-1.2s0 1.8.2 1.2zm-28.2 34.3c-.1.3 0 1.8.1 1.2s0-1.8-.1-1.2zm125-40c0 .4.2 1.7.2 1s-.2-1.7-.2-1z" fill="#ee8e0d"/><path d="M109.3 109.5h-.8l3.4 3.4c0-.4-.1-.7-.2-.4a1.9 1.9 0 0 0 0 .4l-3.2-3.2c.5 0 1.2-.2.8-.2z" fill="#ee8e0d"/><g><path fill="#ffd566" d="M133 150.1h-12.7v9.3h-13.7v-9.3H92.9v9.3H79.3v-9.3H66.5l-4.9 88.7h76.3l-4.9-88.7z"/><path d="M95.6 150.4c1.2.5 5.4.1 7.8.2-.9-.7-1.5-.1-3.5-.4-.2.5-3.1.1-4.3.2zm-32.8 65.3c-.1.2 0 1.1.2.7s-.1-1-.2-.7zm58-62.6v3.5c.4.3.4-3.9 0-3.5zm-21-2.9v-.2c-.8 0-.4.2 0 .2z" fill="none"/><path d="M98.4 150.2c-1.4-.5-3.3-.1-5.5 0h.1a15.4 15.4 0 0 1 0 2.3 10.4 10.4 0 0 0 .4-2.3l-.5.5a7.9 7.9 0 0 0 2.6-.2c.3-.4 1.9-.3 2.9-.3zm22 6.4v2.8h-13.6a122.5 122.5 0 0 0 13.5.2h.3v-.3c-.1-1-.2-2-.2-2.7zm.2-3.5c-.3.4 0 .9 0 0zm-7.4 7.4c-.2-.1-1.1.1-.7.2s1-.1.7-.2zM93 153.8c0 .8 0 2 .2 2.1s.1-2-.2-2.1zm11.8-3.4h1.8l-.3-.3v1.8c.2 0 .7-.9.7-1.8v-.3h-.4a1.6 1.6 0 0 0-1.1.3h1.1l-.2.3v-.3h.1c-1.1 0-3.7.1-1.7.3zm6.9 9.6c-.2-.1-1.1.1-.7.2s1.1-.1.7-.2zm-6.8-2.5v.7c.3-.1.1-.7 0-.7z" fill="none"/><path d="M106.5 156.1c-.5-.1-.1-3-.2-4.3s-.3 7.4.2 4.3zm5.2 4.4c-.2-.1-1.1.1-.7.2s1.1-.1.7-.2zm-4.8-3c0-.6 0-1.4-.2-1.4s0 1.4.2 1.4zm0-4.2c.1-.2-.1-1.1-.2-.7s.1 1 .2.7zm29.8 54.8c-.3-2.1-.1-6.2-.6-7l.2 3.6c.2.9 0 3.7.4 3.4zm-.3 2.3c-.3-3.3-.2-8.6-.8-10.6.3 3.3.2 8.6.8 10.6zm-.6-15.7c-.1-.5-.1-1.4-.3-1.3s.1 1.3.3 1.3zm1.1 20.6c0-.2-.2-1.1-.3-.7s.2 1.1.3.7zm-.7-15.7c-.3.6.1.9 0 0zm-.6-7.1c0-.2-.2-1-.2-.6s.2 1.1.2.6zm.5 19.4h.2c-.1-.8-.2-.4-.2 0zm.2-.1v.7c.3-.2.1-.7 0-.7z" fill="none"/><path d="M131.6 178.3c0 .2.1 1 .2.6s-.1-1-.2-.6zm-33.2-25c.2.1 1.1-.1.7-.2s-1.1.1-.7.2zm1.2 82.9c-.2-.1-1.1.1-.7.2s1.1-.1.7-.2zm23.7-84.3c.2.1 1-.1.7-.2s-1 .1-.7.2zm-14.4 9.4c.2.1 1.1-.1.7-.2s-1.1.1-.7.2z" fill="#ee8e0d"/><path d="M78.5 156.7v3.5h.8c4.7-.1 9.1-.3 13.7-.2h.5v-1.2c.1-2.4.4-5.3.6-8.7l-1.2 1.2h1.9c4 .1 8.2-.1 11.4.4l.4-.2-1.5-1.5c.3.9.5 3.3.1 3.9 0-1 0-2-.2-2.1a49.1 49.1 0 0 0 0 5.7c.1 0 .3.6 0 .7v-.7h-.2v3.9h1.9c1.5 0 1.4-.1 0-.4l-1.7-.3.2-1.2v1.4h8a48.9 48.9 0 0 1 7.1-.4h1v-1.1c0-2.1.1-4.3 0-7.1-.3-.1-.4.2-.4.7s.4 3.9 0 3.5V153h-.2c0 .9-.3.4 0 0a6.7 6.7 0 0 0-.4-2.8c-.3 3.5.6 5.1.2 6.4s.1 1.7.2 2.8v.3h-.3a122.5 122.5 0 0 1-13.5-.2h13.6v-2.8a11.3 11.3 0 0 0-.4 2.8l.3-.3H119c-.5 0-.8.3-1.4.2s0-.2-.7-.2-.8.3-1.4.2 0-.2-.7-.2a9.6 9.6 0 0 1-3.5-.2h-4.4l.5.5c0-3.1.1-6.4.1-9.4v-.6h-.6a41 41 0 0 0-6.8.5v.2c2.1.3 2.6-.3 3.5.4-2.4-.1-6.6.3-7.8-.2a7.9 7.9 0 0 1-2.6.2l.5-.5a10.4 10.4 0 0 1-.4 2.3 15.4 15.4 0 0 0 0-2.3h-.1c2.2-.1 4-.5 5.5 0-1.1 0-2.6-.1-2.8.2s4.2.3 4.3-.2-.8-.2 0-.2a38 38 0 0 0-6.9-.2H93v.3a52.6 52.6 0 0 1 0 5.9c.1.8.4.5.4 1.4a2.5 2.5 0 0 0-.4 1.4 1.5 1.5 0 0 1 .3.7h-1.8a99.6 99.6 0 0 1-11.4 0c.1.3-.3.3-.8.4h-.5v-.5c-.1-.8 0-2.4-.3-2.6zm34.7 3.7c.4.1-.5.3-.7.2s.5-.2.7-.1zm-1.4-.4c.4.1-.5.3-.7.2s.5-.3.6-.2zm0 .4c.4.1-.5.3-.7.2s.5-.2.6-.1zm-4.8-2.9c-.2 0-.2-.9-.2-1.4s.1.9.1 1.4zm0-4.3c-.1.4-.3-.5-.2-.7s.2.6.1.8zm-.4-2.8l.2-.3h-1.1a1.6 1.6 0 0 1 1.1-.3h.4v.3c0 .9-.5 1.8-.7 1.8s-.3 4.2.2 4.3c-.5 3.1-.7-4.2-.2-4.3v-1.8l.3.3H105c-2-.2.6-.3 1.8-.2h-.1zM93 153.8c.3.1.2 1.3.2 2.1s-.1-1.2-.2-2.1zm-27.5 41.5c.1-.2 0-1.1-.2-.7s.1 1 .2.7zm-.2-9.3c0 6.7.6-4.1 0 0zm12.1-35.6c-1.5.4-5.8 0-7.1.4a33.8 33.8 0 0 0 5 0l4 .2-1-1c-.1 2.1-.2 4.1.2 3.1s0-2 0-3.1l.8.8c-1.8.1-3.3.1-1.9-.4zm-10.8 8l-.9 16.3c.6-4.6 1.3-13.3.9-16.3zm65.9-7.9c-.2 0-1.1.1-.8.2s1.1-.1.8-.2zm-2.8 0c-1.8 0-4.6.2-2.6-.4l-4.3.2c-.4.4 1.7.5 3.7.5s4.1-.2 3.2-.3zm-8.2.1c-.2-.1-1 .1-.7.2s1-.1.7-.2z" fill="#ee8e0d"/><path d="M121 151.6c.1-.2-.1-1.1-.2-.7s.1 1.1.2.7zm-42.5 3.7c-.1.2.1 1.1.2.7s-.1-1-.2-.7zm-11.5.3c0-1.5.2-3.6.3-5.4l-.8.8a11.1 11.1 0 0 0 3.1-.3h-3.1l.6-.5c-.2 2.1-.4 4.4-.1 5.4zm-.1 2.1c.1-.2 0-1.1-.2-.7s.1 1 .2.7z" fill="#ee8e0d"/><path d="M91.1 238.2c-8.3.2-18.6.2-29.5.2l.4.4 2.4-40.7c.3-6.3.8-11.7 1.2-17 0-.3-.5-.6-.4-1.4a1.2 1.2 0 0 0 .5-1.4c-.2-.1-.1-.7 0-.7s-.2-1.5-.1-2.8c.1-6 .6-16.2 1-24.6l-.2.2h7.3c1.1 0 4.6.3 4.3-.4l-11.6.3h-.1c-.6 16.1-1.8 36-2.8 50.1.3 2.6-.3 3.7-.2 7.1a2.6 2.6 0 0 0-.6 2.8c0-1.2.2-1.3.5-1.4-.2 1.9 0 5.6-.6 6.4.1-1 .1-2-.1-2.1 0 2.2-.4 2.6-.5 4.2s.8-1.3.6 1.5c-.1 7.5-1.2 14-1.1 20.2l-.2-.2 1.8-.2c9.8.2 17.6.2 27.7.2a11 11 0 0 1 1.4-.2c.3-.9-.2-.5-1.1-.5zm-28.3-22.5c.1-.4.3.5.2.7s-.3-.5-.2-.7zM94.6 238l-2.1.4c1 .4 6 .3 7.1 0v-.2c-2.8.2-3.6.3-5-.2zm39.3-59.1l.6 11.3v2.1c.1.5.1 1.4.3 1.3-.3-4.6-.3-11.4-.9-14.7zm-.1-2.1c.1.5.1 1.4.3 1.3s-.1-1.4-.3-1.3zm-.1-5.8c-.3 3.7.7 1.3 0 0z" fill="#ee8e0d"/><path d="M78.9 151.1v-1l.3.3c-1.5 0-.8.3 0 .3l-.6-.6a1.7 1.7 0 0 0 .3 1zm42.7 87.3c2.7 0 5.3.4 7.8-.2h-12.8c-4.6 0-9.2-.2-10.6.4 6.4.2 11.3-.1 15.6-.2z" fill="#ee8e0d"/><path d="M134.6 180.7l-.2-2.8c0-1.3-.3-1.3-.2-.6.5 7.4.7 13.1.9 18.3s.4 10.2 1 16.3c0-.4.1-.9.2-.1s.3.5 0 .7a16.8 16.8 0 0 0 0 3.6c.4 6.6.8 15 1.4 22.6l.2-.2-12.7.3h-10.7c-2.6-.2-2.6.4 0 .2h5c5.9-.1 12.7.1 18.4 0h.3v-.3c-.1-1.8-.3-3.5-.5-5s.3-2.2.2-3.6-.4-2.8-.5-4.2c-.1-3.2 0-6.6-.1-10.1 0-1.1-.4-2.4-.4-3.5-.2-4.8-.1-10.8-.6-14.3a2.6 2.6 0 0 1-.1 1.5c.1.9-.3.6 0 0l-.4-7.8c-.1-1-.6 0-.7-1.1a3.7 3.7 0 0 0 .3-1.6c-.5-.5-.3-4.4-.6-6.3-.1 0-.1-1.2-.2-2zm2.3 34.6c-.1.4-.3-.4-.3-.7s.4.5.3.7zm-.2-7.2c-.5.3-.2-2.5-.4-3.5l-.2-3.6c.5.9.4 5 .6 7.1zm-.3 2.3c-.6-2-.5-7.3-.8-10.6.6 2 .5 7.3.8 10.6zm-.7-15.7c-.2.1-.2-.8-.3-1.3s.3.7.4 1.3zm-.1-2.1c-.1.4-.3-.4-.2-.6s.3.3.2.5zm-12.7-42.2c-.1-.7-2.9.2 0 0zm-44 7.8c-.1.2.1 1.1.2.7s-.1-1.1-.2-.7zm.3-7.1H79c-.2 4 .3 4 .2 0zm20.4 87.3c.8.7 3.8-.2 0 0zm5.7 0c-4.5-.3-1.6.7 0 0z" fill="#ee8e0d"/><path d="M136.1 211.9c0 .6.1.6.3.6v-.7zm-56.5-54.4c0-1.1.3-8.5-.4-6.4.2-.9.3 10.8.4 6.4zm53.9 3.4c.1 4 .6 8.1.8 11.2s0 6.3.7 6.1c-.2-4.6-.6-5.8-.6-10-.2.3-.3.1-.4-.4s.3-.8.3-1.7-.6-5.1-.7-9.1a24.4 24.4 0 0 0-.1 3.9zm-45.6-1.8c-.2-.1-1.1.1-.7.2s1.1-.1.7-.2zm-2.8 0c-.2-.1-1.1.1-.7.2s1-.1.7-.2zm-2.2 0c-.2-.1-1.1.1-.7.2s1.1-.1.7-.2z" fill="#ee8e0d"/><path d="M80.8 159.1c-.6 0-1.4 0-1.4.2s1.4 0 1.4-.2zm-17.5 39.6l-.4 7.8c.4 1.8.3-5.8.8-6.4s-.1-1.4-.4-1.4zm-.4 11.4c.1 1 .3-.1 0 0zm41 29c1-.1-.1-.3 0 0zm1.4 0c1.2-.1 4.2.3 4.3-.2h-2.1c-.9 0-2.1-.1-2.2.2zm4.9 0c.6 0 1.4 0 1.4-.2s-1.3 0-1.4.2zm24.7-56.4c.7 3.8.4-4.1-.2-3.5s.5 1.9.2 3.5zM66 150.5c-.1.2 0 1.1.2.7s-.1-1-.2-.7zm-.5 8.5c-.1.2 0 1.1.2.7s-.1-1-.2-.7zm-.1 1.4c-.1.2 0 1.1.2.7s-.1-1-.2-.7zm-1.9 34.8c0 1.1-.2 2.6.1 2.8s.2-2.6-.1-2.8zm-.8 17.7c.4-2.9-.7-.2 0 0zm31.2 26.4c.6 0 1.4 0 1.4-.2s-1.4 0-1.4.2zm5.7 0c.6 0 1.4 0 1.4-.2s-1.4 0-1.4.2zm4.3-.2c-1 .1.1.3 0 0zm31.5-54.5c-.4.3.1 3.1 0 4.4.5-.3-.1-3.1 0-4.4zm-1.8-27.6c.2-.7-.1-.8 0 0zM80 150.4a.9.9 0 0 0 0-.3v-.9h-.7c-.3 0-.7.1-.4.2h.9v.7c.1.2.2.5.2.3zm-17.2 25.5c-.1.2 0 1.1.2.7s-.1-1-.2-.7zm72.1-27.8c0 .2.2 1 .2.6s-.1-1-.2-.6zm-52.2 9.4c.1-.2-.1-1.1-.2-.7s.1 1 .2.7z" fill="#ee8e0d"/></g><g><path fill="#ffd566" d="M227.9 150.1h-12.7v9.3h-13.7v-9.3h-13.6v9.3h-13.7v-9.3h-12.7l-4.9 88.7h76.2l-4.9-88.7z"/><path d="M190.5 150.4c1.2.5 5.4.1 7.8.2-.9-.7-1.5-.1-3.5-.4-.1.5-3.1.1-4.3.2zm-32.8 65.3c-.1.2 0 1.1.2.7s0-1-.2-.7zm58-62.6v3.5c.4.3.4-3.9 0-3.5zm-20.9-2.9v-.2c-.8 0-.4.2 0 .2z" fill="none"/><path d="M193.3 150.2c-1.4-.5-3.3-.1-5.5 0h.1a15.4 15.4 0 0 1 0 2.3 10.5 10.5 0 0 0 .4-2.3l-.5.5a7.9 7.9 0 0 0 2.6-.2c.3-.4 1.9-.3 2.9-.3zm22 6.4v2.8h-13.6a122.5 122.5 0 0 0 13.5.2h.3v-.3c-.1-1-.1-2-.2-2.7zm.2-3.5c-.3.4 0 .9 0 0zm-7.4 7.4c-.2-.1-1.1.1-.7.2s1.1-.1.7-.2zm-20.1-6.7c0 .8 0 2 .2 2.1s0-2-.2-2.1zm11.7-3.4h1.8l-.3-.3v1.8c.2 0 .7-.9.7-1.8v-.3h-.4a1.6 1.6 0 0 0-1.1.3h1.1l-.2.3v-.3h.1c-1.1 0-3.7.1-1.7.3zm7 9.6c-.2-.1-1.1.1-.7.2s1-.1.7-.2zm-6.9-2.5v.7c.3-.1.2-.7 0-.7z" fill="none"/><path d="M201.4 156.1c-.5-.1-.1-3-.2-4.3s-.3 7.4.2 4.3zm5.3 4.4c-.2-.1-1.1.1-.7.2s1-.1.7-.2zm-4.8-3c0-.6 0-1.4-.2-1.4s-.1 1.4.2 1.4zm0-4.2c.1-.2-.1-1.1-.2-.7s0 1 .2.7zm29.8 54.8c-.3-2.1-.1-6.2-.6-7l.2 3.6c.1.9-.1 3.7.4 3.4zm-.3 2.3c-.3-3.3-.2-8.6-.8-10.6.3 3.3.1 8.6.8 10.6zm-.7-15.7c-.1-.5-.1-1.4-.3-1.3s.1 1.3.3 1.3zm1.1 20.6c0-.2-.2-1.1-.3-.7s.3 1.1.3.7zm-.6-15.7c-.3.6.1.9 0 0zm-.6-7.1c0-.2-.2-1-.2-.6s.1 1.1.2.6zm.4 19.4h.2c-.1-.8-.2-.4-.2 0zm.2-.1v.7c.3-.2.1-.7 0-.7z" fill="none"/><path d="M226.5 178.3c0 .2.1 1 .2.6s-.1-1-.2-.6zm-33.2-25c.2.1 1.1-.1.7-.2s-1 .1-.7.2zm1.2 82.9c-.2-.1-1.1.1-.7.2s1.1-.1.7-.2zm23.7-84.3c.2.1 1-.1.7-.2s-1 .1-.7.2zm-14.4 9.4c.2.1 1.1-.1.7-.2s-1 .1-.7.2z" fill="#ee8e0d"/><path d="M173.4 156.7v3.5h.8c4.7-.1 9.1-.3 13.7-.2h.5v-1.2c.1-2.4.4-5.3.6-8.7l-1.2 1.2h1.9c4 .1 8.2-.1 11.4.4l.4-.2-1.5-1.5c.3.9.5 3.3.1 3.9 0-1 0-2-.2-2.1a49.1 49.1 0 0 0 0 5.7c.1 0 .3.6 0 .7v-.7h-.2v3.9h1.9c1.5 0 1.4-.1 0-.4l-1.7-.3.2-1.2v1.4h8a48.9 48.9 0 0 1 7.1-.4h1v-1.1c0-2.1.1-4.3 0-7.1-.3-.1-.4.2-.4.7s.4 3.9 0 3.5V153h-.2c0 .9-.3.4 0 0a6.7 6.7 0 0 0-.4-2.8c-.3 3.5.6 5.1.2 6.4s.1 1.7.2 2.8v.3h-.3a122.5 122.5 0 0 1-13.5-.2h13.6v-2.8a11.3 11.3 0 0 0-.4 2.8l.3-.3h-1.4c-.5 0-.8.3-1.4.2s0-.2-.7-.2-.8.3-1.4.2 0-.2-.7-.2a9.6 9.6 0 0 1-3.5-.2h-4.4l.5.5c0-3.1.1-6.4.1-9.4v-.6h-.6a41 41 0 0 0-6.8.5v.2c2.1.3 2.6-.3 3.5.4-2.4-.1-6.6.3-7.8-.2a7.9 7.9 0 0 1-2.6.2l.5-.5a10.5 10.5 0 0 1-.4 2.3 15.4 15.4 0 0 0 0-2.3h-.1c2.2-.1 4-.5 5.5 0-1.1 0-2.6-.1-2.8.2s4.2.3 4.3-.2-.8-.2 0-.2a38 38 0 0 0-6.9-.2h-.3v.3a52.6 52.6 0 0 1 0 5.9c.1.8.4.5.4 1.4a2.5 2.5 0 0 0-.4 1.4 1.5 1.5 0 0 1 .3.7h-1.4a99.6 99.6 0 0 1-11.4 0c.1.3-.3.3-.8.4h-.5v-.5c-.5-.8-.4-2.4-.7-2.6zm34.7 3.7c.4.1-.5.3-.7.2s.5-.2.7-.1zm-1.4-.4c.4.1-.5.3-.7.2s.5-.3.7-.2zm0 .4c.4.1-.5.3-.7.2s.5-.2.7-.1zm-4.8-2.9c-.2 0-.2-.9-.2-1.4s.1.9.2 1.4zm0-4.3c-.1.4-.3-.5-.2-.7s.2.6.2.8zm-.4-2.8l.2-.3h-1.1a1.6 1.6 0 0 1 1.1-.3h.4v.3c0 .9-.5 1.8-.7 1.8s-.3 4.2.2 4.3c-.5 3.1-.7-4.2-.2-4.3v-1.8l.3.3h-1.8c-2-.2.6-.3 1.8-.2h-.1zm-13.5 3.4c.3.1.2 1.3.2 2.1s-.2-1.2-.2-2.1zm-27.6 41.5c.1-.2 0-1.1-.2-.7s.1 1 .2.7zm-.1-9.3c0 6.7.6-4.1 0 0zm12-35.6c-1.5.4-5.8 0-7.1.4a33.8 33.8 0 0 0 5 0l4 .2-1-1c-.1 2.1-.2 4.1.2 3.1s0-2 0-3.1l.8.8c-1.8.1-3.2.1-1.9-.4zm-10.7 8l-.9 16.3c.5-4.6 1.2-13.3.9-16.3zm65.8-7.9c-.2 0-1.1.1-.8.2s1.1-.1.8-.2zm-2.7 0c-1.8 0-4.6.2-2.6-.4l-4.3.2c-.4.4 1.7.5 3.7.5s4-.2 3.2-.3zm-8.3.1c-.2-.1-1 .1-.7.2s1.1-.1.7-.2z" fill="#ee8e0d"/><path d="M216 151.6c.1-.2-.1-1.1-.2-.7s0 1.1.2.7zm-42.6 3.7c-.1.2.1 1.1.2.7s-.1-1-.2-.7zm-11.5.3c0-1.5.2-3.6.3-5.4l-.8.8a11.1 11.1 0 0 0 3.1-.3h-3.1l.6-.5c-.1 2.1-.3 4.4-.1 5.4zm-.1 2.1c.1-.2 0-1.1-.2-.7s.1 1 .2.7z" fill="#ee8e0d"/><path d="M186 238.2c-8.3.2-18.6.2-29.5.2l.4.4 2.4-40.7c.3-6.3.8-11.7 1.2-17 0-.3-.5-.6-.4-1.4a1.2 1.2 0 0 0 .5-1.4c-.2-.1-.1-.7 0-.7s-.2-1.5-.1-2.8c.1-6 .6-16.2 1-24.6l-.2.2h7.3c1.1 0 4.6.3 4.3-.4l-11.6.3h-.1c-.6 16.1-1.8 36-2.8 50.1.3 2.6-.3 3.7-.2 7.1a2.6 2.6 0 0 0-.6 2.8c0-1.2.2-1.3.5-1.4-.2 1.9 0 5.6-.6 6.4.1-1 .1-2-.1-2.1 0 2.2-.4 2.6-.5 4.2s.8-1.3.6 1.5c-.1 7.5-1.2 14-1.1 20.2l-.2-.2 1.8-.2c9.8.2 17.6.2 27.7.2a11 11 0 0 1 1.4-.2c.4-.9-.2-.5-1.1-.5zm-28.3-22.5c.1-.4.3.5.2.7s-.3-.5-.2-.7zm31.9 22.3l-2.1.4c1 .4 6 .3 7.1 0v-.2c-2.8.2-3.7.3-5-.2zm39.2-59.1l.6 11.3v2.1c.1.5.1 1.4.3 1.3-.3-4.6-.3-11.4-.9-14.7zm-.1-2.1c.1.5.1 1.4.3 1.3s-.1-1.4-.3-1.3zm-.1-5.8c-.3 3.7.7 1.3 0 0z" fill="#ee8e0d"/><path d="M173.9 151.1v-1l.3.3c-1.5 0-.8.3 0 .3l-.6-.6a1.7 1.7 0 0 0 .3 1zm42.6 87.3c2.7 0 5.3.4 7.8-.2h-12.7c-4.6 0-9.2-.2-10.6.4 6.3.2 11.2-.1 15.5-.2z" fill="#ee8e0d"/><path d="M229.5 180.7l-.2-2.8c0-1.3-.3-1.3-.2-.6.5 7.4.7 13.1.9 18.3s.4 10.2 1 16.3c0-.4.1-.9.2-.1s.3.5 0 .7a16.8 16.8 0 0 0 0 3.6c.4 6.6.8 15 1.4 22.6l.2-.2-12.7.3h-10.7c-2.6-.2-2.6.4 0 .2h5c5.9-.1 12.7.1 18.4 0h.3v-.3c-.1-1.8-.3-3.5-.5-5s.3-2.2.2-3.6-.4-2.8-.5-4.2c-.1-3.2 0-6.6-.1-10.1 0-1.1-.4-2.4-.4-3.5-.2-4.8-.1-10.8-.6-14.3a2.6 2.6 0 0 1-.1 1.5c.1.9-.3.6 0 0l-.4-7.8c-.1-1-.6 0-.7-1.1a3.7 3.7 0 0 0 .3-1.6c-.5-.5-.3-4.4-.6-6.3-.1 0-.1-1.2-.2-2zm2.3 34.6c-.1.4-.3-.4-.3-.7s.4.5.3.7zm-.2-7.2c-.5.3-.2-2.5-.4-3.5l-.2-3.6c.6.9.4 5 .7 7.1zm-.3 2.3c-.6-2-.5-7.3-.8-10.6.6 2 .5 7.3.9 10.6zm-.7-15.7c-.2.1-.2-.8-.3-1.3s.3.7.4 1.3zm-.1-2.1c-.1.4-.3-.4-.2-.6s.3.3.3.5zm-12.7-42.2c-.1-.7-2.9.2 0 0zm-43.9 7.8c-.1.2.1 1.1.2.7s-.1-1.1-.2-.7zm.2-7.1h-.2c-.2 4 .3 4 .2 0zm20.4 87.3c.8.7 3.8-.2 0 0zm5.7 0c-4.5-.3-1.6.7 0 0z" fill="#ee8e0d"/><path d="M231 211.9c0 .6.1.6.3.6v-.7zm-56.5-54.4c0-1.1.3-8.5-.4-6.4.2-.9.3 10.8.4 6.4zm53.9 3.4c.1 4 .6 8.1.8 11.2s0 6.3.7 6.1c-.2-4.6-.6-5.8-.6-10-.2.3-.3.1-.4-.4s.3-.8.3-1.7-.6-5.1-.7-9.1a24.4 24.4 0 0 0-.1 3.9zm-45.6-1.8c-.2-.1-1.1.1-.7.2s1.1-.1.7-.2zm-2.8 0c-.2-.1-1.1.1-.7.2s1.1-.1.7-.2zm-2.1 0c-.2-.1-1.1.1-.7.2s1-.1.7-.2z" fill="#ee8e0d"/><path d="M175.7 159.1c-.6 0-1.4 0-1.4.2s1.4 0 1.4-.2zm-17.5 39.6l-.4 7.8c.4 1.8.3-5.8.8-6.4s-.1-1.4-.4-1.4zm-.4 11.4c.1 1 .3-.1 0 0zm41 29c1-.1-.1-.3 0 0zm1.4 0c1.2-.1 4.2.3 4.3-.2h-2.1c-.9 0-2.1-.1-2.2.2zm5 0c.6 0 1.4 0 1.4-.2s-1.4 0-1.4.2zm24.6-56.4c.7 3.8.4-4.1-.2-3.5s.5 1.9.2 3.5zm-68.9-32.2c-.1.2 0 1.1.2.7s-.1-1-.2-.7zm-.5 8.5c-.1.2 0 1.1.2.7s-.1-1-.2-.7zm-.1 1.4c-.1.2 0 1.1.2.7s0-1-.2-.7zm-1.9 34.8c0 1.1-.2 2.6.1 2.8s.2-2.6-.1-2.8zm-.7 17.7c.4-2.9-.7-.2 0 0zm31.1 26.4c.6 0 1.4 0 1.4-.2s-1.3 0-1.4.2zm5.7 0c.6 0 1.4 0 1.4-.2s-1.4 0-1.4.2zm4.3-.2c-1 .1.1.3 0 0zm31.5-54.5c-.4.3.1 3.1 0 4.4.5-.3 0-3.1 0-4.4zm-1.8-27.6c.2-.7-.1-.8 0 0zm-53.5-6.6a.9.9 0 0 0 0-.3v-.9h-.7c-.3 0-.7.1-.4.2h.9v.7c0 .2.1.5.2.3zm-17.3 25.5c-.1.2 0 1.1.2.7s-.1-1-.2-.7zm72.1-27.8c0 .2.2 1 .2.6s-.1-1-.2-.6zm-52.2 9.4c.1-.2-.1-1.1-.2-.7s.1 1 .2.7z" fill="#ee8e0d"/></g><g><path d="M237.6 238c-.2-.5-.5 0-.8-.1s.2.1.4.4.3-.1.4-.3zm11 .5c0 .1.1-.1.1-.2s-.2.1-.1.2zm-14.8-.4h.3c.1-.3-.3-.3-.3 0zm3.5.2v.2c.1 0 0-.2 0-.2z" fill="none"/><path d="M237.4 238.3c.3.6.4-.4.7-.2s-.5-.5-.5-.1-.1.2-.2.3zm-3.3.3h1.6a1.3 1.3 0 0 0-1.6 0zm-.3-.2c0 .3.1 0 0 0zm1.3-.7c0 .1.1-.1.1-.2s-.2.1-.1.2zm3.2.4c.1-.1.2 0 .1-.3s-.2 0-.1.3zm-1.5.1h-.3c0 .3.4 1.1.3.4s-.1 0-.2-.2.4-.1.2-.2zm-1.6-.1c0 .1.1-.1.1-.2s-.1.1-.1.2zm.6-1.1h-.1c0 .2.1.1.1 0zm.3 1.5c0-.5.3-.1.4-.3s-.8-.2-.4.3zm-.9-.8c0 .1.1-.1.1-.2s-.1.1-.1.2zm.8 1.3c0-.1.1 0 .1-.2s-.2-.1-.1.2zm.4-.1c0 .1.1-.1 0-.2s-.1.1 0 .2zm24.6.9c.2-.1.6.4.7-.1h-.4c0 .1-.2-.4-.3.1zm-.1-.5c.3-.1.8.5 1.1 0s-.8-.4-1.1 0zm1.5.5c.1 0 .1 0 .2-.2s-.2 0-.2.2zm-2-.4c0 .1.1-.1.1-.2s-.1.1-.1.2zm1.5.6c0-.3-.1 0 0 0zm.7-.2c0 .1.1-.1.1-.2s-.1.1-.1.2zm-1.7-.9zm-.1.2h-.1c0 .2.1.1.1 0z" fill="none"/><path d="M263.4 236zm-26.6-.8c0-.1-.1.1 0 .2s0-.1 0-.2zm17.7.5c0-.1-.1.1-.1.2s.2-.1.1-.2zm-21.2 1.1c0-.1-.1.1-.1.2s.2-.1.1-.2zm2.1 0c0-.1-.1.1 0 .2s0-.1 0-.2z" fill="#ee8e0d"/><path d="M240.2 236.8c-.6.1-1 .7-1.6.7s-.7-.4-1.1-.4-.7.2-1.1-.2-.2.8-.3.3.2 0 .2-.2-.2 0-.5.1 0 .3-.1 0h.1v-.2c-.3 0-.3.1-.1.5h-.7c-.4.7-.7.3-1.3.4s0 .4 0 .4.4-.4.3 0h-.3v.2c.1 0 0 .3 0 0s-.2.1-.3.4.5-.5.6-.2a1.3 1.3 0 0 1 1.6-.1H234a.5.5 0 0 0 .4.4c.1 0 .1-.3.1-.2s0 .2.1.2.1-.3.1-.2 0 .2.1.2.1-.2.4.2 1.7.3 2-.7v-.2c-.3-.3-.2.3-.4-.4s.5-.4.8.1.3-.2.5.1-.4.8-.7.2.3 0 .2-.3-.4-.2-.4.3.1.2 0 .2 1-.3 1.3-.1-.1-.4 0-.5.2.4.3.4-.1-.5.1-.5.5-.5 1.1-.3.3-.1.2-.6zm-5.1.9c0-.1 0-.3.1-.2s-.1.2-.1.2zm.2.4c0-.1 0-.3.1-.2s-.2.3-.2.2zm0-.4c0-.1 0-.3.1-.2s-.2.2-.2.2zm.8 1.3c0-.2.1-.2.1-.2s-.2.1-.2.2zm.4 0c-.1-.1 0-.3 0-.2s-.1.2-.1.1zm.2-.5c0 .2.1.2.2.2s-.3-.1-.3-.4-.4-.2-.4.3.3-.8.4-.3h.3c.1 0-.2.2-.3.1zm1.7-.4c-.1-.3.1-.2.1-.3s-.1.2-.2.3zm8.4-1.3c0-.1-.1.1-.1.2s.1-.1.1-.2zm-1 .5c.7-.3-.3-.4 0 0zm-4.7-.2c.1-.4.6 0 .7-.5s-.5 0-.6 0-1.1-.5-.8.1.9-.4.7.4zm2-.2l1.6.4c-.3-.4-1.2-.8-1.6-.4zm-10.7 1.1c0 .1.1-.1.1-.2s-.2.1-.1.2zm.2 0c.2 0 .5-.1.2.5l.4-.2c.2-.8-.7-.5-.6-.3zm.8.1c0 .1.1-.1.1-.2s-.1.1-.1.2z" fill="#ee8e0d"/><path d="M233.7 237.9c0-.1-.1.1-.1.2s.1-.1.1-.2zm6.6-1.1c0-.1-.1.1 0 .2s.1-.1 0-.2zm2.6-.2c-.3.1-.8-.4-.9.1s.7.4.9-.1zm.2.1c0-.1-.1.1-.1.2s.1-.1.1-.2zm10.6 1a20.6 20.6 0 0 1-6.8 0 6 6 0 0 1-1.5-.5s-.2.5-.2.4.1-.7 0-.5-.1.1-.1 0-.2.2-.3.2-2.2-.3-3.2 0-.5-.3-.4.5a4.5 4.5 0 0 1 3-.2l2.9.8c.3-.4.4.1.7-.2s.1 1.1.3.5-.1-.2-.1-.5.6-.3.6.2-.2 0-.2.2.2.2.4.2-.1-.7.2-.7 1.5.5 2.1-.3a14.3 14.3 0 0 0 2.7.1c.1 0 .1-.2.1-.2h-.2zm-5.1.8c0-.1.1-.3.1-.2s-.1.2-.1.2z" fill="#ee8e0d"/><path d="M254 237.4a1.1 1.1 0 0 1-.2.4c.1.4.6.3.7 0v-.2c-.2.2-.3.4-.5-.2zm9.9 1.3h-1.1s-.1 0-.1.2 1 .3 1.2-.2zm.1-.1c0 .1-.1 0-.1.2s.2 0 .1-.2zm.6.1c-.5-.5.1.7 0 0zm-23.7-1.6c.4.2 0-.7 0 0zm15.8.9c.3 0 .5.4.8-.1h-1.3c-.5 0-.9-.3-1.1.4a3.8 3.8 0 0 0 1.6-.3z" fill="#ee8e0d"/><path d="M263.8 239.3h.3c.1 0 .1-.2 0-.2a2.2 2.2 0 0 1-1.7 0 2.7 2.7 0 0 0-1.5-.2s0 .2-.1.2-.1.2-.1 0-.2-.3-.3-.3-2.5-.7-3.5-.3h-1c-.2-.2-.3.4 0 .2h.5c.8-.1 1.5.4 2.3.1s.1.4.2.5.3-.2.5-.1.5.6.8.7h.4c.4.1.9.8 1.4.5s-.1-.1-.1-.2 0-.3 0 0h.8c.1 0 .1-.7.2-.7s.1.4.1.4.4-.1.6-.3.1-.2.2-.3zm-3.4.1c0-.1.1-.3.1-.2s-.1.3-.1.2zm.6.4c.1-.5.3 0 .4-.1h.4c-.2.5-.6 0-.8.1zm-.1-.5c.3-.4.7.1 1.1 0s-.7 0-1.1 0zm1.5.5c0-.2.1-.2.2-.2s-.1.2-.2.2zm.2 0c0-.1.1-.3.1-.2s-.1.3-.1.2zm-29.3-1.5c0 .7.3-.2 0 0zm6.8-1c0-.1-.1.1 0 .2s.1-.1 0-.2zm.8 0v-.2c-.5-.1-.4.5 0 .2zm13.6.6c.1.7.4-.2 0 0zm.6 0c-.4-.3-.2.7 0 0z" fill="#ee8e0d"/><path d="M260.9 238.9c0-.1-.1.1-.1.2h.1zm-20.5-1c.1 0 .8.1.5-.6s-.9.6-.5.6zm25.1.8c-.4.1-.6.5-.9.7s-.7-.2-.5.6.5-.5 1-.3-.1-.4-.1-.4.2.3.3.3.3-.6.7-.8-.3-.1-.5-.1zm-26.1-.5c0 .1.1-.1 0-.2s-.1.1 0 .2zm.3-.1c0 .1.1-.1 0-.2s-.1.1 0 .2zm.2 0c0 .1.1-.1 0-.2s-.1.1 0 .2zm.2-.1c0-.1.1 0 .1-.3s-.2.1-.1.3zm6.8.8h.8c.2-.5-.6 0-.6-.5s-.2.2-.2.5zm1.1-.1c.1-.1 0-.3 0 0zm6.9-.1c.1-.1 0-.3 0 0zm.2 0c.1-.1.4.3.4-.2h-.2c-.1 0-.2-.1-.2.2zm.5 0c.1 0 .1 0 .1-.2s-.1 0-.1.2z" fill="#ee8e0d"/><path d="M263.6 239.6c-.4.6.5.7.4-.1s-.2.5-.4.1zm-21.3-1.7c0 .1.1-.1.1-.2s-.2.1-.1.2zm.7.1c0 .1.1-.1.1-.2s-.1.1-.1.2zm.1 0c0 .1.1-.1.1-.2s-.1.1-.1.2zm3.4.8c.1 0 .3.1.3-.2s-.2-.1-.3.2zm1.8-.1c-.3-.2 0 .7 0 0zm5.7.1c.1-.1.1 0 .1-.2s-.1 0-.1.2zm.5 0c.1 0 .1 0 .1-.2s-.1 0-.1.2zm.4-.2c-.1.1 0 .3 0 0zm8.5 1.5c0-.5-.3-.1-.5-.2s.4 0 .5.2zm2.7-1.3c.3.2.1-.1 0 0zm-25-.6c0 .1.1-.1 0-.2s0 .1 0 .2zm3.1 1.9c0 .1.1-.1.1-.2s-.1.1-.1.2zm24.5-.6c-.1 0 0 .2.1.2s0-.2-.1-.2zm-27.5 1.4v-.2c0-.1-.1.1 0 .2z" fill="#ee8e0d"/></g><g><path d="M57.6 238.5c0 .5.4.2.6.3s-.1-.1-.2-.5-.2.1-.4.2zm-8.9-.8c0-.1-.1.1 0 .2s0-.1 0-.2zm12.3 1.2h-.3c0 .4.4.4.3 0zm-3-.6v-.2.2z" fill="none"/><path d="M57.9 238.3c0-.7-.4.2-.6-.1s.2.7.4.3.1-.2.2-.2zm2.8.2h-1.3a.9.9 0 0 0 1.3 0zm.3.2c-.1-.3-.1 0 0 0zm-1.1.7c0-.1-.1.1-.1.2s.1-.1.1-.2zm-2.7-1.2c-.1 0-.2-.1-.2.2s.1 0 .2-.2zm1.2.4h.3c0-.3 0-1.1-.2-.5s.1.1.1.2-.4.1-.2.3zm1.3.3c0-.1-.1.1-.1.2s.2 0 .1-.2zm-.6 1.1h.1c-.1-.2-.1-.1-.1 0zm0-1.5c0 .5-.3.1-.4.2s.6.3.4-.2zm.6.9c0-.1-.1.1-.1.2s.2-.1.1-.2zm-.5-1.4s-.1 0-.1.2.1 0 .1-.2zm-.3 0c0-.1-.1.1-.1.2s.1-.1.1-.2zm-20.6 1.4c-.2.2-.5-.3-.5.3h.3c0-.2.3.2.2-.3zm.2.4c-.3.2-.7-.2-.8.3s.7.2.8-.3zm-1.2-.1c0 .1-.1 0-.1.2s.1 0 .1-.2zm1.6-.2c0-.1-.1.1 0 .2s0 0 0-.2z" fill="none"/><path d="M37.7 239.4c.1.3.1 0 0 0zm-.6.3c0-.1-.1.1-.1.2s.1-.1.1-.2zm1.6.5v-.2c-.1.1 0 .2 0 .2zm0-.2h.1c-.1-.2-.1-.1-.1 0z" fill="none"/><path d="M35.4 243.4c0 .1.1-.1.1-.2s-.1.1-.1.2zm22-2c0 .1.1-.1.1-.2s-.1.1-.1.2zm-13 0c0 .1.1-.1 0-.2s0 .1 0 .2zm17.3-1.2c0 .1.1-.1 0-.2s-.1.1 0 .2zm-2.3.1c0 .1.1-.1.1-.2s-.1.1-.1.2z" fill="#ee8e0d"/><path d="M55.2 238.3c.4.2 1-.1 1.4.2s.4.7.8.9.7 0 .9.6.4-.7.4-.2-.2-.1-.2.2.2.1.5 0 .1-.2.1 0H59v.2c.3.1.4 0 .2-.4h.6c.5-.7.7-.2 1.3-.5s0-.4-.1-.4-.3.4-.3 0h.3v-.2c-.1 0-.1-.3 0 0s.2-.2.2-.5-.4.6-.5.3a.9.9 0 0 1-1.3 0h1.3c-.1-.4-.3-.4-.4-.4s-.1.3-.1.2 0-.2-.1-.2-.1.3-.1.2 0-.2-.1-.2-.1.1-.3-.2-1.2-.5-1.7.3v.2c.1.4.2-.2.2.5s-.6.2-.6-.3-.4 0-.4-.3.6-.6.6.1-.2-.1-.3.2.3.3.4-.2 0-.2 0-.2-.8-.1-1-.4-.1.4-.2.4.1-.4 0-.5-.2.4-.3.4-.6.1-.9-.3 0 0-.2.5zm4.6 1.1c0 .1-.1.3-.1.2s.1-.3.2-.2zm-.1-.4c0 .1-.1.3-.1.2s.1-.3.1-.3zm0 .4c0 .1-.1.3-.1.2s.1-.3.1-.2zm-.5-1.4c0 .2-.1.2-.1.2s.1-.1.1-.2zm-.3 0c0 .1-.1.3-.1.2s.1-.3.1-.2zm-.3.4c0-.2 0-.3-.1-.2s.2.1.2.5.3.3.4-.2-.4.7-.4.2h-.3c-.2-.3.1-.4.2-.3zm-1.4-.3c-.1.3-.1.2-.2.2s.1-.1.2-.1zm-6.5.8c0 .1.1-.1 0-.2s-.1 0 0 .2zm.5-.9c-.4.5.4.3 0 0zm3.5-.4c-.2.4-.4-.2-.6.3s.3.1.4.1.4.8.5.2-.7.1-.3-.6zm-1.4 0h-1.2c.4.3.9.5 1.2 0zm9 1.2c0-.1-.1.1 0 .2s.1-.1 0-.2zm-.2 0c-.2 0-.4.2-.3-.4l-.3.3c0 .8.8.3.6.1zm-.7.1c0-.1-.1.1 0 .2s0-.1 0-.2z" fill="#ee8e0d"/><path d="M61.1 239.1c0 .1.1-.1 0-.2s0 .1 0 .2zm-6-.9c0 .1.1-.1.1-.2s-.1.1-.1.2zm-1.7-.4c.2-.1.4.4.6-.1s-.4-.4-.6.1zm-.1 0c0 .1.1-.1.1-.2s-.1.1-.1.2z" fill="#ee8e0d"/><path d="M44.7 239.3c1.4-.8 3.8-.9 5.6-1.3h1.4s-.1-.5 0-.5.2.7.2.4 0-.1.1 0 .1-.3.2-.3a2.2 2.2 0 0 1 1.1-.4h1.3c.1 0 .3.4.5-.3h-2.7l-2.5.3c-.1.5-.3 0-.5.3s-.4-1.1-.3-.4.1.1.2.4-.4.4-.6-.1.2 0 .1-.3-.3-.2-.4-.1.3.7 0 .7-1.3-.2-1.7.6a9.5 9.5 0 0 0-2.2.3c0 .1 0 .2-.1.2s.2.5.3.5zm4-1.6c.1.1 0 .3 0 .2v-.2zm-4.3 1.9a1.2 1.2 0 0 1 .1-.5c-.2-.4-.5-.2-.6.1v.2c.3-.2.3-.3.5.2zm-8.5 1.1H37s.1 0 .1-.2-.9-.3-1.2.2zm-.2 0c.1 0 .1 0 .1-.2s-.1 0-.1.2zm-.5-.3c.2.7.2-.7 0 0zm19.7-2.7c-.2-.3-.3.6 0 0zm-12.7 1.9c-.2.1-.5-.3-.6.4l1-.2c.4-.1.8.1.7-.6s-.8.3-1.1.4z" fill="#ee8e0d"/><path d="M36.1 240.1h-.2c-.1-.1-.1.2-.1.2s1.9.6 2.9 0-.1-.2 0-.2 0-.3.1 0 .2.2.3.2a5.6 5.6 0 0 0 2.8-.9h.8c.2.1.1-.4 0-.2h-.4c-.6.3-1.4 0-1.8.6s-.2-.4-.4-.4-.2.3-.3.3l-.8-.3-.3.3c-.4 0-.9-.5-1.1-.1s.1 0 .1.2.1.3 0 0H37c-.1 0 0 .7-.1.7s0-.4-.1-.4-.4.1-.5.2-.1-.3-.2-.2zm2.8-.5v-.1zm-.6-.2c.1.5-.2.1-.3.2h-.3c.1-.5.5-.1.6-.2zm.2.4c-.1.5-.6.1-.8.3s.6-.1.8-.3zm-1.3-.1c0 .2-.1.2-.1.2s.1-.2.2-.2zm-.2 0c0 .1 0 .3-.1.2s.2-.3.2-.2zm24.5-1c-.1-.7-.2.2 0 0zm-6-.8c0 .1.1-.1.1-.2s-.1.1-.1.2zm-.5-.4v.2c.2.3.4-.2 0-.2zm-11.1 1.7c-.2-.6-.2.3 0 0z" fill="#ee8e0d"/><path d="M43.5 239.3c.4.2 0-.7 0 0zm-4.8.9c.1 0 0-.1 0-.2h-.1zm16.9-3c-.1-.1-.6-.5-.6.3s1 0 .6-.3zm-21.1 2.6c.3.3.7 0 .9-.1s.5.4.5-.4-.5.3-.8-.1-.1.4-.1.4v-.5c0-.1-.5.2-.7.1s.1.5.2.6zm22-2.3c0-.1-.1.1-.1.2s.1-.1.1-.2zm-.3-.1c0-.1-.1.1-.1.2s.1 0 .1-.2zm-.1 0c0-.1-.1.1-.1.2s.1-.1.1-.2z" fill="#ee8e0d"/><path d="M55.9 237.3c-.1 0-.1 0-.2.2s.1 0 .2-.2zm-6-.3h-.6c0 .5.4-.2.6.3s.1-.1 0-.3zm-.8.4c-.1.2.1.3 0 0zm-5.6 1.3c-.1.2.1.3 0 0zm-.2 0c-.1.1-.4-.2-.3.3h.2c.1-.1.2-.1.1-.3zm-.4.1c0 .1-.1 0-.1.2s.2 0 .1-.2zm-6.6 1.1c.3-.5-.2-.8-.3 0s.2-.5.3 0zm17.7-3.3c0-.1-.1.1-.1.2s.1-.1.1-.2zm-.7-.1c0-.1-.1.1-.1.2s.1-.1.1-.2zm-.2 0c0-.1-.1.1-.1.2s.2-.1.1-.2zm-2.9.4c-.1.1-.2 0-.2.3s.3 0 .2-.3zm-1.3.5c.3.2-.1-.7 0 0zm-4.7.9c0 .1-.1 0-.1.2s.1 0 .1-.2zm-.5.1c0 .1-.1 0-.1.2s.2 0 .1-.2zm-.2.3c.1-.2-.1-.3 0 0zm-7 .7c0 .5.2.1.3.2s-.2 0-.3-.2zm-2.2-.1c.1-.3-.1 0 0 0zm20.9-2.7c0-.1-.1.1-.1.2s.1 0 .1-.2zm-3.7-1.8c0-.1-.1.1 0 .2s0-.1 0-.2zm-16.9 2.1zm22-2.6c0-.1-.1.1-.1.2s.1-.1.1-.2z" fill="#ee8e0d"/></g></svg>